<?xml version="1.0" encoding="utf-8"?>
<!-- Generator: Adobe Illustrator 27.9.1, SVG Export Plug-In . SVG Version: 6.00 Build 0)  -->
<svg version="1.1" id="Layer_1" xmlns="http://www.w3.org/2000/svg" xmlns:xlink="http://www.w3.org/1999/xlink" x="0px" y="0px"
	 viewBox="0 0 144.6 63.3" style="enable-background:new 0 0 144.6 63.3;" xml:space="preserve">
<g>
	<path d="M44.6,40.6c0,13.7-10.2,22.7-22.9,22.7c-9.5,0-18-5.1-21.6-13.2l12.5-4c1.9,2.9,5.1,4.7,8.6,4.7c4.4,0,10.4-2.8,10.4-10.2
		c0-5.9-3.9-9.5-10.4-9.5c-4.3,0-9.2,1.7-12,5l-7-3.6L6.8,0h32.2v12.5H16.2l-1.4,8.6c2.2-1.6,4.8-2.1,8.1-2.1
		C36.3,19,44.6,28.3,44.6,40.6z"/>
	<path d="M94.6,40.6c0,13.7-10.2,22.7-22.9,22.7c-9.5,0-18-5.1-21.6-13.2l12.5-4c1.9,2.9,5.1,4.7,8.6,4.7c4.4,0,10.4-2.8,10.4-10.2
		c0-5.9-3.9-9.5-10.4-9.5c-4.3,0-9.2,1.7-12,5l-7-3.6L56.8,0h32.2v12.5H66.2l-1.4,8.6c2.2-1.6,4.8-2.1,8.1-2.1
		C86.3,19,94.6,28.3,94.6,40.6z"/>
	<path d="M144.6,40.6c0,13.7-10.2,22.7-22.9,22.7c-9.5,0-18-5.1-21.6-13.2l12.5-4c1.9,2.9,5.1,4.7,8.6,4.7c4.4,0,10.4-2.8,10.4-10.2
		c0-5.9-3.9-9.5-10.4-9.5c-4.3,0-9.2,1.7-12,5l-7-3.6L106.8,0h32.2v12.5h-22.9l-1.4,8.6c2.2-1.6,4.8-2.1,8.1-2.1
		C136.3,19,144.6,28.3,144.6,40.6z"/>
</g>
</svg>
