<?xml version="1.0" encoding="utf-8"?>
<!-- Generator: Adobe Illustrator 27.9.1, SVG Export Plug-In . SVG Version: 6.00 Build 0)  -->
<svg version="1.1" id="Layer_1" xmlns="http://www.w3.org/2000/svg" xmlns:xlink="http://www.w3.org/1999/xlink" x="0px" y="0px"
	 viewBox="0 0 222 35.6" style="enable-background:new 0 0 222 35.6;" xml:space="preserve">
<style type="text/css">
	.st0{fill:#282828;}
</style>
<g>
	<path class="st0" d="M90.4,23.8c0.6,0.6,1.2,1.2,1.8,1.8c0.6,0.7,1.3,1.3,1.8,1.9c0.6,0.6,1.1,1.2,1.4,1.7l3-2.5
		c-0.4-0.5-0.9-1-1.5-1.6c-0.6-0.6-1.2-1.2-1.9-1.8c-0.7-0.6-1.3-1.2-1.9-1.7L90.4,23.8z M96.2,25.8c0.3,0.3,0.5,0.5,0.8,0.8
		l-1.4,1.2c-0.2-0.3-0.5-0.6-0.8-0.9c-0.6-0.6-1.2-1.3-1.9-2c-0.4-0.4-0.7-0.7-1-1l1.3-1c0.4,0.3,0.8,0.7,1.2,1.1
		C95,24.6,95.6,25.2,96.2,25.8z"/>
	<path class="st0" d="M1.6,34.4c0.2,0.4,0.4,0.8,0.5,1.2c2.8-0.5,5.2-1,7.2-1.7s3.6-1.5,4.8-2.4c1.3-0.9,2.2-2,3-3.2
		c0.3-0.5,0.6-1,0.8-1.5c0.7,1.3,1.6,2.5,2.5,3.5c1.4,1.5,3.2,2.7,5.4,3.6c2.2,0.9,4.7,1.5,7.7,1.8c0.2-0.4,0.4-0.8,0.6-1.3
		c0.3-0.5,0.6-0.9,0.9-1.4c0.3-0.4,0.6-0.8,0.9-1.1c-4.1-0.3-7.4-1.1-10-2.3c-1.6-0.8-2.9-1.8-3.9-3.1h13.1v-3.6H19.1
		c0.2-0.9,0.3-1.7,0.4-2.7h15.3v-3.6H19.9v-2.3h11.9v-3.5H19.9V8.6h13.4V5h-7.4c0.3-0.4,0.7-0.8,1.1-1.3c0.6-0.8,1.2-1.6,1.8-2.5
		L24.4,0c-0.2,0.5-0.5,1-0.8,1.5c-0.3,0.6-0.7,1.1-1,1.6c-0.3,0.5-0.7,1-1,1.4L22.8,5H12.6l1-0.5c-0.3-0.7-0.7-1.4-1.2-2.3
		c-0.5-0.8-1.1-1.6-1.8-2.2L7.1,1.5C7.7,2.2,8.3,3,8.8,3.8C9,4.2,9.2,4.6,9.4,5H2.4v3.6h13.3v2.2H4.2v3.5h11.5v2.3H0.9v3.6h14.3
		c-0.1,0.9-0.3,1.8-0.5,2.7H0.6v3.6h12.6c-0.6,0.9-1.4,1.6-2.5,2.3c-1.1,0.7-2.5,1.3-4.3,1.8c-1.7,0.5-3.9,1-6.5,1.3
		c0.3,0.3,0.6,0.7,0.8,1.1C1.1,33.5,1.4,33.9,1.6,34.4z M6.8,31.6c1.8-0.5,3.4-1.2,4.5-1.9c1.2-0.7,2.1-1.6,2.8-2.6l1.1-1.6H1.6
		v-1.6h13.9l0.2-0.8c0.2-0.8,0.4-1.8,0.5-2.8l0.1-1.1H1.9v-1.6h14.8v-4.3H5.2v-1.5h11.5V7.6H3.4V6H11l-0.7-1.4
		c-0.2-0.4-0.4-0.8-0.6-1.2C9.4,2.8,9,2.4,8.7,1.9l1.7-0.7c0.4,0.5,0.8,1,1.2,1.6c0.3,0.4,0.5,0.8,0.7,1.2l-0.1,0.1L12.6,6h10.2
		l0.3-1.8c0.1-0.2,0.2-0.3,0.3-0.5c0.3-0.5,0.7-1.1,1-1.7c0.2-0.3,0.3-0.6,0.5-0.9l2.2,0.6c-0.3,0.5-0.6,0.9-1,1.3
		c-0.4,0.5-0.7,0.9-1,1.3L23.7,6h8.6v1.6H18.9v4.2h11.9v1.5H18.9v4.3h14.9v1.6H18.6l-0.1,0.9c-0.1,0.9-0.2,1.7-0.4,2.6l-0.2,1.2
		h16.4v1.6H20l1.3,1.6c1.1,1.4,2.5,2.5,4.2,3.4c2.2,1.1,5.1,1.9,8.5,2.2c-0.3,0.4-0.5,0.8-0.7,1.2c-0.1,0.2-0.3,0.5-0.4,0.7
		c-2.6-0.4-4.9-0.9-6.7-1.7c-2-0.8-3.7-1.9-5.1-3.3c-0.9-0.9-1.7-2-2.4-3.2l-1-1.7L17,26.4c-0.2,0.5-0.5,1-0.7,1.4
		c-0.7,1.1-1.6,2-2.7,2.9c-1.2,0.9-2.7,1.6-4.6,2.3c-1.7,0.6-3.8,1.1-6.2,1.5c-0.1-0.2-0.2-0.3-0.2-0.5c-0.2-0.4-0.4-0.8-0.7-1.2
		C3.7,32.4,5.4,32,6.8,31.6z"/>
	<path class="st0" d="M44.2,16.1c-1.2,1.4-2.7,3-4.3,4.6l3.6,2.7c0.7-0.8,1.3-1.6,1.8-2.3c0.6-0.7,1.1-1.3,1.7-1.9
		c0.8-0.7,1.7-1.4,2.8-1.9c1.1-0.5,2.2-0.8,3.3-0.8c0.8,0,1.6,0.2,2.2,0.7c0.3,0.2,0.5,0.5,0.7,0.9c-0.9,0.5-1.7,0.9-2.6,1.5
		c-1.2,0.7-2.2,1.5-3.2,2.3c-1,0.8-1.7,1.8-2.3,2.8c-0.6,1-0.9,2.2-0.9,3.4c0,1.6,0.4,2.8,1.3,3.7c0.9,0.9,2.1,1.5,3.7,1.9
		c1.5,0.4,3.3,0.6,5.2,0.6c1.2,0,2.4,0,3.7-0.1c1.3-0.1,2.6-0.1,3.8-0.2c1.2-0.1,2.3-0.2,3.1-0.3l0.2-4.4c-1.7,0.3-3.5,0.6-5.4,0.7
		s-3.7,0.3-5.3,0.3c-0.9,0-1.8,0-2.5-0.1c-0.7-0.1-1.4-0.2-1.9-0.4c-0.5-0.2-0.9-0.5-1.1-0.9c-0.3-0.4-0.4-0.9-0.4-1.4
		c0-0.8,0.2-1.5,0.7-2.1c0.4-0.6,1.1-1.3,1.9-1.9c0.6-0.5,1.4-0.9,2.2-1.4c0,0.5,0,0.9,0,1.4c0,0.7,0,1.4-0.1,2
		c0,0.6-0.1,1.2-0.1,1.6h4.1c0-0.6,0-1.3,0-2.1c0-0.8,0-1.6-0.1-2.4c0-0.8,0-1.6,0-2.3c0,0,0-0.1,0-0.1c0.7-0.3,1.5-0.7,2.2-1
		c1.7-0.7,3.2-1.3,4.4-1.8c0.4-0.2,0.9-0.3,1.4-0.5c0.5-0.2,1-0.4,1.5-0.6c0.5-0.2,0.9-0.3,1.3-0.4l-1.7-4c-0.6,0.3-1.3,0.6-1.9,1
		c-0.6,0.3-1.3,0.6-2,0.9c-0.8,0.4-1.6,0.7-2.5,1.1c-0.8,0.4-1.8,0.8-2.8,1.2c-0.1,0.1-0.2,0.1-0.4,0.2c-0.3-0.7-0.7-1.3-1.2-1.7
		c-1-0.9-2.3-1.3-3.9-1.3c-0.5,0-1,0-1.5,0.1c-0.6,0.1-1.1,0.2-1.7,0.3c-0.5,0.1-1,0.3-1.4,0.5c0.6-0.8,1.2-1.8,1.8-2.9
		c0.3-0.5,0.6-1.1,0.8-1.6c1.1,0,2.2-0.1,3.4-0.2c1.6-0.1,3.1-0.2,4.7-0.3c1.5-0.1,3-0.3,4.3-0.5v-4c-1.8,0.3-3.7,0.6-5.8,0.7
		c-1.7,0.2-3.5,0.3-5.2,0.4c0.1-0.4,0.3-0.9,0.4-1.3c0.3-1.1,0.5-2,0.6-2.7l-4.5-0.4c-0.1,1-0.2,2-0.5,3.1C50,5.1,49.9,5.6,49.8,6
		c-0.7,0-1.4,0-2,0c-0.9,0-2,0-3.3-0.1c-1.2-0.1-2.4-0.2-3.3-0.3v4c0.7,0,1.5,0.1,2.2,0.1c0.8,0.1,1.5,0.1,2.3,0.1
		c0.7,0,1.3,0,1.9,0c0.2,0,0.5,0,0.8,0c-0.3,0.7-0.7,1.3-1.1,2C46.4,13.2,45.4,14.6,44.2,16.1z M49.2,10.3l0.7-1.5l-2.4,0
		c-0.5,0-1.1,0-1.9,0c-0.7,0-1.4,0-2.2-0.1c-0.4,0-0.9-0.1-1.3-0.1V6.7c0.7,0.1,1.5,0.1,2.3,0.2C45.7,7,46.8,7,47.7,7
		c0.7,0,1.3,0,2,0l0.7,0l0.2-0.7c0.1-0.5,0.3-1,0.4-1.4c0.2-0.8,0.3-1.5,0.4-2.2l2.3,0.2c-0.1,0.5-0.2,1-0.4,1.5
		c-0.1,0.4-0.2,0.8-0.3,1.2l-0.4,1.4l1.4,0c1.9-0.1,3.6-0.2,5.2-0.4C60.9,6.4,62.5,6.2,64,6v1.9c-1.1,0.1-2.2,0.3-3.4,0.4
		c-1.5,0.1-3.1,0.3-4.7,0.3c-1.2,0.1-2.3,0.1-3.4,0.2l-0.6,0l-0.3,0.5c-0.2,0.5-0.5,1-0.8,1.5c-0.5,1-1.1,1.9-1.7,2.7l1.3,1.5
		c0.3-0.2,0.7-0.3,1.2-0.4c0.5-0.1,1-0.2,1.6-0.3c0.5-0.1,1-0.1,1.4-0.1c1.3,0,2.4,0.4,3.3,1.1c0.4,0.4,0.7,0.8,0.9,1.3l0.4,1
		l1.3-0.6c1-0.4,1.9-0.8,2.7-1.2c0.9-0.4,1.7-0.7,2.5-1.1c0.7-0.3,1.4-0.6,2-0.9c0.3-0.2,0.7-0.3,1-0.5l0.9,2
		c-0.1,0-0.2,0.1-0.3,0.1c-0.5,0.2-1,0.4-1.5,0.6l-1.4,0.5c-1.3,0.5-2.8,1.1-4.5,1.8c-0.7,0.3-1.5,0.6-2.2,1l-0.6,0.3l0,3.1
		c0,0.8,0,1.6,0.1,2.4c0,0.4,0,0.7,0,1h-2c0-0.2,0-0.4,0-0.6c0-0.6,0-1.3,0.1-2c0-0.5,0-1,0-1.4l0-1.7l-1.5,0.8
		c-0.9,0.5-1.7,1-2.3,1.5c-0.9,0.7-1.7,1.4-2.2,2.1c-0.6,0.8-0.8,1.7-0.8,2.7c0,0.8,0.2,1.5,0.5,2c0.4,0.5,0.9,1,1.6,1.2
		c0.6,0.2,1.3,0.4,2.1,0.5c0.8,0.1,1.6,0.1,2.6,0.1c1.6,0,3.4-0.1,5.4-0.3c1.5-0.1,2.9-0.3,4.3-0.5l-0.1,2.3
		c-0.7,0.1-1.4,0.1-2.3,0.2c-1.2,0.1-2.5,0.2-3.7,0.2c-1.3,0-2.5,0.1-3.7,0.1c-1.8,0-3.5-0.2-5-0.5c-1.4-0.3-2.4-0.9-3.2-1.6
		c-0.7-0.7-1.1-1.7-1.1-3c0-1.1,0.2-2.1,0.7-2.9c0.5-0.9,1.2-1.8,2.1-2.6c0.9-0.8,1.9-1.5,3-2.2c0.9-0.5,1.7-1,2.6-1.4l0.8-0.4
		l-0.4-0.9c-0.2-0.5-0.6-0.9-1-1.2c-0.8-0.6-1.8-0.9-2.8-0.9c-1.3,0-2.5,0.3-3.8,0.9c-1.2,0.6-2.2,1.3-3.1,2.1
		c-0.6,0.6-1.2,1.2-1.8,2c-0.4,0.5-0.8,1-1.2,1.5l-1.9-1.4c1.3-1.3,2.5-2.6,3.6-3.8c1.2-1.5,2.3-3,3.1-4.4
		C48.5,11.7,48.8,11,49.2,10.3z"/>
	<path class="st0" d="M106.6,15.5h-9.7v4.7h9.7V15.5z M105.6,19.2h-7.7v-2.7h7.7V19.2z"/>
	<path class="st0" d="M109.5,2.1H94.2v20.4h15.4V2.1z M108.5,21.4H95.2V3.1h13.4V21.4z"/>
	<path class="st0" d="M106.6,4.3h-9.7v4.5h9.7V4.3z M105.6,7.9h-7.7V5.3h7.7V7.9z"/>
	<path class="st0" d="M106.6,9.9h-9.7v4.6h9.7V9.9z M105.6,13.5h-7.7v-2.6h7.7V13.5z"/>
	<path class="st0" d="M110.3,28.6c-0.6-0.9-1.1-1.8-1.7-2.7c-0.6-0.9-1.2-1.8-1.7-2.5l-3.6,1.6c0.5,0.8,1.1,1.7,1.6,2.7
		c0.6,1,1.1,1.9,1.6,2.8c0.5,0.9,0.9,1.7,1.2,2.4l3.8-1.9C111.3,30.2,110.9,29.4,110.3,28.6z M108.3,31.5c-0.2-0.5-0.5-1-0.8-1.5
		c-0.5-0.9-1.1-1.9-1.7-2.8l-1.1-1.7l1.8-0.8c0.4,0.6,0.8,1.2,1.2,1.8l1.7,2.7c0.3,0.5,0.6,0.9,0.8,1.4L108.3,31.5z"/>
	<path class="st0" d="M181.3,6.3c-1.1,0-2.2,0-3.3,0c-1,0-2,0-2.9,0c0-0.6,0-1.1,0-1.6c0-0.2,0-0.5,0-0.9c0-0.4,0.1-0.8,0.1-1.2
		c0-0.4,0.1-0.7,0.1-0.9h-4.9c0.1,0.2,0.1,0.6,0.2,1.2c0.1,0.6,0.1,1.2,0.2,1.9c0,0.4,0,0.9,0.1,1.5c-1.2,0-2.5,0-3.9,0.1
		c-1.5,0-3,0.1-4.6,0.1c-1.5,0-3,0.1-4.4,0.1c-1.4,0-2.6,0-3.7,0l0.1,4.1c1.4-0.1,3-0.2,4.6-0.3c1.6-0.1,3.3-0.1,5.1-0.2
		c1.8-0.1,3.5-0.1,5.3-0.1c0.5,0,1,0,1.5,0c0,0.6,0,1.2,0,1.8c0,0.4,0,0.8,0,1.2c-0.6-0.1-1.2-0.2-1.8-0.2c-1.3,0-2.5,0.3-3.6,0.9
		c-1.1,0.6-2,1.4-2.7,2.4c-0.7,1-1,2.3-1,3.6c0,1.1,0.2,2.1,0.6,2.9c0.4,0.8,0.9,1.6,1.5,2.1c0.6,0.6,1.3,1,2.1,1.3
		c0.8,0.3,1.5,0.4,2.3,0.4c0.8,0,1.6-0.1,2.2-0.4c-0.4,0.5-0.9,1-1.4,1.5c-1,0.8-2.2,1.6-3.6,2.1c-1.4,0.6-2.9,1-4.5,1.4l3.6,3.6
		c2.3-0.7,4.2-1.5,5.8-2.5c1.5-1,2.8-2.2,3.7-3.4c0.9-1.3,1.6-2.6,2-3.9c0.4-1.3,0.6-2.6,0.6-3.9c0-1.6-0.3-3-0.8-4.2
		c-0.1-0.3-0.3-0.6-0.5-0.9c0-0.1,0-0.2,0-0.3c0-0.9,0-1.9,0-2.9c0-0.9,0-1.7,0-2.6c2.6,0,4.8,0,6.6,0.1c1.9,0,3.4,0.1,4.6,0.1l0-4
		c-0.5,0-1.2,0-2.1,0C183.4,6.4,182.4,6.3,181.3,6.3z M185.3,9.3c-1,0-2.2-0.1-3.6-0.1c-1.8,0-4-0.1-6.6-0.1l-1,0l0,1
		c0,0.9,0,1.7,0,2.6l0,3.6l0.2,0.2c0.2,0.3,0.3,0.5,0.4,0.8c0.5,1.1,0.7,2.4,0.7,3.8c0,1.1-0.2,2.4-0.5,3.6c-0.4,1.2-1,2.4-1.8,3.6
		c-0.8,1.2-2,2.2-3.4,3.2c-1.3,0.9-3,1.6-4.9,2.2l-1.9-1.9c1-0.3,2-0.6,3-1c1.5-0.6,2.8-1.4,3.9-2.3c0.6-0.5,1.1-1,1.6-1.7l2-2.6
		l-3.1,1.1c-0.6,0.2-1.2,0.3-1.9,0.3c-0.6,0-1.3-0.1-1.9-0.4c-0.7-0.2-1.3-0.6-1.8-1.1c-0.5-0.5-1-1.1-1.3-1.8
		c-0.3-0.7-0.5-1.6-0.5-2.5c0-1.2,0.3-2.2,0.8-3.1c0.6-0.9,1.3-1.6,2.3-2.1c1-0.5,2-0.8,3.2-0.8c0.5,0,1.1,0.1,1.6,0.2l1.2,0.3
		l0-2.4l0-2.8l-2.5,0c-1.8,0-3.6,0.1-5.3,0.1c-1.8,0.1-3.5,0.1-5.1,0.2c-1.3,0.1-2.5,0.1-3.6,0.2l-0.1-2.1c0.8,0,1.8,0,2.7,0
		c1.4,0,2.8-0.1,4.4-0.1c1.5,0,3-0.1,4.6-0.1c1.4,0,2.7,0,3.9-0.1l1,0l0-1c0-0.7,0-1.2-0.1-1.6c-0.1-0.7-0.1-1.4-0.2-1.9
		c0,0,0,0,0-0.1h2.7c0,0.4-0.1,0.7-0.1,1.1c0,0.4,0,0.7,0,0.9c0,0.4,0,0.9,0,1.5l0,1l1,0c0.9,0,1.9,0,2.9,0c1.1,0,2.2,0,3.3,0
		s2,0,2.9,0c0.4,0,0.7,0,1.1,0L185.3,9.3z"/>
	<path class="st0" d="M172.7,17.7l-0.1-0.2c-0.2-0.3-0.3-0.5-0.5-0.7c-0.8-0.8-1.8-1.3-3-1.3c-0.7,0-1.4,0.2-2,0.5
		c-0.7,0.3-1.2,0.8-1.6,1.5c-0.4,0.7-0.6,1.4-0.6,2.3c0,1.3,0.4,2.3,1.3,3C167,23.6,168,24,169,24c0.9,0,1.7-0.3,2.4-0.8
		c0.7-0.5,1.1-1.4,1.3-2.5c0.1-0.8,0.1-1.7-0.1-2.7L172.7,17.7z M171.8,20.4c-0.2,0.9-0.5,1.5-1,1.9c-0.5,0.4-1.1,0.6-1.8,0.6
		c-0.8,0-1.6-0.3-2.2-0.8c-0.6-0.6-1-1.3-1-2.3c0-0.7,0.2-1.3,0.5-1.8c0.3-0.5,0.7-0.9,1.2-1.1c0.5-0.3,1-0.4,1.5-0.4
		c0.9,0,1.7,0.3,2.3,1c0.2,0.2,0.3,0.3,0.4,0.5C171.9,19,171.9,19.8,171.8,20.4z"/>
	<path class="st0" d="M206.4,10.7c-0.8,0.7-1.5,1.3-2.3,1.9c-0.7,0.6-1.4,1.1-1.9,1.6c-0.6,0.5-1.2,1-2.1,1.7
		c-0.8,0.7-1.7,1.4-2.6,2.2c-0.9,0.8-1.8,1.5-2.7,2.2c-0.9,0.7-1.7,1.4-2.4,1.9l3.1,3.2c1.1-1.2,2.1-2.2,3.2-3.2s2.1-1.8,3.2-2.4
		c1.1-0.7,2.3-1.2,3.5-1.5c1.2-0.4,2.6-0.6,4.1-0.6c1.5,0,2.9,0.3,4.1,0.8c1.2,0.5,2.2,1.2,2.9,2.1c0.7,0.9,1.1,1.9,1.1,3.1
		c0,1.4-0.4,2.6-1.1,3.6c-0.6,0.8-1.4,1.4-2.5,1.9c-0.1-1-0.5-1.9-0.9-2.8c-0.6-1.2-1.5-2.1-2.7-2.8c-1.2-0.7-2.6-1-4.4-1
		c-1.3,0-2.4,0.3-3.4,0.8c-1,0.5-1.8,1.2-2.3,2.1c-0.5,0.9-0.8,1.8-0.8,2.8c0,1.2,0.4,2.3,1.2,3.2c0.8,0.9,1.8,1.6,3.2,2.1
		c1.4,0.5,2.9,0.7,4.7,0.7c3,0,5.5-0.5,7.5-1.4c2-0.9,3.5-2.2,4.6-3.8c1-1.6,1.5-3.4,1.5-5.4c0-1.8-0.5-3.4-1.5-4.8
		c-1-1.4-2.3-2.5-4-3.3c-1.7-0.8-3.6-1.2-5.7-1.2c-0.7,0-1.4,0-2,0.1c-0.7,0.1-1.4,0.2-2.1,0.4c0.7-0.5,1.4-1.1,2.2-1.8
		c0.8-0.7,1.6-1.3,2.5-2c0.8-0.7,1.6-1.3,2.4-1.9c0.7-0.6,1.4-1.1,1.9-1.4c0.4-0.3,0.8-0.6,1.3-0.9c0.4-0.3,0.8-0.5,1.3-0.8L215.8,3
		c-0.2,0.1-0.6,0.1-1,0.2c-0.4,0.1-1,0.1-1.7,0.2c-0.4,0-1.1,0.1-1.9,0.1c-0.8,0.1-1.8,0.1-2.8,0.1c-1.1,0-2.1,0.1-3.1,0.1
		c-1,0-2,0.1-2.8,0.1c-0.8,0-1.5,0-1.9,0c-0.5,0-1,0-1.6-0.1c-0.6,0-1.1-0.1-1.6-0.1l0.2,4.4c0.4-0.1,0.9-0.1,1.4-0.2
		c0.5,0,1-0.1,1.5-0.1c0.4,0,0.9-0.1,1.6-0.1c0.7,0,1.4-0.1,2.2-0.1c0.8,0,1.6-0.1,2.4-0.1c0.8,0,1.5-0.1,2.2-0.1
		c0.7,0,1.2-0.1,1.6-0.1c-0.5,0.4-1,0.9-1.7,1.5C207.9,9.4,207.1,10.1,206.4,10.7z M211,8.1l2-1.7h-2.6c-0.4,0-0.9,0-1.6,0.1
		c-0.7,0-1.4,0.1-2.1,0.1c-0.8,0-1.6,0.1-2.4,0.1c-0.8,0-1.5,0.1-2.2,0.1l-1.6,0.1c-0.5,0-1,0.1-1.5,0.1c-0.1,0-0.3,0-0.4,0
		l-0.1-2.2c0.2,0,0.3,0,0.5,0c0.6,0,1.2,0.1,1.7,0.1c0.4,0,1,0,1.9,0c0.8,0,1.8-0.1,2.8-0.1l3.1-0.1c1.1,0,2-0.1,2.9-0.1l1.9-0.1
		c0.8-0.1,1.3-0.1,1.8-0.2c0.1,0,0.3,0,0.4-0.1l1.2,1.7c-0.1,0.1-0.2,0.2-0.4,0.2c-0.5,0.3-0.9,0.6-1.3,0.9
		c-0.5,0.3-1.1,0.8-1.9,1.4c-0.7,0.6-1.5,1.2-2.4,1.9c-0.8,0.7-1.7,1.4-2.5,2l-2.2,1.8l0.9,1.7c0.6-0.2,1.3-0.3,1.9-0.4
		c0.6-0.1,1.3-0.1,1.9-0.1c2,0,3.7,0.4,5.3,1.1c1.5,0.7,2.7,1.7,3.6,3c0.9,1.2,1.3,2.6,1.3,4.3c0,1.8-0.5,3.4-1.4,4.9
		c-0.9,1.4-2.3,2.6-4.1,3.4c-1.9,0.9-4.2,1.3-7,1.3c-1.6,0-3.1-0.2-4.3-0.7c-1.2-0.4-2.1-1-2.8-1.8c-0.6-0.7-0.9-1.5-0.9-2.5
		c0-0.8,0.2-1.5,0.7-2.2c0.5-0.7,1.1-1.3,1.9-1.7c0.8-0.5,1.8-0.7,2.9-0.7c1.5,0,2.8,0.3,3.8,0.9c1,0.6,1.8,1.4,2.3,2.4
		c0.4,0.8,0.7,1.6,0.8,2.4l0.2,1.3l1.2-0.6c1.2-0.6,2.1-1.3,2.8-2.2c0.9-1.2,1.3-2.6,1.3-4.2c0-1.4-0.4-2.6-1.3-3.7
		c-0.8-1-1.9-1.8-3.3-2.4c-1.3-0.6-2.8-0.8-4.5-0.8c-1.6,0-3.1,0.2-4.4,0.6c-1.3,0.4-2.6,0.9-3.7,1.6c-1.1,0.7-2.3,1.5-3.3,2.5
		c-0.8,0.8-1.7,1.6-2.5,2.5l-1.6-1.6c0.5-0.4,1-0.8,1.5-1.3c0.9-0.7,1.8-1.5,2.7-2.2c0.9-0.8,1.8-1.5,2.6-2.2c0.8-0.7,1.5-1.2,2-1.7
		c0.5-0.4,1.2-1,1.9-1.6c0.7-0.6,1.5-1.2,2.3-1.9l2.2-1.9C210,9,210.6,8.5,211,8.1z"/>
	<path class="st0" d="M209.7,26.7c-0.9-1.2-2.2-1.7-3.7-1.7c-1,0-1.8,0.3-2.5,0.9c-0.7,0.6-1,1.3-1,2.2c0,0.8,0.3,1.9,1.6,2.7
		c0.9,0.5,2.1,0.8,3.6,0.8c0.8,0,1.7,0,2.5-0.1l1-0.1l-0.1-1C210.9,28.8,210.4,27.6,209.7,26.7z M207.6,30.5c-1.3,0-2.3-0.2-3.1-0.7
		c-0.8-0.5-1.2-1.1-1.2-1.8c0-0.5,0.2-1,0.7-1.4c0.5-0.4,1.1-0.6,1.8-0.6c1.2,0,2.2,0.5,3,1.4c0.6,0.8,1,1.8,1.1,3
		C209.3,30.4,208.5,30.5,207.6,30.5z"/>
	<path class="st0" d="M149.5,19.9l-2.8-2.4c-0.5,0.5-1,1.1-1.7,1.7c-0.7,0.6-1.3,1.2-2,1.7c-0.1,0.1-0.3,0.2-0.4,0.3
		c-0.6-1.5-1-3-1.4-4.6h7V7.7h-8c0.1-0.1,0.1-0.2,0.2-0.3c0.9-1.2,1.7-2.3,2.3-3.4l-2.4-1.7l-0.7,0.2h-0.9h-5.5
		c0.3-0.5,0.7-1.1,1-1.6l-3.9-0.7c-0.5,1-1.1,2-1.8,3c-0.7,1-1.6,2.1-2.6,3.1c-1,1-2.1,2-3.3,2.8c0.5,0.2,1,0.6,1.6,1
		c0.6,0.4,1,0.9,1.3,1.3v5.2h6.3c-1.2,0.7-2.6,1.4-4,1.9c-1.5,0.6-3,1.1-4.4,1.5c0.3,0.2,0.5,0.5,0.8,0.8c0.3,0.3,0.6,0.7,0.8,1
		c0.3,0.3,0.5,0.6,0.6,0.9c1.5-0.6,3-1.2,4.5-2c0.6-0.3,1.2-0.6,1.7-0.9c0.4,0.4,0.8,0.7,1.2,1.1c-0.5,0.3-1,0.7-1.6,1
		c-1.2,0.7-2.6,1.4-3.9,2c-1.4,0.6-2.7,1.1-3.9,1.5c0.4,0.3,0.7,0.7,1.1,1.3c0.4,0.5,0.6,1,0.8,1.3c1.3-0.5,2.6-1.1,4-1.8
		c1.4-0.7,2.7-1.5,4-2.4c0.4-0.3,0.7-0.5,1.1-0.7c0.3,0.5,0.6,1.1,0.8,1.6c-0.5,0.4-1,0.9-1.6,1.3c-1,0.7-2.2,1.5-3.4,2.2
		c-1.2,0.7-2.5,1.3-3.7,1.9c-1.3,0.6-2.5,1-3.7,1.4c0.4,0.4,0.8,0.8,1.2,1.4c0.4,0.6,0.7,1.1,1,1.5c1.6-0.6,3.3-1.4,5-2.4
		c1.7-1,3.4-2,4.9-3.1c0.4-0.3,0.7-0.5,1.1-0.8c0,0.5,0,1-0.1,1.5c-0.2,0.9-0.5,1.6-0.9,2c-0.3,0.3-0.6,0.5-0.9,0.6
		c-0.3,0.1-0.7,0.1-1.1,0.1c-0.4,0-0.8,0-1.3,0c-0.5,0-1.1-0.1-1.6-0.2c0.3,0.5,0.6,1.1,0.7,1.8c0.1,0.6,0.2,1.2,0.2,1.7
		c0.5,0,1,0.1,1.5,0.1c0.5,0,0.9,0,1.3,0c0.8-0.1,1.5-0.2,2.1-0.4c0.6-0.2,1.2-0.6,1.8-1.1c0.6-0.5,1.1-1.3,1.5-2.3
		c0.3-1,0.5-2.1,0.5-3.3c0-1.3-0.2-2.6-0.7-3.9c-0.4-1.3-1.1-2.7-2.1-3.9c-0.7-0.9-1.5-1.7-2.4-2.5c0.8-0.5,1.5-1.1,2.2-1.6h0.8
		c0.5,2.3,1.1,4.4,1.8,6.5c0.9,2.4,1.9,4.5,3.2,6.4c1.3,1.9,2.8,3.4,4.6,4.6c0.2-0.3,0.5-0.7,0.8-1.1c0.3-0.4,0.6-0.8,0.9-1.2
		c0.3-0.4,0.6-0.7,0.9-0.9c-1.6-1-3-2.3-4.3-3.9c-0.7-0.9-1.3-1.8-1.8-2.9c0.8-0.5,1.6-1,2.5-1.7C147.6,21.6,148.6,20.7,149.5,19.9z
		 M143.4,23.3l-0.8,0.5l0.4,0.8c0.6,1.1,1.2,2.1,1.9,3c1,1.4,2.2,2.5,3.5,3.4c0,0-0.1,0.1-0.1,0.1c-0.4,0.4-0.7,0.8-1,1.2
		c-0.1,0.1-0.1,0.2-0.2,0.3c-1.3-1-2.5-2.3-3.5-3.7c-1.2-1.8-2.3-3.9-3.1-6.2c-0.7-1.9-1.3-4.1-1.8-6.3l-0.2-0.8h-2l-0.3,0.2
		c-0.7,0.6-1.4,1.1-2.1,1.6l-1.1,0.7l1,0.9c0.9,0.7,1.6,1.5,2.2,2.3c0.9,1.2,1.5,2.4,1.9,3.7c0.4,1.2,0.6,2.4,0.6,3.6
		c0,1.1-0.1,2.1-0.4,3c-0.3,0.8-0.7,1.4-1.2,1.8c-0.5,0.5-1,0.7-1.4,0.9c-0.5,0.2-1.1,0.3-1.9,0.3c-0.4,0-0.8,0-1.2,0l-0.6,0
		c0-0.3-0.1-0.6-0.2-0.9c0-0.1-0.1-0.3-0.1-0.4c0,0,0,0,0,0c0.5,0,1,0,1.3,0c0.5,0,1-0.1,1.4-0.2c0.5-0.1,1-0.4,1.4-0.8
		c0.6-0.5,1-1.4,1.2-2.5c0.1-0.5,0.1-1.1,0.1-1.7l-0.1-1.9l-1.5,1.2c-0.3,0.3-0.7,0.5-1.1,0.8c-1.5,1.1-3.2,2.1-4.8,3.1
		c-1.4,0.8-2.8,1.5-4.1,2c-0.2-0.3-0.4-0.5-0.6-0.9c-0.1-0.1-0.2-0.2-0.3-0.4c0.8-0.3,1.5-0.6,2.3-0.9c1.3-0.6,2.6-1.2,3.8-1.9
		c1.3-0.7,2.4-1.5,3.5-2.2c0.6-0.4,1.2-0.9,1.7-1.3l0.5-0.5l-0.3-0.7c-0.2-0.6-0.5-1.2-0.9-1.8l-0.5-1l-0.9,0.6
		c-0.3,0.2-0.7,0.5-1,0.7c-1.2,0.8-2.6,1.6-3.9,2.3c-1.1,0.6-2.1,1.1-3.1,1.5c-0.1-0.2-0.3-0.4-0.4-0.7c0-0.1-0.1-0.1-0.1-0.2
		c0.8-0.3,1.7-0.6,2.6-1c1.4-0.6,2.8-1.3,4-2.1c0.6-0.3,1.1-0.7,1.7-1.1l0.9-0.7l-0.8-0.8c-0.4-0.4-0.8-0.8-1.3-1.2l-0.5-0.4
		l-0.6,0.3c-0.6,0.3-1.1,0.6-1.7,0.9c-1.3,0.6-2.5,1.2-3.7,1.7c-0.1-0.1-0.6-0.8-0.8-1c1-0.3,2-0.7,3-1.1c1.4-0.6,2.8-1.2,4.1-2
		l3.3-1.9h-9.1V11l-0.2-0.3c-0.4-0.5-0.9-0.9-1.5-1.4c-0.1-0.1-0.3-0.2-0.4-0.3c0.8-0.6,1.6-1.3,2.3-2.1c1-1.1,1.9-2.1,2.7-3.2
		c0.6-0.8,1.1-1.7,1.6-2.5l1.7,0.3c-0.1,0.1-1.2,1.9-1.2,1.9h8.3l0.4-0.1l1.2,0.9c-0.5,0.8-1.1,1.7-1.8,2.6l-1.5,1.9h9v6.9h-7.3
		l0.3,1.2c0.4,1.6,0.9,3.2,1.4,4.7l0.5,1.3c0,0,1.4-1.1,1.5-1.2c0.7-0.6,1.4-1.2,2.1-1.8c0.4-0.4,0.8-0.7,1.1-1l1.2,1
		c-0.7,0.6-1.4,1.1-2.1,1.7C145,22.2,144.2,22.7,143.4,23.3z"/>
	<path class="st0" d="M128.2,14.8h7.5V9.5h-7.5V14.8z M129.2,10.5h5.5v3.3h-5.5V10.5z"/>
	<path class="st0" d="M139.3,4.5l-1.7-0.1h-6.8l-0.4,0.6c-0.2,0.2-0.3,0.4-0.5,0.6c-0.4,0.5-0.7,0.9-1.1,1.3l-1.5,1.7h9.1l0.3-0.4
		c0.6-0.7,1.1-1.4,1.6-2.2L139.3,4.5z M137.4,5.6c-0.5,0.8-1,1.5-1.5,2.1h-6.4c0.4-0.5,0.8-0.9,1.2-1.4c0.2-0.3,0.4-0.6,0.6-0.9h6.3
		C137.5,5.5,137.5,5.6,137.4,5.6z"/>
	<path class="st0" d="M145.3,9.5h-7.9v5.3h7.9V9.5z M144.3,13.8h-5.9v-3.3h5.9V13.8z"/>
	<path class="st0" d="M114.1,16.5c0.3,0.6,0.5,1.1,0.8,1.7c0.2,0.6,0.4,1,0.5,1.3c0.9-1.1,1.8-2.3,2.7-3.6v19.7h3.9V8.7
		c0.1-0.2,0.2-0.5,0.3-0.7c1-2.2,1.8-4.4,2.5-6.6l-3.8-1.1c-0.6,1.9-1.2,3.7-2,5.6c-0.8,1.8-1.7,3.6-2.6,5.1c-1,1.6-2,3-3,4.2
		C113.6,15.5,113.8,16,114.1,16.5z M117.2,11.5c1-1.6,1.9-3.4,2.7-5.3c0.7-1.5,1.3-3.1,1.8-4.7l1.8,0.5c-0.6,1.8-1.4,3.7-2.2,5.6
		c-0.1,0.1-0.1,0.2-0.2,0.4l-0.3,0.5v26.1H119V12.5l-1.8,2.8c-0.5,0.8-1,1.5-1.5,2.2c-0.2-0.5-0.4-1-0.7-1.4
		c-0.1-0.3-0.3-0.6-0.4-0.8C115.5,14.1,116.4,12.9,117.2,11.5z"/>
	<path class="st0" d="M78.7,26.6c-0.4,1-0.7,1.9-1.2,2.8c-0.4,0.9-0.9,1.7-1.4,2.4l3.7,1.8c0.5-0.7,0.9-1.6,1.3-2.5
		c0.4-0.9,0.8-1.9,1.1-2.9c0.3-1,0.6-1.9,0.9-2.8l-3.6-1.4C79.4,24.7,79.1,25.6,78.7,26.6z M80.2,25.2l1.7,0.7
		c-0.2,0.6-0.4,1.2-0.6,1.9c-0.3,1-0.7,1.9-1.1,2.8c-0.2,0.6-0.5,1.1-0.8,1.6l-1.9-0.9c0.3-0.5,0.6-1,0.8-1.5
		c0.4-0.9,0.9-1.9,1.2-2.8C79.9,26.3,80.1,25.8,80.2,25.2z"/>
	<path class="st0" d="M78.7,15.3c-0.9,1.1-1.9,2-2.8,2.7c0.4,0.3,0.9,0.7,1.4,1.3c0.5,0.6,0.9,1.1,1.2,1.5c1-0.9,1.9-2,2.9-3.3
		c0.7-0.9,1.3-1.9,1.9-3v8.2h3.9v-8.3c0.3,0.3,0.6,0.5,0.9,0.8c0.6,0.6,1.2,1.1,1.7,1.6c0.6,0.5,1,1,1.4,1.3l2.2-3.3
		c-0.3-0.2-0.7-0.5-1.3-0.9c-0.6-0.4-1.2-0.8-1.8-1.3c-0.7-0.5-1.3-0.9-1.9-1.3c-0.5-0.3-0.8-0.5-1.1-0.7V9.1h5.5V5.6h-5.5V0.2h-3.9
		v5.4h-6.5v3.5h5.8c-0.4,0.9-0.8,1.8-1.4,2.6C80.4,13,79.6,14.2,78.7,15.3z M83.5,9.5l0.6-1.4h-6.4V6.6h6.5V1.2h1.9v5.4h5.5v1.5
		h-5.5v3.2l0.5,0.3c0.3,0.2,0.6,0.4,1.1,0.7c0.6,0.4,1.2,0.8,1.9,1.3c0.7,0.5,2.3,1.7,2.3,1.7l-1,1.4c-0.2-0.2-0.3-0.3-0.5-0.5
		c-0.6-0.5-1.1-1.1-1.8-1.6c-0.3-0.3-0.6-0.5-0.9-0.8l-1.7-1.5v9.5h-1.9v-11l-1.9,3.2c-0.7,1.2-1.2,2.1-1.8,2.9
		c-0.6,0.9-1.3,1.7-1.9,2.3c-0.2-0.2-0.4-0.5-0.6-0.7c-0.2-0.2-0.4-0.4-0.6-0.6c0.7-0.6,1.4-1.3,2-2.1c1-1.1,1.8-2.4,2.6-3.7
		C82.5,11.4,83,10.5,83.5,9.5z"/>
	<path class="st0" d="M85,24.5V30c0,1.2,0.2,2.2,0.5,2.9c0.4,0.7,1,1.2,1.9,1.5c0.9,0.3,2.1,0.4,3.8,0.4c0.2,0,0.5,0,1,0
		c0.5,0,1,0,1.6,0s1.2,0,1.8,0c0.6,0,1.2,0,1.7,0c0.5,0,0.8,0,1,0c1.3,0,2.4-0.2,3.2-0.6c0.8-0.4,1.3-1,1.7-2c0.4-0.9,0.6-2.3,0.8-4
		c-0.4-0.1-0.8-0.2-1.2-0.3c-0.5-0.2-0.9-0.3-1.3-0.5c-0.4-0.2-0.8-0.4-1.1-0.6c-0.1,1.3-0.2,2.2-0.3,2.9c-0.1,0.6-0.3,1-0.6,1.2
		c-0.3,0.2-0.7,0.3-1.3,0.3c-0.3,0-0.8,0-1.4,0c-0.6,0-1.3,0-2,0s-1.3,0-1.9,0c-0.6,0-1,0-1.2,0c-1.1,0-1.7-0.1-2.1-0.2
		c-0.3-0.1-0.5-0.5-0.5-1v-5.4H85z M89.1,31.9c0.3,0.1,0.9,0.3,2.5,0.3H98c0.8,0,1.4-0.1,1.9-0.4c0.5-0.3,0.9-1,1.1-1.9
		c0.1-0.4,0.1-0.9,0.2-1.4c0.4,0.2,0.8,0.3,1.2,0.5c0.2,0.1,0.3,0.1,0.5,0.1c-0.1,1.2-0.4,2.2-0.6,2.9c-0.3,0.7-0.7,1.2-1.2,1.4
		c-0.6,0.3-1.5,0.5-2.7,0.5h-7.2c-1.5,0-2.7-0.1-3.5-0.4c-0.6-0.2-1.1-0.5-1.3-1C86.1,31.9,86,31.1,86,30v-4.4h2v4.4
		C88,31.2,88.7,31.7,89.1,31.9z"/>
</g>
</svg>
