<?xml version="1.0" encoding="utf-8"?>
<!-- Generator: Adobe Illustrator 27.9.1, SVG Export Plug-In . SVG Version: 6.00 Build 0)  -->
<svg version="1.1" id="Layer_1" xmlns="http://www.w3.org/2000/svg" xmlns:xlink="http://www.w3.org/1999/xlink" x="0px" y="0px"
	 viewBox="0 0 33.4 35.6" style="enable-background:new 0 0 33.4 35.6;" xml:space="preserve">
<style type="text/css">
	.st0{fill:#282828;}
</style>
<g>
	<path class="st0" d="M21.2,14.4h6.6V9.5h-6.6V14.4z M22.2,10.5h4.6v2.9h-4.6V10.5z"/>
	<path class="st0" d="M13.3,14.4h6.5V9.5h-6.5V14.4z M14.3,10.5h4.5v2.9h-4.5V10.5z"/>
	<path class="st0" d="M2.9,16.1h27.7V7.8H2.9V16.1z M3.9,8.8h25.7v6.3H3.9V8.8z"/>
	<path class="st0" d="M5.5,14.4h6.4V9.5H5.5V14.4z M6.5,10.5h4.4v2.9H6.5V10.5z"/>
	<path class="st0" d="M8.2,7.1h4.1V5.7h8.6v1.5H25V5.7h8.4V2.2H25V0h-4.1v2.2h-8.6V0H8.2v2.2H0v3.5h8.2V7.1z M1,4.7V3.2h8.2V1h2.1
		v2.2h10.6V1H24v2.2h8.4v1.5H24v1.5h-2.1V4.7H11.3v1.5H9.2V4.7H1z"/>
	<path class="st0" d="M3.8,20.8h7.7c-0.8,0.8-1.9,1.6-3.1,2.4c-1.8,1.2-4.1,2.1-6.8,2.9c0.3,0.2,0.6,0.5,0.9,0.8
		c0.3,0.3,0.6,0.7,0.9,1c0.3,0.4,0.5,0.7,0.6,1c1.4-0.5,2.7-1.1,3.9-1.7c0.7,0.3,1.4,0.6,2,1c0.9,0.5,1.7,1,2.5,1.5
		c0.1,0.1,0.3,0.2,0.4,0.3c-1.2,0.4-2.4,0.8-3.7,1.1C7.1,31.6,5,32,2.8,32.2c0.3,0.4,0.7,1,1,1.6c0.4,0.7,0.6,1.3,0.8,1.7
		c2.4-0.4,4.7-0.8,6.9-1.4c2.3-0.6,4.4-1.4,6.4-2.3c2-0.9,3.8-2.1,5.4-3.4c1.6-1.3,2.9-2.9,3.9-4.7l-2.6-1.4l-0.7,0.2h-0.8h-8.3
		c0.6-0.5,1.1-1.1,1.6-1.7h13.1v3.5h4v-6.7H0v6.7h3.8V20.8z M2.8,23.4H1v-4.7h31.4v4.7h-2v-3.5H15.9l-0.3,0.4
		c-0.4,0.5-1,1.1-1.5,1.6l-1.8,1.7H24l0.5-0.1l1.3,0.7c-0.9,1.3-1.9,2.5-3.1,3.5c-1.5,1.3-3.2,2.4-5.2,3.3c-1.9,0.9-4,1.7-6.2,2.2
		c-2,0.5-4,0.9-6,1.3c-0.1-0.3-0.3-0.7-0.5-1.1c-0.1-0.1-0.1-0.3-0.2-0.4c1.6-0.2,3.3-0.5,4.9-0.9c1.2-0.3,2.4-0.6,3.8-1.1l1.9-0.6
		l-1.6-1.1c-0.1-0.1-0.3-0.2-0.4-0.3c-0.8-0.5-1.7-1.1-2.6-1.5c-0.7-0.4-1.4-0.7-2.1-1l-0.4-0.2l-0.4,0.2c-1,0.5-2,0.9-3.1,1.3
		c-0.1-0.1-0.2-0.2-0.3-0.4c-0.2-0.3-0.4-0.5-0.6-0.8C5.6,25.9,7.4,25,8.9,24c1.3-0.8,2.4-1.6,3.3-2.5l1.8-1.7H2.8V23.4z"/>
	<path class="st0" d="M9,25.6l1.7,0.7c0.4,0.2,0.8,0.4,1.3,0.6c0.9,0.4,1.7,0.9,2.5,1.4c0.5,0.3,1,0.7,1.5,1l0.5,0.4l0.6-0.3
		c1.3-0.6,2.4-1.3,3.4-2.1c0.5-0.4,1-0.8,1.6-1.4l1.7-1.7H11L9,25.6z M11.3,25.3h10c-0.4,0.4-0.9,0.9-1.5,1.3c-1,0.7-2.1,1.4-3.3,2
		c-0.5-0.4-1-0.7-1.6-1.1c-0.8-0.5-1.6-1-2.5-1.4c-0.4-0.2-0.9-0.4-1.3-0.6C11.2,25.4,11.3,25.4,11.3,25.3z"/>
</g>
</svg>
