<?xml version="1.0" encoding="utf-8"?>
<!-- Generator: Adobe Illustrator 27.9.1, SVG Export Plug-In . SVG Version: 6.00 Build 0)  -->
<svg version="1.1" id="Layer_1" xmlns:inkscape="http://www.inkscape.org/namespaces/inkscape"
	 xmlns="http://www.w3.org/2000/svg" xmlns:xlink="http://www.w3.org/1999/xlink" x="0px" y="0px" viewBox="0 0 288.4 32.3"
	 style="enable-background:new 0 0 288.4 32.3;" xml:space="preserve">
<style type="text/css">
	.st0{fill:#070707;}
</style>
<g>
	<path class="st0" d="M10.1,7.3L10,0.2L5.1,0.3c0,1,0.1,2.8,0.1,5.3c-0.4-1.3-0.7-2.4-1-3.3L0.1,3c0.7,2.3,1.2,4.5,1.5,6.8l3.6-1.2
		v2.6c-1.3,0-2.5,0.1-3.5,0.1H0.9L1,16.4l3-0.1c-0.7,3-2,5.8-3.9,8.6l3.5,3.4C4,27.4,4.6,26.2,5,24.6l-0.2,6.9l5.4,0.2l0-8.7
		c0.6,0.6,1.1,1.2,1.6,1.7l2.3-4.1c-1.4-1.3-2.7-2.4-4-3.1c0-0.5,0-0.9,0-1.2c2.3-0.1,3.5-0.1,3.7-0.1l-0.1-5.2L10.2,11l0-2.6
		L13,9.9c0.9-1.8,1.6-4,2.1-6.5l-3.5-1.1C11.3,4,10.8,5.7,10.1,7.3z"/>
	<path class="st0" d="M29.9,15.9c-0.8-0.2-1.7-0.4-2.8-0.4c-2.1,0-3.9,0.2-5.6,0.5l0-0.5l-5.2,0.2c0.1,1.2,0.1,3,0.1,5.3
		c0,2.7-0.1,6.3-0.4,10.7l5.7,0.2l0-5.1l5.3-0.3c0.1,0.6,0,0.9-0.2,1c-0.2,0.1-0.7,0.1-1.5,0.1c-0.3,0-0.7,0-1.2-0.1l0.4,4
		c0.9,0.2,2,0.3,3.3,0.3h0.6c1.2,0,2.2-0.3,2.8-1c0.6-0.7,0.9-1.9,1-3.8c0-1.8,0.1-4.1,0.1-6.8c0-1.3-0.2-2.3-0.6-3
		C31.3,16.6,30.7,16.1,29.9,15.9z M21.6,19.9l0-0.9c2.2-0.2,3.7-0.3,4.4-0.3c0.8,0,1.2,0.3,1.2,0.9l-4,0.2
		C22.9,19.9,22.4,19.9,21.6,19.9z M27.2,23.5l-5.5,0.3l0-1.1c1.9-0.1,3.7-0.1,5.6-0.2V23.5z"/>
	<path class="st0" d="M26.1,10.9v-1l5.4-0.1l-0.3-3.5l-5.1,0.1L26,5.3l6.8-0.1l-0.4-3.5c-3.9,0-6,0.1-6.6,0.2c0-0.9-0.1-1.4-0.1-1.6
		l-4.7,0v1.7h-5.8l0,1.1c0,0,0,0,0-0.1l0.1,2.6l5.8-0.1v1.2c-1.8,0.1-3.5,0.1-5,0.1l0.1,3.5L21,9.9l-0.1,1.1c-1.5,0-3.6,0-6.2,0
		l0.1,3.5l18.6-0.3L33,10.8L26.1,10.9z"/>
	<path class="st0" d="M15.2,3.4l0-0.5c0,0.2-0.1,0.3-0.1,0.4L15.2,3.4z"/>
	<path class="st0" d="M67.1,4.3c-1.1,0-2.4,0-3.9,0.1c0-1,0-2.4,0-4.1h-4.5l0.1,4.4c-1.4,0.1-2.3,0.2-2.9,0.2l-0.1-1.3l-4.9,0.6
		c0.4,3.1,0.6,8,0.6,14.7c-1.5-2.3-2.6-3.8-3.3-4.5c1.6-2.5,2.4-4.7,2.4-6.6c0-2.1-1.3-3.2-4-3.3c-0.4-1.8-0.9-3.3-1.4-4.3L40.3,1
		c0.5,1.4,0.9,2.7,1.2,3.8c-1.2,0-2.2,0.1-2.8,0.3l0,4.6c1.9-0.3,3.4-0.4,4.5-0.4c1.1,0,1.6,0.2,1.6,0.6c0,0.5-0.2,1.1-0.7,2
		c-1.4,2.7-3.7,5-6.8,6.7l2.6,4.5l1.9-1.6c0,2.4-0.1,5.8-0.4,10.1l5.5,0.2l0-5.3c0-2.3,0-4.6-0.1-6.9c0.6,1,1.1,2,1.5,3l3-2.2v0.4
		l0,3.8l7.3-0.1l-0.3,7.2l4.9,0.1l0-7.3l7.2-0.1c0.2-3.7,0.4-8.4,0.4-14.1C70.9,6.3,69.6,4.3,67.1,4.3z M58.7,19.6l-2.9,0V17
		l2.9-0.2V19.6z M55.9,12.1c0-1.2,0-2.1-0.1-2.6c1.1-0.1,2.1-0.2,2.9-0.3l0.1,2.7L55.9,12.1z M66,19.3c-0.6,0.1-1.5,0.1-2.7,0.1v-3
		l2.8-0.1L66,19.3z M66.2,11.5l-3,0.1l-0.1-2.7c0.5,0,1.1,0,1.8,0c0.9,0.1,1.3,0.6,1.3,1.4L66.2,11.5z"/>
	<path class="st0" d="M84.9,3.2l-5.8-0.9c-1.2,3.3-1.9,7.9-2.1,13.9c-0.2,6,0.2,10.7,1.3,14.1l6-0.8c-0.9-3.5-1.4-7.8-1.2-13.1
		C83.2,11.2,83.8,6.8,84.9,3.2z"/>
	<path class="st0" d="M101.6,11.5c1.7,0,3.3,0,4.8,0.2l0.3-5.6c-2-0.1-4-0.2-6-0.1c-0.4-1.7-0.8-3.5-1.3-5.2l-6,1
		c0.4,1.7,0.8,3.3,1.2,4.7c-3.1,0.4-6.1,1-9,1.7l0.7,5.6c3-0.9,6.1-1.5,9.4-1.9c0.3,1.6,0.5,3,0.6,4.3C95.6,16,95,16,94.3,16
		c-2.9,0-5.2,0.7-6.9,2.1c-1.7,1.4-2.5,3.2-2.5,5.5s0.7,4.1,2.2,5.4s3.4,1.9,6,1.9c4.6,0,7.4-2.3,8.5-7c1.5,1,2.7,2,3.7,3.2l2.6-5.4
		c-1.8-1.7-3.7-3-5.8-3.9C102.1,15.9,101.9,13.8,101.6,11.5z M93,25.3c-0.7,0-1.3-0.2-1.8-0.6c-0.5-0.4-0.7-0.9-0.7-1.5
		s0.3-1.1,0.9-1.5c0.6-0.4,1.3-0.5,2.2-0.5c0.9,0,1.8,0.1,2.6,0.3C95.8,24.1,94.7,25.3,93,25.3z"/>
	<path class="st0" d="M143.9,10.5c-0.1-1.9-0.5-3.2-1.4-4c-0.8-0.8-1.7-1.3-2.6-1.4C139,5,138.2,5,137.6,5c-1.1,0-3.8,0.2-8.1,0.7
		c0.2-0.9,0.3-2.6,0.4-5.1l-4.3-0.3c-0.4,4.4-1.1,7.9-2,10.6l-0.1-4l-1.4,0.2l0-6.9l-5,0l0.1,6.7h-1.3c0.1-1.3,0.2-3.1,0.2-5.3
		l-4.4-0.2c-0.2,4.9-0.5,9.3-1,13l4.2,0.8c0.2-0.9,0.3-1.9,0.5-3l1.9,0c0,2,0,3.8,0,5.5c-2.6,0.5-4.8,0.9-6.6,1.2l1,5.3
		c1.8-0.2,3.6-0.6,5.5-1.1c0,4,0,6.8,0,8.5l5.2,0.3V21.7l2.8-0.9l-0.4-5l-2.4,0.7v-4.2l1-0.1c-0.2,0.7-0.5,1.3-0.8,1.7l4.4,1.9
		c0.7-1.6,1.3-3.4,1.9-5.3l1.3-0.3c-1.9,6.7-4.1,11.5-6.7,14.6l4.7,2.2c2.4-3.5,4.5-9.2,6.3-17.2c0.3,0,0.7-0.1,1.2-0.1
		c-1.5,8-3.8,14.6-7,19.8l4.6,1.8c2.8-4.9,4.9-11.4,6-19.6l0,8c0,2.2-0.1,3.7-0.1,4.8c0,1-0.6,1.5-1.9,1.5c-0.2,0-0.5,0-0.7-0.1
		l0.7,5.6c0.5,0.1,1.4,0.2,2.7,0.2c1.5,0,2.5-0.2,3.1-0.7c0.6-0.5,0.9-1.1,1.1-2c0.1-0.9,0.2-2,0.2-3.3c0-3.4,0-6.1-0.1-8
		C143.9,13.4,143.9,11,143.9,10.5z"/>
	<path class="st0" d="M171.7,5.9c0.1-0.6,0.1-1,0.1-1.2c3.5-0.4,6.7-0.8,9.7-1.2l-1.1-3.3c-4.6,0.6-7.5,0.9-8.6,0.9V0.6l-5.3,0.1
		c0.1,1.1,0.1,1.9,0.1,2.5c0,3.9-0.9,6.7-2.7,8.4l5.7,0.7c1-0.8,1.7-1.9,2-3c0.5,0,1.2,0,1.9-0.1c0,0.9-0.1,1.9-0.3,2.9l5.7,0.2V9
		l3.1-0.1l-0.3-3.3C178.9,5.6,175.6,5.7,171.7,5.9z"/>
	<path class="st0" d="M153.1,12c1-0.8,1.7-1.9,2-3c0.8,0,1.4,0,1.9,0c0,0.9-0.1,1.9-0.3,2.9l5.7,0.2V8.8c1-0.1,2-0.1,3.1-0.1
		L165,5.4c-1.1,0-3.4,0.1-6.7,0.2c-1.1,0.1-2.1,0.1-3.1,0.1c0.1-0.6,0.1-1.1,0.1-1.5c3.5-0.2,6.7-0.5,9.7-0.9L163.9,0
		c-4.6,0.6-7.5,0.9-8.6,0.9V0.4L150,0.4c0.1,1.1,0.1,1.9,0.1,2.5c0,3.7-0.9,6.5-2.7,8.4L153.1,12z"/>
	<path class="st0" d="M179.3,27.5c0.2-2.7,0.3-6.4,0.3-11.2c0-2.2-1.3-3.3-3.8-3.4l-25.3,0c0.1,2.2,0.1,6.4,0.1,12.7l0,2.1l5-0.1
		c-1.9,0.6-4.1,1.2-6.6,1.6l4.2,2.9c4-0.6,7.4-1.9,10.2-3.9l-2-0.6c2.6,0,5.3,0,8.1,0l-2.4,0.9c3.6,1.4,6.4,2.7,8.4,3.9l5.1-2.5
		c-1.7-0.8-3.5-1.6-5.4-2.3H179.3z M172.8,24.6l-16.4,0v-1.1c1.7-0.1,7.2-0.2,16.6-0.3L172.8,24.6z M173.1,20.7
		c-9,0.1-14.6,0.2-16.7,0.3v-1.2l16.7-0.3L173.1,20.7z M173.3,16.9c-5.4,0-11.1,0.1-17,0.3v-1.1c6.7-0.3,11.4-0.4,14.2-0.4
		c0.9,0,1.6,0,2,0.1c0.6,0.1,0.9,0.4,0.9,0.9C173.4,16.8,173.4,16.9,173.3,16.9z"/>
	<path class="st0" d="M200.4,19.4l-2.4,5.6c2.3,1.3,4.6,2.3,7,2.8c2.4,0.6,5.3,0.9,8.7,0.9c0.6,0,1.2,0,1.9,0l0.2-6
		c-3.5,0-6.4-0.3-8.6-0.7C205,21.4,202.7,20.6,200.4,19.4z"/>
	<path class="st0" d="M210,10.3c1.8,0,3.5,0.1,5.3,0.2l0.2-5.6c-2.2-0.2-4.4-0.3-6.5-0.3c-3.7,0-7,0.3-9.6,1l0.5,5.6
		C202.5,10.6,205.9,10.3,210,10.3z"/>
	<path class="st0" d="M190.4,1.8c-0.7,1.9-1.3,4.1-1.7,6.8c-0.4,2.7-0.6,5.5-0.6,8.4c0,5.2,0.6,9.6,1.7,13.2l5.9-0.9
		c-1.1-4-1.6-8.2-1.6-12.4c0-4.9,0.7-9.5,2.2-13.9L190.4,1.8z"/>
	<path class="st0" d="M254.7,15l-0.3-4.8l-10.7,0.4l0.5-1.9c5.5-0.1,8.6-0.2,9.1-0.2l-0.2-4.4l-1.9,0c0.5-1,0.8-1.8,1-2.3l-4.4-1.4
		c-0.3,1.3-0.7,2.5-1.2,3.7l-1.4,0.1c0.3-1.2,0.5-2.4,0.7-3.6l-4.8-0.1c-0.1,1.3-0.3,2.6-0.6,3.8l-0.9,0c-0.2-1.2-0.6-2.5-1.3-3.9
		l-4.3,0.8c0.4,0.9,0.7,1.9,0.9,3.2h-1.1l0.1,4.5l5.6-0.1c-0.2,0.7-0.4,1.3-0.7,1.8c-2.6,0-4.4,0.1-5.3,0.1h-0.2l0.1,4.8l3.4,0
		c-0.8,1.4-2.1,2.6-3.9,3.7V6c0-1.7-0.4-3-1.1-3.8C231,1.4,230.1,1,229,1c-1.1,0-2,0-2.6,0.1c0-0.3,0-0.6,0-0.9l-4.7,0.4
		c0.1,3.4,0.2,6.9,0.2,10.7c0,7.4-0.4,13.9-1.3,19.3l4.8,1c0.3-2.3,0.6-5.2,0.9-8.8l2.2-0.1c0,1.5,0,2.4,0,2.7
		c-0.1,0.5-0.4,0.8-0.8,0.8c-0.2,0-0.7-0.1-1.4-0.2l0.3,5.2c1.2,0.3,2.2,0.5,3,0.5c1.5,0,2.5-0.6,3-1.7c0.3-0.7,0.4-2.7,0.4-5.9
		v-3.6l1.4,3.8c0.8-0.3,1.6-0.7,2.2-1.2c1,0,1.9,0,2.7,0c-0.9,2.1-2.9,3.7-6,4.9l2.4,3.9c4.6-1.8,7.3-4.7,8.3-8.6c0.9,0,1.5,0,2,0
		c0.1,0,0.1,0.1,0.2,0.2s0.1,0.5,0.1,1.2v1c0,0.7-0.1,1.1-0.2,1.1c-1,0-1.9-0.1-2.8-0.4l0.1,4.8c1.7,0.4,3,0.7,4.1,0.7
		c0.8,0,1.5-0.2,2.1-0.6c0.6-0.6,0.9-1.4,1-2.5c0-2.9,0.1-4.7,0.1-5.2l0.4,1l4.1-3.3c-1.2-2.1-2.6-4.2-4.1-6.5L254.7,15z M226.4,5.8
		l0.4,0c0.8,0,1.3,0.3,1.4,0.6c0.1,0.4,0.2,0.9,0.2,1.6c0,0.4,0,0.9,0,1.4c-0.8,0.1-1.4,0.1-1.9,0.2V5.8z M228.4,18
		c-1,0.1-1.7,0.2-2.1,0.2l0-3.7l2-0.1V18z M240.3,18.9c-0.2,0-0.6,0.1-1.2,0.1c0.4-0.6,0.9-1.2,1.3-1.8
		C240.5,17.7,240.4,18.3,240.3,18.9z M245.7,18.9h-0.8c0.1-0.8,0.2-1.6,0.3-2.3l-4.3,0.1c0.3-0.4,0.6-0.9,0.9-1.3l4.1-0.1
		c0.5,0.6,1.1,1.9,2,3.8C247.5,18.9,246.8,18.9,245.7,18.9z"/>
	<path class="st0" d="M281.4,11.5c1.8-1.4,2.7-3,2.7-5c0-1.7-0.8-2.9-2.3-3.7c-1.5-0.8-3.9-1.2-7-1.2s-6.6,0.3-10.3,0.8l1,5.7
		c3.6-0.6,6.8-1,9.7-1c1.6,0,2.3,0.2,2.3,0.7c0,0.9-2.4,2-7.3,3.1l1.1,5.4c1.5-0.4,3.2-0.6,5-0.6c1.8,0,3.3,0.4,4.3,1.2
		c1.1,0.8,1.6,2,1.6,3.5c0,1.5-0.6,2.7-1.7,3.5c-1.2,0.9-2.8,1.3-5,1.4l3-2.6c-2.2-3.5-5.1-5.2-8.5-5.2c-1.8,0-3.3,0.6-4.5,1.8
		c-1.2,1.2-1.9,2.7-1.9,4.5c0,2.2,1,4,3,5.3c2,1.3,4.7,1.9,8.2,1.9c4.2,0,7.6-0.9,10-2.8c2.4-1.8,3.6-4.4,3.6-7.6
		c0-2.2-0.6-4.1-1.8-5.7C285.4,13.4,283.7,12.3,281.4,11.5z M270.4,24.8c-0.8-0.3-1.2-0.8-1.2-1.2c0-0.5,0.4-0.7,1.1-0.7
		c0.4,0,0.9,0.2,1.5,0.7c0.6,0.5,1.2,1.1,1.7,1.9C272.2,25.4,271.2,25.1,270.4,24.8z"/>
</g>
</svg>
