<?xml version="1.0" encoding="utf-8"?>
<!-- Generator: Adobe Illustrator 27.9.1, SVG Export Plug-In . SVG Version: 6.00 Build 0)  -->
<svg version="1.1" id="Layer_1" xmlns:inkscape="http://www.inkscape.org/namespaces/inkscape"
	 xmlns="http://www.w3.org/2000/svg" xmlns:xlink="http://www.w3.org/1999/xlink" x="0px" y="0px" viewBox="0 0 108 32"
	 style="enable-background:new 0 0 108 32;" xml:space="preserve">
<style type="text/css">
	.st0{fill:#070707;}
</style>
<g>
	<path class="st0" d="M33.1,24.3c0.2-3.2,0.3-7,0.3-11.5c0-2.7-0.8-4.1-2.5-4.3c-1.5,0-3,0-4.6,0.1V7.2C30.9,7,33.5,7,34.1,6.9
		L33.8,2c-2.7,0.1-5.2,0.2-7.5,0.3c-0.1-0.8-0.1-1.5-0.1-2.1l-4,0.2l0.1,2c-2.2,0.1-4.6,0.3-7.3,0.4l0.1,3.6
		c-1.6-1.6-3.2-3.1-4.8-4.6l0.3-0.9L6.5,0.2C5.8,2.4,5,4.3,4,5.9s-2.4,3.2-4,4.9l3.4,3.1c0.5-0.5,0.9-1,1.2-1.3v0.9h1.6v1.8
		l-4.9,0.2l0,4.3c1.3,0,2.9,0,4.8-0.1v5c-0.3-1.2-0.7-2.5-1.3-4l-3.4,1.2c0.5,1.6,1,3.2,1.3,4.8L6.1,25v1.4
		c-1.9,0.2-3.8,0.4-5.8,0.6l0.8,4.5c2.7-0.3,5.1-0.5,7.1-0.7c1.8-0.2,3.9-0.6,6.2-1.1l2.1,2.1c2.4-1.6,4.2-3.9,5.3-7l0.4,0L22,31.2
		l4.3,0.4l0-7l0.2-0.1c1.4,2.7,2.6,5.1,3.8,7.3l3.8-2.3c-1-2-2.1-3.7-3.3-5.1L33.1,24.3z M6.9,9.2c0.4-0.6,0.8-1.3,1.1-2L8.6,6
		c0.9,1,1.9,2,2.8,3C9.9,9.1,8.3,9.2,6.9,9.2z M15.2,27.2l0.1-2.4L14,25c0.4-1.6,0.7-2.9,0.9-4l-3.7-0.9c0,1-0.3,2.7-0.9,5v-5.7
		c2.3-0.1,3.8-0.1,4.5-0.2l-0.2-4.4l-4.3,0.2v-1.7l3-0.1l-0.1-2.1l0.9,1l1.4-1.7c0,3,0.1,6.8,0.1,11.3l0,3.3l1.6-0.1
		C16.6,25.7,16,26.5,15.2,27.2z M22.3,20.1l-3,0v-1.3l3-0.1V20.1z M22.3,14.8l-3,0.1c0-0.5,0-1,0-1.5l3.1-0.2V14.8z M22.3,8.9
		C20.5,9,18.6,9,16.7,9l0.4-0.5l-0.7-0.8c1.9-0.1,3.9-0.2,5.9-0.4V8.9z M29.4,19.6c-0.9,0.1-1.9,0.2-3,0.3v-1.3
		c0.9-0.1,1.9-0.1,3.1-0.2L29.4,19.6z M26.3,14.7V13c1.4,0,2.2,0,2.5,0.1c0.3,0.1,0.5,0.5,0.6,1.4L26.3,14.7z"/>
	<path class="st0" d="M71.2,10.9c-4.4-3.2-9.3-6.1-14.8-8.8c0.4-0.4,0.6-0.9,0.8-1.3l-5-0.9c-2.5,4.1-7.5,7.9-14.7,11.4l3.1,4
		c1.6-0.7,3.1-1.5,4.3-2.3v1.3l6.5-0.3l0,2.3c-4.5,0.2-8.2,0.3-11.3,0.4l0.1,4.7l11.2-0.3c0,1.8-0.1,3.6-0.1,5.3l-3,0.1
		c-0.5-1.7-1.1-3.2-1.7-4.5l-4.6,1.3c0.6,1,1.1,2.1,1.4,3.3l-5.5,0.1l0.2,5c3.8-0.1,9.4-0.2,17-0.4c9-0.3,14.3-0.4,16.1-0.5
		l-0.4-5.1L65,26.2c0.3-1.1,0.5-2.3,0.6-3.6l-4.5-0.7c-0.1,1.3-0.4,2.8-1.1,4.5l-3.3,0.1v-1.9l0-3.5c6.4-0.2,10.2-0.3,11.5-0.3
		l-0.4-4.8c-2.8,0.1-6.5,0.2-11.1,0.4l-0.1-2.5l6.1-0.3l-0.1-1.8c1.9,1.3,3.5,2.3,4.8,3.1L71.2,10.9z M50,9.4c1.2-1,2.4-2.1,3.6-3.2
		c1.9,1,3.5,1.9,4.9,2.8L50,9.4z"/>
	<path class="st0" d="M98.9,19.6c-1.9-2.4-3.8-4.3-5.7-5.6v-1c2.1,0,3.6-0.1,4.5-0.1l0-5.8c-0.9,0-2.4,0-4.5,0.1c0-1.2,0-2.4,0-3.6
		c0.9,1,1.6,1.9,2,2.8l3.2-2.3l0,2.3c1.2,0,2.9-0.1,4.9-0.2c2-0.1,3.4-0.2,4.2-0.2l-0.3-5.8c-0.5,0-1.8,0.1-3.8,0.2
		c-2,0.1-3.3,0.2-4,0.2h-1.1l0.1,3.1c-0.7-1.2-1.6-2.3-2.7-3.3l-2.6,1.6c0-0.7,0-1.4,0-2.2l-4.9,0.3c0,2.6,0,5,0,7.1
		c-0.9,0-1.7,0-2.4,0h-1.6l0.1,3.9l-3.5-1.3c-1.9,3.5-4,6-6.1,7.5l1.6,4.9c0.3-0.2,0.6-0.5,0.9-0.9c0,3.9-0.2,7.2-0.3,10l5.8,0.2
		l0-4.7c0-3.8,0-7.5-0.1-10.9c0.9-1,1.6-2,2-3c1,0,2.1,0,3.5-0.1c-1.6,3.2-3.3,5.7-5.3,7.3l2.8,5.2c0.8-0.8,1.6-1.9,2.5-3.2
		c0,3.7-0.1,6.7-0.3,9.1l5.5,0.4v-4.7c0-2.1,0-4.5,0-7.2c1,1.3,1.7,2.6,2.3,3.7L98.9,19.6z"/>
	<path class="st0" d="M84.2,2.3l-4.4-2c-1,2.6-2.8,5-5.4,7l2,5.2C80,9.8,82.6,6.5,84.2,2.3z"/>
	<path class="st0" d="M103.2,10.4c-2,0.1-3.5,0.2-4.5,0.2h-0.5l0,5.4l2.7-0.2l0,8.8c0,0.9-0.3,1.4-0.7,1.4c-0.7,0-1.4-0.3-1.9-0.8
		l0.3,5.9c1,0.8,2.4,1.1,3.9,1h0.1c2.2,0,3.3-1.3,3.3-3.8V15.7c1,0,1.7-0.1,2-0.2l-0.3-5.3C106.7,10.3,105.2,10.3,103.2,10.4z"/>
</g>
</svg>
