<?xml version="1.0" encoding="utf-8"?>
<!-- Generator: Adobe Illustrator 27.9.1, SVG Export Plug-In . SVG Version: 6.00 Build 0)  -->
<svg version="1.1" id="Layer_1" xmlns="http://www.w3.org/2000/svg" xmlns:xlink="http://www.w3.org/1999/xlink" x="0px" y="0px"
	 viewBox="0 0 147.1 35.5" style="enable-background:new 0 0 147.1 35.5;" xml:space="preserve">
<style type="text/css">
	.st0{fill:#282828;}
</style>
<g>
	<path class="st0" d="M2.3,25.7H8v-9.5H2.3V25.7z M3.3,17.2H7v7.5H3.3V17.2z"/>
	<path class="st0" d="M2.3,14.6H8V5.3H2.3V14.6z M3.3,6.3H7v7.4H3.3V6.3z"/>
	<path class="st0" d="M3.3,28.3h7V2.7h-7H2.6H0v28.7h3.3V28.3z M2.3,30.4H1V3.7h8.4v23.6h-7V30.4z"/>
	<path class="st0" d="M121.9,13c-0.7,0.8-1.7,1.4-3,2c-1.3,0.6-3,1-5.2,1.4c0.3,0.3,0.6,0.6,0.9,1c0.3,0.4,0.6,0.8,0.8,1.3
		c0.2,0.4,0.4,0.8,0.5,1.1c2.4-0.5,4.4-1.2,6-2c1.5-0.8,2.8-1.7,3.6-2.8c0.9-1.1,1.5-2.3,1.9-3.6c0.4-1.3,0.7-2.7,0.8-4.2h4.2v6.5
		c0,1.2,0.1,2.1,0.4,2.8c0.3,0.7,0.8,1.1,1.5,1.4c0.7,0.3,1.7,0.4,3.1,0.4c0.2,0,0.5,0,1,0c0.4,0,0.9,0,1.4,0c0.5,0,1,0,1.4,0
		c0.4,0,0.8,0,1,0c1,0,1.8-0.1,2.4-0.4c0.6-0.3,1.1-0.8,1.4-1.5c0.3-0.7,0.6-1.7,0.7-3c-0.4-0.1-0.8-0.2-1.2-0.3
		c-0.5-0.2-0.9-0.3-1.3-0.5c-0.4-0.2-0.7-0.4-1-0.6c0,0.8-0.1,1.4-0.2,1.8c-0.1,0.4-0.2,0.7-0.4,0.8c-0.2,0.1-0.4,0.2-0.8,0.2
		c-0.2,0-0.4,0-0.8,0c-0.4,0-0.7,0-1.2,0s-0.8,0-1.1,0s-0.6,0-0.7,0c-0.6,0-1-0.1-1.2-0.2c-0.2-0.1-0.3-0.4-0.3-1V7.3h6v3.9h4.2V3.6
		h-14.3V0h-4.2v3.6h-14v8.3h4V7.3h5.8c-0.2,1.1-0.4,2.1-0.6,3C123.1,11.3,122.6,12.2,121.9,13z M117.2,6.3v4.6h-2V4.6h14V1h2.2v3.6
		h14.3v5.6h-2.2V6.3h-8v7.5c0,0.3,0,1.3,0.7,1.8c0.4,0.3,0.9,0.4,1.8,0.4h3.8c0.6,0,1.1-0.2,1.4-0.4c0.3-0.3,0.6-0.7,0.7-1.4
		c0-0.1,0.1-0.3,0.1-0.4c0.4,0.1,0.7,0.3,1.1,0.4c0.1,0,0.3,0.1,0.4,0.1c-0.1,0.8-0.3,1.4-0.5,1.8c-0.2,0.5-0.5,0.8-0.9,1
		c-0.5,0.2-1.1,0.3-2,0.3h-4.8c-1.2,0-2.1-0.1-2.7-0.3c-0.5-0.2-0.7-0.5-0.9-0.9c-0.2-0.6-0.3-1.4-0.3-2.4V6.3h-6.1l-0.1,0.9
		c-0.2,1.5-0.4,2.8-0.8,4c-0.4,1.2-1,2.3-1.8,3.3c-0.8,1-1.9,1.8-3.3,2.5c-1.3,0.7-2.9,1.2-4.9,1.7c-0.1-0.1-0.1-0.3-0.2-0.4
		c-0.2-0.4-0.5-0.8-0.7-1.2c1.5-0.3,2.7-0.7,3.7-1.1c1.4-0.6,2.6-1.4,3.4-2.2c0.8-0.9,1.4-1.9,1.7-3.1c0.3-0.9,0.5-2,0.7-3.2
		l0.2-1.1H117.2z"/>
	<path class="st0" d="M100.9,13.1c-1.2,0-2.5,0-3.7,0.1c-1.3,0.1-2.4,0.1-3.5,0.2v4c1.2-0.1,2.4-0.2,3.6-0.3
		c1.2-0.1,2.4-0.1,3.7-0.1c1.2,0,2.3,0,3.4,0.1c1.1,0.1,2.1,0.2,3.1,0.3l0.1-4.1c-1.1-0.1-2.2-0.2-3.3-0.2
		C103.1,13.2,102,13.1,100.9,13.1z M106.5,16.4c-0.7-0.1-1.3-0.1-2-0.2c-1.1-0.1-2.3-0.1-3.5-0.1c-1.3,0-2.5,0-3.7,0.1
		c-0.8,0-1.7,0.1-2.5,0.2v-2c0.8-0.1,1.6-0.1,2.5-0.2c1.2-0.1,2.5-0.1,3.7-0.1c1.1,0,2.2,0,3.3,0.1c0.8,0,1.6,0.1,2.3,0.1
		L106.5,16.4z"/>
	<path class="st0" d="M29.2,23.8H17v4.1h12.2V23.8z M28.2,26.9H18v-2.1h10.2V26.9z"/>
	<path class="st0" d="M28.1,32.1c-0.1,0.1-0.3,0.1-0.5,0.1c-0.2,0-0.7,0-1.4,0c-0.7,0-1.4,0-2.2-0.1c0.2,0.5,0.4,1,0.6,1.6
		c0.2,0.6,0.3,1.2,0.4,1.6c1.2,0,2.3,0,3.2-0.1c0.9-0.1,1.6-0.2,2.2-0.5c0.6-0.3,1-0.7,1.2-1.2c0.2-0.5,0.3-1.2,0.3-2.1V17h-2.6
		h-1.2H14.3v18.5H18v-5.9h10.2v2.1C28.2,31.9,28.2,32,28.1,32.1z M17,28.6v5.9h-1.8V18H31v13.7c0,0.9-0.1,1.4-0.2,1.7
		c-0.1,0.3-0.4,0.5-0.7,0.6c-0.5,0.2-1.1,0.3-1.9,0.4c-0.6,0-1.3,0.1-2.1,0.1c-0.1,0-0.1,0-0.2,0c-0.1-0.3-0.2-0.6-0.3-1
		c0-0.1-0.1-0.2-0.1-0.3c0.2,0,0.4,0,0.6,0c0.2,0,0.5,0,0.6,0c0.4,0,0.6,0,0.8,0c0.5,0,0.9-0.1,1.2-0.4c0.3-0.3,0.4-0.7,0.4-1.1
		v-3.1H17z"/>
	<path class="st0" d="M29.2,18.9H17V23h12.2V18.9z M28.2,22H18V20h10.2V22z"/>
	<path class="st0" d="M104.5,33.2c1.3-0.1,2.4-0.2,3.5-0.4l0.2-4.4c-1.3,0.3-2.6,0.5-3.9,0.6c-1.3,0.1-2.6,0.2-3.8,0.2
		c-1.1,0-2-0.1-2.8-0.2c-0.7-0.2-1.3-0.4-1.7-0.7c-0.4-0.3-0.7-0.6-0.9-1c-0.2-0.4-0.2-0.8-0.2-1.2c0-0.4,0.1-0.9,0.2-1.5
		c0.1-0.6,0.2-1.2,0.4-1.7l-4.1-0.4c-0.2,0.8-0.3,1.6-0.4,2.4c-0.1,0.8-0.2,1.7-0.2,2.5c0,1.9,0.8,3.4,2.5,4.4
		c1.7,1,4.1,1.5,7.2,1.5C101.9,33.4,103.2,33.3,104.5,33.2z M91.7,27.5c0-0.8,0.1-1.6,0.2-2.3c0.1-0.5,0.2-1,0.3-1.5l2,0.2
		c0,0.2-0.1,0.4-0.1,0.7c-0.1,0.6-0.2,1.2-0.2,1.7c0,0.6,0.1,1.1,0.3,1.6c0.2,0.6,0.6,1,1.2,1.4c0.5,0.4,1.2,0.6,2,0.8
		c0.8,0.2,1.8,0.3,3,0.3c1.3,0,2.6-0.1,3.9-0.2c0.9-0.1,1.8-0.2,2.8-0.4L107,32c-0.8,0.1-1.7,0.2-2.6,0.3c-1.2,0.1-2.6,0.2-4.1,0.2
		c-2.9,0-5.2-0.5-6.7-1.4C92.3,30.2,91.7,29,91.7,27.5z"/>
	<path class="st0" d="M34,12.2H25v-1.9h7.5V7.6H25V5.8h8.2V2.9H25V0h-4v2.9H13v2.9H21v1.7h-7.1v2.8H21v1.9h-9v3H34V12.2z M33,14.2
		H13v-1h9V9.3h-7.1V8.6H22V4.8H14V3.9H22V1h2v2.9h8.2v0.9H24v3.7h7.5v0.8H24v3.9H33V14.2z"/>
	<path class="st0" d="M113.7,34.4h33.4v-3.7h-14.7v-6.3h11.5v-3.6h-26.2v3.6h10.5v6.3h-14.5V34.4z M114.7,31.7h14.5v-8.3h-10.5v-1.6
		h24.2v1.6h-11.5v8.3h14.7v1.7h-31.4V31.7z"/>
	<path class="st0" d="M83.6,15.3c-0.4,1.3-0.8,2.8-1.3,4.3c-0.5,1.6-1.1,3.1-1.7,4.7c-0.6,1.6-1.2,3.1-1.8,4.5
		c-0.6,1.4-1.2,2.6-1.8,3.5l4.8,1.6c0.5-1.1,1-2.4,1.6-3.9c0.6-1.5,1.1-3,1.7-4.6c0.5-1.6,1.1-3.2,1.5-4.8c0.5-1.6,0.9-3,1.2-4.4
		c0.3-1.3,0.7-2.6,1-4c0.1-0.3,0.2-0.7,0.2-1c0.8-0.1,1.7-0.2,2.5-0.3c1.8-0.3,3.4-0.6,5-0.9V6c-1.6,0.4-3.3,0.7-5,1
		c-0.5,0.1-1.1,0.2-1.6,0.2c0.1-0.7,0.3-1.3,0.4-1.8c0.1-0.4,0.2-1,0.3-1.7C90.8,3,90.9,2.5,91,2l-5.2-0.4c0.1,0.4,0.1,1,0,1.7
		c0,0.7-0.1,1.3-0.2,2c-0.1,0.6-0.2,1.2-0.3,2c0,0.2-0.1,0.3-0.1,0.5c-1.2,0.1-2.5,0.1-3.6,0.1c-0.7,0-1.5,0-2.2-0.1
		c-0.7,0-1.6-0.1-2.5-0.2l0.1,4.2c0.7,0,1.4,0.1,2.1,0.1c0.7,0,1.5,0.1,2.4,0.1c0.9,0,1.8,0,2.8-0.1c-0.1,0.2-0.1,0.4-0.1,0.7
		C84.1,13.5,83.9,14.4,83.6,15.3z M84.4,10.8c-1.1,0.1-2,0.1-2.7,0.1c-0.9,0-1.7,0-2.4-0.1c-0.4,0-0.8,0-1.2-0.1L78,8.7
		c0.5,0,1,0.1,1.4,0.1c0.7,0,1.5,0.1,2.2,0.1c1.1,0,2.3,0,3.7-0.1l0.8-0.1l0.2-1.2c0.1-0.8,0.3-1.5,0.3-2.1c0.1-0.7,0.1-1.4,0.2-2.1
		c0-0.2,0-0.4,0-0.6l2.9,0.2c0,0.2-0.1,0.4-0.1,0.7c-0.2,0.7-0.3,1.3-0.3,1.7l-0.7,3.2l1.8-0.3C90.9,8.1,91.3,8,91.7,8
		c1.3-0.2,2.6-0.5,3.8-0.7v2.2c-1.3,0.3-2.7,0.5-4.1,0.7c-0.8,0.1-1.7,0.2-2.5,0.3l-0.7,0.1l-0.4,1.7c-0.3,1.4-0.6,2.7-1,3.9
		c-0.3,1.3-0.7,2.8-1.2,4.3c-0.5,1.6-1,3.1-1.5,4.7c-0.5,1.6-1.1,3.1-1.6,4.5c-0.4,1.1-0.8,2.1-1.2,3l-2.7-0.9
		c0.4-0.8,0.8-1.6,1.2-2.6c0.6-1.4,1.2-2.9,1.8-4.5c0.6-1.6,1.2-3.2,1.7-4.8c0.5-1.6,0.9-3,1.3-4.4c0.3-0.9,0.5-1.9,0.7-2.8l0.4-2
		L84.4,10.8z"/>
	<path class="st0" d="M45.3,14.9c-0.2,0.3-0.4,0.7-0.7,1c-0.6,0.8-1.2,1.7-1.8,2.6c-0.7,0.9-1.3,1.8-2,2.8c-0.7,0.9-1.3,1.8-2,2.6
		c-0.6,0.8-1.2,1.5-1.7,2.1l2.7,3.8c0.5-0.7,1.1-1.6,1.8-2.5c0.7-1,1.3-1.9,2-2.9c0.5-0.7,1-1.4,1.4-2.1c0,0.9,0,1.8-0.1,2.5
		c0,1.1,0,2.2-0.1,3.2c0,1,0,2.1-0.1,3.4c0,0.3,0,0.7,0,1.2c0,0.5,0,1-0.1,1.4h4.7c-0.1-0.4-0.1-0.9-0.2-1.4c-0.1-0.5-0.1-1-0.1-1.3
		C49.1,30.1,49,29,49,27.9c0-1.1,0-2.1-0.1-3.2c0-1.1,0-2.1,0-3.2c0-1.1,0-2.2,0.1-3.4c0.3-0.3,0.5-0.5,0.8-0.8
		c1.1-1.1,2.1-2.1,3.3-3c1.1-0.9,2.3-1.7,3.3-2.3c1.1-0.6,2.1-0.9,3-0.9c0.9,0,1.5,0.2,2,0.7c0.5,0.5,0.7,1.2,0.7,2.2
		c0,0.9-0.1,1.9-0.2,3c-0.1,1.1-0.3,2.3-0.5,3.5c-0.2,1.2-0.3,2.4-0.5,3.6c-0.1,1.2-0.2,2.3-0.2,3.3c0,1.8,0.4,3.1,1.3,4.1
		c0.8,0.9,2,1.4,3.3,1.4c1.5,0,2.8-0.3,4-0.8c1.2-0.5,2.2-1.2,3.1-2.1l-0.6-4.8c-0.9,0.9-1.8,1.6-2.7,2.1c-0.9,0.5-1.7,0.7-2.5,0.7
		c-0.5,0-0.9-0.2-1.2-0.6c-0.3-0.4-0.4-0.8-0.4-1.3c0-1,0.1-2,0.2-3.2c0.1-1.2,0.3-2.4,0.5-3.6c0.2-1.2,0.3-2.4,0.5-3.6
		c0.1-1.2,0.2-2.2,0.2-3.2c0-1.1-0.2-2-0.6-2.8c-0.4-0.8-1.1-1.5-1.9-1.9C63,7.3,61.9,7,60.6,7c-1,0-2,0.2-3.1,0.6
		c-1.1,0.4-2.1,0.9-3.2,1.6c-1.1,0.6-2,1.3-3,2.1c-0.7,0.6-1.4,1.1-2,1.7c0-0.1,0-0.3,0-0.4c0-0.3,0.1-0.6,0.1-0.8
		c0.1-0.1,0.1-0.2,0.2-0.3c0.3-0.5,0.6-0.9,0.9-1.4c0.3-0.5,0.6-0.8,0.8-1.1L50,7.1c0.1-1.1,0.2-2,0.4-2.9c0.2-1.1,0.3-1.9,0.4-2.5
		l-5-0.2c0.1,0.6,0.2,1.1,0.2,1.7c0,0.5,0,1.1,0,1.6c0,0.3,0,0.7-0.1,1.5c0,0.5-0.1,1.1-0.1,1.7c0,0,0,0,0,0C44.9,8,44,8.1,43.2,8.2
		c-0.8,0.1-1.5,0.2-2.1,0.2c-0.6,0-1.1,0-1.6,0.1c-0.5,0-1,0-1.5,0l0.5,4.4c0.6-0.1,1.3-0.2,2.1-0.3c0.8-0.1,1.5-0.2,2.2-0.3
		c0.7-0.1,1.4-0.2,2.1-0.3c0.2,0,0.4-0.1,0.7-0.1c0,0,0,0.1,0,0.1C45.4,13,45.4,14,45.3,14.9z M45.4,10.9L44.7,11
		c-0.6,0.1-1.3,0.2-2.1,0.3c-0.7,0.1-3,0.4-3.3,0.5l-0.2-2.2c0.1,0,0.3,0,0.4,0c0.5,0,1,0,1.6-0.1c0.6,0,1.3-0.1,2.2-0.2
		C44.1,9.1,45,9,45.9,8.9l0.8-0.1L46.8,8c0-0.6,0.1-1.2,0.1-1.7c0-0.8,0.1-1.3,0.1-1.5V3.2c0-0.2,0-0.4,0-0.6l2.6,0.1
		c-0.1,0.4-0.1,0.9-0.2,1.4C49.2,4.9,49.1,5.9,49,7l0,0.4l1.2,1.5l-0.4,0.5c-0.3,0.5-0.6,0.9-0.9,1.4l-0.3,0.5l-0.1,1.1l0,0.4
		l-0.2,2.5l1.9-1.6c0.7-0.6,1.3-1.1,1.9-1.6c0.9-0.7,1.9-1.4,2.9-2c1-0.6,2-1.1,3-1.5C58.8,8.2,59.7,8,60.6,8c1.1,0,2.1,0.2,2.8,0.6
		c0.7,0.4,1.2,0.9,1.5,1.5c0.3,0.7,0.5,1.5,0.5,2.4c0,0.9-0.1,2-0.2,3.1c-0.1,1.2-0.3,2.4-0.5,3.6c-0.2,1.2-0.3,2.4-0.5,3.6
		c-0.1,1.2-0.2,2.3-0.2,3.3c0,0.8,0.2,1.4,0.6,2c0.3,0.4,0.9,0.9,2,0.9c0.9,0,1.9-0.3,3-0.9c0.5-0.3,1-0.6,1.4-1l0.3,2.3
		c-0.7,0.6-1.6,1.2-2.5,1.6c-1,0.5-2.2,0.7-3.6,0.7c-1.1,0-1.9-0.4-2.6-1.1c-0.7-0.7-1-1.9-1-3.4c0-1,0.1-2.1,0.2-3.2
		c0.1-1.2,0.3-2.4,0.5-3.6c0.2-1.2,0.3-2.4,0.5-3.5c0.1-1.2,0.2-2.2,0.2-3.1c0-1.2-0.3-2.2-1-2.9c-0.7-0.7-1.6-1-2.7-1
		c-1.1,0-2.2,0.3-3.4,1c-1.1,0.6-2.3,1.4-3.5,2.4c-1.2,1-2.3,2-3.4,3.1c-0.2,0.2-0.4,0.4-0.6,0.6l-0.5,0.5l0,0.4
		c-0.1,1.3-0.1,2.5-0.1,3.5c0,1.1,0,2.1,0,3.2c0,1.1,0,2.1,0.1,3.2c0,1.1,0.1,2.2,0.1,3.4c0,0.4,0.1,0.8,0.1,1.4c0,0.1,0,0.2,0,0.3
		h-2.5c0-0.1,0-0.3,0-0.4c0-0.5,0-1,0-1.3c0-1.2,0-2.3,0.1-3.4c0-1,0-2.1,0.1-3.2l0.1-5.9l-3.3,4.9c-0.7,1-1.3,2-2,2.9
		c-0.3,0.5-0.7,0.9-1,1.4l-1.4-2c0.4-0.5,0.8-1,1.2-1.5c0.6-0.8,1.3-1.7,2-2.6l2-2.8c0.7-0.9,1.3-1.8,1.9-2.6c0.3-0.4,0.5-0.7,0.7-1
		l0.2-0.2l0-0.3c0.1-0.9,0.1-1.9,0.2-2.8l0.1-1.2L45.4,10.9z"/>
</g>
</svg>
