<?xml version="1.0" encoding="utf-8"?>
<!-- Generator: Adobe Illustrator 27.9.1, SVG Export Plug-In . SVG Version: 6.00 Build 0)  -->
<svg version="1.1" id="Layer_1" xmlns="http://www.w3.org/2000/svg" xmlns:xlink="http://www.w3.org/1999/xlink" x="0px" y="0px"
	 viewBox="0 0 110.6 35.4" style="enable-background:new 0 0 110.6 35.4;" xml:space="preserve">
<style type="text/css">
	.st0{fill:#282828;}
</style>
<g>
	<path class="st0" d="M5.6,24.6c-0.8,1.5-1.6,2.9-2.4,4.3c-0.8,1.3-1.5,2.5-2.1,3.5L4.6,35c0.7-1.2,1.5-2.5,2.2-3.9
		c0.7-1.4,1.4-2.8,2.2-4.2c0.7-1.4,1.4-2.8,2-4.1l-3.1-2.5C7.2,21.6,6.4,23.1,5.6,24.6z M9.8,23c-0.5,1.1-1.1,2.2-1.7,3.4
		c-0.7,1.4-1.4,2.8-2.2,4.2c-0.5,1-1.1,2-1.6,2.9l-1.9-1.4c0.5-0.8,1.1-1.7,1.6-2.7c0.8-1.3,1.6-2.8,2.4-4.3
		c0.6-1.1,1.2-2.2,1.7-3.4L9.8,23z"/>
	<path class="st0" d="M4.6,4.5C5.5,5,6.3,5.5,7.1,6c0.8,0.5,1.4,1,1.9,1.4l2.4-3.3c-0.5-0.4-1.2-0.9-1.9-1.3
		C8.6,2.2,7.7,1.8,6.9,1.4C6,0.9,5.1,0.6,4.3,0.2l-2.2,3C2.9,3.6,3.8,4,4.6,4.5z M4.7,1.5C5.2,1.7,5.8,2,6.4,2.3
		c0.8,0.4,1.7,0.9,2.4,1.3C9.2,3.8,9.6,4,9.9,4.3L8.7,5.9C8.4,5.7,8,5.4,7.6,5.1C6.9,4.6,6,4.1,5.1,3.6c-0.5-0.3-1-0.5-1.5-0.8
		L4.7,1.5z"/>
	<path class="st0" d="M11.4,34.5c0.3,0.3,0.6,0.6,0.8,0.9c1.3-1,2.3-2,3.1-3.1c0.8-1.1,1.3-2.2,1.7-3.4c0.4-1.2,0.6-2.3,0.8-3.5
		c0.1-1.2,0.2-2.3,0.2-3.3v-3.8h-3.7V22c0,1.1-0.1,2.3-0.3,3.6c-0.2,1.3-0.7,2.5-1.3,3.7c-0.7,1.2-1.8,2.4-3.3,3.4
		c0.3,0.2,0.6,0.4,1,0.8C10.7,33.8,11,34.1,11.4,34.5z M13.4,29.8c0.8-1.3,1.2-2.7,1.5-4.1c0.2-1.3,0.3-2.6,0.3-3.7v-2.7h1.7v2.8
		c0,1-0.1,2.1-0.2,3.2c-0.1,1.1-0.4,2.2-0.7,3.3c-0.3,1.1-0.9,2.1-1.6,3.1c-0.5,0.8-1.3,1.5-2.1,2.3c-0.1-0.1-0.1-0.2-0.2-0.2
		c-0.3-0.3-0.7-0.7-1.1-1c0,0,0,0,0,0C12,31.8,12.8,30.8,13.4,29.8z"/>
	<path class="st0" d="M5,16.2c0.8,0.5,1.4,0.9,1.9,1.4l2.4-3.4c-0.5-0.4-1.2-0.9-2-1.3c-0.8-0.5-1.7-0.9-2.5-1.3
		c-0.9-0.4-1.7-0.8-2.5-1L0,13.6c0.8,0.3,1.7,0.7,2.5,1.2C3.4,15.2,4.2,15.7,5,16.2z M2.5,11.7c0.6,0.2,1.1,0.5,1.7,0.7
		c0.9,0.4,1.7,0.8,2.5,1.3c0.4,0.2,0.8,0.5,1.1,0.7l-1.2,1.7c-0.3-0.2-0.7-0.5-1.1-0.8c-0.8-0.5-1.7-1-2.5-1.5
		c-0.5-0.3-1-0.5-1.5-0.7L2.5,11.7z"/>
	<path class="st0" d="M24.2,33.8V18.6h-3.6v15.2H24.2z M21.6,19.6h1.6v13.2h-1.6V19.6z"/>
	<path class="st0" d="M46.8,14.9c-0.2,0.3-0.4,0.7-0.7,1c-0.6,0.8-1.2,1.7-1.8,2.6c-0.7,0.9-1.3,1.8-2,2.8c-0.7,0.9-1.3,1.8-2,2.6
		c-0.6,0.8-1.2,1.5-1.7,2.1l2.7,3.8c0.5-0.7,1.1-1.6,1.8-2.5s1.3-1.9,2-2.9c0.5-0.7,1-1.4,1.4-2.1c0,0.9,0,1.8-0.1,2.5
		c0,1.1,0,2.2-0.1,3.2c0,1,0,2.1-0.1,3.4c0,0.3,0,0.7,0,1.2c0,0.5,0,1-0.1,1.4h4.7c-0.1-0.4-0.1-0.9-0.2-1.4c-0.1-0.5-0.1-1-0.1-1.3
		c-0.1-1.2-0.1-2.3-0.1-3.3c0-1.1,0-2.1-0.1-3.2c0-1.1,0-2.1,0-3.2c0-1.1,0-2.2,0.1-3.4c0.3-0.3,0.5-0.5,0.8-0.8
		c1.1-1.1,2.1-2.1,3.3-3c1.1-0.9,2.3-1.7,3.3-2.3c1.1-0.6,2.1-0.9,3-0.9c0.9,0,1.5,0.2,2,0.7c0.5,0.5,0.7,1.2,0.7,2.2
		c0,0.9-0.1,1.9-0.2,3c-0.1,1.1-0.3,2.3-0.5,3.5s-0.3,2.4-0.5,3.6c-0.1,1.2-0.2,2.3-0.2,3.3c0,1.8,0.4,3.1,1.3,4.1
		c0.8,0.9,2,1.4,3.3,1.4c1.5,0,2.8-0.3,4-0.8c1.2-0.5,2.2-1.2,3.1-2.1l-0.6-4.8c-0.9,0.9-1.8,1.6-2.7,2.1S68.9,28,68.1,28
		c-0.5,0-0.9-0.2-1.2-0.6c-0.3-0.4-0.4-0.8-0.4-1.3c0-1,0.1-2,0.2-3.2c0.1-1.2,0.3-2.4,0.5-3.6c0.2-1.2,0.3-2.4,0.5-3.6
		c0.1-1.2,0.2-2.2,0.2-3.2c0-1.1-0.2-2-0.6-2.8c-0.4-0.8-1.1-1.5-1.9-1.9C64.5,7.3,63.4,7,62.1,7c-1,0-2,0.2-3.1,0.6
		c-1.1,0.4-2.1,0.9-3.2,1.6c-1.1,0.6-2,1.3-3,2.1c-0.7,0.6-1.4,1.1-2,1.7c0-0.1,0-0.3,0-0.4c0-0.3,0.1-0.6,0.1-0.8
		c0.1-0.1,0.1-0.2,0.2-0.3c0.3-0.5,0.6-0.9,0.9-1.4c0.3-0.5,0.6-0.8,0.8-1.1l-1.4-1.8c0.1-1.1,0.2-2,0.4-2.9
		c0.2-1.1,0.3-1.9,0.4-2.5l-5-0.2c0.1,0.6,0.2,1.1,0.2,1.7c0,0.5,0,1.1,0,1.6c0,0.3,0,0.7-0.1,1.5c0,0.5-0.1,1.1-0.1,1.7
		c0,0,0,0,0,0c-0.9,0.1-1.7,0.2-2.5,0.3c-0.8,0.1-1.5,0.2-2.1,0.2c-0.6,0-1.1,0-1.6,0.1c-0.5,0-1,0-1.5,0l0.5,4.4
		c0.6-0.1,1.3-0.2,2.1-0.3c0.8-0.1,1.5-0.2,2.2-0.3c0.7-0.1,1.4-0.2,2.1-0.3c0.2,0,0.4-0.1,0.7-0.1c0,0,0,0.1,0,0.1
		C46.9,13,46.8,14,46.8,14.9z M46.8,10.9L46.2,11c-0.6,0.1-1.3,0.2-2.1,0.3c-0.7,0.1-3,0.4-3.3,0.5l-0.2-2.2c0.1,0,0.3,0,0.4,0
		c0.5,0,1,0,1.6-0.1c0.6,0,1.3-0.1,2.2-0.2c0.8-0.1,3.4-0.4,3.4-0.4L48.2,8c0-0.6,0.1-1.2,0.1-1.7c0-0.7,0.1-1.3,0.1-1.5V3.2
		c0-0.2,0-0.4,0-0.6L51,2.7c-0.1,0.4-0.1,0.9-0.2,1.4c-0.1,0.9-0.3,1.8-0.4,2.9l0,0.4l1.2,1.5l-0.4,0.5c-0.3,0.5-0.6,0.9-0.9,1.4
		L50,11.3l-0.1,1.1l0,0.4l-0.2,2.5l1.9-1.6c0.7-0.6,1.3-1.1,1.9-1.6c0.9-0.7,1.9-1.4,2.9-2c1-0.6,2-1.1,3-1.5
		C60.3,8.2,61.2,8,62.1,8c1.1,0,2.1,0.2,2.8,0.6c0.7,0.4,1.2,0.9,1.5,1.5c0.3,0.7,0.5,1.5,0.5,2.4c0,0.9-0.1,2-0.2,3.1
		c-0.1,1.2-0.3,2.4-0.5,3.6c-0.2,1.2-0.3,2.4-0.5,3.6c-0.1,1.2-0.2,2.3-0.2,3.3c0,0.8,0.2,1.4,0.6,2c0.3,0.4,0.9,0.9,2,0.9
		c0.9,0,1.9-0.3,3-0.9c0.5-0.3,1-0.6,1.4-1l0.3,2.3c-0.7,0.6-1.6,1.2-2.5,1.6c-1,0.5-2.2,0.7-3.6,0.7c-1.1,0-1.9-0.4-2.6-1.1
		c-0.7-0.7-1-1.9-1-3.4c0-1,0.1-2.1,0.2-3.2c0.1-1.2,0.3-2.4,0.5-3.6c0.2-1.2,0.3-2.4,0.5-3.5c0.1-1.2,0.2-2.2,0.2-3.1
		c0-1.2-0.3-2.2-1-2.9c-0.7-0.7-1.6-1-2.7-1c-1.1,0-2.2,0.3-3.4,1c-1.1,0.6-2.3,1.4-3.5,2.4c-1.2,1-2.3,2-3.4,3.1
		c-0.2,0.2-0.4,0.4-0.5,0.6l-0.5,0.5l0,0.4c-0.1,1.4-0.1,2.5-0.1,3.5c0,1.1,0,2.1,0,3.2c0,1.1,0,2.1,0.1,3.2c0,1.1,0.1,2.2,0.1,3.4
		c0,0.4,0.1,0.8,0.1,1.4c0,0.1,0,0.2,0,0.3h-2.5c0-0.1,0-0.3,0-0.4c0-0.5,0-1,0-1.3c0-1.2,0-2.3,0.1-3.4c0-1,0-2.1,0.1-3.2l0.1-5.9
		l-3.3,4.9c-0.7,1-1.3,2-2,2.9c-0.3,0.5-0.7,0.9-1,1.4l-1.4-2c0.4-0.5,0.8-1,1.2-1.5c0.6-0.8,1.3-1.7,2-2.6l2-2.8
		c0.7-0.9,1.3-1.8,1.9-2.6c0.3-0.4,0.9-1.3,0.9-1.3l0-0.3c0.1-0.9,0.1-1.9,0.2-2.8l0.1-1.2L46.8,10.9z"/>
	<path class="st0" d="M83.9,13.3h19.6V8.8H83.9V13.3z M84.9,9.8h17.6v2.4H84.9V9.8z"/>
	<path class="st0" d="M83.9,7.9h19.6V3.5H83.9V7.9z M84.9,4.5h17.6v2.4H84.9V4.5z"/>
	<path class="st0" d="M110.6,31H96.1v-3h10.4v-3.2H96.1v-2.7h12.1v-3.4H96.1v-2.5h-4.3v2.5h-6.1c0.5-0.8,0.9-1.6,1.3-2.4l-3.2-0.9
		h23v-14H80.9v14h2c-0.7,1.5-1.6,2.9-2.7,4.3c-1.2,1.5-2.5,2.7-3.8,3.7c0.3,0.2,0.7,0.5,1.1,0.8c0.4,0.3,0.9,0.6,1.3,0.9
		c0.4,0.3,0.8,0.6,1,0.9c0.9-0.8,1.8-1.7,2.7-2.7c0.3-0.4,0.6-0.8,0.9-1.2h8.4v2.7h-10V28h10v3H77.1v3.5h33.5V31z M81.9,14.4v-12
		h23.8v12H81.9z M109.6,33.5H78.1V32h14.7v-5h-10v-1.2h10v-4.7h-9.9l-0.3,0.4c-0.3,0.4-0.6,0.8-0.9,1.1c-0.6,0.7-1.3,1.4-1.9,2
		c-0.1-0.1-0.3-0.2-0.4-0.3c-0.4-0.3-0.9-0.6-1.3-1c0,0,0,0,0,0c1-0.9,2-1.9,2.9-3c1-1.3,1.9-2.6,2.6-4l2,0.6
		c-0.2,0.4-0.4,0.8-0.7,1.2L84,19.7h8.8v-2.5h2.3v2.5h12.1v1.4H95.1v4.7h10.4V27H95.1v5h14.6V33.5z"/>
	<path class="st0" d="M27.9,34c0.3,0.3,0.7,0.5,1.1,0.7c0.5,0.1,0.9,0.2,1.3,0.2c0.3,0,0.6,0,1,0c0.4,0,0.7,0,1,0
		c0.3,0,0.7,0,1.1-0.1c0.4-0.1,0.7-0.2,0.9-0.4c0.6-0.3,1-0.9,1.2-1.6c0.1-0.4,0.2-1,0.3-1.9c0.1-0.9,0.1-1.7,0.2-2.5
		c-0.5-0.2-1-0.4-1.5-0.6c-0.5-0.3-0.9-0.6-1.3-0.9c0,0.9,0,1.6-0.1,2.3c0,0.6,0,1.1-0.1,1.4c-0.1,0.6-0.2,0.9-0.3,1
		c-0.1,0.1-0.1,0.1-0.2,0.2c-0.1,0-0.2,0-0.3,0c-0.1,0-0.3,0-0.4,0c-0.1,0-0.3,0-0.4,0c-0.1,0-0.2,0-0.3-0.1c-0.1,0-0.1-0.1-0.2-0.1
		c-0.1-0.1-0.2-0.5-0.2-1.2v-12h-3.8v11.9c0,1.3,0.1,2.2,0.2,2.7C27.4,33.3,27.6,33.7,27.9,34z M28.1,19.3h1.8v11
		c0,1,0.1,1.5,0.4,1.8c0.2,0.2,0.3,0.3,0.5,0.4c0.2,0.1,0.5,0.2,0.7,0.2h0.8c0.2,0,0.4,0,0.5-0.1c0.3-0.1,0.6-0.2,0.7-0.4
		c0.4-0.3,0.5-0.9,0.6-1.6c0.1-0.3,0.1-0.8,0.1-1.5c0-0.1,0-0.3,0-0.4c0.3,0.1,0.5,0.3,0.8,0.4c0,0.6-0.1,1.2-0.1,1.8
		c-0.1,1-0.2,1.5-0.3,1.8c-0.1,0.5-0.4,0.8-0.7,1c-0.1,0.1-0.3,0.2-0.6,0.3c-0.3,0.1-0.6,0.1-0.8,0.1h-2c-0.3,0-0.6-0.1-1-0.2
		c-0.3-0.1-0.5-0.2-0.7-0.4c-0.2-0.2-0.3-0.4-0.4-0.8c-0.1-0.3-0.2-0.9-0.2-2.4V19.3z"/>
	<path class="st0" d="M30.8,16.2c0.7,0.9,1.2,1.7,1.5,2.5l3.4-1.9c-0.4-0.8-1-1.6-1.7-2.6c-0.7-0.9-1.5-1.9-2.4-2.8S29.9,9.6,29,8.9
		l-3.2,1.7c0.8,0.7,1.5,1.5,2.2,2.3c-1.3,0-2.6,0.1-3.9,0.1c-1.4,0-2.8,0.1-4.1,0.1c0.5-0.8,0.9-1.6,1.4-2.4
		c0.4-0.8,0.8-1.6,1.2-2.3h12.6V4.7H24.8V0h-4.1v4.7h-9.5v3.7H18c-0.1,0.3-0.2,0.6-0.4,0.9c-0.4,0.9-0.8,1.9-1.2,2.8
		c-0.2,0.4-0.4,0.8-0.6,1.2c-1.6,0-3.1,0.1-4.4,0.1l0.4,3.8c1.7-0.1,3.7-0.2,5.8-0.3c2.1-0.1,4.4-0.2,6.7-0.3
		C26.5,16.5,28.7,16.3,30.8,16.2z M17.6,15.9c-1.8,0.1-3.4,0.2-4.9,0.2l-0.2-1.8c1,0,2.1,0,3.3-0.1l0.6,0l0.3-0.5
		c0.2-0.4,0.4-0.8,0.6-1.3c0.4-0.9,0.9-1.8,1.3-2.8c0.1-0.3,0.2-0.6,0.3-0.8l0.6-1.5h-7.4V5.7h9.5V1h2.1v4.7h10.5v1.7H22l-0.3,0.5
		c-0.4,0.8-0.8,1.5-1.2,2.3c-0.5,0.8-0.9,1.6-1.4,2.4l-0.9,1.6l6-0.2c0.9,0,1.8-0.1,2.8-0.1l3.3-0.1l-1.4-1.6
		c-0.5-0.5-0.9-1-1.3-1.4l1.3-0.7c0.7,0.6,1.3,1.3,2,2c0.8,0.9,1.6,1.9,2.4,2.8c0.4,0.6,0.8,1.1,1.1,1.6l-1.6,0.9
		c-0.3-0.5-0.7-1.1-1.1-1.7l-0.3-0.4l-7,0.4C22,15.7,19.8,15.8,17.6,15.9z"/>
</g>
</svg>
