<?xml version="1.0" encoding="utf-8"?>
<!-- Generator: Adobe Illustrator 27.9.1, SVG Export Plug-In . SVG Version: 6.00 Build 0)  -->
<svg version="1.1" id="Layer_1" xmlns="http://www.w3.org/2000/svg" xmlns:xlink="http://www.w3.org/1999/xlink" x="0px" y="0px"
	 viewBox="0 0 68.2 35.2" style="enable-background:new 0 0 68.2 35.2;" xml:space="preserve">
<style type="text/css">
	.st0{fill:#282828;}
</style>
<g>
	<path class="st0" d="M38.1,17.5h8.6V8.8h-8.6V17.5z M39.1,9.8h6.6v6.7h-6.6V9.8z"/>
	<path class="st0" d="M38.1,29h8.6V19h-8.6V29z M39.1,20h6.6v8h-6.6V20z"/>
	<path class="st0" d="M64.4,6h-7.2c0.6-1.7,1.1-3.4,1.6-5.1L54.8,0c-0.4,1.7-0.9,3.4-1.5,5.1c-0.6,1.7-1.3,3.2-2,4.7
		c-0.6,1.2-1.3,2.2-1.9,3.2V6.2h-6c0.2-0.5,0.4-1.1,0.7-1.8c0.5-1.3,0.9-2.5,1.3-3.7L40.9,0c-0.1,0.7-0.2,1.4-0.3,2.3
		c-0.2,0.8-0.3,1.6-0.5,2.5c-0.1,0.5-0.2,1-0.4,1.5h-0.6h-1.3h-2.4v28.3h3.7v-2.9h10.3V13.8c0.2,0.1,0.4,0.3,0.6,0.4
		c0.4,0.3,0.8,0.6,1.3,0.9c0.4,0.3,0.7,0.6,1,0.8c0.9-1.2,1.7-2.6,2.5-4.3c0.3-0.6,0.6-1.3,0.9-2h8.6c-0.1,2.8-0.2,5.3-0.3,7.4
		c-0.1,2.9-0.3,5.3-0.4,7.1c-0.2,1.9-0.3,3.3-0.6,4.4s-0.5,1.7-0.8,2.1c-0.3,0.3-0.5,0.4-0.7,0.5c-0.2,0.1-0.6,0.1-0.9,0.1
		c-0.5,0-1.2,0-2.3,0c-1,0-2.2-0.1-3.4-0.2c0.4,0.6,0.7,1.2,1,2c0.2,0.8,0.4,1.4,0.4,2c1.1,0.1,2.2,0.1,3.3,0.1s1.9,0,2.6-0.1
		c0.8-0.1,1.4-0.3,1.9-0.6c0.5-0.3,1.1-0.7,1.6-1.4c0.4-0.5,0.7-1.3,1-2.4c0.3-1.1,0.5-2.6,0.7-4.5c0.2-1.9,0.4-4.4,0.5-7.4
		c0.1-3,0.3-6.6,0.4-10.9c0-0.2,0-0.4,0-0.7c0-0.3,0-0.7,0-1.2h-2.4H64.4z M48.4,30.6H38.1v2.9h-1.7V7.2h4.1l0.2-0.7
		c0.1-0.5,0.2-1,0.4-1.5c0.2-0.8,0.4-1.7,0.5-2.5c0.1-0.4,0.2-0.9,0.2-1.3L44,1.5c-0.3,0.9-0.6,1.7-0.9,2.6
		c-0.2,0.6-0.4,1.2-0.7,1.7l-0.5,1.4h6.5V30.6z M67.2,7.1c0,0.2,0,0.4,0,0.6l0,0.1l0,0.1c-0.1,4.3-0.3,7.9-0.4,10.9
		c-0.1,3-0.3,5.4-0.5,7.3c-0.2,1.9-0.4,3.3-0.6,4.4c-0.3,1.2-0.6,1.7-0.8,2c-0.4,0.6-0.8,0.9-1.2,1.1c-0.4,0.2-1,0.4-1.7,0.5
		c-0.6,0.1-1.4,0.1-2.5,0.1c-0.8,0-1.6,0-2.4,0c-0.1-0.4-0.2-0.8-0.3-1.3c-0.1-0.2-0.1-0.4-0.2-0.6c0.6,0,1.1,0.1,1.7,0.1
		c1,0,1.8,0,2.3,0c0.5,0,0.9-0.1,1.3-0.2c0.4-0.1,0.7-0.4,1.1-0.7c0.5-0.5,0.8-1.3,1.1-2.6c0.2-1.1,0.4-2.5,0.6-4.5
		c0.2-1.9,0.3-4.3,0.4-7.2c0.1-2.1,0.2-4.6,0.3-7.4l0-1H55.1l-0.3,0.6c-0.3,0.7-0.6,1.3-0.9,1.9c-0.6,1.2-1.2,2.3-1.8,3.2
		c-0.1,0-0.1-0.1-0.2-0.1c-0.4-0.3-0.9-0.6-1.3-0.9c-0.1,0-0.1-0.1-0.2-0.1c0.6-0.9,1.2-2,1.8-3.1c0.8-1.5,1.5-3.1,2.1-4.8
		c0.5-1.4,0.9-2.8,1.3-4.2l1.9,0.5c-0.4,1.3-0.8,2.6-1.3,4L55.8,7h11.4V7.1z"/>
	<path class="st0" d="M23.4,13.9H3.1v7h20.3V13.9z M22.4,19.9H4.1v-5h18.3V19.9z"/>
	<path class="st0" d="M23.4,5.2H3.1V12h20.3V5.2z M22.4,11H4.1V6.2h18.3V11z"/>
	<path class="st0" d="M23.4,22.7H3.1v7h20.3V22.7z M22.4,28.8H4.1v-5h18.3V28.8z"/>
	<path class="st0" d="M0,35.2h4.1v-2.4h18.3v2.4h4.3V2.2H0V35.2z M1,3.2h24.7v30.9h-2.3v-2.4H3.1v2.4H1V3.2z"/>
	<path class="st0" d="M57,22.8c0.6,1,1.1,1.9,1.4,2.7l3.5-2.1c-0.4-0.8-0.9-1.6-1.5-2.6c-0.6-1-1.3-2-2.1-3c-0.7-1.1-1.4-2-2.1-2.9
		L53,16.6c0.6,0.9,1.3,1.9,2,3C55.7,20.7,56.4,21.7,57,22.8z M55.9,16.1c0.5,0.7,1,1.4,1.5,2.1c0.7,1,1.4,2,2.1,3
		c0.4,0.6,0.8,1.2,1,1.7L58.8,24c-0.3-0.6-0.6-1.2-1-1.8c-0.6-1-1.3-2.1-2-3.2c-0.5-0.7-0.9-1.5-1.4-2.1L55.9,16.1z"/>
</g>
</svg>
