<?xml version="1.0" encoding="utf-8"?>
<!-- Generator: Adobe Illustrator 27.9.1, SVG Export Plug-In . SVG Version: 6.00 Build 0)  -->
<svg version="1.1" id="Layer_1" xmlns:inkscape="http://www.inkscape.org/namespaces/inkscape"
	 xmlns="http://www.w3.org/2000/svg" xmlns:xlink="http://www.w3.org/1999/xlink" x="0px" y="0px" viewBox="0 0 208.3 30.7"
	 style="enable-background:new 0 0 208.3 30.7;" xml:space="preserve">
<style type="text/css">
	.st0{fill:#070707;}
</style>
<g>
	<path class="st0" d="M23.8,15.1l-4.6,3.8c2.4,2.2,4.5,4.5,6.4,6.9l4.4-4C28,19.3,25.9,17.1,23.8,15.1z M25.7,24.3
		c-1.5-1.9-3.2-3.7-5-5.4l3-2.5c1.7,1.6,3.3,3.4,4.9,5.2L25.7,24.3z"/>
	<path class="st0" d="M11.9,22.2c0,2.4,0,5-0.1,7.8l6.5,0c0-4.5,0-8.4-0.1-11.5c5.4-3.6,8.1-7,8.1-10.1c0-1.3-0.4-2.4-1.3-3.2
		c-0.6-0.6-1.8-1.1-3.5-1.4c-0.7-0.2-2.1-0.2-4-0.1c-0.1-1.2-0.3-2.4-0.4-3.7l-6.6,0.7c0.2,1.2,0.4,2.3,0.5,3.5
		C8.4,4.6,5.6,5,2.5,5.5l1.1,6c7.9-1.5,13-2.2,15.3-2.2c0.5,0,0.8,0.1,0.8,0.3c0,0.6-1,1.6-3,3c-2,1.4-4.6,2.8-7.7,4.3
		c-3.1,1.5-6.1,2.8-9,3.9l3.5,5.5C6.6,24.9,9.4,23.5,11.9,22.2z M9.4,17.8c3.1-1.5,5.7-3,7.8-4.4c2.5-1.7,3.5-2.8,3.5-3.8
		c0-0.3-0.1-1.3-1.8-1.3c-2.3,0-7.1,0.7-14.5,2.1l-0.7-4c2.7-0.4,5.2-0.8,7.6-1.1l1-0.1l-0.1-1c-0.1-0.8-0.2-1.7-0.4-2.5l4.6-0.5
		c0.1,0.9,0.2,1.8,0.3,2.7l0.1,1l1-0.1c0.8-0.1,1.5-0.1,2.1-0.1c1,0,1.4,0.1,1.7,0.1c1.9,0.4,2.7,0.9,3,1.2c0.7,0.6,1,1.4,1,2.5
		c0,2.8-2.6,5.9-7.7,9.3L17.2,18l0,0.6c0.1,2.9,0.1,6.4,0.1,10.5l-4.5,0c0.1-2.4,0.1-4.7,0-6.8l0-1.6l-1.5,0.8
		c-2.2,1.2-4.8,2.4-7.6,3.7l-2.4-3.7C4.1,20.3,6.7,19.1,9.4,17.8z"/>
	<path class="st0" d="M43.4,19.2c-1.8,1.6-4.2,3.4-7.2,5.3l4.4,4.8c2.9-2,5.3-3.9,7.4-5.7c2.1-1.8,4.1-4,6.1-6.5c0,0.2,0,0.4,0,0.6
		c0,3.3-0.3,7.2-0.8,11.9l6.5,0.4c0.4-4.3,0.6-7.9,0.6-10.8c0-2.9,0-5.3-0.1-7.1c1.3,0,2.7,0.1,4.4,0.1l0.3-5.9
		C63,6.1,61.3,6.1,59.8,6c-0.2-1.8-0.4-3.6-0.7-5.5l-6.3,0.4c0.2,1.9,0.4,3.6,0.6,5.1c-4.2,0.2-9.6,0.8-16.2,1.7l0.9,6
		c6.7-1,11.9-1.6,15.8-1.8c0.1,1.7,0.1,3.3,0.1,4.8l-4.8-4.1C47.2,15.4,45.2,17.5,43.4,19.2z M53.8,11c-3.7,0.1-8.7,0.7-14.9,1.6
		l-0.6-4C44.4,7.8,49.5,7.2,53.4,7l1,0l-0.1-1c-0.1-1.3-0.3-2.6-0.4-4.1l4.3-0.3c0.2,1.5,0.4,3,0.5,4.5L58.9,7l0.9,0
		c1.2,0,2.6,0.1,4.1,0.1l-0.2,3.9C62.4,11,61.3,11,60.2,11l-1.1,0l0.1,1.1c0.1,1.8,0.1,4.1,0.1,7c0,2.7-0.2,5.9-0.5,9.8l-4.5-0.3
		c0.4-3.6,0.6-6.8,0.7-9.6l0,0v-4.8l0,0.1c0-0.8-0.1-1.5-0.1-2.3l-0.1-1L53.8,11z M52.7,17c-1.8,2.2-3.6,4.1-5.5,5.7
		c-1.8,1.7-4,3.4-6.6,5.2l-3-3.3c2.6-1.7,4.7-3.3,6.4-4.7c1.7-1.5,3.5-3.4,5.3-5.8L52.7,17z"/>
	<path class="st0" d="M82,14.6l4.6-5c-2.7-2.9-6-5.5-9.7-7.9l-4.6,5C76,9.3,79.3,11.9,82,14.6z M77.1,3c3.1,2,5.8,4.2,8.1,6.6
		L82,13.2c-2.4-2.3-5.1-4.5-8.2-6.6L77.1,3z"/>
	<path class="st0" d="M92.1,25.4c3.9-2.8,7.2-6.7,9.8-11.7l-5-4.8c-2.1,4.3-4.7,7.8-7.8,10.4C86,21.8,82.9,23,79.8,23
		c-1.4,0-3.1-0.5-4.9-1.5l-2,6.2c2.1,1.3,4.5,1.9,7.2,1.9C84.2,29.6,88.2,28.2,92.1,25.4z M74,27.2l1.4-4.3c1.6,0.7,3,1.1,4.3,1.1
		c3.3,0,6.7-1.4,9.9-4.1c2.9-2.4,5.4-5.6,7.5-9.5l3.5,3.3c-2.5,4.5-5.6,8.1-9.2,10.7c-3.7,2.7-7.6,4.1-11.5,4.1
		C77.8,28.6,75.8,28.2,74,27.2z"/>
	<path class="st0" d="M113.1,6.6c3.7-0.2,7.5-0.3,11.3-0.3s6.7,0,8.8,0.1l0.1-5.8c-2.9-0.1-6.2-0.2-9.8-0.2s-7.2,0.1-10.6,0.3
		L113.1,6.6z M123.4,1.5c3.2,0,6.2,0.1,8.8,0.2l-0.1,3.8c-2-0.1-4.6-0.1-7.8-0.1c-3.4,0-6.9,0.1-10.3,0.2l-0.2-3.9
		C116.9,1.6,120.1,1.5,123.4,1.5z"/>
	<path class="st0" d="M111,16.6c7.5-1.4,13-2.1,16.6-2.1c0.8,0,1.4,0.1,1.7,0.2c0.3,0.1,0.5,0.4,0.5,0.7c0,0.9-0.8,2.5-2.3,4.8
		s-3.3,4.6-5.3,6.8l6.1,3.6c2.6-3.3,4.7-6.4,6.2-9.4c1.5-3,2.2-5.5,2.2-7.4s-0.7-3.4-2-4.2s-3.3-1.2-6-1.2s-5.8,0.2-9.5,0.5
		c-3.6,0.4-6.7,0.8-9.3,1.2L111,16.6z M119.3,10c3.6-0.4,6.7-0.5,9.4-0.5c2.5,0,4.3,0.4,5.5,1.1c1,0.6,1.5,1.7,1.5,3.3
		c0,1.8-0.7,4.2-2.1,7c-1.3,2.7-3.2,5.6-5.5,8.5l-4.3-2.6c1.7-2,3.3-4,4.6-6c2.2-3.3,2.5-4.6,2.5-5.4c0-0.7-0.4-1.3-1.1-1.6
		c-0.5-0.2-1.1-0.3-2.1-0.3c-3.5,0-8.8,0.6-15.8,1.9l-0.7-4.4C113.4,10.7,116.2,10.3,119.3,10z"/>
	<path class="st0" d="M157.2,16c0,1.3,0.1,2.8,0.1,4.7c0,1.8-0.2,4.8-0.5,8.8l6.5,0.2c0.3-4.1,0.5-7.2,0.5-9.4
		c0-2.2-0.1-4.4-0.2-6.7h-2.9c3.7-2.6,7.5-5.6,11.3-8.9L167,0.1c-2.3,2.4-5.4,5-9.3,7.7c-4,2.7-8.2,5.3-12.7,7.6l3.4,5.8
		C151.4,19.5,154.4,17.8,157.2,16z M162.6,14.6c0.1,1.9,0.2,3.8,0.2,5.7c0,2-0.1,4.8-0.4,8.4l-4.5-0.2c0.3-3.5,0.4-6.2,0.4-7.9
		c0-1.8,0-3.4-0.1-4.7l-0.1-1.3H162.6z M158.3,8.6c3.6-2.5,6.6-4.9,8.8-7.1l3.3,3.2c-3.5,3-7,5.8-10.4,8.1l-2.6,1.8h0l-0.8,0.5
		c-2.5,1.6-5.1,3.2-7.9,4.6l-2.4-4.1C150.5,13.6,154.6,11.2,158.3,8.6z"/>
	<path class="st0" d="M192.5,30.2c0.4-5.2,0.7-10.2,0.8-15c3.5,1.8,7.4,4.1,11.7,7l3.4-5.2c-2.3-1.6-4.3-3-6.1-4.1
		c-1.8-1.1-4.1-2.3-6.7-3.6l-2.2,3.5c0-4.2-0.2-8.4-0.5-12.6l-6.6,0.4c0.7,9.2,0.5,18.9-0.5,29.4L192.5,30.2z M195.9,10.7
		c2.2,1.1,4.2,2.2,5.8,3.2c1.6,1,3.4,2.1,5.3,3.5l-2.3,3.5c-4-2.6-7.7-4.8-11-6.5l-0.2-0.1L195.9,10.7z M187.2,1.6l4.7-0.3
		c0.3,3.8,0.4,7.7,0.4,11.6v0.8l0,0l0,1.6c-0.1,4.5-0.3,9.1-0.7,13.9l-4.8-0.2C187.6,19.4,187.8,10.1,187.2,1.6z"/>
</g>
</svg>
