<?xml version="1.0" encoding="utf-8"?>
<!-- Generator: Adobe Illustrator 27.9.1, SVG Export Plug-In . SVG Version: 6.00 Build 0)  -->
<svg version="1.1" id="Layer_1" xmlns="http://www.w3.org/2000/svg" xmlns:xlink="http://www.w3.org/1999/xlink" x="0px" y="0px"
	 viewBox="0 0 217.5 35.8" style="enable-background:new 0 0 217.5 35.8;" xml:space="preserve">
<style type="text/css">
	.st0{fill:#282828;}
</style>
<g>
	<path class="st0" d="M10.9,0l4.9,0.5c-0.4,1.2-0.9,2.4-1.4,3.6s-1,2.2-1.4,3.1L9.3,6.5c0.2-0.6,0.4-1.3,0.6-2.1
		c0.2-0.8,0.4-1.5,0.6-2.3C10.7,1.3,10.8,0.6,10.9,0z M118.3,0.2l3.8,1.2c-0.9,2.1-1.9,4.3-3.1,6.4s-2.4,4.1-3.8,6
		c-1.3,1.9-2.7,3.6-4.2,5c-0.1-0.3-0.3-0.8-0.6-1.3c-0.3-0.5-0.5-1.1-0.8-1.6c-0.3-0.5-0.5-1-0.8-1.3c1.2-1.2,2.4-2.5,3.6-4.1
		c1.2-1.5,2.2-3.2,3.2-5C116.7,3.8,117.5,2,118.3,0.2z M58.3,0.5c0.6,1.2,1.3,2.5,2.2,3.7c0.9,1.3,1.8,2.5,2.8,3.7s2.1,2.4,3.2,3.4
		c1.1,1.1,2.2,2,3.2,2.7c-0.4,0.3-0.8,0.7-1.2,1.1c-0.4,0.4-0.9,0.9-1.3,1.3c-0.4,0.4-0.7,0.9-1,1.3c-1.1-1-2.1-2-3.2-3.2
		c-1.1-1.2-2.2-2.5-3.2-3.9c-1.1-1.4-2-2.8-3-4.3c-0.9-1.5-1.8-2.9-2.5-4.4L58.3,0.5z M44.2,0.6l4.4,1.3c-0.9,2.2-2.1,4.3-3.3,6.3
		c-1.3,2-2.7,3.9-4.2,5.6c-1.5,1.7-3.1,3.2-4.7,4.4c-0.3-0.3-0.6-0.6-1-1c-0.4-0.4-0.9-0.8-1.3-1.2c-0.4-0.4-0.8-0.7-1.2-1
		c1.6-1,3.1-2.3,4.5-3.8c1.4-1.5,2.7-3.1,3.9-4.9C42.5,4.4,43.4,2.5,44.2,0.6z M88.5,1.9c-0.2,0.7-0.4,1.6-0.6,2.7
		c-0.3,1.1-0.7,2.3-1.2,3.6c-0.4,1-0.9,2-1.5,3.1c-0.6,1.1-1.2,2-1.8,2.9c0.4-0.2,0.8-0.4,1.4-0.5c0.5-0.1,1.1-0.2,1.7-0.3
		c0.6-0.1,1.1-0.1,1.5-0.1c1.6,0,2.9,0.5,3.9,1.3c1,0.9,1.6,2.2,1.6,3.9c0,0.5,0,1.1,0,1.9c0,0.7,0,1.5,0,2.3c0,0.8,0,1.6,0.1,2.4
		c0,0.8,0,1.5,0,2.1h-4.1c0.1-0.5,0.1-1,0.1-1.6c0-0.6,0-1.3,0.1-2c0-0.7,0-1.4,0-2c0-0.6,0-1.2,0-1.7c0-1.2-0.3-2-1-2.5
		c-0.7-0.5-1.4-0.7-2.2-0.7c-1.1,0-2.2,0.3-3.3,0.8c-1.1,0.5-2,1.1-2.8,1.9c-0.6,0.6-1.1,1.2-1.7,1.9c-0.6,0.7-1.2,1.4-1.8,2.3
		l-3.6-2.7c1.7-1.6,3.1-3.1,4.3-4.6c1.2-1.4,2.2-2.9,3-4.2c0.8-1.4,1.5-2.7,2-4c0.4-1,0.7-2.1,1-3.2c0.3-1.1,0.4-2.1,0.5-3.1
		L88.5,1.9z M124.2,1.6h17.5v3.2h-17.5V1.6z M159.6,2.5c-0.1,0.8-0.2,1.6-0.3,2.4c-0.1,0.8-0.1,1.6-0.2,2.3c-0.1,1-0.1,2.3-0.2,3.8
		c-0.1,1.5-0.1,3.1-0.2,4.8c-0.1,1.7-0.1,3.3-0.1,4.9c0,1.6-0.1,3-0.1,4.3c0,1.3,0.2,2.3,0.7,3.1c0.5,0.8,1.2,1.3,2,1.7
		c0.8,0.3,1.8,0.5,2.8,0.5c1.6,0,3.1-0.2,4.4-0.6c1.3-0.4,2.5-1,3.6-1.7c1.1-0.7,2-1.6,2.9-2.5c0.9-0.9,1.6-1.9,2.3-2.9l3.1,3.8
		c-0.6,0.9-1.4,1.8-2.4,2.8c-1,1-2.1,1.9-3.5,2.8c-1.3,0.9-2.9,1.6-4.6,2.1c-1.7,0.5-3.7,0.8-5.8,0.8c-2,0-3.7-0.3-5.2-0.9
		c-1.5-0.6-2.7-1.6-3.5-2.9c-0.8-1.3-1.2-3.1-1.2-5.2c0-1,0-2.2,0-3.6c0-1.4,0.1-2.8,0.1-4.2c0.1-1.4,0.1-2.9,0.1-4.3
		c0-1.4,0.1-2.7,0.1-3.8c0-1.1,0-2.1,0-2.7c0-0.9,0-1.7-0.1-2.5c-0.1-0.8-0.2-1.6-0.4-2.2L159.6,2.5z M192.9,3.5
		c0.5,0.1,1.1,0.1,1.6,0.1c0.6,0,1.1,0.1,1.6,0.1c0.4,0,1,0,1.9,0c0.8,0,1.8-0.1,2.8-0.1c1,0,2.1-0.1,3.1-0.1c1.1,0,2-0.1,2.8-0.1
		c0.8-0.1,1.5-0.1,1.9-0.1c0.7-0.1,1.3-0.1,1.7-0.2c0.4-0.1,0.7-0.1,1-0.2l2.2,3.1c-0.4,0.3-0.8,0.5-1.3,0.8
		c-0.4,0.3-0.8,0.6-1.3,0.9c-0.5,0.4-1.1,0.8-1.9,1.4c-0.7,0.6-1.5,1.2-2.4,1.9c-0.8,0.7-1.7,1.4-2.5,2c-0.8,0.7-1.5,1.3-2.2,1.8
		c0.7-0.2,1.4-0.4,2.1-0.4c0.7-0.1,1.3-0.1,2-0.1c2.1,0,4,0.4,5.7,1.2c1.7,0.8,3,1.9,4,3.3c1,1.4,1.5,3,1.5,4.8c0,2-0.5,3.8-1.5,5.4
		c-1,1.6-2.5,2.9-4.6,3.8s-4.5,1.4-7.5,1.4c-1.7,0-3.3-0.2-4.7-0.7c-1.4-0.5-2.4-1.2-3.2-2.1c-0.8-0.9-1.2-2-1.2-3.2
		c0-1,0.3-1.9,0.8-2.8c0.5-0.9,1.3-1.6,2.3-2.1c1-0.5,2.1-0.8,3.4-0.8c1.7,0,3.2,0.3,4.4,1c1.2,0.7,2.1,1.6,2.7,2.8
		c0.6,1.2,1,2.4,1,3.8l-4,0.6c-0.1-1.4-0.4-2.6-1.2-3.5c-0.7-0.9-1.7-1.4-3-1.4c-0.8,0-1.4,0.2-1.8,0.6c-0.5,0.4-0.7,0.9-0.7,1.4
		c0,0.8,0.4,1.4,1.2,1.8c0.8,0.5,1.8,0.7,3.1,0.7c2.1,0,3.9-0.3,5.4-0.8c1.5-0.5,2.6-1.3,3.4-2.3c0.8-1,1.1-2.2,1.1-3.6
		c0-1.2-0.4-2.2-1.1-3.1c-0.7-0.9-1.7-1.6-2.9-2.1c-1.2-0.5-2.6-0.8-4.1-0.8c-1.5,0-2.9,0.2-4.1,0.6c-1.2,0.4-2.4,0.9-3.5,1.5
		c-1.1,0.7-2.1,1.5-3.2,2.4s-2.1,2-3.2,3.2l-3.1-3.2c0.7-0.6,1.5-1.2,2.4-1.9c0.9-0.7,1.8-1.5,2.7-2.2c0.9-0.8,1.8-1.5,2.6-2.2
		c0.8-0.7,1.5-1.3,2.1-1.7c0.5-0.4,1.2-1,1.9-1.6c0.7-0.6,1.5-1.2,2.3-1.9c0.8-0.7,1.5-1.3,2.2-1.9c0.7-0.6,1.3-1.1,1.7-1.5
		c-0.4,0-0.9,0-1.6,0.1c-0.7,0-1.4,0.1-2.2,0.1c-0.8,0-1.6,0.1-2.4,0.1c-0.8,0-1.5,0.1-2.2,0.1c-0.7,0-1.2,0.1-1.6,0.1
		c-0.5,0-1,0.1-1.5,0.1c-0.5,0-1,0.1-1.4,0.2L192.9,3.5z M174.6,3.5c0.4,0.5,0.8,1.1,1.2,1.8c0.5,0.7,0.9,1.5,1.4,2.2
		c0.4,0.7,0.8,1.4,1.1,1.9l-3,1.5c-0.4-0.8-0.8-1.5-1.2-2.2c-0.4-0.7-0.8-1.3-1.2-2c-0.4-0.6-0.8-1.3-1.3-1.9L174.6,3.5z M74.6,5.5
		c1,0.1,2.1,0.2,3.3,0.3C79.2,5.9,80.3,6,81.2,6c1.7,0,3.5,0,5.5-0.1c2-0.1,4-0.2,6-0.4c2-0.2,4-0.4,5.8-0.7v4
		c-1.3,0.2-2.8,0.4-4.3,0.5c-1.5,0.1-3.1,0.3-4.7,0.3c-1.6,0.1-3.1,0.2-4.6,0.2c-1.5,0-2.8,0.1-3.9,0.1c-0.5,0-1.2,0-1.9,0
		c-0.7,0-1.5,0-2.3-0.1c-0.8-0.1-1.5-0.1-2.2-0.1V5.5z M0,5.1h27.2v30.4h-4.3V9H4.1v26.5H0V5.1z M169.6,5.5c0.4,0.5,0.8,1.1,1.2,1.8
		c0.4,0.7,0.9,1.5,1.3,2.2c0.4,0.8,0.8,1.4,1.1,2l-3.1,1.4c-0.4-0.8-0.7-1.5-1.1-2.2c-0.4-0.7-0.8-1.4-1.1-2
		c-0.4-0.7-0.8-1.3-1.3-1.9L169.6,5.5z M114.5,10.5l3.9-3.9l0,0v28.8h-3.9V10.5z M120.6,7h24.5v3.3h-24.5V7z M104.4,15.9
		c-0.4,0.1-0.8,0.2-1.3,0.4c-0.5,0.2-1,0.4-1.5,0.6c-0.5,0.2-1,0.4-1.4,0.5c-1.3,0.5-2.7,1.1-4.4,1.8c-1.7,0.7-3.4,1.5-5.2,2.4
		c-1.2,0.6-2.2,1.2-3,1.8c-0.8,0.6-1.5,1.2-1.9,1.9c-0.4,0.6-0.7,1.3-0.7,2.1c0,0.6,0.1,1.1,0.4,1.4c0.3,0.4,0.6,0.7,1.1,0.9
		c0.5,0.2,1.1,0.3,1.9,0.4c0.7,0.1,1.6,0.1,2.5,0.1c1.6,0,3.3-0.1,5.3-0.3s3.7-0.4,5.4-0.7l-0.2,4.4c-0.9,0.1-1.9,0.2-3.1,0.3
		c-1.2,0.1-2.5,0.2-3.8,0.2c-1.3,0.1-2.5,0.1-3.7,0.1c-1.9,0-3.7-0.2-5.2-0.6c-1.5-0.4-2.8-1-3.7-1.9c-0.9-0.9-1.3-2.1-1.3-3.7
		c0-1.3,0.3-2.4,0.9-3.4c0.6-1,1.4-2,2.3-2.8c1-0.8,2-1.6,3.2-2.3c1.2-0.7,2.3-1.3,3.4-1.9c1.2-0.6,2.3-1.1,3.3-1.6
		c1-0.4,1.9-0.8,2.8-1.2c0.8-0.4,1.7-0.7,2.5-1.1c0.7-0.3,1.3-0.6,2-0.9c0.6-0.3,1.3-0.6,1.9-1L104.4,15.9z M123.7,12.5h18.8v3.2
		h-18.8V12.5z M2.8,13.4h21.1v3.8H2.8V13.4z M59.2,14.1h4.3c0,0.5,0,0.9,0,1.1c0,0.3,0,0.5,0,0.7c-0.1,2.9-0.3,5.4-0.4,7.4
		c-0.1,2.1-0.3,3.8-0.4,5.2c-0.2,1.4-0.4,2.5-0.6,3.3c-0.2,0.8-0.5,1.4-0.9,1.8c-0.5,0.6-0.9,1-1.5,1.2c-0.5,0.2-1.1,0.4-1.8,0.5
		c-0.7,0.1-1.5,0.1-2.6,0.1c-1.1,0-2.1,0-3.3-0.1c0-0.6-0.2-1.3-0.4-2.1c-0.3-0.8-0.6-1.4-1-2c1.1,0.1,2.2,0.2,3.1,0.2
		c0.9,0,1.7,0,2.1,0c0.4,0,0.7,0,0.9-0.1c0.2-0.1,0.5-0.2,0.7-0.4c0.3-0.3,0.6-1.1,0.8-2.2c0.2-1.1,0.4-2.8,0.6-5.1
		c0.2-2.3,0.3-5.2,0.4-8.7V14.1z M39.7,14.1h20.9v4H39.7V14.1z M46.8,15.3h4.4c-0.2,2.1-0.5,4.2-0.9,6.2c-0.4,2-1.1,3.9-2,5.7
		c-0.9,1.8-2.3,3.4-4,4.9c-1.7,1.5-4,2.7-6.7,3.7c-0.2-0.4-0.4-0.8-0.7-1.3c-0.3-0.5-0.6-0.9-1-1.3c-0.3-0.4-0.7-0.8-1-1.1
		c2.5-0.8,4.6-1.9,6.1-3.1c1.5-1.2,2.7-2.6,3.4-4c0.8-1.5,1.3-3,1.7-4.7C46.4,18.7,46.6,17,46.8,15.3z M123.7,17.9h18.7v3.2h-18.7
		V17.9z M2.8,21.5h21.1v3.8H2.8V21.5z M123.1,23.3h19.8v12.1h-4.1v-8.9H127v9h-3.9V23.3z M2.8,29.8h21.1v3.8H2.8V29.8z M125.3,30.7
		h15.5v3.3h-15.5V30.7z"/>
</g>
</svg>
