<?xml version="1.0" encoding="utf-8"?>
<!-- Generator: Adobe Illustrator 27.9.1, SVG Export Plug-In . SVG Version: 6.00 Build 0)  -->
<svg version="1.1" id="Layer_1" xmlns:inkscape="http://www.inkscape.org/namespaces/inkscape"
	 xmlns="http://www.w3.org/2000/svg" xmlns:xlink="http://www.w3.org/1999/xlink" x="0px" y="0px" viewBox="0 0 70 32"
	 style="enable-background:new 0 0 70 32;" xml:space="preserve">
<style type="text/css">
	.st0{fill:#070707;}
</style>
<g>
	<path class="st0" d="M17.6,6.8c6-0.2,9.7-0.4,10.9-0.5l-0.4-5.8c-3,0-6.8,0.2-11.5,0.4C11.9,1.1,7.6,1.3,3.8,1.4l0.1,5.8
		C7,7.2,11.5,7,17.6,6.8z"/>
	<path class="st0" d="M25.6,25.3h-0.5c-0.9,0-1.3-0.6-1.3-1.7l-0.1-6.8c2.8-0.1,5.7-0.3,8.9-0.6l-0.5-5.3
		c-4.9,0.2-10.4,0.4-16.2,0.6C10,11.7,4.7,11.8,0,11.8l0.1,5.3c2.2,0,4.7,0.1,7.5,0.1C7.3,21.6,5,25.4,0.7,28.6l6,2.9
		c3.9-2.7,6.2-7.5,6.8-14.4h0.2c0.6,0,2.1,0,4.2-0.1c0.1,5.2,0.2,8.4,0.4,9.8c0.3,3,2.1,4.6,5.2,4.6h0.6c3.8,0,6.6-0.5,8.5-1.4
		l0-6.2C29.9,24.8,27.5,25.3,25.6,25.3z"/>
	<path class="st0" d="M44,8.7l0.1,4.7c12.8-0.1,20.4-0.2,23-0.3l-0.2-4.9c-2.3,0-5.9,0.1-10.7,0.2s-8.4,0.1-10.8,0.1h-1.3
		c0.3-0.5,0.5-1,0.6-1.5c15.5-0.3,23.7-0.5,24.7-0.6l-0.3-4.9C66.5,1.6,63,1.7,58.5,1.8C52.8,1.9,48.6,2,46.1,2.1
		c0.1-0.4,0.2-1,0.3-1.7L41.3,0c-0.9,4.4-2.8,8.1-5.6,11.1l5.6,2.6C42.4,12.1,43.3,10.5,44,8.7z"/>
	<path class="st0" d="M66.3,25.1h-0.1c-0.4-0.1-0.7-0.3-0.9-0.6s-0.2-0.9-0.2-1.7l0.1-3.9v-0.9c0-2.1-0.7-3.1-2-3.3
		c-0.7,0-1.6-0.1-2.4-0.1c-1.3,0-3.7,0-7.2,0.1l-16.1,0.3l0.1,5.2c6-0.3,11-0.5,15.2-0.6c-1.3,1.2-2.6,2.3-4.1,3.2
		c-2.4-0.9-4.7-1.7-6.9-2.3L38,24.5c1.3,0.4,2.5,0.9,3.7,1.3c-1.6,0.5-3.4,0.9-5.4,1.3l2.9,4.7c3.5-0.8,6.7-1.9,9.4-3.2
		c2.5,1.1,4.8,2.3,6.8,3.5l4.2-4.4c-1.9-0.9-3.7-1.7-5.5-2.4c1.5-1.1,2.9-2.4,4.2-3.9l-4.6-1.5c1.2,0,2.3,0,3.3,0c0.8,0,1.3,0,1.6,0
		c1,0.1,1.5,0.7,1.5,1.7v3.2c0,1,0.1,2.1,0.4,3.5s0.8,2.2,1.6,2.7s1.6,0.7,2.4,0.7c1.5,0,3.4-0.6,5.5-1.7l-0.4-6.7
		C68.3,24.5,67.2,25.1,66.3,25.1z"/>
</g>
</svg>
