<?xml version="1.0" encoding="utf-8"?>
<!-- Generator: Adobe Illustrator 27.9.1, SVG Export Plug-In . SVG Version: 6.00 Build 0)  -->
<svg version="1.1" id="Layer_1" xmlns:inkscape="http://www.inkscape.org/namespaces/inkscape"
	 xmlns="http://www.w3.org/2000/svg" xmlns:xlink="http://www.w3.org/1999/xlink" x="0px" y="0px" viewBox="0 0 143.7 31.7"
	 style="enable-background:new 0 0 143.7 31.7;" xml:space="preserve">
<style type="text/css">
	.st0{fill:#070707;}
</style>
<g>
	<path class="st0" d="M10.4,4.4C9.7,3.9,8.8,3.6,7.6,3.6c-1.3,0-2.3,0.1-3,0.3l-0.2-1L0,3.7c0.2,0.8,0.3,3.7,0.3,8.6
		c0,4.1,0,8.7-0.1,13.8l11.2-0.4c0.2-5.4,0.3-9.9,0.3-13.4c0-1.4,0-3.2-0.1-5.3C11.5,5.9,11.1,5,10.4,4.4z M6.9,20.9L4.8,21l0-12.1
		c0.4-0.2,0.7-0.3,1.1-0.3c0.4,0,0.8,0.3,0.9,0.9c0.2,0.4,0.3,1,0.3,1.9L6.9,20.9z"/>
	<path class="st0" d="M28.3,25l0-2.4c2.7-0.1,4.4-0.1,5.1-0.2l-0.3-4.8l-4.8,0.1v-2.3c2.7,0,4.5-0.1,5.1-0.2l-0.3-4.9
		c-0.9,0-2.5,0-4.8,0.1V8.2l5.3-0.2l-0.2-4.6c-1.2,0-2.7,0-4.4,0c-0.1-1.2-0.6-2.2-1.4-3.2l-4.9,0.8c0.5,0.5,0.9,1.2,1.3,2.3
		c-1.3,0-2.5,0-3.6,0.1C20.4,3,20.7,2.1,21,0.9L16,0.1c-0.6,4.1-2.1,7.3-4.3,9.7l1.5,5.8c0.6-0.3,1.1-0.8,1.4-1.5
		c0,7.5-0.1,13.2-0.3,17.1l5.6,0.1v-1.1c2.4-0.1,5.1-0.2,8.1-0.3c3-0.1,5-0.2,6.1-0.3l-0.4-4.8C32.7,24.8,30.9,24.9,28.3,25z
		 M23.3,25.2c-0.2,0.1-1.2,0.2-3.2,0.2v-2.5l3.3-0.2L23.3,25.2z M23.4,17.8L20,18l0-2.3c1-0.1,2.2-0.1,3.5-0.2L23.4,17.8z
		 M23.5,10.5c-0.7,0-1.9,0.1-3.6,0.2l-0.1-2.2c2.2-0.1,3.5-0.1,3.7-0.2V10.5z"/>
	<path class="st0" d="M53.8,12.7c-7,0.2-12.5,0.3-16.5,0.3l0.1,5.4c3.6,0,8.9-0.1,15.9-0.3c9.7-0.1,15.3-0.3,16.7-0.3l-0.4-5.4
		C66,12.4,60.7,12.5,53.8,12.7z"/>
	<path class="st0" d="M92.4,25.3v0.6c0,1.5,0.1,3.2,0.2,5.2l5.5-0.1c0-1.9-0.2-3.9-0.5-6L92.4,25.3z"/>
	<path class="st0" d="M100.2,25.3c1.1,2,1.8,4,2.2,6.1l5.6-0.9c-0.6-2.5-1.6-4.6-2.7-6.2L100.2,25.3z"/>
	<path class="st0" d="M107.9,18.5l-3.8,0.1l0-3.7l2.5,0v-4.8l-2.5,0.1l0-3.6l3.4-0.2V1.4L84.6,2.2C84.8,1.5,85,1,85.1,0.5l-5-0.5
		c-0.3,1.1-1.1,2.3-2.2,3.6c-1.1,1.3-2.4,2.5-4.1,3.5l2.3,3.6c1.6-0.8,2.9-1.8,3.8-3.2l0,3.1h-2.7l0,0l0.1,4.8l2.5,0v3.6l-5.6,0.1
		l0.1,4.7l33.6-0.7L107.9,18.5z M86.8,19h-2.6l0-3.6l2.7,0L86.8,19z M86.9,10.5l-2.8,0.1V7l2.9-0.1L86.9,10.5z M93.6,18.9l-2.4,0
		l0-3.7l2.4-0.1L93.6,18.9z M93.7,10.4h-2.6V6.8l2.6,0L93.7,10.4z M99.8,18.7l-2.3,0l0-3.7l2.3-0.1V18.7z M99.9,10.3l-2.4,0V6.7
		l2.4-0.1L99.9,10.3z"/>
	<path class="st0" d="M74.4,30.3l5.3,1.4c0.9-2.5,1.5-4.6,1.6-6.4L76.5,25C76.3,26.6,75.6,28.4,74.4,30.3z"/>
	<path class="st0" d="M83.6,30.9l5.5,0.2c0.2-1.9,0.3-3.9,0.3-5.9l-5.2,0C84,26.8,83.8,28.7,83.6,30.9z"/>
	<path class="st0" d="M128.4,21.9c-6.6,0.2-11.7,0.3-15.4,0.3l0.2,5.9c3.3,0,8.8-0.2,16.5-0.4c8-0.1,12.7-0.3,14-0.3l-0.4-5.9
		C140,21.5,135,21.7,128.4,21.9z"/>
	<path class="st0" d="M128.5,9.5c7-0.2,11.2-0.3,12.4-0.4l-0.4-6.1c-3.1,0.1-7.3,0.2-12.6,0.4s-9.7,0.3-13.2,0.3l0.1,6
		C117.9,9.8,122.5,9.7,128.5,9.5z"/>
</g>
</svg>
