<?xml version="1.0" encoding="utf-8"?>
<!-- Generator: Adobe Illustrator 27.9.1, SVG Export Plug-In . SVG Version: 6.00 Build 0)  -->
<svg version="1.1" id="Layer_1" xmlns="http://www.w3.org/2000/svg" xmlns:xlink="http://www.w3.org/1999/xlink" x="0px" y="0px"
	 viewBox="0 0 298.3 35.6" style="enable-background:new 0 0 298.3 35.6;" xml:space="preserve">
<style type="text/css">
	.st0{fill:#282828;}
</style>
<path class="st0" d="M250,0l3.7,0.4c-0.5,3.6-1.1,6.9-2,9.9c-0.9,3-2.1,5.6-3.6,7.9c-1.5,2.3-3.4,4.3-5.6,6c-0.1-0.3-0.3-0.6-0.6-1
	c-0.3-0.4-0.6-0.8-0.9-1.2c-0.3-0.4-0.6-0.7-0.9-1c2.1-1.4,3.8-3.1,5.1-5.1c1.3-2,2.4-4.4,3.2-7C249.1,6.2,249.7,3.2,250,0z M133,0
	l3.7,0.7c-0.5,2.1-1.1,4.1-1.8,6.1c-0.7,2-1.5,3.8-2.4,5.5c-0.9,1.7-1.8,3.2-2.9,4.4c-0.2-0.2-0.5-0.4-0.9-0.7
	c-0.4-0.3-0.8-0.6-1.2-0.9c-0.4-0.3-0.7-0.5-1-0.7c1-1.1,1.9-2.4,2.8-4c0.8-1.5,1.5-3.2,2.1-5C132.1,3.8,132.6,1.9,133,0z
	 M166.7,0.1l2.5,2.4c-1.1,0.3-2.2,0.6-3.6,0.8c-1.3,0.3-2.6,0.5-4,0.6c-1.4,0.2-2.7,0.3-3.9,0.3c-0.1-0.3-0.2-0.7-0.3-1.2
	c-0.2-0.5-0.4-0.9-0.6-1.2c1.2-0.1,2.4-0.3,3.6-0.4c1.2-0.2,2.4-0.4,3.5-0.6S165.9,0.3,166.7,0.1z M121.2,0.1h3.8v35.5h-3.8V0.1z
	 M43.9,0.1h4v8.8h-4V0.1z M22.7,0.1h3.9V14h-3.9V0.1z M183.1,0.1l2.5,2.4c-1.1,0.3-2.4,0.6-3.8,0.9c-1.4,0.2-2.8,0.4-4.3,0.6
	c-1.5,0.2-2.9,0.3-4.2,0.3c-0.1-0.4-0.2-0.8-0.4-1.3c-0.2-0.5-0.4-0.9-0.5-1.3c1.3-0.1,2.6-0.2,3.9-0.4c1.3-0.2,2.6-0.4,3.8-0.6
	C181.3,0.6,182.3,0.4,183.1,0.1z M61.1,0.1H65v35.4h-3.9V0.1z M5.5,0.2h3.6v35.2H5.5V0.2z M258,0.4l3.8,1.1c-0.5,1-1.1,2-1.6,2.9
	c-0.6,1-1.1,1.8-1.6,2.5l-3.1-1c0.3-0.5,0.6-1.1,0.9-1.7c0.3-0.6,0.6-1.3,0.9-2C257.6,1.5,257.8,1,258,0.4z M242.9,1.7l3.1-1.1
	c0.5,0.8,0.9,1.6,1.3,2.6c0.4,0.9,0.7,1.7,0.9,2.4l-3.3,1.2c-0.1-0.7-0.4-1.6-0.8-2.5C243.7,3.3,243.3,2.5,242.9,1.7z M155.7,1
	l4.4,1.1c0,0.3-0.3,0.5-0.9,0.6v2c0,1-0.1,2.1-0.3,3.3c-0.2,1.2-0.6,2.5-1.2,3.7c-0.6,1.2-1.4,2.4-2.6,3.4c-0.2-0.3-0.4-0.6-0.7-0.9
	c-0.3-0.3-0.6-0.7-1-1c-0.3-0.3-0.7-0.5-0.9-0.7c0.9-0.8,1.6-1.7,2.1-2.7c0.4-0.9,0.7-1.9,0.9-2.8c0.2-0.9,0.2-1.8,0.2-2.7V1z
	 M171.4,1l4.4,1c0,0.3-0.3,0.5-0.8,0.6v2c0,0.9-0.1,1.9-0.4,2.9c-0.3,1.1-0.7,2.1-1.4,3.2c-0.7,1.1-1.7,2-3,2.9
	c-0.2-0.3-0.4-0.6-0.7-0.9c-0.3-0.4-0.6-0.7-0.9-1c-0.3-0.3-0.6-0.6-0.9-0.7c1.1-0.7,1.9-1.4,2.4-2.1c0.5-0.7,0.9-1.5,1-2.2
	c0.2-0.8,0.3-1.5,0.3-2.2V1z M237.3,1.4h3.6v29.8c0,0.9-0.1,1.6-0.3,2.2c-0.2,0.6-0.5,1-1.1,1.3c-0.5,0.3-1.2,0.5-1.9,0.6
	c-0.8,0.1-1.7,0.1-2.9,0.1c-0.1-0.5-0.2-1.1-0.4-1.8c-0.2-0.7-0.4-1.4-0.7-1.9c0.6,0,1.2,0,1.8,0.1c0.6,0,1,0,1.2,0
	c0.2,0,0.4-0.1,0.5-0.2c0.1-0.1,0.1-0.3,0.1-0.5V1.4z M232.2,1.4h7.5v3.7h-7.5V1.4z M230.5,1.4h3.5v13.8c0,1.5,0,3.1-0.1,4.9
	c-0.1,1.8-0.2,3.6-0.4,5.4c-0.2,1.8-0.4,3.6-0.8,5.3c-0.3,1.7-0.8,3.3-1.4,4.7c-0.2-0.2-0.5-0.4-0.9-0.6c-0.4-0.2-0.8-0.4-1.2-0.6
	c-0.4-0.2-0.7-0.4-1-0.5c0.5-1.3,1-2.8,1.3-4.3c0.3-1.6,0.5-3.2,0.7-4.8c0.2-1.7,0.3-3.3,0.3-4.9c0.1-1.6,0.1-3.1,0.1-4.5V1.4z
	 M116.2,2.2l3.4,0.5c-0.2,1.7-0.4,3.4-0.6,5.1c-0.3,1.7-0.6,3.2-0.9,4.7c-0.4,1.5-0.8,2.8-1.3,3.9c-0.2-0.2-0.5-0.4-0.8-0.6
	c-0.4-0.2-0.7-0.5-1.1-0.7s-0.7-0.4-1-0.6c0.5-1,0.8-2.2,1.1-3.6c0.3-1.4,0.5-2.8,0.7-4.3C116,5.2,116.1,3.7,116.2,2.2z M11.2,2.2
	L14.4,3c-0.3,1-0.6,2-1,3c-0.3,1.1-0.7,2.1-1,3.1c-0.3,1-0.6,1.8-0.9,2.6l-2.5-0.7c0.3-0.8,0.6-1.7,0.8-2.7c0.3-1,0.5-2.1,0.7-3.1
	C10.9,4.1,11,3.1,11.2,2.2z M0.6,3.1l2.7-0.7C3.7,3.3,4,4.3,4.3,5.3c0.3,1,0.5,2,0.7,3c0.2,1,0.3,1.9,0.4,2.6l-2.9,0.7
	C2.4,10.9,2.3,10,2.1,9C2,8.1,1.7,7,1.5,6C1.2,5,1,4,0.6,3.1z M85.6,3c-0.1,0.3-0.2,0.6-0.3,1c-0.1,0.4-0.2,0.8-0.3,1.2
	c-0.1,0.4-0.2,0.7-0.2,1c-0.1,0.6-0.3,1.3-0.4,2.3c-0.2,0.9-0.3,2-0.5,3.1c-0.2,1.1-0.3,2.3-0.5,3.4c-0.1,1.2-0.3,2.3-0.3,3.3
	C83,19.3,83,20.2,83,21c0,0.5,0,1,0.1,1.6c0,0.6,0.1,1.1,0.2,1.7c0.2-0.5,0.4-1,0.6-1.5c0.2-0.5,0.4-1,0.6-1.5
	c0.2-0.5,0.4-1,0.6-1.4l2.1,1.7c-0.3,1-0.7,2-1.1,3.2c-0.4,1.1-0.7,2.2-1,3.2c-0.3,1-0.5,1.8-0.7,2.5c-0.1,0.3-0.1,0.6-0.1,0.9
	c0,0.3-0.1,0.6-0.1,0.9c0,0.2,0,0.4,0,0.7c0,0.3,0,0.5,0,0.8L80.4,34c-0.4-1.3-0.7-3.1-1-5.1c-0.3-2.1-0.5-4.4-0.5-7
	c0-1.4,0.1-2.9,0.2-4.4c0.1-1.5,0.3-3,0.5-4.5c0.2-1.5,0.4-2.8,0.5-4c0.2-1.2,0.3-2.2,0.4-2.9c0.1-0.5,0.1-1.1,0.2-1.7
	c0.1-0.6,0.1-1.2,0.1-1.7L85.6,3z M104.2,2.6c-0.1,0.4-0.1,0.7-0.1,1.2c0,0.4-0.1,0.8-0.1,1.2c0,0.4-0.1,1-0.1,1.7
	c0,0.7,0,1.5,0,2.3s0,1.7,0,2.5c0,1.6,0,3.2,0.1,4.7c0.1,1.5,0.1,2.9,0.2,4.2c0.1,1.3,0.1,2.5,0.2,3.6c0.1,1.1,0.1,2.1,0.1,3.1
	c0,0.9-0.1,1.8-0.4,2.6c-0.3,0.8-0.7,1.5-1.2,2.1c-0.6,0.6-1.3,1.1-2.2,1.4c-0.9,0.3-2.1,0.5-3.4,0.5c-2.6,0-4.6-0.5-6.1-1.6
	c-1.5-1-2.2-2.5-2.2-4.4c0-1.2,0.3-2.3,1-3.3c0.7-1,1.6-1.7,2.9-2.2c1.2-0.5,2.7-0.8,4.4-0.8c1.7,0,3.3,0.2,4.8,0.6
	c1.4,0.4,2.8,0.9,4,1.5c1.2,0.6,2.3,1.3,3.2,2c1,0.7,1.8,1.4,2.6,2.1l-2.3,3.6c-1.4-1.3-2.8-2.5-4.2-3.5c-1.4-1-2.7-1.7-4.1-2.3
	c-1.4-0.5-2.8-0.8-4.3-0.8c-1.2,0-2.2,0.2-2.9,0.7c-0.7,0.5-1.1,1.1-1.1,1.9c0,0.8,0.4,1.4,1.1,1.8c0.7,0.4,1.7,0.6,2.8,0.6
	c0.9,0,1.5-0.1,2-0.4c0.5-0.3,0.8-0.7,1-1.3c0.2-0.5,0.3-1.2,0.3-2c0-0.7,0-1.5-0.1-2.6c-0.1-1.1-0.1-2.3-0.2-3.6
	c-0.1-1.3-0.1-2.7-0.2-4.1c-0.1-1.4-0.1-2.8-0.1-4.2c0-1.4,0-2.7,0-3.9c0-1.2,0-2,0-2.6c0-0.3,0-0.7-0.1-1.2
	c-0.1-0.5-0.1-0.9-0.2-1.3H104.2z M200,3.3c-0.1,0.2-0.2,0.6-0.3,1c-0.1,0.4-0.2,0.8-0.3,1.2c-0.1,0.4-0.2,0.7-0.2,1
	c-0.1,0.6-0.2,1.3-0.4,2.1c-0.2,0.9-0.3,1.8-0.5,2.9c-0.2,1.1-0.3,2.1-0.5,3.2c-0.1,1.1-0.3,2.1-0.4,3.2c-0.1,1-0.2,1.9-0.2,2.7
	c0,0.5,0,1.1,0.1,1.6c0,0.6,0.1,1.1,0.1,1.6c0.2-0.5,0.4-0.9,0.6-1.4c0.2-0.5,0.4-1,0.6-1.5c0.2-0.5,0.4-1,0.6-1.4l2.2,1.7
	c-0.4,1-0.7,2.1-1.1,3.3c-0.4,1.2-0.7,2.3-1,3.3c-0.3,1-0.5,1.9-0.7,2.5c-0.1,0.3-0.1,0.6-0.1,1c0,0.4-0.1,0.6-0.1,0.8
	c0,0.2,0,0.4,0,0.7c0,0.3,0,0.5,0.1,0.8l-3.9,0.3c-0.4-1.3-0.7-3.1-1-5.2c-0.3-2.2-0.5-4.5-0.5-7.1c0-1.4,0.1-2.9,0.2-4.3
	c0.1-1.5,0.3-2.9,0.5-4.2c0.2-1.4,0.4-2.6,0.5-3.7c0.2-1.1,0.3-2.1,0.5-2.8c0.1-0.5,0.1-1.1,0.2-1.7c0.1-0.6,0.1-1.2,0.2-1.7
	L200,3.3z M273.7,3.5c0.5,0.1,1.1,0.1,1.6,0.1c0.6,0,1.1,0.1,1.6,0.1c0.4,0,1,0,1.9,0c0.8,0,1.8-0.1,2.8-0.1c1,0,2.1-0.1,3.1-0.1
	c1.1,0,2-0.1,2.8-0.1c0.8-0.1,1.5-0.1,1.9-0.1c0.7-0.1,1.3-0.1,1.7-0.2c0.4-0.1,0.7-0.1,1-0.2l2.2,3.1c-0.4,0.3-0.8,0.5-1.3,0.8
	c-0.4,0.3-0.8,0.6-1.3,0.9c-0.5,0.4-1.1,0.8-1.9,1.4c-0.7,0.6-1.5,1.2-2.4,1.9c-0.8,0.7-1.7,1.4-2.5,2c-0.8,0.7-1.5,1.3-2.2,1.8
	c0.7-0.2,1.4-0.4,2.1-0.4c0.7-0.1,1.3-0.1,2-0.1c2.1,0,4,0.4,5.7,1.2c1.7,0.8,3,1.9,4,3.3c1,1.4,1.5,3,1.5,4.8c0,2-0.5,3.8-1.5,5.4
	c-1,1.6-2.5,2.9-4.6,3.8c-2,0.9-4.5,1.4-7.5,1.4c-1.7,0-3.3-0.2-4.7-0.7c-1.4-0.5-2.4-1.2-3.2-2.1c-0.8-0.9-1.2-2-1.2-3.2
	c0-1,0.3-1.9,0.8-2.8c0.5-0.9,1.3-1.6,2.3-2.1c1-0.5,2.1-0.8,3.4-0.8c1.7,0,3.2,0.3,4.4,1c1.2,0.7,2.1,1.6,2.7,2.8
	c0.6,1.2,1,2.4,1,3.8l-4,0.6c-0.1-1.4-0.4-2.6-1.2-3.5c-0.7-0.9-1.7-1.4-3-1.4c-0.8,0-1.4,0.2-1.8,0.6c-0.5,0.4-0.7,0.9-0.7,1.4
	c0,0.8,0.4,1.4,1.2,1.8c0.8,0.5,1.8,0.7,3.1,0.7c2.1,0,3.9-0.3,5.4-0.8c1.5-0.5,2.6-1.3,3.4-2.3c0.8-1,1.1-2.2,1.1-3.6
	c0-1.2-0.4-2.2-1.1-3.1c-0.7-0.9-1.7-1.6-2.9-2.1c-1.2-0.5-2.6-0.8-4.1-0.8c-1.5,0-2.9,0.2-4.1,0.6c-1.2,0.4-2.4,0.9-3.5,1.5
	c-1.1,0.7-2.1,1.5-3.2,2.4s-2.1,2-3.2,3.2l-3.1-3.2c0.7-0.6,1.5-1.2,2.4-1.9c0.9-0.7,1.8-1.5,2.7-2.2c0.9-0.8,1.8-1.5,2.6-2.2
	c0.8-0.7,1.5-1.3,2.1-1.7c0.5-0.4,1.2-0.9,1.9-1.6c0.7-0.6,1.5-1.2,2.3-1.9c0.8-0.7,1.5-1.3,2.2-1.9c0.7-0.6,1.3-1.1,1.7-1.5
	c-0.4,0-0.9,0-1.6,0.1c-0.7,0-1.4,0.1-2.2,0.1c-0.8,0-1.6,0.1-2.4,0.1c-0.8,0-1.5,0.1-2.2,0.1c-0.7,0-1.2,0.1-1.6,0.1
	c-0.5,0-1,0.1-1.5,0.1c-0.5,0-1,0.1-1.4,0.2L273.7,3.5z M15.1,2.9h19.7v2.9H15.1V2.9z M172.9,5.7h14.3v3h-14.3V5.7z M157.3,5.7H170
	v3h-12.7V5.7z M206.3,5.9c1.1,0.2,2.4,0.3,3.9,0.4c1.4,0.1,2.9,0.1,4.4,0.1c1.5,0,2.9-0.1,4.3-0.2c1.4-0.1,2.6-0.2,3.6-0.3v4.4
	c-1.1,0.1-2.4,0.2-3.8,0.2c-1.4,0.1-2.8,0.1-4.3,0.1c-1.5,0-2.9,0-4.3-0.1c-1.4-0.1-2.7-0.1-3.8-0.2L206.3,5.9z M145.8,6.1h3.8
	c0,0.5,0,0.9,0,1.2s0,0.5,0,0.7c-0.2,4.3-0.4,7.9-0.6,10.9c-0.2,3-0.4,5.5-0.6,7.4c-0.2,1.9-0.5,3.4-0.7,4.5c-0.3,1.1-0.6,1.9-1,2.4
	c-0.4,0.6-0.9,1-1.3,1.3c-0.4,0.3-1,0.4-1.6,0.5c-0.5,0.1-1.2,0.2-1.9,0.2c-0.8,0-1.6,0-2.4-0.1c-0.1-0.6-0.2-1.3-0.4-2
	c-0.2-0.8-0.5-1.4-0.8-2c0.8,0.1,1.5,0.1,2.1,0.1c0.6,0,1.1,0,1.5,0c0.3,0,0.6-0.1,0.8-0.2c0.2-0.1,0.4-0.3,0.6-0.5
	c0.3-0.3,0.5-1,0.8-2c0.2-1,0.5-2.4,0.7-4.2c0.2-1.8,0.4-4.2,0.6-7c0.2-2.8,0.4-6.3,0.5-10.4V6.1z M133.7,6.1h13.8v3.8h-15.7
	L133.7,6.1z M53.2,6.6h20v19.7h-3.9V10.2H56.9v16.3h-3.7V6.6z M242.4,6.7H263V10h-20.6V6.7z M178.5,6.7h3.6v6.2h-3.6V6.7z
	 M162.6,6.7h3.6v6.2h-3.6V6.7z M49,7.1h0.8L50.5,7l2.2,1.4c-0.9,2.4-2,4.7-3.4,6.9c-1.4,2.2-2.9,4.2-4.6,6c-1.7,1.8-3.4,3.3-5.1,4.5
	c-0.1-0.4-0.3-0.8-0.5-1.3c-0.2-0.5-0.5-1-0.7-1.4c-0.2-0.5-0.5-0.8-0.7-1.1c1.6-1,3.1-2.2,4.6-3.7c1.5-1.5,2.8-3.1,4-5
	c1.2-1.8,2.1-3.6,2.7-5.5V7.1z M39.1,7.1h11.4v3.7H39.1V7.1z M136.7,7.3l3,1.5c-0.5,2.2-1.2,4.4-2.1,6.7c-0.9,2.3-2,4.4-3.2,6.4
	c-1.2,2-2.5,3.6-3.9,4.9c-0.4-0.4-0.9-0.8-1.4-1.2c-0.6-0.4-1.2-0.8-1.7-1.1c1.1-0.9,2.2-2,3.1-3.2c1-1.3,1.9-2.7,2.7-4.2
	c0.8-1.5,1.5-3.1,2.1-4.8C135.9,10.6,136.3,8.9,136.7,7.3z M117.1,7.5h11.2v3.9h-12L117.1,7.5z M16.1,7.6H34v2.8H16.1V7.6z M142,7.7
	l3.2,1.5c-0.5,2.5-1.1,5-1.8,7.4c-0.7,2.5-1.6,4.9-2.6,7.1c-1,2.3-2.2,4.3-3.5,6.2c-1.3,1.9-2.8,3.5-4.4,4.8
	c-0.4-0.4-0.9-0.8-1.5-1.3c-0.6-0.5-1.2-0.8-1.8-1.1c1.7-1.2,3.2-2.7,4.5-4.4c1.3-1.8,2.5-3.7,3.5-5.9c1-2.2,1.9-4.5,2.6-6.9
	C141,12.6,141.6,10.1,142,7.7z M90.1,9.1c1.1,0.1,2.2,0.2,3.3,0.2c1.1,0.1,2.2,0.1,3.3,0.1c2.3,0,4.6-0.1,6.9-0.3
	c2.3-0.2,4.4-0.5,6.4-0.9v4.3c-2,0.3-4.1,0.5-6.4,0.7c-2.3,0.2-4.6,0.2-6.8,0.3c-1.1,0-2.2,0-3.3-0.1c-1.1-0.1-2.2-0.1-3.3-0.2
	L90.1,9.1z M256.9,8.4c0.4,1.7,1,3.4,1.7,5c0.7,1.6,1.6,3.1,2.6,4.4c1,1.3,2.2,2.3,3.4,3.1c-0.4,0.4-0.9,0.8-1.4,1.5
	c-0.5,0.6-0.9,1.2-1.2,1.7c-1.4-1-2.7-2.2-3.7-3.8c-1.1-1.5-2-3.2-2.8-5.1c-0.8-1.9-1.4-3.9-1.9-6.1L256.9,8.4z M232,10.1h7v3.7h-7
	V10.1z M14.1,12.3h21.7v3H14.1V12.3z M0.5,12.7H13v3.8H0.5V12.7z M241.6,12.9h22v3.3h-22V12.9z M157.7,13.6h25.3v15.6h-25.3V13.6z
	 M55.2,14h16v3.5h-16V14z M5.5,14.7l2.3,1.1c-0.3,1.3-0.7,2.6-1.1,4c-0.4,1.4-0.9,2.8-1.4,4.2c-0.5,1.4-1,2.7-1.6,3.9
	c-0.6,1.2-1.2,2.3-1.8,3.2c-0.1-0.5-0.3-0.9-0.5-1.4c-0.2-0.5-0.5-1-0.7-1.5C0.4,27.8,0.2,27.4,0,27c0.7-0.9,1.5-2.1,2.2-3.5
	C2.9,22,3.5,20.6,4.1,19C4.7,17.5,5.1,16.1,5.5,14.7z M43.9,19.6l4-4.8v20.6h-4V19.6z M48.2,15.9c0.3,0.2,0.6,0.5,1.1,0.9
	s1,0.9,1.6,1.3c0.6,0.5,1.1,0.9,1.5,1.3c0.5,0.4,0.8,0.7,1,0.9L51,23.7c-0.3-0.4-0.6-0.8-1.1-1.3c-0.4-0.5-0.9-1.1-1.4-1.6
	c-0.5-0.6-1-1.1-1.4-1.6c-0.5-0.5-0.9-0.9-1.2-1.2L48.2,15.9z M161.7,16.1V18H179v-1.9H161.7z M114.3,20.9c1.2-0.3,2.6-0.6,4.2-1
	c1.6-0.4,3.2-0.9,5-1.4c1.7-0.5,3.5-1,5.2-1.5l0.5,3.6c-2.4,0.8-4.8,1.5-7.3,2.3c-2.5,0.7-4.7,1.4-6.7,2L114.3,20.9z M9.2,16.9
	c0.2,0.3,0.6,0.7,1,1.3c0.5,0.6,1,1.3,1.5,2c0.5,0.7,1,1.4,1.5,2.1c0.5,0.6,0.8,1.1,0.9,1.4l-2.6,3.2c-0.2-0.6-0.5-1.2-0.9-2
	c-0.4-0.7-0.8-1.5-1.2-2.4c-0.4-0.8-0.8-1.6-1.3-2.3c-0.4-0.7-0.7-1.3-1-1.8L9.2,16.9z M29.7,17.1h3.8v14.7c0,0.9-0.1,1.6-0.3,2.1
	C33,34.3,32.6,34.7,32,35c-0.6,0.3-1.4,0.4-2.2,0.5c-0.9,0.1-1.9,0.1-3.2,0.1c-0.1-0.5-0.2-1-0.4-1.6c-0.2-0.6-0.4-1.2-0.6-1.6
	c0.7,0,1.4,0,2.1,0.1c0.7,0,1.2,0,1.4,0c0.3,0,0.4,0,0.5-0.1c0.1-0.1,0.1-0.2,0.1-0.4V17.1z M16.2,17.1h14.5V20H20v15.5h-3.8V17.1z
	 M249.7,18.1h3.7c-0.1,2.1-0.3,4-0.6,5.8c-0.3,1.8-0.8,3.4-1.4,4.9c-0.7,1.5-1.6,2.8-2.8,3.9c-1.2,1.1-2.8,2.1-4.7,3
	c-0.2-0.5-0.6-1-1-1.7c-0.4-0.6-0.9-1.1-1.3-1.5c1.7-0.7,3.1-1.5,4.2-2.4c1-0.9,1.8-2,2.4-3.2c0.5-1.2,0.9-2.5,1.2-4
	C249.5,21.4,249.6,19.8,249.7,18.1z M232,19.1h7v3.8h-7V19.1z M161.7,20.4v1.9H179v-1.9H161.7z M55.2,21.3h16.7V25H55.2V21.3z
	 M208.8,21.9c-0.2,0.7-0.3,1.2-0.3,1.7c-0.1,0.5-0.1,1-0.1,1.5c0,0.4,0.1,0.8,0.3,1.2c0.2,0.4,0.5,0.7,0.9,0.9
	c0.4,0.3,1,0.5,1.7,0.6c0.7,0.1,1.6,0.2,2.7,0.2c1.7,0,3.3-0.1,4.8-0.2c1.5-0.2,3.1-0.4,4.7-0.8l0.1,4.6c-1.2,0.3-2.6,0.4-4.2,0.6
	c-1.6,0.1-3.4,0.2-5.5,0.2c-3.2,0-5.6-0.5-7.2-1.6c-1.6-1.1-2.3-2.6-2.3-4.5c0-0.7,0.1-1.4,0.2-2.2c0.1-0.8,0.3-1.6,0.5-2.6
	L208.8,21.9z M257,21.7h3.8c0,0.7-0.1,1.2-0.1,1.4c-0.1,2.3-0.3,4.2-0.4,5.7c-0.2,1.5-0.3,2.6-0.5,3.4c-0.2,0.8-0.5,1.4-0.8,1.8
	c-0.4,0.4-0.7,0.7-1.1,0.9c-0.4,0.2-0.9,0.3-1.4,0.4c-0.5,0.1-1.1,0.1-1.8,0.1c-0.8,0-1.5,0-2.4-0.1c0-0.5-0.1-1.1-0.3-1.7
	c-0.2-0.6-0.4-1.2-0.7-1.7c0.7,0.1,1.4,0.1,2,0.1c0.6,0,1,0,1.3,0c0.3,0,0.5,0,0.7-0.1c0.2,0,0.3-0.1,0.5-0.3
	c0.2-0.2,0.4-0.6,0.5-1.3c0.1-0.7,0.3-1.7,0.4-3c0.1-1.3,0.2-3,0.3-5.1V21.7z M244.2,21.7h13.9v3.3h-13.9V21.7z M18.3,22.1H31v2.7
	H18.3V22.1z M161.7,24.7v2H179v-2H161.7z M18.3,26.9H31v2.7H18.3V26.9z M164,29.1l3.7,1.7c-1,0.6-2.2,1.3-3.6,1.9
	c-1.4,0.6-2.7,1.2-4.2,1.7c-1.4,0.5-2.8,0.9-4.1,1.3c-0.3-0.3-0.6-0.6-0.9-1c-0.4-0.4-0.7-0.8-1.1-1.1c-0.4-0.4-0.7-0.7-1-0.9
	c1.3-0.3,2.7-0.6,4.1-0.9c1.4-0.4,2.7-0.8,3.9-1.2C162.1,30.1,163.2,29.6,164,29.1z M172.6,31.2l3.4-1.9c1.4,0.5,2.8,1,4.2,1.5
	c1.4,0.5,2.7,1.1,4,1.6c1.3,0.5,2.4,1,3.2,1.4l-4.7,1.9c-0.7-0.4-1.6-0.9-2.7-1.4c-1.1-0.5-2.2-1-3.5-1.6
	C175.2,32.1,173.9,31.6,172.6,31.2z"/>
</svg>
