<?xml version="1.0" encoding="utf-8"?>
<!-- Generator: Adobe Illustrator 27.9.1, SVG Export Plug-In . SVG Version: 6.00 Build 0)  -->
<svg version="1.1" id="Layer_1" xmlns:inkscape="http://www.inkscape.org/namespaces/inkscape"
	 xmlns="http://www.w3.org/2000/svg" xmlns:xlink="http://www.w3.org/1999/xlink" x="0px" y="0px" viewBox="0 0 248.2 31"
	 style="enable-background:new 0 0 248.2 31;" xml:space="preserve">
<style type="text/css">
	.st0{fill:#070707;}
</style>
<g>
	<path class="st0" d="M26.4,8.6c0-1.3-0.4-2.4-1.3-3.2c-0.6-0.6-1.8-1.1-3.5-1.4c-0.7-0.2-2.1-0.2-4-0.1c-0.1-1.2-0.3-2.4-0.4-3.7
		L10.6,1c0.2,1.2,0.4,2.3,0.5,3.5C8.4,4.8,5.6,5.3,2.5,5.8l1.1,6c7.9-1.5,13-2.2,15.3-2.2c0.5,0,0.8,0.1,0.8,0.3c0,0.6-1,1.6-3,3
		c-2,1.4-4.6,2.8-7.7,4.3c-3.1,1.5-6.1,2.8-9,3.9l3.5,5.5c3.1-1.4,5.9-2.7,8.4-4c0,2.4,0,5-0.1,7.8l6.5,0c0-4.5,0-8.4-0.1-11.5
		C23.7,15.2,26.4,11.8,26.4,8.6z"/>
	<path class="st0" d="M23.8,15.3l-4.6,3.8c2.4,2.2,4.5,4.5,6.4,6.9l4.4-4C28,19.5,25.9,17.3,23.8,15.3z"/>
	<path class="st0" d="M61.9,3.6c-1.3-1-3.3-1.5-6-1.5c-1.9,0-4.3,0.2-7.2,0.6c0.1-0.4,0.2-0.8,0.4-1.3L42.9,0
		c-2.1,6.7-4.1,12.3-6.1,16.8l6,2c1.2-2.6,2.4-5.8,3.7-9.5c3.4-0.7,6.2-1,8.3-1c0.9,0,1.6,0.1,1.9,0.3c0.4,0.2,0.5,0.6,0.5,1.1
		c0,1.6-1.1,4.4-3.2,8.3c-2.1,4-4.4,7.3-6.7,10l6.2,2.9c3.1-3.9,5.5-8,7.4-12.1c1.9-4.1,2.8-7.6,2.8-10.5
		C63.8,6.3,63.2,4.7,61.9,3.6z"/>
	<path class="st0" d="M93.1,17.1c3.3-3.5,4.9-6.6,4.9-9.4c0-1.9-0.7-3.4-2.1-4.5s-3.2-1.7-5.5-1.7c-1.4,0-3.6,0.2-6.5,0.6
		c-3,0.4-6.1,1-9.4,1.6l1.3,6.3c2.4-0.6,5.1-1.2,8-1.6c2.9-0.5,4.8-0.7,5.8-0.7s1.5,0.3,1.5,0.8c0,0.8-0.8,2.2-2.5,4s-4,3.8-6.8,6
		c-2.8,2.2-5.9,4.3-9,6.3l4.2,5.3c4.6-3.2,8.4-6.1,11.4-8.6c3.4,3.2,6.2,6.1,8.5,8.9l5-4.2C98.8,22.6,95.9,19.6,93.1,17.1z"/>
	<path class="st0" d="M123.4,9.6l-2.2,3.5c0-4.2-0.2-8.4-0.5-12.6L114,0.9c0.7,9.2,0.5,18.9-0.5,29.4l6.8,0.2
		c0.4-5.2,0.7-10.2,0.8-15c3.5,1.8,7.4,4.1,11.7,7l3.4-5.2c-2.3-1.6-4.3-3-6.1-4.1C128.2,12.1,126,10.9,123.4,9.6z"/>
	<path class="st0" d="M163.3,20.9c-3.1,1.4-5.4,2-7,2c-0.6,0-1-0.1-1.2-0.4s-0.3-0.9-0.3-1.7c0-2.7,0.5-8.9,1.4-18.6l-6.7-0.7
		c-1,12.3-1.6,19.5-1.6,21.6s0.6,3.8,1.9,5c1.3,1.2,3.1,1.8,5.5,1.8s5.4-0.7,9.1-2c3.7-1.4,7.2-3.1,10.5-5.3l-3-6.5
		C169.3,17.9,166.4,19.6,163.3,20.9z"/>
	<polygon class="st0" points="206.6,8.9 203.9,4.3 200.9,5.9 203.5,10.7 	"/>
	<path class="st0" d="M199,8.2c-1.2-1.1-2.1-1.8-2.9-2.2c-0.8-0.4-1.7-0.6-2.7-0.6s-2,0.3-3,1s-2.2,1.8-3.6,3.5
		c-1.4,1.6-2.9,3.4-4.3,5.2c-1.5,1.8-2.4,2.9-2.6,3.2l5.1,4.5c1.2-1.5,2.5-3.2,3.9-5.2c1.4-2,2.4-3.3,3-3.9c0.6-0.7,1.1-1,1.5-1
		c0.4,0,0.9,0.3,1.6,0.8c0.7,0.6,1.9,1.9,3.9,3.9s3.9,4.2,5.9,6.5s3.1,3.5,3.4,3.8l4.3-5c-2.8-3.3-5.5-6.3-8-8.9
		C201.9,11.2,200.1,9.3,199,8.2z"/>
	<polygon class="st0" points="211,6.1 207.3,2.7 204.8,4.9 208.5,8.6 	"/>
	<path class="st0" d="M241.8,21.4c-1.4,0.6-2.6,0.9-3.7,0.9c-0.3,0-0.6-0.1-0.7-0.2c-0.1-0.1-0.2-0.3-0.3-0.6
		c-0.1-0.3-0.1-2-0.1-5.1c0-3.1,0.2-7.7,0.7-13.9l-6.3-0.3c-0.5,7.6-0.7,12.6-0.7,15.1c0,2.4,0.1,4.2,0.2,5.4
		c0.2,2.4,0.9,4.1,1.8,4.9s2.5,1.2,4.5,1.2c4.2,0,7.9-1.3,11.1-3.9l-2.2-6.1C244.6,19.9,243.2,20.7,241.8,21.4z"/>
	<path class="st0" d="M216.2,26.4l6,2.6c3.8-6.2,6-13.3,6.6-21.2l-6.2-1C222,14.6,219.8,21.2,216.2,26.4z"/>
</g>
</svg>
