<?xml version="1.0" encoding="utf-8"?>
<!-- Generator: Adobe Illustrator 27.9.1, SVG Export Plug-In . SVG Version: 6.00 Build 0)  -->
<svg version="1.1" id="Layer_1" xmlns="http://www.w3.org/2000/svg" xmlns:xlink="http://www.w3.org/1999/xlink" x="0px" y="0px"
	 viewBox="0 0 73.4 36.1" style="enable-background:new 0 0 73.4 36.1;" xml:space="preserve">
<style type="text/css">
	.st0{fill:#282828;}
</style>
<g>
	<path class="st0" d="M1.4,33.8c0.5,0.6,0.9,1.2,1.1,1.7c2.4-0.9,4.3-2.1,5.7-3.4c1.5-1.3,2.6-2.8,3.4-4.4c0.8-1.6,1.4-3.4,1.7-5.3
		c0.3-1.6,0.5-3.4,0.7-5.1h6.2v12.2c0,1.4,0.1,2.5,0.4,3.2c0.3,0.8,0.8,1.4,1.6,1.7c0.7,0.3,1.8,0.5,3.1,0.5c0.2,0,0.5,0,1,0
		c0.4,0,0.9,0,1.4,0c0.5,0,1,0,1.5,0s0.8,0,1,0c1.2,0,2.2-0.3,2.9-0.8c0.7-0.5,1.2-1.4,1.5-2.7c0.3-1.3,0.6-3,0.7-5.2
		c-0.4-0.1-0.8-0.2-1.3-0.4c-0.5-0.2-0.9-0.4-1.4-0.6c-0.5-0.2-0.8-0.5-1.1-0.7c-0.1,1.9-0.1,3.3-0.2,4.2c-0.1,0.9-0.3,1.6-0.5,1.9
		c-0.2,0.3-0.6,0.5-1,0.5c-0.2,0-0.5,0-0.8,0c-0.4,0-0.7,0-1.2,0s-0.8,0-1.1,0c-0.3,0-0.6,0-0.7,0c-0.7,0-1.1-0.1-1.3-0.3
		c-0.2-0.2-0.3-0.6-0.3-1.3V17.3h10.3v-4H0.7v4h8.9c-0.1,1.4-0.3,2.8-0.5,4.1c-0.3,1.6-0.7,3-1.4,4.4c-0.6,1.3-1.6,2.6-2.8,3.7
		c-1.2,1.1-2.9,2-5,2.8C0.5,32.6,0.9,33.2,1.4,33.8z M5.6,30.2c1.3-1.2,2.3-2.5,3-4c0.7-1.4,1.2-3,1.5-4.6c0.2-1.2,0.4-2.6,0.5-4.2
		l0.1-1.1h-9v-2h31.9v2H23.4v13.2c0,1,0.2,1.6,0.5,2c0.4,0.4,1,0.6,2,0.6h3.9c1,0,1.5-0.5,1.8-0.9c0.3-0.5,0.6-1.2,0.7-2.4
		c0.1-0.6,0.1-1.5,0.2-2.6c0.4,0.2,0.8,0.4,1.3,0.5c0.2,0.1,0.4,0.1,0.5,0.2c-0.1,1.8-0.4,3.2-0.6,4.3c-0.3,1-0.7,1.7-1.2,2.1
		C32,33.8,31.2,34,30.2,34h-4.9c-1.2,0-2.1-0.1-2.7-0.4c-0.5-0.2-0.8-0.6-1-1.1c-0.2-0.7-0.4-1.7-0.4-2.9V16.3h-8.1L13,17.2
		c-0.2,1.9-0.4,3.5-0.7,5c-0.3,1.8-0.9,3.5-1.6,5c-0.7,1.5-1.8,2.9-3.1,4.1c-1.2,1.1-2.7,2-4.6,2.9c-0.2-0.3-0.5-0.7-0.7-1.1
		c-0.2-0.2-0.3-0.4-0.5-0.6C3.3,31.9,4.6,31.1,5.6,30.2z"/>
	<path class="st0" d="M4.1,6.8h27.1V2.9H4.1V6.8z M5.1,3.9h25.1v1.9H5.1V3.9z"/>
	<path class="st0" d="M38.9,33c0.3,0.3,0.7,0.6,1,1c0.4,0.4,0.8,0.8,1.1,1.2c0.4,0.4,0.6,0.7,0.8,1c2.4-1.1,4.6-2.5,6.8-4
		c1.2-0.9,2.4-1.8,3.5-2.9c1,0.8,2,1.6,2.9,2.3c1.2,1,2.2,2,3,2.9l3.2-3.1c-0.9-0.9-1.9-1.8-3.2-2.8c-1-0.8-2-1.5-3.1-2.3
		c1.7-1.9,3.1-3.9,4.3-6.1l-4-1.3c-1,1.9-2.2,3.6-3.6,5.2c-0.7-0.5-1.5-0.9-2.2-1.4c-1.5-0.9-3-1.8-4.4-2.5l-2.9,2.7
		c1.4,0.8,2.9,1.7,4.4,2.6c0.8,0.5,1.5,1,2.2,1.5c-1,0.9-2.2,1.8-3.3,2.6C43.5,30.8,41.3,32,38.9,33z M49.6,27.6l1-0.9L49.5,26
		c-0.7-0.5-1.5-1-2.2-1.5c-1.1-0.7-2.2-1.4-3.3-2l1.4-1.3c1.2,0.6,2.5,1.4,3.7,2.1c0.7,0.5,1.5,0.9,2.2,1.4l0.7,0.5l0.6-0.6
		c1.3-1.5,2.4-3.1,3.4-4.7l2,0.7c-1,1.7-2.2,3.4-3.6,4.9l-0.7,0.8l0.9,0.6c1.2,0.8,2.2,1.6,3,2.2c0.9,0.7,1.7,1.4,2.4,2L58.2,33
		c-0.7-0.7-1.5-1.4-2.4-2.2c-0.8-0.7-1.8-1.5-3-2.4l-0.7-0.5l-0.6,0.6c-1.1,1-2.3,2-3.4,2.8c-1.9,1.4-3.9,2.6-5.9,3.6
		c-0.1-0.1-0.2-0.3-0.4-0.4c-0.4-0.4-0.7-0.8-1.1-1.2c1.9-0.9,3.7-1.9,5.4-3C47.3,29.5,48.5,28.6,49.6,27.6z"/>
	<path class="st0" d="M46.4,12.8h22V9.5h-22V12.8z M47.4,10.5h20v1.3h-20V10.5z"/>
	<path class="st0" d="M70.7,26.4c0,1.6-0.1,2.8-0.2,3.8s-0.3,1.4-0.7,1.5c-0.6,0-1.1-0.4-1.4-1.3c-0.4-0.8-0.7-2-0.9-3.6
		c-0.2-1.5-0.4-3.3-0.4-5.3C67,19.5,67,17.4,67,15h-2.8h-1.4H42.1c1.6-1.6,3-3.4,4.3-5.7c0.4-0.7,0.8-1.3,1.1-2h24.4V3.9H49
		c0.4-1,0.7-1.9,1-3l-4.3-1c-0.8,2.7-1.8,5.1-3.2,7.5c-1.4,2.3-3,4.2-4.9,5.7c0.4,0.2,0.8,0.5,1.3,0.8c0.5,0.3,1,0.6,1.4,1
		c0.5,0.3,0.8,0.6,1.1,0.9c0.2-0.2,0.4-0.4,0.6-0.6v3.3h20.9c0,1.6,0.1,3.2,0.2,4.7c0.1,2.5,0.4,4.7,0.9,6.6c0.5,1.9,1.1,3.3,2,4.4
		c0.9,1.1,2.1,1.6,3.6,1.6c0.9,0,1.6-0.2,2.1-0.7c0.5-0.5,0.9-1.2,1.2-2.2c0.3-1,0.4-2.3,0.5-3.9c-0.4-0.3-0.9-0.7-1.4-1.2
		C71.5,27.3,71.1,26.9,70.7,26.4z M41.4,14.3L41.4,14.3c-0.2,0-0.4-0.1-0.5-0.2c-0.5-0.3-0.9-0.7-1.4-1c0,0-0.1,0-0.1-0.1
		c1.5-1.4,2.9-3.1,4.1-5c1.3-2.1,2.3-4.4,3.1-6.8l2.3,0.5c-0.2,0.6-0.4,1.2-0.7,1.9l-0.5,1.4h23.3v1.4h-24l-0.3,0.5
		c-0.3,0.7-0.7,1.3-1.1,2C44.3,10.9,42.9,12.8,41.4,14.3z M71.9,32.6c-0.2,0.8-0.5,1.4-0.9,1.7c-0.3,0.3-0.8,0.4-1.5,0.4
		c-1.2,0-2.2-0.4-2.8-1.2c-0.8-0.9-1.4-2.3-1.8-4c-0.4-1.8-0.7-4-0.9-6.4c-0.1-1.4-0.1-2.9-0.2-4.6l0-1H43V16h23c0,2,0,3.9,0.1,5.6
		c0.1,2,0.2,3.8,0.4,5.4c0.2,1.6,0.5,2.9,1,3.8c0.7,1.5,1.7,1.9,2.4,1.9c1.4-0.1,1.6-1.8,1.7-2.3c0.1-0.4,0.1-0.9,0.1-1.5
		c0.3,0.2,0.5,0.4,0.7,0.6C72.2,30.7,72.1,31.7,71.9,32.6z"/>
</g>
</svg>
