<?xml version="1.0" encoding="utf-8"?>
<!-- Generator: Adobe Illustrator 27.9.1, SVG Export Plug-In . SVG Version: 6.00 Build 0)  -->
<svg version="1.1" id="Layer_1" xmlns:inkscape="http://www.inkscape.org/namespaces/inkscape"
	 xmlns="http://www.w3.org/2000/svg" xmlns:xlink="http://www.w3.org/1999/xlink" x="0px" y="0px" viewBox="0 0 137 31.7"
	 style="enable-background:new 0 0 137 31.7;" xml:space="preserve">
<style type="text/css">
	.st0{fill:#070707;}
</style>
<g>
	<path class="st0" d="M28.8,8.8c-1.3-2.5-2.5-4.6-3.7-6.2l-5.7,2.6c1.2,1.5,2.4,3.5,3.7,6c1.3,2.5,2.4,4.9,3.2,7.2l5.6-2.6
		C31.2,13.6,30.1,11.3,28.8,8.8z M24,10.6C23,8.6,22,6.9,21,5.5l3.8-1.7c1,1.5,2,3.3,3.1,5.4c1.1,2.1,2,4.1,2.8,6L26.9,17
		C26.2,14.9,25.2,12.8,24,10.6z"/>
	<path class="st0" d="M5.9,13.7c-2.3,6.5-4.1,11.5-5.3,15l5.8,1.8c1.5-4.6,3.5-10.5,6-17.5c0.7,0,1.6,0,2.5,0c1,0,1.6,0.2,1.9,0.5
		c0.3,0.3,0.4,1.1,0.4,2.5c0,2.8-0.3,5-0.8,6.6c-0.6,1.6-1.3,2.4-2.3,2.4c-0.7,0-1.6-0.3-2.7-1l-1.7,5.8c3.2,1.4,5.9,1.6,7.9,0.7
		c0.9-0.4,1.6-1,2.1-1.6s1-1.4,1.5-2.3c1.2-2.5,1.8-5.6,1.8-9.3s-0.6-6.2-1.9-7.7s-3.5-2.2-6.7-2.3c0.6-1.8,1.2-3.4,1.7-4.8
		l-5.6-1.6C9.8,2.8,9,5.1,8.1,7.6C5.6,7.8,2.9,8.2,0,8.7l1.1,5.8C2.7,14.2,4.3,14,5.9,13.7z M8.2,8.6l0.6-0.1L9,7.9
		c0.7-2.1,1.4-4.1,2.1-5.9l3.7,1.1c-0.4,1.2-0.8,2.5-1.3,3.8L13,8.2l1.4,0c2.9,0.1,4.9,0.8,6,2c1.1,1.3,1.6,3.6,1.6,7
		c0,3.5-0.6,6.5-1.7,8.9c-0.4,0.8-0.8,1.5-1.3,2.1c-0.5,0.5-1.1,1-1.8,1.4c-0.7,0.3-1.5,0.5-2.4,0.5c-1.2,0-2.5-0.3-3.9-0.8l1.1-3.8
		c0.8,0.4,1.5,0.5,2.1,0.5c1.4,0,2.5-1,3.2-3.1c0.6-1.7,0.9-4,0.9-6.9c0-1.7-0.2-2.6-0.7-3.1C17,12.3,16.2,12,14.9,12
		c-1,0-1.8,0-2.6,0l-0.7,0l-0.2,0.6c-2.3,6.5-4.2,12.1-5.7,16.6l-3.9-1.2C3,24.7,7.4,12.5,7.4,12.5l-1.6,0.2
		c-1.3,0.2-2.6,0.4-3.8,0.6L1.2,9.5C3.7,9.1,6,8.8,8.2,8.6z"/>
	<path class="st0" d="M49.2,13.3c-1,0-1.8,0.3-2.5,1c-0.7,0.7-1,1.6-1,2.6c0,1.3,0.6,2.1,1.1,2.6c0.7,0.6,1.6,0.9,2.8,0.9
		c1.6,0,2.4-0.7,2.9-1.3c0.6-0.8,0.9-1.8,0.9-3.3l0-0.3l-0.2-0.3C52.4,13.9,51.1,13.3,49.2,13.3z M51.6,18.5
		c-0.4,0.6-1.1,0.9-2.1,0.9s-1.6-0.2-2.1-0.6c-0.5-0.4-0.7-1-0.7-1.8s0.2-1.4,0.7-1.9c0.5-0.5,1.1-0.7,1.8-0.7
		c1.5,0,2.5,0.5,3.1,1.4C52.3,17,52.1,17.9,51.6,18.5z"/>
	<path class="st0" d="M52.1,8.6c0,0.4,0.1,0.9,0.1,1.4c-0.8-0.2-1.6-0.3-2.5-0.3c-2.5,0-4.5,0.7-6,2c-1.5,1.4-2.3,3.2-2.3,5.4
		s0.7,4,2.2,5.3s3.3,2,5.7,2c1.1,0,2.1-0.1,3-0.4c-0.9,2-2.3,3.7-4.3,5l5.8,2.3c1.6-1.3,2.8-3,3.8-5.1s1.4-4.2,1.4-6.1
		c0-2-0.2-3.6-0.7-4.9c0.1-0.8,0.2-1.8,0.2-2.9c0-1.1-0.1-2.4-0.2-4c2.6,0,5.2,0.2,7.7,0.4l0.5-5.6c-2.9-0.2-5.9-0.3-9-0.3
		c-0.2-0.9-0.3-1.7-0.5-2.6L50.9,1c0.2,0.6,0.3,1.3,0.5,2.2c-5.5,0.3-10.7,1-15.7,2l1.2,5.6C41.5,9.6,46.6,8.9,52.1,8.6z M51.5,4.2
		l1.1-0.1L52.4,3c-0.1-0.4-0.1-0.8-0.2-1.1l3.9-0.4C56.2,2.1,56.5,4,56.5,4l1.9,0c2.4,0,4.7,0.1,6.9,0.2L65,7.8
		c-2.2-0.2-4.5-0.3-6.8-0.4l-1.1,0l0.1,1.1c0.1,1.5,0.2,2.8,0.2,3.9c0,1-0.1,2-0.2,2.7l0,0.2l0.1,0.2c0.4,1.2,0.6,2.7,0.6,4.6
		c0,1.8-0.4,3.7-1.3,5.7c-0.8,1.8-1.8,3.2-3,4.4l-3.6-1.5c1.4-1.2,2.5-2.7,3.2-4.4l0.9-2l-2.1,0.6c-0.8,0.2-1.7,0.4-2.7,0.4
		c-2.1,0-3.8-0.6-5-1.7c-1.2-1.1-1.8-2.7-1.8-4.6c0-1.9,0.6-3.5,1.9-4.6c1.3-1.2,3.1-1.8,5.4-1.8c0.8,0,1.6,0.1,2.3,0.2l1.2,0.3V10
		c0-0.5,0-1-0.1-1.5L53,7.6L52,7.6c-5.1,0.3-10,0.9-14.4,2L36.9,6C41.5,5.1,46.4,4.5,51.5,4.2z"/>
	<path class="st0" d="M79.6,29.1c2.7,0,5-1.2,6.9-3.5c1.6-2,2.8-4.6,3.5-7.7c1,0.4,2.1,0.8,3.1,1.3c-0.8,3.2-2,6.1-3.7,8.7l5.8,2.5
		c1.5-2.4,2.6-4.9,3.4-7.7c0.7,0.6,1.5,1.2,2.2,1.8l2.7-5.6c-1.2-1-2.4-1.9-3.6-2.7c0.3-2.8,0.2-5.6-0.2-8.3l-5.8,0.4
		c0.2,1.6,0.3,3.2,0.2,4.9c-1.1-0.4-2.2-0.8-3.4-1c0-0.1,0-0.2,0-0.3c0-3.5-0.7-6.1-2-7.8c-1.3-1.7-3.4-2.5-6.1-2.5
		c-1.3,0-2.8,0.2-4.5,0.5c-1.7,0.3-3.1,0.7-4.3,1.2L75.1,9c2.7-0.9,5.1-1.4,7.1-1.4c1,0,1.6,0.2,2,0.7c0.3,0.4,0.5,1.3,0.5,2.7
		c0,0.2,0,0.4,0,0.6c-3.8,0-6.8,1-9,2.8c-2.2,1.8-3.4,4.2-3.4,7.2c0,2.3,0.7,4.2,2,5.5C75.6,28.4,77.4,29.1,79.6,29.1z M76.2,15.1
		c2-1.7,4.9-2.5,8.4-2.6l1,0v-1.6c0-1.6-0.2-2.6-0.7-3.3c-0.5-0.7-1.5-1.1-2.8-1.1c-1.8,0-4,0.4-6.3,1.1l-1-3.8
		c0.9-0.3,2-0.6,3.3-0.8c1.6-0.3,3.1-0.4,4.3-0.4c2.5,0,4.2,0.7,5.3,2.1c1.2,1.5,1.8,3.9,1.8,7.2V13l0.8,0.2c1.1,0.2,2.2,0.6,3.2,1
		l1.3,0.5l0-1.4c0-1.3,0-2.7-0.1-4L98.7,9c0.3,2.4,0.3,4.8,0.1,7.2l-0.1,0.6l0.5,0.3c1,0.6,2,1.3,2.9,2.1l-1.8,3.8
		c-0.4-0.3-0.8-0.7-1.2-1l-1.2-0.9l-0.4,1.4c-0.7,2.4-1.7,4.6-2.9,6.7l-3.9-1.7c1.4-2.4,2.5-5.1,3.2-8l0.2-0.8l-0.7-0.4
		c-1.1-0.5-2.2-1-3.2-1.4l-1.1-0.4L89,17.7c-0.7,3-1.8,5.4-3.3,7.3c-1.7,2.1-3.7,3.1-6.1,3.1c-1.9,0-3.4-0.6-4.6-1.8
		c-1.2-1.2-1.7-2.8-1.7-4.9C73.2,18.8,74.2,16.7,76.2,15.1z"/>
	<path class="st0" d="M79.6,24.5c1.2,0,2.3-0.8,3.3-2.3c0.8-1.3,1.5-3,2.1-5.1l0.3-1.2h-1.6c-2.1,0-3.7,0.4-4.9,1.2
		c-1.3,0.9-2,2.2-2,3.8c0,0.9,0.2,1.8,0.7,2.4C77.9,24,78.7,24.5,79.6,24.5z M79.3,17.8c1-0.7,2.5-1,4.4-1c0.1,0,0.2,0,0.3,0
		c-0.5,2-1.1,3.6-1.9,4.8c-0.8,1.2-1.6,1.9-2.4,1.9c-0.6,0-1-0.3-1.4-0.8c-0.3-0.5-0.5-1.1-0.5-1.9C77.7,19.5,78.2,18.5,79.3,17.8z"
		/>
	<path class="st0" d="M131.2,10.2l0.8,0l0.1-0.8c0.1-0.4,0.1-0.9,0.1-1.8c0-1.8-1-2.3-1.6-2.5c-0.5-0.1-1.2-0.2-2.1-0.2
		c-2.7,0-7.2,0.3-13.4,0.7l-0.9,0.1v5.1l1-0.1C120.8,10.5,126.2,10.3,131.2,10.2z M115.3,6.6c6.2-0.5,10.6-0.7,13.3-0.7
		c0.9,0,1.5,0,1.8,0.1c0.6,0.2,0.9,0.7,0.9,1.6c0,0.8,0,1.4-0.1,1.7c-5.1,0-10.4,0.2-15.9,0.5C115.3,8.4,115.3,7.4,115.3,6.6z"/>
	<path class="st0" d="M115.3,13.3l-1,0V19l1,0c1.9-0.1,7-0.2,15.5-0.5l1,0l0.1-5.6l-1,0C126.9,13,121.6,13.1,115.3,13.3z
		 M130.9,17.5c-8.4,0.2-13.6,0.4-15.5,0.5v-3.6c6.3-0.2,11.5-0.4,15.6-0.4L130.9,17.5z"/>
	<path class="st0" d="M115.3,21.7l-1,0v5.4h1c5.1,0,10.3,0,15.4-0.1l1,0l0.1-5.8l-1,0C122,21.5,117,21.6,115.3,21.7z M130.7,26.1
		c-5.1,0.1-10.3,0.1-15.4,0.1v-3.5c1.6-0.1,6.8-0.2,15.4-0.4L130.7,26.1z"/>
	<path class="st0" d="M110,31.7c8.5-0.2,17.4-0.3,26.8-0.3c0.2-5.9,0.3-14.3,0.3-25.2c0-3.4-1.5-5.2-4.6-5.4
		c-5.2,0-10.9,0.2-17.2,0.7L115.1,0l-5.6,0.9c0.3,3.9,0.5,12.9,0.5,27.1L110,31.7z M114.2,1.2l0.1,1.4l1-0.1
		c6.2-0.5,12-0.7,17.1-0.7c2.5,0.1,3.6,1.5,3.6,4.4c0,10.3-0.1,18.4-0.3,24.2c-8.6,0-17,0.1-24.8,0.3l0-2.7
		c0-13.1-0.2-21.9-0.5-26.2L114.2,1.2z"/>
</g>
</svg>
