<?xml version="1.0" encoding="utf-8"?>
<!-- Generator: Adobe Illustrator 27.9.1, SVG Export Plug-In . SVG Version: 6.00 Build 0)  -->
<svg version="1.1" id="Layer_1" xmlns:inkscape="http://www.inkscape.org/namespaces/inkscape"
	 xmlns="http://www.w3.org/2000/svg" xmlns:xlink="http://www.w3.org/1999/xlink" x="0px" y="0px" viewBox="0 0 178.8 32.7"
	 style="enable-background:new 0 0 178.8 32.7;" xml:space="preserve">
<style type="text/css">
	.st0{fill:#070707;}
</style>
<g>
	<path class="st0" d="M0.3,5.8l7.8-0.1L8,6.8H2c0.1,2.4,0.1,4.4,0.1,6l0,2.3l30.7-0.3l0.1-4.8c0-2.1-1.1-3.1-3.3-3.2h-3.9l0.1-1.4
		l8.5-0.1l-0.4-3.9L26,1.6V0.1L21,0l0,1.7l-8.2,0.1L12.6,0L7.6,0.3l0.1,1.6l-7.5,0L0.3,5.8z M8.8,2.9L8.7,1.2l3-0.1l0.2,1.8L22,2.7
		L22,1l3,0v1.5l8-0.1l0.2,1.9l-8.3,0.1l-0.4,3.4h5c2.1,0.1,2.3,1.1,2.3,2.2l-0.1,3.8L3.1,14.1l0-1.2c0-1.4,0-3.1-0.1-5.1H9l0.2-3.2
		L1.3,4.7l0-1.8L8.8,2.9z"/>
	<path class="st0" d="M21.3,7.8l0.1-0.9c0-0.5,0.1-0.9,0.2-1.1l0.3-1.2l-9.6,0l0.1,3.2H21.3z M20.6,5.6c-0.1,0.3-0.1,0.7-0.2,1.3
		h-7.1l0-1.2L20.6,5.6z"/>
	<path class="st0" d="M29,11.4c0-0.3,0-0.7,0-1c0-0.6-0.4-1.3-1.4-1.4c-0.3,0-0.9-0.1-3.7-0.1l-1,0v3.7l6.2-0.2V11.4z M23.9,11.5
		V9.9c2.1,0,3.3,0.1,3.6,0.1c0.3,0,0.5,0.2,0.5,0.5c0,0.3,0,0.6,0,0.9L23.9,11.5z"/>
	<path class="st0" d="M14,12.7l6.4-0.1V8.9L14,9.1V12.7z M15,10.1l4.4-0.1v1.7l-4.4,0V10.1z"/>
	<path class="st0" d="M5.6,12.7h5.8V9.1L5.6,9.2V12.7z M6.6,10.2l3.8-0.1v1.6H6.6V10.2z"/>
	<path class="st0" d="M3.9,23.9l2.2,3c2.4-0.5,4.4-1.3,6.2-2.4c4.2-0.1,7.2-0.2,9.2-0.2c1.6,0,2.4,0.1,2.4,0.3c0,0.2-0.7,0.5-2,1
		c-1,0.4-2.1,0.9-3.5,1.3c-1.3-0.8-3.1-1.5-5.5-2.2l-4.7,2.1c2,0.7,3.2,1.1,3.9,1.4c-1.3,0.3-5,0.7-11,1.2l2.2,3.5
		c5.9-0.3,10.6-0.8,14.1-1.6s6.3-1.6,8.2-2.5c2-0.9,3.2-1.7,3.7-2.5s0.8-1.6,0.8-2.5l3.8,0.4c0.3-0.8,0.5-2,0.5-3.8
		c0-0.7-0.1-1.5-0.2-2.2C34,16.6,33,15.9,31,15.8c-1.6,0-3.2,0-4.8,0c-8.3,0-17,0.3-26.1,0.8C0,18.1,0,19.4,0,20.5
		c0,0.4,0.1,1.6,0.2,3.4L3.9,23.9z M4.8,20.2c2-0.1,4-0.3,6.1-0.3C9.7,21,7.7,22,5,22.9C5,21.8,4.9,20.9,4.8,20.2z M29.2,21.4
		c-0.4-0.5-1.9-0.7-4.4-0.7l-8.8,0.1l0.7-1c0,0,1.6-0.1,4.6-0.1c2.5,0,4.7,0.1,6.6,0.2c0.8,0.2,1.2,0.6,1.2,1.2V21.4z M1.1,17.5
		c8.7-0.5,17.1-0.7,25.1-0.7c1.7,0,3.3,0,4.8,0c1.8,0,2.2,0.7,2.3,1.4c0.1,0.7,0.2,1.4,0.2,2c0,1.3-0.1,2.1-0.2,2.7l-3-0.4l0-1.5
		c0-0.5-0.2-1.8-2-2.2l-0.1,0l-0.1,0c-1.8-0.1-4.1-0.2-6.6-0.2c-5,0-5,0-5.3,0.4L16,19.1l-1.8,2.7l10.7-0.2c3,0,3.6,0.4,3.7,0.4
		l0.7,0.7l0,0.8c0,0.7-0.2,1.3-0.7,2c-0.2,0.4-1,1.1-3.3,2.1c-1.9,0.8-4.6,1.7-8,2.4c-3.3,0.7-7.8,1.3-13.4,1.5l-1-1.6
		c5.1-0.4,8.2-0.8,9.5-1l3-0.7l-2.8-1.2c-0.3-0.2-0.9-0.4-1.6-0.6l2.1-0.9c2.2,0.6,3.8,1.3,4.9,2l0.4,0.2l0.4-0.1
		c1.4-0.4,2.6-0.9,3.6-1.3c1.8-0.7,2.5-1,2.5-1.9c0-1.3-1.6-1.3-3.4-1.3c-2,0-5.1,0.1-9.2,0.2l-0.3,0l-0.2,0.2
		c-1.5,1-3.2,1.7-5.2,2.2l-1.4-1.8l0.2-0.1c2.9-0.9,4.9-2,6.3-3.3l2-1.8l-2.7,0.1c-2.1,0.1-4.2,0.2-6.2,0.3l-1,0.1l0.1,1
		C3.9,21,4,21.8,4,22.9l-2.9,0C1,21.4,1,20.8,1,20.5C1,19.6,1,18.6,1.1,17.5z"/>
	<path class="st0" d="M46.5,10.1c-0.6,2.5-1,4.2-1,5.2c0,0.6,0.2,1.2,0.5,1.6s0.9,0.8,1.8,1.3c-1.8,2-2.7,4-2.7,6.1
		c0,4.5,4.2,6.8,12.5,6.8c2.9,0,6-0.3,9.3-0.8l-0.4-5.9c-3.3,0.7-6.6,1.1-9.9,1.1c-3.6,0-5.4-0.6-5.4-1.8c0-0.9,0.9-2,2.8-3.3
		c2.4,0.8,4.8,2,7.3,3.5l2.7-4.8c-1.2-0.8-2.4-1.5-3.7-2c2.5-1,5-1.8,7.5-2.4l-1.7-5.2c-5.3,1.3-9.7,3-13.3,5
		c-0.4-0.1-0.8-0.3-0.9-0.4c-0.2-0.1-0.3-0.3-0.3-0.5c0-0.5,0.4-1.9,1.1-4.2C55.9,8.8,59,8.6,62,8.6c0.3,0,0.7,0,1.1,0l0.3-5.3
		c-0.8,0-1.7-0.1-2.6-0.1c-2,0-4.1,0.1-6.2,0.3c0.3-0.8,0.6-1.5,0.9-2l-5.8-1c-0.5,1.2-0.9,2.5-1.3,3.7c-2.6,0.4-5.1,0.9-7.5,1.4
		l0.9,5.5C43.3,10.7,44.9,10.4,46.5,10.1z M48.4,5.1L49,5.1l0.2-0.6c0.3-1,0.7-2,1-2.9L54,2.2c-0.1,0.3-0.2,0.6-0.3,0.9l-0.6,1.5
		l1.6-0.1c2.1-0.2,4.1-0.3,6.1-0.3c0.5,0,1,0,1.5,0l-0.2,3.4H62c-3,0-6.2,0.2-9.4,0.6l-0.6,0.1l-0.2,0.6c-1,3.2-1.1,4.1-1.1,4.5
		c0,0.5,0.2,0.9,0.6,1.3c0.3,0.2,0.7,0.4,1.3,0.6l0.4,0.1l0.4-0.2c3.3-1.9,7.3-3.4,12.1-4.7l1.1,3.3c-2.2,0.6-4.4,1.3-6.6,2.2
		l-2.1,0.9l2.1,1c0.9,0.4,1.8,0.9,2.8,1.5l-1.7,3.1c-2.2-1.3-4.5-2.3-6.6-3.1l-0.5-0.2l-0.4,0.3c-2.2,1.5-3.2,2.9-3.2,4.2
		c0,2.8,4.6,2.8,6.4,2.8c3,0,6-0.3,9-0.9l0.3,3.8c-2.9,0.4-5.7,0.7-8.2,0.7C46,30.1,46,25.7,46,24.3c0-1.8,0.8-3.7,2.5-5.4l0.9-1
		l-1.2-0.6c-0.9-0.4-1.3-0.8-1.4-1c-0.2-0.2-0.3-0.6-0.3-1c0-0.6,0.2-2,0.9-5l0.4-1.5l-1.5,0.3c-1.2,0.2-2.5,0.5-3.8,0.7l-0.6-3.5
		C44,5.9,46.2,5.5,48.4,5.1z"/>
	<path class="st0" d="M77.2,6.9c0.1,1.8,0.1,3.4,0.1,5c-1.9,0.1-3,0.2-3.3,0.2l0,5.2l3.3-0.2c0,2.1-0.1,4.1-0.3,6
		c-1,0.1-2.1,0.2-3.1,0.3l0.4,5.3c4.4-0.4,8-1.2,11-2.3l0.1-5.3c-0.9,0.3-1.9,0.6-2.9,0.9l0-5.3l2.9-0.1l-0.3-5.3l-2.6,0.2l-0.1-5
		l2.9-0.1L85,1.2c-2,0.1-3.8,0.2-5.5,0.4c-1.7,0.1-2.9,0.2-3.8,0.2c-0.9,0-1.5,0.1-1.9,0.1l0,5.2L77.2,6.9z M75.7,2.7
		c0.9,0,2.2-0.1,3.9-0.2c1.4-0.1,2.9-0.2,4.5-0.3l0.2,3.3l-2.8,0.1l0.2,7l2.7-0.2l0.2,3.2l-2.9,0.1l0.1,7.5l1.2-0.3
		c0.6-0.1,1.1-0.3,1.7-0.5l-0.1,3.2c-2.5,0.9-5.6,1.5-9.1,1.9L75,24.4c0.7-0.1,1.5-0.1,2.2-0.2L78,24l0.1-0.8c0.2-2,0.3-4,0.3-6.1
		l0-1.1L75,16.3l0-3.2c0.5,0,1.3-0.1,2.4-0.2l0.9-0.1l0-0.9c0-1.6-0.1-3.3-0.1-5l0-1L74.8,6l0-3.2C75,2.8,75.4,2.8,75.7,2.7z"/>
	<path class="st0" d="M91.6,16.9L90.7,17v3.8h1c4.6,0,7.9,0,9.6-0.1l0.9,0l0.1-4.1l-1.1,0C95.7,16.8,92.5,16.9,91.6,16.9z
		 M101.2,19.7c-1.7,0.1-4.9,0.1-9.6,0.1v-1.9c0.9,0,4.1-0.2,9.6-0.3L101.2,19.7z"/>
	<path class="st0" d="M86.6,24.3l3.1-0.1c-0.8,1.9-2.5,3.3-5.2,4.2l3.9,3.7c3.6-1.7,5.8-4.3,6.5-7.9l1.8,0l0,2.4c0,1,0,1.8,0.1,2.3
		c0.3,1.9,1.4,2.9,3.2,3c2.9,0,5.4-0.3,7.3-1l0-4.8c-2.4,0.8-4,1.2-4.8,1.2c-0.4,0-0.6-0.3-0.7-0.9V24h4.8c0.1-4,0.1-10.4,0.1-19
		c0-1.9-1.1-2.9-3.4-3c-4.4,0-8.3,0.2-11.8,0.6l-0.1-1.3l-5.2,0.4c0.1,2.7,0.2,9.3,0.3,19.5L86.6,24.3z M90.6,2.3l0.1,1.3l1-0.1
		c3.5-0.4,7.4-0.6,11.7-0.6c2.1,0.2,2.4,1.1,2.4,2c0,7.9,0,14-0.1,18h-4.8v3.3l0,0.1c0.2,1.5,1.3,1.7,1.6,1.8c0,0,0,0,0,0
		c0.6,0,1.5-0.1,3.8-0.8l0,2.7c-1.7,0.5-3.9,0.7-6.3,0.7c-1.3,0-2-0.7-2.2-2.1c-0.1-0.5-0.1-1.2-0.1-2.2l0.1-3.4l-3.6,0.1L94,23.8
		c-0.6,3.1-2.4,5.4-5.4,6.9l-2.3-2.1c2.1-1,3.5-2.4,4.3-4.1l0.6-1.5l-3.7,0.1l0-2.1c0-9.2-0.1-15.4-0.3-18.6L90.6,2.3z"/>
	<path class="st0" d="M101.6,9.1l0.4,0l0.3-0.3c0.3-0.3,0.3-0.7,0.3-1.3c0-0.5,0-1.9-1.1-2.4C101.2,5,100.8,5,100.2,5
		c-0.8,0-3.6,0.2-8.6,0.6l-0.9,0.1v3.8l1,0C96.5,9.2,99.8,9.1,101.6,9.1z M91.6,6.6c4.9-0.4,7.7-0.6,8.5-0.6c0.5,0,0.8,0,0.9,0.1
		c0.3,0.1,0.5,0.6,0.5,1.4c0,0.3,0,0.5,0,0.6c-1.8,0-5.1,0.1-9.9,0.4V6.6z"/>
	<path class="st0" d="M91.6,11.1l-1,0v4l1.1-0.1c1-0.1,4.2-0.2,9.7-0.4l0.9,0l0.1-3.9l-1.1,0.1C99.8,10.9,96.6,11,91.6,11.1z
		 M101.4,13.7c-5.4,0.2-8.7,0.4-9.7,0.4v-2c4.9-0.1,8.2-0.3,9.7-0.3L101.4,13.7z"/>
	<path class="st0" d="M110.9,21.4l0.1,4.2l10.6-0.3c-1.8,0.9-5.2,1.8-10.1,2.6l2.8,4c6.5-1,11.1-3.2,14-6.6c3.6,2.3,6.6,4.6,9.1,6.9
		l5.8-3.7c-1.8-1.3-3.7-2.5-5.6-3.6c2.5-0.1,4.6-0.1,6.4-0.2l-0.4-4.2c-2.5,0-7.2,0.2-14,0.3c0.1-0.5,0.2-1.1,0.3-1.7
		c6.2-0.2,10.2-0.3,12-0.4l-0.3-4.2c-1.9,0-5.7,0.2-11.3,0.4c0-0.5,0-1,0-1.5l11.4-0.4l-0.1-1.7l1.4,0.1c0.4-0.8,0.6-2,0.6-3.6
		c0-1.1-0.1-2-0.2-2.9c-0.3-1.7-1.5-2.6-3.6-2.6c-5.2,0-8.4,0-9.7,0.1c-0.1-0.8-0.3-1.5-0.6-2l-6,0.6c0.3,0.8,0.4,1.4,0.4,1.9
		c-2.9,0.1-7.1,0.4-12.5,0.9c-0.1,1.7-0.1,3.2-0.1,4.5c0,0.8,0.1,1.9,0.2,3.4l2-0.1l0,2.2l11.4-0.4c0,0.5,0,1.1-0.1,1.6
		c-5.2,0.2-8.9,0.3-11.2,0.3l0.1,4.2c3.9-0.1,7.4-0.2,10.6-0.3c-0.1,0.6-0.3,1.2-0.4,1.7C118.4,21.2,114.2,21.4,110.9,21.4z
		 M124.5,21.9l0.2-0.7c0.2-0.5,0.3-1.1,0.4-1.8l0.2-1.2l-10.8,0.3l0-2.2c2.3-0.1,5.8-0.2,10.2-0.3l0.9,0l0.2-3.6l-11.5,0.4l0-2.2
		l-2.1,0.1c-0.1-1-0.1-1.8-0.1-2.4c0-1.1,0-2.3,0.1-3.6c5-0.4,8.9-0.7,11.6-0.8l1,0v-1c0-0.3,0-0.6-0.1-1l4.1-0.4
		c0.1,0.3,0.2,0.7,0.2,1.1l0.1,0.9l0.9-0.1c1.3-0.1,4.5-0.1,9.6-0.1c2,0,2.4,0.9,2.6,1.8c0.1,0.8,0.2,1.7,0.2,2.7
		c0,1.2-0.1,2-0.2,2.5l-1.8-0.2l0.2,1.9l-11.3,0.4l0,0.9c0,0.5,0,1.1,0,1.6v1l1,0c4.8-0.2,8.2-0.3,10.3-0.3l0.2,2.2
		c-2.1,0.1-5.8,0.2-10.9,0.4l-0.9,0l-0.1,0.8c-0.1,0.6-0.2,1.1-0.3,1.7l-0.2,1.2l1.2,0c6-0.2,10.4-0.3,13.1-0.3l0.2,2.2
		c-1.5,0-8.8,0.3-8.8,0.3l3,1.8c1.5,0.9,2.9,1.8,4.3,2.7l-3.9,2.5c-2.4-2.2-5.4-4.3-8.7-6.5l-0.7-0.5l-0.6,0.7
		c-2.6,3.1-6.9,5.1-12.8,6.2l-1.5-2.2c4.2-0.7,7.1-1.5,8.8-2.4l-0.5-1.9l-9.6,0.2l-0.1-2.2c3.1-0.1,7.1-0.2,11.8-0.5L124.5,21.9z"/>
	<path class="st0" d="M125.9,9.2c0-0.2,0-0.3,0-0.5l3.4-0.1c0,0.1,0,1.5,0,1.5l1,0c3-0.1,5.5-0.2,7.5-0.3l1,0l0-1
		c0-1.3-0.8-2.2-2.1-2.5l-0.1,0l-0.1,0c-1.7-0.2-3.3-0.2-4.8-0.2c-3.8,0-9,0.3-15.5,0.9l-1,0.1l0.3,3.6l0.9,0c2.2-0.1,5-0.2,8.4-0.3
		l1,0L125.9,9.2z M124.9,9.2c-3.4,0.1-6.2,0.2-8.4,0.3c0-0.5-0.1-1.1-0.1-1.7c6.5-0.6,11.6-0.9,15.4-0.9c1.5,0,3,0.1,4.7,0.2
		c0.9,0.2,1.3,0.7,1.3,1.6c-1.9,0.1-4.4,0.2-7.5,0.3c0-0.5,0-1,0-1.4l-5.3,0.1C124.9,8.2,124.9,8.7,124.9,9.2z"/>
	<path class="st0" d="M173,10.6c1.8,0,3.5,0.1,5.3,0.2l0.2-5.6c-2.2-0.2-4.4-0.3-6.5-0.3c-3.7,0-7,0.3-9.6,1l0.5,5.6
		C165.5,10.9,168.9,10.6,173,10.6z M172,5.8c1.8,0,3.7,0.1,5.5,0.2l-0.1,3.7c-1.5-0.1-2.9-0.1-4.3-0.1c-3.6,0-6.7,0.2-9.3,0.6
		l-0.3-3.6C165.8,6.1,168.7,5.8,172,5.8z"/>
	<path class="st0" d="M176.7,29c0.6,0,1.2,0,1.9,0l0.2-6c-3.5,0-6.4-0.3-8.6-0.7s-4.5-1.3-6.8-2.5l-2.4,5.6c2.3,1.3,4.6,2.3,7,2.8
		C170.4,28.7,173.3,29,176.7,29z M163.9,21.1c2.1,1,4.1,1.7,6.1,2.1c2,0.4,4.6,0.7,7.8,0.7l-0.2,4.1c-0.3,0-0.6,0-0.9,0
		c-3.3,0-6.2-0.3-8.5-0.8c-2-0.5-4-1.3-6-2.3L163.9,21.1z"/>
	<path class="st0" d="M158.8,29.7c-1.1-4-1.6-8.2-1.6-12.4c0-4.9,0.7-9.5,2.2-13.9l-5.8-1.2c-0.7,1.9-1.3,4.1-1.7,6.8
		s-0.6,5.5-0.6,8.4c0,5.2,0.6,9.6,1.7,13.2L158.8,29.7z M152.8,9.1c0.3-2.2,0.8-4.1,1.3-5.8l3.9,0.8c-1.2,4.2-1.9,8.6-1.9,13.2
		c0,3.9,0.5,7.8,1.4,11.5l-3.9,0.6c-1-3.3-1.4-7.4-1.4-12.1C152.2,14.5,152.4,11.7,152.8,9.1z"/>
</g>
</svg>
