<?xml version="1.0" encoding="utf-8"?>
<!-- Generator: Adobe Illustrator 27.9.1, SVG Export Plug-In . SVG Version: 6.00 Build 0)  -->
<svg version="1.1" id="Layer_1" xmlns="http://www.w3.org/2000/svg" xmlns:xlink="http://www.w3.org/1999/xlink" x="0px" y="0px"
	 viewBox="0 0 109.9 35.7" style="enable-background:new 0 0 109.9 35.7;" xml:space="preserve">
<style type="text/css">
	.st0{fill:#282828;}
</style>
<g>
	<path class="st0" d="M42.7,0.2l-2.2,3c0.9,0.4,1.8,0.8,2.7,1.3c0.9,0.5,1.8,1,2.6,1.5c0.8,0.5,1.5,1,2,1.5l2.4-3.3
		c-0.5-0.5-1.2-0.9-2.1-1.4c-0.8-0.5-1.7-0.9-2.6-1.4C44.5,0.9,43.6,0.5,42.7,0.2z M48.7,4.3L47.5,6c-0.4-0.3-0.8-0.6-1.2-0.9
		c-0.8-0.5-1.7-1.1-2.7-1.5C43.1,3.3,42.5,3,42,2.8l1-1.4c0.6,0.2,1.3,0.5,1.9,0.8c0.9,0.4,1.8,0.9,2.6,1.3C48,3.8,48.4,4,48.7,4.3z
		"/>
	<path class="st0" d="M41,14.7c0.9,0.5,1.8,0.9,2.6,1.4c0.8,0.5,1.5,0.9,2,1.3l2.2-3.4c-0.6-0.4-1.3-0.9-2.1-1.3
		c-0.8-0.4-1.7-0.9-2.7-1.3c-0.9-0.4-1.8-0.7-2.7-1l-2.1,3.1C39.2,13.9,40.1,14.3,41,14.7z M40.9,11.7c0.6,0.2,1.2,0.5,1.9,0.7
		c0.9,0.4,1.8,0.8,2.6,1.2c0.4,0.2,0.8,0.5,1.2,0.7L45.4,16c-0.4-0.3-0.8-0.5-1.2-0.8c-0.8-0.5-1.7-1-2.7-1.4
		c-0.5-0.3-1.1-0.5-1.6-0.7L40.9,11.7z"/>
	<path class="st0" d="M70,26c-0.9-1.3-1.9-2.5-2.8-3.6l-3.5,1.9c0.9,1.2,1.9,2.4,2.8,3.8c0.2,0.3,0.4,0.6,0.5,0.9
		c-1.6,0.1-3.3,0.2-4.9,0.3c-2,0.1-3.9,0.2-5.8,0.3c0.2-0.4,0.4-0.8,0.6-1.1c0.7-1.4,1.3-2.9,2-4.4c0.5-1.2,1-2.4,1.4-3.5l-0.7,0.3
		c0,0-0.2-0.5,0.1-1.3l-0.1,0l0.1-0.3l0,0c-0.6,1.4-1.2,2.9-1.8,4.5c-0.6,1.5-1.3,3-2,4.4c-0.2,0.4-0.4,0.8-0.5,1.1l-0.7,1.5
		l1.7-0.1c1.9-0.1,3.8-0.2,5.8-0.3c1.3-0.1,2.6-0.1,3.9-0.2l2.7-0.1L67.6,28c-0.1-0.2-0.2-0.4-0.4-0.6c-0.7-1-1.4-2-2.1-2.9l1.8-0.9
		c0.7,0.9,1.5,1.9,2.3,3c0.9,1.3,1.8,2.6,2.5,3.8c0.5,0.9,1,1.8,1.3,2.6L71,34.1c-0.3-0.7-0.6-1.4-1-2.1l-0.3-0.6l-0.7,0
		c-2.2,0.2-4.4,0.3-6.6,0.5c-2.4,0.2-4.7,0.4-7,0.5c-1.8,0.1-3.5,0.3-5.1,0.4L50,30.7c0.6,0,2.5-0.1,2.5-0.1l0.3-0.5
		c0.2-0.5,0.5-1.1,0.8-1.7c0.5-1.1,0.9-2.2,1.3-3.3c0.4-1.2,0.8-2.3,1.2-3.4c0.2-0.7,0.4-1.4,0.6-2l0.4-1.3h-7.2v-1.9h10V8.6h-8.1
		V6.7h8.1V1h2.2v5.7h8.5v1.9h-8.5v7.9h10.3v1.9H61.3l-0.2,0.1l0.2,0l-0.5,0.9l0,0h12.7v-3.9H63.2V9.6h8.5V5.7h-8.5V0h-4.2v5.7h-8.1
		v3.9h8.1v5.9h-10v3.9h6.9c-0.2,0.7-0.4,1.3-0.6,2c-0.4,1.1-0.8,2.2-1.2,3.4s-0.9,2.2-1.3,3.3c-0.3,0.6-0.5,1.1-0.7,1.6
		c-1.1,0.1-2.1,0.1-3,0.2l0.6,4.1c1.8-0.1,3.8-0.3,6-0.4c2.2-0.2,4.6-0.3,7-0.5c2.2-0.2,4.4-0.3,6.6-0.5c0.6,1.1,1.1,2.2,1.4,3.1
		l3.9-2.1c-0.4-1.1-1-2.2-1.7-3.5C71.8,28.6,71,27.3,70,26z"/>
	<path class="st0" d="M88.8,17.6c-0.5,1.8-1.2,3.6-2.1,5.3c-1,1.7-2.2,3.4-3.8,5c-1.6,1.6-3.6,3.1-6,4.4c0.4,0.2,0.7,0.5,1.1,0.9
		c0.4,0.4,0.8,0.8,1.2,1.2c0.4,0.4,0.7,0.8,0.9,1.2c2.6-1.5,4.8-3.1,6.5-5c1.7-1.8,3.1-3.7,4.1-5.7c1-2,1.8-4,2.3-6
		c0.5-2,0.8-4,1-5.9c0-0.3,0-0.6,0.1-0.9h11.4c-0.1,2.2-0.2,4.2-0.4,5.9c-0.2,2.6-0.4,4.7-0.6,6.4c-0.2,1.7-0.5,3-0.8,4
		c-0.3,1-0.6,1.6-0.9,1.9c-0.2,0.3-0.5,0.4-0.7,0.5s-0.6,0.1-1,0.1c-0.5,0-1.3,0-2.3,0c-1.1,0-2.2-0.1-3.4-0.2
		c0.4,0.6,0.7,1.3,1,2.1c0.3,0.8,0.4,1.5,0.4,2.1c1.1,0.1,2.3,0.1,3.4,0.1c1.1,0,2,0,2.7-0.1c0.8-0.1,1.5-0.3,2.1-0.5
		c0.6-0.3,1.1-0.7,1.7-1.4c0.4-0.5,0.8-1.2,1.1-2.3c0.3-1,0.6-2.5,0.9-4.2c0.3-1.8,0.5-4,0.7-6.7c0.2-2.7,0.4-6,0.6-9.8
		c0-0.2,0-0.5,0.1-0.8c0-0.3,0-0.7,0-1.3h-2.5h-1.7H94.3c0-0.1,0-0.3,0-0.5V0.1H90v7.5c0,0.1,0,0.3,0,0.5H78.1v4.2h11.7
		c0,0.1,0,0.1,0,0.2C89.6,14.1,89.3,15.8,88.8,17.6z M89.8,11.2H79.1V9H91c0,0,0-1.4,0-1.5V1.1h2.3v6.5l0,0.4l0,1h15.6
		c0,0.1,0,0.1,0,0.2c0,0.3,0,0.5,0,0.7c-0.2,3.8-0.4,7.1-0.6,9.9c-0.2,2.7-0.4,4.9-0.7,6.7c-0.2,1.7-0.5,3.1-0.8,4.1
		c-0.3,1.1-0.7,1.7-0.9,1.9c-0.5,0.6-0.9,1-1.3,1.2c-0.5,0.2-1.1,0.4-1.8,0.5c-0.6,0.1-1.3,0.1-2.2,0.1l-0.3,0c-0.8,0-1.7,0-2.5-0.1
		c-0.1-0.4-0.2-0.9-0.4-1.5c-0.1-0.2-0.2-0.4-0.2-0.7c0.6,0,1.2,0.1,1.7,0.1c1.1,0,1.8,0,2.3,0c0.5,0,0.9,0,1.3-0.2
		c0.4-0.1,0.9-0.4,1.2-0.8c0.4-0.4,0.8-1.2,1.1-2.3c0.3-1,0.6-2.4,0.8-4.2c0.2-1.7,0.4-3.9,0.6-6.5c0.1-1.7,0.3-3.7,0.4-5.9l0.1-1.1
		H93.2l-0.1,1.3c0,0.2,0,0.3,0,0.5c-0.2,1.9-0.5,3.8-1,5.8c-0.5,1.9-1.2,3.9-2.2,5.8c-1,1.9-2.3,3.7-4,5.5c-1.5,1.5-3.3,3-5.5,4.3
		c-0.1-0.2-0.3-0.3-0.4-0.5c-0.4-0.4-0.8-0.9-1.2-1.3c0,0-0.1-0.1-0.1-0.1c2-1.2,3.6-2.5,5-3.9c1.6-1.7,3-3.4,4-5.3
		c1-1.8,1.7-3.7,2.2-5.5c0.5-1.8,0.8-3.6,0.9-5.4l0.1-1.2L89.8,11.2z"/>
	<path class="st0" d="M45.2,31.1c0.7-1.4,1.5-2.7,2.2-4.1c0.7-1.4,1.4-2.8,2-4.1l-3.1-2.6c-0.7,1.4-1.4,2.9-2.2,4.4
		c-0.8,1.5-1.6,2.9-2.4,4.2c-0.8,1.3-1.5,2.5-2.1,3.4L43,35C43.7,33.8,44.4,32.5,45.2,31.1z M40.8,32.1c0.5-0.8,1.1-1.7,1.7-2.7
		c0.8-1.3,1.6-2.7,2.4-4.2c0.6-1.1,1.2-2.2,1.7-3.3l1.5,1.3c-0.5,1.1-1.1,2.2-1.6,3.4c-0.7,1.4-1.4,2.8-2.2,4.1
		c-0.5,1-1.1,2-1.6,2.9L40.8,32.1z"/>
	<path class="st0" d="M29.9,18.5h-8.2v3.4h8.2V18.5z M22.7,21.2v-1.7h6.2v1.7H22.7z"/>
	<path class="st0" d="M21.7,25.9h8.2v-3.6h-8.2V25.9z M28.9,23.1v1.7h-6.2v-1.7H28.9z"/>
	<path class="st0" d="M2.2,34.8c0.4,0.3,0.7,0.6,0.9,0.9c0.8-1.4,1.5-3,2-4.8c0.5-1.8,0.9-3.6,1.1-5.4c0.3-1.9,0.4-3.7,0.5-5.5
		c0.1-1.8,0.2-3.4,0.2-4.9V6.2h6.3v1.9H8.1v2.5H12c-0.2,0.1-0.3,0.3-0.5,0.4c-0.7,0.6-1.4,1.1-2.2,1.6c-0.8,0.5-1.6,0.8-2.4,1.1
		c0.3,0.3,0.7,0.6,1.1,1.1C8.5,15.3,8.8,15.7,9,16c0.8-0.4,1.7-0.9,2.5-1.5c0.6-0.5,1.2-1,1.7-1.6V16h3v-3c0.2,0.1,0.4,0.3,0.6,0.4
		c0.5,0.3,0.9,0.6,1.3,0.9c0.3,0.2,0.5,0.3,0.7,0.5l-0.2,0c-0.2,0.4-0.4,0.9-0.6,1.5c-0.1,0.3-0.2,0.5-0.4,0.8h-8v10.1h4.2
		c-0.2,0.7-0.6,1.4-1,2c-0.5,0.7-1.4,1.3-2.5,1.9c-1.1,0.5-2.6,1-4.6,1.4C6,32.7,6.2,33,6.5,33.4c0.3,0.4,0.6,0.8,0.8,1.2
		c0.3,0.4,0.4,0.8,0.5,1.1c2.3-0.6,4.1-1.3,5.5-2.1c1.3-0.8,2.4-1.8,3.1-2.9c0.6-1,1-2.1,1.3-3.4h2.9v4.3c0,1,0.1,1.8,0.4,2.3
		c0.3,0.6,0.8,0.9,1.5,1.2c0.7,0.2,1.8,0.3,3.1,0.3c0.2,0,0.5,0,0.9,0s0.9,0,1.4,0c0.5,0,1.1,0,1.6,0c0.5,0,1,0,1.4,0s0.7,0,0.9,0
		c1,0,1.7-0.1,2.3-0.3c0.6-0.2,1-0.6,1.3-1.2c0.3-0.6,0.5-1.4,0.6-2.5c-0.5-0.1-1-0.3-1.6-0.5c0,0-0.1,0-0.1,0
		c-0.2-0.5-0.5-1-0.8-1.6c-0.4-0.7-0.8-1.3-1.3-1.8L30.1,28c0.3,0.4,0.5,0.8,0.8,1.2c-0.8,0-1.5,0.1-2.3,0.1
		c0.1-0.2,0.1-0.4,0.2-0.6c0.2-0.5,0.4-1,0.6-1.4h3.2V17.1H21.3c0.3-0.4,0.7-0.9,1-1.3c0.1,0.1,0.1,0.2,0.2,0.2
		c0.8-0.4,1.6-0.9,2.4-1.5c0.6-0.5,1.2-1,1.7-1.6V16h3v-3.2c0.6,0.6,1.3,1.2,2.1,1.8c0.8,0.6,1.5,1.1,2.3,1.5c0.3-0.4,0.6-0.8,1-1.2
		c0.4-0.4,0.8-0.8,1.1-1c-0.7-0.3-1.5-0.7-2.2-1.1c-0.8-0.4-1.5-0.9-2.2-1.4c-0.3-0.2-0.5-0.4-0.7-0.6h4.3V8.1h-5.5V6.2h6V2.8H21.4
		V0h-4.3v2.8H6.9H5.5H3.1V15c0,1.4,0,2.8-0.1,4.4C3,21,2.9,22.5,2.7,24.2c-0.2,1.6-0.5,3.2-0.9,4.7c-0.4,1.5-1,3-1.7,4.3
		c0.3,0.1,0.6,0.3,1,0.6C1.4,34.1,1.8,34.4,2.2,34.8z M18.7,13.6c-0.4-0.3-0.9-0.6-1.3-0.9l-1.3-0.8l0.6,0.2c0.5,0.2,1,0.4,1.5,0.7
		c0.4,0.2,0.8,0.4,1.2,0.6l-0.4,0.4C18.9,13.7,18.8,13.6,18.7,13.6z M31.9,28.5c0.3,0.4,0.5,0.8,0.8,1.2c0.1,0.3,0.3,0.5,0.4,0.7
		l-0.4,0.1c0,0-0.2-0.4-0.2-0.4l0.1,0c0,0-0.9-1.5-1-1.5L31.9,28.5z M28.7,31.2c1-0.1,2-0.2,3.1-0.3c0.1,0.3,0.3,0.6,0.3,0.9
		l0.7-0.3c0,0,0,0.1,0,0.1c-0.1,0.4-0.3,0.6-0.5,0.7c-0.2,0.1-0.5,0.2-0.9,0.2c-0.2,0-0.6,0-1.1,0c-0.5,0-1.1,0-1.7,0
		c-0.6,0-1.1,0-1.6,0c-0.5,0-0.8,0-1,0c-0.8,0-1.3-0.1-1.6-0.2c-0.2-0.1-0.4-0.4-0.4-0.9v-4.3h2.7c0,0.2-0.1,0.4-0.1,0.6
		c-0.1,0.6-0.2,1-0.4,1.5c-0.5,0-0.9,0-1.3,0.1l0.4,2.1C26.4,31.4,27.6,31.3,28.7,31.2z M31.6,18.1v8.1h-2.9l-0.3,0.6
		c-0.2,0.5-0.4,1-0.6,1.5l-0.7,2l0.9,0c-0.7,0.1-1.3,0.1-2,0.2l0-0.1c0.1,0,0.9,0,0.9,0l0.2-0.7c0.1-0.5,0.3-1,0.4-1.6l0.4-1.8h-4.9
		v5.3c0,1.1,0.5,1.5,0.9,1.8c0.4,0.2,1,0.3,2,0.3h5.4c0.6,0,1-0.1,1.4-0.2c0.5-0.2,0.8-0.7,1-1.3l0.1-0.4l0.3,0.1
		c0.3,0.1,0.5,0.2,0.8,0.3c-0.1,0.5-0.2,1-0.4,1.3c-0.2,0.4-0.4,0.6-0.8,0.8c-0.4,0.2-1.1,0.3-1.9,0.3h-6.2c-1.2,0-2.2-0.1-2.8-0.3
		c-0.6-0.2-0.8-0.5-0.9-0.6c-0.1-0.3-0.3-0.8-0.3-1.9v-5.3h-4.7L16.8,27c-0.3,1.2-0.7,2.2-1.2,3.1c-0.6,1-1.5,1.9-2.7,2.6
		c-1.1,0.7-2.6,1.3-4.4,1.8c-0.1-0.1-0.2-0.3-0.3-0.4c-0.2-0.3-0.4-0.6-0.6-0.9c1.3-0.3,2.3-0.7,3.2-1.1c1.3-0.6,2.2-1.3,2.8-2.2
		c0.5-0.7,0.9-1.4,1.1-2.3l0.4-1.3h-4.6v-8.1h7.6l0.3-0.6c0.1-0.3,0.3-0.5,0.4-0.8c0.1-0.3,0.3-0.6,0.4-0.8l1.6,0.2
		c-0.1,0.1-0.2,0.2-0.3,0.3l-1.3,1.6H31.6z M19.2,14.9l1.7-1.9c-0.2-0.1-0.5-0.3-0.9-0.5c-0.4-0.2-0.9-0.4-1.4-0.7
		c-0.5-0.2-1-0.5-1.5-0.7c-0.4-0.2-0.7-0.3-0.9-0.4v-0.1h4.8V8.1h-4.8V6.2h10.4v1.9H22v2.5h3.3c-0.2,0.1-0.3,0.3-0.5,0.4
		c-0.7,0.6-1.4,1.1-2.1,1.6c-0.8,0.5-1.6,0.8-2.3,1.1c0.3,0.3,0.7,0.6,1.1,1.1c0.1,0.2,0.2,0.3,0.4,0.4L19.2,14.9z M2.7,29.2
		c0.4-1.6,0.8-3.2,1-4.9C3.9,22.6,4,21,4,19.4c0.1-1.6,0.1-3.1,0.1-4.4V3.8h14.1V1h2.3v2.8h14.1v1.4h-6v3.9h5.5v0.5h-5.9l2,1.7
		c0.2,0.2,0.5,0.4,0.8,0.6c0.7,0.6,1.5,1.1,2.3,1.5c0.3,0.2,0.7,0.4,1,0.5c0,0-0.1,0.1-0.1,0.1c-0.2,0.2-0.3,0.4-0.5,0.6
		c-0.5-0.3-0.9-0.6-1.4-1c-0.7-0.5-1.3-1.1-2-1.7l-1.7-1.6V15h-1v-4.6l-1.7,1.8c-0.6,0.6-1.1,1.1-1.6,1.5c-0.5,0.4-1,0.7-1.5,1
		l-0.4-0.6l0,0c0,0,0,0,0,0c0.4-0.2,0.7-0.4,1.1-0.6c0.8-0.5,1.6-1.1,2.3-1.7c0.1-0.1,0.2-0.2,0.4-0.3l1.9-1.8H23V9.1h4.5V5.2H15.1
		v3.9h4.8v0.5h-4.8V15h-1v-4.6l-1.7,1.8c-0.6,0.6-1.1,1.1-1.6,1.5c-0.5,0.4-1,0.7-1.5,1c-0.1-0.2-0.3-0.3-0.4-0.5c0,0,0-0.1-0.1-0.1
		c0.4-0.2,0.8-0.4,1.1-0.6c0.8-0.5,1.6-1,2.3-1.6c0.1-0.1,0.3-0.2,0.4-0.3l1.9-1.9H9.1V9.1h5.1V5.2H5.9V15c0,1.5-0.1,3.1-0.2,4.9
		c-0.1,1.8-0.3,3.6-0.5,5.4c-0.2,1.8-0.6,3.6-1.1,5.3c-0.3,1.2-0.8,2.4-1.3,3.4c-0.4-0.4-0.8-0.7-1.2-1c-0.1-0.1-0.2-0.1-0.3-0.2
		C1.9,31.7,2.3,30.4,2.7,29.2z"/>
	<path class="st0" d="M12,21.9h8.1v-3.4H12V21.9z M13,19.5h6.1v1.7H13V19.5z"/>
	<path class="st0" d="M12,25.9h8.1v-3.6H12V25.9z M19.2,23.1v1.7H13v-1.7H19.2z"/>
	<polygon class="st0" points="60.5,18.6 61.1,18.4 61.3,18.3 60.5,18.3 	"/>
	<path class="st0" d="M59.7,19l-0.1,0.3l0.1,0C59.7,19.2,59.7,19.1,59.7,19L59.7,19z"/>
	<path class="st0" d="M59.9,18.7L59.7,19l0,0C59.8,18.9,59.8,18.8,59.9,18.7z"/>
	<polygon class="st0" points="59.9,18.7 60.5,18.6 60.5,18.3 61.3,18.3 60.1,18.3 	"/>
	<path class="st0" d="M60.6,19.3c-0.1,0.3-0.3,0.6-0.4,1l0,0l0.5-1h-0.3L60.6,19.3z"/>
	<path class="st0" d="M61.3,18.4l-0.2,0l-0.6,0.4l-0.2,1.3l-0.5-0.9l-0.1,0.1c-0.3,0.9-0.1,1.3-0.1,1.3l0.7-0.3
		c0.1-0.3,0.3-0.6,0.4-1l-0.1,0h0.3l0,0L61.3,18.4z"/>
	<polygon class="st0" points="59.9,18.7 59.9,18.7 59.9,18.7 	"/>
	<polygon class="st0" points="60.3,20.1 60.4,18.8 59.8,19.2 	"/>
	<polygon class="st0" points="60.4,18.8 61.1,18.4 60.5,18.6 	"/>
	<path class="st0" d="M59.7,19c0,0.1,0,0.1-0.1,0.2l0.1-0.1L59.7,19z"/>
	<path class="st0" d="M59.9,18.7L59.9,18.7c-0.1,0.1-0.1,0.2-0.1,0.3l0.1,0.1l0.6-0.4l0-0.2L59.9,18.7z"/>
</g>
</svg>
