<?xml version="1.0" encoding="utf-8"?>
<!-- Generator: Adobe Illustrator 27.9.1, SVG Export Plug-In . SVG Version: 6.00 Build 0)  -->
<svg version="1.1" id="Layer_1" xmlns:inkscape="http://www.inkscape.org/namespaces/inkscape"
	 xmlns="http://www.w3.org/2000/svg" xmlns:xlink="http://www.w3.org/1999/xlink" x="0px" y="0px" viewBox="0 0 178.8 32.7"
	 style="enable-background:new 0 0 178.8 32.7;" xml:space="preserve">
<style type="text/css">
	.st0{fill:#070707;}
</style>
<g>
	<path class="st0" d="M0.3,5.8l7.8-0.1L8,6.8H2c0.1,2.4,0.1,4.4,0.1,6l0,2.3l30.7-0.3l0.1-4.8c0-2.1-1.1-3.1-3.3-3.2h-3.9l0.1-1.4
		l8.5-0.1l-0.4-3.9L26,1.6V0.1L21,0l0,1.7l-8.2,0.1L12.6,0L7.6,0.3l0.1,1.6l-7.5,0L0.3,5.8z M23.9,9.9c2.1,0,3.3,0.1,3.6,0.1
		c0.3,0,0.5,0.2,0.5,0.5c0,0.3,0,0.6,0,0.9l-4.2,0.1V9.9z M19.3,11.7l-4.4,0v-1.6l4.4-0.1V11.7z M20.6,5.6c-0.1,0.3-0.1,0.7-0.2,1.3
		h-7.1l0-1.2L20.6,5.6z M10.5,11.7H6.6v-1.5l3.8-0.1V11.7z"/>
	<path class="st0" d="M31,15.8c-1.6,0-3.2,0-4.8,0c-8.3,0-17,0.3-26.1,0.8C0,18.1,0,19.4,0,20.5c0,0.4,0.1,1.6,0.2,3.4l3.7,0l2.2,3
		c2.4-0.5,4.4-1.3,6.2-2.4c4.2-0.1,7.2-0.2,9.2-0.2c1.6,0,2.4,0.1,2.4,0.3c0,0.2-0.7,0.5-2,1c-1,0.4-2.1,0.9-3.5,1.3
		c-1.3-0.8-3.1-1.5-5.5-2.2l-4.7,2.1c2,0.7,3.2,1.1,3.9,1.4c-1.3,0.3-5,0.7-11,1.2l2.2,3.5c5.9-0.3,10.6-0.8,14.1-1.6
		s6.3-1.6,8.2-2.5c2-0.9,3.2-1.7,3.7-2.5s0.8-1.6,0.8-2.5l3.8,0.4c0.3-0.8,0.5-2,0.5-3.8c0-0.7-0.1-1.5-0.2-2.2
		C34,16.6,33,15.9,31,15.8z M5,22.9c-0.1-1.1-0.1-2-0.2-2.7c2-0.1,4-0.3,6.1-0.3C9.7,21,7.7,22,5,22.9z M29.2,21.4
		c-0.4-0.5-1.9-0.7-4.4-0.7l-8.8,0.1l0.7-1c0,0,1.6-0.1,4.6-0.1c2.5,0,4.7,0.1,6.6,0.2c0.8,0.2,1.2,0.6,1.2,1.2V21.4z"/>
	<path class="st0" d="M66.1,9.3c-5.3,1.3-9.7,3-13.3,5c-0.4-0.1-0.8-0.3-0.9-0.4c-0.2-0.1-0.3-0.3-0.3-0.5c0-0.5,0.4-1.9,1.1-4.2
		C55.9,8.8,59,8.6,62,8.6c0.3,0,0.7,0,1.1,0l0.3-5.3c-0.8,0-1.7-0.1-2.6-0.1c-2,0-4.1,0.1-6.2,0.3c0.3-0.8,0.6-1.5,0.9-2l-5.8-1
		c-0.5,1.2-0.9,2.5-1.3,3.7c-2.6,0.4-5.1,0.9-7.5,1.4l0.9,5.5c1.6-0.4,3.2-0.7,4.8-1c-0.6,2.5-1,4.2-1,5.2c0,0.6,0.2,1.2,0.5,1.6
		s0.9,0.8,1.8,1.3c-1.8,2-2.7,4-2.7,6.1c0,4.5,4.2,6.8,12.5,6.8c2.9,0,6-0.3,9.3-0.8l-0.4-5.9c-3.3,0.7-6.6,1.1-9.9,1.1
		c-3.6,0-5.4-0.6-5.4-1.8c0-0.9,0.9-2,2.8-3.3c2.4,0.8,4.8,2,7.3,3.5l2.7-4.8c-1.2-0.8-2.4-1.5-3.7-2c2.5-1,5-1.8,7.5-2.4L66.1,9.3z
		"/>
	<path class="st0" d="M85.6,21.2c-0.9,0.3-1.9,0.6-2.9,0.9l0-5.3l2.9-0.1l-0.3-5.3l-2.6,0.2l-0.1-5l2.9-0.1L85,1.2
		c-2,0.1-3.8,0.2-5.5,0.4c-1.7,0.1-2.9,0.2-3.8,0.2c-0.9,0-1.5,0.1-1.9,0.1l0,5.2l3.4-0.2c0.1,1.8,0.1,3.4,0.1,5
		c-1.9,0.1-3,0.2-3.3,0.2l0,5.2l3.3-0.2c0,2.1-0.1,4.1-0.3,6c-1,0.1-2.1,0.2-3.1,0.3l0.4,5.3c4.4-0.4,8-1.2,11-2.3L85.6,21.2z"/>
	<path class="st0" d="M102.6,27.1c-0.4,0-0.6-0.3-0.7-0.9V24h4.8c0.1-4,0.1-10.4,0.1-19c0-1.9-1.1-2.9-3.4-3
		c-4.4,0-8.3,0.2-11.8,0.6l-0.1-1.3l-5.2,0.4c0.1,2.7,0.2,9.3,0.3,19.5l0,3.1l3.1-0.1c-0.8,1.9-2.5,3.3-5.2,4.2l3.9,3.7
		c3.6-1.7,5.8-4.3,6.5-7.9l1.8,0l0,2.4c0,1,0,1.8,0.1,2.3c0.3,1.9,1.4,2.9,3.2,3c2.9,0,5.4-0.3,7.3-1l0-4.8
		C105,26.7,103.4,27.1,102.6,27.1z M101.2,19.7c-1.7,0.1-4.9,0.1-9.6,0.1v-1.9c0.9,0,4.1-0.2,9.6-0.3L101.2,19.7z M101.4,13.7
		c-5.4,0.2-8.7,0.4-9.7,0.4v-2c4.9-0.1,8.2-0.3,9.7-0.3L101.4,13.7z M101.5,8.1c-1.8,0-5.1,0.1-9.9,0.4V6.6c4.9-0.4,7.7-0.6,8.5-0.6
		c0.5,0,0.8,0,0.9,0.1c0.3,0.1,0.5,0.6,0.5,1.4C101.6,7.9,101.6,8.1,101.5,8.1z"/>
	<path class="st0" d="M143.7,20.4c-2.5,0-7.2,0.2-14,0.3c0.1-0.5,0.2-1.1,0.3-1.7c6.2-0.2,10.2-0.3,12-0.4l-0.3-4.2
		c-1.9,0-5.7,0.2-11.3,0.4c0-0.5,0-1,0-1.5l11.4-0.4l-0.1-1.7l1.4,0.1c0.4-0.8,0.6-2,0.6-3.6c0-1.1-0.1-2-0.2-2.9
		c-0.3-1.7-1.5-2.6-3.6-2.6c-5.2,0-8.4,0-9.7,0.1c-0.1-0.8-0.3-1.5-0.6-2l-6,0.6c0.3,0.8,0.4,1.4,0.4,1.9c-2.9,0.1-7.1,0.4-12.5,0.9
		c-0.1,1.7-0.1,3.2-0.1,4.5c0,0.8,0.1,1.9,0.2,3.4l2-0.1l0,2.2l11.4-0.4c0,0.5,0,1.1-0.1,1.6c-5.2,0.2-8.9,0.3-11.2,0.3l0.1,4.2
		c3.9-0.1,7.4-0.2,10.6-0.3c-0.1,0.6-0.3,1.2-0.4,1.7c-5.3,0.3-9.6,0.4-12.8,0.5l0.1,4.2l10.6-0.3c-1.8,0.9-5.2,1.8-10.1,2.6l2.8,4
		c6.5-1,11.1-3.2,14-6.6c3.6,2.3,6.6,4.6,9.1,6.9l5.8-3.7c-1.8-1.3-3.7-2.5-5.6-3.6c2.5-0.1,4.6-0.1,6.4-0.2L143.7,20.4z M124.9,7.7
		c0,0.5,0,1,0,1.5c-3.4,0.1-6.2,0.2-8.4,0.3c0-0.5-0.1-1.1-0.1-1.7c6.5-0.6,11.6-0.9,15.4-0.9c1.5,0,3,0.1,4.7,0.2
		c0.9,0.2,1.3,0.7,1.3,1.6c-1.9,0.1-4.4,0.2-7.5,0.3c0-0.5,0-1,0-1.4L124.9,7.7z"/>
	<path class="st0" d="M173,10.6c1.8,0,3.5,0.1,5.3,0.2l0.2-5.6c-2.2-0.2-4.4-0.3-6.5-0.3c-3.7,0-7,0.3-9.6,1l0.5,5.6
		C165.5,10.9,168.9,10.6,173,10.6z"/>
	<path class="st0" d="M163.4,19.7l-2.4,5.6c2.3,1.3,4.6,2.3,7,2.8c2.4,0.6,5.3,0.9,8.7,0.9c0.6,0,1.2,0,1.9,0l0.2-6
		c-3.5,0-6.4-0.3-8.6-0.7S165.8,20.9,163.4,19.7z"/>
	<path class="st0" d="M153.5,2.2c-0.7,1.9-1.3,4.1-1.7,6.8s-0.6,5.5-0.6,8.4c0,5.2,0.6,9.6,1.7,13.2l5.9-0.9
		c-1.1-4-1.6-8.2-1.6-12.4c0-4.9,0.7-9.5,2.2-13.9L153.5,2.2z"/>
</g>
</svg>
