<?xml version="1.0" encoding="utf-8"?>
<!-- Generator: Adobe Illustrator 27.9.1, SVG Export Plug-In . SVG Version: 6.00 Build 0)  -->
<svg version="1.1" id="Layer_1" xmlns:inkscape="http://www.inkscape.org/namespaces/inkscape"
	 xmlns="http://www.w3.org/2000/svg" xmlns:xlink="http://www.w3.org/1999/xlink" x="0px" y="0px" viewBox="0 0 71.1 32.1"
	 style="enable-background:new 0 0 71.1 32.1;" xml:space="preserve">
<style type="text/css">
	.st0{fill:#070707;}
</style>
<g>
	<path class="st0" d="M33.8,14.2l-0.2-4.9c-2.5,0-5,0.1-7.5,0.2c0-0.4,0-0.8,0-1.2l0-1.2l5.9-0.3L31.8,2c-2,0-3.9,0.1-5.7,0.2
		c0-0.7,0-1.4-0.1-2.2l-5.2,0.1c0,0.8,0.1,1.5,0.1,2.2c-1.6,0.1-3.5,0.2-5.7,0.3l0.1,4.9c2,0,3.8-0.1,5.6-0.3c0,0.9-0.1,1.7-0.1,2.4
		l-7,0.2v4.9l10.1-0.3c0,1.3,0,2,0,2.3h-0.7c-4.1,0.1-7,0.2-8.7,0.3l0,4.8l2.2,0L14.5,23c1.3,1.5,2.3,3.2,3,5l4.1-2.6
		c-0.5-1.3-1.4-2.5-2.5-3.7l4.8-0.2c0,3-0.1,4.6-0.2,4.8s-0.2,0.3-0.4,0.3c-0.1,0-0.3,0-0.6,0c-0.3,0-1-0.1-1.9-0.4l0.4,5.5
		c1.9,0.1,3.2,0.2,4,0.2c1.1,0,2-0.3,2.6-0.9c0.6-0.5,1-1.5,1.1-2.8c0.1-1.3,0.1-2.5,0.1-3.5l0-3.3c2.7,0,4.3,0,4.8-0.1l-0.2-4.9
		l-4.6,0.1v-2.3C31.7,14.3,33.4,14.3,33.8,14.2z M32.5,17.5l0.1,2.9c-0.8,0-2.1,0-3.7,0l-1,0l0,4.3c0,1,0,2.2-0.1,3.4
		c-0.1,1-0.3,1.7-0.7,2.1c-0.4,0.4-1.1,0.6-2,0.6c-0.6,0-1.7,0-3-0.1l-0.3-3.2c0.4,0.1,0.6,0.1,0.8,0.1c0.3,0,0.6,0,0.7,0
		c0.3,0,0.7-0.2,1.1-0.7c0.2-0.3,0.3-0.5,0.4-5.3l0-1.1l-8,0.3l1.5,1.6c0.8,0.9,1.5,1.7,2,2.6l-2.3,1.5c-0.5-1.1-1.2-2.2-1.9-3.2
		l1.2-0.6l-0.5-1.9l-1.2,0l0-2.8c1.8,0,4.4-0.1,7.8-0.2l1.7,0l-0.1-1.1c0-0.1,0-0.6,0-2.2v-1l-10.1,0.3v-2.9l7-0.2l0.1-0.9
		c0-0.8,0.1-1.6,0.1-2.5l0-1.1l-1.1,0.1c-1.4,0.1-3,0.2-4.5,0.2l0-2.9C18,3.5,19.6,3.4,21,3.3l0.9-0.1V2.3c0-0.4,0-0.8,0-1.2L25.1,1
		c0,0.4,0,0.8,0,1.2v1.1l1.1-0.1c1.5-0.1,3-0.2,4.7-0.2L31,5.9l-5.9,0.3l0.1,2.2c0,0.4,0,0.8,0,1.1l-0.1,1.1l1.1,0
		c2.1-0.1,4.3-0.1,6.5-0.2l0.1,2.9c-0.8,0-2.2,0-3.9,0.1l-1,0v4.3L32.5,17.5z"/>
	<path class="st0" d="M6,23c0,3.9,0,6.7,0,8.5l4.8,0.3V22l3.1-0.9L13.4,16l-2.7,0.7v-4.5l2.4-0.1l-0.3-5.5l-2.2,0.1l0-6.5L6,0.4
		l0,6.3H4.9C5,5.4,5.1,3.5,5.1,1L1,0.8C1,5.6,0.7,10.1,0,14.3l4.2,0.8c0.2-1,0.3-2,0.4-3l1.3,0c0,1.9,0,3.7,0,5.4
		c-2.4,0.5-4.4,0.9-6,1.2l0.9,5.5C2.2,23.8,3.9,23.4,6,23z M6.2,18.5L7,18.3v-7.2l-3.2,0.1L3.7,12c-0.1,0.7-0.2,1.3-0.3,1.9
		l-2.3-0.4C1.7,9.8,1.9,5.9,2,1.9L4.1,2c0,2-0.1,3.6-0.2,4.6L3.9,7.7H7l0-6.3l2.6,0l0,6.6l2.3-0.2l0.2,3.5l-2.4,0.1V18l2.8-0.7
		l0.2,3.1l-3,0.9v9.4l-2.7-0.2c0-1.8,0-4.3,0-7.6v-1.3L5.8,22c-1.6,0.4-2.9,0.7-4,0.9l-0.6-3.4C2.6,19.2,4.3,18.9,6.2,18.5z"/>
	<path class="st0" d="M65.2,0.7c0.5,7.8,0.7,14.7,0.7,20.7l0,3.2c0,1.2-0.6,1.8-1.8,1.8c-2,0-3.5-0.1-4.5-0.3l0.3,5.4
		c1.3,0.2,2.6,0.3,3.7,0.3c3.4,0,5.5-0.6,6.5-1.9c0.6-0.8,1-1.8,1-3.2s0.1-2.9,0.1-4.7c0-4-0.2-11.1-0.5-21.6L65.2,0.7z M70,26.7
		c0,1.1-0.3,2-0.8,2.6c-0.5,0.7-2,1.5-5.8,1.5c-0.8,0-1.7-0.1-2.7-0.2l-0.2-3.3c0.9,0.1,2.1,0.2,3.5,0.2c1.7,0,2.7-1,2.8-2.8l0-3.2
		c0-5.7-0.2-12.4-0.6-19.8l3.4-0.1c0.3,9.8,0.5,16.7,0.5,20.5C70.1,23.8,70,25.3,70,26.7z"/>
	<path class="st0" d="M63.5,21.9v-2.7c0-6.1-0.1-10.7-0.2-14l-4.8,0.2c0.1,1.1,0.1,2.5,0.1,4.2c0,4.1-0.1,8.1-0.3,12.1L63.5,21.9z
		 M59.6,6.4l2.7-0.1c0.1,3.2,0.2,7.6,0.2,13v1.6l-3.1-0.2c0.2-3.6,0.3-7.4,0.3-11.1C59.7,8.4,59.7,7.3,59.6,6.4z"/>
	<path class="st0" d="M50.9,26.3c-0.8,0-1.7-0.1-2.8-0.3l0.5,5.1c2.2,0.2,3.7,0.3,4.5,0.3c2.5,0,3.8-1.5,3.9-4.5
		c0-2.1,0.1-3.9,0.1-5.4c0-0.1,0-0.6,0-1.3s-0.2-1.4-0.7-1.9s-1.2-0.9-2.2-0.9c-0.3,0-0.9,0-1.6,0c-1.2,0-3.3,0-6.2,0.1
		c0.1-0.8,0.2-1.7,0.3-2.7c2.8-0.1,6.1-0.2,9.9-0.3C56.9,11,57,7.6,57,4.3c-0.2-2.4-1.4-3.5-3.6-3.5c-5.5,0-9.2,0.1-11.2,0.3L42,0.2
		L37.3,1c0.2,3.5,0.3,8.2,0.3,14.2c1.2-0.1,2.6-0.1,4.3-0.2v0.7c0,2.4-0.3,4.5-0.9,6.6c-0.8,2.6-2.1,4.8-3.9,6.4l4,3.5
		c2.7-2.9,4.3-6.3,4.8-10.1c2.9-0.2,4.6-0.3,4.9-0.3c0.7,0,1,0.5,1,1.4v2.4C52,26,51.6,26.3,50.9,26.3z M51,20.6c-0.3,0-1,0-5,0.3
		L45.1,21L45,21.8c-0.4,3.3-1.7,6.3-3.9,8.9l-2.5-2.1c1.5-1.6,2.6-3.6,3.3-6c0.6-2.1,1-4.4,1-6.9v-1.8l-1,0
		c-1.2,0.1-2.3,0.1-3.3,0.2c0-5-0.1-9.1-0.3-12.3l2.8-0.4l0.1,0.8l0.9-0.1c2-0.2,5.7-0.3,11.1-0.3c1.1,0,2.3,0.3,2.6,2.6
		c0,2.9-0.1,6-0.3,9.1c-3.4,0.1-6.4,0.2-9,0.3l-0.9,0l0,0.9c0,1-0.1,1.8-0.3,2.6l-0.2,1.2l1.3,0c2.8-0.1,4.9-0.1,6.1-0.1
		c0.7,0,1.2,0,1.5,0c0.7,0.1,1.2,0.2,1.5,0.6c0.3,0.4,0.5,0.8,0.5,1.3c0,0.7,0,1.1,0,1.3c0,1.5,0,3.3-0.1,5.4
		c-0.1,3.1-1.5,3.5-2.9,3.5c-0.7,0-1.9-0.1-3.6-0.2l-0.3-3c0.6,0.1,1.2,0.1,1.7,0.1c0,0,0,0,0,0c1.3,0,2.1-0.8,2.1-2V23
		C53,21.3,51.9,20.6,51,20.6z"/>
	<path class="st0" d="M53,11l0-0.9c0.1-1.4,0.1-2.7,0.1-3.8c0-0.9-0.6-1.9-2.2-1.9c-1.6,0-4.6,0.1-8.8,0.3l-1,0v6.8h1
		c1.7,0,5-0.1,9.9-0.4L53,11z M42.2,10.5V5.6c4.2-0.2,7.1-0.3,8.7-0.3c0.8,0,1.2,0.3,1.2,0.9c0,1.1,0,2.4-0.1,3.7
		C47.2,10.3,43.9,10.5,42.2,10.5z"/>
</g>
</svg>
