<?xml version="1.0" encoding="utf-8"?>
<!-- Generator: Adobe Illustrator 27.9.1, SVG Export Plug-In . SVG Version: 6.00 Build 0)  -->
<svg version="1.1" id="Layer_1" xmlns="http://www.w3.org/2000/svg" xmlns:xlink="http://www.w3.org/1999/xlink" x="0px" y="0px"
	 viewBox="0 0 140.6 65.2" style="enable-background:new 0 0 140.6 65.2;" xml:space="preserve">
<g>
	<path d="M21.7,33c-6.4,0-11.6,5.1-11.6,11.3c0,6.1,5,10.9,11.5,10.9c6.5,0,11.6-4.8,11.6-11C33.1,38,28,33,21.7,33z M21.6,52.7
		c-5.1,0-9-3.7-9-8.4c0-5,4.3-8.8,9.1-8.8s9,3.9,9,8.8C30.6,49,26.6,52.7,21.6,52.7z"/>
	<path d="M31.8,28.5C35,27.6,40,23,40,16.3C40,8,32.3,0,21.6,0C10.9,0,3.4,8.1,3.4,16.4c0,6.1,4.2,11.1,8.2,12.1C7.4,29.2,0,35,0,45
		c0,10.7,8.6,20.2,21.6,20.2c12.9,0,21.6-9.4,21.6-20.2C43.2,34.8,35.3,29.2,31.8,28.5z M21.6,62.7C9.2,62.7,2.5,53.6,2.5,45
		c0-8.9,6.7-13.6,9.5-14.1l0.2-4.9c-3-0.8-6.3-4.9-6.3-9.7c0-6.7,6.3-13.9,15.8-13.9c9.5,0,15.8,7.2,15.8,13.8
		c0,5.6-4.2,9.1-6.3,9.7l0.1,4.8c2.1,0.5,9.4,5,9.4,14.1C40.7,55.1,32.5,62.7,21.6,62.7z"/>
	<path d="M21.7,25.3c4.2,0,8.7-2.5,8.7-8c0-4.8-3.6-8.2-8.7-8.2c-5.1,0-8.7,3.3-8.7,8C13,21.9,16.7,25.3,21.7,25.3z M21.7,11.6
		c3.3,0,6.2,1.9,6.2,5.7c0,4-3.3,5.5-6.2,5.5c-3.2,0-6.2-1.9-6.2-5.7C15.5,13.5,18.4,11.6,21.7,11.6z"/>
	<path d="M80.5,28.5c3.2-0.9,8.1-5.5,8.1-12.1C88.7,8,81,0,70.3,0C59.5,0,52.1,8.1,52.1,16.4c0,6.1,4.1,11.1,8.2,12.1
		C56.1,29.2,48.7,35,48.7,45c0,10.7,8.6,20.2,21.6,20.2c12.9,0,21.6-9.4,21.6-20.2C91.9,34.8,84,29.2,80.5,28.5z M70.3,62.7
		c-12.4,0-19.1-9.1-19.1-17.7c0-8.9,6.7-13.6,9.5-14.1l0.2-4.9c-3-0.8-6.3-4.9-6.3-9.7c0-6.7,6.3-13.9,15.8-13.9
		c9.5,0,15.8,7.2,15.8,13.8c0,5.6-4.2,9.1-6.3,9.7l0.1,4.8c2.1,0.5,9.4,5,9.4,14.1C89.4,55.1,81.2,62.7,70.3,62.7z"/>
	<path d="M70.4,25.3c4.2,0,8.7-2.5,8.7-8c0-4.8-3.6-8.2-8.7-8.2c-5.1,0-8.7,3.3-8.7,8C61.7,21.9,65.3,25.3,70.4,25.3z M70.4,11.6
		c3.3,0,6.2,1.9,6.2,5.7c0,4-3.3,5.5-6.2,5.5c-3.2,0-6.2-1.9-6.2-5.7C64.2,13.5,67.1,11.6,70.4,11.6z"/>
	<path d="M70.4,33C64,33,58.8,38,58.8,44.3c0,6.1,5,10.9,11.5,10.9c6.5,0,11.6-4.8,11.6-11C81.8,38,76.7,33,70.4,33z M70.3,52.7
		c-5.1,0-9-3.7-9-8.4c0-5,4.3-8.8,9.1-8.8s9,3.9,9,8.8C79.3,49,75.3,52.7,70.3,52.7z"/>
	<path d="M129.2,28.5c3.2-0.9,8.1-5.5,8.1-12.1C137.4,8,129.7,0,119,0c-10.8,0-18.3,8.1-18.3,16.4c0,6.1,4.2,11.1,8.2,12.1
		C104.8,29.2,97.4,35,97.4,45c0,10.7,8.6,20.2,21.6,20.2c12.9,0,21.6-9.4,21.6-20.2C140.6,34.8,132.7,29.2,129.2,28.5z M119,62.7
		c-12.4,0-19.1-9.1-19.1-17.7c0-8.9,6.7-13.6,9.5-14.1l0.2-4.9c-3-0.8-6.3-4.9-6.3-9.7c0-6.7,6.3-13.9,15.8-13.9
		c9.5,0,15.8,7.2,15.8,13.8c0,5.6-4.2,9.1-6.3,9.7l0.1,4.8c2.1,0.5,9.4,5,9.4,14.1C138.1,55.1,129.9,62.7,119,62.7z"/>
	<path d="M119.1,33c-6.4,0-11.6,5.1-11.6,11.3c0,6.1,5,10.9,11.5,10.9c6.5,0,11.6-4.8,11.6-11C130.5,38,125.4,33,119.1,33z
		 M118.9,52.7c-5.1,0-9-3.7-9-8.4c0-5,4.3-8.8,9.1-8.8s9,3.9,9,8.8C128,49,124,52.7,118.9,52.7z"/>
	<path d="M119.1,25.3c4.2,0,8.7-2.5,8.7-8c0-4.8-3.6-8.2-8.7-8.2c-5.1,0-8.7,3.3-8.7,8C110.4,21.9,114,25.3,119.1,25.3z M119.1,11.6
		c3.3,0,6.2,1.9,6.2,5.7c0,4-3.3,5.5-6.2,5.5c-3.2,0-6.2-1.9-6.2-5.7C112.9,13.5,115.8,11.6,119.1,11.6z"/>
</g>
</svg>
