<?xml version="1.0" encoding="utf-8"?>
<!-- Generator: Adobe Illustrator 27.9.1, SVG Export Plug-In . SVG Version: 6.00 Build 0)  -->
<svg version="1.1" id="Layer_1" xmlns:inkscape="http://www.inkscape.org/namespaces/inkscape"
	 xmlns="http://www.w3.org/2000/svg" xmlns:xlink="http://www.w3.org/1999/xlink" x="0px" y="0px" viewBox="0 0 216.8 31.8"
	 style="enable-background:new 0 0 216.8 31.8;" xml:space="preserve">
<style type="text/css">
	.st0{fill:#070707;}
</style>
<g>
	<path class="st0" d="M25.3,16c0.6,1.9,1.2,4,1.9,6.3c-2.4,1.5-4.2,2.3-5.6,2.3c-0.2,0-0.3-0.1-0.4-0.3c-0.1-0.1-0.1-0.4-0.1-0.8
		s0-0.8,0.1-1.3c0.3-1.6,2.1-8.3,5.3-19.9l-5.3-1.5c-1.3,5.3-2.5,10-3.7,14.1c-1.2,4.1-1.8,6.7-1.9,8c-0.1,1.2-0.1,2-0.1,2.4
		c0,1.3,0.1,2.2,0.4,2.9c0.4,1,1,1.7,1.7,2c0.8,0.3,1.6,0.5,2.4,0.5c0.8,0,1.7-0.1,2.7-0.3c1.1-0.3,2.8-1,5-2
		c0.1,0.5,0.3,1.4,0.5,2.7l5.3-2c-0.9-5.3-2.1-10.2-3.7-14.5L25.3,16z"/>
	<path class="st0" d="M11.6,15.2l0-0.8l4.3-0.1l-0.2-5.3L11.5,9l-0.1-3.6c1.7-0.3,3.3-0.6,4.6-1L14.6,0C10,1,5.5,1.6,0.9,2l0.9,4.6
		c1.4,0,2.9-0.1,4.3-0.3l0,2.9c-2.1,0-3.9,0.1-5.6,0.1l0.1,5.3l4.6-0.1c-1,3.4-2.7,6.3-5.2,8.5l3.7,4.2C5,25.8,5.8,24.4,6.3,23
		l-0.2,8.5l5.5,0.2V20.9c0.5,0.5,1.1,1.1,1.7,1.7l2.7-3.9C14.3,17.2,12.8,16,11.6,15.2z"/>
	<path class="st0" d="M54.7,2.4c-3.1,0-5.9,0.6-8.3,1.9s-4.3,3.1-5.6,5.5c-1.3,2.4-2,5.1-2,8.1c0,3.2,0.7,5.8,2.2,7.6
		c1.5,1.8,3.5,2.8,6.1,2.8c2.2,0,4-0.7,5.5-2.2c1.4-1.4,2.6-3.5,3.8-6.3s2.1-6.2,2.8-10.2l-5-1.7c2.8,0,5.2,0.8,7,2.5
		c1.8,1.6,2.7,3.8,2.7,6.4c0,1.8-0.5,3.6-1.4,5.5c-1,1.8-2.3,3.5-4.1,5l5.8,3.5c1.9-1.9,3.4-4,4.4-6.3s1.5-4.8,1.5-7.3
		c0-4.4-1.4-7.9-4.3-10.6C63.1,3.7,59.3,2.4,54.7,2.4z M50,18.4c-1,2.2-2.1,3.4-3.2,3.4c-0.7,0-1.2-0.4-1.6-1.2
		c-0.4-0.8-0.6-1.9-0.6-3.2c0-2.7,0.8-4.9,2.3-6.5c1.5-1.7,3.6-2.7,6.3-2.9C52.1,12.7,51,16.1,50,18.4z"/>
	<path class="st0" d="M101,14.6v-2c0.9,0.6,1.8,1.4,2.8,2.3l3-2.3c-1-1-2.3-2-3.8-2.9l2.6-0.1l-0.2-3c-1.7,0-3.2,0-4.3,0.1l0-1
		c2.4,0,4.1-0.1,5-0.1l-0.4-4C103,1.7,99.1,1.7,94,1.7c-0.2-0.6-0.6-1.2-1.1-1.7l-5.4,0.6c0.6,0.6,1,1.1,1.1,1.3
		c-2.4,0.1-5,0.2-7.9,0.3l0-1.2l-5.4,0.1C75.4,3,75.4,4.6,75.4,6c0,13.2-0.8,21-2.3,23.2l5.8,1.2c0.9-3,1.4-8.8,1.6-17.6l0.8,2.2
		c1.7-0.6,3-1.4,4.1-2.4l-0.1,1.9l3.9,0l0-2.6c0.4,0.2,0.8,0.5,1.3,0.8l2.2-2.1c-0.6-0.3-1.4-0.6-2.2-0.9l2,0l-0.1-3.1l-3.2,0.1V6
		l8.2-0.2l0,1c-1.3,0-2.7,0-4.2,0l0.1,3l2.3,0c-0.7,0.5-1.7,1-3,1.5l1,2.8l-3.8-0.5c-0.2,0.7-0.3,1.2-0.4,1.5l-2.8,0l-0.1-0.4L82,15
		c0.3,1.7,0.4,4.5,0.4,8.3l0,1.5l6-0.1c-1.3,1.4-4.1,2.4-8.4,3.2l2,3.7c4.2-0.7,7.4-2.2,9.8-4.4c0,1.4,0,2.3,0.1,2.6
		c0.2,1.1,1.1,1.7,2.6,1.7c4.5,0,8.3-0.2,11.5-0.7l0-3c-4.1,0.5-7.2,0.7-9.2,0.7c-0.5,0-0.7-0.1-0.7-0.4l-0.1-3.6l1.3,0
		c-0.6,0.7-0.9,1.3-0.9,2c0,0.7,0.3,1.1,0.8,1.3c0.1,0,0.4,0,0.9,0c0.8,0,1.9,0,3.4-0.1v0.4l3.7-0.4c-0.1-1.4-0.4-2.4-0.8-3.3h0
		c0-0.7,0.1-1.7,0.1-2.7c0-1.2,0-2.9-0.1-5.1c0-1.3-0.7-1.9-2-1.9c-2.6,0-5.4,0-8.6,0.1l0.4-0.9h0.4c0.8-0.2,1.8-0.8,3-1.9
		c0,0.3,0,1.1-0.1,2.2L101,14.6z M85.2,6.8c-1,0-2.3,0-3.9,0l0.1,3l2.1,0c-0.7,0.5-1.6,1-2.9,1.4c0-1.5,0-3.2,0-5.2L85.2,6V6.8z
		 M90.5,21.9c-1.2,0-2.4,0-3.7,0V21l4.2,0C90.8,21.1,90.7,21.4,90.5,21.9z M91.2,18.3v0.2l-4.5,0.1v-0.8l4.5-0.1V18.3z M103.2,24.7
		l-2.3,0.4c0.1,0.3,0.2,0.4,0.3,0.5l-0.6,0c-0.3,0-0.5,0-0.5,0c0,0,0.2-0.3,0.6-0.9L103.2,24.7z M95.5,17.6l3.9,0
		c0.4,0,0.7,0.1,0.7,0.4v0.5l-4.6,0V17.6z M95.3,20.9l4.7,0l0,1c-1.1,0-2.8,0.1-5,0.1C95.1,21.5,95.2,21.2,95.3,20.9z"/>
	<path class="st0" d="M144.4,18l-0.3-5c-2.4,0.1-5.4,0.2-8.9,0.4l0-3.7c4.1-0.1,6.5-0.3,7.1-0.4l-0.3-5.6c-2.1,0.1-4.4,0.2-6.9,0.4
		c-0.1-0.9-0.1-2.2-0.1-3.9l-5.2,0.2l0,4c-2.4,0-4.8,0.1-7.3,0.2l0.1,5.6l7.2-0.3c0,1.1,0,2.4-0.1,3.8c-2.7,0.1-5.6,0.2-8.4,0.3
		l0.2,5.2c2,0,3.6-0.1,4.9-0.1c-1.8,3.3-2.8,5.6-2.9,6.9c-0.1,0.3-0.1,0.7-0.1,1.3c0,2.2,0.7,3.5,2.2,3.9c0.8,0.3,1.7,0.4,2.8,0.4
		c3.9,0,7.4-0.6,10.3-1.8l0.5,2.1l5.1-2.4c-0.8-3.1-2.3-6.4-4.5-9.9l-4.7,1.5c0.7,1.2,1.3,2.4,1.7,3.8c-2.4,0.9-4.6,1.4-6.4,1.4
		h-0.3c-0.4,0-0.7-0.3-0.7-0.9c0-0.5,1-2.7,3-6.6C139.3,18.4,143.3,18.2,144.4,18z"/>
	<path class="st0" d="M111.2,28.9l5.8,2.8c2.1-2.9,3.4-7.2,3.9-12.7l-4.9-1.5C115.5,21.5,113.9,25.4,111.2,28.9z"/>
	<path class="st0" d="M115.4,8.7l-5,2.6c2.3,1.9,4.1,3.6,5.3,5.3l5.5-2.7C119.4,11.7,117.5,10,115.4,8.7z"/>
	<path class="st0" d="M116,7.8l5.6-2.6c-1.7-2.2-3.6-3.8-5.6-4.9l-5.1,2.2C113.1,4.3,114.8,6.1,116,7.8z"/>
	<path class="st0" d="M165,2.4c-3.1,0-5.9,0.6-8.3,1.9s-4.3,3.1-5.6,5.5c-1.3,2.4-2,5.1-2,8.1c0,3.2,0.7,5.8,2.2,7.6
		c1.5,1.8,3.5,2.8,6.1,2.8c2.2,0,4-0.7,5.5-2.2c1.4-1.4,2.6-3.5,3.8-6.3c1.1-2.8,2.1-6.2,2.8-10.2l-5-1.7c2.8,0,5.2,0.8,7,2.5
		c1.8,1.6,2.7,3.8,2.7,6.4c0,1.8-0.5,3.6-1.4,5.5c-1,1.8-2.3,3.5-4.1,5l5.8,3.5c1.9-1.9,3.4-4,4.4-6.3c1-2.3,1.5-4.8,1.5-7.3
		c0-4.4-1.4-7.9-4.3-10.6C173.4,3.7,169.7,2.4,165,2.4z M160.3,18.4c-1,2.2-2.1,3.4-3.2,3.4c-0.7,0-1.2-0.4-1.6-1.2
		c-0.4-0.8-0.6-1.9-0.6-3.2c0-2.7,0.8-4.9,2.3-6.5c1.5-1.7,3.6-2.7,6.3-2.9C162.4,12.7,161.4,16.1,160.3,18.4z"/>
	<path class="st0" d="M212.3,7.4c-1.5-0.2-3.3-0.4-5.3-0.4c-1.9,0-4,0-6.3,0.1c0.2-1.8,0.4-4,0.5-6.7l-5.9-0.2
		c0,2.9-0.2,5.3-0.5,7.3c-3.1,0.2-6.8,0.4-10.9,0.7l0.3,5.6c3.8-0.2,7-0.4,9.6-0.5c-0.8,5.7-4,10.7-9.4,15.1l6.2,3.3
		c5.4-5,8.6-11.3,9.5-18.8c2.5-0.1,4.4-0.1,5.6-0.1c1.9,0,3.1,0.1,3.6,0.4c1,0.5,1.5,1.2,1.6,2c0.1,0.8,0.1,1.8,0.1,2.9
		c0,3.3-0.2,5.4-0.6,6.3c-0.2,0.7-1,1.1-2.2,1.1c-1.7,0-3.5-0.4-5.2-1.3l0,6.2c1.9,0.7,3.5,1.1,4.7,1.2c1.2,0.1,1.9,0.2,2.1,0.2
		c1.5,0,2.8-0.2,3.7-0.7c0.9-0.5,1.6-1.4,2-2.7c0.4-1.3,0.7-3.2,0.9-5.5c0.2-2.3,0.2-4.4,0.2-6.1c0-3.1-0.4-5.5-1.2-7
		C214.9,8.4,213.8,7.7,212.3,7.4z"/>
</g>
</svg>
