<?xml version="1.0" encoding="utf-8"?>
<!-- Generator: Adobe Illustrator 27.9.1, SVG Export Plug-In . SVG Version: 6.00 Build 0)  -->
<svg version="1.1" id="Layer_1" xmlns:inkscape="http://www.inkscape.org/namespaces/inkscape"
	 xmlns="http://www.w3.org/2000/svg" xmlns:xlink="http://www.w3.org/1999/xlink" x="0px" y="0px" viewBox="0 0 177 31.8"
	 style="enable-background:new 0 0 177 31.8;" xml:space="preserve">
<style type="text/css">
	.st0{fill:#070707;}
</style>
<g>
	<path class="st0" d="M22.9,7.6c-2-3.4-4.3-5.9-6.9-7.6l-4.8,2.5c3.1,2.8,5.4,5.5,6.9,8.2L22.9,7.6z M12.9,2.7l3-1.6
		c2.1,1.5,4,3.5,5.6,6.2l-3.1,1.9C17,7.1,15.2,4.9,12.9,2.7z"/>
	<path class="st0" d="M33.4,20.5c-1.9-4.2-4.2-7.3-6.9-9.5l-4.8,2.5c2.5,2.7,4.7,6.1,6.4,10L33.4,20.5z M26.4,12.1
		c2.1,1.9,4.1,4.6,5.7,7.9l-3.4,2c-1.5-3.2-3.2-6-5.3-8.3L26.4,12.1z"/>
	<path class="st0" d="M9.2,26.8c0.3,3.1,2.2,4.7,5.8,4.9c4.3,0,8.4-0.7,12.2-1.9l0-6.1c-3.8,1.3-7.3,2-10.6,2.2
		c-1.4,0.1-2-0.5-2-1.8c-0.1-9.2-0.1-14.3-0.1-15.5L8.8,9C8.9,19.2,9.1,25.1,9.2,26.8z M13.4,9.6c0,2.2,0.1,6.9,0.1,14.4
		c0,0.9,0.3,1.6,0.8,2c0.5,0.5,1.2,0.7,2.1,0.7c0.1,0,0.2,0,0.3,0c3-0.2,6.2-0.8,9.6-1.9l0,4c-3.6,1.1-7.3,1.6-11.2,1.7
		c-4-0.2-4.7-2.4-4.8-4c-0.1-1.5-0.3-7.2-0.4-16.7L13.4,9.6z"/>
	<path class="st0" d="M6.9,11.2l-4.9-0.4c0,4.3-0.6,8.5-1.9,12.7l5.3,2.5C6.6,21,7.1,16,6.9,11.2z M1.2,23.1c1-3.6,1.6-7.4,1.7-11.1
		l3,0.2c0.1,4-0.3,8.2-1.3,12.5L1.2,23.1z"/>
	<path class="st0" d="M40.6,9.9c-1.3,2.4-2,5.1-2,8.1c0,3.2,0.7,5.8,2.2,7.6c1.5,1.8,3.5,2.8,6.1,2.8c2.2,0,4-0.7,5.5-2.2
		c1.4-1.4,2.6-3.5,3.8-6.3c1.1-2.8,2.1-6.2,2.8-10.2l-5-1.7c2.8,0,5.2,0.8,7,2.5c1.8,1.6,2.7,3.8,2.7,6.4c0,1.8-0.5,3.6-1.4,5.5
		c-1,1.8-2.3,3.5-4.1,5l5.8,3.5c1.9-1.9,3.4-4,4.4-6.3c1-2.3,1.5-4.8,1.5-7.3c0-4.4-1.4-7.9-4.3-10.6c-2.8-2.7-6.6-4.1-11.2-4.1
		c-3.1,0-5.9,0.6-8.3,1.9S41.9,7.5,40.6,9.9z M54.5,3.4c4.3,0,7.9,1.3,10.5,3.8c2.7,2.5,4,5.8,4,9.9c0,2.4-0.5,4.7-1.5,6.9
		c-0.9,2-2.1,3.8-3.6,5.5l-4-2.4c1.4-1.4,2.5-2.8,3.3-4.4c1-2,1.6-4,1.6-5.9c0-2.9-1-5.3-3-7.1c-1.9-1.8-4.5-2.7-7.5-2.7l0-0.1
		l-1.4,0.1C50,7.2,47.7,8.3,46,10.1c-1.7,1.9-2.6,4.3-2.6,7.2c0,1.5,0.2,2.7,0.7,3.7c0.7,1.4,1.8,1.7,2.5,1.7c1.5,0,2.8-1.3,4.1-3.9
		c1-2.2,2.1-5.5,3.1-10l4.1,1.4c-0.7,3.6-1.6,6.7-2.6,9.2c-1.1,2.7-2.3,4.7-3.5,5.9c-1.3,1.3-2.9,1.9-4.8,1.9c-2.3,0-4-0.8-5.3-2.4
		c-1.3-1.7-2-4-2-7c0-2.8,0.6-5.4,1.9-7.6c1.2-2.2,3-3.9,5.2-5.1C48.9,4,51.6,3.4,54.5,3.4z M53,7.9c-1.1,4.8-2.2,8.2-3.2,10.5
		c-1,2.2-2.1,3.4-3.2,3.4c-0.7,0-1.2-0.4-1.6-1.2c-0.4-0.8-0.6-1.9-0.6-3.2c0-2.7,0.8-4.9,2.3-6.5C48.3,9.1,50.4,8.2,53,7.9z"/>
	<path class="st0" d="M86.2,17.8l1,0c1.5,0,3.8-0.1,6.7-0.2l1.1,0l-0.1-1c-0.1-1-0.1-1.8-0.1-2.4l0-1l-1,0c-3,0.1-5.2,0.2-6.6,0.2
		l-1,0L86.2,17.8z M87.3,14.4c1.4,0,3.6-0.1,6.6-0.2c0,0.6,0.1,1.5,0.1,2.4c-3,0.1-5.2,0.1-6.8,0.2L87.3,14.4z"/>
	<path class="st0" d="M82.6,9.1c-0.1,4.8-0.2,8.8-0.2,11.9c0,2.6,0,4.9,0.1,7.1c0.1,2.2,1.1,3.4,2.9,3.5h0.8
		c1.9-0.3,3.4-0.9,4.5-1.9l-0.3-2.9c0.5,1.4,1,2.8,1.4,4.3l4.6-1.7c-0.8-2.7-1.9-4.9-3.3-6.8l-4,1.4l0.5,1c-0.9,0.7-1.5,1-1.8,1
		c-0.4,0-0.6-0.2-0.6-0.7l0-3.6c1.8,0,4.2-0.1,7.2-0.2c0.9,3.4,2,6,3.3,7.8c1.3,1.7,2.9,2.6,4.7,2.6c2.1-0.2,3.4-1.5,4-4l-2.7-4.4
		c-0.4,1.2-0.6,1.8-0.8,1.9c-0.1,0.1-0.3,0.2-0.4,0.3c-0.1,0-0.2,0.1-0.3,0.1c-0.4,0-0.8-0.2-1.1-0.7c-0.3-0.5-0.6-1-0.9-1.5
		c-0.3-0.5-0.5-1.3-0.7-2.2c2.3,0,4.6-0.2,6.7-0.4l-0.4-4.7c-2.7,0.1-5,0.2-7,0.3c-0.1-0.7-0.2-1.6-0.4-2.6c3.5-0.3,5.9-0.7,7.2-1.3
		l-1.4-4.2c-4,0.8-9.7,1.2-17,1.4V8.6L82.6,9.1z M87.3,10.7c6.9-0.1,12.4-0.6,16.3-1.2l0.8,2.5c-1,0.3-2.9,0.6-6,0.9l-1,0.1l0.1,1
		c0.1,1,0.3,1.9,0.4,2.6l0.1,0.9c0,0,4.6-0.2,6.9-0.3l0.3,2.8c-1.8,0.2-3.7,0.3-5.6,0.3l-1.2,0l0.2,1.2c0.2,1,0.5,1.8,0.8,2.5
		c0.3,0.6,0.6,1.2,1,1.7c0.7,0.9,1.4,1.1,1.9,1.1c0.2,0,0.4-0.1,0.7-0.2c0.2-0.1,0.4-0.3,0.7-0.5c0.1-0.1,0.2-0.2,0.3-0.4l1.4,2.3
		c-0.6,2.3-2,2.7-2.9,2.8c-1.5,0-2.8-0.7-3.9-2.2c-1.3-1.6-2.3-4.1-3.1-7.4l-0.2-0.8l-0.8,0c-3,0.1-5.4,0.1-7.2,0.2l-1,0l0,4.6
		c0,1.2,0.8,1.7,1.6,1.7c0.5,0,1.1-0.2,2.4-1.2l0.7-0.5l-0.4-0.7l2.2-0.8c1,1.4,1.8,3.1,2.4,5l-2.7,1c-0.4-1.1-0.7-2.2-1.2-3.3
		l-1.9,0.5l0.2,2.4c-0.9,0.6-2,1.1-3.5,1.3h-0.7c-0.9-0.1-1.9-0.4-1.9-2.5c-0.1-2.1-0.1-4.5-0.1-7.1c0-2.9,0.1-6.7,0.2-11l2.7-0.3v1
		L87.3,10.7z"/>
	<path class="st0" d="M79.2,31.7c1-3.7,1.5-11.7,1.7-24c3.6-0.1,7.4-0.2,11.6-0.4c8.3-0.2,13.1-0.4,14.4-0.5l-0.4-5.2
		c-2.5,0.1-6.2,0.2-10.9,0.4c-0.2-0.6-0.6-1.2-1.3-1.9l-5.4,0.6c0.3,0.5,0.6,1.1,0.9,1.6c-3.5,0.1-6.4,0.2-8.8,0.2V2.4l0-1l-5.3,0.1
		c0,1.9,0,3.5,0,4.8c0,10.9-0.8,18.9-2.5,24.2L79.2,31.7z M76.6,2.5l3.3,0l0,1l1,0.1c2.4,0,5.3-0.1,8.8-0.2l1.7,0c0,0-1-1.6-1-1.7
		l3.3-0.4c0.5,0.6,0.7,0.9,0.7,1.2L94.8,3l0.8,0c4.2-0.2,7.5-0.3,10-0.4l0.3,3.3c-2.1,0.1-6.5,0.2-13.3,0.4c-4.1,0.2-8,0.3-11.6,0.4
		l-1,0l0,1c-0.2,11.2-0.6,18.9-1.5,22.9l-4-0.8c1.5-5.3,2.2-13.2,2.2-23.4C76.7,5.2,76.7,3.9,76.6,2.5z"/>
	<path class="st0" d="M138.9,18.4l5.6-2.6c-0.8-2.1-1.9-4.4-3.2-6.9c-1.3-2.5-2.5-4.6-3.7-6.2L132,5.2c1.2,1.5,2.4,3.5,3.7,6
		C137,13.7,138.1,16.1,138.9,18.4z M137.3,3.9c1,1.5,2,3.3,3.1,5.4c1.1,2.1,2,4.1,2.8,6l-3.8,1.7c-0.8-2-1.8-4.2-2.9-6.3
		c-1.1-2-2.1-3.7-3.1-5.1L137.3,3.9z"/>
	<path class="st0" d="M123.1,0.9c-0.7,2.1-1.5,4.3-2.4,6.8c-2.5,0.2-5.2,0.6-8.1,1.1l1.1,5.8c1.6-0.3,3.2-0.6,4.8-0.8
		c-2.3,6.5-4.1,11.5-5.3,15l5.8,1.8c1.5-4.6,3.5-10.5,6-17.5c0.7,0,1.6,0,2.5,0c1,0,1.6,0.2,1.9,0.5c0.3,0.3,0.4,1.1,0.4,2.5
		c0,2.8-0.3,5-0.8,6.6c-0.6,1.6-1.3,2.4-2.3,2.4c-0.7,0-1.6-0.3-2.7-1l-1.7,5.8c3.2,1.4,5.9,1.6,7.9,0.7c0.9-0.4,1.6-1,2.1-1.6
		s1-1.4,1.5-2.3c1.2-2.5,1.8-5.6,1.8-9.3s-0.6-6.2-1.9-7.7s-3.5-2.2-6.7-2.3c0.6-1.8,1.2-3.4,1.7-4.8L123.1,0.9z M127,8.3
		c2.9,0.1,4.9,0.8,6,2c1.1,1.3,1.6,3.6,1.6,7c0,3.5-0.6,6.5-1.7,8.9c-0.4,0.8-0.8,1.5-1.3,2.1c-0.5,0.5-1.1,1-1.8,1.4
		c-0.7,0.3-1.5,0.5-2.4,0.5c-1.2,0-2.5-0.3-3.9-0.8l1.1-3.8c0.8,0.4,1.5,0.5,2.1,0.5c1.4,0,2.5-1,3.2-3.1c0.6-1.7,0.9-4,0.9-6.9
		c0-1.7-0.2-2.6-0.7-3.1c-0.5-0.5-1.3-0.8-2.6-0.8c-1,0-1.8,0-2.6,0l-0.7,0l-0.2,0.6c-2.3,6.5-4.2,12.1-5.7,16.6l-3.9-1.2
		c1.2-3.4,5.5-15.6,5.5-15.6l-1.6,0.2c-1.3,0.2-2.6,0.4-3.8,0.6l-0.7-3.8c2.5-0.4,4.9-0.7,7-0.9l0.6-0.1l0.2-0.6
		c0.7-2.1,1.4-4.1,2.1-5.9l3.7,1.1C127,4.3,126.5,5.6,126,7l-0.5,1.3L127,8.3z"/>
	<path class="st0" d="M164.5,27.7l5.6,3.9c4.6-3,6.8-6.5,6.8-10.5c0-2.6-0.9-4.8-2.8-6.4c-1.9-1.7-4.3-2.5-7.3-2.5
		c-1.8,0-3.5,0.3-5.1,0.9c-1.6,0.6-2.9,1.4-3.9,2.4c0.2-2.4,0.5-4.8,0.9-7.1l-6-0.8c-0.9,6-1.5,11.4-1.7,16.3l5.8,0.4
		c1.1-2,2.5-3.6,4.2-4.7c1.8-1.2,3.6-1.7,5.4-1.7c1.2,0,2.2,0.3,2.9,0.8c0.7,0.5,1.1,1.3,1.1,2.2c0,1-0.6,2.1-1.7,3.4
		C167.8,25.5,166.3,26.6,164.5,27.7z M169.6,24.8c1.3-1.5,1.9-2.8,1.9-4.1c0-1.3-0.5-2.4-1.5-3.1c-0.9-0.6-2.1-0.9-3.5-0.9
		c-2,0-4,0.6-5.9,1.9c-1.7,1.1-3.1,2.6-4.2,4.5l-4.2-0.3c0.3-4.3,0.8-9.1,1.5-14.2l4,0.5c-0.3,2.1-0.6,4.1-0.8,6.2l-0.3,2.9l2-2.1
		c0.9-0.9,2-1.6,3.5-2.2c1.5-0.6,3.1-0.8,4.7-0.8c2.7,0,4.9,0.7,6.6,2.3c1.7,1.5,2.5,3.3,2.5,5.7c0,3.5-1.9,6.6-5.8,9.3l-3.8-2.6
		C167.6,26.8,168.7,25.9,169.6,24.8z"/>
	<path class="st0" d="M155.7,5.6c3.9,1.7,8.4,2.9,13.5,3.7l1.4-5.6c-4.7-0.7-9-1.8-12.8-3.5L155.7,5.6z M169.4,4.6l-0.9,3.6
		c-4.3-0.8-8.1-1.8-11.5-3.2l1.3-3.4C161.7,3,165.4,4,169.4,4.6z"/>
</g>
</svg>
