<?xml version="1.0" encoding="utf-8"?>
<!-- Generator: Adobe Illustrator 27.9.1, SVG Export Plug-In . SVG Version: 6.00 Build 0)  -->
<svg version="1.1" id="Layer_1" xmlns="http://www.w3.org/2000/svg" xmlns:xlink="http://www.w3.org/1999/xlink" x="0px" y="0px"
	 viewBox="0 0 148.5 35.6" style="enable-background:new 0 0 148.5 35.6;" xml:space="preserve">
<style type="text/css">
	.st0{fill:#282828;}
</style>
<path class="st0" d="M7.7,0h2.9c0.8,0.7,1.7,1.4,2.5,2.2C14,3,14.8,3.8,15.5,4.7c0.8,0.8,1.4,1.6,1.9,2.3L14.7,10
	c-0.4-0.7-1-1.4-1.7-2.3c-0.7-0.9-1.5-1.7-2.3-2.6C10,4.3,9.2,3.5,8.4,2.9H7.7V0z M7.1,0h2.2v0.8h1.2v1.1c-0.5,1-1.1,2-1.9,3.2
	C7.9,6.2,7,7.4,6,8.6C5,9.8,3.9,11,2.5,12.1c-0.2-0.3-0.4-0.6-0.7-0.9c-0.3-0.3-0.6-0.7-0.9-1C0.6,9.9,0.3,9.6,0,9.4
	c1.2-0.9,2.2-1.9,3.1-3s1.7-2.2,2.4-3.3C6.2,2,6.7,1,7.1,0z M40.1,3.5l2.3-2.9c0.8,0.4,1.6,0.8,2.5,1.3c0.9,0.5,1.7,1,2.6,1.4
	c0.8,0.5,1.5,0.9,2.1,1.3L47,7.8c-0.5-0.4-1.2-0.8-2-1.3c-0.8-0.5-1.7-1-2.5-1.6C41.6,4.4,40.8,3.9,40.1,3.5z M19.5,1.5h15v17h-15
	v-3.6h11.1V5.1H19.5V1.5z M17.7,1.5h3.8v30.2l-3.8,0.7V1.5z M106.4,1.5h4.1v29c0,1.1-0.1,2-0.4,2.7c-0.3,0.7-0.8,1.2-1.5,1.5
	c-0.7,0.3-1.7,0.5-2.8,0.6c-1.1,0.1-2.5,0.1-4.1,0.1c-0.1-0.4-0.1-0.9-0.3-1.3c-0.1-0.5-0.3-1-0.5-1.5c-0.2-0.5-0.4-1-0.6-1.3
	c0.7,0.1,1.4,0.1,2.1,0.1s1.3,0,1.8,0c0.5,0,0.9,0,1.2,0c0.4,0,0.6-0.1,0.7-0.2c0.1-0.1,0.2-0.4,0.2-0.7V1.5z M108.6,1.5v3h-8.9v7.7
	h8.9v3H95.8V1.5H108.6z M80.9,1.5h12v13.6h-12v-3h8.2V4.5h-8.2V1.5z M78.5,1.5h4.1v34h-4.1V1.5z M49.4,2.3h24.8v4H49.4V2.3z
	 M67.3,3.6h4.1v26.6c0,1.3-0.2,2.2-0.5,2.9c-0.3,0.7-1,1.2-1.8,1.6c-0.9,0.3-2,0.5-3.4,0.6c-1.4,0.1-3.2,0.1-5.3,0.1
	c-0.1-0.4-0.2-0.9-0.3-1.4c-0.2-0.5-0.4-1-0.6-1.6c-0.2-0.5-0.4-1-0.6-1.3c1,0.1,2.1,0.1,3.1,0.1c1,0,1.9,0,2.7,0c0.8,0,1.3,0,1.7,0
	c0.5,0,0.8-0.1,1-0.3c0.2-0.2,0.3-0.4,0.3-0.8V3.6z M135.6,6.2c-0.3,2-0.6,4-1,6.2c-0.4,2.2-0.9,4.4-1.6,6.6
	c-0.8,2.6-1.6,4.8-2.6,6.6c-1,1.8-2,3.2-3.2,4.2c-1.2,1-2.4,1.4-3.7,1.4c-1.3,0-2.5-0.5-3.7-1.4c-1.1-0.9-2.1-2.2-2.8-3.8
	c-0.7-1.6-1-3.5-1-5.6c0-2.2,0.4-4.2,1.3-6.1c0.9-1.9,2.1-3.6,3.7-5.1c1.6-1.5,3.4-2.7,5.5-3.5c2.1-0.8,4.4-1.3,6.8-1.3
	c2.3,0,4.4,0.4,6.3,1.1c1.9,0.7,3.5,1.8,4.8,3.1c1.3,1.3,2.3,2.9,3,4.7c0.7,1.8,1.1,3.7,1.1,5.7c0,2.7-0.6,5-1.7,7.1
	c-1.1,2.1-2.7,3.8-4.8,5.1c-2.1,1.3-4.8,2.2-7.9,2.7l-2.5-4c0.7-0.1,1.3-0.2,1.9-0.3c0.6-0.1,1.1-0.2,1.6-0.3
	c1.2-0.3,2.4-0.7,3.4-1.3c1.1-0.6,2-1.3,2.8-2.2c0.8-0.9,1.4-1.9,1.9-3.1c0.5-1.2,0.7-2.5,0.7-3.9c0-1.5-0.2-2.9-0.7-4.2
	c-0.5-1.3-1.2-2.4-2.1-3.3c-0.9-0.9-2-1.7-3.3-2.2c-1.3-0.5-2.8-0.8-4.5-0.8c-2.1,0-3.9,0.4-5.5,1.1c-1.6,0.7-2.9,1.7-4,2.9
	c-1.1,1.2-1.9,2.4-2.5,3.8c-0.6,1.4-0.9,2.7-0.9,3.9c0,1.3,0.2,2.5,0.5,3.4c0.3,0.9,0.7,1.6,1.2,2c0.5,0.4,1,0.7,1.5,0.7
	c0.6,0,1.1-0.3,1.7-0.8c0.6-0.6,1.1-1.4,1.7-2.6c0.5-1.2,1.1-2.7,1.7-4.5c0.6-1.8,1-3.8,1.4-5.8c0.4-2.1,0.7-4.1,0.9-6.1L135.6,6.2z
	 M98.2,6.8h9.9v2.8h-9.9V6.8z M80.6,6.8h9.8v2.8h-9.8V6.8z M19.3,8.2h13v3.4h-13V8.2z M3.4,9.4h11.7v3.4H3.4V9.4z M53.2,10.6h10.4
	v14.1H53.2V21h6.7v-6.7h-6.7V10.6z M51.2,10.6h3.7v16.6h-3.7V10.6z M38.3,13.9l2.2-3c0.7,0.3,1.6,0.7,2.5,1.2
	c0.9,0.5,1.8,0.9,2.6,1.4c0.8,0.4,1.6,0.8,2.1,1.2l-2.3,3.4c-0.5-0.4-1.2-0.8-2-1.3c-0.8-0.5-1.7-1-2.6-1.5
	C39.9,14.8,39.1,14.3,38.3,13.9z M7.2,10.9h3.6v20.4L7.2,32V10.9z M1.7,16H16v3.5H1.7V16z M27.4,17.2c0.4,2.3,1,4.4,1.8,6.4
	c0.8,2,1.8,3.7,3,5.2c1.2,1.5,2.7,2.6,4.5,3.5c-0.3,0.3-0.6,0.6-0.9,1c-0.3,0.4-0.7,0.8-1,1.2s-0.5,0.8-0.7,1.2
	c-2-1-3.6-2.4-4.9-4.2c-1.3-1.7-2.4-3.8-3.3-6.1c-0.8-2.3-1.5-4.8-2.1-7.6L27.4,17.2z M88.8,17.6h12.9V32H88.8v-3h9v-8.3h-9V17.6z
	 M87.1,17.6h3.7v16.3h-3.7V17.6z M33.3,19.6l2.7,2.8c-1,0.8-2,1.6-3.2,2.4c-1.1,0.8-2.1,1.5-3.1,2l-2.3-2.4c0.6-0.4,1.2-0.8,1.9-1.4
	c0.7-0.6,1.4-1.1,2.1-1.7C32.2,20.7,32.8,20.1,33.3,19.6z M39.4,32.3c0.7-0.9,1.5-2.1,2.3-3.4c0.8-1.3,1.7-2.7,2.5-4.2
	c0.9-1.5,1.7-3,2.4-4.4l3,2.7c-0.7,1.3-1.4,2.7-2.1,4.1c-0.8,1.4-1.5,2.8-2.3,4.1c-0.8,1.4-1.6,2.7-2.3,3.9L39.4,32.3z M12.9,20.7
	l3.1,0.8c-0.4,1.1-0.8,2.3-1.1,3.5c-0.4,1.2-0.7,2.2-1.1,3.1l-2.5-0.8c0.2-0.6,0.4-1.3,0.6-2.1c0.2-0.8,0.4-1.6,0.6-2.4
	C12.7,22.1,12.8,21.4,12.9,20.7z M2.1,21.8l2.7-0.7c0.4,1,0.7,2.2,1,3.4c0.3,1.3,0.5,2.3,0.6,3.2l-2.9,0.8c-0.1-0.9-0.2-2-0.5-3.3
	C2.7,24,2.5,22.9,2.1,21.8z M89,23.2h10.7v3H89V23.2z M14.8,31.1c1.1-0.2,2.3-0.4,3.6-0.7c1.4-0.3,2.8-0.6,4.3-0.9
	c1.5-0.3,3-0.7,4.5-1l0.5,3.8c-2,0.5-4.1,1-6.2,1.5c-2.1,0.5-4,0.9-5.7,1.3L14.8,31.1z M1.1,30.9c1.3-0.2,2.7-0.4,4.4-0.7
	c1.6-0.3,3.4-0.5,5.2-0.9c1.8-0.3,3.7-0.6,5.5-0.9l0.2,3.4c-1.7,0.3-3.4,0.7-5.1,1c-1.7,0.3-3.4,0.6-5,0.9c-1.6,0.3-3.1,0.6-4.4,0.8
	L1.1,30.9z"/>
</svg>
