<?xml version="1.0" encoding="utf-8"?>
<!-- Generator: Adobe Illustrator 27.9.1, SVG Export Plug-In . SVG Version: 6.00 Build 0)  -->
<svg version="1.1" id="Layer_1" xmlns="http://www.w3.org/2000/svg" xmlns:xlink="http://www.w3.org/1999/xlink" x="0px" y="0px"
	 viewBox="0 0 223 36.1" style="enable-background:new 0 0 223 36.1;" xml:space="preserve">
<style type="text/css">
	.st0{fill:#282828;}
</style>
<g>
	<path class="st0" d="M105.9,0c0.3,0.4,0.7,0.9,1.1,1.6c0.4,0.6,0.7,1.2,1.1,1.8c0.4,0.6,0.7,1.2,0.9,1.6l-2.9,1.2
		c-0.4-0.8-0.9-1.7-1.4-2.6c-0.5-1-1.1-1.8-1.6-2.5L105.9,0z M203.3,0.6h4.4v5.8h-4.4V0.6z M165.4,0.6h4.3v35.5h-4.3V0.6z
		 M100.9,1.2c0.3,0.4,0.7,1,1,1.6c0.4,0.6,0.7,1.2,1.1,1.9c0.4,0.6,0.6,1.2,0.9,1.7L101,7.5c-0.2-0.6-0.5-1.1-0.9-1.7
		c-0.3-0.6-0.7-1.2-1.1-1.8c-0.4-0.6-0.7-1.1-1-1.6L100.9,1.2z M54.6,2.5c0,0.5-0.1,1-0.1,1.7c-0.1,0.6-0.1,1.2-0.1,1.7
		c-0.1,3.8-0.4,7.2-1,10.1c-0.5,2.9-1.3,5.5-2.3,7.7c-1,2.2-2.2,4.2-3.7,5.9c-1.5,1.7-3.3,3.3-5.3,4.8l-4-3.2
		c0.7-0.4,1.5-0.9,2.4-1.5c0.8-0.6,1.6-1.2,2.3-1.9c1.2-1.2,2.3-2.5,3.2-3.9c0.9-1.4,1.6-3,2.2-4.8c0.6-1.7,1-3.7,1.3-5.9
		c0.3-2.2,0.4-4.6,0.4-7.2c0-0.3,0-0.7,0-1.1c0-0.4-0.1-0.8-0.1-1.3s-0.1-0.8-0.1-1.1H54.6z M122.9,2.7c0.6,1.7,1.3,3.3,2,4.8
		c0.7,1.5,1.4,3,2.1,4.3c0.7,1.3,1.3,2.5,1.9,3.6l-3.8,2.2c-0.7-1.1-1.4-2.4-2.1-3.8c-0.7-1.4-1.4-3-2.2-4.6
		c-0.7-1.6-1.4-3.2-2.1-4.8L122.9,2.7z M8.2,3c0.6,0.3,1.3,0.7,2.1,1.2c0.8,0.5,1.6,1,2.4,1.5c0.8,0.5,1.6,1,2.3,1.5
		c0.7,0.5,1.3,0.9,1.8,1.2l-2.5,3.8c-0.5-0.4-1.1-0.8-1.8-1.3c-0.7-0.5-1.5-1-2.3-1.5c-0.8-0.5-1.6-1-2.3-1.5C7.1,7.5,6.4,7,5.8,6.7
		L8.2,3z M150.9,3.9h33.6v3.8h-33.6V3.9z M188.9,4.5h33.5v3.9h-33.5V4.5z M142.1,10.5c-0.5,0.3-1.1,0.7-1.7,1
		c-0.6,0.3-1.2,0.6-1.9,1c-0.6,0.3-1.3,0.7-2.2,1.1c-0.9,0.4-1.8,0.9-2.8,1.4c-1,0.5-2,1.1-3,1.6c-1,0.6-1.9,1.1-2.8,1.7
		c-1.6,1.1-3,2.2-3.9,3.3c-1,1.2-1.5,2.4-1.5,3.8c0,1.4,0.7,2.5,2.1,3.3c1.4,0.8,3.4,1.2,6.2,1.2c1.3,0,2.8-0.1,4.3-0.2
		c1.5-0.1,3-0.3,4.4-0.5c1.4-0.2,2.7-0.4,3.7-0.7l0,4.9c-1,0.2-2.2,0.3-3.5,0.5c-1.3,0.1-2.6,0.3-4.1,0.3c-1.4,0.1-3,0.1-4.6,0.1
		c-1.8,0-3.6-0.1-5.1-0.4c-1.6-0.3-3-0.8-4.1-1.4c-1.2-0.6-2.1-1.5-2.8-2.6c-0.7-1.1-1-2.4-1-4c0-1.5,0.3-3,1-4.2
		c0.7-1.3,1.6-2.5,2.8-3.6c1.2-1.1,2.5-2.1,4-3.1c0.9-0.6,1.9-1.2,2.9-1.8c1-0.6,2.1-1.1,3.1-1.7c1-0.5,1.9-1,2.8-1.5
		c0.9-0.5,1.6-0.8,2.2-1.2c0.7-0.4,1.3-0.8,1.8-1.1c0.5-0.3,1-0.7,1.5-1.1L142.1,10.5z M77.9,7.3c0.7,0.1,1.5,0.1,2.3,0.2
		c0.8,0,1.6,0.1,2.2,0.1h19c0.5,0,1.1,0,1.7,0c0.6,0,1.1,0,1.4-0.1c0,0.4-0.1,1-0.1,1.6c0,0.6,0,1.2,0,1.7v19.7c0,0.7,0,1.4,0.1,2.2
		s0.1,1.5,0.1,2h-4.9c0-0.5,0-1.1,0-1.7c0-0.6,0-1.3,0-2v-19H82.5c-0.8,0-1.6,0-2.5,0c-0.9,0-1.6,0.1-2.1,0.1V7.3z M67.6,10.6
		c-0.1,0.3-0.1,0.6-0.2,1c-0.1,0.4-0.1,0.7-0.1,0.9c0,0.8-0.1,1.8-0.1,3.1c-0.1,1.3-0.2,2.6-0.3,4.1c-0.1,1.5-0.3,2.9-0.4,4.4
		c-0.2,1.4-0.4,2.8-0.6,4c-0.2,1.2-0.5,2.2-0.9,3c-0.4,0.9-1,1.6-1.7,2.1c-0.7,0.5-1.7,0.7-2.9,0.7c-1.1,0-2.1,0-3.2-0.1
		c-1.1-0.1-2.1-0.1-3-0.2L53.6,29c1,0.2,1.9,0.3,2.9,0.4c1,0.1,1.8,0.1,2.6,0.1c0.6,0,1.1-0.1,1.4-0.3c0.3-0.2,0.6-0.5,0.8-1
		c0.2-0.5,0.4-1.2,0.6-2.1c0.2-0.9,0.3-1.9,0.5-3c0.1-1.1,0.2-2.2,0.3-3.4c0.1-1.2,0.2-2.3,0.2-3.4c0-1.1,0.1-2,0.1-2.9H44
		c-0.7,0-1.5,0-2.4,0c-0.9,0-1.7,0.1-2.5,0.1V9.1c0.8,0.1,1.6,0.1,2.4,0.2c0.9,0.1,1.6,0.1,2.4,0.1h17.9c0.5,0,1,0,1.4-0.1
		c0.5-0.1,0.9-0.1,1.3-0.2L67.6,10.6z M154.1,10.2h27.3v14.4h-27.3V10.2z M193.3,11.2h24.9v12h-24.9V11.2z M1.6,30
		C3,29.7,4.5,29.4,5.9,29c1.5-0.4,2.9-0.8,4.4-1.4c1.4-0.6,2.8-1.2,4.2-1.9c2.1-1.2,4.1-2.6,6-4.1c1.8-1.5,3.5-3.1,5-4.8
		s2.7-3.5,3.7-5.3l2.6,4.6c-1.7,2.6-3.9,5.1-6.5,7.4c-2.6,2.3-5.4,4.4-8.5,6.2c-1.3,0.7-2.7,1.4-4.2,2.1c-1.5,0.6-3,1.2-4.5,1.6
		c-1.5,0.5-2.8,0.8-3.9,1L1.6,30z M2.4,11.6c0.6,0.3,1.3,0.7,2.1,1.2c0.8,0.5,1.6,1,2.4,1.5c0.8,0.5,1.6,1,2.3,1.4
		c0.7,0.5,1.3,0.8,1.8,1.2l-2.5,3.8c-0.5-0.4-1.2-0.8-1.9-1.3C6,19,5.2,18.5,4.4,18c-0.8-0.5-1.6-1-2.4-1.5C1.3,16,0.6,15.7,0,15.4
		L2.4,11.6z M158.1,13.3v2.7h19.2v-2.7H158.1z M197.4,14.8v4.9h16.5v-4.9H197.4z M158.1,18.8v2.7h19.2v-2.7H158.1z M203.4,21.8h4.3
		v10c0,1.1-0.1,1.9-0.4,2.5c-0.3,0.6-0.8,1-1.6,1.3c-0.8,0.3-1.7,0.4-2.9,0.5c-1.1,0.1-2.5,0.1-4.1,0.1c-0.1-0.6-0.2-1.2-0.5-2
		c-0.3-0.7-0.5-1.4-0.8-1.9c0.7,0,1.4,0,2.1,0c0.7,0,1.3,0,1.9,0c0.6,0,0.9,0,1.1,0c0.3,0,0.6,0,0.7-0.1c0.1-0.1,0.2-0.3,0.2-0.5
		V21.8z M164.3,22.3l3.5,1.4c-0.9,1.2-1.9,2.4-3.1,3.6c-1.2,1.2-2.4,2.3-3.7,3.3c-1.3,1-2.7,1.9-4.1,2.8c-1.4,0.8-2.8,1.6-4.3,2.2
		c-0.2-0.3-0.5-0.7-0.8-1.1c-0.3-0.4-0.7-0.9-1-1.3c-0.4-0.4-0.7-0.8-1-1c1.4-0.5,2.8-1.1,4.2-1.8c1.4-0.7,2.7-1.5,4-2.4
		c1.3-0.9,2.5-1.8,3.5-2.7C162.6,24.3,163.6,23.4,164.3,22.3z M170.8,22.5c0.8,1,1.7,2,2.8,2.9c1.1,0.9,2.3,1.9,3.6,2.7
		c1.3,0.9,2.7,1.6,4.1,2.3c1.4,0.7,2.8,1.3,4.2,1.7c-0.3,0.3-0.6,0.6-1,1c-0.4,0.4-0.7,0.8-1,1.3c-0.3,0.4-0.6,0.8-0.8,1.2
		c-1.4-0.6-2.8-1.3-4.2-2.1c-1.4-0.8-2.8-1.8-4.1-2.8c-1.3-1-2.6-2.1-3.7-3.3c-1.2-1.2-2.2-2.3-3.1-3.5L170.8,22.5z M212.3,26.7
		l3.7-1.8c0.8,0.8,1.7,1.7,2.5,2.7c0.9,1,1.7,1.9,2.5,2.9c0.8,0.9,1.4,1.8,1.9,2.6l-4,2c-0.4-0.7-1-1.6-1.7-2.6c-0.8-1-1.6-2-2.5-3
		S213.1,27.5,212.3,26.7z M194.5,24.9l4.1,1.3c-0.6,1-1.3,2-2.1,3.1c-0.8,1-1.7,2-2.6,3c-0.9,0.9-1.8,1.8-2.7,2.5
		c-0.4-0.4-1-0.8-1.6-1.3c-0.6-0.5-1.2-0.8-1.7-1.1c0.9-0.6,1.7-1.4,2.6-2.2s1.6-1.7,2.3-2.6C193.5,26.6,194.1,25.7,194.5,24.9z
		 M77.4,28c0.6,0,1.3,0.1,2.1,0.1c0.8,0.1,1.6,0.1,2.5,0.1h20.5v4.5H82.1c-0.7,0-1.6,0-2.5,0.1c-0.9,0-1.7,0.1-2.3,0.1V28z"/>
</g>
</svg>
