<?xml version="1.0" encoding="utf-8"?>
<!-- Generator: Adobe Illustrator 27.9.1, SVG Export Plug-In . SVG Version: 6.00 Build 0)  -->
<svg version="1.1" id="Layer_1" xmlns:inkscape="http://www.inkscape.org/namespaces/inkscape"
	 xmlns="http://www.w3.org/2000/svg" xmlns:xlink="http://www.w3.org/1999/xlink" x="0px" y="0px" viewBox="0 0 208.3 30.7"
	 style="enable-background:new 0 0 208.3 30.7;" xml:space="preserve">
<style type="text/css">
	.st0{fill:#070707;}
</style>
<g>
	<path class="st0" d="M23.8,15.1l-4.6,3.8c2.4,2.2,4.5,4.5,6.4,6.9l4.4-4C28,19.3,25.9,17.1,23.8,15.1z"/>
	<path class="st0" d="M26.4,8.4c0-1.3-0.4-2.4-1.3-3.2c-0.6-0.6-1.8-1.1-3.5-1.4c-0.7-0.2-2.1-0.2-4-0.1c-0.1-1.2-0.3-2.4-0.4-3.7
		l-6.6,0.7c0.2,1.2,0.4,2.3,0.5,3.5C8.4,4.6,5.6,5,2.5,5.5l1.1,6c7.9-1.5,13-2.2,15.3-2.2c0.5,0,0.8,0.1,0.8,0.3c0,0.6-1,1.6-3,3
		c-2,1.4-4.6,2.8-7.7,4.3c-3.1,1.5-6.1,2.8-9,3.9l3.5,5.5c3.1-1.4,5.9-2.7,8.4-4c0,2.4,0,5-0.1,7.8l6.5,0c0-4.5,0-8.4-0.1-11.5
		C23.7,14.9,26.4,11.6,26.4,8.4z"/>
	<path class="st0" d="M59.2,0.6l-6.3,0.4c0.2,1.9,0.4,3.6,0.6,5.1c-4.2,0.2-9.6,0.8-16.2,1.7l0.9,6c6.7-1,11.9-1.6,15.8-1.8
		c0.1,1.7,0.1,3.3,0.1,4.8l-4.8-4.1c-2.1,2.6-4,4.8-5.9,6.4c-1.8,1.6-4.2,3.4-7.2,5.3l4.4,4.8c2.9-2,5.3-3.9,7.4-5.7
		c2.1-1.8,4.1-4,6.1-6.5c0,0.2,0,0.4,0,0.6c0,3.3-0.3,7.2-0.8,11.9l6.5,0.4c0.4-4.3,0.6-7.9,0.6-10.8c0-2.9,0-5.3-0.1-7.1
		c1.3,0,2.7,0.1,4.4,0.1l0.3-5.9C63,6.1,61.3,6.1,59.8,6C59.6,4.2,59.4,2.4,59.2,0.6z"/>
	<path class="st0" d="M86.6,9.6c-2.7-2.9-6-5.5-9.7-7.9l-4.6,5c3.8,2.5,7,5.1,9.7,7.8L86.6,9.6z"/>
	<path class="st0" d="M89.1,19.2C86,21.8,82.9,23,79.8,23c-1.4,0-3.1-0.5-4.9-1.5l-2,6.2c2.1,1.3,4.5,1.9,7.2,1.9
		c4.2,0,8.2-1.4,12.1-4.2c3.9-2.8,7.2-6.7,9.8-11.7l-5-4.8C94.8,13.2,92.2,16.6,89.1,19.2z"/>
	<path class="st0" d="M124.3,6.3c3.8,0,6.7,0,8.8,0.1l0.1-5.8c-2.9-0.1-6.2-0.2-9.8-0.2s-7.2,0.1-10.6,0.3l0.3,5.9
		C116.8,6.4,120.6,6.3,124.3,6.3z"/>
	<path class="st0" d="M134.7,9.7c-1.3-0.8-3.3-1.2-6-1.2s-5.8,0.2-9.5,0.5c-3.6,0.4-6.7,0.8-9.3,1.2l1.1,6.4
		c7.5-1.4,13-2.1,16.6-2.1c0.8,0,1.4,0.1,1.7,0.2c0.3,0.1,0.5,0.4,0.5,0.7c0,0.9-0.8,2.5-2.3,4.8s-3.3,4.6-5.3,6.8l6.1,3.6
		c2.6-3.3,4.7-6.4,6.2-9.4c1.5-3,2.2-5.5,2.2-7.4S136,10.5,134.7,9.7z"/>
	<path class="st0" d="M167,0.1c-2.3,2.4-5.4,5-9.3,7.7c-4,2.7-8.2,5.3-12.7,7.6l3.4,5.8c3.1-1.6,6-3.3,8.8-5.1
		c0,1.3,0.1,2.8,0.1,4.7c0,1.8-0.2,4.8-0.5,8.8l6.5,0.2c0.3-4.1,0.5-7.2,0.5-9.4c0-2.2-0.1-4.4-0.2-6.7h-2.9
		c3.7-2.6,7.5-5.6,11.3-8.9L167,0.1z"/>
	<path class="st0" d="M195.5,9.4l-2.2,3.5c0-4.2-0.2-8.4-0.5-12.6l-6.6,0.4c0.7,9.2,0.5,18.9-0.5,29.4l6.8,0.2
		c0.4-5.2,0.7-10.2,0.8-15c3.5,1.8,7.4,4.1,11.7,7l3.4-5.2c-2.3-1.6-4.3-3-6.1-4.1C200.4,11.9,198.1,10.7,195.5,9.4z"/>
</g>
</svg>
