<?xml version="1.0" encoding="utf-8"?>
<!-- Generator: Adobe Illustrator 27.9.1, SVG Export Plug-In . SVG Version: 6.00 Build 0)  -->
<svg version="1.1" id="Layer_1" xmlns="http://www.w3.org/2000/svg" xmlns:xlink="http://www.w3.org/1999/xlink" x="0px" y="0px"
	 viewBox="0 0 109.7 35.6" style="enable-background:new 0 0 109.7 35.6;" xml:space="preserve">
<style type="text/css">
	.st0{fill:#282828;}
</style>
<g>
	<path class="st0" d="M30.8,15.4h-9.7V20h9.7V15.4z M29.8,19h-7.7v-2.7h7.7V19z"/>
	<path class="st0" d="M33.7,1.9H18.4v20.4h15.4V1.9z M32.7,21.3H19.4V2.9h13.4V21.3z"/>
	<path class="st0" d="M30.8,9.8h-9.7v4.6h9.7V9.8z M29.8,13.4h-7.7v-2.6h7.7V13.4z"/>
	<path class="st0" d="M30.8,4.2h-9.7v4.5h9.7V4.2z M29.8,7.7h-7.7V5.2h7.7V7.7z"/>
	<path class="st0" d="M14.5,23.6c0.6,0.6,1.2,1.2,1.8,1.8c0.6,0.7,1.3,1.3,1.8,1.9c0.6,0.6,1.1,1.2,1.4,1.7l3-2.5
		c-0.4-0.5-0.9-1-1.5-1.6c-0.6-0.6-1.2-1.2-1.9-1.8c-0.7-0.6-1.3-1.2-1.9-1.7L14.5,23.6z M20.4,25.7c0.3,0.3,0.5,0.5,0.8,0.8
		l-1.4,1.2c-0.2-0.3-0.5-0.6-0.8-0.9c-0.6-0.6-1.2-1.3-1.9-2c-0.4-0.4-0.7-0.7-1-1l1.3-1c0.4,0.3,0.8,0.7,1.2,1.1
		C19.2,24.5,19.8,25.1,20.4,25.7z"/>
	<path class="st0" d="M2.9,26.4c-0.4,1-0.7,1.9-1.2,2.8c-0.4,0.9-0.9,1.7-1.4,2.4L4,33.4c0.5-0.7,0.9-1.6,1.3-2.5
		c0.4-0.9,0.8-1.9,1.1-2.9c0.3-1,0.6-1.9,0.9-2.8l-3.6-1.4C3.5,24.6,3.2,25.5,2.9,26.4z M4.4,25l1.7,0.7C6,26.3,5.8,27,5.5,27.6
		c-0.3,1-0.7,1.9-1.1,2.8c-0.2,0.6-0.5,1.1-0.8,1.6l-1.9-0.9c0.3-0.5,0.6-1,0.8-1.5c0.4-0.9,0.9-1.9,1.2-2.8C4,26.2,4.2,25.6,4.4,25
		z"/>
	<path class="st0" d="M30.8,30.3c0.5,0.9,0.9,1.7,1.2,2.4l3.8-1.9c-0.3-0.7-0.8-1.5-1.3-2.3c-0.6-0.9-1.1-1.8-1.7-2.7
		c-0.6-0.9-1.2-1.8-1.7-2.5l-3.6,1.6c0.5,0.8,1.1,1.7,1.6,2.7C29.7,28.4,30.3,29.4,30.8,30.3z M30.7,24.4c0.4,0.6,0.8,1.2,1.2,1.8
		l1.7,2.7c0.3,0.5,0.6,0.9,0.8,1.4l-2,1c-0.2-0.5-0.5-1-0.8-1.5c-0.5-0.9-1.1-1.9-1.7-2.8l-1.1-1.7L30.7,24.4z"/>
	<path class="st0" d="M48.4,10c0.6,0.4,1,0.9,1.3,1.3v5.2H56c-1.2,0.7-2.6,1.4-4,1.9c-1.5,0.6-3,1.1-4.4,1.5
		c0.3,0.2,0.5,0.5,0.8,0.8c0.3,0.3,0.6,0.7,0.8,1c0.3,0.3,0.5,0.6,0.6,0.9c1.5-0.6,3-1.2,4.5-2c0.6-0.3,1.2-0.6,1.7-0.9
		c0.4,0.4,0.8,0.7,1.2,1.1c-0.5,0.3-1,0.7-1.6,1c-1.2,0.7-2.6,1.4-3.9,2c-1.4,0.6-2.7,1.1-3.9,1.5c0.4,0.3,0.7,0.7,1.1,1.3
		c0.4,0.5,0.6,1,0.8,1.3c1.3-0.5,2.6-1.1,4-1.8c1.4-0.7,2.7-1.5,4-2.4c0.4-0.3,0.7-0.5,1.1-0.7c0.3,0.5,0.6,1.1,0.8,1.6
		c-0.5,0.4-1,0.9-1.6,1.3c-1,0.7-2.2,1.5-3.4,2.2c-1.2,0.7-2.5,1.3-3.7,1.9c-1.3,0.6-2.5,1-3.7,1.4c0.4,0.4,0.8,0.8,1.2,1.4
		c0.4,0.6,0.7,1.1,1,1.5c1.6-0.6,3.3-1.4,5-2.4c1.7-1,3.4-2,4.9-3.1c0.4-0.3,0.7-0.5,1.1-0.8c0,0.5,0,1-0.1,1.5
		c-0.2,0.9-0.5,1.6-0.9,2c-0.3,0.3-0.6,0.5-0.9,0.6c-0.3,0.1-0.7,0.1-1.1,0.1c-0.4,0-0.8,0-1.3,0c-0.5,0-1.1-0.1-1.6-0.2
		c0.3,0.5,0.6,1.1,0.7,1.8c0.1,0.6,0.2,1.2,0.2,1.7c0.5,0,1,0.1,1.5,0.1c0.5,0,0.9,0,1.3,0c0.8-0.1,1.5-0.2,2.1-0.4s1.2-0.6,1.8-1.1
		c0.6-0.5,1.1-1.3,1.5-2.3c0.3-1,0.5-2.1,0.5-3.3c0-1.3-0.2-2.6-0.7-3.9c-0.4-1.3-1.1-2.7-2.1-3.9c-0.7-0.9-1.5-1.7-2.4-2.5
		c0.8-0.5,1.5-1.1,2.2-1.6h0.8c0.5,2.3,1.1,4.4,1.8,6.5c0.9,2.4,1.9,4.5,3.2,6.4c1.3,1.9,2.8,3.4,4.6,4.6c0.2-0.3,0.5-0.7,0.8-1.1
		c0.3-0.4,0.6-0.8,0.9-1.2c0.3-0.4,0.6-0.7,0.9-0.9c-1.6-1-3-2.3-4.3-3.9c-0.7-0.9-1.3-1.8-1.8-2.9c0.8-0.5,1.6-1,2.5-1.7
		c1.1-0.8,2.1-1.7,3.1-2.5l-2.8-2.4c-0.5,0.5-1,1.1-1.7,1.7c-0.7,0.6-1.3,1.2-2,1.7c-0.1,0.1-0.3,0.2-0.4,0.3c-0.6-1.5-1-3-1.4-4.6
		h7V7.6h-8c0.1-0.1,0.1-0.2,0.2-0.3C65.5,6.1,66.3,5,67,3.8l-2.4-1.7l-0.7,0.2H63h-5.5c0.3-0.5,0.7-1.1,1-1.6L54.6,0
		c-0.5,1-1.1,2-1.8,3c-0.7,1-1.6,2.1-2.6,3.1c-1,1-2.1,2-3.3,2.8C47.3,9.2,47.8,9.5,48.4,10z M50.9,6.8c1-1.1,1.9-2.1,2.7-3.2
		c0.6-0.8,1.1-1.7,1.6-2.5l1.7,0.3c-0.1,0.1-1.2,1.9-1.2,1.9H64l0.4-0.1l1.2,0.9c-0.5,0.8-1.1,1.7-1.8,2.6l-1.5,1.9h9v6.9h-7.3
		l0.3,1.2c0.4,1.6,0.9,3.2,1.4,4.7l0.5,1.3c0,0,1.4-1.1,1.5-1.1c0.7-0.6,1.4-1.2,2.1-1.8c0.4-0.4,0.8-0.7,1.1-1l1.2,1
		c-0.7,0.6-1.4,1.1-2.1,1.7c-0.8,0.6-1.6,1.1-2.4,1.7l-0.8,0.5l0.4,0.8c0.6,1.1,1.2,2.1,1.9,3c1,1.4,2.2,2.5,3.5,3.4
		c0,0-0.1,0.1-0.1,0.1c-0.3,0.4-0.7,0.8-1,1.2c-0.1,0.1-0.1,0.2-0.2,0.3c-1.3-1-2.5-2.3-3.5-3.7c-1.2-1.8-2.3-3.9-3.1-6.2
		c-0.7-1.9-1.3-4.1-1.8-6.3l-0.2-0.8h-2l-0.3,0.2c-0.7,0.6-1.4,1.1-2.1,1.6L57.2,18l1,0.9c0.9,0.7,1.6,1.5,2.2,2.4
		c0.9,1.2,1.5,2.4,1.9,3.7c0.4,1.2,0.6,2.4,0.6,3.6c0,1.1-0.1,2.1-0.4,3c-0.3,0.8-0.7,1.4-1.2,1.8c-0.5,0.5-1,0.7-1.4,0.9
		c-0.5,0.2-1.1,0.3-1.9,0.3c-0.4,0-0.8,0-1.2,0l-0.6,0c0-0.3-0.1-0.6-0.2-0.9c0-0.1-0.1-0.3-0.1-0.4c0,0,0,0,0,0c0.5,0,1,0,1.3,0
		c0.5,0,1-0.1,1.4-0.2c0.5-0.1,1-0.4,1.4-0.8c0.6-0.5,1-1.4,1.2-2.5c0.1-0.5,0.1-1.1,0.1-1.7L61.3,26l-1.5,1.2
		c-0.3,0.3-0.7,0.5-1.1,0.8C57.2,29,55.5,30,53.9,31c-1.4,0.8-2.8,1.5-4.1,2c-0.2-0.3-0.4-0.6-0.6-0.9C49.1,32,49,31.9,49,31.8
		c0.8-0.3,1.5-0.6,2.3-0.9c1.3-0.6,2.6-1.2,3.8-1.9c1.3-0.7,2.4-1.5,3.5-2.2c0.6-0.4,1.2-0.9,1.7-1.3l0.5-0.5l-0.3-0.7
		c-0.2-0.6-0.5-1.2-0.9-1.8l-0.5-1l-0.9,0.6c-0.3,0.2-0.7,0.5-1,0.7c-1.2,0.8-2.6,1.6-3.9,2.3c-1.1,0.6-2.1,1.1-3.1,1.5
		c-0.1-0.2-0.3-0.4-0.4-0.7c0-0.1-0.1-0.1-0.1-0.2c0.8-0.3,1.7-0.6,2.6-1c1.4-0.6,2.8-1.3,4-2.1c0.6-0.3,1.1-0.7,1.7-1.1l0.9-0.7
		L58,20.1c-0.4-0.4-0.8-0.8-1.3-1.2l-0.5-0.4l-0.6,0.3c-0.6,0.3-1.1,0.6-1.7,0.9c-1.3,0.6-2.5,1.2-3.7,1.7c-0.1-0.1-0.6-0.8-0.8-1
		c1-0.3,2-0.7,3-1.1c1.4-0.6,2.8-1.2,4.1-2l3.3-1.9h-9.1v-4.6l-0.2-0.3c-0.4-0.5-0.9-0.9-1.5-1.4c-0.1-0.1-0.3-0.2-0.4-0.3
		C49.4,8.2,50.2,7.5,50.9,6.8z"/>
	<path class="st0" d="M52.4,14.7h7.5V9.4h-7.5V14.7z M53.4,10.4h5.5v3.3h-5.5V10.4z"/>
	<path class="st0" d="M60.8,8.2c0.6-0.7,1.1-1.4,1.6-2.2l1-1.6l-1.8-0.1h-6.8l-0.4,0.6c-0.2,0.2-0.3,0.4-0.5,0.7
		c-0.4,0.5-0.7,0.9-1.1,1.3l-1.5,1.7h9.1L60.8,8.2z M53.6,7.6c0.4-0.5,0.8-0.9,1.2-1.4c0.2-0.3,0.4-0.6,0.6-0.9h6.3
		c0,0.1-0.1,0.1-0.1,0.2c-0.5,0.8-1,1.5-1.5,2.1H53.6z"/>
	<path class="st0" d="M61.5,14.7h7.9V9.4h-7.9V14.7z M62.5,10.4h5.9v3.3h-5.9V10.4z"/>
	<path class="st0" d="M1.4,19.1c0.5,0.6,0.9,1.1,1.2,1.5c1-0.9,1.9-2,2.9-3.3c0.7-0.9,1.3-1.9,1.9-3v8.2h3.9v-8.3
		c0.3,0.3,0.6,0.5,0.9,0.8c0.6,0.6,1.2,1.1,1.7,1.6c0.6,0.5,1,1,1.4,1.3l2.2-3.3c-0.3-0.2-0.7-0.5-1.3-0.9c-0.6-0.4-1.2-0.8-1.8-1.3
		c-0.7-0.5-1.3-0.9-1.9-1.3c-0.5-0.3-0.8-0.5-1.1-0.7V8.9h5.5V5.5h-5.5V0H7.4v5.4H0.9v3.5h5.8c-0.4,0.9-0.8,1.8-1.4,2.6
		c-0.8,1.3-1.6,2.5-2.5,3.6c-0.9,1.1-1.9,2-2.8,2.7C0.4,18.1,0.9,18.6,1.4,19.1z M3.6,15.8c1-1.1,1.8-2.4,2.6-3.7
		c0.5-0.8,0.9-1.7,1.4-2.7l0.6-1.4H1.9V6.5h6.5V1h1.9v5.4h5.5v1.5h-5.5v3.2l0.5,0.3c0.3,0.2,0.6,0.4,1.1,0.7
		c0.6,0.4,1.2,0.8,1.9,1.3c0.7,0.5,2.3,1.7,2.3,1.7l-1,1.4c-0.2-0.2-0.3-0.3-0.5-0.5c-0.6-0.5-1.1-1.1-1.8-1.6
		c-0.3-0.3-0.6-0.5-0.9-0.8l-1.7-1.5v9.5H8.4v-11l-1.9,3.2c-0.7,1.2-1.3,2.1-1.8,2.9c-0.6,0.9-1.3,1.7-1.9,2.3
		c-0.2-0.2-0.4-0.5-0.6-0.7c-0.2-0.2-0.4-0.4-0.6-0.6C2.2,17.3,2.9,16.6,3.6,15.8z"/>
	<path class="st0" d="M88.7,17.6c-0.5,1.8-1.2,3.6-2.1,5.3c-0.9,1.7-2.2,3.4-3.8,5c-1.6,1.6-3.6,3.1-6,4.4c0.4,0.2,0.7,0.5,1.1,0.9
		c0.4,0.4,0.8,0.8,1.2,1.2c0.4,0.4,0.7,0.8,0.9,1.2c2.6-1.5,4.8-3.1,6.5-5c1.7-1.8,3.1-3.7,4.1-5.7c1-2,1.8-4,2.3-6
		c0.5-2,0.8-4,1-5.9c0-0.3,0-0.6,0.1-0.9h11.4c-0.1,2.2-0.2,4.2-0.4,5.9c-0.2,2.6-0.4,4.7-0.6,6.4c-0.2,1.7-0.5,3-0.8,4
		c-0.3,1-0.6,1.6-0.9,1.9c-0.2,0.3-0.5,0.4-0.7,0.5c-0.3,0.1-0.6,0.1-1,0.1c-0.5,0-1.3,0-2.3,0c-1.1,0-2.2-0.1-3.4-0.2
		c0.4,0.6,0.7,1.3,1,2.1s0.4,1.5,0.4,2.1c1.1,0.1,2.3,0.1,3.4,0.1c1.1,0,2,0,2.7-0.1c0.8-0.1,1.5-0.3,2.1-0.5
		c0.6-0.3,1.1-0.7,1.7-1.4c0.4-0.5,0.8-1.2,1.1-2.3c0.3-1,0.6-2.5,0.9-4.2c0.3-1.8,0.5-4,0.7-6.7c0.2-2.7,0.4-6,0.6-9.8
		c0-0.2,0-0.5,0.1-0.8s0-0.7,0-1.3h-2.5h-1.7H94.2c0-0.1,0-0.3,0-0.5V0h-4.3v7.5c0,0.1,0,0.3,0,0.5H77.9v4.2h11.7c0,0.1,0,0.1,0,0.2
		C89.5,14,89.1,15.8,88.7,17.6z M89.6,11.2H78.9V9h11.9l0-1.5V1h2.3v6.5l0,0.5v1h15.6c0,0.1,0,0.1,0,0.2c0,0.3,0,0.5,0,0.7
		c-0.2,3.9-0.4,7.2-0.6,9.9c-0.2,2.7-0.4,4.9-0.7,6.7c-0.2,1.7-0.5,3.1-0.8,4.1c-0.3,1.1-0.7,1.7-0.9,1.9c-0.5,0.6-0.9,1-1.3,1.2
		c-0.5,0.2-1.1,0.4-1.8,0.5c-0.6,0.1-1.3,0.1-2.2,0.1l-0.4,0c-0.8,0-1.7,0-2.5-0.1c-0.1-0.4-0.2-0.9-0.4-1.5
		C97,32.4,97,32.2,96.9,32c0.6,0,1.2,0.1,1.7,0.1c1.1,0,1.8,0,2.3,0c0.5,0,0.9,0,1.3-0.2c0.4-0.1,0.9-0.4,1.2-0.8
		c0.4-0.4,0.8-1.2,1.1-2.3c0.3-1,0.6-2.4,0.8-4.2c0.2-1.7,0.4-3.9,0.6-6.5c0.1-1.7,0.3-3.7,0.4-5.9l0.1-1.1H93L93,12.1
		c0,0,0,0.7-0.1,0.9c-0.2,1.9-0.5,3.8-1,5.8c-0.5,1.9-1.2,3.9-2.2,5.8c-1,1.9-2.3,3.7-4,5.5c-1.5,1.5-3.3,3-5.5,4.3
		c-0.1-0.2-0.3-0.3-0.4-0.5c-0.4-0.4-0.8-0.9-1.2-1.3c0,0-0.1-0.1-0.1-0.1c2-1.2,3.6-2.5,5-3.9c1.6-1.7,3-3.4,4-5.3
		c1-1.8,1.7-3.7,2.2-5.5c0.5-1.8,0.8-3.6,0.9-5.4l0.1-1.2L89.6,11.2z"/>
	<path class="st0" d="M39,18.1c0.2,0.6,0.4,1,0.5,1.3c0.9-1.1,1.8-2.3,2.7-3.6v19.7h3.9V8.5c0.1-0.2,0.2-0.5,0.3-0.7
		c1-2.2,1.8-4.4,2.5-6.6l-3.8-1.1c-0.6,1.9-1.2,3.7-2,5.6c-0.8,1.8-1.7,3.6-2.6,5.1s-2,3-3,4.2c0.2,0.4,0.5,0.8,0.7,1.4
		C38.5,16.9,38.8,17.5,39,18.1z M41.4,11.3c1-1.6,1.9-3.4,2.7-5.3c0.7-1.6,1.3-3.1,1.8-4.7l1.8,0.5c-0.6,1.8-1.4,3.7-2.2,5.6
		c-0.1,0.1-0.1,0.2-0.2,0.4c-0.1,0.1-0.3,0.6-0.3,0.6v26.1h-1.9V12.4l-1.8,2.8c-0.5,0.8-1,1.5-1.5,2.2c-0.2-0.5-0.4-1-0.7-1.4
		c-0.1-0.3-0.3-0.6-0.4-0.8C39.7,14,40.6,12.7,41.4,11.3z"/>
	<path class="st0" d="M9.2,24.4v5.4c0,1.2,0.2,2.2,0.5,2.9c0.4,0.7,1,1.2,1.9,1.5c0.9,0.3,2.1,0.4,3.8,0.4c0.2,0,0.5,0,1,0
		c0.5,0,1,0,1.6,0s1.2,0,1.8,0c0.6,0,1.2,0,1.7,0c0.5,0,0.8,0,1,0c1.3,0,2.4-0.2,3.2-0.6c0.8-0.4,1.3-1,1.7-2s0.6-2.3,0.8-4
		c-0.4-0.1-0.8-0.2-1.2-0.3c-0.5-0.2-0.9-0.3-1.3-0.5c-0.4-0.2-0.8-0.4-1.1-0.6c-0.1,1.3-0.2,2.2-0.3,2.9c-0.1,0.6-0.3,1-0.6,1.2
		c-0.3,0.2-0.7,0.3-1.3,0.3c-0.3,0-0.8,0-1.4,0s-1.3,0-2,0c-0.7,0-1.3,0-1.9,0c-0.6,0-1,0-1.2,0c-1.1,0-1.7-0.1-2.1-0.2
		c-0.3-0.1-0.5-0.5-0.5-1v-5.4H9.2z M13.2,31.7c0.3,0.1,0.9,0.3,2.5,0.3h6.5c0.8,0,1.4-0.1,1.9-0.4c0.5-0.3,0.9-1,1.1-1.9
		c0.1-0.4,0.1-0.9,0.2-1.4c0.4,0.2,0.8,0.3,1.2,0.5c0.2,0.1,0.3,0.1,0.5,0.1c-0.1,1.2-0.4,2.2-0.6,2.9c-0.3,0.7-0.7,1.2-1.2,1.4
		c-0.6,0.3-1.5,0.5-2.7,0.5h-7.2c-1.5,0-2.7-0.1-3.5-0.4c-0.6-0.2-1.1-0.5-1.3-1c-0.3-0.6-0.4-1.4-0.4-2.5v-4.4h2v4.4
		C12.2,31,12.8,31.5,13.2,31.7z"/>
</g>
</svg>
