<?xml version="1.0" encoding="utf-8"?>
<!-- Generator: Adobe Illustrator 27.9.1, SVG Export Plug-In . SVG Version: 6.00 Build 0)  -->
<svg version="1.1" id="Layer_1" xmlns="http://www.w3.org/2000/svg" xmlns:xlink="http://www.w3.org/1999/xlink" x="0px" y="0px"
	 viewBox="0 0 73.6 36.1" style="enable-background:new 0 0 73.6 36.1;" xml:space="preserve">
<style type="text/css">
	.st0{fill:#282828;}
</style>
<path class="st0" d="M49.1,0l4.3,0.9c-1.4,2.1-3.1,4-5.1,6c-2,1.9-4.3,3.7-6.9,5.3c-0.2-0.3-0.4-0.6-0.8-1c-0.3-0.4-0.7-0.7-1-1
	c-0.3-0.3-0.7-0.6-1-0.8c1.6-0.9,3.1-1.9,4.5-2.9c1.3-1.1,2.5-2.1,3.5-3.2C47.6,2.1,48.4,1,49.1,0z M8.2,0l4.3,0.9
	c-0.9,3-2.1,5.8-3.6,8.4c-1.5,2.6-3.2,4.7-5.1,6.4c-0.3-0.3-0.6-0.5-1.1-0.9c-0.5-0.3-0.9-0.7-1.4-1c-0.5-0.3-0.9-0.6-1.3-0.8
	c1.9-1.5,3.5-3.4,4.9-5.7C6.3,5.1,7.4,2.7,8.2,0z M58.3,2.6h0.9l0.6-0.2l2.8,1.8c-0.4,0.7-0.9,1.5-1.5,2.3c-0.6,0.8-1.2,1.6-1.9,2.3
	c-0.7,0.7-1.3,1.4-1.9,1.9c-0.4-0.3-0.9-0.6-1.4-1c-0.6-0.4-1.1-0.7-1.5-0.9c0.5-0.5,1.1-1.1,1.6-1.7c0.5-0.6,1-1.3,1.4-2
	c0.4-0.7,0.8-1.3,1-1.7V2.6z M48.8,2.6h11.2v3.1H48.8V2.6z M8.3,3.9h26v3.4h-26V3.9z M42.9,7.9h26.6v9.3H42.9V7.9z M53.8,9.5h4V16
	h-4V9.5z M8.7,9.5h22v3.3h-22V9.5z M46.7,10.9v3.3h18.8v-3.3H46.7z M55.4,14.9l3,1.4c-1.4,1.1-3.1,2-5,2.9c-1.9,0.9-4,1.7-6.1,2.3
	c-2.1,0.7-4.1,1.3-6.1,1.7c-0.2-0.2-0.3-0.5-0.6-0.9c-0.2-0.4-0.5-0.7-0.8-1.1c-0.3-0.4-0.5-0.7-0.7-0.9c2-0.3,3.9-0.8,5.9-1.3
	c2-0.6,3.9-1.2,5.7-1.9C52.6,16.5,54.2,15.7,55.4,14.9z M25.1,15h4.2c0,2.4,0,4.5,0.1,6.5c0.1,2,0.2,3.8,0.4,5.3
	c0.2,1.5,0.5,2.7,0.9,3.6c0.4,0.8,0.9,1.3,1.4,1.3c0.3,0,0.6-0.5,0.7-1.5c0.1-1,0.2-2.2,0.2-3.8c0.4,0.5,0.8,0.9,1.3,1.4
	c0.5,0.5,1,0.9,1.4,1.2c-0.1,1.6-0.3,2.9-0.5,3.9c-0.3,1-0.6,1.7-1.2,2.2c-0.5,0.5-1.2,0.7-2.1,0.7c-1.5,0-2.7-0.5-3.6-1.6
	c-0.9-1.1-1.6-2.5-2-4.4c-0.5-1.9-0.8-4.1-0.9-6.6C25.2,20.6,25.1,17.9,25.1,15z M4.3,15h22.2v3.5H4.3V15z M60,15.5
	c0.7,2.4,1.6,4.7,2.9,6.7c1.2,2.1,2.7,3.8,4.5,5.3c1.8,1.5,3.9,2.7,6.3,3.5c-0.3,0.3-0.6,0.6-0.9,1s-0.7,0.8-0.9,1.3
	c-0.3,0.4-0.5,0.8-0.7,1.2c-2.5-1-4.7-2.4-6.6-4.2c-1.9-1.7-3.5-3.8-4.7-6.2c-1.3-2.4-2.3-5-3.1-7.9L60,15.5z M69.4,17.4l3.3,2.4
	c-0.9,0.7-2,1.3-3,1.9c-1.1,0.6-2.2,1.2-3.2,1.8c-1.1,0.6-2.1,1.1-3,1.5l-2.6-2.1c0.9-0.5,1.9-1,2.9-1.6c1.1-0.6,2.1-1.3,3.1-2
	C67.8,18.6,68.7,18,69.4,17.4z M48.9,20l2.7-2c1.9,1,3.5,2.2,4.7,3.4c1.2,1.3,2.1,2.5,2.8,3.9c0.6,1.3,0.9,2.6,1,3.8
	c0.1,1.2-0.1,2.3-0.6,3.2c-0.4,1-1.1,1.7-1.9,2.2c-0.7,0.4-1.3,0.7-2,0.9c-0.6,0.2-1.4,0.3-2.3,0.3c-0.5,0-1,0-1.5,0
	c-0.5,0-1.1,0-1.6-0.1c0-0.5-0.1-1.1-0.3-1.8c-0.2-0.7-0.5-1.3-0.8-1.8c0.7,0.1,1.3,0.1,1.9,0.1c0.6,0,1.2,0,1.6,0s0.9,0,1.3-0.1
	c0.4-0.1,0.8-0.2,1.1-0.5c0.6-0.4,0.9-1,1.1-1.8c0.2-0.8,0-1.8-0.4-2.9c-0.4-1.1-1.2-2.3-2.3-3.5C52.3,22.2,50.8,21.1,48.9,20z
	 M17.8,18.8l4,1.3c-1.3,2.4-2.9,4.6-4.7,6.6c-1.8,2-3.8,3.8-6,5.4c-2.2,1.6-4.4,2.9-6.8,4c-0.2-0.3-0.5-0.6-0.8-1
	c-0.4-0.4-0.7-0.8-1.1-1.2c-0.4-0.4-0.7-0.7-1-1c2.4-1,4.6-2.1,6.7-3.6c2.1-1.4,4-3,5.7-4.8C15.3,22.8,16.7,20.9,17.8,18.8z
	 M4.6,22.8l2.9-2.7c1.4,0.7,2.9,1.6,4.4,2.5c1.5,0.9,3,1.9,4.5,2.9c1.5,1,2.9,2,4.1,3c1.3,1,2.3,1.9,3.2,2.8l-3.2,3.1
	c-0.8-0.9-1.8-1.8-3-2.9c-1.2-1-2.5-2.1-4-3.1c-1.4-1.1-2.9-2.1-4.5-3C7.5,24.4,6,23.5,4.6,22.8z M53,20.6l2.7,1.4
	c-1.1,0.9-2.5,1.8-4.1,2.6c-1.6,0.8-3.3,1.6-5.1,2.3c-1.8,0.7-3.5,1.2-5.1,1.6c-0.3-0.4-0.6-0.9-1-1.4c-0.4-0.5-0.8-1-1.2-1.3
	c1.6-0.3,3.3-0.7,5-1.2c1.7-0.5,3.3-1.1,4.9-1.8C50.8,22.1,52,21.4,53,20.6z M55.5,24.1l2.9,1.6c-1,1-2.2,1.9-3.6,2.8
	c-1.4,0.9-2.8,1.7-4.4,2.5c-1.5,0.8-3.1,1.5-4.7,2.1c-1.6,0.6-3.2,1.1-4.7,1.6c-0.2-0.4-0.6-0.9-1-1.5c-0.5-0.6-0.9-1.1-1.3-1.4
	c1.5-0.4,3.1-0.8,4.7-1.3c1.6-0.5,3.1-1.1,4.7-1.8c1.5-0.7,2.9-1.4,4.2-2.1C53.5,25.7,54.6,24.9,55.5,24.1z"/>
</svg>
