<?xml version="1.0" encoding="utf-8"?>
<!-- Generator: Adobe Illustrator 27.9.1, SVG Export Plug-In . SVG Version: 6.00 Build 0)  -->
<svg version="1.1" id="Layer_1" xmlns="http://www.w3.org/2000/svg" xmlns:xlink="http://www.w3.org/1999/xlink" x="0px" y="0px"
	 viewBox="0 0 220.4 32.9" style="enable-background:new 0 0 220.4 32.9;" xml:space="preserve">
<style type="text/css">
	.st0{fill:#282828;}
</style>
<g>
	<path class="st0" d="M19.3,0c-0.1,0.4-0.1,1-0.2,1.6c-0.1,0.6-0.1,1.3-0.1,1.8c0,0.4,0,0.8,0,1.3c0,0.5,0,1,0,1.5
		c0,0.5,0,0.9,0,1.3h-4.4c0-0.4,0-0.8,0-1.2c0-0.5,0-1,0-1.5c0-0.5,0-1,0-1.4c0-0.6,0-1.2,0-1.9c0-0.6-0.1-1.2-0.2-1.6H19.3z
		 M152.3,16.4c3.4-0.9,6.4-1.9,9.2-3.1c2.8-1.2,5.2-2.5,7.4-3.8c1.3-0.8,2.6-1.7,3.9-2.8c1.3-1,2.5-2.1,3.7-3.2
		c1.2-1.1,2.2-2.2,3-3.2l3.7,3.5c-1.1,1.1-2.4,2.3-3.7,3.4c-1.3,1.2-2.7,2.2-4.2,3.3c-1.5,1-2.9,2-4.4,2.9c-1.4,0.8-3,1.7-4.8,2.6
		c-1.8,0.9-3.7,1.7-5.6,2.5c-2,0.8-4,1.5-6,2.1L152.3,16.4z M61.4,0.6c-0.1,0.6-0.1,1.2-0.2,1.8c0,0.6,0,1.3,0,1.8c0,1,0,2.1,0,3.3
		c0,1.2,0.1,2.5,0.1,3.9s0.1,2.9,0.1,4.4c0,1.5,0.1,3,0.1,4.5c0,1.5,0.1,3,0.1,4.4c0,1.4,0,2.8,0,4c0,1.1-0.3,2-1,2.7
		c-0.7,0.6-1.7,0.9-3.1,0.9c-1.1,0-2.2,0-3.2-0.1c-1.1,0-2.1-0.1-3.2-0.2l-0.4-4.4c0.9,0.2,1.8,0.3,2.8,0.3c0.9,0.1,1.8,0.1,2.4,0.1
		c0.5,0,0.8-0.1,1-0.4c0.2-0.3,0.3-0.6,0.3-1.2c0-0.9,0-1.9,0-3.1c0-1.2,0-2.4,0-3.8c0-1.4,0-2.7-0.1-4.1c0-1.4-0.1-2.8-0.1-4.2
		c0-1.4-0.1-2.7-0.1-3.9c0-1.2-0.1-2.3-0.2-3.3c0-0.8-0.1-1.5-0.1-2.1c-0.1-0.6-0.1-1.1-0.2-1.6H61.4z M199.8,27.3
		c0-0.4,0-1.2,0-2.3c0-1.1,0-2.4,0-3.8c0-1.5,0-3,0-4.6c0-1.6,0-3.2,0-4.7c0-1.5,0-2.8,0-4c0-1.2,0-2,0-2.5c0-0.7,0-1.4-0.1-2.2
		c-0.1-0.8-0.1-1.6-0.3-2.2h5.3c-0.1,0.6-0.2,1.3-0.2,2.1c-0.1,0.8-0.1,1.5-0.1,2.3c0,0.8,0,1.8,0,3c0,1.3,0,2.6,0,4.1
		c0,1.5,0,3,0,4.6c0,1.5,0,3,0,4.4c0,1.4,0,2.6,0,3.6s0,1.7,0,2.1c0,0.4,0,0.9,0,1.5c0,0.6,0.1,1.2,0.1,1.9c0.1,0.6,0.1,1.2,0.2,1.7
		h-5.3c0.1-0.7,0.2-1.5,0.2-2.5C199.8,28.9,199.8,28,199.8,27.3z M120.2,1.9c0.5,0.1,1.1,0.1,1.8,0.2c0.7,0,1.3,0,2,0
		c0.5,0,1.2,0,2.2,0c1,0,2.1,0,3.4,0c1.2,0,2.5,0,3.7,0c1.2,0,2.3,0,3.3,0c1,0,1.7,0,2.1,0c0.6,0,1.3,0,2,0c0.7,0,1.4-0.1,1.9-0.2
		v4.4c-0.5-0.1-1.1-0.1-1.8-0.1c-0.7,0-1.4,0-2.1,0c-0.4,0-1.1,0-2.1,0c-1,0-2.1,0-3.3,0c-1.2,0-2.5,0-3.7,0c-1.2,0-2.4,0-3.3,0
		s-1.7,0-2.2,0c-0.6,0-1.2,0-1.9,0c-0.7,0-1.3,0.1-1.8,0.1V1.9z M82.7,2.2c0.7,0.5,1.4,1,2.3,1.7c0.9,0.7,1.8,1.4,2.7,2.1
		c0.9,0.8,1.8,1.5,2.7,2.2c0.8,0.7,1.5,1.4,2.1,2L89,13.8c-0.5-0.5-1.1-1.1-1.9-1.9c-0.8-0.7-1.6-1.5-2.5-2.3
		c-0.9-0.8-1.8-1.5-2.7-2.2c-0.9-0.7-1.7-1.3-2.4-1.7L82.7,2.2z M29.9,7.9c-0.4,0.4-0.9,0.9-1.4,1.5c-0.5,0.5-0.9,1-1.3,1.5
		c-0.7,0.8-1.5,1.6-2.4,2.6c-0.9,0.9-1.9,1.9-3,2.8c-1.1,0.9-2.2,1.8-3.4,2.6c-1.4,1-2.9,1.9-4.6,2.7c-1.7,0.9-3.4,1.7-5.3,2.4
		c-1.9,0.7-3.8,1.4-5.9,2L0,22c3.6-0.8,6.7-1.8,9.2-3c2.5-1.2,4.6-2.3,6.3-3.4c1-0.7,2-1.4,2.8-2.1c0.9-0.7,1.7-1.4,2.3-2.1
		c0.7-0.7,1.2-1.3,1.6-1.8c-0.3,0-0.8,0-1.6,0s-1.6,0-2.6,0c-1,0-2,0-3.1,0s-2.1,0-3,0c-1,0-1.8,0-2.5,0c-0.7,0-1.2,0-1.5,0
		c-0.4,0-1,0-1.6,0c-0.6,0-1.2,0-1.8,0.1C3.9,9.7,3.4,9.7,3,9.8V5.3c0.7,0.1,1.5,0.2,2.4,0.2c0.9,0,1.7,0.1,2.4,0.1
		c0.3,0,0.8,0,1.6,0c0.8,0,1.8,0,2.9,0c1.1,0,2.2,0,3.5,0s2.4,0,3.5,0s2.1,0,3,0c0.8,0,1.5,0,1.8,0c0.5,0,1.1,0,1.6-0.1
		c0.5-0.1,1-0.1,1.4-0.2L29.9,7.9z M40.1,7c0.6,0.1,1.2,0.1,2,0.2c0.7,0.1,1.4,0.1,2,0.1c0.4,0,1,0,1.9,0s2,0,3.3,0c1.3,0,2.6,0,4,0
		c1.4,0,2.9,0,4.3,0c1.4,0,2.7,0,4,0c1.2,0,2.3,0,3.1,0c0.8,0,1.4,0,1.7,0c0.6,0,1.2,0,2-0.1C69,7.1,69.6,7,70,7v4.5
		c-0.6,0-1.2,0-1.8-0.1c-0.6,0-1.2,0-1.7,0c-0.2,0-0.8,0-1.6,0c-0.8,0-1.9,0-3.2,0s-2.6,0-4,0c-1.4,0-2.9,0-4.4,0
		c-1.5,0-2.9,0-4.1,0c-1.3,0-2.4,0-3.3,0c-0.9,0-1.5,0-1.7,0c-0.7,0-1.3,0-2.1,0c-0.7,0-1.4,0-2.1,0.1V7z M78.3,27.6
		c2.1-0.3,4-0.7,5.7-1.3c1.8-0.5,3.4-1.1,4.9-1.8c1.5-0.7,2.9-1.4,4.1-2.1c2.1-1.3,4-2.7,5.8-4.4c1.7-1.6,3.3-3.3,4.6-5.1
		c1.3-1.8,2.4-3.5,3.2-5.1l2.6,4.7c-0.9,1.7-2.1,3.4-3.5,5.1c-1.4,1.7-2.9,3.3-4.6,4.8c-1.7,1.5-3.6,2.9-5.6,4.1
		c-1.3,0.8-2.7,1.5-4.2,2.2c-1.5,0.7-3.1,1.4-4.8,1.9c-1.7,0.6-3.5,1-5.4,1.3L78.3,27.6z M168.1,11.7l4.8-1.2v17.2
		c0,0.5,0,1.1,0,1.7c0,0.6,0,1.2,0.1,1.7c0.1,0.5,0.1,1,0.2,1.2h-5.4c0.1-0.3,0.1-0.7,0.1-1.2c0-0.5,0.1-1.1,0.1-1.7
		c0-0.6,0-1.2,0-1.7V11.7z M38.2,25c2-0.9,3.9-2,5.7-3.2c1.8-1.2,3.5-2.5,5-3.7c1.5-1.3,2.9-2.6,4-3.9c1.2-1.3,2.1-2.5,2.8-3.6h2.2
		l0,3.6c-0.7,1.1-1.7,2.4-2.9,3.6c-1.2,1.3-2.5,2.6-4,3.9c-1.5,1.3-3,2.5-4.7,3.7c-1.7,1.2-3.3,2.2-5,3.1L38.2,25z M145.7,12.7
		c-0.1,0.2-0.3,0.5-0.4,0.8c-0.1,0.3-0.2,0.5-0.3,0.7c-0.6,1.8-1.3,3.7-2.2,5.5s-2,3.5-3.4,5.1c-1.9,2.2-4.1,3.9-6.4,5.2
		c-2.3,1.3-4.7,2.3-7.2,3l-3.4-3.8c2.8-0.6,5.3-1.5,7.6-2.6c2.3-1.2,4.1-2.5,5.6-4.1c1.1-1.1,1.9-2.3,2.6-3.5
		c0.7-1.3,1.2-2.5,1.5-3.6c-0.3,0-0.8,0-1.5,0c-0.7,0-1.6,0-2.5,0s-2.1,0-3.2,0c-1.2,0-2.3,0-3.5,0c-1.2,0-2.3,0-3.4,0
		c-1.1,0-2,0-2.8,0c-0.8,0-1.5,0-1.9,0c-0.5,0-1.1,0-1.9,0c-0.8,0-1.6,0.1-2.3,0.2v-4.4c0.8,0.1,1.5,0.1,2.3,0.2
		c0.7,0.1,1.4,0.1,1.9,0.1c0.4,0,0.9,0,1.7,0c0.8,0,1.7,0,2.7,0c1,0,2.2,0,3.3,0c1.2,0,2.4,0,3.6,0c1.2,0,2.3,0,3.4,0
		c1.1,0,2,0,2.7,0c0.8,0,1.3,0,1.7,0c0.6,0,1.1,0,1.6-0.1c0.5-0.1,0.8-0.2,1.1-0.3L145.7,12.7z M203.5,10.8c1.3,0.4,2.7,0.8,4.2,1.3
		c1.5,0.5,3.1,1.1,4.7,1.7c1.6,0.6,3.1,1.2,4.5,1.7c1.4,0.6,2.6,1.1,3.6,1.6l-1.9,4.7c-1.1-0.6-2.3-1.2-3.6-1.7
		c-1.3-0.6-2.7-1.1-4-1.7c-1.4-0.5-2.7-1-4-1.5c-1.3-0.5-2.5-0.8-3.5-1.2V10.8z M19,16.4c0,0.7,0,1.6,0,2.6c0,1,0,2.1,0,3.2
		c0,1.1,0,2.2,0,3.3c0,1.1,0,2,0,2.7c0,0.5,0,1,0,1.6c0,0.6,0,1.1,0.1,1.7c0.1,0.5,0.1,1,0.1,1.4h-4.9c0.1-0.4,0.1-0.8,0.1-1.4
		c0-0.5,0.1-1.1,0.1-1.7c0-0.6,0-1.1,0-1.6c0-0.7,0-1.6,0-2.5c0-0.9,0-1.8,0-2.8c0-1,0-1.8,0-2.7c0-0.8,0-1.5,0-2.1L19,16.4z
		 M30.8,26.4c-1.1-0.9-2.1-1.6-3.1-2.3c-1-0.7-1.9-1.3-2.9-1.9c-1-0.6-2-1.2-3.1-1.8l2.8-3.2c1.2,0.6,2.2,1.2,3.2,1.7
		c0.9,0.5,1.8,1.1,2.8,1.7c0.9,0.6,2,1.3,3.2,2.1L30.8,26.4z"/>
</g>
</svg>
