<?xml version="1.0" encoding="utf-8"?>
<!-- Generator: Adobe Illustrator 27.9.1, SVG Export Plug-In . SVG Version: 6.00 Build 0)  -->
<svg version="1.1" id="Layer_1" xmlns="http://www.w3.org/2000/svg" xmlns:xlink="http://www.w3.org/1999/xlink" x="0px" y="0px"
	 viewBox="0 0 112.2 35.6" style="enable-background:new 0 0 112.2 35.6;" xml:space="preserve">
<style type="text/css">
	.st0{fill:#282828;}
</style>
<g>
	<path class="st0" d="M99.3,7.6l2.8-1.3c-0.2-0.7-0.6-1.6-1.2-2.5c-0.5-1-1.1-1.9-1.7-2.7l-2.7,1.2C97.2,3.1,97.7,4,98.2,5
		C98.7,6,99.1,6.9,99.3,7.6z M99,2.3c0.4,0.6,0.8,1.2,1.1,1.9c0.3,0.6,0.6,1.1,0.8,1.5l-1,0.5c-0.2-0.5-0.5-1.1-0.8-1.7
		c-0.3-0.6-0.7-1.3-1-1.8L99,2.3z"/>
	<path class="st0" d="M78,9.5c0.3,0.4,0.5,0.7,0.6,1c1-0.8,2-1.6,3-2.6c1-1,1.9-2.1,2.8-3.2c0.9-1.1,1.7-2.2,2.3-3.3L83,0.1
		c-0.4,0.8-1,1.7-1.7,2.6c-0.7,0.9-1.5,1.8-2.3,2.6c-0.8,0.8-1.7,1.6-2.5,2.2c0.2,0.3,0.4,0.6,0.7,0.9C77.4,8.8,77.7,9.2,78,9.5z
		 M79.7,6c0.9-0.8,1.7-1.8,2.4-2.7c0.5-0.7,1-1.4,1.4-2l1.7,0.6c-0.5,0.7-1,1.4-1.6,2.1c-0.9,1.1-1.8,2.1-2.7,3.1
		c-0.7,0.7-1.3,1.3-2,1.9c0,0,0,0,0-0.1c-0.3-0.4-0.5-0.8-0.8-1.2c0-0.1-0.1-0.1-0.1-0.2C78.4,7.2,79.1,6.6,79.7,6z"/>
	<path class="st0" d="M102.6,5.8h9.1V2.2h-9.1V5.8z M103.6,3.2h7.1v1.6h-7.1V3.2z"/>
	<path class="st0" d="M78.2,22.3c0.9-0.8,1.8-1.7,2.6-2.7v16h3.7v-21c0.1-0.2,0.2-0.3,0.3-0.5c0.8-1.3,1.5-2.6,2.2-3.9V12h5.3v23
		h3.8V12h5.2V8.2h-5.2V0.6h-3.8v7.6h-5.3v0.8L83.9,8c-0.9,2-2,3.9-3.5,5.8c-1.4,1.9-2.9,3.5-4.4,4.8c0.2,0.3,0.5,0.7,0.8,1.1
		c0.3,0.5,0.6,0.9,0.9,1.4C77.9,21.6,78.1,22,78.2,22.3z M88.1,9.2h5.3V1.6h1.8v7.6h5.2V11h-5.2v23h-1.8V11h-5.3V9.2z M77.3,18.7
		c1.3-1.2,2.7-2.7,3.9-4.3c1.3-1.7,2.3-3.4,3.2-5.2l1.7,0.6c-0.7,1.3-1.3,2.6-2.1,3.7C84,13.6,83.7,14,83.7,14l-0.2,0.2v20.3h-1.7
		V16.9l-1.8,2c-0.5,0.6-1.1,1.2-1.6,1.7c-0.3-0.5-0.6-1-0.9-1.5C77.5,19,77.4,18.9,77.3,18.7z"/>
	<path class="st0" d="M100.2,16l-3,0.6c0.3,1.2,0.5,2.5,0.7,3.8c0.2,1.4,0.4,2.7,0.6,4c0.2,1.3,0.3,2.5,0.3,3.5l3.2-0.6
		c-0.1-1-0.2-2.2-0.4-3.5s-0.4-2.6-0.6-4C100.7,18.5,100.5,17.3,100.2,16z M99.7,26.8c-0.1-0.8-0.1-1.6-0.3-2.4
		c-0.2-1.3-0.4-2.7-0.6-4c-0.2-1-0.3-2-0.5-2.9l1.1-0.2c0.2,0.9,0.4,1.9,0.6,2.9c0.2,1.3,0.5,2.7,0.6,3.9c0.1,0.9,0.2,1.8,0.3,2.5
		L99.7,26.8z"/>
	<path class="st0" d="M12.2,22.9c-0.2,0.8-0.3,1.5-0.5,2.3c-0.2,0.8-0.4,1.4-0.5,2l2.5,0.7c0.3-0.8,0.6-1.8,0.9-3
		c0.3-1.2,0.6-2.3,1-3.4l-3-0.8C12.5,21.5,12.4,22.2,12.2,22.9z M13.2,23.1c0.1-0.4,0.1-0.7,0.2-1.1l0.9,0.2
		c-0.2,0.8-0.5,1.6-0.7,2.4c-0.2,0.7-0.4,1.4-0.6,2l-0.6-0.2c0.1-0.3,0.2-0.7,0.3-1.1C12.9,24.7,13,23.9,13.2,23.1z"/>
	<path class="st0" d="M86.6,25c-0.3,1.4-0.7,2.6-1.2,3.6c0.3,0.1,0.6,0.3,1,0.6c0.4,0.2,0.7,0.5,1,0.7c0.3,0.2,0.6,0.5,0.8,0.6
		c0.5-1.2,1-2.5,1.3-4c0.4-1.5,0.7-3.1,0.9-4.8c0.2-1.7,0.4-3.5,0.5-5.2L87.6,16c-0.1,1.6-0.2,3.1-0.4,4.7
		C87.1,22.2,86.9,23.7,86.6,25z M88.2,20.8c0.1-1.2,0.2-2.4,0.3-3.7l1.3,0.2c-0.1,1.4-0.3,2.9-0.4,4.2c-0.2,1.7-0.5,3.3-0.9,4.8
		c-0.2,1-0.5,1.8-0.8,2.6c-0.3-0.2-0.5-0.4-0.8-0.6c-0.1-0.1-0.2-0.1-0.2-0.2c0.3-0.9,0.6-1.9,0.9-2.9
		C87.8,23.8,88.1,22.3,88.2,20.8z"/>
	<path class="st0" d="M101.6,16.5h3.6V31c0,0.3,0,0.4-0.1,0.5c-0.1,0.1-0.3,0.1-0.5,0.2c-0.3,0-0.7,0-1.5,0c-0.7,0-1.5,0-2.3-0.1
		c0.3,0.6,0.5,1.2,0.7,2c0.2,0.7,0.3,1.4,0.4,2c1.3,0,2.4,0,3.3-0.1s1.7-0.3,2.3-0.6c0.6-0.3,1.1-0.8,1.3-1.4
		c0.2-0.6,0.3-1.4,0.3-2.4V16.5h3.1v-3.6h-10.6V16.5z M102.6,13.8h8.6v1.6h-3.1v15.6c0,0.9-0.1,1.5-0.3,2c-0.1,0.4-0.4,0.6-0.8,0.8
		c-0.5,0.2-1.2,0.4-2,0.5c-0.7,0.1-1.5,0.1-2.4,0.1c-0.1-0.4-0.2-0.8-0.3-1.2c-0.1-0.2-0.1-0.5-0.2-0.7c0.3,0,0.6,0,0.9,0
		c0.7,0,1.2,0,1.5,0l0.1,0c0.5,0,0.8-0.2,1.1-0.4c0.5-0.4,0.5-1,0.5-1.3V15.5h-3.6V13.8z"/>
	<path class="st0" d="M65.7,7.7c-1.4-1.1-2.8-2.3-4-3.7c-1.3-1.3-2.4-2.7-3.4-4.1H54c-0.9,1.5-2.2,3.2-3.8,4.8
		c-1.6,1.7-3.4,3.3-5.4,4.8c-2,1.5-4.1,2.8-6.3,3.9c0.3,0.3,0.6,0.6,1,1c0.3,0.4,0.6,0.8,0.9,1.2c0.3,0.4,0.5,0.8,0.7,1.1
		c2-1.1,4-2.3,5.9-3.7v2h7.3v4.1H42.2v3.5h11.9v8.1h-5.7l3.3-1.4c-0.2-0.6-0.5-1.3-0.8-2c-0.4-0.7-0.8-1.5-1.3-2.3
		c-0.5-0.8-1-1.5-1.5-2.1l-3.3,1.3c0.5,0.7,0.9,1.4,1.4,2.2c0.5,0.8,0.9,1.6,1.2,2.4c0.3,0.7,0.6,1.4,0.7,2h-7.8v3.5h32.3v-3.5h-9
		c0.7-0.8,1.4-1.8,2.2-2.9c0.8-1.2,1.6-2.4,2.3-3.5L64.3,23c-0.3,0.7-0.6,1.4-1.1,2.2c-0.4,0.8-0.9,1.6-1.3,2.4
		c-0.5,0.8-0.9,1.5-1.3,2.1l2.8,1.2h-4.8v-8.1h12.1v-3.5H58.5v-4.1H66V13c0.5,0.4,1,0.7,1.5,1.1c1.5,1,3,1.9,4.4,2.6
		c0.4-0.6,0.8-1.2,1.2-1.9c0.5-0.7,0.9-1.2,1.4-1.7c-1.5-0.6-3-1.4-4.5-2.3C68.6,9.9,67.2,8.9,65.7,7.7z M47.1,26.1
		c-0.2-0.4-0.5-0.9-0.7-1.3l1.4-0.6c0.3,0.4,0.6,0.9,0.9,1.4c0.5,0.8,0.9,1.5,1.2,2.2c0.2,0.4,0.3,0.7,0.5,1l-1.7,0.7
		c-0.1-0.4-0.3-0.7-0.4-1.1C48,27.7,47.5,26.9,47.1,26.1z M63.3,29.8L62,29.3c0.2-0.4,0.5-0.7,0.7-1.1c0.5-0.8,0.9-1.6,1.4-2.4
		c0.3-0.5,0.5-1,0.7-1.4l1.8,0.7c-0.5,0.8-1.1,1.6-1.6,2.5C64.4,28.3,63.8,29.1,63.3,29.8z M65,14.1h-7.5v6.1h12.1v1.5H57.5v10.1
		h14.2v1.5H41.3v-1.5h13.8V21.8H43.2v-1.5h11.9v-6.1h-7.3v-1.6H65V14.1z M49,11.5c1.2-1,2.3-2,3.4-3C54,7,55.3,5.5,56.3,4
		c0.8,1.1,1.8,2.3,3,3.5c1.2,1.2,2.5,2.3,3.9,3.5c0.3,0.2,0.5,0.4,0.8,0.6H49z M72.4,14.2c-0.3,0.4-0.5,0.8-0.8,1.2
		c-1.2-0.6-2.3-1.3-3.5-2.1c-0.5-0.3-0.9-0.6-1.4-0.9l-1.2-0.8l-1-0.8l-0.3-0.3c-0.1-0.1-0.3-0.2-0.4-0.3c-1.4-1.1-2.6-2.3-3.8-3.4
		c-1.1-1.1-2.1-2.2-2.9-3.3l-0.8-1.1l-0.8,1.1c-1,1.4-2.3,2.9-3.8,4.4c-1,1-2.1,1.9-3.3,2.9l-1.1,0.9l-1,0.8
		c-1.6,1.2-3.2,2.2-4.9,3.1c-0.1-0.1-0.1-0.2-0.2-0.3c-0.3-0.4-0.6-0.9-1-1.3c0,0,0-0.1-0.1-0.1c1.8-1,3.6-2.1,5.3-3.4
		c2-1.5,3.9-3.2,5.5-4.9C52.4,4,53.6,2.5,54.6,1h3.2c1,1.3,2,2.5,3.2,3.8c1.3,1.3,2.7,2.6,4.1,3.8c1.4,1.1,3,2.2,4.5,3.1
		c1.1,0.7,2.3,1.3,3.4,1.8C72.8,13.7,72.6,14,72.4,14.2z"/>
	<path class="st0" d="M32.5,11.7h-6V16h6V11.7z M31.5,15h-4v-2.4h4V15z"/>
	<path class="st0" d="M18.9,21.2h5.9v-4.3h-5.9V21.2z M19.9,17.9h3.9v2.3h-3.9V17.9z"/>
	<path class="st0" d="M1.8,11.2c0.3,0.3,0.5,0.6,0.7,0.9c0.3-0.3,0.6-0.6,0.9-0.9v1.6h3.5v3.2H1.5v3.5h5.4v10.4
		c-0.5,0.1-1,0.2-1.5,0.3c-1.6,0.3-3,0.5-4.3,0.7l0.8,3.7c2-0.4,4.2-0.9,6.7-1.4c1.8-0.4,3.6-0.8,5.3-1.1c0.1,0.1,0.2,0.2,0.3,0.3
		c0.3,0.4,0.7,0.7,1,1.1c0.3,0.4,0.6,0.7,0.8,1.1c1.3-0.8,2.6-1.9,3.8-3.1c1.2-1.2,2.3-2.6,3.3-4.2c0.2-0.3,0.4-0.7,0.6-1v9.2h3.8
		V26c0.2,0.4,0.4,0.7,0.6,1.1C29,28.6,30,30,31,31.3c1,1.3,2.1,2.4,3.1,3.3c0.3-0.5,0.8-1,1.3-1.6c0.5-0.6,1-1.1,1.5-1.4
		c-1-0.7-2-1.6-3.1-2.7c-1-1.1-2-2.2-2.9-3.5c-0.5-0.7-1-1.5-1.4-2.2h5.5V9.7h-7.5V7.2h8.3V3.6h-8.3V0.1h-3.8v3.6h-8.2v1.7
		c-0.2-0.3-0.5-0.6-0.8-0.9c-0.7-0.8-1.5-1.6-2.3-2.3c-0.8-0.8-1.6-1.5-2.4-2.1H8.9H7.3H6.8c-0.4,1-0.9,2-1.6,3.2
		C4.6,4.3,3.8,5.4,3,6.5c-0.9,1.1-1.8,2.1-3,3c0.3,0.2,0.5,0.4,0.9,0.7C1.2,10.6,1.5,10.9,1.8,11.2z M16.6,4.6h8.2V1.1h1.8v3.6h8.3
		v1.6h-8.3v4.5h7.5v11.5h-6.2l0.8,1.5c0.5,0.8,0.9,1.6,1.4,2.3c0.9,1.3,1.9,2.5,2.9,3.6c0.7,0.8,1.5,1.5,2.2,2.1
		c-0.2,0.2-0.4,0.4-0.6,0.7c-0.3,0.3-0.5,0.6-0.7,0.8c-0.7-0.7-1.5-1.5-2.2-2.4c-1-1.2-1.9-2.6-2.8-4.1c-0.1-0.2-0.2-0.5-0.4-0.7
		l-0.2-0.4L26.6,26v8.5h-1.8V22.7l-1.9,3.1c-0.2,0.3-0.4,0.7-0.6,1c-1,1.5-2,2.8-3.2,4c-0.9,0.9-1.9,1.8-2.9,2.4
		c-0.1-0.1-0.2-0.2-0.3-0.3c-0.3-0.4-0.7-0.8-1-1.1c-0.1-0.1-0.2-0.2-0.2-0.2L14.3,31l-0.7,0.1c-1.7,0.4-3.4,0.7-5.2,1.1
		c-2.1,0.4-4,0.8-5.8,1.2l-0.4-1.7c1-0.2,2.1-0.3,3.3-0.6l2.3-0.4V18.6H2.5v-1.5h5.4v-5.2H4.4v-1.4h9.1v1.4H9.5v5.2h5v1.5h-5v11.9
		l1.2-0.2l0.1,0l4.2-0.8l0.2,2.3l1.5-1.1c0.4-0.3,0.8-0.6,1.2-0.9c1.2-1.1,2.4-2.3,3.4-3.6c0.6-0.8,1.1-1.6,1.6-2.5l0.9-1.5h-6.1
		V10.7h7.3V6.2h-8.2V4.6z M5.1,9.4c0.7-0.8,1.4-1.7,2-2.6c0.7-1.1,1.3-2.1,1.9-3c0.4,0.4,0.8,0.8,1.3,1.2c0.8,0.8,1.5,1.7,2.1,2.5
		c0.5,0.7,1,1.3,1.3,1.8H5.1z M16.2,7.2h7.6v2.5h-7.3v13.5h5.3c-0.5,0.8-1,1.6-1.6,2.4c-1,1.3-2.1,2.4-3.2,3.5
		c-0.4,0.3-0.7,0.6-1.1,0.9l-0.1-1.6c-1.8,0.3-3.6,0.7-5.3,1c0,0,0,0,0,0v-9.7h5v-3.5h-5v-3.2h4.1V9.4h-0.2L16.2,7.2z M3.7,7.1
		C4.6,6,5.4,4.9,6.1,3.7c0.5-0.9,1-1.8,1.3-2.6h2.4c0.7,0.6,1.3,1.2,2,1.8c0.8,0.8,1.6,1.5,2.3,2.3c0.3,0.3,0.5,0.5,0.7,0.8l0.5,0.6
		l-1.3,1.5c-0.3-0.4-0.6-0.8-0.9-1.2c-0.7-0.9-1.4-1.7-2.2-2.6C10.6,4,10.2,3.5,9.7,3.1L8.8,2.2L8.1,3.3c-0.6,1-1.2,2-1.9,3
		C5.7,7.1,5.1,7.9,4.4,8.8L3.7,9.6c0,0-1.1,1-1.1,1c0,0,0-0.1-0.1-0.1c-0.3-0.3-0.6-0.7-1-1c0,0,0,0,0,0C2.3,8.7,3.1,7.9,3.7,7.1z"
		/>
	<path class="st0" d="M18.9,16h5.9v-4.4h-5.9V16z M19.9,12.7h3.9V15h-3.9V12.7z"/>
	<path class="st0" d="M32.5,16.9h-6v4.3h6V16.9z M31.5,20.2h-4v-2.3h4V20.2z"/>
	<path class="st0" d="M6.1,27.9c-0.1-0.9-0.2-2-0.5-3.3S5,22.2,4.7,21.1l-2.6,0.7c0.3,1.1,0.6,2.3,0.8,3.5c0.2,1.3,0.4,2.4,0.4,3.3
		L6.1,27.9z M4,22.3c0.2,0.8,0.4,1.6,0.6,2.5c0.2,0.8,0.3,1.6,0.4,2.3l-0.8,0.2C4.1,26.7,4,26,3.9,25.2c-0.2-0.9-0.4-1.8-0.6-2.6
		L4,22.3z"/>
</g>
</svg>
