<?xml version="1.0" encoding="utf-8"?>
<!-- Generator: Adobe Illustrator 27.9.1, SVG Export Plug-In . SVG Version: 6.00 Build 0)  -->
<svg version="1.1" id="Layer_1" xmlns="http://www.w3.org/2000/svg" xmlns:xlink="http://www.w3.org/1999/xlink" x="0px" y="0px"
	 viewBox="0 0 144.6 63.3" style="enable-background:new 0 0 144.6 63.3;" xml:space="preserve">
<g>
	<path d="M22.9,19c-3.3,0-5.9,0.6-8.1,2.1l1.4-8.6h22.9V0H6.8L2.1,32.5l7,3.6c2.8-3.3,7.7-5,12-5c6.5,0,10.4,3.6,10.4,9.5
		c0,7.4-6,10.2-10.4,10.2c-3.5,0-6.7-1.7-8.6-4.7L0,50.1c3.6,8.1,12.1,13.2,21.6,13.2c12.7,0,22.9-9,22.9-22.7
		C44.6,28.3,36.3,19,22.9,19z M21.6,60.8c-7.5,0-14.3-3.5-18-9.2l7.9-2.5c2.4,2.7,5.8,4.2,9.5,4.2c6.4,0,12.9-4.4,12.9-12.7
		c0-7.3-5.1-12-12.9-12c-4.7,0-9.3,1.7-12.5,4.4l-3.8-1.9L9,2.5h27.6V10H14l-2.6,16.6l4.9-3.5c1.6-1.2,3.7-1.7,6.7-1.7
		c11.5,0,19.1,7.7,19.1,19.1C42.1,52.3,33.5,60.8,21.6,60.8z"/>
	<path d="M72.9,19c-3.3,0-5.9,0.6-8.1,2.1l1.4-8.6h22.9V0H56.8l-4.7,32.5l7,3.6c2.8-3.3,7.7-5,12-5c6.5,0,10.4,3.6,10.4,9.5
		c0,7.4-6,10.2-10.4,10.2c-3.5,0-6.7-1.7-8.6-4.7l-12.5,4c3.6,8.1,12.1,13.2,21.6,13.2c12.7,0,22.9-9,22.9-22.7
		C94.6,28.3,86.3,19,72.9,19z M71.6,60.8c-7.5,0-14.3-3.5-18-9.2l7.9-2.5c2.4,2.7,5.8,4.2,9.5,4.2c6.4,0,12.9-4.4,12.9-12.7
		c0-7.3-5.1-12-12.9-12c-4.7,0-9.3,1.7-12.5,4.4l-3.8-1.9L59,2.5h27.6V10H64l-2.6,16.6l4.9-3.5c1.6-1.2,3.7-1.7,6.7-1.7
		c11.5,0,19.1,7.7,19.1,19.1C92.1,52.3,83.5,60.8,71.6,60.8z"/>
	<path d="M122.9,19c-3.3,0-5.9,0.6-8.1,2.1l1.4-8.6h22.9V0h-32.2l-4.7,32.5l7,3.6c2.8-3.3,7.7-5,12-5c6.5,0,10.4,3.6,10.4,9.5
		c0,7.4-6,10.2-10.4,10.2c-3.5,0-6.7-1.7-8.6-4.7l-12.5,4c3.6,8.1,12.1,13.2,21.6,13.2c12.7,0,22.9-9,22.9-22.7
		C144.6,28.3,136.3,19,122.9,19z M121.7,60.8c-7.5,0-14.3-3.5-18-9.2l7.9-2.5c2.4,2.7,5.8,4.2,9.5,4.2c6.4,0,12.9-4.4,12.9-12.7
		c0-7.3-5.1-12-12.9-12c-4.7,0-9.3,1.7-12.5,4.4l-3.8-1.9L109,2.5h27.6V10H114l-2.6,16.6l4.9-3.5c1.6-1.2,3.7-1.7,6.7-1.7
		c11.5,0,19.1,7.7,19.1,19.1C142.1,52.3,133.5,60.8,121.7,60.8z"/>
</g>
</svg>
