<?xml version="1.0" encoding="utf-8"?>
<!-- Generator: Adobe Illustrator 27.9.1, SVG Export Plug-In . SVG Version: 6.00 Build 0)  -->
<svg version="1.1" id="Layer_1" xmlns="http://www.w3.org/2000/svg" xmlns:xlink="http://www.w3.org/1999/xlink" x="0px" y="0px"
	 viewBox="0 0 265.1 35.6" style="enable-background:new 0 0 265.1 35.6;" xml:space="preserve">
<style type="text/css">
	.st0{fill:#282828;}
</style>
<g>
	<path class="st0" d="M100.9,6.3c-1.5,0-3,0-4.4-0.1c-1.4-0.1-2.7-0.2-3.9-0.4l0,4.4c1.1,0.1,2.4,0.2,3.8,0.2
		c1.4,0.1,2.8,0.1,4.3,0.1c1.5,0,2.9,0,4.3-0.1c1.4-0.1,2.6-0.1,3.8-0.2V5.9c-1,0.1-2.2,0.2-3.6,0.3C103.9,6.3,102.4,6.3,100.9,6.3z
		 M107.8,7v2.4c-0.9,0.1-1.8,0.1-2.8,0.2c-1.4,0.1-2.8,0.1-4.2,0.1c-1.4,0-2.9,0-4.2-0.1c-1,0-2-0.1-2.9-0.2l0-2.3
		c0.9,0.1,1.8,0.2,2.8,0.2c1.2,0.1,2.4,0.1,3.7,0.1l0.8,0c1.5,0,3-0.1,4.4-0.2C106.2,7.1,107,7.1,107.8,7z"/>
	<path class="st0" d="M196.7,2.9c-0.8-0.7-1.5-1.4-2.3-1.9l-3.1,2.3c0.7,0.6,1.5,1.3,2.2,2c0.8,0.7,1.5,1.5,2.1,2.3
		c0.6,0.8,1.1,1.4,1.5,2.1l3.3-2.5c-0.4-0.6-0.9-1.3-1.6-2C198.2,4.4,197.5,3.7,196.7,2.9z M197.4,8.2c-0.3-0.4-0.6-0.8-1-1.2
		c-0.7-0.8-1.4-1.6-2.2-2.3c-0.4-0.4-0.9-0.9-1.3-1.3l1.5-1.1c0.5,0.4,1.1,0.9,1.6,1.4c0.8,0.7,1.5,1.4,2.1,2.1
		c0.4,0.4,0.7,0.8,1,1.1L197.4,8.2z"/>
	<path class="st0" d="M1.6,17.2c0.3,0.5,0.4,0.9,0.6,1.3c1-1,2-2.2,3-3.5v20.6h3.9V9.2c0.3-0.5,0.6-1,0.9-1.5c1.2-2.1,2.2-4.2,3-6.3
		L9.2,0.2C8.5,1.9,7.7,3.7,6.7,5.4c-1,1.7-2,3.4-3.2,4.9c-1.2,1.5-2.3,2.8-3.6,4c0.3,0.3,0.5,0.8,0.8,1.3
		C1.1,16.1,1.3,16.6,1.6,17.2z M4.3,10.9c1.2-1.5,2.3-3.2,3.3-5c0.8-1.5,1.6-3,2.2-4.5L11.7,2c-0.7,1.7-1.6,3.5-2.5,5.2
		c-0.2,0.3-0.4,0.7-0.6,1L8.1,8.9v25.6H6.2V12l-1.8,2.3c-0.6,0.8-1.3,1.6-2,2.3c-0.2-0.5-0.5-1-0.8-1.5c-0.1-0.3-0.3-0.5-0.4-0.7
		C2.3,13.4,3.4,12.2,4.3,10.9z"/>
	<path class="st0" d="M236,29.6h8.7V16.1H236h-1.9h-1.7v16.6h3.6V29.6z M235,31.8h-1.6V17.1h10.3v11.5H235V31.8z"/>
	<path class="st0" d="M235,27.1h7v-8.4h-7V27.1z M236,19.6h5v6.4h-5V19.6z"/>
	<path class="st0" d="M256,7c-1.5-1-2.8-2.1-4.1-3.3c-1.3-1.2-2.5-2.4-3.6-3.7h-4.3c-1,1.4-2.4,2.9-4,4.4s-3.5,3-5.6,4.3
		c-2.1,1.4-4.2,2.5-6.4,3.5c0.3,0.3,0.6,0.6,0.9,1c0.3,0.4,0.6,0.8,0.9,1.2c0.3,0.4,0.5,0.8,0.7,1.1c2.1-1,4.2-2.2,6.2-3.5
		c0.7-0.5,1.4-0.9,2.1-1.4v2.8h15.4v-2.8c1.2,0.9,2.5,1.7,3.7,2.4c1.5,0.9,3,1.7,4.4,2.4c0.4-0.6,0.8-1.2,1.3-1.9
		c0.5-0.7,0.9-1.3,1.4-1.8c-1.5-0.6-3.1-1.3-4.6-2.1C259,8.9,257.5,8,256,7z M253.3,12.5h-13.4v-1.6h13.4V12.5z M240,9.8
		c0.8-0.6,1.6-1.2,2.3-1.8c1.7-1.4,3-2.8,4.1-4.2c0.9,1,1.9,2.1,3.2,3.2c1.1,1,2.3,1.9,3.5,2.8H240z M262.9,13
		c-0.3,0.4-0.5,0.8-0.8,1.2c-1.2-0.6-2.4-1.2-3.6-1.9c-1.2-0.7-2.4-1.5-3.7-2.4l-0.7-0.5L253.7,9c-1.3-1-2.4-1.9-3.4-2.8
		c-1.2-1.1-2.2-2.1-3.1-3.1l-0.8-0.9l-0.8,0.9c-1,1.3-2.4,2.7-4,4c-0.7,0.6-1.4,1.2-2.2,1.8l-0.5,0.3l-0.7,0.5
		c-0.7,0.5-1.3,0.9-2,1.4c-1.7,1.1-3.5,2.1-5.2,3c-0.1-0.1-0.2-0.3-0.3-0.4c0,0-1-1.3-1-1.4c1.8-0.9,3.6-1.9,5.3-3
		c2.1-1.4,4-2.9,5.7-4.4c1.5-1.4,2.8-2.8,3.8-4.1h3.3c1,1.2,2.1,2.4,3.4,3.4c1.3,1.2,2.8,2.3,4.2,3.4c1.5,1,3,2,4.6,2.8
		c1.1,0.6,2.3,1.1,3.4,1.6C263.2,12.4,263,12.7,262.9,13z"/>
	<path class="st0" d="M215.2,30.1v-2.8h10.6v-3h-10.6v-1.6h8.2V11.6h-8.2V10h9V7.1h-9V4.9h-4v2.2h-8.8V10h8.8v1.7h-7.9v11.1h7.9v1.6
		H201v3h10.2v2.8H215.2z M202,26.3v-1h10.2v-3.6h-7.9v-9.1h7.9V9h-8.8V8.1h8.8V5.9h2v2.2h9V9h-9v3.7h8.2v9.1h-8.2v3.6h10.6v1h-10.6
		v2.8h-2v-2.8H202z"/>
	<path class="st0" d="M212.2,17.4h-6.4v3.8h6.4V17.4z M211.2,20.1h-4.4v-1.8h4.4V20.1z"/>
	<path class="st0" d="M212.2,13.2h-6.4V17h6.4V13.2z M211.2,16h-4.4v-1.8h4.4V16z"/>
	<path class="st0" d="M220.7,13.2h-6.5V17h6.5V13.2z M219.7,16h-4.5v-1.8h4.5V16z"/>
	<path class="st0" d="M220.7,17.4h-6.5v3.8h6.5V17.4z M219.7,20.1h-4.5v-1.8h4.5V20.1z"/>
	<path class="st0" d="M201.4,6.4h3.6V4.2h16.5v2.2h3.8V1.3h-23.9V6.4z M202.4,2.3h21.9v3.1h-1.8V3.2H204v2.2h-1.6V2.3z"/>
	<path class="st0" d="M257.3,16.1h-9.8v19.5h3.9v-16h6v7.9c0,0.2,0,0.4-0.1,0.5c-0.1,0.1-0.2,0.1-0.5,0.2c-0.3,0-0.7,0-1.5,0
		c-0.7,0-1.5,0-2.3-0.1c0.2,0.5,0.5,1.1,0.7,1.8c0.2,0.7,0.4,1.3,0.4,1.9c1.3,0,2.4,0,3.3-0.1c0.9-0.1,1.7-0.2,2.3-0.6
		c0.6-0.3,1.1-0.8,1.3-1.3c0.2-0.6,0.3-1.3,0.3-2.2V16.1h-2.7H257.3z M260.2,27.7c0,0.8-0.1,1.4-0.2,1.8c-0.1,0.3-0.4,0.6-0.8,0.8
		c-0.5,0.2-1.1,0.4-1.9,0.4c-0.7,0-1.5,0.1-2.4,0.1c-0.1-0.4-0.2-0.8-0.3-1.2c-0.1-0.2-0.1-0.3-0.2-0.5c0.3,0,0.6,0,0.9,0
		c0.7,0,1.2,0,1.5,0l0.1,0c0.4,0,0.8-0.2,1-0.4c0.3-0.3,0.5-0.7,0.5-1.2v-8.9h-8v16h-1.9V17.1h11.8V27.7z"/>
	<path class="st0" d="M18.2,8.4H11v3.2h25.4V8.4h-3.6V2.8h-9.1C23.8,2,24,1.2,24.2,0.5L20.1,0c-0.2,0.9-0.3,1.8-0.5,2.8h-6v3.1h5.3
		c-0.1,0.5-0.2,1-0.4,1.5C18.4,7.7,18.3,8.1,18.2,8.4z M14.6,4.9V3.8h5.8L20.5,3c0.1-0.6,0.3-1.3,0.4-1.9l2,0.2l-0.6,2.5h9.4v5.6
		h3.6v1.2H12V9.4h7c0,0,0.4-1.5,0.5-1.8c0.1-0.5,0.2-1,0.4-1.5l0.3-1.2H14.6z"/>
	<path class="st0" d="M29.8,4.9h-7.7l-0.2,0.8c-0.1,0.6-0.3,1.1-0.4,1.6L21,9.4h8.8V4.9z M28.8,8.4h-6.5c0.1-0.3,0.1-0.5,0.2-0.8
		c0.1-0.5,0.3-1.1,0.4-1.7h5.9V8.4z"/>
	<path class="st0" d="M27.8,35.5v-3.6h8.5v-3.1h-8.5v-2.7h7.8v-3h-7.8v-1.7h5.9v-8.4H13.9v8.4h10v1.7H12.3v3h3.2v2.7h-4.3v3.1h12.7
		v3.6H27.8z M12.1,30.9v-1.1h4.3v-4.7h-3.2v-1h11.6v-3.7h-10v-6.4h17.8v6.4h-5.9v3.7h7.8v1h-7.8v4.7h8.5v1.1h-8.5v3.6h-2v-3.6H12.1z
		"/>
	<path class="st0" d="M24.8,25.1h-6.5v4.7h6.5V25.1z M23.8,28.8h-4.5v-2.7h4.5V28.8z"/>
	<path class="st0" d="M30.6,15h-14v4.6h14V15z M29.6,18.5h-12V16h12V18.5z"/>
	<path class="st0" d="M176.6,29.2c-0.1-1-0.5-1.9-0.9-2.8c-0.6-1.2-1.5-2.1-2.7-2.8c-1.2-0.7-2.6-1-4.4-1c-1.3,0-2.4,0.3-3.4,0.8
		c-1,0.5-1.8,1.2-2.3,2.1c-0.5,0.9-0.8,1.8-0.8,2.8c0,1.2,0.4,2.3,1.2,3.2c0.8,0.9,1.8,1.6,3.2,2.1c1.4,0.5,2.9,0.7,4.7,0.7
		c3,0,5.5-0.5,7.5-1.4c2-0.9,3.5-2.2,4.6-3.8c1-1.6,1.5-3.4,1.5-5.4c0-1.8-0.5-3.4-1.5-4.8c-1-1.4-2.3-2.5-4-3.3
		c-1.7-0.8-3.6-1.2-5.7-1.2c-0.7,0-1.4,0-2,0.1c-0.7,0.1-1.4,0.2-2.1,0.4c0.7-0.5,1.4-1.1,2.2-1.8c0.8-0.7,1.6-1.3,2.5-2
		c0.8-0.7,1.6-1.3,2.4-1.9c0.7-0.6,1.4-1.1,1.9-1.4c0.4-0.3,0.8-0.6,1.3-0.9c0.4-0.3,0.8-0.5,1.3-0.8l-2.2-3.1
		c-0.2,0.1-0.6,0.1-1,0.2c-0.4,0.1-1,0.1-1.7,0.2c-0.4,0-1.1,0.1-1.9,0.1c-0.8,0.1-1.8,0.1-2.8,0.1c-1.1,0-2.1,0.1-3.1,0.1
		c-1,0-2,0.1-2.8,0.1c-0.8,0-1.5,0-1.9,0c-0.5,0-1,0-1.6-0.1c-0.6,0-1.1-0.1-1.6-0.1l0.2,4.4c0.4-0.1,0.9-0.1,1.4-0.2
		c0.5,0,1-0.1,1.5-0.1c0.4,0,0.9-0.1,1.6-0.1c0.7,0,1.4-0.1,2.2-0.1c0.8,0,1.6-0.1,2.4-0.1c0.8,0,1.5-0.1,2.2-0.1
		c0.7,0,1.2-0.1,1.6-0.1c-0.5,0.4-1,0.9-1.7,1.5c-0.7,0.6-1.5,1.2-2.2,1.9c-0.8,0.7-1.5,1.3-2.3,1.9c-0.7,0.6-1.4,1.1-1.9,1.6
		c-0.6,0.5-1.2,1-2.1,1.7c-0.8,0.7-1.7,1.4-2.6,2.2c-0.9,0.8-1.8,1.5-2.7,2.2c-0.9,0.7-1.7,1.4-2.4,1.9l3.1,3.2
		c1.1-1.2,2.1-2.2,3.2-3.2c1-1,2.1-1.8,3.2-2.4c1.1-0.7,2.3-1.2,3.5-1.5c1.2-0.4,2.6-0.6,4.1-0.6c1.5,0,2.9,0.3,4.1,0.8
		c1.2,0.5,2.2,1.2,2.9,2.1c0.7,0.9,1.1,1.9,1.1,3.1c0,1.4-0.4,2.6-1.1,3.6C178.5,28.1,177.7,28.7,176.6,29.2z M179.9,27.9
		c0.9-1.2,1.3-2.6,1.3-4.2c0-1.4-0.4-2.6-1.3-3.7c-0.8-1-1.9-1.8-3.3-2.4c-1.3-0.6-2.8-0.8-4.5-0.8c-1.6,0-3.1,0.2-4.4,0.6
		c-1.3,0.4-2.6,0.9-3.7,1.6c-1.1,0.7-2.3,1.5-3.3,2.5c-0.8,0.7-1.6,1.6-2.5,2.5l-1.6-1.6c0.5-0.4,1-0.8,1.5-1.3l2.7-2.2
		c0.9-0.8,1.8-1.5,2.6-2.2c0.8-0.7,1.5-1.2,2-1.7c0.5-0.4,1.2-1,1.9-1.6c0.7-0.6,1.5-1.2,2.3-1.9l2.2-1.9c0.7-0.6,1.3-1.1,1.8-1.5
		l2-1.7h-2.6c-0.4,0-0.9,0-1.6,0.1c-0.7,0-1.4,0.1-2.1,0.1c-0.8,0-1.6,0.1-2.4,0.1c-0.8,0-1.5,0.1-2.2,0.1l-1.6,0.1
		c-0.5,0-1,0.1-1.5,0.1c-0.1,0-0.3,0-0.4,0l-0.1-2.2c0.2,0,0.4,0,0.5,0c0.6,0,1.2,0.1,1.7,0.1c0.4,0,1,0,1.9,0
		c0.8,0,1.8-0.1,2.8-0.1l3.1-0.1c1.1,0,2-0.1,2.9-0.1l1.9-0.1c0.8-0.1,1.3-0.1,1.8-0.2c0.1,0,0.3,0,0.4-0.1l1.2,1.7
		c-0.1,0.1-0.2,0.2-0.4,0.2c-0.5,0.3-0.9,0.6-1.3,0.9c-0.5,0.4-1.1,0.8-1.9,1.4c-0.7,0.6-1.5,1.2-2.4,1.9c-0.8,0.7-1.7,1.4-2.5,2
		c-0.8,0.7-1.5,1.3-2.2,1.8l0.9,1.7c0.6-0.2,1.3-0.3,1.9-0.4c0.6-0.1,1.3-0.1,1.9-0.1c2,0,3.7,0.4,5.3,1.1c1.5,0.7,2.7,1.7,3.6,3
		c0.9,1.2,1.3,2.6,1.3,4.3c0,1.8-0.5,3.4-1.4,4.9c-0.9,1.4-2.3,2.6-4.1,3.4c-1.9,0.9-4.2,1.3-7.1,1.3c-1.6,0-3.1-0.2-4.3-0.7
		c-1.2-0.4-2.1-1-2.8-1.8c-0.6-0.7-0.9-1.5-0.9-2.5c0-0.8,0.2-1.5,0.7-2.2c0.4-0.7,1.1-1.3,1.9-1.7c0.8-0.5,1.8-0.7,2.9-0.7
		c1.5,0,2.8,0.3,3.8,0.9c1,0.6,1.8,1.4,2.3,2.4c0.4,0.8,0.7,1.6,0.8,2.4l0.2,1.3l1.2-0.6C178.3,29.5,179.2,28.8,179.9,27.9z"/>
	<path class="st0" d="M172.4,26.6c-0.9-1.2-2.2-1.7-3.7-1.7c-1,0-1.8,0.3-2.5,0.9c-0.7,0.6-1,1.3-1,2.2c0,0.8,0.3,1.9,1.7,2.7
		c0.9,0.5,2.1,0.8,3.6,0.8c0.8,0,1.7,0,2.5-0.1l1-0.1l-0.1-1C173.6,28.7,173.1,27.5,172.4,26.6z M170.3,30.4c-1.3,0-2.3-0.2-3.1-0.7
		c-0.8-0.5-1.2-1.1-1.2-1.8c0-0.5,0.2-1,0.7-1.4c0.5-0.4,1.1-0.6,1.8-0.6c1.2,0,2.2,0.5,3,1.4c0.6,0.8,1,1.8,1.1,3
		C172,30.3,171.2,30.4,170.3,30.4z"/>
	<path class="st0" d="M105.2,27.9c-1.5,0.2-3.1,0.2-4.8,0.2c-1.1,0-2-0.1-2.7-0.2c-0.7-0.1-1.3-0.3-1.7-0.6c-0.4-0.3-0.8-0.6-1-0.9
		c-0.2-0.4-0.3-0.8-0.3-1.2c0-0.5,0-1,0.1-1.5c0.1-0.5,0.2-1.1,0.3-1.7l-3.9-0.3c-0.2,0.9-0.4,1.8-0.5,2.6c-0.1,0.8-0.2,1.5-0.2,2.2
		c0,1.9,0.8,3.4,2.3,4.5c1.6,1.1,4,1.6,7.2,1.6c2.1,0,3.9-0.1,5.5-0.2c1.6-0.1,3-0.3,4.2-0.6l-0.1-4.6
		C108.3,27.4,106.7,27.7,105.2,27.9z M105.7,31.3c-1.6,0.1-3.4,0.2-5.4,0.2c-3,0-5.3-0.5-6.6-1.4c-1.3-0.9-1.9-2.1-1.9-3.6
		c0-0.7,0.1-1.4,0.2-2.1c0.1-0.5,0.2-1.1,0.3-1.6l1.9,0.2c0,0.2-0.1,0.5-0.1,0.7c-0.1,0.6-0.1,1.1-0.1,1.7c0,0.6,0.1,1.1,0.4,1.7
		c0.3,0.5,0.7,1,1.3,1.3c0.5,0.3,1.2,0.5,2,0.7c0.8,0.2,1.7,0.2,2.9,0.2c1.7,0,3.4-0.1,4.9-0.3c1.2-0.1,2.4-0.3,3.6-0.5l0,2.5
		C108,31,106.9,31.2,105.7,31.3z"/>
	<path class="st0" d="M129.1,22.9c-1.2,0.5-2.2,1.3-2.9,2.3c-0.7,1-1,2.1-1,3.3c0,1.3,0.4,2.5,1.1,3.4c0.7,0.9,1.7,1.6,3,2
		c1.2,0.4,2.6,0.7,4.1,0.7c1.7,0,3.1-0.3,4.2-0.8c1-0.5,1.8-1.3,2.3-2.2c0.5-0.9,0.7-1.9,0.7-3.1c0-0.2,0-0.5,0-0.8
		c0,0,0.1,0,0.1,0.1c1.1,0.6,2.1,1.3,2.9,2.1c0.9,0.7,1.7,1.4,2.4,2.1l2.3-3.6c-1.1-0.9-2.3-1.9-3.8-2.8c-1.2-0.8-2.6-1.5-4.1-2
		c0,0,0,0,0,0c-0.1-1-0.1-2-0.1-2.9c0-0.9-0.1-1.7-0.1-2.2c0-0.8,0-1.6,0-2.3c0-0.7,0-1.5,0.1-2.3h-4.3c0,1,0.1,2.1,0.1,3.4
		c0.1,1.3,0.1,2.6,0.2,3.9c0,0.5,0,1,0.1,1.4c-0.9-0.1-1.9-0.2-2.9-0.2C131.7,22.1,130.3,22.4,129.1,22.9z M136.2,23.3l1.2,0.2
		l-0.3-6.5c0-0.9-0.1-1.6-0.1-2.4h2.2c0,0.4,0,0.9,0,1.3c0,0.8,0,1.5,0,2.4l0.1,2.3c0,0.9,0.1,1.9,0.1,2.9l0,0.1l0.1,0.6l0.6,0.2
		c1.5,0.5,2.8,1.2,3.9,1.9c1.1,0.7,2.2,1.5,3,2.2l-1.2,1.9c-0.5-0.4-1-0.8-1.5-1.3c-0.9-0.8-1.9-1.5-3.1-2.2l-0.1-0.1l-1.6-0.9
		l0.1,1.8c0,0.3,0,0.5,0,0.7c0,1-0.2,1.8-0.6,2.6c-0.4,0.7-1,1.3-1.8,1.7c-0.9,0.5-2.1,0.7-3.7,0.7c-1.4,0-2.7-0.2-3.8-0.6
		c-1.1-0.4-1.9-1-2.5-1.7c-0.6-0.7-0.9-1.6-0.9-2.7c0-1,0.3-1.9,0.8-2.7c0.6-0.8,1.4-1.4,2.4-1.9c1.1-0.5,2.4-0.7,3.9-0.7
		C134.3,23.1,135.2,23.2,136.2,23.3z"/>
	<path class="st0" d="M128.2,28.1c0,1,0.5,1.9,1.3,2.6c0.8,0.6,1.9,0.9,3.3,0.9c1.1,0,2-0.2,2.7-0.6c0.7-0.4,1.2-1,1.5-1.8
		c0.3-0.7,0.4-1.4,0.4-2.2c0-0.3,0-0.6,0-1.1l0-0.8l-0.7-0.2c-1.2-0.3-2.4-0.5-3.6-0.5c-1.4,0-2.5,0.3-3.4,0.9
		C128.5,26.3,128.2,27.3,128.2,28.1z M130.3,26.3c0.7-0.5,1.7-0.7,2.9-0.7c1.2,0,2.3,0.1,3.3,0.4c0,0.4,0,0.7,0,1
		c0,0.7-0.1,1.3-0.3,1.8c-0.2,0.5-0.6,1-1.1,1.3c-0.5,0.3-1.3,0.5-2.2,0.5c-1.2,0-2.1-0.2-2.7-0.7c-0.6-0.5-0.9-1.1-0.9-1.8
		C129.2,27.3,129.6,26.7,130.3,26.3z"/>
	<path class="st0" d="M121.2,17.8c-0.7,1.4-1.5,2.7-2.4,4c-0.8,1.3-1.7,2.4-2.5,3.5l4.1,2.1c1.1-1.5,2.1-3.2,3.2-5.1s2.1-3.9,3-6
		c0.8-1.8,1.5-3.5,2-5.1c0.9-0.1,1.9-0.3,2.8-0.4c1.5-0.3,2.8-0.6,4-0.9l-0.1-4c-1.3,0.4-2.7,0.8-4.2,1c-0.4,0.1-0.8,0.1-1.2,0.2
		c0.3-1,0.5-2,0.8-3c0.3-1,0.5-1.8,0.6-2.4l-4.7-0.5c-0.1,1.4-0.3,2.9-0.6,4.6c-0.1,0.6-0.3,1.2-0.5,1.8c-1.2,0.1-2.5,0.2-3.7,0.2
		c-0.7,0-1.5,0-2.4-0.1c-0.9,0-1.7-0.1-2.5-0.2l0.3,4c0.8,0.1,1.6,0.1,2.4,0.1c0.8,0,1.5,0,2.3,0c0.8,0,1.6,0,2.4-0.1
		c-0.3,0.7-0.6,1.4-0.9,2.2C122.7,15.1,122,16.4,121.2,17.8z M125.1,12l0.6-1.5l-1.6,0.1c-0.8,0-1.6,0.1-2.3,0.1c-0.7,0-1.5,0-2.2,0
		c-0.5,0-1,0-1.5-0.1l-0.1-1.9c0.4,0,0.9,0.1,1.4,0.1c0.9,0,1.7,0.1,2.5,0.1c1.1,0,2.3-0.1,3.7-0.2l0.7-0.1l0.2-0.7
		c0.2-0.6,0.3-1.2,0.5-1.9c0.3-1.3,0.5-2.5,0.6-3.7l2.5,0.2c-0.1,0.4-0.2,0.8-0.3,1.3c-0.2,0.9-0.5,1.9-0.8,2.9l-0.4,1.5l1.9-0.3
		c0.3,0,0.5-0.1,0.8-0.1c1.1-0.2,2.1-0.4,3-0.7l0.1,1.9c-0.9,0.2-2,0.4-3.1,0.7c-0.9,0.2-1.8,0.3-2.7,0.4l-0.6,0.1l-0.2,0.6
		c-0.5,1.6-1.2,3.3-2,5c-0.9,2-1.9,4-2.9,5.9c-0.9,1.6-1.8,3.1-2.6,4.3l-2.3-1.2c0.6-0.8,1.2-1.7,1.8-2.6c0.8-1.3,1.7-2.7,2.4-4.1
		c0.8-1.4,1.4-2.8,2-4.1C124.5,13.5,124.8,12.8,125.1,12z"/>
	<path class="st0" d="M145.1,9.1c-0.9-0.5-1.8-1-2.6-1.4c-0.9-0.4-1.6-0.8-2.3-1.1L138,9.9c0.9,0.4,1.9,0.9,3,1.5
		c1.1,0.6,2.2,1.3,3.3,1.9c1.1,0.7,2,1.3,2.7,1.9l2.4-3.6c-0.5-0.4-1.1-0.8-1.8-1.2C146.8,10,146,9.6,145.1,9.1z M146.8,13.8
		c-0.6-0.4-1.2-0.9-2-1.3c-1.1-0.7-2.2-1.3-3.4-2c-0.7-0.4-1.4-0.7-2-1l1.1-1.7c0.5,0.2,1,0.5,1.5,0.7c0.8,0.4,1.7,0.9,2.6,1.4
		c0.9,0.5,1.7,1,2.4,1.4c0.4,0.2,0.7,0.4,1,0.6L146.8,13.8z"/>
	<path class="st0" d="M216.9,31.1c-1.7,0-3.4,0-5,0c-1.6,0-2.9,0-4.1-0.1c-2-0.1-3.7-0.4-5.1-1c-1.4-0.6-2.5-1.6-3.3-2.9V14.9h-8.3
		v3.8h4.4v8.8c-0.7,0.6-1.5,1.2-2.3,1.8c-0.9,0.7-1.8,1.3-2.6,1.9l2,4c0.9-0.8,1.8-1.6,2.7-2.4c0.8-0.8,1.6-1.5,2.4-2.3
		c1.2,1.5,2.6,2.5,4.2,3.2c1.6,0.7,3.6,1,6,1.1c1.1,0,2.4,0.1,3.9,0.1c1.5,0,3.1,0,4.7,0c1.6,0,3.2,0,4.7-0.1c1.5,0,2.8-0.1,4-0.1
		c0.1-0.4,0.2-0.9,0.3-1.3c0.1-0.5,0.3-1,0.5-1.5c0.2-0.5,0.3-0.9,0.5-1.2c-1.3,0.1-2.7,0.2-4.4,0.2
		C220.4,31.1,218.7,31.1,216.9,31.1z M224.9,31.9c-0.1,0.4-0.3,0.8-0.4,1.3c-0.1,0.2-0.1,0.4-0.2,0.7c-0.9,0-2,0.1-3.2,0.1
		c-1.5,0-3.1,0.1-4.7,0.1c-0.5,0-1.1,0-1.6,0c-1,0-2.1,0-3.1,0c-1.5,0-2.8-0.1-3.9-0.1c-2.2-0.1-4.1-0.5-5.6-1.1
		c-1.5-0.6-2.7-1.6-3.8-2.9l-0.7-0.9l-0.8,0.8c-0.8,0.8-1.6,1.5-2.4,2.3c-0.5,0.5-1.1,1-1.7,1.5l-1-2.1c0.6-0.4,1.3-0.9,1.9-1.4
		c0.8-0.6,1.5-1.2,2.3-1.9l0.3-0.3V17.7h-4.4v-1.8h6.3v11.5l0.1,0.2c0.9,1.5,2.2,2.6,3.8,3.3c1.5,0.7,3.4,1,5.5,1.1
		c1.1,0.1,2.5,0.1,4.1,0.1c0.5,0,1.1,0,1.6,0c1.1,0,2.2,0,3.4,0c1.7,0,3.4-0.1,5.1-0.1C223.1,32,224,31.9,224.9,31.9z"/>
	<path class="st0" d="M84.2,14.7c0.1-1.1,0.3-2.2,0.5-3.2c0.2-1.1,0.3-2,0.5-2.9c0.2-0.9,0.3-1.6,0.4-2.1c0.1-0.2,0.1-0.5,0.2-1
		c0.1-0.4,0.2-0.8,0.3-1.2c0.1-0.4,0.2-0.7,0.3-1l-4.8-0.4c0,0.6-0.1,1.1-0.2,1.7c-0.1,0.6-0.1,1.2-0.2,1.7C81.2,7,81,8,80.8,9.1
		c-0.2,1.1-0.4,2.4-0.5,3.7c-0.2,1.4-0.3,2.8-0.5,4.2c-0.1,1.5-0.2,2.9-0.2,4.3c0,2.6,0.2,5,0.5,7.1c0.3,2.2,0.6,3.9,1,5.2l3.9-0.3
		c0-0.3,0-0.5-0.1-0.8c0-0.3,0-0.5,0-0.7c0-0.2,0-0.5,0.1-0.8c0-0.4,0.1-0.7,0.1-1c0.2-0.6,0.4-1.5,0.7-2.5c0.3-1,0.6-2.1,1-3.3
		c0.4-1.2,0.7-2.3,1.1-3.3l-2.2-1.7c-0.2,0.4-0.4,0.9-0.6,1.4c-0.2,0.5-0.4,1-0.6,1.5c-0.2,0.5-0.4,1-0.6,1.4
		c-0.1-0.5-0.1-1.1-0.1-1.6c0-0.6-0.1-1.1-0.1-1.6c0-0.8,0.1-1.7,0.2-2.7C83.9,16.8,84,15.8,84.2,14.7z M82.7,22.2
		c0,0.6,0.1,1.1,0.1,1.7l0.4,3.8l1.5-3.5c0.2-0.5,0.4-0.9,0.6-1.5c0.2-0.5,0.7-1.6,0.7-1.7l0.6,0.4c-0.3,0.8-0.6,1.7-0.9,2.6
		c-0.4,1.2-0.7,2.3-1,3.3c-0.3,1.1-0.5,1.9-0.7,2.5c-0.1,0.4-0.1,0.7-0.2,1.1c0,0.4-0.1,0.7-0.1,0.9c0,0.2,0,0.3,0,0.6l-2.1,0.1
		c-0.3-1.2-0.6-2.6-0.8-4.3c-0.3-2.1-0.4-4.5-0.4-7c0-1.4,0.1-2.8,0.2-4.2c0.1-1.4,0.3-2.9,0.5-4.2c0.2-1.4,0.4-2.6,0.5-3.7
		c0.2-1.1,0.3-2.1,0.5-2.8c0.1-0.6,0.1-1.1,0.2-1.7c0-0.3,0.1-0.5,0.1-0.8l2.5,0.2c-0.1,0.4-0.2,0.7-0.3,1.1c-0.1,0.4-0.2,0.7-0.2,1
		c-0.1,0.6-0.2,1.3-0.4,2.2c-0.2,0.9-0.3,1.9-0.5,2.9c-0.2,1.1-0.3,2.1-0.5,3.2c-0.1,1.1-0.3,2.2-0.4,3.2c-0.1,1-0.2,2-0.2,2.8
		C82.7,21.1,82.7,21.6,82.7,22.2z"/>
	<path class="st0" d="M67.2,27.1c-2-1.9-3.7-4.1-5-6.7c-1-1.8-1.8-3.7-2.4-5.7h13.7v-4.2H58.2c0.2-1.5,0.3-3,0.4-4.4
		c0.1-2.1,0.1-4.1,0.1-5.9h-4.4c0,1.6-0.1,3.4-0.1,5.3c0,1.7-0.2,3.3-0.3,5.1H39.7v4.2h13.4c-0.2,0.8-0.4,1.6-0.6,2.5
		c-0.6,2-1.5,3.9-2.6,5.7c-1.1,1.8-2.6,3.5-4.3,5.1c-1.8,1.5-4,2.9-6.6,4.1c0.6,0.4,1.2,1,1.7,1.6c0.6,0.6,1,1.2,1.4,1.8
		c2.7-1.3,5-2.8,6.9-4.5c1.9-1.7,3.4-3.6,4.7-5.6c1.2-2,2.2-4.1,2.9-6.3c0.1-0.2,0.1-0.3,0.1-0.5c0.6,1.4,1.2,2.8,1.8,4.1
		c1.4,2.9,3.2,5.4,5.3,7.5c2.1,2.2,4.6,3.9,7.4,5.3c0.2-0.4,0.5-0.8,0.9-1.3c0.4-0.5,0.7-0.9,1.1-1.4c0.4-0.5,0.7-0.8,1.1-1.1
		C71.6,30.5,69.2,29,67.2,27.1z M72.4,32.1c-0.4,0.5-0.8,1-1.1,1.4c-0.2,0.2-0.3,0.4-0.4,0.6c-2.4-1.2-4.5-2.8-6.3-4.7
		c-2-2.1-3.7-4.5-5.1-7.3c-0.6-1.2-1.2-2.6-1.8-4l-1-2.7l-1,3.3c-0.7,2.1-1.6,4.1-2.8,6.1c-1.2,1.9-2.7,3.7-4.5,5.4
		c-1.6,1.5-3.6,2.8-5.9,4c-0.3-0.4-0.6-0.8-1-1.2c-0.2-0.2-0.5-0.5-0.7-0.7c2.1-1.1,3.9-2.3,5.5-3.6c1.8-1.6,3.4-3.4,4.5-5.3
		c1.2-1.9,2.1-3.9,2.7-5.9c0.2-0.8,0.5-1.6,0.7-2.5l0.3-1.2H40.7v-2.2h14l0.1-0.9C55,8.7,55.1,7,55.1,5.4c0-1.5,0.1-3,0.1-4.3h2.5
		c0,1.5-0.1,3.2-0.1,4.9c-0.1,1.3-0.2,2.7-0.4,4.4l-0.1,1.1h15.4v2.2H58.3l0.4,1.3c0.7,2.1,1.5,4.1,2.5,5.9c1.4,2.6,3.2,5,5.2,6.9
		c1.7,1.7,3.7,3,6,4.1C72.5,32,72.4,32,72.4,32.1z"/>
</g>
</svg>
