<?xml version="1.0" encoding="utf-8"?>
<!-- Generator: Adobe Illustrator 27.9.1, SVG Export Plug-In . SVG Version: 6.00 Build 0)  -->
<svg version="1.1" id="Layer_1" xmlns="http://www.w3.org/2000/svg" xmlns:xlink="http://www.w3.org/1999/xlink" x="0px" y="0px"
	 viewBox="0 0 184.3 35.6" style="enable-background:new 0 0 184.3 35.6;" xml:space="preserve">
<style type="text/css">
	.st0{fill:#282828;}
</style>
<g>
	<path class="st0" d="M150.4,20c-0.3-0.9-0.7-2-1.2-3.2c-0.5-1.3-1.1-2.6-1.7-3.9c-0.6-1.3-1.3-2.6-1.9-3.8c-0.7-1.2-1.3-2.2-1.9-3
		l-4.1,1.7c0.7,0.8,1.4,1.8,2,3c0.7,1.2,1.3,2.5,1.9,3.8c0.6,1.3,1.1,2.7,1.6,4c0.5,1.3,0.8,2.5,1.1,3.5L150.4,20z M144.4,14.1
		c-0.6-1.4-1.2-2.7-1.9-3.9c-0.4-0.8-0.9-1.5-1.3-2.1l2.1-0.9c0.4,0.7,0.9,1.4,1.3,2.3c0.6,1.2,1.3,2.5,1.9,3.8
		c0.6,1.3,1.2,2.6,1.7,3.8c0.3,0.9,0.7,1.7,0.9,2.3l-2.4,1.1c-0.2-0.8-0.5-1.6-0.8-2.4C145.6,16.8,145,15.5,144.4,14.1z"/>
	<path class="st0" d="M10.7,29.2c0,1.5,0.2,2.7,0.5,3.5c0.3,0.8,0.9,1.4,1.8,1.8c0.9,0.4,2.1,0.5,3.6,0.5c0.2,0,0.5,0,1,0
		c0.4,0,0.9,0,1.5,0c0.5,0,1.1,0,1.7,0c0.6,0,1.1,0,1.5,0c0.4,0,0.8,0,1,0c1.5,0,2.7-0.3,3.5-0.9c0.8-0.6,1.4-1.5,1.8-2.9
		c0.4-1.4,0.6-3.2,0.8-5.6c-0.6-0.2-1.2-0.4-2-0.7c-0.7-0.3-1.4-0.7-1.8-1c-0.1,2.1-0.2,3.6-0.4,4.7c-0.2,1.1-0.4,1.8-0.7,2.2
		c-0.3,0.4-0.8,0.6-1.5,0.6c-0.3,0-0.7,0-1.2,0c-0.5,0-1.1,0-1.7,0c-0.6,0-1.2,0-1.7,0c-0.5,0-0.9,0-1.1,0c-0.9,0-1.5-0.1-1.8-0.4
		c-0.3-0.3-0.4-0.8-0.4-1.7V10.8h-4.2V29.2z M11.7,11.8h2.2v17.4c0,1.2,0.2,2,0.7,2.5c0.5,0.5,1.2,0.7,2.5,0.7h5.7
		c1.2,0,1.9-0.5,2.2-0.9c0.5-0.5,0.8-1.4,1-2.7c0.1-0.8,0.2-1.8,0.3-3.1c0.2,0.1,0.3,0.2,0.5,0.2c0.5,0.2,0.9,0.4,1.3,0.5
		c-0.2,1.9-0.4,3.5-0.7,4.6c-0.3,1.1-0.8,1.9-1.4,2.4c-0.6,0.4-1.6,0.7-2.9,0.7h-6.5c-1.4,0-2.5-0.2-3.2-0.5c-0.6-0.3-1-0.7-1.3-1.3
		c-0.3-0.7-0.4-1.8-0.4-3.1V11.8z"/>
	<path class="st0" d="M18.2,2.1c-1.6-0.7-3.1-1.4-4.6-1.9l-2.6,3.2c1.5,0.6,3.1,1.2,4.7,2c1.6,0.8,3.1,1.6,4.5,2.5
		c1.4,0.8,2.6,1.7,3.6,2.5l2.7-3.6c-1-0.7-2.2-1.5-3.7-2.3C21.3,3.6,19.8,2.8,18.2,2.1z M23.5,8.9c-0.8-0.6-1.8-1.3-2.9-1.9
		c-1.4-0.9-3-1.7-4.6-2.5c-1.2-0.6-2.3-1.1-3.5-1.6l1.3-1.5c1.3,0.5,2.6,1,3.9,1.6c1.6,0.7,3.1,1.5,4.5,2.3c1,0.6,1.9,1.1,2.7,1.7
		L23.5,8.9z"/>
	<path class="st0" d="M165.3,6.5c1,0.2,2,0.4,3.2,0.7c1.2,0.2,2.3,0.5,3.5,0.7c1.2,0.2,2.3,0.4,3.4,0.6c1.1,0.2,2,0.3,2.7,0.4l1-4.2
		c-0.8-0.1-1.9-0.2-3.2-0.4c-1.3-0.2-2.7-0.5-4.2-0.7c-1.5-0.3-2.9-0.6-4.3-0.9c-1.4-0.3-2.5-0.6-3.4-0.9l-1.1,4.1
		C163.5,6.1,164.3,6.3,165.3,6.5z M164.7,3.1c0.7,0.2,1.5,0.4,2.4,0.6c1.3,0.3,2.8,0.6,4.3,0.9c1.5,0.3,2.9,0.5,4.2,0.7
		c0.8,0.1,1.5,0.2,2.2,0.3l-0.5,2.2c-0.5-0.1-1.1-0.2-1.8-0.3c-1-0.2-2.2-0.4-3.4-0.6c-1.2-0.2-2.4-0.5-3.5-0.7
		c-1.1-0.2-2.2-0.5-3.2-0.7c-0.5-0.1-0.9-0.2-1.3-0.3L164.7,3.1z"/>
	<path class="st0" d="M5.9,24.9c0.5-1.6,1-3.4,1.3-5.2c0.3-1.8,0.6-3.6,0.8-5.3l-4-0.8c-0.2,1.7-0.4,3.4-0.7,5
		c-0.3,1.6-0.8,3.2-1.3,4.6c-0.5,1.4-1.2,2.7-2,3.8l3.8,2.2C4.7,28,5.4,26.6,5.9,24.9z M1.4,26.7c0.6-0.9,1.1-2,1.5-3.1
		c0.5-1.5,1-3.1,1.3-4.8c0.3-1.3,0.5-2.7,0.6-4l2,0.4c-0.2,1.4-0.4,2.9-0.7,4.3c-0.3,1.8-0.7,3.5-1.3,5c-0.4,1.2-0.9,2.3-1.5,3.3
		L1.4,26.7z"/>
	<path class="st0" d="M32.6,28l4.1-2c-0.3-1.3-0.8-2.8-1.5-4.4s-1.5-3.2-2.5-4.9c-1-1.6-2-3.2-3.1-4.6L26,14c1,1.4,2,3,2.9,4.6
		c0.9,1.7,1.7,3.3,2.3,5C31.9,25.3,32.3,26.7,32.6,28z M27.4,14.4l1.9-0.9c0.9,1.2,1.7,2.5,2.5,3.8c0.9,1.6,1.7,3.2,2.4,4.8
		c0.5,1.2,0.9,2.4,1.2,3.5l-2.2,1.1c-0.3-1-0.6-2.2-1.1-3.3c-0.7-1.7-1.5-3.4-2.4-5.1C29,16.9,28.3,15.6,27.4,14.4z"/>
	<path class="st0" d="M177.6,27.3c-1.3,1.1-3.3,1.9-5.9,2.3c-2.6,0.4-5.8,0.4-9.7-0.1l1.3,4.4c3.8,0.3,7.1,0.3,9.7-0.1
		c2.7-0.4,4.8-1.1,6.5-2.1c1.7-1,2.9-2.2,3.6-3.7c0.7-1.5,1.1-3,1.1-4.8c0-1.5-0.4-2.9-1.2-4.2c-0.8-1.3-2-2.3-3.5-3.1
		c-1.5-0.8-3.4-1.2-5.5-1.2c-2.1,0-4.1,0.3-6,1c-1.9,0.6-3.8,1.6-5.5,3c0.1-0.6,0.2-1.3,0.3-2.1s0.2-1.7,0.4-2.6
		c0.1-0.9,0.3-1.8,0.4-2.6c0.1-0.8,0.3-1.5,0.4-2.1l-4.6-0.6c-0.1,0.9-0.1,1.9-0.2,3c-0.1,1.1-0.2,2.3-0.3,3.4
		c-0.1,1.2-0.3,2.3-0.4,3.5c-0.2,1.2-0.3,2.2-0.5,3.2c-0.2,1-0.3,1.9-0.5,2.6l4,1c0.2-0.4,0.3-0.7,0.5-1c0.2-0.3,0.5-0.7,0.8-1.1
		c1.2-1.5,2.8-2.6,4.7-3.5c1.9-0.8,3.9-1.2,6.2-1.2c1.2,0,2.2,0.2,3.1,0.6c0.9,0.4,1.6,0.9,2.1,1.6c0.5,0.7,0.8,1.5,0.8,2.4
		C179.6,24.8,178.9,26.2,177.6,27.3z M180.6,23.1c0-1.1-0.3-2.1-1-3c-0.6-0.8-1.5-1.5-2.5-1.9c-1-0.4-2.2-0.7-3.5-0.7
		c-2.4,0-4.6,0.4-6.6,1.3c-2,0.9-3.7,2.1-5.1,3.7c-0.3,0.4-0.6,0.8-0.9,1.2c-0.1,0.1-0.2,0.3-0.2,0.4l-2.2-0.5
		c0.1-0.5,0.2-1.1,0.3-1.7c0.2-1,0.3-2.1,0.5-3.2s0.3-2.3,0.4-3.5c0.1-1.2,0.2-2.3,0.3-3.5c0.1-0.7,0.1-1.4,0.2-2l2.5,0.3
		c-0.1,0.3-0.1,0.7-0.2,1.1c-0.1,0.8-0.3,1.7-0.4,2.6c-0.1,0.9-0.3,1.8-0.4,2.6l-0.6,4.5l1.9-1.5c1.7-1.3,3.4-2.2,5.2-2.8
		c1.8-0.6,3.7-0.9,5.7-0.9c2,0,3.7,0.4,5.1,1.1c1.4,0.7,2.4,1.6,3.1,2.7c0.7,1.1,1.1,2.3,1.1,3.7c0,1.6-0.3,3-1,4.3
		c-0.7,1.3-1.7,2.4-3.2,3.3c-1.5,0.9-3.6,1.6-6.1,2c-1.4,0.2-3.1,0.3-4.9,0.3c-1.2,0-2.6-0.1-4-0.2l-0.7-2.3
		c1.6,0.2,3.1,0.2,4.4,0.2c1.5,0,2.9-0.1,4.1-0.3c2.8-0.4,4.9-1.3,6.4-2.5C179.8,26.7,180.6,25.1,180.6,23.1z"/>
	<path class="st0" d="M51.3,8.4c-1.7,0.8-3.1,1.8-4.3,3.1c-1.2,1.2-2.1,2.6-2.7,4.1c-0.6,1.5-0.9,2.9-0.9,4.3c0,1.5,0.2,2.7,0.6,3.7
		c0.4,1,0.9,1.9,1.5,2.4c0.7,0.6,1.4,0.9,2.2,0.9c0.8,0,1.6-0.4,2.4-1.1c0.6-0.6,1.3-1.6,1.9-2.9c0.6-1.2,1.1-2.8,1.7-4.6
		c0.6-1.8,1.1-3.8,1.5-5.9c0.2-1.1,0.4-2.4,0.6-3.8l0.2-1.3l-1.3,0.2C53.3,7.6,52.2,8,51.3,8.4z M54,12.1c-0.4,2.1-0.9,4-1.4,5.8
		c-0.6,1.8-1.1,3.3-1.7,4.5c-0.5,1.2-1.1,2-1.7,2.6c-0.6,0.6-1.1,0.8-1.7,0.8c-0.5,0-1-0.2-1.5-0.7c-0.5-0.4-0.9-1.1-1.2-2
		c-0.3-0.9-0.5-2-0.5-3.4c0-1.2,0.3-2.5,0.9-3.9c0.6-1.4,1.4-2.6,2.5-3.8c1.1-1.2,2.4-2.1,4-2.9c0.9-0.4,1.9-0.7,2.9-0.9
		C54.4,9.7,54.2,10.9,54,12.1z"/>
	<path class="st0" d="M65.1,25.7c-0.8,0.9-1.8,1.6-2.8,2.2c-1.1,0.6-2.2,1-3.4,1.3c-0.5,0.1-1,0.2-1.6,0.3c-0.6,0.1-1.2,0.2-1.9,0.3
		l2.5,4c3.2-0.5,5.8-1.4,7.9-2.7c2.1-1.3,3.7-3.1,4.8-5.1c1.1-2.1,1.7-4.4,1.7-7.1c0-2-0.4-3.9-1.1-5.7c-0.7-1.8-1.7-3.3-3-4.7
		c-1.3-1.3-2.9-2.4-4.8-3.1c-1.9-0.7-3.9-1.1-6.3-1.1c-2.4,0-4.7,0.4-6.8,1.3c-2.1,0.8-3.9,2-5.5,3.5c-1.6,1.5-2.8,3.2-3.7,5.1
		c-0.9,1.9-1.3,4-1.3,6.1c0,2.1,0.3,4,1,5.6c0.7,1.6,1.6,2.9,2.8,3.8c1.1,0.9,2.4,1.4,3.7,1.4s2.6-0.5,3.7-1.4
		c1.2-1,2.2-2.4,3.2-4.2c1-1.8,1.8-4,2.6-6.6c0.7-2.2,1.2-4.4,1.6-6.6c0.2-1.4,0.5-2.7,0.7-4c0.9,0.1,1.7,0.3,2.5,0.6
		c1.3,0.5,2.4,1.3,3.3,2.2c0.9,1,1.6,2.1,2.1,3.3c0.5,1.3,0.7,2.7,0.7,4.2c0,1.4-0.2,2.8-0.7,3.9C66.6,23.8,65.9,24.8,65.1,25.7z
		 M68,14.2c-0.5-1.4-1.3-2.6-2.3-3.7c-1-1-2.2-1.9-3.7-2.4c-0.8-0.3-1.7-0.5-2.7-0.7l-1-0.1l-0.2,1c-0.2,1.3-0.4,2.6-0.7,4
		c-0.4,2.1-0.9,4.3-1.6,6.4c-0.7,2.5-1.6,4.6-2.5,6.4c-0.9,1.7-1.9,3-2.9,3.9c-1,0.8-2,1.2-3.1,1.2c-1.1,0-2.1-0.4-3.1-1.1
		c-1-0.8-1.8-2-2.5-3.4c-0.6-1.5-1-3.3-1-5.2c0-2,0.4-3.9,1.2-5.7c0.8-1.8,2-3.4,3.5-4.8c1.5-1.4,3.2-2.5,5.2-3.3
		c2-0.8,4.1-1.2,6.4-1.2c2.2,0,4.1,0.4,5.9,1C64.8,7,66.3,8,67.5,9.2c1.2,1.2,2.2,2.7,2.8,4.3c0.7,1.6,1,3.4,1,5.3
		c0,2.5-0.5,4.7-1.5,6.6c-1,1.9-2.5,3.5-4.5,4.8c-1.9,1.2-4.2,2-6.9,2.5L57,30.5c0.1,0,0.3,0,0.4-0.1c0.6-0.1,1.1-0.2,1.6-0.3
		c1.3-0.3,2.6-0.8,3.7-1.4c1.2-0.6,2.2-1.4,3.1-2.4c0.9-1,1.6-2.1,2.1-3.4c0.5-1.3,0.8-2.7,0.8-4.3C68.8,17.1,68.5,15.5,68,14.2z"/>
	<path class="st0" d="M118.1,14.6c0.8-0.1,1.4-0.2,2-0.3c0.6-0.1,1.3-0.2,2.3-0.3c0.4-0.1,0.9-0.1,1.4-0.2c-0.1,0.3-0.1,0.5-0.2,0.8
		c-0.4,1.3-0.8,2.7-1.3,4.2c-0.5,1.5-1.1,3.1-1.7,4.6c-0.6,1.6-1.3,3.1-2.1,4.6c-0.8,1.5-1.6,2.8-2.5,4l4.4,1.7
		c0.8-1.3,1.6-2.7,2.3-4.3c0.7-1.6,1.4-3.2,2-4.8c0.6-1.6,1.2-3.3,1.7-4.9c0.5-1.6,0.9-3.1,1.3-4.6c0.2-0.6,0.3-1.2,0.5-1.8
		c0.2,0,0.4,0,0.6-0.1c1-0.1,1.8-0.1,2.4-0.1c0.8,0,1.5,0.1,2.1,0.3c0.6,0.2,1,0.5,1.3,1c0.3,0.5,0.4,1.3,0.4,2.4
		c0,1.3-0.1,2.6-0.2,4c-0.1,1.4-0.3,2.7-0.5,3.9c-0.2,1.2-0.6,2.2-0.9,2.9c-0.3,0.7-0.7,1.1-1.2,1.4c-0.5,0.2-1.1,0.3-1.7,0.3
		c-0.3,0-0.8,0-1.3-0.1c-0.5-0.1-1.1-0.2-1.7-0.3c-0.6-0.1-1.1-0.3-1.6-0.4l0.7,4.5c0.6,0.1,1.4,0.2,2.2,0.4
		c0.8,0.1,1.6,0.2,2.3,0.2c1.4,0,2.6-0.2,3.6-0.7c1-0.5,1.8-1.4,2.4-2.7c0.6-1.1,1-2.4,1.3-4c0.3-1.6,0.5-3.3,0.7-5
		c0.1-1.7,0.2-3.4,0.2-4.8c0-1.8-0.3-3.2-0.9-4.2c-0.6-1-1.4-1.8-2.4-2.2c-1-0.4-2.1-0.6-3.4-0.6c-0.6,0-1.3,0-2.1,0.1
		c-0.4,0-0.9,0.1-1.4,0.1c0-0.1,0-0.2,0.1-0.3c0.1-0.7,0.3-1.5,0.4-2.2c0.2-0.7,0.3-1.3,0.4-1.9c0.1-0.5,0.2-0.9,0.3-1.5
		c0.1-0.5,0.2-1,0.3-1.4l-5.1-0.5c0,1.4-0.1,3-0.3,4.6c-0.2,1.2-0.4,2.4-0.6,3.6c0,0,0,0,0,0c-1,0.1-2,0.1-2.9,0.2
		c-0.9,0.1-1.6,0.1-2.2,0.1c-0.7,0-1.3,0-1.9,0.1c-0.6,0-1.3,0-1.9-0.1l0.4,4.6C116.6,14.8,117.3,14.7,118.1,14.6z M117.2,11.3
		l0.4,0c0.6,0,1.3,0,2-0.1c0.6,0,1.4-0.1,2.3-0.1l2.8-0.2h0.8l0.2-0.8c0.3-1.4,0.5-2.5,0.6-3.6c0.2-1.2,0.3-2.4,0.3-3.6l2.8,0.3
		c0,0.1,0,0.2-0.1,0.4c-0.1,0.5-0.2,1-0.3,1.4c-0.1,0.6-0.2,1.2-0.4,1.9c-0.2,0.7-0.3,1.5-0.4,2.2l-0.3,1.5c0,0,2.3-0.2,2.7-0.2
		c0.8-0.1,1.5-0.1,2.1-0.1c1.1,0,2.2,0.2,3,0.6c0.8,0.3,1.4,0.9,1.9,1.8c0.5,0.9,0.7,2.1,0.7,3.7c0,1.4-0.1,3-0.2,4.7
		c-0.1,1.7-0.4,3.4-0.7,4.9c-0.3,1.5-0.7,2.7-1.2,3.7c-0.5,1.1-1.2,1.9-2,2.3c-0.9,0.4-1.9,0.6-3.2,0.6c-0.7,0-1.4-0.1-2.2-0.2
		c-0.5-0.1-1-0.1-1.5-0.2l-0.4-2.3c0.1,0,0.1,0,0.2,0c0.6,0.1,1.2,0.2,1.8,0.3c0.6,0.1,1.1,0.1,1.4,0.1c0.8,0,1.5-0.1,2.1-0.4
		c0.7-0.3,1.3-0.9,1.7-1.8c0.4-0.8,0.8-1.9,1-3.2c0.2-1.2,0.4-2.6,0.5-4c0.1-1.4,0.2-2.8,0.2-4.1c0-1.3-0.2-2.2-0.6-2.9
		c-0.4-0.7-1-1.2-1.9-1.5c-0.7-0.2-1.5-0.3-2.4-0.3c-0.6,0-1.4,0-2.5,0.1l-1.3,0.1l-0.2,0.7c-0.1,0.6-0.3,1.1-0.5,1.8
		c-0.4,1.4-0.8,2.9-1.3,4.5c-0.5,1.6-1,3.2-1.7,4.8c-0.6,1.6-1.3,3.2-2,4.8c-0.6,1.3-1.2,2.4-1.8,3.5l-2.5-1c0.6-1,1.2-2,1.8-3.1
		c0.8-1.5,1.5-3.1,2.1-4.6c0.6-1.6,1.2-3.2,1.7-4.7c0.5-1.5,0.9-3,1.3-4.3l0.6-2.2l-1.4,0.2c-0.5,0.1-1,0.1-1.4,0.2
		c-1,0.1-1.8,0.2-2.3,0.3c-0.5,0.1-1.2,0.2-1.9,0.3c-0.4,0-0.7,0.1-1,0.1l-0.2-2.4C116.9,11.3,117.1,11.3,117.2,11.3z"/>
	<path class="st0" d="M99.1,12.7l0-1.1l-1.7,0.2C97,11.9,96.6,12,96.2,12c-1.7,0.2-3.4,0.4-5.3,0.6L90,12.7v5.2h9.5l-0.1-1.1
		C99.2,15.4,99.2,14.1,99.1,12.7z M91,16.8v-3.3c1.7-0.2,3.5-0.3,5.3-0.6c0.6-0.1,1.2-0.2,1.8-0.3c0.1,1.4,0.1,2.8,0.3,4.1H91z"/>
	<path class="st0" d="M110.2,26.8c-0.6-0.3-1.1-0.7-1.6-1.1c-0.1,1.7-0.2,3-0.4,3.8c-0.2,0.8-0.5,1.2-0.9,1.2
		c-0.8,0-1.5-0.5-2.1-1.5c-0.7-1-1.2-2.4-1.7-4.3c-0.4-1.3-0.7-2.8-0.9-4.5h8.8v-3.6h-9.2c-0.1-1.5-0.2-3.1-0.2-4.7
		c0.2,0,0.5-0.1,0.7-0.1c2.1-0.4,4-0.8,5.7-1.3l-3-2.9c-1,0.3-2.1,0.6-3.4,0.9c-1.3,0.3-2.7,0.5-4.2,0.8c-1.5,0.3-3,0.5-4.5,0.7
		c-1.1,0.1-2.2,0.3-3.2,0.4l-3-0.8v16.2c-1.1,0.1-2.2,0.2-3.2,0.3l0.4,3.7c1.3-0.2,2.8-0.4,4.4-0.5c1.6-0.2,3.3-0.4,5-0.6
		c1.7-0.2,3.5-0.4,5.1-0.6l-0.1-3.5c-1.8,0.2-3.6,0.4-5.4,0.6c-0.8,0.1-1.6,0.2-2.4,0.3v-5.1h7.8c0.2,1.6,0.5,3,0.8,4.4
		c0.5,2,1.1,3.7,1.8,5.1c0.7,1.4,1.5,2.6,2.5,3.4c1,0.8,2.1,1.2,3.3,1.2c1,0,1.8-0.2,2.4-0.6c0.6-0.4,1.1-1.1,1.5-2.1
		c0.4-1,0.6-2.4,0.8-4.3C111.4,27.4,110.8,27.2,110.2,26.8z M110.1,31.5c-0.3,0.8-0.6,1.3-1.1,1.6c-0.5,0.3-1.1,0.4-1.9,0.4
		c-1,0-1.9-0.3-2.7-1c-0.9-0.7-1.6-1.7-2.3-3.1c-0.7-1.4-1.2-3-1.7-4.9c-0.3-1.3-0.6-2.8-0.8-4.3l-0.1-0.9H90v7.2l4-0.4l3.8-0.4
		l0,1.5c-1.4,0.2-2.8,0.3-4.2,0.5c-1.7,0.2-3.4,0.4-5,0.6c-1.2,0.1-2.3,0.3-3.4,0.4l-0.2-1.7l3-0.3V10.9l1.9,0.5l0.2,0
		c1.1-0.1,2.2-0.2,3.3-0.4c1.5-0.2,3.1-0.4,4.6-0.7c1.5-0.3,2.9-0.5,4.2-0.8c1.1-0.2,2.1-0.5,2.9-0.7l1.4,1.3
		c-1.2,0.3-2.5,0.6-3.9,0.9l-0.7,0.1l-0.8,0.2l0,0.9c0,1.7,0.1,3.3,0.2,4.8l0.1,0.9h9.1v1.6h-9l0.2,1.1c0.2,1.7,0.6,3.3,0.9,4.6
		c0.5,1.9,1.1,3.4,1.8,4.5c0.8,1.3,1.8,2,3,2c0.6,0,1.4-0.3,1.8-2c0.1-0.5,0.2-1.3,0.3-2.1c0.1,0,0.1,0.1,0.2,0.1
		c0.4,0.2,0.7,0.4,1.1,0.6C110.6,29.6,110.4,30.7,110.1,31.5z"/>
	<path class="st0" d="M100.8,31.3H84.4v3.5h16.5V31.3z M99.8,33.8H85.4v-1.5h14.5V33.8z"/>
	<path class="st0" d="M79.6,14.4c0,1.4,0,2.9-0.1,4.5c-0.1,1.6-0.2,3.3-0.4,5c-0.2,1.7-0.6,3.3-1,4.9S77,32,76.2,33.3
		c0.3,0.1,0.7,0.3,1.1,0.6c0.4,0.3,0.8,0.6,1.3,0.9c0.4,0.3,0.7,0.6,1,0.8c0.9-1.5,1.6-3.1,2.1-4.9c0.5-1.8,0.9-3.7,1.2-5.6
		c0.3-1.9,0.5-3.8,0.6-5.6c0.1-1.8,0.1-3.5,0.1-5V7.3h28.2V3.6H97.6V0h-4.3v3.6h-9.8h-1.9h-2V14.4z M80.6,19
		c0.1-1.7,0.1-3.2,0.1-4.5V4.6h13.7V1h2.3v3.6h14.1v1.6H82.5v8.1c0,1.5,0,3.2-0.1,5c-0.1,1.8-0.3,3.7-0.5,5.5
		c-0.3,1.9-0.7,3.7-1.2,5.4c-0.4,1.3-0.8,2.5-1.4,3.6c0,0-0.1,0-0.1-0.1c-0.4-0.3-0.9-0.6-1.3-0.9c-0.1-0.1-0.2-0.1-0.3-0.2
		c0.6-1.2,1.1-2.4,1.5-3.7c0.5-1.6,0.8-3.3,1.1-5.1C80.3,22.4,80.5,20.6,80.6,19z"/>
</g>
</svg>
