<?xml version="1.0" encoding="utf-8"?>
<!-- Generator: Adobe Illustrator 27.9.1, SVG Export Plug-In . SVG Version: 6.00 Build 0)  -->
<svg version="1.1" id="Layer_1" xmlns:inkscape="http://www.inkscape.org/namespaces/inkscape"
	 xmlns="http://www.w3.org/2000/svg" xmlns:xlink="http://www.w3.org/1999/xlink" x="0px" y="0px" viewBox="0 0 103.8 31.7"
	 style="enable-background:new 0 0 103.8 31.7;" xml:space="preserve">
<style type="text/css">
	.st0{fill:#070707;}
</style>
<g>
	<path class="st0" d="M33.4,20.5c-1.9-4.2-4.2-7.3-6.9-9.5l-4.8,2.5c2.5,2.7,4.7,6.1,6.4,10L33.4,20.5z M26.4,12.1
		c2.1,1.9,4.1,4.6,5.7,7.9l-3.4,2c-1.5-3.2-3.2-6-5.3-8.3L26.4,12.1z"/>
	<path class="st0" d="M9.2,26.8c0.3,3.1,2.2,4.7,5.8,4.9c4.3,0,8.4-0.7,12.2-1.9l0-6.1c-3.8,1.3-7.3,2-10.6,2.2
		c-1.4,0.1-2-0.5-2-1.8c-0.1-9.2-0.1-14.3-0.1-15.5L8.8,9C8.9,19.2,9.1,25.1,9.2,26.8z M13.4,9.6c0,2.2,0.1,7,0.1,14.4
		c0,0.9,0.3,1.6,0.8,2c0.5,0.5,1.2,0.7,2.1,0.7c0.1,0,0.2,0,0.3,0c3-0.2,6.2-0.8,9.6-1.9l0,4c-3.6,1.1-7.3,1.6-11.2,1.7
		c-4-0.2-4.7-2.4-4.8-4c-0.1-1.5-0.3-7.2-0.4-16.7L13.4,9.6z"/>
	<path class="st0" d="M6.9,11.2l-4.9-0.4c0,4.3-0.6,8.5-1.9,12.7l5.3,2.5C6.6,21,7.1,16,6.9,11.2z M1.2,23.1c1-3.6,1.6-7.4,1.7-11.1
		l3,0.2c0.1,4-0.3,8.2-1.3,12.5L1.2,23.1z"/>
	<path class="st0" d="M22.9,7.6c-2-3.4-4.3-5.9-6.9-7.6l-4.8,2.5c3.1,2.8,5.4,5.5,6.9,8.2L22.9,7.6z M12.9,2.7l3-1.6
		c2.1,1.5,4,3.5,5.6,6.2l-3.1,1.9C17,7.1,15.2,4.9,12.9,2.7z"/>
	<path class="st0" d="M68.1,8.9c-1.3-2.5-2.5-4.6-3.7-6.2l-5.7,2.6c1.2,1.5,2.4,3.5,3.7,6c1.3,2.5,2.4,4.9,3.2,7.2l5.6-2.6
		C70.5,13.7,69.4,11.4,68.1,8.9z M63.4,10.7c-1.1-2-2.1-3.7-3.1-5.1l3.8-1.7c1,1.5,2,3.3,3.1,5.4c1.1,2.1,2,4.1,2.8,6L66.3,17
		C65.5,15,64.5,12.9,63.4,10.7z"/>
	<path class="st0" d="M49.8,0.9c-0.7,2.1-1.5,4.3-2.4,6.8c-2.5,0.2-5.2,0.6-8.1,1.1l1.1,5.8c1.6-0.3,3.2-0.6,4.8-0.8
		c-2.3,6.5-4.1,11.5-5.3,15l5.8,1.8c1.5-4.6,3.5-10.5,6-17.5c0.7,0,1.6,0,2.5,0c1,0,1.6,0.2,1.9,0.5c0.3,0.3,0.4,1.1,0.4,2.5
		c0,2.8-0.3,5-0.8,6.6S54.4,25,53.4,25c-0.7,0-1.6-0.3-2.7-1L49,29.8c3.2,1.4,5.9,1.6,7.9,0.7c0.9-0.4,1.6-1,2.1-1.6s1-1.4,1.5-2.3
		c1.2-2.5,1.8-5.6,1.8-9.3s-0.6-6.2-1.9-7.7S57,7.4,53.8,7.3c0.6-1.8,1.2-3.4,1.7-4.8L49.8,0.9z M53.7,8.3c2.9,0.1,4.9,0.8,6,2
		c1.1,1.3,1.6,3.6,1.6,7c0,3.5-0.6,6.5-1.7,8.9c-0.4,0.8-0.8,1.5-1.3,2.1c-0.5,0.5-1.1,1-1.8,1.4c-0.7,0.3-1.5,0.5-2.4,0.5
		c-1.2,0-2.5-0.3-3.9-0.8l1.1-3.8c0.8,0.4,1.5,0.5,2.1,0.5c1.4,0,2.5-1,3.2-3.1c0.6-1.7,0.9-4,0.9-6.9c0-1.7-0.2-2.6-0.7-3.1
		c-0.5-0.5-1.3-0.8-2.6-0.8c-1,0-1.8,0-2.6,0l-0.7,0l-0.2,0.6c-2.3,6.5-4.2,12.1-5.7,16.6l-3.9-1.2c1.2-3.4,5.5-15.6,5.5-15.6
		l-1.6,0.2c-1.3,0.2-2.6,0.4-3.8,0.6l-0.7-3.8c2.5-0.4,4.9-0.7,7-0.9l0.6-0.1L48.4,8c0.7-2.1,1.4-4.1,2.1-5.9l3.7,1.1
		c-0.4,1.2-0.8,2.5-1.3,3.8l-0.5,1.3L53.7,8.3z"/>
	<path class="st0" d="M77.9,23.8l5.8,0.4c1.1-2,2.5-3.6,4.2-4.7c1.8-1.2,3.6-1.7,5.4-1.7c1.2,0,2.2,0.3,2.9,0.8
		c0.7,0.5,1.1,1.3,1.1,2.2s-0.6,2.1-1.7,3.4c-1.1,1.3-2.5,2.4-4.3,3.5l5.6,3.9c4.6-3,6.8-6.5,6.8-10.5c0-2.6-0.9-4.8-2.8-6.4
		c-1.9-1.7-4.3-2.5-7.3-2.5c-1.8,0-3.5,0.3-5.1,0.9c-1.6,0.6-2.9,1.4-3.9,2.4c0.2-2.4,0.5-4.8,0.9-7.1l-6-0.8
		C78.7,13.5,78.2,18.9,77.9,23.8z M84.5,9.2c-0.3,2.1-0.6,4.1-0.8,6.2l-0.3,2.9l2-2.1c0.9-0.9,2-1.6,3.5-2.2
		c1.5-0.6,3.1-0.8,4.7-0.8c2.7,0,4.9,0.7,6.6,2.3c1.7,1.5,2.5,3.3,2.5,5.7c0,3.5-1.9,6.6-5.8,9.3l-3.8-2.6c1.3-0.9,2.4-1.8,3.3-2.9
		c1.3-1.5,1.9-2.8,1.9-4.1c0-1.3-0.5-2.4-1.5-3.1c-0.9-0.6-2.1-0.9-3.5-0.9c-2,0-4,0.6-5.9,1.9c-1.7,1.1-3.1,2.6-4.2,4.5l-4.2-0.3
		c0.3-4.3,0.8-9.1,1.5-14.2L84.5,9.2z"/>
	<path class="st0" d="M96.1,9.4l1.4-5.6c-4.7-0.7-9-1.8-12.8-3.5l-2.1,5.3C86.4,7.3,91,8.5,96.1,9.4z M85.2,1.6
		c3.4,1.3,7.1,2.3,11,3l-0.9,3.6c-4.3-0.8-8.1-1.8-11.5-3.2L85.2,1.6z"/>
</g>
</svg>
