<?xml version="1.0" encoding="utf-8"?>
<!-- Generator: Adobe Illustrator 27.9.1, SVG Export Plug-In . SVG Version: 6.00 Build 0)  -->
<svg version="1.1" id="Layer_1" xmlns="http://www.w3.org/2000/svg" xmlns:xlink="http://www.w3.org/1999/xlink" x="0px" y="0px"
	 viewBox="0 0 263.9 35.9" style="enable-background:new 0 0 263.9 35.9;" xml:space="preserve">
<style type="text/css">
	.st0{fill:#282828;}
</style>
<g>
	<path class="st0" d="M236.3,0l3.9,1c-0.7,1.8-1.6,3.6-2.6,5.4c-1,1.8-2.1,3.5-3.4,5.2c-1.2,1.6-2.6,3.1-4,4.3
		c-0.3-0.4-0.8-0.9-1.3-1.4c-0.5-0.5-1-0.9-1.4-1.2c1.3-1.1,2.6-2.4,3.7-3.8c1.2-1.5,2.2-3,3-4.7C235.1,3.1,235.8,1.5,236.3,0z
		 M19.8,0.3v4.4h-4.1V0.3H19.8z M198.2,0.5l3.9,1.2c-0.8,2.2-1.8,4.3-2.8,6.4c-1.1,2.1-2.2,4.2-3.5,6.1c-1.3,1.9-2.6,3.6-4,5.1
		c-0.1-0.3-0.3-0.8-0.6-1.3c-0.3-0.5-0.5-1.1-0.8-1.6c-0.3-0.5-0.6-1-0.8-1.3c1.2-1.2,2.3-2.5,3.3-4.1s2.1-3.2,3-5
		C196.7,4.2,197.5,2.3,198.2,0.5z M59.9,0.6H64v35.1h-4.1V0.6z M256.1,2.4l2.9-1.6c0.5,0.5,1,1.1,1.5,1.7c0.5,0.6,1,1.2,1.4,1.8
		c0.4,0.6,0.7,1.1,1,1.6l-3.1,1.8c-0.4-0.7-0.9-1.6-1.6-2.6C257.5,4.1,256.8,3.2,256.1,2.4z M251.5,0.9h3.9v7.7
		c0,1.5-0.1,3.1-0.4,4.7c-0.3,1.6-0.7,3.2-1.5,4.8c-0.7,1.6-1.8,3-3.2,4.4c-1.4,1.4-3.2,2.7-5.4,3.9c-0.3-0.4-0.8-0.9-1.3-1.5
		c-0.5-0.5-1.1-1-1.5-1.4c2.1-1,3.7-2.2,5-3.4c1.3-1.2,2.2-2.5,2.8-3.8c0.6-1.3,1.1-2.6,1.3-4c0.2-1.3,0.3-2.6,0.3-3.8V0.9z
		 M131.4,2.1c-0.1,0.3-0.2,0.7-0.3,1c-0.1,0.3-0.2,0.6-0.2,1c-0.2,1.1-0.4,2.5-0.6,4c-0.2,1.5-0.4,3.2-0.5,4.9
		c-0.1,1.7-0.2,3.4-0.2,5c0,1.9,0.1,3.7,0.3,5.3c0.2,1.6,0.5,3.1,0.9,4.5c0.4,1.4,0.7,2.7,1.1,4l-3.9,1.2c-0.4-1.1-0.7-2.5-1.1-4
		c-0.3-1.6-0.6-3.2-0.8-5c-0.2-1.8-0.3-3.5-0.3-5.3c0-1.3,0-2.6,0.1-3.9c0.1-1.3,0.2-2.6,0.3-3.9c0.1-1.3,0.2-2.5,0.4-3.6
		c0.1-1.1,0.2-2.2,0.3-3.1c0-0.4,0.1-0.7,0.1-1.1c0-0.4,0-0.7,0-1L131.4,2.1z M202.9,2.1h20.4v14.6h-20.4V2.1z M32.3,2.5v3.2H3.2
		V2.5H32.3z M159.3,3.8c0.5,0.1,1.1,0.1,1.6,0.1c0.6,0,1.1,0.1,1.6,0.1c0.4,0,1,0,1.9,0c0.8,0,1.8-0.1,2.8-0.1c1,0,2.1-0.1,3.1-0.1
		c1.1,0,2-0.1,2.8-0.1c0.8-0.1,1.5-0.1,1.9-0.1c0.7-0.1,1.3-0.1,1.7-0.2c0.4-0.1,0.7-0.1,1-0.2l2.2,3.1c-0.4,0.3-0.8,0.5-1.3,0.8
		c-0.4,0.3-0.8,0.6-1.3,0.9c-0.5,0.4-1.1,0.8-1.9,1.4c-0.7,0.6-1.5,1.2-2.4,1.9c-0.8,0.7-1.7,1.4-2.5,2c-0.8,0.7-1.5,1.3-2.2,1.8
		c0.7-0.2,1.4-0.4,2.1-0.4c0.7-0.1,1.3-0.1,2-0.1c2.1,0,4,0.4,5.7,1.2c1.7,0.8,3,1.9,4,3.3s1.5,3,1.5,4.8c0,2-0.5,3.8-1.5,5.4
		s-2.5,2.9-4.6,3.8c-2,0.9-4.5,1.4-7.5,1.4c-1.7,0-3.3-0.2-4.7-0.7c-1.4-0.5-2.4-1.2-3.2-2.1c-0.8-0.9-1.2-2-1.2-3.2
		c0-1,0.3-1.9,0.8-2.8c0.5-0.9,1.3-1.6,2.3-2.1c1-0.5,2.1-0.8,3.4-0.8c1.7,0,3.2,0.3,4.4,1c1.2,0.7,2.1,1.6,2.7,2.8
		c0.6,1.2,1,2.4,1,3.8l-4,0.6c-0.1-1.4-0.4-2.6-1.2-3.5c-0.7-0.9-1.7-1.4-3-1.4c-0.8,0-1.4,0.2-1.8,0.6c-0.5,0.4-0.7,0.9-0.7,1.4
		c0,0.8,0.4,1.4,1.2,1.8c0.8,0.5,1.8,0.7,3.1,0.7c2.1,0,3.9-0.3,5.4-0.8c1.5-0.5,2.6-1.3,3.4-2.3c0.8-1,1.1-2.2,1.1-3.6
		c0-1.2-0.4-2.2-1.1-3.1c-0.7-0.9-1.7-1.6-2.9-2.1c-1.2-0.5-2.6-0.8-4.1-0.8c-1.5,0-2.9,0.2-4.1,0.6c-1.2,0.4-2.4,0.9-3.5,1.5
		c-1.1,0.7-2.1,1.5-3.2,2.4s-2.1,2-3.2,3.2l-3.1-3.2c0.7-0.6,1.5-1.2,2.4-1.9c0.9-0.7,1.8-1.5,2.7-2.2s1.8-1.5,2.6-2.2
		c0.8-0.7,1.5-1.3,2.1-1.7c0.5-0.4,1.2-1,1.9-1.6c0.7-0.6,1.5-1.2,2.3-1.9c0.8-0.7,1.5-1.3,2.2-1.9c0.7-0.6,1.3-1.1,1.7-1.5
		c-0.4,0-0.9,0-1.6,0.1c-0.7,0-1.4,0.1-2.2,0.1c-0.8,0-1.6,0.1-2.4,0.1c-0.8,0-1.5,0.1-2.2,0.1c-0.7,0-1.2,0.1-1.6,0.1
		c-0.5,0-1,0.1-1.5,0.1c-0.5,0-1,0.1-1.4,0.2L159.3,3.8z M211.1,3.3h3.6V28l-3.6,0.4V3.3z M243.2,3.6h0.8l0.7-0.2l2.5,1.1
		c-0.8,3.8-1.9,7.1-3.5,10c-1.5,2.9-3.3,5.3-5.4,7.3c-2.1,2-4.3,3.6-6.8,4.8c-0.2-0.3-0.4-0.7-0.8-1.1c-0.3-0.4-0.7-0.8-1.1-1.2
		c-0.4-0.4-0.7-0.7-1-0.9c2.4-1.1,4.5-2.5,6.5-4.2c2-1.7,3.6-3.9,5-6.4c1.4-2.5,2.4-5.4,3-8.6V3.6z M236.9,3.6h7.7v3.2h-9.8
		L236.9,3.6z M41.3,3.7h9v22.6h-9v-4h5.3V7.6h-5.3V3.7z M39.3,3.7H43v25.7h-3.7V3.7z M97,6.5c-0.3,2-0.6,4-1,6.2
		c-0.4,2.2-0.9,4.4-1.6,6.6c-0.8,2.6-1.6,4.8-2.6,6.6c-1,1.8-2,3.2-3.2,4.2c-1.2,1-2.4,1.4-3.7,1.4c-1.3,0-2.5-0.5-3.7-1.4
		c-1.1-0.9-2.1-2.2-2.8-3.8c-0.7-1.6-1-3.5-1-5.6c0-2.2,0.4-4.2,1.3-6.1c0.9-1.9,2.1-3.6,3.7-5.1c1.6-1.5,3.4-2.7,5.5-3.5
		C90,5,92.3,4.6,94.7,4.6c2.3,0,4.4,0.4,6.3,1.1c1.9,0.7,3.5,1.8,4.8,3.1c1.3,1.3,2.3,2.9,3,4.7c0.7,1.8,1.1,3.7,1.1,5.7
		c0,2.7-0.6,5-1.7,7.1c-1.1,2.1-2.7,3.8-4.8,5.1c-2.1,1.3-4.8,2.2-7.9,2.7l-2.5-4c0.7-0.1,1.3-0.2,1.9-0.3c0.6-0.1,1.1-0.2,1.6-0.3
		c1.2-0.3,2.4-0.7,3.4-1.3c1.1-0.6,2-1.3,2.8-2.2c0.8-0.9,1.4-1.9,1.9-3.1c0.5-1.2,0.7-2.5,0.7-3.9c0-1.5-0.2-2.9-0.7-4.2
		c-0.5-1.3-1.2-2.4-2.1-3.3s-2-1.7-3.3-2.2c-1.3-0.5-2.8-0.8-4.5-0.8c-2.1,0-3.9,0.4-5.5,1.1c-1.6,0.7-2.9,1.7-4,2.9
		c-1.1,1.2-1.9,2.4-2.5,3.8c-0.6,1.4-0.9,2.7-0.9,3.9c0,1.3,0.2,2.5,0.5,3.4c0.3,0.9,0.7,1.6,1.2,2c0.5,0.4,1,0.7,1.5,0.7
		c0.6,0,1.1-0.3,1.7-0.8c0.6-0.6,1.1-1.4,1.7-2.6c0.5-1.2,1.1-2.7,1.7-4.5c0.6-1.8,1-3.8,1.4-5.8c0.4-2.1,0.7-4.1,0.9-6.1L97,6.5z
		 M124.8,6.4c2.4,0,4.6-0.1,6.7-0.2s4.2-0.3,6.2-0.6c2-0.3,3.9-0.6,5.8-1l0,4c-1.3,0.2-2.8,0.4-4.4,0.6c-1.6,0.2-3.2,0.3-4.9,0.5
		c-1.7,0.1-3.4,0.2-5,0.3c-1.6,0.1-3.2,0.1-4.6,0.1c-0.6,0-1.3,0-2.1,0c-0.8,0-1.6-0.1-2.4-0.1c-0.8,0-1.5-0.1-2.1-0.1l-0.1-4
		c0.5,0.1,1.1,0.1,1.9,0.2c0.8,0.1,1.6,0.2,2.5,0.2C123.3,6.4,124.1,6.4,124.8,6.4z M27.4,5.9c-0.4,0.7-0.8,1.4-1.2,2.1
		c-0.4,0.6-0.7,1.2-1,1.7l-3.6-0.8c0.3-0.6,0.6-1.2,0.9-1.9C22.7,6.2,23,5.6,23.1,5L27.4,5.9z M12.4,5.1c0.3,0.6,0.6,1.2,0.9,1.9
		c0.3,0.7,0.5,1.3,0.6,1.8L10,9.6C9.9,9.1,9.7,8.5,9.5,7.8C9.2,7,9,6.4,8.7,5.8L12.4,5.1z M206.7,5.1v2.7h12.7V5.1H206.7z M52.7,6.2
		H72v3.9H52.7V6.2z M194.3,10.8l3.9-3.8l0,0v28.8h-3.9V10.8z M234.1,9.8l1.8-2.3c0.7,0.3,1.5,0.7,2.3,1.1c0.8,0.4,1.6,0.9,2.3,1.3
		c0.7,0.5,1.3,0.9,1.8,1.3l-1.9,2.6c-0.4-0.4-1-0.8-1.7-1.3c-0.7-0.5-1.5-1-2.3-1.4C235.6,10.6,234.8,10.2,234.1,9.8z M246.1,8h16.6
		v3.8h-16.6V8z M34.3,8.8V12H1.4V8.8H34.3z M255.4,9.4c0.4,2.1,1,4,1.7,5.7c0.7,1.8,1.6,3.3,2.8,4.7c1.1,1.3,2.5,2.4,4,3.2
		c-0.3,0.3-0.6,0.6-1,1c-0.4,0.4-0.7,0.8-1,1.3c-0.3,0.4-0.6,0.8-0.8,1.2c-1.7-1-3.2-2.4-4.4-4c-1.2-1.6-2.2-3.5-3-5.6
		c-0.8-2.1-1.4-4.4-1.9-6.9L255.4,9.4z M141,11.7c-0.1,0.2-0.2,0.5-0.3,0.9c-0.1,0.4-0.3,0.7-0.4,1.1c-0.1,0.4-0.2,0.7-0.3,1
		c-0.7,2.3-1.6,4.4-2.7,6.3c-1.1,1.9-2.2,3.6-3.4,5c-1.2,1.4-2.5,2.6-3.7,3.6c-1.2,0.9-2.6,1.7-4.2,2.4c-1.6,0.7-3.1,1-4.7,1
		c-0.9,0-1.7-0.2-2.5-0.6c-0.7-0.4-1.3-0.9-1.8-1.7c-0.5-0.8-0.7-1.8-0.7-3c0-1.3,0.3-2.6,0.8-3.9c0.6-1.3,1.3-2.5,2.3-3.7
		s2.1-2.2,3.4-3.2c1.3-0.9,2.7-1.7,4.2-2.2c1.2-0.5,2.6-0.8,4.1-1.1c1.5-0.3,2.9-0.4,4.3-0.4c2.4,0,4.5,0.4,6.3,1.3
		c1.8,0.8,3.3,2,4.3,3.5c1,1.5,1.6,3.2,1.6,5.1c0,1.3-0.2,2.7-0.7,3.9c-0.4,1.3-1.2,2.5-2.1,3.5c-1,1.1-2.3,2-3.9,2.8
		c-1.6,0.8-3.5,1.3-5.9,1.7l-2.2-3.6c2.4-0.3,4.4-0.8,5.9-1.7c1.6-0.8,2.7-1.8,3.5-3c0.8-1.2,1.1-2.5,1.1-3.8c0-1.1-0.3-2.2-0.9-3.1
		c-0.6-0.9-1.5-1.7-2.8-2.3s-2.7-0.9-4.5-0.9c-1.7,0-3.2,0.2-4.5,0.6c-1.4,0.4-2.5,0.8-3.4,1.2c-1.3,0.6-2.5,1.4-3.5,2.4
		c-1,1-1.9,2-2.5,3.1c-0.6,1.1-0.9,2.1-0.9,3c0,0.7,0.2,1.2,0.5,1.5c0.3,0.3,0.8,0.5,1.4,0.5c0.9,0,2-0.3,3.2-0.9
		c1.2-0.6,2.4-1.4,3.6-2.5c1.5-1.3,2.8-3,4.1-4.8c1.3-1.9,2.3-4.2,3.1-7c0.1-0.3,0.1-0.6,0.2-0.9c0.1-0.4,0.1-0.7,0.2-1.1
		c0.1-0.4,0.1-0.7,0.1-0.9L141,11.7z M206.7,10.8v2.8h12.7v-2.8H206.7z M230.4,13.9l2.2-2.1c0.8,0.4,1.5,0.9,2.4,1.5
		c0.8,0.5,1.6,1.1,2.3,1.6c0.7,0.5,1.3,1,1.8,1.5l-2.4,2.4c-0.4-0.5-1-1-1.7-1.6c-0.7-0.6-1.5-1.1-2.3-1.7
		C232,14.9,231.2,14.4,230.4,13.9z M30.5,13.6v11.4h-25V13.6H30.5z M51.4,15.3h21.9v3.9H51.4V15.3z M9.3,18h17.1v-1.9H9.3V18z
		 M64.5,17.5c0.6,1.6,1.4,3.2,2.4,4.8c1,1.6,2.1,3.1,3.2,4.4c1.2,1.4,2.4,2.5,3.7,3.4c-0.3,0.3-0.7,0.6-1,1
		c-0.4,0.4-0.8,0.8-1.1,1.2c-0.3,0.4-0.6,0.8-0.9,1.2c-1.3-1.1-2.5-2.5-3.6-4.1c-1.2-1.6-2.2-3.3-3.2-5.2c-1-1.9-1.8-3.8-2.5-5.7
		L64.5,17.5z M59.4,17.6l3.2,1c-0.8,2.1-1.7,4-2.9,5.9c-1.1,1.9-2.4,3.6-3.8,5.1c-1.4,1.5-2.9,2.8-4.5,3.8c-0.2-0.3-0.5-0.7-0.8-1.1
		c-0.3-0.4-0.7-0.8-1-1.2c-0.4-0.4-0.7-0.7-1-1c1.5-0.8,3-1.9,4.4-3.2c1.4-1.3,2.6-2.8,3.7-4.4C57.9,21,58.7,19.4,59.4,17.6z
		 M221,19.1h3.8V32c0,0.9-0.1,1.6-0.3,2.2c-0.2,0.5-0.7,0.9-1.4,1.2c-0.6,0.3-1.4,0.4-2.4,0.5s-2.2,0.1-3.6,0.1
		c-0.1-0.5-0.2-1-0.4-1.7c-0.2-0.6-0.4-1.2-0.7-1.7c0.9,0.1,1.8,0.1,2.6,0.1c0.8,0,1.4,0,1.7,0c0.3,0,0.5-0.1,0.6-0.2
		c0.1-0.1,0.2-0.2,0.2-0.5V19.1z M201,19.1h22v3.4h-18.1v13.3H201V19.1z M9.3,22.4h17.1v-1.9H9.3V22.4z M216,24.1l2.4-0.8
		c0.4,0.7,0.8,1.5,1.2,2.4c0.4,0.8,0.7,1.7,1,2.5c0.3,0.8,0.5,1.5,0.7,2.1l-2.6,0.9c-0.1-0.6-0.3-1.3-0.6-2.1
		c-0.3-0.8-0.6-1.7-0.9-2.5C216.8,25.6,216.4,24.8,216,24.1z M16.1,24.3c0.7,0.3,1.5,0.7,2.3,1.1c0.8,0.4,1.6,0.9,2.3,1.3
		c0.7,0.4,1.3,0.8,1.7,1.3l-2.3,2.4c-0.5-0.4-1-0.8-1.7-1.3c-0.7-0.5-1.4-0.9-2.2-1.4c-0.8-0.5-1.5-0.9-2.3-1.2L16.1,24.3z M29.2,26
		c0.8,0.6,1.6,1.4,2.4,2.2c0.8,0.8,1.6,1.6,2.3,2.4c0.7,0.8,1.2,1.6,1.7,2.3l-3.4,2c-0.4-0.7-0.9-1.4-1.5-2.3
		c-0.7-0.8-1.4-1.7-2.2-2.5c-0.8-0.8-1.6-1.6-2.4-2.3L29.2,26z M205.6,27.3c1.7-0.1,3.7-0.3,6.1-0.6c2.4-0.2,4.8-0.5,7.2-0.7l0.2,3
		c-2.2,0.3-4.4,0.6-6.7,0.9c-2.2,0.3-4.2,0.6-6,0.8L205.6,27.3z M8.5,27.6C8,29,7.3,30.4,6.5,31.7C5.6,33,4.5,34.1,3.2,35L0,32.9
		c1.2-0.7,2.3-1.7,3.1-2.9c0.9-1.2,1.5-2.4,2-3.6L8.5,27.6z M254.8,28l3.9-1.2c0.6,0.8,1.2,1.6,1.8,2.5c0.6,0.9,1.2,1.8,1.8,2.7
		c0.6,0.9,1,1.7,1.3,2.4l-4.1,1.4c-0.3-0.7-0.7-1.5-1.2-2.4c-0.5-0.9-1.1-1.8-1.7-2.8C256,29.7,255.4,28.9,254.8,28z M13.7,31
		c0,0.5,0.1,0.8,0.4,0.9c0.3,0.1,0.9,0.2,1.8,0.2c0.2,0,0.6,0,1,0s1,0,1.7,0s1.2,0,1.7,0c0.5,0,0.9,0,1.2,0c0.5,0,0.9-0.1,1.1-0.2
		c0.2-0.1,0.4-0.4,0.5-0.9c0.1-0.5,0.2-1.2,0.2-2.1c0.4,0.3,1,0.5,1.6,0.8c0.7,0.3,1.3,0.4,1.8,0.5c-0.1,1.4-0.4,2.5-0.7,3.3
		c-0.4,0.8-0.9,1.3-1.5,1.6c-0.7,0.3-1.6,0.4-2.7,0.4c-0.2,0-0.5,0-0.9,0c-0.4,0-0.9,0-1.5,0c-0.5,0-1.1,0-1.6,0c-0.5,0-1,0-1.5,0
		c-0.4,0-0.8,0-0.9,0c-1.5,0-2.7-0.1-3.5-0.4c-0.8-0.3-1.4-0.7-1.7-1.3c-0.3-0.6-0.5-1.5-0.5-2.6v-4.3h4V31z M232.6,27l4,0.9
		c-0.4,1.4-1,2.9-1.8,4.3c-0.8,1.4-1.6,2.6-2.6,3.6l-3.8-1.6c0.9-0.8,1.7-1.9,2.5-3.2C231.6,29.7,232.2,28.4,232.6,27z M247.1,28.3
		l3.8-0.6c0.3,0.7,0.6,1.5,1,2.4c0.3,0.9,0.6,1.7,0.8,2.5c0.2,0.8,0.4,1.5,0.5,2.2l-4.1,0.8c-0.2-0.9-0.4-2.1-0.8-3.4
		C248,30.7,247.6,29.4,247.1,28.3z M239.5,28.2l3.8-0.4c0.3,1.1,0.5,2.4,0.6,3.7c0.2,1.3,0.3,2.5,0.3,3.4l-4,0.6
		c0-0.6,0-1.3-0.1-2.2c-0.1-0.8-0.1-1.7-0.2-2.6C239.8,29.8,239.7,29,239.5,28.2z"/>
</g>
</svg>
