<?xml version="1.0" encoding="utf-8"?>
<!-- Generator: Adobe Illustrator 27.9.1, SVG Export Plug-In . SVG Version: 6.00 Build 0)  -->
<svg version="1.1" id="Layer_1" xmlns="http://www.w3.org/2000/svg" xmlns:xlink="http://www.w3.org/1999/xlink" x="0px" y="0px"
	 viewBox="0 0 72.3 35.6" style="enable-background:new 0 0 72.3 35.6;" xml:space="preserve">
<style type="text/css">
	.st0{fill:#282828;}
</style>
<g>
	<path class="st0" d="M20.5,30.6l3.2-2.1c-0.3-0.6-0.7-1.2-1.2-1.9c-0.5-0.7-1.1-1.4-1.7-2.1c-0.6-0.7-1.2-1.3-1.8-1.9l-3,1.9
		c0.6,0.6,1.2,1.3,1.7,2c0.6,0.7,1.1,1.4,1.6,2.1C19.9,29.3,20.2,30,20.5,30.6z M17.6,24.7l1.3-0.8c0.4,0.4,0.8,0.8,1.2,1.3
		c0.6,0.7,1.1,1.4,1.6,2c0.3,0.3,0.5,0.6,0.7,0.9l-1.5,1c-0.2-0.3-0.4-0.7-0.7-1.1c-0.5-0.7-1.1-1.5-1.6-2.2
		C18.2,25.4,17.9,25.1,17.6,24.7z"/>
	<path class="st0" d="M2.1,15.7c0.4,0.2,0.6,0.4,0.8,0.6c0.5-1.1,0.9-2.5,1.3-3.9c0.1-0.4,0.2-0.7,0.2-1.1h2.8v7.4
		c-0.9,0.3-1.8,0.5-2.7,0.7c-1.6,0.4-3,0.8-4.2,1.1l1,3.9c1.8-0.5,3.7-1.1,5.9-1.8v13H11V21.4c1.2-0.4,2.3-0.7,3.5-1.1v2h13v8.5
		c0,0.3-0.1,0.4-0.2,0.5c-0.1,0.1-0.3,0.1-0.6,0.1c-0.3,0-0.9,0-1.8,0c-0.9,0-1.9,0-2.9-0.1c0.3,0.6,0.5,1.2,0.8,2
		c0.2,0.8,0.4,1.5,0.5,2.1c1.4,0,2.7,0,3.8-0.1c1.1-0.1,2-0.3,2.7-0.6c0.7-0.3,1.2-0.8,1.5-1.4c0.3-0.6,0.4-1.4,0.4-2.5v-8.5h4v-3.8
		h-4v-3.7h4.3V11H27V7.3h7.2V3.6H27V0h-4v3.6h-7v3.7h7V11h-8.6V7.4H11V0.1H7.3v7.3H5.1c0.2-1.6,0.4-3.2,0.6-4.8L2.3,2.1
		c-0.1,1.5-0.3,3-0.5,4.5c-0.2,1.5-0.4,3-0.7,4.3c-0.3,1.3-0.7,2.5-1.1,3.6c0.3,0.1,0.6,0.3,1,0.6C1.4,15.2,1.7,15.5,2.1,15.7z
		 M14.8,12H24V6.3h-7V4.6h7V1h2v3.6h7.2v1.7H26V12h8.9v1.8h-4.3v5.7h4v1.8h-4v9.5c0,1.1-0.2,1.8-0.3,2.1c-0.2,0.4-0.5,0.6-1,0.9
		c-0.6,0.3-1.4,0.4-2.4,0.5c-0.8,0.1-1.8,0.1-2.8,0.1c-0.1-0.4-0.2-0.9-0.4-1.4c-0.1-0.2-0.1-0.5-0.2-0.7c0.5,0,0.9,0,1.4,0
		c0.3,0,0.6,0,0.8,0c0.5,0,0.9,0,1.1,0c0,0,0,0,0,0c0.3,0,0.7,0,1.1-0.3c0.3-0.2,0.6-0.6,0.6-1.3v-9.5h-13v-1.8h13v-5.7H14.8V12z
		 M27.6,14.8v3.7H15.1l-0.3-2.1c-1.3,0.3-2.5,0.7-3.8,1.1v-6.3h2.7v3.6H27.6z M2.1,11.1c0.3-1.4,0.5-2.8,0.8-4.4
		C3,5.5,3.1,4.4,3.2,3.2l1.4,0.2C4.5,4.7,4.4,5.9,4.2,7.2L4,8.4h4.3V1.1H10v7.3h3.3v1.9H10v8.6c0,0,3.2-0.9,3.9-1.1l0.2,1.6
		c-0.9,0.3-1.8,0.6-2.7,0.8L10,20.7v13.9H8.3V21.2L7,21.6c-1.8,0.5-3.4,1-4.9,1.5l-0.5-1.9c1-0.2,2.1-0.5,3.2-0.8
		c0.9-0.2,1.8-0.5,2.7-0.7l0.7-0.2v-9.1H3.6l-0.3,1.2c0,0.2-0.1,0.5-0.2,0.7c-0.2,0.9-0.5,1.8-0.8,2.6c0,0-1.1-0.7-1.2-0.8
		C1.6,13.1,1.9,12.1,2.1,11.1z"/>
	<path class="st0" d="M63.2,4.7h-4V26h4V4.7z M62.2,25h-2V5.7h2V25z"/>
	<path class="st0" d="M68.3,30.5c0,0.4-0.1,0.6-0.2,0.7c-0.2,0.1-0.4,0.2-0.8,0.2c-0.4,0-1.1,0-2.2,0c-1.1,0-2.3,0-3.6-0.1
		c0.2,0.4,0.4,0.8,0.6,1.3c0.2,0.5,0.4,1,0.5,1.5c0.2,0.5,0.3,0.9,0.3,1.3c1.7,0,3.2-0.1,4.5-0.2c1.2-0.1,2.2-0.3,2.9-0.6
		c0.7-0.3,1.2-0.8,1.5-1.5s0.4-1.6,0.4-2.8V0.8h-4V30.5z M69.3,30.5V1.8h2v28.7c0,1.4-0.2,2.1-0.3,2.4c-0.2,0.4-0.5,0.7-1,1
		c-0.6,0.3-1.5,0.5-2.6,0.6c-1,0.1-2.2,0.1-3.6,0.1c-0.1-0.2-0.1-0.4-0.2-0.6c-0.2-0.5-0.3-1-0.5-1.5c0.7,0,1.4,0,2,0
		c0.4,0,0.7,0,1,0c0.6,0,1,0,1.3,0c0,0,0,0,0,0c0.5,0,1-0.2,1.3-0.4C69.1,31.6,69.3,31.1,69.3,30.5z"/>
	<path class="st0" d="M53.1,4.4h-9.9v7.8h9.9V4.4z M52.1,11.2h-7.9V5.4h7.9V11.2z"/>
	<path class="st0" d="M43.3,24.1c-0.4,1.7-1,3.3-1.8,4.7c-0.8,1.5-1.9,2.7-3.2,3.9c0.5,0.3,1,0.8,1.5,1.3c0.5,0.6,1,1.1,1.3,1.6
		c1.5-1.3,2.7-2.8,3.7-4.4c0.9-1.7,1.7-3.5,2.2-5.4c0.3-1.3,0.6-2.6,0.8-3.9h4.8c-0.1,1.6-0.1,2.9-0.2,4c-0.1,1.8-0.3,3.1-0.4,4
		c-0.2,0.9-0.4,1.5-0.6,1.7c-0.2,0.2-0.4,0.3-0.6,0.4C50.5,32,50.3,32,50,32c-0.3,0-0.9,0-1.6,0c-0.7,0-1.5-0.1-2.3-0.1
		c0.3,0.5,0.6,1.1,0.7,1.7c0.2,0.7,0.3,1.3,0.3,1.8c0.9,0.1,1.8,0.1,2.6,0.1c0.8,0,1.5-0.1,2-0.1c0.6-0.1,1.1-0.2,1.6-0.4
		c0.4-0.2,0.8-0.5,1.2-1c0.4-0.4,0.6-1.2,0.9-2.2c0.2-1,0.4-2.5,0.6-4.4c0.2-1.9,0.3-4.4,0.4-7.5c0-0.2,0-0.4,0-0.6
		c0-0.2,0-0.6,0-0.9h-2h-1.8h-4.4c0.1-1.1,0.2-2.3,0.3-3.4h7.6v-13H40.5v13h3.9c-0.1,1.3-0.2,2.7-0.3,4C44,20.7,43.7,22.4,43.3,24.1
		z M45.2,19c0.1-1.4,0.2-2.7,0.3-4.1l0.1-1.1h-3.9v-11h13.5v11h-7.5l-0.1,0.9c-0.1,1.1-0.2,2.2-0.3,3.3l-0.1,1.1h8.3
		c0,0.2,0,0.3,0,0.4l0,0.1c-0.1,3.1-0.2,5.6-0.4,7.5c-0.2,1.9-0.3,3.3-0.6,4.3c-0.2,1.1-0.5,1.6-0.6,1.8c-0.3,0.4-0.5,0.6-0.8,0.7
		c-0.3,0.1-0.8,0.2-1.3,0.3c-0.5,0.1-1.1,0.1-1.9,0.1l-0.5,0c-0.4,0-0.8,0-1.2,0c-0.1-0.4-0.1-0.7-0.3-1.1c0-0.1-0.1-0.2-0.1-0.3
		c0.2,0,0.5,0,0.7,0c0.7,0,1.3,0,1.6,0c0.4,0,0.7,0,1-0.1c0.4-0.1,0.7-0.3,1-0.7c0.4-0.4,0.6-1.1,0.8-2.2c0.2-0.9,0.3-2.3,0.4-4.1
		c0.1-1.1,0.1-2.5,0.2-4.1l0-1h-6.7l-0.1,0.8c-0.2,1.5-0.5,2.7-0.8,3.8c-0.5,1.8-1.2,3.6-2.1,5.2c-0.7,1.3-1.6,2.4-2.6,3.4
		c-0.2-0.3-0.4-0.5-0.7-0.8c-0.2-0.2-0.5-0.5-0.7-0.7c1-1,1.9-2.1,2.6-3.3c0.8-1.5,1.5-3.2,1.9-5C44.7,22.6,45,20.8,45.2,19z"/>
</g>
</svg>
