<?xml version="1.0" encoding="utf-8"?>
<!-- Generator: Adobe Illustrator 27.9.1, SVG Export Plug-In . SVG Version: 6.00 Build 0)  -->
<svg version="1.1" id="Layer_1" xmlns:inkscape="http://www.inkscape.org/namespaces/inkscape"
	 xmlns="http://www.w3.org/2000/svg" xmlns:xlink="http://www.w3.org/1999/xlink" x="0px" y="0px" viewBox="0 0 107.6 31.7"
	 style="enable-background:new 0 0 107.6 31.7;" xml:space="preserve">
<style type="text/css">
	.st0{fill:#070707;}
</style>
<g>
	<path class="st0" d="M27.9,14.5v-2c0.9,0.6,1.8,1.4,2.8,2.3l3-2.3c-1-1-2.3-2-3.8-2.9l2.6-0.1l-0.2-3c-1.7,0-3.2,0-4.3,0.1l0-1
		c2.4,0,4.1-0.1,5-0.1l-0.4-4C29.9,1.6,26,1.7,20.9,1.7c-0.2-0.6-0.6-1.2-1.1-1.7l-5.4,0.6c0.6,0.6,1,1.1,1.1,1.3
		C13,2,10.4,2.1,7.5,2.1l0-1.2L2.1,1.1C2.2,3,2.3,4.6,2.3,5.9c0,13.2-0.8,21-2.3,23.2l5.8,1.2c0.9-3,1.4-8.8,1.6-17.6L8.2,15
		c1.7-0.6,3-1.4,4.1-2.4l-0.1,1.9l3.9,0l0-2.6c0.4,0.2,0.8,0.5,1.3,0.8l2.2-2.1c-0.6-0.3-1.4-0.6-2.2-0.9l2,0l-0.1-3.1l-3.2,0.1V5.9
		l8.2-0.2l0,1c-1.3,0-2.7,0-4.2,0l0.1,3l2.3,0c-0.7,0.5-1.7,1-3,1.5l1,2.8l-3.8-0.5c-0.2,0.7-0.3,1.2-0.4,1.5l-2.8,0l-0.1-0.4
		L8.9,15c0.3,1.7,0.4,4.5,0.4,8.3l0,1.5l6-0.1c-1.3,1.4-4.1,2.4-8.4,3.2l2,3.7c4.2-0.7,7.4-2.2,9.8-4.4c0,1.4,0,2.3,0.1,2.6
		c0.2,1.1,1.1,1.7,2.6,1.7c4.5,0,8.3-0.2,11.5-0.7l0-3c-4.1,0.5-7.2,0.7-9.2,0.7c-0.5,0-0.7-0.1-0.7-0.4l-0.1-3.6l1.3,0
		c-0.6,0.7-0.9,1.3-0.9,2c0,0.7,0.3,1.1,0.8,1.3c0.1,0,0.4,0,0.9,0c0.8,0,1.9,0,3.4-0.1v0.4l3.7-0.4c-0.1-1.4-0.4-2.4-0.8-3.3h0
		c0-0.7,0.1-1.7,0.1-2.7c0-1.2,0-2.9-0.1-5.1c0-1.3-0.7-1.9-2-1.9c-2.6,0-5.4,0-8.6,0.1l0.4-0.9h0.4c0.8-0.2,1.8-0.8,3-1.9
		c0,0.3,0,1.1-0.1,2.2L27.9,14.5z M12.1,6.8c-1,0-2.3,0-3.9,0l0.1,3l2.1,0c-0.7,0.5-1.6,1-2.9,1.4c0-1.5,0-3.2,0-5.2L12.1,6V6.8z
		 M17.3,21.9c-1.2,0-2.4,0-3.7,0v-0.9l4.2,0C17.7,21.1,17.5,21.4,17.3,21.9z M18.1,18.3v0.2l-4.5,0.1v-0.8l4.5-0.1V18.3z M30.1,24.6
		L27.8,25c0.1,0.3,0.2,0.4,0.3,0.5l-0.6,0c-0.3,0-0.5,0-0.5,0c0,0,0.2-0.3,0.6-0.9L30.1,24.6z M22.4,17.6l3.9,0
		c0.4,0,0.7,0.1,0.7,0.4v0.5l-4.6,0V17.6z M22.2,20.8l4.7,0l0,1c-1.1,0-2.8,0.1-5,0.1C21.9,21.5,22.1,21.1,22.2,20.8z"/>
	<path class="st0" d="M42.9,7.7l5.6-2.6c-1.7-2.2-3.6-3.8-5.6-4.9l-5.1,2.2C40,4.3,41.7,6,42.9,7.7z"/>
	<path class="st0" d="M42.3,8.6l-5,2.6c2.3,1.9,4.1,3.6,5.3,5.3l5.5-2.7C46.3,11.7,44.3,10,42.3,8.6z"/>
	<path class="st0" d="M38.1,28.8l5.8,2.8c2.1-2.9,3.4-7.2,3.9-12.7l-4.9-1.5C42.4,21.5,40.8,25.3,38.1,28.8z"/>
	<path class="st0" d="M71.3,18L71,13c-2.4,0.1-5.4,0.2-8.9,0.4l0-3.7c4.1-0.1,6.5-0.3,7.1-0.4l-0.3-5.6c-2.1,0.1-4.4,0.2-6.9,0.4
		C61.8,3,61.8,1.7,61.8,0l-5.2,0.2l0,4c-2.4,0-4.8,0.1-7.3,0.2l0.1,5.6l7.2-0.3c0,1.1,0,2.4-0.1,3.8c-2.7,0.1-5.6,0.2-8.4,0.3
		l0.2,5.2c2,0,3.6-0.1,4.9-0.1c-1.8,3.3-2.8,5.6-2.9,6.9c-0.1,0.3-0.1,0.7-0.1,1.3c0,2.2,0.7,3.5,2.2,3.9c0.8,0.3,1.7,0.4,2.8,0.4
		c3.9,0,7.4-0.6,10.3-1.8l0.5,2.1l5.1-2.4c-0.8-3.1-2.3-6.4-4.5-9.9l-4.7,1.5c0.7,1.2,1.3,2.4,1.7,3.8c-2.4,0.9-4.6,1.4-6.4,1.4H57
		c-0.4,0-0.7-0.3-0.7-0.9c0-0.5,1-2.7,3-6.6C66.2,18.4,70.2,18.2,71.3,18z"/>
	<path class="st0" d="M103.1,7.4c-1.5-0.2-3.3-0.4-5.3-0.4c-1.9,0-4,0-6.3,0.1c0.2-1.8,0.4-4,0.5-6.7l-5.9-0.2
		c0,2.9-0.2,5.3-0.5,7.3c-3.1,0.2-6.8,0.4-10.9,0.7l0.3,5.6c3.8-0.2,7-0.4,9.6-0.5c-0.8,5.7-4,10.7-9.4,15.1l6.2,3.3
		c5.4-5,8.6-11.3,9.5-18.8c2.5-0.1,4.4-0.1,5.6-0.1c1.9,0,3.1,0.1,3.6,0.4c1,0.5,1.5,1.2,1.6,2c0.1,0.8,0.1,1.8,0.1,2.9
		c0,3.3-0.2,5.4-0.6,6.3c-0.2,0.7-1,1.1-2.2,1.1c-1.7,0-3.5-0.4-5.2-1.3l0,6.2c1.9,0.7,3.5,1.1,4.7,1.2s1.9,0.2,2.1,0.2
		c1.5,0,2.8-0.2,3.7-0.7c0.9-0.5,1.6-1.4,2-2.7s0.7-3.2,0.9-5.5s0.2-4.4,0.2-6.1c0-3.1-0.4-5.5-1.2-7C105.7,8.4,104.6,7.6,103.1,7.4
		z"/>
</g>
</svg>
