<?xml version="1.0" encoding="utf-8"?>
<!-- Generator: Adobe Illustrator 27.9.1, SVG Export Plug-In . SVG Version: 6.00 Build 0)  -->
<svg version="1.1" id="Layer_1" xmlns="http://www.w3.org/2000/svg" xmlns:xlink="http://www.w3.org/1999/xlink" x="0px" y="0px"
	 viewBox="0 0 185.7 35.5" style="enable-background:new 0 0 185.7 35.5;" xml:space="preserve">
<style type="text/css">
	.st0{fill:#282828;}
</style>
<g>
	<path class="st0" d="M7.5,7.9h19.6V3.5H7.5V7.9z M8.5,4.5h17.6v2.4H8.5V4.5z"/>
	<path class="st0" d="M2.4,25.1c0.4,0.3,0.8,0.6,1,0.9c0.9-0.8,1.8-1.7,2.7-2.7c0.3-0.4,0.6-0.8,0.9-1.2h8.4v2.7h-10V28h10v3H0.8
		v3.5h33.5V31H19.7v-3h10.4v-3.2H19.7v-2.7h12.1v-3.4H19.7v-2.5h-4.3v2.5H9.4c0.5-0.8,0.9-1.6,1.3-2.4l-3.2-0.9h23v-14H4.6v14h2
		c-0.7,1.5-1.6,2.9-2.7,4.3c-1.2,1.5-2.5,2.7-3.8,3.7c0.3,0.2,0.7,0.5,1.1,0.8C1.6,24.5,2,24.8,2.4,25.1z M5.6,14.4v-12h23.8v12H5.6
		z M4.6,20.4c1-1.3,1.9-2.6,2.6-4l2,0.6c-0.2,0.4-0.4,0.8-0.7,1.2l-0.9,1.5h8.8v-2.5h2.3v2.5h12.1v1.4H18.7v4.7h10.4V27H18.7v5h14.6
		v1.5H1.8V32h14.7v-5h-10v-1.2h10v-4.7H6.5l-0.3,0.4c-0.3,0.4-0.6,0.8-0.9,1.1c-0.6,0.7-1.3,1.4-1.9,2c-0.1-0.1-0.3-0.2-0.4-0.3
		c-0.4-0.3-0.9-0.6-1.3-1c0,0,0,0,0,0C2.7,22.5,3.7,21.5,4.6,20.4z"/>
	<path class="st0" d="M7.5,13.3h19.6V8.8H7.5V13.3z M8.5,9.8h17.6v2.4H8.5V9.8z"/>
	<path class="st0" d="M159.8,11.8c-1.4,0.1-2.5,0.2-3.3,0.3c-0.9,0.1-1.7,0.1-2.5,0.2c-0.8,0.1-1.5,0.1-2,0.1l0.5,4.4
		c0.3-0.1,0.8-0.1,1.3-0.2c0.5-0.1,1.1-0.2,1.6-0.2c0.6-0.1,1-0.2,1.4-0.2c0.8-0.1,1.8-0.2,3-0.3c0,1.2,0,2.4,0,3.6
		c0,1.2,0,2.2,0,3.2c0,1,0,1.7,0,2.2c0.1,1.6,0.2,3,0.4,4.1c0.2,1.1,0.7,2,1.4,2.6s1.8,1.1,3.2,1.4c1.4,0.3,3.3,0.4,5.7,0.4
		c1.2,0,2.5,0,3.9-0.1c1.4-0.1,2.7-0.1,3.9-0.2c1.2-0.1,2.3-0.2,3.1-0.3l0.2-4.6c-0.9,0.2-2,0.3-3.3,0.5c-1.3,0.2-2.6,0.3-4,0.3
		c-1.4,0.1-2.8,0.1-4,0.1c-1.5,0-2.6-0.1-3.5-0.2c-0.8-0.1-1.5-0.4-1.8-0.8c-0.4-0.4-0.6-0.9-0.8-1.5c-0.1-0.6-0.2-1.4-0.2-2.4
		c0-0.6,0-1.4,0-2.5c0-1.1,0-2.3,0-3.6c0-0.9,0-1.8,0-2.7c0,0,0,0,0,0c1.6-0.2,3.2-0.3,4.9-0.5c1.7-0.2,3.4-0.3,5-0.5
		c0.3,0,0.6,0,0.9-0.1c0,0.2,0,0.5,0,0.7c0,0.9-0.1,1.7-0.1,2.5c0,0.8-0.1,1.4-0.2,1.9c-0.1,0.4-0.2,0.6-0.4,0.7s-0.5,0.2-0.9,0.2
		c-0.4,0-0.9,0-1.6-0.1c-0.7-0.1-1.4-0.2-2-0.3l-0.1,3.7c0.4,0.1,1,0.2,1.7,0.2c0.7,0.1,1.4,0.2,2.1,0.2c0.7,0.1,1.3,0.1,1.7,0.1
		c1,0,1.7-0.2,2.2-0.5c0.5-0.3,0.8-1,1-1.9c0.1-0.7,0.2-1.5,0.3-2.5c0.1-1,0.1-2.2,0.2-3.4c0-0.6,0-1.2,0.1-1.8
		c1.3-0.1,2.4-0.1,3.3-0.1c0.3,0,0.7,0,1.2-0.1c0.5,0,0.9,0,1.3,0s0.7,0,0.9,0V9.7c-0.5,0-1.1,0.1-1.7,0.1c-0.6,0-1.2,0.1-1.7,0.1
		c-1,0.1-2.1,0.1-3.2,0.2c0-0.7,0-1.3,0-2c0-0.8,0-1.6,0.1-2.4c0-0.3,0-0.7,0-1.1c0-0.4,0.1-0.8,0.1-1.2c0-0.4,0.1-0.7,0.1-0.9h-4.6
		c0.1,0.3,0.1,0.6,0.1,1c0,0.4,0.1,0.8,0.1,1.2c0,0.4,0,0.8,0,1.1c0,0.7,0,1.5,0,2.2s0,1.5,0,2.2c0,0.1,0,0.1,0,0.2
		c-1.3,0.1-2.5,0.2-3.9,0.3c-2.1,0.2-4.1,0.4-6,0.6c-0.3,0-0.7,0.1-1,0.1c0-0.4,0-0.8,0-1.2c0-1.2,0-2.1,0-2.8c0-0.7,0-1.4,0-2
		c0-0.6,0.1-1.2,0.2-1.7h-4.8c0.1,0.6,0.2,1.3,0.2,1.9c0,0.6,0.1,1.3,0.1,2c0,0.4,0,0.9,0,1.8C159.8,10.1,159.8,10.9,159.8,11.8z
		 M160.7,5.5c0-0.3,0-0.5-0.1-0.8h2.5c0,0.2,0,0.4,0,0.7c0,0.6,0,1.3,0,2c0,0.7,0,1.6,0,2.8l0,2.3l8.1-0.7c1.3-0.1,2.6-0.2,3.8-0.3
		l0.9-0.1V5.8c0-0.3,0-0.7,0-1.1c0-0.4-0.1-0.8-0.1-1.2h2.4l-0.1,1c0,0.4,0,0.8,0,1.2c0,0.8,0,1.6-0.1,2.4l-0.1,3.1l1.1-0.1
		c1.2-0.1,2.3-0.2,3.2-0.2c0.5-0.1,1.1-0.1,1.7-0.1c0.2,0,0.5,0,0.7,0v2.1c-0.4,0-0.8,0-1.3,0c-0.5,0-0.9,0-1.2,0.1c0,0-0.1,0-0.1,0
		c-0.8,0-1.9,0-3.2,0.1l-0.9,0.1l-0.1,2.7c0,1.2-0.1,2.3-0.2,3.3c-0.1,1-0.2,1.8-0.3,2.4c-0.1,0.6-0.4,1.1-0.6,1.3
		c-0.2,0.1-0.7,0.3-1.6,0.3c-0.4,0-1,0-1.6-0.1c-0.7-0.1-1.4-0.1-2.1-0.2c-0.3,0-0.5-0.1-0.8-0.1l0-1.7c0.3,0,0.6,0.1,0.9,0.1
		c0.7,0.1,1.3,0.1,1.7,0.1c0.6,0,1.1-0.1,1.4-0.3c0.5-0.3,0.7-0.8,0.8-1.5c0.1-0.5,0.1-1.1,0.2-1.9c0-0.8,0.1-1.6,0.1-2.5l0.1-1.9
		l-2,0.2c-1.6,0.1-3.3,0.3-5,0.5c-1.7,0.2-3.4,0.3-4.9,0.5l-0.9,0.1l0,0.9l0,2.7c0,1.3,0,2.5,0,3.6c0,1.1,0,2,0,2.6
		c0,1,0.1,1.8,0.2,2.5c0.2,0.8,0.5,1.5,1.1,2c0.5,0.5,1.3,0.8,2.4,1c0.9,0.1,2.1,0.2,3.6,0.2c1.3,0,2.7,0,4.1-0.1
		c1.4-0.1,2.8-0.2,4.1-0.3c0.8-0.1,1.5-0.2,2.1-0.3l-0.1,2.5c-0.6,0.1-1.4,0.1-2.2,0.2c-1.2,0.1-2.5,0.2-3.9,0.2
		c-1.3,0.1-2.6,0.1-3.8,0.1c-2.3,0-4.2-0.1-5.5-0.4c-1.2-0.2-2.2-0.6-2.7-1.2c-0.6-0.5-0.9-1.2-1.1-2.1c-0.2-1-0.4-2.3-0.4-3.9
		c0-0.5,0-1.2,0-2.2c0-0.9,0-2,0-3.2v-4.7l-1.1,0.1c-1.2,0.1-2.2,0.2-3,0.3c-0.4,0.1-0.9,0.1-1.5,0.2c-0.6,0.1-1.1,0.2-1.6,0.2
		c-0.1,0-0.2,0-0.3,0l-0.2-2.3c0.3,0,0.6,0,1-0.1c0.8-0.1,1.6-0.1,2.5-0.2c0.8-0.1,4.2-0.4,4.2-0.4V7.6
		C160.8,6.8,160.8,6.1,160.7,5.5z"/>
	<path class="st0" d="M66.3,17.3c0.4-0.2,0.9-0.3,1.4-0.5c0.5-0.2,1-0.4,1.5-0.6c0.5-0.2,0.9-0.3,1.3-0.4l-1.7-4
		c-0.6,0.3-1.3,0.6-1.9,0.9c-0.6,0.3-1.3,0.6-2,0.9c-0.8,0.4-1.6,0.7-2.5,1.1c-0.8,0.4-1.8,0.8-2.8,1.2c-0.1,0.1-0.2,0.1-0.4,0.2
		c-0.3-0.7-0.7-1.3-1.2-1.7c-1-0.9-2.3-1.3-3.9-1.3c-0.5,0-1,0-1.5,0.1c-0.6,0.1-1.1,0.2-1.7,0.3c-0.5,0.1-1,0.3-1.4,0.5
		c0.6-0.8,1.2-1.8,1.8-2.8c0.3-0.5,0.6-1.1,0.8-1.6c1.1,0,2.2-0.1,3.4-0.2c1.6-0.1,3.1-0.2,4.7-0.3c1.5-0.1,3-0.3,4.3-0.5v-4
		c-1.8,0.3-3.7,0.6-5.8,0.7c-1.7,0.2-3.5,0.3-5.2,0.4c0.1-0.4,0.3-0.9,0.4-1.3c0.3-1.1,0.5-2,0.6-2.7l-4.5-0.4c-0.1,1-0.2,2-0.5,3.1
		c-0.1,0.5-0.2,0.9-0.4,1.4c-0.7,0-1.4,0-2,0c-0.9,0-2,0-3.3-0.1s-2.4-0.2-3.3-0.3v4c0.7,0,1.5,0.1,2.2,0.1c0.8,0.1,1.5,0.1,2.3,0.1
		c0.7,0,1.3,0,1.9,0c0.2,0,0.5,0,0.8,0c-0.3,0.7-0.7,1.3-1.1,2c-0.8,1.4-1.8,2.8-3,4.2c-1.2,1.4-2.7,3-4.3,4.6l3.6,2.7
		c0.7-0.8,1.3-1.6,1.8-2.3c0.6-0.7,1.1-1.3,1.7-1.9c0.8-0.7,1.7-1.4,2.8-1.9c1.1-0.5,2.2-0.8,3.3-0.8c0.8,0,1.6,0.2,2.2,0.7
		c0.3,0.2,0.5,0.5,0.7,0.9c-0.9,0.5-1.7,0.9-2.6,1.5c-1.2,0.7-2.2,1.5-3.2,2.3c-1,0.8-1.7,1.8-2.3,2.8c-0.6,1-0.9,2.2-0.9,3.4
		c0,1.6,0.4,2.8,1.3,3.7c0.9,0.9,2.1,1.5,3.7,1.9c1.5,0.4,3.3,0.6,5.2,0.6c1.2,0,2.4,0,3.7-0.1c1.3-0.1,2.6-0.1,3.8-0.2
		c1.2-0.1,2.3-0.2,3.1-0.3l0.2-4.4c-1.7,0.3-3.5,0.6-5.4,0.7c-1.9,0.2-3.7,0.3-5.3,0.3c-0.9,0-1.8,0-2.5-0.1
		c-0.7-0.1-1.4-0.2-1.9-0.4c-0.5-0.2-0.9-0.5-1.1-0.9c-0.3-0.4-0.4-0.9-0.4-1.4c0-0.8,0.2-1.5,0.7-2.1c0.4-0.6,1.1-1.3,1.9-1.9
		c0.6-0.5,1.4-0.9,2.2-1.4c0,0.5,0,0.9,0,1.4c0,0.7,0,1.4-0.1,2c0,0.6-0.1,1.2-0.1,1.6h4.1c0-0.6,0-1.3,0-2.1c0-0.8,0-1.6-0.1-2.4
		c0-0.8,0-1.6,0-2.3c0,0,0-0.1,0-0.1c0.7-0.3,1.5-0.7,2.2-1C63.6,18.4,65.1,17.8,66.3,17.3z M59.3,19.2l-0.6,0.3l0,3.1
		c0,0.8,0,1.6,0.1,2.4c0,0.4,0,0.7,0,1h-2c0-0.2,0-0.4,0-0.6c0-0.6,0-1.3,0.1-2c0-0.5,0-1,0-1.4l0-1.7l-1.5,0.8
		c-0.9,0.5-1.7,1-2.3,1.5c-0.9,0.7-1.7,1.4-2.2,2.1c-0.6,0.8-0.8,1.7-0.8,2.7c0,0.8,0.2,1.5,0.5,2c0.4,0.5,0.9,1,1.6,1.2
		c0.6,0.2,1.3,0.4,2.1,0.5c0.8,0.1,1.6,0.1,2.6,0.1c1.6,0,3.4-0.1,5.4-0.3c1.5-0.1,2.9-0.3,4.3-0.5l-0.1,2.3
		c-0.7,0.1-1.4,0.1-2.3,0.2c-1.2,0.1-2.5,0.2-3.7,0.2c-1.3,0-2.5,0.1-3.7,0.1c-1.8,0-3.5-0.2-5-0.5c-1.4-0.3-2.4-0.9-3.2-1.6
		c-0.7-0.7-1.1-1.7-1.1-3c0-1.1,0.2-2.1,0.7-2.9c0.5-0.9,1.2-1.8,2.1-2.6c0.9-0.8,1.9-1.5,3-2.2c0.9-0.5,1.7-1,2.6-1.4l0.8-0.4
		l-0.4-0.9c-0.2-0.5-0.6-0.9-1-1.2c-0.8-0.6-1.8-0.9-2.8-0.9c-1.3,0-2.5,0.3-3.8,0.9c-1.2,0.6-2.2,1.3-3.1,2.1
		c-0.6,0.6-1.2,1.2-1.8,2c-0.4,0.5-0.8,1-1.2,1.5L41,20.4c1.3-1.3,2.5-2.6,3.6-3.8c1.2-1.5,2.3-3,3.1-4.4c0.4-0.7,0.8-1.4,1.1-2.1
		l0.7-1.5l-2.4,0c-0.5,0-1.1,0-1.9,0c-0.7,0-1.4,0-2.2-0.1c-0.4,0-0.9-0.1-1.3-0.1V6.6c0.7,0.1,1.5,0.1,2.3,0.2
		c1.3,0.1,2.4,0.1,3.3,0.1c0.7,0,1.3,0,2,0l0.7,0l0.2-0.7c0.1-0.5,0.3-1,0.4-1.4C50.9,4,51,3.2,51.1,2.5l2.3,0.2
		c-0.1,0.5-0.2,1-0.4,1.5C53,4.6,52.9,5,52.7,5.4l-0.4,1.4l1.4,0c1.9-0.1,3.6-0.2,5.2-0.4c1.6-0.2,3.2-0.3,4.7-0.6v1.9
		c-1.1,0.1-2.2,0.3-3.4,0.4c-1.5,0.1-3.1,0.3-4.7,0.3c-1.2,0.1-2.3,0.1-3.4,0.2l-0.6,0l-0.3,0.5c-0.2,0.5-0.5,1-0.8,1.5
		c-0.5,1-1.1,1.9-1.7,2.7l1.3,1.5c0.3-0.2,0.7-0.3,1.2-0.4c0.5-0.1,1-0.2,1.6-0.3c0.5-0.1,1-0.1,1.4-0.1c1.3,0,2.4,0.4,3.3,1.1
		c0.4,0.4,0.7,0.8,0.9,1.3l0.4,1l1.3-0.6c1-0.4,1.9-0.8,2.7-1.2c0.9-0.4,1.7-0.7,2.5-1.1c0.7-0.3,1.4-0.6,2-0.9
		c0.3-0.2,0.7-0.3,1-0.5l0.9,2c-0.1,0-0.2,0.1-0.3,0.1c-0.5,0.2-1,0.4-1.5,0.6L66,16.4c-1.3,0.5-2.8,1.1-4.5,1.8
		C60.8,18.5,60.1,18.8,59.3,19.2z"/>
	<path class="st0" d="M103.4,5.2H83.1V12h20.3V5.2z M102.4,11H84.1V6.2h18.3V11z"/>
	<path class="st0" d="M103.4,13.9H83.1v7h20.3V13.9z M102.4,19.9H84.1v-5h18.3V19.9z"/>
	<path class="st0" d="M103.4,22.7H83.1v7h20.3V22.7z M102.4,28.7H84.1v-5h18.3V28.7z"/>
	<path class="st0" d="M106.7,35.1V2.2H80v32.9h4.1v-2.4h18.3v2.4H106.7z M83.1,31.7v2.4H81V3.2h24.7v30.9h-2.3v-2.4H83.1z"/>
	<path class="st0" d="M137.1,7.7c1.7-0.4,3.5-0.9,5.1-1.3c1.7-0.5,3.2-1,4.6-1.6l-3-3c-1,0.5-2.3,0.9-3.7,1.4c-1.4,0.5-3,1-4.6,1.4
		c-0.8,0.2-1.6,0.4-2.5,0.6V0.1H129v10.5c0,1.4,0.2,2.4,0.6,3.2c0.4,0.8,1,1.3,1.9,1.6c0.9,0.3,2.2,0.5,3.9,0.5c0.2,0,0.6,0,1.1,0
		c0.5,0,1.1,0,1.8,0c0.7,0,1.3,0,2,0c0.7,0,1.3,0,1.8,0c0.5,0,0.9,0,1.1,0c1.4,0,2.5-0.2,3.3-0.6c0.8-0.4,1.4-1,1.8-2
		c0.4-1,0.7-2.3,0.8-4.1c-0.6-0.1-1.2-0.3-1.9-0.6c-0.7-0.3-1.3-0.6-1.7-0.9c-0.1,1.3-0.2,2.2-0.3,2.9c-0.2,0.6-0.4,1.1-0.7,1.3
		c-0.3,0.2-0.8,0.3-1.4,0.3c-0.3,0-0.7,0-1.2,0s-1,0-1.7,0c-0.6,0-1.2,0-1.8,0c-0.6,0-1.1,0-1.6,0s-0.8,0-1,0
		c-1.1,0-1.9-0.1-2.2-0.3c-0.3-0.2-0.5-0.6-0.5-1.3v-2C134.4,8.3,135.7,8,137.1,7.7z M133.1,12.7c0.5,0.3,1.3,0.4,2.7,0.4h7.2
		c0.8,0,1.5-0.2,2-0.5c0.6-0.4,0.9-1,1.2-1.9c0.1-0.4,0.2-0.9,0.2-1.5c0.2,0.1,0.3,0.1,0.5,0.2c0.4,0.2,0.8,0.3,1.2,0.4
		c-0.1,1.3-0.4,2.3-0.7,3c-0.3,0.7-0.7,1.2-1.3,1.5c-0.7,0.3-1.6,0.5-2.9,0.5h-7.8c-1.6,0-2.8-0.1-3.6-0.4c-0.7-0.2-1.1-0.6-1.3-1.1
		c-0.3-0.6-0.5-1.5-0.5-2.8V1.1h2.1v5.4l1.2-0.3c0.8-0.2,1.6-0.4,2.5-0.6c1.6-0.4,3.2-0.9,4.7-1.4c1.2-0.4,2.3-0.8,3.2-1.2l1.4,1.4
		c-1,0.3-2,0.7-3.1,1c-1.7,0.5-3.4,0.9-5.1,1.3c-1.3,0.3-2.6,0.6-4,0.8l-0.8,0.2v2.8C132.1,11.6,132.4,12.3,133.1,12.7z"/>
	<path class="st0" d="M118.9,22.3V31c0,0.3-0.1,0.5-0.2,0.6c-0.1,0.1-0.3,0.2-0.6,0.2c-0.3,0-0.7,0-1.4,0c-0.7,0-1.4,0-2.2-0.1
		c0.3,0.5,0.5,1.2,0.7,1.9s0.4,1.3,0.4,1.8c1.3,0,2.5,0,3.4-0.1c0.9-0.1,1.6-0.3,2.2-0.6c0.6-0.3,1.1-0.7,1.3-1.3
		c0.2-0.6,0.3-1.4,0.3-2.4v-9.8c1.6-0.4,3.1-0.9,4.7-1.3l-0.5-3.8c-1.4,0.4-2.8,0.7-4.2,1.1v-6.2h4.1V7.3h-4.1V0h-4v7.3H114v3.8h4.9
		v7.2c-0.5,0.1-1,0.3-1.5,0.4c-1.5,0.4-2.8,0.7-4,0.9l1,3.9C115.8,23.2,117.3,22.7,118.9,22.3z M117.6,19.6c0.4-0.1,2.2-0.6,2.2-0.6
		v-9H115V8.3h4.9V1h2v7.3h4.1v1.8h-4.1v8.5c0,0,3.3-0.9,4.3-1.2l0.2,1.8c-1,0.3-4.6,1.3-4.6,1.3V31c0,1.1-0.1,1.7-0.3,2
		c-0.1,0.2-0.2,0.5-0.8,0.8c-0.5,0.3-1.1,0.4-1.9,0.5c-0.7,0.1-1.5,0.1-2.4,0.1c-0.1-0.4-0.2-0.7-0.3-1.2c-0.1-0.2-0.1-0.4-0.2-0.5
		c0.2,0,0.4,0,0.7,0c0.2,0,0.5,0,0.6,0c0.4,0,0.7,0,0.9,0c0,0,0,0,0,0c0.4,0,0.8-0.1,1.1-0.4c0.3-0.3,0.5-0.7,0.5-1.3V21
		c0,0-3.6,1-4.7,1.3l-0.5-1.9C115.5,20.2,116.5,19.9,117.6,19.6z"/>
	<path class="st0" d="M132.8,33.8h10.5v1.5h4.1v-17H129v17.2h3.8V33.8z M131.8,34.5H130V19.3h16.4v15h-2.1v-1.5h-12.5V34.5z"/>
	<path class="st0" d="M144.3,26.6h-12.5v4.9h12.5V26.6z M143.3,30.5h-10.5v-2.9h10.5V30.5z"/>
	<path class="st0" d="M144.3,20.6h-12.5v4.8h12.5V20.6z M143.3,24.4h-10.5v-2.8h10.5V24.4z"/>
</g>
</svg>
