<?xml version="1.0" encoding="utf-8"?>
<!-- Generator: Adobe Illustrator 27.9.1, SVG Export Plug-In . SVG Version: 6.00 Build 0)  -->
<svg version="1.1" id="Layer_1" xmlns:inkscape="http://www.inkscape.org/namespaces/inkscape"
	 xmlns="http://www.w3.org/2000/svg" xmlns:xlink="http://www.w3.org/1999/xlink" x="0px" y="0px" viewBox="0 0 254 32.2"
	 style="enable-background:new 0 0 254 32.2;" xml:space="preserve">
<style type="text/css">
	.st0{fill:#070707;}
</style>
<g>
	<path class="st0" d="M16,24.3c-0.2,0.4-0.4,0.8-0.4,1.2c0,1.3,0.8,1.8,1.6,1.8l4.8,0l0.1-3.5l-5.8,0.1L16,24.3z M16.9,24.9l4.2,0
		l0,1.5l-3.8,0c-0.4,0-0.6-0.3-0.6-0.8C16.7,25.3,16.7,25.1,16.9,24.9z"/>
	<path class="st0" d="M33.7,25.6L26.1,26v-1.3l6.2-0.1l-0.2-3.7L26,21.1l0-1.2h5.9c0.1-2.4,0.1-4.2,0.1-5.2c0-1.8-0.6-2.8-1.9-2.9
		c-8.6,0-13.2,0-13.9,0.1c-1.1,0.1-2.2,0.1-3.5,0.2c0,4.3,0,6.9,0,7.9C14,20,16.8,20,21,20l0,1.2l-10.5,0.1l0.1,3.7h1.4
		c-0.5,0.8-0.7,1.5-0.7,2c0,0.5,0,0.8,0,0.9c0,0.8,0.3,1.5,0.9,1.9s3.5,0.6,8.7,0.6l-0.1,1.7l5.2,0v-1.9l7.9-0.3L33.7,25.6z
		 M25.1,29.2V31l-3.2,0l0.1-1.7h-1c-6.7,0-8-0.4-8.2-0.5c-0.2-0.1-0.5-0.4-0.5-1c0-0.1,0-0.4,0-0.8c0-0.2,0.1-0.7,0.6-1.6l0.8-1.5
		h-2.1l0-1.7l10.5-0.1L22,19h-1c-3.4,0-5.8,0-7.3,0v-5.9c0.9,0,1.7-0.1,2.5-0.1c0.5-0.1,3.3-0.1,13.8-0.1c0.2,0,0.9,0.1,0.9,1.9
		c0,0.9,0,2.3-0.1,4.2h-5.9l0.1,3.2l6.1-0.1l0.1,1.7l-6.1,0.1v3.3l7.6-0.4l0.2,2.2L25.1,29.2z"/>
	<path class="st0" d="M27.9,16.8c0.1-0.2,0.1-0.4,0.1-0.9c0-1.1-0.6-1.6-1.3-1.7c-0.2,0-0.5-0.1-7.7-0.1c-0.7,0-1.4,0.1-1.9,0.2
		l-0.7,0.2v3l11.3-0.1L27.9,16.8z M26.9,16.5l-9.5,0.1c0-0.5,0-1,0-1.3c0.4-0.1,1-0.2,1.6-0.2c4.7,0,7.2,0,7.5,0.1
		c0.3,0,0.4,0.3,0.4,0.7C27,16.2,27,16.4,26.9,16.5z"/>
	<path class="st0" d="M4.5,19c0,5-0.2,9.3-0.5,12.9l6,0.2l0-4.5c0-5.8-0.1-11.8-0.3-18c0.8-2.2,1.4-5,1.7-8.5L6.2,0.4
		C5.5,6.7,3.5,11.6,0,15.3l2.9,5.5C3.6,20.2,4.1,19.6,4.5,19z M7.1,1.5l3.3,0.4C10,4.8,9.5,7.3,8.8,9.2L8.7,9.4l0,0.2
		C8.9,15.7,9,21.7,9,27.5L9,31l-3.9-0.1c0.3-3.4,0.4-7.4,0.4-11.9l-1.9-0.5c-0.1,0.2-0.2,0.4-0.4,0.6l-2-3.7
		C4.3,11.9,6.3,7.2,7.1,1.5z"/>
	<path class="st0" d="M10.8,7.2l0,4c12.6-0.1,20.4-0.2,23.3-0.3L34,6.9l-3,0l0-1.3c0-0.8-0.2-1.6-0.4-2.2c-0.2-0.6-0.7-1-1.3-1.2
		c-0.2-0.1-0.8-0.1-1.6-0.1l-6.2,0l0-1.3h-4.9l-0.1,1.6l-4.1,0.1l0.1,3.8l3.7-0.1l-0.1,1L10.8,7.2z M13.6,5.2l-0.1-1.8l4-0.1
		l0.1-1.5h2.9l0,1.3l7.2,0c1,0,1.3,0.1,1.3,0.1c0.3,0.1,0.6,0.3,0.7,0.6C29.9,4.3,30,4.9,30,5.6L30,7.9l3,0l0.1,2.1
		c-3.4,0.1-10.4,0.2-21.3,0.3l0-2l5.2,0l0.4-3L13.6,5.2z"/>
	<path class="st0" d="M26.9,7.1c0-0.4-0.2-1.8-2.1-2l-0.1,0l-4.3,0l-0.2,3.1L26.9,8V7.1z M21.2,7.1L21.3,6l3.4,0
		c0.8,0.1,1.2,0.4,1.2,1L21.2,7.1z"/>
	<path class="st0" d="M55.2,15.4c0.1-0.5,0.3-1,0.5-1.6c9-0.1,14-0.2,14.9-0.3l-0.3-5.6C66,7.9,61.5,8,56.7,8.2
		C56.9,6.3,57,3.7,57,0.4l-6,0.3c0.1,3.2,0,5.8-0.2,7.8c-5,0.1-9.5,0.2-13.2,0.2v5.6c4.5-0.1,8.7-0.2,12.4-0.3c-2,5.5-6,9.9-12,13.2
		l4.8,4.3c4.8-2.3,8.4-5.7,10.8-10.2c4.2,2.7,8.2,6.2,11.8,10.5l5.9-3.7C66.1,22.7,60.8,18.5,55.2,15.4z M53.9,20.4L53,19.8l-0.5,1
		c-2.1,4.1-5.4,7.3-9.7,9.5l-3.2-2.9c5.6-3.3,9.4-7.7,11.3-13.1l0.5-1.4l-1.5,0c-3.5,0.1-7.2,0.1-11.4,0.2V9.6
		c3.5,0,7.6-0.1,12.2-0.2l0.9,0l0.1-0.8C52,6.7,52.1,4.4,52,1.6l4-0.2c0,2.8-0.1,5.1-0.3,6.7l-0.1,1.1l1.2,0
		c4.4-0.2,8.7-0.3,12.7-0.4l0.2,3.7c-2,0.1-6.7,0.1-13.9,0.3l-0.7,0l-1,3.1l0.7,0.4c5.2,2.9,10.2,6.8,14.8,11.6l-4.1,2.6
		C61.9,26.4,58,23,53.9,20.4z"/>
	<path class="st0" d="M88.9,5.8l0.5,5.6c2.7-0.5,6.1-0.8,10.2-0.8c1.8,0,3.5,0.1,5.3,0.2l0.2-5.6c-2.2-0.2-4.4-0.3-6.5-0.3
		C94.8,4.8,91.6,5.1,88.9,5.8z M103.9,9.7c-1.5-0.1-2.9-0.1-4.3-0.1c-3.6,0-6.7,0.2-9.3,0.6L90,6.6c2.4-0.5,5.3-0.8,8.6-0.8
		c1.8,0,3.7,0.1,5.5,0.2L103.9,9.7z"/>
	<path class="st0" d="M80,2.1c-0.7,1.9-1.3,4.1-1.7,6.8c-0.4,2.7-0.6,5.5-0.6,8.4c0,5.2,0.6,9.6,1.7,13.2l5.9-0.9
		c-1.1-4-1.6-8.2-1.6-12.4c0-4.9,0.7-9.5,2.2-13.9L80,2.1z M84.1,28.8l-3.9,0.6c-1-3.3-1.4-7.4-1.4-12.1c0-2.9,0.2-5.7,0.6-8.3
		c0.3-2.2,0.8-4.1,1.3-5.8l3.9,0.8c-1.2,4.2-1.9,8.6-1.9,13.2C82.7,21.2,83.2,25,84.1,28.8z"/>
	<path class="st0" d="M94.6,28.1c2.4,0.6,5.3,0.9,8.7,0.9c0.6,0,1.2,0,1.9,0l0.2-6c-3.5,0-6.4-0.3-8.6-0.7c-2.2-0.5-4.5-1.3-6.8-2.5
		l-2.4,5.6C89.8,26.6,92.1,27.5,94.6,28.1z M90.5,21c2.1,1,4.1,1.7,6.1,2.1c2,0.4,4.6,0.7,7.8,0.7l-0.2,4.1c-0.3,0-0.6,0-0.9,0
		c-3.3,0-6.1-0.3-8.5-0.8c-2-0.5-4-1.3-6-2.3L90.5,21z"/>
	<path class="st0" d="M129,10.7l-0.1-5.3c-1.1,0-2.4,0.1-3.7,0.2c0.3-1.3,0.6-2.7,0.9-4.1l-5.8-0.9c-0.4,1.9-0.8,3.8-1.3,5.7
		c-2.5,0.4-4.7,0.8-6.4,1.3l1.1,5.2c1.1-0.3,2.3-0.5,3.7-0.8c-1.6,4.8-3.3,9.1-5.1,12.8l5.7,2c2.4-5.6,4.3-10.9,5.7-15.8
		C125.6,10.9,127.4,10.8,129,10.7z M122.8,10.1l-0.2,0.7c-1.3,4.6-3.1,9.5-5.3,14.8l-3.7-1.3c1.7-3.5,3.2-7.5,4.7-12l0.5-1.6
		l-1.6,0.3c-1,0.2-1.9,0.4-2.8,0.6l-0.7-3.3c1.5-0.4,3.3-0.7,5.4-1l0.7-0.1l0.2-0.6c0.4-1.6,0.8-3.2,1.2-4.8l3.8,0.6
		c-0.2,1-0.5,2-0.7,3l-0.3,1.3l1.4-0.1c0.9-0.1,1.8-0.1,2.6-0.2l0.1,3.4c-1.4,0.1-2.9,0.2-4.5,0.3L122.8,10.1z"/>
	<path class="st0" d="M137.8,18.4c-0.3-2-0.8-4.2-1.4-6.6l-5.4,0.9c0.3,1.6,0.6,3,0.9,4.2c-0.6-0.1-1.2-0.1-1.8-0.1
		c-2.5,0-4.6,0.7-6.3,2.1c-1.6,1.4-2.4,3.2-2.4,5.4c0,2.2,0.8,3.9,2.3,5.3c1.6,1.3,3.6,2,6.1,2c2.3,0,4.1-0.6,5.5-1.8s2.2-3,2.6-5.3
		c1.5,0.8,2.6,1.5,3.4,2.3l2.1-5.3C141.8,20.2,139.9,19.3,137.8,18.4z M140.9,25.1c-0.7-0.5-1.5-1-2.5-1.5l-1.2-0.6l-0.2,1.4
		c-0.3,2.1-1.1,3.6-2.3,4.7c-1.2,1.1-2.8,1.6-4.8,1.6c-2.3,0-4.1-0.6-5.5-1.8c-1.3-1.2-2-2.6-2-4.5c0-1.9,0.7-3.5,2.1-4.7
		c1.5-1.2,3.3-1.9,5.6-1.9c0.5,0,1.1,0,1.7,0.1l1.3,0.2l-0.2-1.3c-0.2-1-0.4-2-0.6-3.2l3.5-0.5c0.5,2,0.9,3.9,1.2,5.6l0.1,0.6
		l0.5,0.2c1.8,0.7,3.4,1.5,4.7,2.4L140.9,25.1z"/>
	<path class="st0" d="M129.6,20.7c-1.1,0-2,0.3-2.6,0.9c-0.7,0.6-1.1,1.5-1.1,2.5c0,1,0.4,1.8,1.1,2.5c0.7,0.6,1.6,0.9,2.7,0.9
		c1.6,0,2.5-0.8,2.9-1.5c0.6-0.9,0.9-2.1,0.9-3.7v-0.7l-0.7-0.2C131.4,20.9,130.4,20.7,129.6,20.7z M131.7,25.4
		c-0.5,0.7-1.2,1-2.1,1c-0.8,0-1.5-0.2-2-0.6c-0.5-0.4-0.7-1-0.7-1.7c0-0.7,0.2-1.3,0.7-1.7c0.5-0.4,1.1-0.6,2-0.6
		c0.7,0,1.6,0.2,2.8,0.5C132.4,23.7,132.1,24.8,131.7,25.4z"/>
	<path class="st0" d="M143.2,9c-2.8-2.3-5.9-4.4-9.4-6.1l-3,4.6c3.5,1.7,6.6,3.7,9.3,6.2L143.2,9z M132.3,7.1l1.9-2.9
		c2.8,1.5,5.3,3.1,7.7,5l-1.9,3C137.7,10.2,135.2,8.5,132.3,7.1z"/>
	<path class="st0" d="M175.2,15.3c-1.2-1.6-2.9-2.8-5.2-3.5c1.8-1.4,2.7-3,2.7-5c0-1.7-0.8-2.9-2.3-3.7c-1.5-0.8-3.9-1.2-7-1.2
		s-6.6,0.3-10.3,0.8l1,5.7c3.6-0.6,6.8-1,9.7-1c1.6,0,2.3,0.2,2.3,0.7c0,0.9-2.4,2-7.3,3.1l1.1,5.4c1.5-0.4,3.2-0.6,5-0.6
		s3.3,0.4,4.3,1.2s1.6,2,1.6,3.5c0,1.5-0.6,2.7-1.7,3.5s-2.8,1.3-5,1.4l3-2.6c-2.2-3.5-5.1-5.2-8.5-5.2c-1.8,0-3.3,0.6-4.5,1.8
		s-1.9,2.7-1.9,4.5c0,2.2,1,4,3,5.3c2,1.3,4.7,1.9,8.2,1.9c4.2,0,7.6-0.9,10-2.8c2.4-1.8,3.6-4.4,3.6-7.6
		C177,18.8,176.4,16.9,175.2,15.3z M172.8,27.9c-2.2,1.7-5.4,2.6-9.4,2.6c-3.3,0-5.9-0.6-7.7-1.8c-1.7-1.1-2.5-2.5-2.5-4.4
		c0-1.5,0.5-2.8,1.5-3.8c1.1-1,2.3-1.5,3.8-1.5c2.9,0,5.2,1.3,7.2,4l-2.7,2.4l-0.1-0.1c-0.6-0.9-1.2-1.6-1.9-2.2
		c-0.8-0.6-1.5-0.9-2.1-0.9c-2,0-2.1,1.4-2.1,1.7c0,0.6,0.3,1.5,1.8,2.1c0.8,0.3,1.7,0.6,2.9,0.7l-0.2,0.2l1.5-0.1l1.2,0.1l-0.1-0.1
		l0.2,0c2.4-0.1,4.2-0.7,5.6-1.6c1.4-1,2.2-2.5,2.2-4.3c0-1.8-0.7-3.3-2-4.3c-1.3-0.9-2.9-1.4-4.9-1.4c-1.5,0-2.9,0.1-4.2,0.4
		l-0.7-3.4c5.9-1.5,7.1-2.6,7.1-3.9c0-1.7-2.3-1.7-3.3-1.7c-2.6,0-5.6,0.3-8.9,0.8l-0.6-3.7c3.3-0.4,6.4-0.7,9.2-0.7
		c2.9,0,5.1,0.4,6.5,1.1c1.2,0.6,1.8,1.5,1.8,2.8c0,1.6-0.8,3-2.3,4.2l-1.5,1.2l1.8,0.6c2,0.6,3.6,1.7,4.7,3.1
		c1.1,1.4,1.6,3.1,1.6,5.1C176,24,175,26.2,172.8,27.9z M162.1,25.8c-1.3-0.1-2.3-0.3-3.1-0.7c-0.8-0.3-1.2-0.8-1.2-1.2
		c0-0.5,0.4-0.7,1.1-0.7c0.4,0,0.9,0.2,1.5,0.7C161,24.3,161.6,24.9,162.1,25.8z"/>
	<path class="st0" d="M192.4,6.5c-1.2-2.4-2.5-4.4-4-6l-5,2.2c1.8,2.2,3.1,4.4,3.9,6.4L192.4,6.5z M188.1,1.7c1,1.2,2,2.7,2.9,4.4
		l-3.3,1.7c-0.7-1.5-1.6-3.1-2.8-4.6L188.1,1.7z"/>
	<path class="st0" d="M216.8,4.7c0-0.7,0-1.4-0.1-2.1c-0.2-1.4-1.1-2.1-2.7-2.2l-4.1,0c-2.7,0-4.9,0-6.4,0.1
		c-2.8,0.1-6.5,0.4-11,0.6c-0.1,1.4-0.1,2.7-0.1,3.8c0,0.4,0,1.2,0.1,2.3l2.2-0.1v2.2c3,0,5.3-0.1,6.9-0.2v1.2
		c-1.8,0-4.3,0.1-7.5,0.1c0.1,2.8,0.2,5.3,0.2,7.5l0,2.5l7.6-0.1v1.2l-7.4,0h-2.4l0,3.5c3.5-0.1,6.8-0.2,9.8-0.2l0,1.8h-0.8
		c-1.4,0-2.7-0.1-3.9-0.2c-2.8-0.4-5.1-1.1-6.8-2c0.7-2.2,1.2-5.3,1.3-9.3c0-2.7-1.1-4.3-3.3-4.8c-0.9-0.1-1.8-0.1-2.6-0.1
		c-1,0-2,0.1-3,0.3l0.2,5.1c0.6,0,1.1-0.1,1.6-0.1c0.5,0,0.9,0.1,1.3,0.3c0.3,0.1,0.4,0.5,0.4,1c0,0.2,0,0.6-0.1,1.1
		c-0.6,4.4-1.9,8-3.8,10.6l4.9,3.5c0.6-0.9,1.2-1.7,1.6-2.6c2,1.2,4.7,2,8.1,2.4c1.2,0.1,2.5,0.2,4.1,0.2c3,0,7.9-0.2,14.6-0.6
		l1-5.5c-4,0.3-7.5,0.5-10.4,0.6l0-1.7l10.4-0.1l-0.1-3.3l-10.4,0.1v-1.3l8.4-0.1c-0.1-3.5-0.1-5.5-0.1-6c0-2.4-1-3.7-3-3.7
		c-1.6,0-3-0.1-4-0.1h-1.3V9.1c2.7-0.1,5.3-0.2,7.9-0.2l-0.1-1.7l2.3,0.1C216.7,6.5,216.8,5.6,216.8,4.7z M215.7,6.3l-2.5-0.2V5.6
		c0-1.4-0.6-1.9-1.1-2.1c-0.3-0.1-1-0.3-3.9-0.3c-3.9,0-7.8,0.2-11.6,0.5l-1,0.1l0.2,3.1l0.9,0c0.8,0,1.7,0,2.7,0l3.2-0.1l0-1
		l2.7-0.1v1.1l7.8-0.3l0.1,1.4c-2.2,0-4.5,0.1-6.9,0.2l-1,0v3.1h2.3c1.1,0,2.4,0,4,0.1c1,0,2,0.4,2,2.7c0,0.5,0,2.1,0.1,5l-8.4,0.1
		v3.3l10.4-0.1l0,1.3l-10.4,0.1l0.1,3.8l1,0c2.6-0.1,5.6-0.3,9.1-0.5l-0.6,3.5c-6.2,0.4-10.8,0.6-13.7,0.6c-1.5,0-2.9-0.1-4-0.2
		c-3.2-0.4-5.8-1.1-7.7-2.2l-0.9-0.5l-0.5,0.9c-0.3,0.5-0.6,1.1-1,1.6l-3.3-2.3c1.7-2.6,2.8-6.1,3.4-10.2c0.1-0.6,0.1-0.9,0.1-1.2
		c0-1.2-0.5-1.7-1-1.9c-0.5-0.2-1.1-0.3-1.8-0.3c-0.2,0-0.4,0-0.6,0l-0.1-3.2c0.7-0.1,1.3-0.2,2-0.2c0.8,0,1.6,0,2.5,0.1
		c1,0.2,2.4,0.9,2.4,3.8c-0.1,3.9-0.5,6.9-1.2,9l-0.3,0.8l0.8,0.4c1.8,1,4.2,1.7,7.2,2.1c1.2,0.2,2.6,0.2,4,0.2h1.8l-0.1-3.8l-1,0
		c-2.7,0-5.6,0.1-8.8,0.2l0-1.5h1.4l8.4,0v-3.2l-7.6,0.1l0-1.5c0-1.9,0-4.1-0.1-6.5c2.7,0,7.5-0.1,7.5-0.1V8.1l-1,0
		c-1.4,0.1-3.4,0.1-5.9,0.2V6.1l-2.3,0.1c0-0.6-0.1-1-0.1-1.2c0-0.8,0-1.8,0.1-2.8c4.1-0.2,7.5-0.4,10.1-0.6
		c1.5-0.1,3.7-0.1,6.4-0.1l4.1,0c1.3,0,1.6,0.5,1.7,1.3c0.1,0.6,0.1,1.3,0.1,2C215.8,5.2,215.8,5.8,215.7,6.3z M201.5,4.9l0,1
		l-2.2,0c-0.9,0-1.8,0-2.6,0l-0.1-1.3c3.7-0.3,7.5-0.5,11.5-0.5c2,0,3.2,0.1,3.5,0.2s0.5,0.6,0.5,1.2l-5.9,0.2V4.7L201.5,4.9z"/>
	<path class="st0" d="M205.4,18.5l5.7-0.2v-3.1h-5.7V18.5z M206.4,16.3h3.7v1.1l-3.7,0.1V16.3z"/>
	<path class="st0" d="M211,13.9c-0.3-1.3-1-1.7-1.6-1.8c-0.5-0.1-1.2-0.2-2.2-0.2h-1.9v3.2h5.9L211,13.9z M206.3,14.1V13h0.9
		c0.9,0,1.6,0,2,0.1c0.4,0.1,0.7,0.4,0.8,1.1H206.3z"/>
	<path class="st0" d="M197.6,18.6l5.3-0.1l-0.1-3.3l-5.2,0.1V18.6z M198.6,16.4l3.2-0.1l0,1.3l-3.2,0V16.4z"/>
	<path class="st0" d="M197.6,15.2l5.2-0.1V12l-5.2,0.2V15.2z M198.6,13.2l3.2-0.1v1.1l-3.2,0V13.2z"/>
	<path class="st0" d="M238.9,2.2c0.1-0.1,0.4-0.4,0.6-1l-5-1.2c-3.5,4.5-8.4,7.8-14.8,10.2l2.4,4.5c1.9-0.6,3.5-1.3,4.6-2v1.7
		c4.2-0.2,7.3-0.4,9.5-0.5c2.2-0.1,5.4-0.2,9.6-0.5l-0.1-2.1c1.5,1,3,2.1,4.6,3.2l3.6-4.1C249.3,7.3,244.3,4.6,238.9,2.2z
		 M250.2,13.2c-1.3-0.9-2.6-1.8-3.9-2.7l-1.6-1.1l0,0.2L241.8,8c-1.8-1-3.5-1.9-5.1-2.8l-0.6-0.3l-0.5,0.4c-1.4,1.2-2.8,2.2-4.1,3
		l0.5,1.9l12.6-0.5l0.1,2.8c-3.7,0.2-6.5,0.3-8.6,0.4c-2,0.1-4.8,0.2-8.5,0.4v-2.5l-1.5,0.9c-1,0.6-2.2,1.1-3.7,1.7l-1.5-2.7
		c5.8-2.3,10.4-5.5,13.8-9.6l2.8,0.7L237,2.5l1.5,0.6c5,2.2,9.7,4.7,14,7.5L250.2,13.2z M241.4,8.8L232,9.2c1.4-0.8,2.8-1.8,4.3-3.1
		C237.9,6.9,239.6,7.8,241.4,8.8z"/>
	<path class="st0" d="M242,32v-3.8c0-3.6,0-6.3,0-8.2c1.3-0.1,2.2-0.2,2.5-0.2c0.3,0,0.6,0,0.8,0c0.6,0.1,1,0.5,1,1.1
		c0.1,0.6,0.1,1.3,0,2.1c0,0.8-0.2,1.3-0.6,1.4c-0.2,0.1-0.5,0.1-0.7,0.1c-0.6,0-1.1-0.2-1.6-0.5l0.1,5.2c1.5,0.6,2.8,0.9,3.9,0.9
		c1.3,0,2.3-0.5,3-1.5c0.7-1,1-3,1-6.1c0-3.1-0.4-5-1.2-5.8c-0.8-0.8-2.1-1.2-3.9-1.2c-1,0-2.6,0.1-4.8,0.2c0,0,0-0.2,0.1-0.6
		l-5.2,0.1c0.1,1.8,0.2,4.1,0.2,6.8c0,2.1-0.1,5.5-0.4,10.2L242,32z M237.7,16.2l2.9-0.1l-0.1,0.6l1.2-0.1c2.2-0.1,3.8-0.2,4.8-0.2
		c1.5,0,2.6,0.3,3.1,0.9c0.3,0.3,0.9,1.3,0.9,5.1c0,3.7-0.5,5.1-0.8,5.5c-0.5,0.7-1.2,1.1-2.2,1.1c-0.8,0-1.8-0.2-2.9-0.6l-0.1-3
		c0.2,0,0.4,0,0.6,0c0.4,0,0.7-0.1,1.1-0.2c1.1-0.4,1.2-1.8,1.2-2.2c0.1-0.9,0-1.6,0-2.3c-0.1-1-0.8-1.8-1.8-2c-0.3,0-0.6-0.1-1-0.1
		c-0.4,0-1.2,0.1-2.6,0.2l-0.9,0.1l0,0.9c0,1.9,0,4.6,0,8.2v2.8l-3.6,0.1c0.3-4.1,0.4-7.2,0.4-9.1C237.8,19.8,237.8,17.8,237.7,16.2
		z"/>
	<path class="st0" d="M229.9,26l0.8-0.1l0.1-0.8c0.2-1.5,0.2-2.5,0.2-3.2v-0.4c0-1.4-0.7-1.7-1.1-1.8c-0.3-0.1-0.9-0.1-1.8-0.1
		c-0.4,0-1,0-1.8,0.1l-0.9,0.1v6.5h1C227.3,26.2,228.4,26.1,229.9,26z M226.5,20.6c0.7,0,1.3-0.1,1.7-0.1c0.8,0,1.3,0,1.6,0.1
		c0.2,0,0.3,0.3,0.3,0.9v0.4c0,0.6-0.1,1.7-0.2,3.1c-1.5,0.1-2.6,0.1-3.4,0.1V20.6z"/>
	<path class="st0" d="M234.5,29.4c0.1-2.7,0.2-6.1,0.2-10.4c0-1.9-1-2.9-3.1-3.1c-2.2,0-3.9,0.1-5.2,0.3l-0.1-0.7l-4.6,0.6
		c0.1,2.7,0.2,6.3,0.2,10.8v2.9C225.6,29.7,229.8,29.6,234.5,29.4z M225.4,16.6l0.1,0.8l1-0.2c1.3-0.2,3-0.3,5.1-0.3
		c1.5,0.1,2.1,0.7,2.1,2.1c0,3.8-0.1,6.9-0.2,9.4c-3.8,0.2-7.4,0.2-10.6,0.3v-1.9c0-4,0-7.3-0.1-9.9L225.4,16.6z"/>
</g>
</svg>
