<?xml version="1.0" encoding="utf-8"?>
<!-- Generator: Adobe Illustrator 27.9.1, SVG Export Plug-In . SVG Version: 6.00 Build 0)  -->
<svg version="1.1" id="Layer_1" xmlns:inkscape="http://www.inkscape.org/namespaces/inkscape"
	 xmlns="http://www.w3.org/2000/svg" xmlns:xlink="http://www.w3.org/1999/xlink" x="0px" y="0px" viewBox="0 0 106.7 31.8"
	 style="enable-background:new 0 0 106.7 31.8;" xml:space="preserve">
<style type="text/css">
	.st0{fill:#070707;}
</style>
<g>
	<path class="st0" d="M22.8,31.8l0-4.3c0-3.5-0.1-6.5-0.3-9.1l-5,0.1c0.1,1.1,0.1,2.4,0.1,3.9c0,2.4-0.1,5.6-0.3,9.5L22.8,31.8z
		 M18.6,19.5l3.1-0.1c0.1,2.4,0.2,5.1,0.2,8.1l0,3.3l-3.4,0c0.2-3.5,0.3-6.3,0.3-8.5C18.6,21.3,18.6,20.3,18.6,19.5z"/>
	<path class="st0" d="M16.1,19.9v-1.7l-4.7,0c0,4.6-0.9,8.7-2.6,12.2l5.3,1.5C15.4,28.8,16.1,24.8,16.1,19.9z M10.2,29.7
		c1.3-3.1,2.1-6.6,2.2-10.5l2.7,0v0.7c0,4.3-0.5,7.9-1.6,10.7L10.2,29.7z"/>
	<path class="st0" d="M0.8,28.6L6,31.8c1.8-3.2,3.3-7.4,4.4-12.8l-4.5-1.7C4.9,21.3,3.2,25.1,0.8,28.6z M9.3,19.6
		c-1,4.3-2.2,7.9-3.6,10.7l-3.4-2.1c1.9-3.1,3.4-6.3,4.4-9.7L9.3,19.6z"/>
	<path class="st0" d="M5.4,8.2l4.8-2.9C8.5,3,6.6,1.3,4.6,0.1L0.4,2.5C2.5,4.4,4.2,6.3,5.4,8.2z M4.6,1.3C6,2.2,7.4,3.5,8.7,5
		l-3,1.8C4.7,5.5,3.5,4.1,2,2.7L4.6,1.3z"/>
	<path class="st0" d="M10.3,7.5c1.8,0,3.2,0,4.1-0.1c-0.8,1.2-1.3,2.2-1.6,3.1c-0.4,1.2-0.7,2.2-0.7,3c0,1.7,0.7,2.7,2.2,3
		c0.9,0.2,2.1,0.3,3.4,0.3c3.1,0,6.1-0.2,8.8-0.6L27,18l5.5-1.8c-1.2-3.9-2.5-6.9-4.2-8.9l-4.5,1.3c0.6,0.9,1.1,1.9,1.5,2.9
		c-2.1,0.3-3.8,0.5-5.1,0.5c-0.8,0-1.4-0.1-1.8-0.2c-0.4-0.2-0.6-0.5-0.6-1.1c0-0.6,0.6-1.8,1.8-3.4c4.4-0.1,8.9-0.1,13.5-0.2L33,2
		c-2.8,0.1-5.7,0.1-8.5,0.2c-0.1-0.5-0.3-1.3-0.7-2.2l-5.4,0.8c0.3,0.8,0.4,1.3,0.4,1.5c-2.4,0.1-5.3,0.2-8.6,0.2L10.3,7.5z
		 M18.9,3.3l1.1-0.1l-0.1-1.1c0-0.1,0-0.3-0.1-0.6l3.5-0.5c0.2,0.5,0.3,0.9,0.4,1.3l0.2,0.8l0.8,0c2.5,0,5-0.1,7.5-0.2l0.2,3
		l-13,0.2l-0.3,0.4c-1.8,2.4-2,3.4-2,4c0,1,0.5,1.7,1.3,2c0.6,0.2,1.3,0.3,2.1,0.3c1.3,0,3.1-0.2,5.2-0.5l1.3-0.2l-0.5-1.2
		c-0.3-0.6-0.6-1.3-0.9-1.9L28,8.4c1.2,1.7,2.3,4.1,3.3,7.1l-3.6,1.1l-0.4-1.6l-0.9,0.1c-2.7,0.4-5.6,0.6-8.7,0.6
		c-1.2,0-2.3-0.1-3.1-0.3c-0.8-0.1-1.4-0.5-1.4-2c0-0.7,0.2-1.6,0.6-2.7l0-0.1l0-0.1C14,9.9,14.5,9,15.3,8l1.1-1.6l-2,0.1
		c-0.7,0-1.8,0-3.1,0.1l0-3C14.1,3.4,16.7,3.4,18.9,3.3z"/>
	<path class="st0" d="M5.1,17l4.6-2.9C8.1,11.8,6.3,10,4.3,8.5L0,11.3C2.1,13.2,3.8,15.1,5.1,17z M4.3,9.8c1.4,1.1,2.7,2.5,4,4.1
		l-2.9,1.8c-1-1.4-2.3-2.8-3.7-4.2L4.3,9.8z"/>
	<path class="st0" d="M29.2,24.8l-0.1-6.5l-4.4,0.2c-0.1,2.7-0.2,4.9-0.2,6.7c0,2.9,0.3,4.8,1,5.7c0.5,0.7,1.1,1,1.6,1s0.9,0,1.2,0
		c1,0,2.5-0.2,4.5-0.6l0.4-6.6c-1.7,0.7-2.8,1-3.3,1C29.5,25.6,29.2,25.3,29.2,24.8z M31.9,30.4c-1.5,0.3-2.7,0.4-3.5,0.4
		c-0.2,0-0.6,0-1.1,0c-0.2,0-0.6-0.2-0.9-0.7c-0.3-0.4-0.8-1.6-0.8-5.1c0-1.6,0.1-3.5,0.2-5.7l2.4-0.1l0.1,5.5
		c0,1.1,0.7,1.9,1.8,1.9c0.3,0,0.8-0.1,2.2-0.5L31.9,30.4z"/>
	<path class="st0" d="M60.8,11.6c0.1,0.2,0.2,0.7,0.2,1.5s-0.1,2.4-0.4,4.9c-0.2,2.5-0.4,4.2-0.4,5c0,2.1,0.6,3.7,1.7,4.7
		s2.9,1.5,5.3,1.5c0.9,0,1.9-0.1,3-0.3l0.4-5.7c-0.9,0.3-1.8,0.4-2.7,0.4s-1.4-0.1-1.7-0.4c-0.2-0.2-0.4-0.8-0.4-1.6
		s0.1-2.5,0.4-4.9c0.2-2.4,0.4-4.1,0.4-4.9c0-2.1-0.5-3.7-1.4-4.8c-1-1.1-2.3-1.7-4.1-1.7c-1.3,0-2.8,0.3-4.5,0.9
		C55,7,53.4,7.9,51.9,8.9c0.2-2.7,0.4-5.3,0.7-7.7l-6-0.3c-0.2,1.8-0.4,3.6-0.6,5.5c-1.6-0.6-3.2-1.2-4.8-1.6l-1.7,5.6
		c1.3,0.4,3.3,1.1,6.1,2.2c0,0.3,0,0.7,0,1c-2.4,3.5-4.6,6.9-6.7,10.2l4.3,3.7c0.7-1.4,1.4-2.7,2.2-4c0,2.5,0.1,4.9,0.2,7.1l6-0.3
		c-0.3-3.8-0.3-8.5-0.1-14.1c1.6-1.4,3.2-2.6,4.8-3.6c1.6-1,2.9-1.4,3.8-1.4C60.5,11.2,60.7,11.4,60.8,11.6z M55.8,11.8
		c-1.7,1-3.3,2.2-5,3.7l-0.3,0.3l0,0.4c-0.2,5.1-0.1,9.5,0.1,13.2l-4,0.2c-0.1-1.9-0.2-3.9-0.2-6v-3.8l-1.9,3.3
		c-0.5,1-1.1,1.9-1.6,3l-2.7-2.3c1.9-3.1,4-6.3,6.2-9.5l0.2-0.3v-0.3c0-0.3,0-0.6,0-1l0.1-0.7L46,11.7c-2.2-0.9-4-1.5-5.2-1.9
		L41.9,6c1.2,0.4,2.5,0.8,3.8,1.3l1.2,0.5l0.1-1.3c0.1-1.5,0.3-3,0.4-4.5l4,0.2c-0.2,2.1-0.5,4.4-0.6,6.7L50.7,11l1.7-1.3
		c1.4-1,3-1.9,4.6-2.5c1.6-0.6,3-0.9,4.2-0.9c1.5,0,2.6,0.4,3.3,1.3c0.8,0.9,1.2,2.3,1.2,4.1c0,0.8-0.1,2.4-0.3,4.8
		c-0.2,2.5-0.4,4.2-0.4,5c0,1.2,0.2,1.9,0.7,2.3c0.5,0.4,1.2,0.6,2.3,0.6c0.5,0,1,0,1.6-0.1l-0.3,3.6c-0.7,0.1-1.4,0.2-2.1,0.2
		c-2.1,0-3.7-0.4-4.6-1.3c-0.9-0.8-1.3-2.2-1.3-4c0-0.8,0.1-2.5,0.4-4.9c0.3-2.5,0.4-4.2,0.4-5c0-1-0.1-1.6-0.4-2
		c-0.2-0.3-0.6-0.8-1.6-0.8C59,10.2,57.6,10.8,55.8,11.8z"/>
	<path class="st0" d="M78,26.3l10-0.2c0,0.5,0,1-0.1,1.6C82.2,27.9,77.6,28,74,28l0.3,3.8c20.3-0.4,31.1-0.6,32.4-0.7l-0.3-3.7
		c-1.7,0-5.9,0.1-12.5,0.3V26c5.6,0,9-0.1,10.2-0.1l-0.5-3.9c-2.5,0-5.8,0.1-9.7,0.2l0-1.6c6.9-0.1,10.9-0.1,11.9-0.1l-0.5-3.8
		l-11.6,0.1c0-0.3,0-0.9,0-1.6c3.5,0,6.8-0.1,9.8-0.2c0.4-3.7,0.6-6.7,0.6-8.8c0-3.3-1.3-5.1-4-5.2c-4.7-0.1-8.3-0.1-10.8-0.1
		c-2.5,0-4.8,0.1-6.9,0.2l-0.2-0.8L77,1c0.3,3.6,0.5,7.2,0.5,10.9l0,3.4h0.2c-0.4,1.9-1.8,4-4.3,6.2l4.5,1.4L78,26.3z M78.4,16.3
		l2.9,0.4L80,18l2.5-0.1l6.6-0.1l-0.1-1c0-0.4,0-0.9-0.1-1.6l0-1l-1,0c-3.7,0-6.9,0-9.6,0l0-2.4c0-3.4-0.1-6.8-0.4-10.1l3.4-0.6
		L81.6,2l0.8,0c2.1-0.1,4.4-0.2,6.8-0.2c2.5,0,6.1,0,10.8,0.1c1.4,0.1,3,0.7,3,4.2c0,1.9-0.2,4.5-0.5,7.8c-2.8,0.1-5.8,0.1-8.9,0.2
		l-1,0v1c0,0.7,0,1.3,0,1.7l0.1,0.9l11.6-0.1l0.2,1.8c-1.8,0-5.4,0.1-10.8,0.1l-1,0l0.1,3.6l1,0c3.5-0.1,6.4-0.2,8.8-0.2l0.2,1.9
		c-1.7,0-4.7,0.1-9.1,0.1l-1,0v3.6l1,0c5.6-0.1,9.5-0.2,11.6-0.2l0.1,1.8c-3.3,0.1-13.5,0.3-30.4,0.6L75.1,29
		c3.4,0,7.7-0.1,12.9-0.3l0.9,0c0,0,0.1-2.1,0.1-2.6l0.1-1.1l-10.1,0.2l-0.1-1.8l1.2,0c2.5,0,5.2-0.1,8-0.1l1,0l0.1-3.6l-8.9,0.2
		L80,20.4c-0.3,0.6-0.5,1.1-0.8,1.5l-0.4,0.6l0-0.3l-3.5-1.2C76.9,19.4,77.9,17.9,78.4,16.3z M78.2,15.3c2.7,0,6,0,9.8,0
		c0,0.7,0,1.2,0.1,1.6l-5.6,0.1c0.1-0.1,0.3-0.5,0.4-1L78.2,15.3z M80.1,22.4c0.2-0.4,0.5-0.9,0.8-1.6c1.9,0,4.3-0.1,7.2-0.2l0,1.6
		C85.2,22.3,82.6,22.4,80.1,22.4z"/>
	<path class="st0" d="M99.4,12.2l0.4-3.8L81.5,8.6l0.1,3.8h1c2.5,0,7.9,0,15.9-0.1L99.4,12.2z M82.5,11.4l0-1.8l16.1-0.1l-0.2,1.8
		C90.4,11.3,85.1,11.4,82.5,11.4z"/>
	<path class="st0" d="M99.9,7l-0.2-1.2c-0.2-1.2-1.3-1.8-3.1-2c-1.4-0.2-3.5-0.2-6.2-0.2c-2.1,0-4.8,0.1-7.9,0.2l-1,0l0.1,3.4
		L99.9,7z M90.3,4.5c2.7,0,4.7,0.1,6.1,0.2s2.1,0.6,2.2,1.2L82.5,6.2l0-1.4C85.6,4.6,88.2,4.5,90.3,4.5z"/>
</g>
</svg>
