<?xml version="1.0" encoding="utf-8"?>
<!-- Generator: Adobe Illustrator 27.9.1, SVG Export Plug-In . SVG Version: 6.00 Build 0)  -->
<svg version="1.1" id="Layer_1" xmlns="http://www.w3.org/2000/svg" xmlns:xlink="http://www.w3.org/1999/xlink" x="0px" y="0px"
	 viewBox="0 0 772.4 65.3" style="enable-background:new 0 0 772.4 65.3;" xml:space="preserve">
<g>
	<path d="M0,32.9C0,15.2,14.9,0.3,32.5,0.3c8.1,0.1,15.4,3.3,21.9,9.7l-7.3,9.9c-4.3-4.2-9.4-6.7-14.8-6.7c-10,0-19.6,8.9-19.6,19.9
		c0,11.1,9.9,19.7,19.6,19.7c5.7,0,10.7-3.1,14.9-7.1l7.2,10.2c-5.5,5.5-12.2,9.6-21.7,9.6C14.7,65.3,0,50.4,0,32.9z"/>
	<path d="M109,1.6v62.5H96.4V39H74v25.1H61.4V1.6H74v25h22.5v-25H109z"/>
	<path d="M119.8,1.6h12.6v62.5h-12.6V1.6z"/>
	<path d="M140.5,32.9c0-17.6,14.9-32.6,32.5-32.6c8.1,0.1,15.4,3.3,21.9,9.7l-7.3,9.9c-4.3-4.2-9.4-6.7-14.8-6.7
		c-10,0-19.6,8.9-19.6,19.9c0,11.1,9.9,19.7,19.6,19.7c5.7,0,10.7-3.1,14.9-7.1l7.2,10.2c-5.5,5.5-12.2,9.6-21.7,9.6
		C155.2,65.3,140.5,50.4,140.5,32.9z"/>
	<path d="M240,55.4h-25l-4,8.7h-13.6L227.2,0h0.4l29.9,64.1h-13.6L240,55.4z M235.1,44.6l-7.6-16.7l-7.6,16.7H235.1z"/>
	<path d="M318,34.2c0,19.6-13.5,31.1-29.8,31.1c-18.4,0-32.9-14.6-32.9-32.4c0-17.9,14.6-32.6,32.5-32.6c8.1,0.1,16.8,3.8,22.9,9.8
		l-7,10.4c-4.9-4.8-10.5-7.5-16.1-7.5c-9.7,0-19.5,8.2-19.5,19.9c0,10.9,8.5,19.8,20.7,19.8c8.9,0,15.3-4.6,15.7-12.1h-16.2V29h29.4
		C317.9,30.8,318,32.5,318,34.2z"/>
	<path d="M323.5,32.9c0-18,14.6-32.6,32.5-32.6c17.9,0,32.5,14.7,32.5,32.6c0,17.8-14.7,32.4-32.6,32.4
		C338.1,65.3,323.5,50.7,323.5,32.9z M375.8,32.8c0-10.9-8.9-19.9-19.9-19.9c-10.9,0-19.8,8.9-19.8,19.9c0,10.9,8.9,19.7,19.8,19.7
		C366.9,52.6,375.8,43.7,375.8,32.8z"/>
	<path d="M434.3,31.6L416.5,1.6h14.4l10.7,18.9l10.7-18.9h14.4l-17.9,30l19,32.5h-14.4l-11.9-21l-11.8,21h-14.4L434.3,31.6z"/>
	<path d="M537,14h-15.4v50.1H509V14h-15.4V1.6H537V14z"/>
	<path d="M538.2,32.9c0-18,14.6-32.6,32.5-32.6c17.9,0,32.5,14.7,32.5,32.6c0,17.8-14.7,32.4-32.6,32.4
		C552.8,65.3,538.2,50.7,538.2,32.9z M590.5,32.8c0-10.9-8.9-19.9-19.9-19.9c-10.9,0-19.8,8.9-19.8,19.9c0,10.9,8.9,19.7,19.8,19.7
		C581.6,52.6,590.5,43.7,590.5,32.8z"/>
	<path d="M643,64.1l-19-27.4v27.4h-12.5V1.6H624v27l17.6-27H656L636,32.2l22.3,31.9H643z"/>
	<path d="M679,37.2L659.6,1.6h14.2l11.4,21.7l11.4-21.7h14.2l-19.4,35.7v26.8H679V37.2z"/>
	<path d="M707.4,32.9c0-18,14.6-32.6,32.5-32.6c17.9,0,32.5,14.7,32.5,32.6c0,17.8-14.7,32.4-32.6,32.4
		C722,65.3,707.4,50.7,707.4,32.9z M759.7,32.8c0-10.9-8.9-19.9-19.9-19.9c-10.9,0-19.8,8.9-19.8,19.9c0,10.9,8.9,19.7,19.8,19.7
		C750.8,52.6,759.7,43.7,759.7,32.8z"/>
</g>
</svg>
