<?xml version="1.0" encoding="utf-8"?>
<!-- Generator: Adobe Illustrator 27.9.1, SVG Export Plug-In . SVG Version: 6.00 Build 0)  -->
<svg version="1.1" id="Layer_1" xmlns:inkscape="http://www.inkscape.org/namespaces/inkscape"
	 xmlns="http://www.w3.org/2000/svg" xmlns:xlink="http://www.w3.org/1999/xlink" x="0px" y="0px" viewBox="0 0 71.1 32.1"
	 style="enable-background:new 0 0 71.1 32.1;" xml:space="preserve">
<style type="text/css">
	.st0{fill:#070707;}
</style>
<g>
	<path class="st0" d="M33.8,14.2l-0.2-4.9c-2.5,0-5,0.1-7.5,0.2c0-0.4,0-0.8,0-1.2l0-1.2l5.9-0.3L31.8,2c-2,0-3.9,0.1-5.7,0.2
		c0-0.7,0-1.4-0.1-2.2l-5.2,0.1c0,0.8,0.1,1.5,0.1,2.2c-1.6,0.1-3.5,0.2-5.7,0.3l0.1,4.9c2,0,3.8-0.1,5.6-0.3c0,0.9-0.1,1.7-0.1,2.4
		l-7,0.2v4.9l10.1-0.3c0,1.3,0,2,0,2.3h-0.7c-4.1,0.1-7,0.2-8.7,0.3l0,4.8l2.2,0L14.5,23c1.3,1.5,2.3,3.2,3,5l4.1-2.6
		c-0.5-1.3-1.4-2.5-2.5-3.7l4.8-0.2c0,3-0.1,4.6-0.2,4.8s-0.2,0.3-0.4,0.3c-0.1,0-0.3,0-0.6,0c-0.3,0-1-0.1-1.9-0.4l0.4,5.5
		c1.9,0.1,3.2,0.2,4,0.2c1.1,0,2-0.3,2.6-0.9c0.6-0.5,1-1.5,1.1-2.8c0.1-1.3,0.1-2.5,0.1-3.5l0-3.3c2.7,0,4.3,0,4.8-0.1l-0.2-4.9
		l-4.6,0.1v-2.3C31.7,14.3,33.4,14.3,33.8,14.2z"/>
	<path class="st0" d="M10.7,16.7v-4.5l2.4-0.1l-0.3-5.5l-2.2,0.1l0-6.5L6,0.4l0,6.3H4.9C5,5.4,5.1,3.5,5.1,1L1,0.8
		C1,5.6,0.7,10.1,0,14.3l4.2,0.8c0.2-1,0.3-2,0.4-3l1.3,0c0,1.9,0,3.7,0,5.4c-2.4,0.5-4.4,0.9-6,1.2l0.9,5.5c1.3-0.3,3-0.6,5.1-1.1
		c0,3.9,0,6.7,0,8.5l4.8,0.3V22l3.1-0.9L13.4,16L10.7,16.7z"/>
	<path class="st0" d="M65.2,0.7c0.5,7.8,0.7,14.7,0.7,20.7l0,3.2c0,1.2-0.6,1.8-1.8,1.8c-2,0-3.5-0.1-4.5-0.3l0.3,5.4
		c1.3,0.2,2.6,0.3,3.7,0.3c3.4,0,5.5-0.6,6.5-1.9c0.6-0.8,1-1.8,1-3.2s0.1-2.9,0.1-4.7c0-4-0.2-11.1-0.5-21.6L65.2,0.7z"/>
	<path class="st0" d="M63.5,21.9v-2.7c0-6.1-0.1-10.7-0.2-14l-4.8,0.2c0.1,1.1,0.1,2.5,0.1,4.2c0,4.1-0.1,8.1-0.3,12.1L63.5,21.9z"
		/>
	<path class="st0" d="M56.4,18.3c-0.5-0.6-1.2-0.9-2.2-0.9c-0.3,0-0.9,0-1.6,0c-1.2,0-3.3,0-6.2,0.1c0.1-0.8,0.2-1.7,0.3-2.7
		c2.8-0.1,6.1-0.2,9.9-0.3C56.9,11,57,7.6,57,4.3c-0.2-2.4-1.4-3.5-3.6-3.5c-5.5,0-9.2,0.1-11.2,0.3L42,0.2L37.3,1
		c0.2,3.5,0.3,8.2,0.3,14.2c1.2-0.1,2.6-0.1,4.3-0.2v0.7c0,2.4-0.3,4.5-0.9,6.6c-0.8,2.6-2.1,4.8-3.9,6.4l4,3.5
		c2.7-2.9,4.3-6.3,4.8-10.1c2.9-0.2,4.6-0.3,4.9-0.3c0.7,0,1,0.5,1,1.4v2.4c0,0.6-0.4,1-1.1,1c-0.8,0-1.7-0.1-2.8-0.3l0.5,5.1
		c2.2,0.2,3.7,0.3,4.5,0.3c2.5,0,3.8-1.5,3.9-4.5c0-2.1,0.1-3.9,0.1-5.4c0-0.1,0-0.6,0-1.3S56.8,18.8,56.4,18.3z M42.2,10.5V5.6
		c4.2-0.2,7.1-0.3,8.7-0.3c0.8,0,1.2,0.3,1.2,0.9c0,1.1,0,2.4-0.1,3.7C47.2,10.3,43.9,10.5,42.2,10.5z"/>
</g>
</svg>
