<?xml version="1.0" encoding="utf-8"?>
<!-- Generator: Adobe Illustrator 27.9.1, SVG Export Plug-In . SVG Version: 6.00 Build 0)  -->
<svg version="1.1" id="Layer_1" xmlns:inkscape="http://www.inkscape.org/namespaces/inkscape"
	 xmlns="http://www.w3.org/2000/svg" xmlns:xlink="http://www.w3.org/1999/xlink" x="0px" y="0px" viewBox="0 0 71.1 31.7"
	 style="enable-background:new 0 0 71.1 31.7;" xml:space="preserve">
<style type="text/css">
	.st0{fill:#070707;}
</style>
<g>
	<path class="st0" d="M34.3,21.2L30.7,18c-0.7,0.9-1.5,1.7-2.3,2.4c-0.7-0.7-1.3-1.4-1.9-2l-4.1,2.2c1,1.3,2,2.7,3,4.1
		c-1.1,0.8-2.1,1.2-2.8,1.2c-0.6,0-1-0.4-1-1.2c-0.1-1.2-0.2-3.3-0.2-6.3c3.9-0.1,7.9-0.3,12.2-0.7c0.3-2.7,0.4-5.8,0.4-9.2
		c0-2.2-0.1-3.8-0.3-4.6s-0.6-1.5-1.3-2.1c-0.7-0.5-1.7-0.8-3.2-0.8c-1.5,0-4.1,0-7.9,0.1V0.4L17,0.9C17,3,17,5.1,16.9,7
		C15,5.2,13,3.4,11,1.6c0.1-0.3,0.2-0.6,0.3-0.9L7,0C6.3,2.2,5.5,4,4.3,5.6s-2.6,3.2-4.3,5l3.6,3c0.4-0.4,0.9-0.9,1.3-1.4v1.1h1.7
		V15c-2.1,0.1-3.8,0.1-5.2,0.2l0,4.3c1.3,0,3,0,5.2-0.1v6.8c-2.1,0.2-4.2,0.4-6.2,0.6l0.9,4.5c2.9-0.3,5.4-0.5,7.5-0.7
		s4.6-0.6,7.3-1.2l0.3-4.8c-0.5,0.1-1,0.2-1.5,0.3c0.4-1.6,0.8-2.9,0.9-4L12.1,20c0,1-0.4,2.8-1.2,5.6v-6.3c2.5-0.1,4.1-0.1,4.8-0.2
		l-0.2-4.4c-1.3,0-2.8,0.1-4.6,0.2v-1.7c1.5,0,2.5-0.1,2.9-0.1l-0.1-2.6c0.3,0.3,0.6,0.7,0.9,1.1l2.3-2.3
		c-0.1,7.2-0.1,12.5-0.1,15.9v2.2c0,1.4,0.3,2.5,0.8,3.1s1.1,1,1.8,1.1c0.7,0.1,1.3,0.2,1.7,0.2c0.5,0,1.2-0.1,2.3-0.4
		c1-0.2,1.9-0.6,2.8-1.2l-0.6-5.3c1.5,2.2,2.8,4.5,4,6.9l4.9-2.4c-0.9-1.7-2-3.3-3.4-4.8C32.1,23.6,33.2,22.4,34.3,21.2z M21.4,5.6
		c3.8-0.2,5.9-0.3,6.2-0.3c0.8,0,1.3,0.1,1.6,0.4s0.4,0.8,0.4,1.7l-8.2,0.3V5.6z M21.4,11.6c2.5-0.1,5.2-0.2,8.1-0.4l-0.2,2.4
		c-1.4,0.1-3,0.1-4.8,0.1h-3V11.6z M9.3,8.9C8.6,9,7.9,9,7.3,9c0.4-0.6,0.8-1.3,1.2-1.9C8.7,6.6,9,6.2,9.2,5.7
		c1.1,1,2.1,2.1,3.1,3.1C11.4,8.9,10.4,8.9,9.3,8.9z"/>
	<path class="st0" d="M5.1,20.5l-3.5,1.1c0.6,1.6,1,3.2,1.4,4.7l3.6-1.6C6.2,23.5,5.8,22,5.1,20.5z"/>
	<path class="st0" d="M42.9,16.5l4.9-2.8C46,11.5,44.1,9.8,42,8.4l-4.5,2.6C39.8,12.9,41.5,14.7,42.9,16.5z"/>
	<path class="st0" d="M38.4,28.6l5.5,3c1.9-3.1,3.5-7.5,4.7-13.2l-4.8-1.6C42.7,21.2,40.9,25.2,38.4,28.6z"/>
	<path class="st0" d="M42.8,0.4l-4.5,2.2c2.2,1.9,4,3.7,5.3,5.5l4.9-2.7C46.8,3.1,44.9,1.5,42.8,0.4z"/>
	<path class="st0" d="M60.9,22.4c0.2-3.2,0.3-5.9,0.3-7.9c0-3.5-1.1-5.3-3.2-5.6c-2.4-0.1-5.1,0.1-8.1,0.7c0,2.5,0.1,5.8,0.1,9.8
		v3.2C53.2,22.6,56.9,22.5,60.9,22.4z M54.2,13.3c0.6-0.1,1-0.2,1.3-0.2c0.4,0,0.7,0,0.8,0.1c0.3,0.1,0.4,0.6,0.4,1.6l0,0.4
		c0,1.4-0.1,2.4-0.2,3.1c-1.6,0-2.4,0-2.4,0C54.2,16.1,54.2,14.5,54.2,13.3z"/>
	<path class="st0" d="M70.8,0.6c-2.3,0-5.9,0.1-10.8,0.3C55,1,51.4,1.1,49,1l0.1,5.4c2.1,0,6.1-0.1,12.2-0.2l1.9,0
		c0,6.3,0,12,0.1,17c0,0.8-0.1,1.3-0.3,1.6c-0.2,0.3-0.4,0.4-0.7,0.5c-0.3,0.1-0.5,0.1-0.8,0.1c-0.5,0-1.4-0.2-2.8-0.4l0.4,6
		c2,0.2,3.5,0.3,4.4,0.3c1.7,0,2.9-0.3,3.6-1c0.5-0.5,0.8-1,1-1.5c0.3-1.2,0.5-3.5,0.5-6.8c0-2.9-0.1-8.2-0.2-15.9
		c1.1,0,2-0.1,2.7-0.1L70.8,0.6z"/>
</g>
</svg>
