<?xml version="1.0" encoding="utf-8"?>
<!-- Generator: Adobe Illustrator 27.9.1, SVG Export Plug-In . SVG Version: 6.00 Build 0)  -->
<svg version="1.1" id="Layer_1" xmlns="http://www.w3.org/2000/svg" xmlns:xlink="http://www.w3.org/1999/xlink" x="0px" y="0px"
	 viewBox="0 0 147.1 35.5" style="enable-background:new 0 0 147.1 35.5;" xml:space="preserve">
<style type="text/css">
	.st0{fill:#282828;}
</style>
<g>
	<path class="st0" d="M128.2,0h4.2v6.1h-4.2V0z M21,0h4v13.9h-4V0z M91,2c-0.1,0.5-0.3,1.1-0.4,1.8c-0.2,0.7-0.3,1.2-0.3,1.7
		c-0.2,0.9-0.4,1.9-0.6,3.2c-0.3,1.2-0.5,2.5-0.9,3.9c-0.3,1.4-0.6,2.7-1,4c-0.3,1.3-0.7,2.8-1.2,4.4c-0.5,1.6-1,3.2-1.5,4.8
		c-0.5,1.6-1.1,3.1-1.7,4.6c-0.6,1.5-1.1,2.7-1.6,3.9l-4.8-1.6c0.6-1,1.2-2.1,1.8-3.5c0.6-1.4,1.2-2.9,1.8-4.5
		c0.6-1.6,1.1-3.2,1.7-4.7c0.5-1.6,0.9-3,1.3-4.3c0.3-0.9,0.5-1.8,0.7-2.8c0.2-0.9,0.4-1.9,0.6-2.8c0.2-0.9,0.4-1.7,0.5-2.5
		c0.1-0.8,0.2-1.5,0.3-2c0.1-0.7,0.1-1.3,0.2-2c0-0.7,0-1.2,0-1.7L91,2z M45.9,4.8c0-0.5,0-1,0-1.6c0-0.5-0.1-1.1-0.2-1.7l5,0.2
		c-0.1,0.6-0.3,1.4-0.4,2.5C50.2,5.3,50,6.6,49.9,8c-0.2,1.4-0.3,2.9-0.4,4.5c-0.1,1.6-0.3,3.1-0.3,4.7c-0.1,1.6-0.1,3-0.1,4.4
		c0,1.1,0,2.1,0,3.2c0,1.1,0,2.1,0.1,3.2c0,1.1,0.1,2.2,0.1,3.3c0,0.3,0.1,0.8,0.1,1.3c0.1,0.5,0.1,1,0.2,1.4h-4.7
		c0.1-0.4,0.1-0.9,0.1-1.4c0-0.5,0-0.9,0-1.2c0-1.2,0-2.3,0.1-3.4c0-1,0-2.1,0.1-3.2c0-1.1,0.1-2.5,0.1-4c0-0.6,0.1-1.3,0.1-2.3
		c0.1-0.9,0.1-1.9,0.2-3c0.1-1.1,0.1-2.2,0.2-3.4c0.1-1.1,0.2-2.2,0.2-3.2c0.1-1,0.1-1.9,0.2-2.6S45.9,5,45.9,4.8z M2.6,2.7h7.8
		v25.6H2.6v-3.6H7V6.3H2.6V2.7z M0,2.7h3.3v28.7H0V2.7z M13,2.9h20.2v2.9H13V2.9z M114.2,3.6h32.5v7.6h-4.2V7.3h-24.3v4.6h-4V3.6z
		 M81.7,7.8c1.5,0,3.1-0.1,4.8-0.2c1.7-0.1,3.3-0.4,5.1-0.6c1.7-0.3,3.4-0.6,5-1v4.3c-1.6,0.4-3.2,0.7-5,0.9
		c-1.8,0.3-3.5,0.5-5.2,0.6c-1.7,0.1-3.3,0.2-4.7,0.2c-0.9,0-1.7,0-2.4-0.1c-0.7,0-1.4-0.1-2.1-0.1L77,7.6c1,0.1,1.8,0.2,2.5,0.2
		C80.2,7.8,81,7.8,81.7,7.8z M132.4,6.8h4.1v7c0,0.5,0.1,0.8,0.3,1c0.2,0.1,0.6,0.2,1.2,0.2c0.2,0,0.4,0,0.7,0c0.3,0,0.7,0,1.1,0
		s0.8,0,1.2,0c0.4,0,0.6,0,0.8,0c0.4,0,0.6-0.1,0.8-0.2c0.2-0.1,0.3-0.4,0.4-0.8c0.1-0.4,0.1-1,0.2-1.8c0.3,0.2,0.6,0.4,1,0.6
		c0.4,0.2,0.8,0.3,1.3,0.5c0.5,0.2,0.9,0.3,1.2,0.3c-0.1,1.3-0.4,2.3-0.7,3c-0.3,0.7-0.8,1.2-1.4,1.5c-0.6,0.3-1.4,0.4-2.4,0.4
		c-0.2,0-0.6,0-1,0c-0.4,0-0.9,0-1.4,0c-0.5,0-1,0-1.4,0c-0.4,0-0.8,0-1,0c-1.3,0-2.4-0.1-3.1-0.4c-0.7-0.3-1.2-0.8-1.5-1.4
		c-0.3-0.7-0.4-1.6-0.4-2.8V6.8z M124.1,6.9h4.2c-0.2,1.7-0.5,3.2-0.9,4.6c-0.4,1.4-1.1,2.6-1.9,3.6c-0.9,1.1-2.1,2-3.6,2.8
		c-1.5,0.8-3.5,1.4-6,2c-0.1-0.3-0.3-0.7-0.5-1.1c-0.2-0.4-0.5-0.9-0.8-1.3c-0.3-0.4-0.6-0.8-0.9-1c2.2-0.4,3.9-0.8,5.2-1.4
		c1.3-0.6,2.3-1.2,3-2c0.7-0.8,1.2-1.7,1.5-2.7C123.7,9.3,123.9,8.1,124.1,6.9z M72.4,29.9c-0.9,0.9-2,1.6-3.1,2.1
		c-1.2,0.5-2.5,0.8-4,0.8c-1.4,0-2.5-0.5-3.3-1.4c-0.8-0.9-1.3-2.3-1.3-4.1c0-1,0.1-2.2,0.2-3.3c0.1-1.2,0.3-2.4,0.5-3.6
		c0.2-1.2,0.3-2.4,0.5-3.5c0.1-1.1,0.2-2.1,0.2-3c0-1-0.2-1.7-0.7-2.2c-0.5-0.5-1.1-0.7-2-0.7c-0.9,0-1.9,0.3-3,0.9
		c-1.1,0.6-2.2,1.4-3.3,2.3c-1.1,0.9-2.2,2-3.3,3c-1.1,1.1-2,2.1-2.8,3.1v-5.2c0.5-0.5,1.1-1.1,1.8-1.8c0.7-0.7,1.6-1.4,2.5-2.1
		c0.9-0.7,1.9-1.4,3-2.1c1.1-0.6,2.1-1.2,3.2-1.6C58.6,7.2,59.6,7,60.6,7c1.3,0,2.4,0.2,3.2,0.7c0.8,0.5,1.5,1.1,1.9,1.9
		c0.4,0.8,0.6,1.8,0.6,2.8c0,1-0.1,2-0.2,3.2c-0.1,1.2-0.3,2.4-0.5,3.6c-0.2,1.2-0.3,2.4-0.5,3.6c-0.1,1.2-0.2,2.2-0.2,3.2
		c0,0.5,0.1,1,0.4,1.3c0.3,0.4,0.7,0.6,1.2,0.6c0.8,0,1.6-0.2,2.5-0.7c0.9-0.5,1.8-1.2,2.7-2.1L72.4,29.9z M46.4,11.8
		c-0.4,0.1-0.9,0.1-1.5,0.2c-0.6,0.1-1.3,0.2-2.1,0.3c-0.7,0.1-1.5,0.2-2.2,0.3c-0.8,0.1-1.5,0.2-2.1,0.3L38,8.5c0.5,0,1,0,1.5,0
		c0.5,0,1,0,1.6-0.1c0.6,0,1.3-0.1,2.1-0.2C44,8.1,44.9,8,45.7,7.9s1.7-0.2,2.5-0.4c0.8-0.2,1.3-0.3,1.7-0.5l1.4,1.8
		c-0.2,0.3-0.5,0.7-0.8,1.1c-0.3,0.5-0.6,0.9-0.9,1.4c-0.3,0.5-0.6,0.9-0.8,1.2L47,19.2c-0.4,0.6-1,1.4-1.6,2.3
		c-0.6,0.9-1.2,1.8-1.9,2.8c-0.7,1-1.3,2-2,2.9c-0.7,0.9-1.3,1.8-1.8,2.5L37.1,26c0.5-0.6,1-1.3,1.7-2.1c0.6-0.8,1.3-1.7,2-2.6
		c0.7-0.9,1.4-1.8,2-2.8c0.7-0.9,1.3-1.8,1.8-2.6c0.6-0.8,1-1.5,1.4-2.1l0.1-1.3L46.4,11.8z M13.9,7.6h18.5v2.8H13.9V7.6z M12,12.2
		H34v3H12V12.2z M93.7,13.5c1.1-0.1,2.2-0.2,3.5-0.2c1.3-0.1,2.5-0.1,3.7-0.1c1.1,0,2.2,0,3.3,0.1c1.1,0,2.2,0.1,3.3,0.2l-0.1,4.1
		c-1-0.1-2-0.2-3.1-0.3c-1.1-0.1-2.2-0.1-3.4-0.1c-1.3,0-2.5,0-3.7,0.1c-1.2,0.1-2.4,0.2-3.6,0.3V13.5z M2.3,13.6h5.9v3.5H2.3V13.6z
		 M28.2,17H32v14.7c0,0.9-0.1,1.6-0.3,2.1c-0.2,0.5-0.6,0.9-1.2,1.2c-0.6,0.3-1.3,0.4-2.2,0.5c-0.9,0.1-1.9,0.1-3.2,0.1
		c-0.1-0.5-0.2-1-0.4-1.6c-0.2-0.6-0.4-1.2-0.6-1.6c0.8,0,1.5,0,2.2,0.1c0.7,0,1.1,0,1.4,0c0.3,0,0.4,0,0.5-0.1
		c0.1-0.1,0.1-0.2,0.1-0.4V17z M14.3,17h15.2V20H18.1v15.5h-3.8V17z M117.7,20.8h26.2v3.6h-26.2V20.8z M16.5,22h13.6v2.7H16.5V22z
		 M128.2,22.4h4.2v10.3h-4.2V22.4z M95.4,23c-0.2,0.6-0.3,1.1-0.4,1.7c-0.1,0.6-0.2,1.1-0.2,1.5c0,0.4,0.1,0.8,0.2,1.2
		c0.2,0.4,0.4,0.7,0.9,1c0.4,0.3,1,0.5,1.7,0.7c0.7,0.2,1.6,0.2,2.8,0.2c1.3,0,2.5-0.1,3.8-0.2c1.3-0.1,2.6-0.3,3.9-0.6l-0.2,4.4
		c-1.1,0.1-2.2,0.2-3.5,0.4c-1.3,0.1-2.6,0.2-4.1,0.2c-3.1,0-5.5-0.5-7.2-1.5c-1.7-1-2.5-2.5-2.5-4.4c0-0.8,0.1-1.7,0.2-2.5
		c0.1-0.8,0.3-1.6,0.4-2.4L95.4,23z M16.5,26.9h13.6v2.7H16.5V26.9z M113.7,30.7h33.4v3.7h-33.4V30.7z"/>
</g>
</svg>
