<?xml version="1.0" encoding="utf-8"?>
<!-- Generator: Adobe Illustrator 27.9.1, SVG Export Plug-In . SVG Version: 6.00 Build 0)  -->
<svg version="1.1" id="Layer_1" xmlns:inkscape="http://www.inkscape.org/namespaces/inkscape"
	 xmlns="http://www.w3.org/2000/svg" xmlns:xlink="http://www.w3.org/1999/xlink" x="0px" y="0px" viewBox="0 0 177 31.8"
	 style="enable-background:new 0 0 177 31.8;" xml:space="preserve">
<style type="text/css">
	.st0{fill:#070707;}
</style>
<g>
	<path class="st0" d="M18,10.7l4.8-3c-2-3.4-4.3-5.9-6.9-7.6l-4.8,2.5C14.2,5.3,16.5,8,18,10.7z"/>
	<path class="st0" d="M26.5,10.9l-4.8,2.5c2.5,2.7,4.7,6.1,6.4,10l5.2-3C31.5,16.3,29.2,13.1,26.5,10.9z"/>
	<path class="st0" d="M16.6,25.8c-1.4,0.1-2-0.5-2-1.8c-0.1-9.2-0.1-14.3-0.1-15.5L8.8,9c0.1,10.2,0.2,16.1,0.4,17.7
		c0.3,3.1,2.2,4.7,5.8,4.9c4.3,0,8.4-0.7,12.2-1.9l0-6.1C23.4,24.9,19.9,25.6,16.6,25.8z"/>
	<path class="st0" d="M1.9,10.9c0,4.3-0.6,8.5-1.9,12.7l5.3,2.5C6.6,21,7.1,16,6.9,11.2L1.9,10.9z"/>
	<path class="st0" d="M54.5,2.4c-3.1,0-5.9,0.6-8.3,1.9s-4.3,3.1-5.6,5.5c-1.3,2.4-2,5.1-2,8.1c0,3.2,0.7,5.8,2.2,7.6
		c1.5,1.8,3.5,2.8,6.1,2.8c2.2,0,4-0.7,5.5-2.2c1.4-1.4,2.6-3.5,3.8-6.3c1.1-2.8,2.1-6.2,2.8-10.2l-5-1.7c2.8,0,5.2,0.8,7,2.5
		c1.8,1.6,2.7,3.8,2.7,6.4c0,1.8-0.5,3.6-1.4,5.5c-1,1.8-2.3,3.5-4.1,5l5.8,3.5c1.9-1.9,3.4-4,4.4-6.3c1-2.3,1.5-4.8,1.5-7.3
		c0-4.4-1.4-7.9-4.3-10.6C62.9,3.8,59.1,2.4,54.5,2.4z M49.8,18.4c-1,2.2-2.1,3.4-3.2,3.4c-0.7,0-1.2-0.4-1.6-1.2
		c-0.4-0.8-0.6-1.9-0.6-3.2c0-2.7,0.8-4.9,2.3-6.5c1.5-1.7,3.6-2.7,6.3-2.9C51.9,12.7,50.8,16.2,49.8,18.4z"/>
	<path class="st0" d="M103,25.3c-0.1,0.1-0.3,0.2-0.4,0.3c-0.1,0-0.2,0.1-0.3,0.1c-0.4,0-0.8-0.2-1.1-0.7c-0.3-0.5-0.6-1-0.9-1.5
		c-0.3-0.5-0.5-1.3-0.7-2.2c2.3,0,4.6-0.2,6.7-0.4l-0.4-4.7c-2.7,0.1-5,0.2-7,0.3c-0.1-0.7-0.2-1.6-0.4-2.6c3.5-0.3,5.9-0.7,7.2-1.3
		l-1.4-4.2c-4,0.8-9.7,1.2-17,1.4V8.6l-4.7,0.4c-0.1,4.8-0.2,8.8-0.2,11.9c0,2.6,0,4.9,0.1,7.1c0.1,2.2,1.1,3.4,2.9,3.5h0.8
		c1.9-0.3,3.4-0.9,4.5-1.9l-0.3-2.9c0.5,1.4,1,2.8,1.4,4.3l4.6-1.7c-0.8-2.7-1.9-4.9-3.3-6.8l-4,1.4l0.5,1c-0.9,0.7-1.5,1-1.8,1
		c-0.4,0-0.6-0.2-0.6-0.7l0-3.6c1.8,0,4.2-0.1,7.2-0.2c0.9,3.4,2,6,3.3,7.8c1.3,1.7,2.9,2.6,4.7,2.6c2.1-0.2,3.4-1.5,4-4l-2.7-4.4
		C103.3,24.5,103.1,25.2,103,25.3z M87.2,16.8l0-2.4c1.4,0,3.6-0.1,6.6-0.2c0,0.6,0.1,1.5,0.1,2.4C91,16.7,88.8,16.8,87.2,16.8z"/>
	<path class="st0" d="M95.5,2c-0.2-0.6-0.6-1.2-1.3-1.9l-5.4,0.6c0.3,0.5,0.6,1.1,0.9,1.6c-3.5,0.1-6.4,0.2-8.8,0.2V2.4l0-1
		l-5.3,0.1c0,1.9,0,3.5,0,4.8c0,10.9-0.8,18.9-2.5,24.2l6,1.2c1-3.7,1.5-11.7,1.7-24c3.6-0.1,7.4-0.2,11.6-0.4
		c8.3-0.2,13.1-0.4,14.4-0.5l-0.4-5.2C103.9,1.7,100.2,1.8,95.5,2z"/>
	<path class="st0" d="M137.7,2.6L132,5.2c1.2,1.5,2.4,3.5,3.7,6c1.3,2.5,2.4,4.9,3.2,7.2l5.6-2.6c-0.8-2.1-1.9-4.4-3.2-6.9
		C140,6.3,138.8,4.3,137.7,2.6z"/>
	<path class="st0" d="M127,7.3c0.6-1.8,1.2-3.4,1.7-4.8l-5.6-1.6c-0.7,2.1-1.5,4.3-2.4,6.8c-2.5,0.2-5.2,0.6-8.1,1.1l1.1,5.8
		c1.6-0.3,3.2-0.6,4.8-0.8c-2.3,6.5-4.1,11.5-5.3,15l5.8,1.8c1.5-4.6,3.5-10.5,6-17.5c0.7,0,1.6,0,2.5,0c1,0,1.6,0.2,1.9,0.5
		c0.3,0.3,0.4,1.1,0.4,2.5c0,2.8-0.3,5-0.8,6.6c-0.6,1.6-1.3,2.4-2.3,2.4c-0.7,0-1.6-0.3-2.7-1l-1.7,5.8c3.2,1.4,5.9,1.6,7.9,0.7
		c0.9-0.4,1.6-1,2.1-1.6s1-1.4,1.5-2.3c1.2-2.5,1.8-5.6,1.8-9.3s-0.6-6.2-1.9-7.7S130.2,7.4,127,7.3z"/>
	<path class="st0" d="M174.2,14.6c-1.9-1.7-4.3-2.5-7.3-2.5c-1.8,0-3.5,0.3-5.1,0.9c-1.6,0.6-2.9,1.4-3.9,2.4
		c0.2-2.4,0.5-4.8,0.9-7.1l-6-0.8c-0.9,6-1.5,11.4-1.7,16.3l5.8,0.4c1.1-2,2.5-3.6,4.2-4.7c1.8-1.2,3.6-1.7,5.4-1.7
		c1.2,0,2.2,0.3,2.9,0.8c0.7,0.5,1.1,1.3,1.1,2.2c0,1-0.6,2.1-1.7,3.4c-1.1,1.3-2.5,2.4-4.3,3.5l5.6,3.9c4.6-3,6.8-6.5,6.8-10.5
		C177,18.4,176,16.3,174.2,14.6z"/>
	<path class="st0" d="M170.7,3.8c-4.7-0.7-9-1.8-12.8-3.5l-2.1,5.3c3.9,1.7,8.4,2.9,13.5,3.7L170.7,3.8z"/>
</g>
</svg>
