<?xml version="1.0" encoding="utf-8"?>
<!-- Generator: Adobe Illustrator 27.9.1, SVG Export Plug-In . SVG Version: 6.00 Build 0)  -->
<svg version="1.1" id="Layer_1" xmlns:inkscape="http://www.inkscape.org/namespaces/inkscape"
	 xmlns="http://www.w3.org/2000/svg" xmlns:xlink="http://www.w3.org/1999/xlink" x="0px" y="0px" viewBox="0 0 107.6 31.7"
	 style="enable-background:new 0 0 107.6 31.7;" xml:space="preserve">
<style type="text/css">
	.st0{fill:#070707;}
</style>
<g>
	<path class="st0" d="M25.8,22.5c1.3,2.4,2.4,5.2,3.2,8.3l5.3-2.1c-1.1-3.2-2.4-5.9-3.8-8L25.8,22.5z M29.6,29.4
		c-0.7-2.3-1.5-4.4-2.4-6.4l2.8-1.1c1,1.7,2,3.8,2.9,6.2L29.6,29.4z"/>
	<path class="st0" d="M14.3,21.6H9.4l-0.1,3.1c0,2.2,0.3,3.8,1,4.8c0.7,1.1,1.8,1.8,3.2,1.9s2.6,0.3,3.7,0.3c1,0,2.1,0,3.2-0.1
		c2.3-0.2,4.1-0.7,5.4-1.2l-0.1-5c-2.8,0.9-4.9,1.3-6.1,1.4c-1.2,0.1-2,0.1-2.5,0.1c-0.9,0-1.6-0.1-2-0.3c-0.3-0.1-0.5-0.6-0.7-1.4
		C14.4,24,14.3,22.8,14.3,21.6z M17.2,27.7c0.5,0,1.3,0,2.5-0.1c1.1-0.1,2.8-0.4,5-1.1l0,3c-1.2,0.4-2.7,0.7-4.5,0.9
		c-1.1,0.1-2.1,0.1-3.1,0.1c-1,0-2.2-0.1-3.6-0.3c-1.1-0.1-1.9-0.6-2.5-1.5c-0.4-0.5-0.8-1.7-0.8-4.2l0.1-2.1h3
		c0,0.9,0.1,1.7,0.2,2.5c0.1,0.8,0.4,1.8,1.2,2.2C15.3,27.6,16.1,27.7,17.2,27.7z"/>
	<path class="st0" d="M5.8,16.4l-0.2,3.8l5.5,0.3l0.1-6.3c0.8,0.5,1.3,0.9,1.7,1.1l2.6-3.5c-1.7-1-3.1-1.7-4.3-2.2V8.6l3.6-0.1
		L14.5,4L11.1,4l-0.1-4L5.9,0.3C6,2.2,6,3.5,6,4.2c-1.7,0-3,0-4,0H1.2l0.1,4.6l4.3-0.1c-1,2.1-2.8,4.3-5.6,6.5l4.2,2.9
		C4.4,17.9,4.9,17.3,5.8,16.4z M1.7,15.1c2.3-2,3.9-4,4.8-6l0.7-1.4L2.2,7.8l0-2.6c1,0,2.3,0,3.9,0l1,0l0-1C7,3.6,7,2.6,6.9,1.2
		L10,1.1l0.1,4L13.6,5l0.1,2.6l-3.5,0.1v2.7l0.7,0.2c0.9,0.3,2,0.9,3.2,1.5L12.7,14c-0.3-0.2-0.6-0.4-0.9-0.6l-1.5-0.9l-0.1,7
		l-3.5-0.2L7,13.9l-2.9,2.9L1.7,15.1z"/>
	<path class="st0" d="M3.7,21.6c-0.3,3.1-1.3,5.5-3,7.3l5,2c1.4-2.4,2.2-5.3,2.6-8.6L3.7,21.6z M5.2,29.6l-2.9-1.1
		c1.1-1.6,1.9-3.5,2.2-5.7l2.6,0.4C6.8,25.5,6.1,27.7,5.2,29.6z"/>
	<path class="st0" d="M28,7.1l1,0V5.5c0-0.3-0.1-1.4-1.6-1.7c-0.4-0.1-0.9-0.1-1.4-0.1l-0.1,0c-1.1,0-2.6,0.1-4.6,0.2l-0.9,0.1v3.4
		l1.1-0.1C22.7,7.2,24.9,7.1,28,7.1z M21.4,4.8c2-0.1,3.5-0.2,4.5-0.2c0.5,0,0.9,0.1,1.3,0.1C27.7,4.8,28,5.1,28,5.5v0.7
		c-3.1,0-5.3,0.1-6.6,0.1C21.4,5.3,21.4,4.8,21.4,4.8z"/>
	<path class="st0" d="M21.4,8.6l-1,0v3.6l1,0c1.3,0,3.4-0.1,6.3-0.2l0.9,0l0.1-3.6l-1.1,0C26,8.4,24,8.5,21.4,8.6z M27.6,11
		c-2.8,0.1-4.9,0.2-6.2,0.2V9.6c2.6-0.1,4.7-0.2,6.3-0.2L27.6,11z"/>
	<path class="st0" d="M21.4,13.5l-1,0v3.5h1.4c1,0,2.9-0.1,5.7-0.2l0.9,0l0.1-3.5l-1.1,0C24.4,13.5,22.4,13.5,21.4,13.5z M27.5,15.9
		c-2.8,0.1-4.7,0.2-5.6,0.2h-0.4v-1.5c1,0,3-0.1,6.1-0.2L27.5,15.9z"/>
	<path class="st0" d="M17.7,25.7l5.2-1.6c-0.7-1.8-1.6-3.3-2.7-4.5c3.9,0,8.1-0.1,12.8-0.2c0.2-3.6,0.3-8.6,0.3-15.1
		c0-2.2-1.4-3.4-4.3-3.5h-1.5c-2.4,0-4.6,0-6.3,0.1l-0.1-0.7l-5.2,0.4c0.4,2.6,0.6,8,0.6,16.3l0,2.6h0.5l-2,0.6
		C16.2,22.1,17.1,23.9,17.7,25.7z M17,19.2l0.4,0.4l0-2.6c0-7.5-0.1-12.5-0.4-15.4l3.3-0.3L20.3,2l0.9,0c1.7-0.1,3.8-0.1,6.3-0.1H29
		c3,0.2,3.3,1.4,3.3,2.5c0,5.9-0.1,10.6-0.3,14.1c-4.3,0.1-8.3,0.1-11.9,0.2l-2.2,0l1.4,1.6c0.8,0.9,1.5,2,2.1,3.2l-3.2,1
		c-0.5-1.2-1.1-2.4-1.8-3.7l0.7-0.2L17,19.2z"/>
	<path class="st0" d="M61.2,9.1c-0.1,0.6-0.3,1.2-0.5,1.9l-0.4,1.3l5.6-0.1l0.3-0.6c0.1-0.3,0.2-0.7,0.2-1.1c0-1.8-0.9-2.2-1.4-2.3
		l-0.1,0l-3.5-0.1L61.2,9.1z M62.2,9.2l2.5,0c0.4,0.1,0.6,0.5,0.6,1.3c0,0.3,0,0.5-0.1,0.7l-3.5,0C62,10.6,62.1,9.9,62.2,9.2z"/>
	<path class="st0" d="M68.3,14.6c-2.4,1.5-4.7,2.4-6.9,2.9c-0.3-0.7-0.7-1.7-1.4-2.9L70,14.4c0.3-2.4,0.5-3.8,0.5-4.2
		c0-1.9-0.7-3.1-2-3.7c0.5-1.1,0.7-2.1,0.7-3c0-1.5-1.4-2.3-4.3-2.4l-2.1,0c-1.4,0-3.2,0-5.4,0.1l0-0.3l-4.7-0.9
		c-1.3,2.3-3,4.1-5.1,5.5l1.2,1.1c0.1,2,0.2,4,0.2,5.9l0,2.3l3.8-0.1c-1.8,1-3.7,1.8-5.8,2.5l2.4,3.4c3.1-1.2,5.3-2.3,6.7-3.2
		l0.1,0.2c-2.9,2.4-5.8,4.1-8.6,5.2l1.9,3.4c3-1.3,5.7-2.9,8-5l0.1,0.5c-3.4,3-6.4,5.1-9.2,6.2l2.1,3.3c2.5-1.3,4.2-2.2,5-2.9
		l0.2,2.9c1.2,0.3,2.1,0.5,2.6,0.5c1.9,0,3.2-0.5,3.8-1.6c0.5-0.8,0.8-1.7,0.8-2.5s0-1.3,0-1.5c0-1.5-0.1-2.9-0.3-4.3
		c1,2.4,2.2,5.6,3.4,9.4l5-1.9c-1.3-3.6-2.7-6.7-4.1-9.1c1.7-0.5,3.1-1.1,4.2-1.6L68.3,14.6z M66,20.7c1.3,2.2,2.5,4.9,3.7,8
		l-3.1,1.2c-1.1-3.4-2.2-6.2-3.1-8.4l-1.9,0.5c0.2,1.4,0.3,2.8,0.3,4.2c0,0.1,0,0.6,0,1.4c0,0.7-0.2,1.3-0.7,2
		c-0.4,0.7-1.4,1.1-3,1.1c-0.2,0-0.7,0-1.6-0.3l-0.1-2.1h0.3c1.7,0,2.4-1.1,2.4-2.1c0-0.2,0-0.5-0.1-0.9l-0.5-1.8l-3.5,3.8l-0.1,0.1
		c-0.7,0.5-2,1.3-4,2.4l-1-1.6c2.6-1.2,5.4-3.2,8.4-5.9l0.4-0.4l-0.6-2.8l-1.3,1.1c-2,1.8-4.3,3.3-6.9,4.5L49,23.2
		c2.6-1.1,5.2-2.7,7.8-4.9l0.6-0.5l-1-2l-0.9,0.6c-1.2,0.8-3.1,1.8-5.8,2.8l-1.2-1.6c1.7-0.6,3.2-1.3,4.7-2.1l-0.5-1.9L50,13.8
		l0-1.2c0-2-0.1-4-0.2-6l0-0.4l-0.6-0.5c1.6-1.2,2.9-2.7,4-4.4l3.1,0.6l-0.1,0.5l1.2,0c2.2-0.1,4-0.1,5.3-0.1l2.1,0
		c2.2,0.1,3.3,0.5,3.3,1.4c0,0.7-0.2,1.6-0.7,2.6l-0.4,1l1,0.4c0.6,0.2,1.4,0.8,1.4,2.7c0,0.1,0,0.7-0.4,3.2l-10.9,0.2l0.8,1.5
		c0.6,1.2,1.1,2.1,1.4,2.8l0.3,0.8l0.8-0.2c2.1-0.4,4.3-1.2,6.5-2.5l1.5,2.2c-0.8,0.3-1.8,0.7-3,1l-1.2,0.4L66,20.7z M56.4,27.2
		l1.6-1.7C58,25.8,58,26,58,26.1c0,0.7-0.5,1.1-1.4,1.1H56.4z"/>
	<path class="st0" d="M62.8,7.1l0.6,0l0.3-0.5c0.2-0.4,0.3-0.8,0.3-1.2c0,0,0-0.2,0-0.5c0-0.2-0.2-1.2-1.6-1.2
		c-0.8,0-3.1,0.1-6.7,0.4l-0.5,0l-0.3,0.4c-0.2,0.3-0.5,0.7-0.9,1.1l-1.4,1.7l2.2-0.1C56.8,7.2,59.5,7.1,62.8,7.1z M55.6,5.1
		c3.7-0.2,5.9-0.4,6.7-0.4c0.4,0,0.6,0.1,0.6,0.3s0,0.3,0,0.4c0,0.2-0.1,0.5-0.2,0.7c-3.2,0-5.9,0.1-8.1,0.1
		C55.1,5.8,55.4,5.4,55.6,5.1z"/>
	<path class="st0" d="M58.7,8.2h-1.4c-3.6,0-3.8,0.1-4.1,0.3l-0.5,0.3l0.1,3.7l4-0.1l0.3-0.4c0.5-0.6,0.8-1.5,1.1-2.4L58.7,8.2z
		 M56.4,11.4l-2.5,0.1l0-2.1c0.2-0.1,1.4-0.1,3.6-0.1C57.1,10.1,56.8,10.8,56.4,11.4z"/>
	<path class="st0" d="M47.9,0.6l-5-0.6c-0.7,5.6-2.7,10.1-5.9,13.4l2.2,6.5c0.8-0.8,1.5-1.4,1.9-2c0,5-0.2,9.6-0.4,13.6l5.8,0.1
		v-4.5c0-5.9-0.1-12-0.3-18.2C46.8,7.3,47.4,4.5,47.9,0.6z M45.5,30.6l-3.7-0.1c0.2-3.8,0.3-8,0.3-12.6l0-2.6l-1.8,1.9
		c-0.2,0.2-0.5,0.5-0.8,0.8l-1.5-4.4c2.9-3.2,4.8-7.4,5.6-12.5l3.1,0.3c-0.5,3.4-1,5.8-1.5,7.1l-0.1,0.2l0,0.2
		c0.2,6.2,0.3,12.3,0.3,18.2V30.6z"/>
	<path class="st0" d="M103.1,7.3C101.6,7.1,99.9,7,97.8,7c-1.9,0-4,0-6.3,0.1c0.2-1.8,0.4-4,0.5-6.7l-5.9-0.2c0,2.9-0.2,5.3-0.5,7.3
		c-3.1,0.2-6.8,0.4-10.9,0.7l0.3,5.6c3.8-0.2,7-0.4,9.6-0.5c-0.8,5.7-4,10.7-9.4,15.1l6.2,3.3c5.4-5,8.6-11.3,9.5-18.8
		c2.5-0.1,4.4-0.1,5.6-0.1c1.9,0,3.1,0.1,3.6,0.4c1,0.5,1.5,1.2,1.6,2c0.1,0.8,0.1,1.8,0.1,2.9c0,3.3-0.2,5.4-0.6,6.3
		c-0.2,0.7-1,1.1-2.2,1.1c-1.7,0-3.5-0.4-5.2-1.3l0,6.2c1.9,0.7,3.5,1.1,4.7,1.2c1.2,0.1,1.9,0.2,2.1,0.2c1.5,0,2.8-0.2,3.7-0.7
		s1.6-1.4,2-2.7c0.4-1.3,0.7-3.2,0.9-5.5c0.2-2.3,0.2-4.4,0.2-6.1c0-3.1-0.4-5.5-1.2-7C105.7,8.3,104.6,7.6,103.1,7.3z M106.4,22.7
		c-0.2,2.2-0.4,4-0.8,5.3c-0.3,1.1-0.8,1.8-1.5,2.1c-0.8,0.4-1.9,0.6-3.2,0.6c-0.1,0-0.4,0-2-0.2c-1-0.1-2.3-0.4-3.8-0.9l0-3.9
		c1.4,0.5,2.8,0.8,4.2,0.8c2.1,0,2.8-1,3.1-1.8c0.3-0.6,0.6-2.1,0.6-6.7c0-1.2-0.1-2.2-0.2-3c-0.1-1.1-0.9-2.1-2.1-2.7
		c-0.5-0.2-1.3-0.5-4.1-0.5c-1.2,0-3.1,0-5.6,0.1l-0.9,0l-0.1,0.9c-0.8,7-3.7,12.9-8.6,17.7l-4.2-2.2c4.9-4.3,7.8-9.2,8.6-14.7
		l0.2-1.2l-1.2,0c-2.4,0.1-5.3,0.2-8.7,0.4l-0.2-3.6c3.7-0.3,7.1-0.5,9.9-0.7l0.8-0.1l0.1-0.8c0.2-1.8,0.4-3.9,0.5-6.4l3.9,0.1
		c-0.1,2.2-0.2,4.1-0.4,5.6l-0.2,1.2l1.2,0C93.9,8,96,8,97.8,8c2,0,3.7,0.1,5.2,0.3c1.2,0.2,2,0.8,2.6,1.7c0.7,1.4,1.1,3.6,1.1,6.5
		C106.6,18.3,106.5,20.4,106.4,22.7z"/>
</g>
</svg>
