<?xml version="1.0" encoding="utf-8"?>
<!-- Generator: Adobe Illustrator 27.9.1, SVG Export Plug-In . SVG Version: 6.00 Build 0)  -->
<svg version="1.1" id="Layer_1" xmlns:inkscape="http://www.inkscape.org/namespaces/inkscape"
	 xmlns="http://www.w3.org/2000/svg" xmlns:xlink="http://www.w3.org/1999/xlink" x="0px" y="0px" viewBox="0 0 137 31.7"
	 style="enable-background:new 0 0 137 31.7;" xml:space="preserve">
<style type="text/css">
	.st0{fill:#070707;}
</style>
<g>
	<path class="st0" d="M25.1,2.6l-5.7,2.6c1.2,1.5,2.4,3.5,3.7,6c1.3,2.5,2.4,4.9,3.2,7.2l5.6-2.6c-0.8-2.1-1.9-4.4-3.2-6.9
		C27.5,6.3,26.3,4.2,25.1,2.6z"/>
	<path class="st0" d="M14.4,7.2c0.6-1.8,1.2-3.4,1.7-4.8l-5.6-1.6C9.8,2.8,9,5.1,8.1,7.6C5.6,7.8,2.9,8.2,0,8.7l1.1,5.8
		c1.6-0.3,3.2-0.6,4.8-0.8c-2.3,6.5-4.1,11.5-5.3,15l5.8,1.8c1.5-4.6,3.5-10.5,6-17.5c0.7,0,1.6,0,2.5,0c1,0,1.6,0.2,1.9,0.5
		c0.3,0.3,0.4,1.1,0.4,2.5c0,2.8-0.3,5-0.8,6.6c-0.6,1.6-1.3,2.4-2.3,2.4c-0.7,0-1.6-0.3-2.7-1l-1.7,5.8c3.2,1.4,5.9,1.6,7.9,0.7
		c0.9-0.4,1.6-1,2.1-1.6s1-1.4,1.5-2.3c1.2-2.5,1.8-5.6,1.8-9.3s-0.6-6.2-1.9-7.7S17.6,7.3,14.4,7.2z"/>
	<path class="st0" d="M56.8,0.4L50.9,1c0.2,0.6,0.3,1.3,0.5,2.2c-5.5,0.3-10.7,1-15.7,2l1.2,5.6c4.7-1.2,9.7-1.9,15.2-2.2
		c0,0.4,0.1,0.9,0.1,1.4c-0.8-0.2-1.6-0.3-2.5-0.3c-2.5,0-4.5,0.7-6,2c-1.5,1.4-2.3,3.2-2.3,5.4s0.7,4,2.2,5.3s3.3,2,5.7,2
		c1.1,0,2.1-0.1,3-0.4c-0.9,2-2.3,3.7-4.3,5l5.8,2.3c1.6-1.3,2.8-3,3.8-5.1s1.4-4.2,1.4-6.1c0-2-0.2-3.6-0.7-4.9
		c0.1-0.8,0.2-1.8,0.2-2.9c0-1.1-0.1-2.4-0.2-4c2.6,0,5.2,0.2,7.7,0.4l0.5-5.6c-2.9-0.2-5.9-0.3-9-0.3C57.2,2.1,57,1.3,56.8,0.4z
		 M51.6,18.5c-0.4,0.6-1.1,0.9-2.1,0.9s-1.6-0.2-2.1-0.6c-0.5-0.4-0.7-1-0.7-1.8s0.2-1.4,0.7-1.9c0.5-0.5,1.1-0.7,1.8-0.7
		c1.5,0,2.5,0.5,3.1,1.4C52.3,17,52.1,17.9,51.6,18.5z"/>
	<path class="st0" d="M99.6,7.9l-5.8,0.4c0.2,1.6,0.3,3.2,0.2,4.9c-1.1-0.4-2.2-0.8-3.4-1c0-0.1,0-0.2,0-0.3c0-3.5-0.7-6.1-2-7.8
		c-1.3-1.7-3.4-2.5-6.1-2.5c-1.3,0-2.8,0.2-4.5,0.5c-1.7,0.3-3.1,0.7-4.3,1.2L75.1,9c2.7-0.9,5.1-1.4,7.1-1.4c1,0,1.6,0.2,2,0.7
		c0.3,0.4,0.5,1.3,0.5,2.7c0,0.2,0,0.4,0,0.6c-3.8,0-6.8,1-9,2.8c-2.2,1.8-3.4,4.2-3.4,7.2c0,2.3,0.7,4.2,2,5.5
		c1.3,1.4,3.1,2.1,5.3,2.1c2.7,0,5-1.2,6.9-3.5c1.6-2,2.8-4.6,3.5-7.7c1,0.4,2.1,0.8,3.1,1.3c-0.8,3.2-2,6.1-3.7,8.7l5.8,2.5
		c1.5-2.4,2.6-4.9,3.4-7.7c0.7,0.6,1.5,1.2,2.2,1.8l2.7-5.6c-1.2-1-2.4-1.9-3.6-2.7C100,13.5,100,10.7,99.6,7.9z M82,21.6
		c-0.8,1.2-1.6,1.9-2.4,1.9c-0.6,0-1-0.3-1.4-0.8c-0.3-0.5-0.5-1.1-0.5-1.9c0-1.3,0.5-2.3,1.6-3c1-0.7,2.5-1,4.4-1
		c0.1,0,0.2,0,0.3,0C83.5,18.8,82.8,20.4,82,21.6z"/>
	<path class="st0" d="M132.4,0.8c-5.2,0-10.9,0.2-17.2,0.7L115.1,0l-5.6,0.9c0.3,3.9,0.5,12.9,0.5,27.1l0,3.8
		c8.5-0.2,17.4-0.3,26.8-0.3c0.2-5.9,0.3-14.3,0.3-25.2C137,2.8,135.5,1,132.4,0.8z M130.7,26.1c-5.1,0.1-10.3,0.1-15.4,0.1v-3.5
		c1.6-0.1,6.8-0.2,15.4-0.4L130.7,26.1z M130.9,17.5c-8.4,0.2-13.6,0.4-15.5,0.5v-3.6c6.3-0.2,11.5-0.4,15.6-0.4L130.9,17.5z
		 M131.2,9.2c-5.1,0-10.4,0.2-15.9,0.5c0-1.3,0-2.4,0-3.1c6.2-0.5,10.6-0.7,13.3-0.7c0.9,0,1.5,0,1.8,0.1c0.6,0.2,0.9,0.7,0.9,1.6
		C131.3,8.4,131.3,8.9,131.2,9.2z"/>
</g>
</svg>
