<?xml version="1.0" encoding="utf-8"?>
<!-- Generator: Adobe Illustrator 27.9.1, SVG Export Plug-In . SVG Version: 6.00 Build 0)  -->
<svg version="1.1" id="Layer_1" xmlns:inkscape="http://www.inkscape.org/namespaces/inkscape"
	 xmlns="http://www.w3.org/2000/svg" xmlns:xlink="http://www.w3.org/1999/xlink" x="0px" y="0px" viewBox="0 0 67.1 31.7"
	 style="enable-background:new 0 0 67.1 31.7;" xml:space="preserve">
<style type="text/css">
	.st0{fill:#070707;}
</style>
<g>
	<path class="st0" d="M21.8,10.2l0.8,0l0.1-0.8c0.1-0.4,0.1-0.9,0.1-1.8c0-1.8-1-2.3-1.6-2.5c-0.5-0.1-1.2-0.2-2.1-0.2
		c-2.7,0-7.2,0.3-13.4,0.7L4.9,5.7v5.1l1-0.1C11.4,10.5,16.7,10.3,21.8,10.2z M5.9,6.6c6.2-0.5,10.6-0.7,13.3-0.7
		c0.9,0,1.5,0,1.8,0.1c0.6,0.2,0.9,0.7,0.9,1.6c0,0.8,0,1.4-0.1,1.7c-5.1,0-10.4,0.2-15.9,0.5C5.9,8.4,5.9,7.4,5.9,6.6z"/>
	<path class="st0" d="M5.9,21.7l-1,0v5.4h1c5.1,0,10.3,0,15.4-0.1l1,0l0.1-5.8l-1,0C12.6,21.5,7.5,21.6,5.9,21.7z M21.3,26.1
		c-5.1,0.1-10.3,0.1-15.4,0.1v-3.5c1.6-0.1,6.8-0.2,15.4-0.4L21.3,26.1z"/>
	<path class="st0" d="M5.9,13.3l-1,0V19l1,0c2-0.1,7.2-0.2,15.5-0.5l1,0l0.1-5.6l-1,0C17.4,13,12.2,13.1,5.9,13.3z M21.4,17.5
		C13,17.7,7.8,17.9,5.9,18v-3.6c6.3-0.2,11.5-0.4,15.6-0.4L21.4,17.5z"/>
	<path class="st0" d="M0.5,31.7c8.5-0.2,17.4-0.3,26.8-0.3c0.2-5.9,0.3-14.3,0.3-25.2C27.6,2.8,26,1,23,0.8C17.8,0.8,12,1.1,5.8,1.5
		L5.6,0L0,0.9c0.3,3.9,0.5,12.9,0.5,27.1L0.5,31.7z M4.7,1.2l0.1,1.4l1-0.1c6.2-0.5,12-0.7,17.1-0.7c2.5,0.1,3.6,1.5,3.6,4.4
		c0,10.3-0.1,18.4-0.3,24.2c-8.6,0-17,0.1-24.8,0.3l0-2.7c0-13.1-0.2-21.9-0.5-26.2L4.7,1.2z"/>
	<path class="st0" d="M56.3,9.1C57.5,9,58.9,9,60.3,9c1,0,1.6,0.4,1.8,1.3c0,0.4,0.1,0.8,0.1,1.2c0,3-0.3,7.1-0.9,12.4
		c0,0.7-0.2,1.2-0.5,1.5c-0.3,0.3-1,0.5-2.1,0.5c-1.9,0-3.5-0.2-4.9-0.7l0.4,6c2,0.4,4.2,0.6,6.8,0.6c2.8,0,4.5-1.5,5.1-4.5
		c0.7-4.2,1-10.5,1-18.8c0-2.5-1.3-3.9-3.8-4.3c-0.5,0-1.1,0-1.6,0c-1,0-2.5,0-4.4,0.1c0.1-1.4,0.3-2.6,0.4-3.6l-4.9-0.5
		c-0.2,4.7-1.3,8.3-3.4,10.8l5.2,2.1C55.2,11.8,55.8,10.6,56.3,9.1z M50.9,10.4c1.5-2.3,2.4-5.4,2.7-9.2l2.9,0.3
		c-0.1,0.8-0.2,1.7-0.3,2.6l-0.1,1.2l1.2,0c1.9-0.1,3.3-0.1,4.3-0.1c0.5,0,1,0,1.5,0c2,0.3,2.9,1.4,2.9,3.3c0,8.2-0.3,14.5-1,18.7
		c-0.5,2.5-1.8,3.6-4.1,3.6c-2.1,0-4.1-0.2-5.8-0.5l-0.3-3.8c1.2,0.3,2.4,0.4,3.8,0.4c1.3,0,2.2-0.2,2.7-0.7
		c0.5-0.5,0.8-1.2,0.9-2.2c0.6-5.2,0.9-9.4,0.9-12.4c0-0.5,0-0.9-0.1-1.3C62.8,8.7,61.8,8,60.3,8c-1.4,0-2.8,0-4.1,0.1l-0.7,0
		l-0.2,0.7c-0.3,1.1-0.8,2-1.2,2.9L50.9,10.4z"/>
	<path class="st0" d="M55.6,14l-4.9,1.4c1.5,2.3,2.4,4.7,2.5,7.3l5.5-1.6C58.3,18.5,57.2,16.1,55.6,14z M52.3,16l2.9-0.8
		c1.1,1.6,1.9,3.3,2.4,5.2l-3.4,1C53.9,19.5,53.2,17.7,52.3,16z"/>
	<path class="st0" d="M43.2,30.7H48c0.6-4.7,0.9-11.9,0.9-21.5c0-2.6-1.1-4-3.3-4.2c-0.8,0-1.6,0-2.4,0c0.4-1.7,0.6-3.2,0.7-4.6
		L38.7,0c0,2-0.2,3.8-0.6,5.4c-1.7,0.1-3.1,0.3-4.4,0.4c0.1,3.8,0.1,10.8,0.1,21l0,3.9C36.8,30.7,39.9,30.7,43.2,30.7z M38.2,6.4
		l0.7-0.1l0.1-0.7c0.3-1.3,0.5-2.9,0.5-4.5l3.2,0.3c-0.1,1-0.3,2.2-0.6,3.4L42,6h3.6c1.1,0.1,2.3,0.6,2.3,3.2c0,9-0.3,15.9-0.7,20.5
		h-3.9c-2.9,0-5.7,0-8.4,0l0-2.9c0-9.4,0-16.2-0.1-20.1C35.8,6.6,36.9,6.5,38.2,6.4z"/>
	<path class="st0" d="M37.7,20.4c0,2.7,0,4.4,0,5.1l0,1h1c0.6,0,2.2,0,4.6,0.1l0.9,0l0.1-0.9c0.1-0.9,0.2-2.7,0.2-5.4l0-1l-7,0.2
		V20.4z M43.6,20.3c0,2.7-0.1,4.5-0.2,5.3c-2.4-0.1-4-0.1-4.7-0.1c0-0.7,0-2.4,0-5.1L43.6,20.3z"/>
	<path class="st0" d="M42.3,15.8l2.4-0.1v-3.5c0-1.5-0.5-2.4-1.4-2.7c-0.4-0.1-0.8-0.2-1.1-0.2c-0.9,0-2.1,0.1-3.7,0.3l-0.9,0.1v6.1
		l1,0C39.6,15.9,40.8,15.8,42.3,15.8z M38.6,10.7c1.5-0.2,2.7-0.3,3.5-0.3c0.2,0,0.5,0,0.8,0.1c0.4,0.1,0.7,0.7,0.7,1.7v2.5l-1.4,0
		c-1.5,0-2.7,0.1-3.6,0.1V10.7z"/>
</g>
</svg>
