<?xml version="1.0" encoding="utf-8"?>
<!-- Generator: Adobe Illustrator 27.9.1, SVG Export Plug-In . SVG Version: 6.00 Build 0)  -->
<svg version="1.1" id="Layer_1" xmlns:inkscape="http://www.inkscape.org/namespaces/inkscape"
	 xmlns="http://www.w3.org/2000/svg" xmlns:xlink="http://www.w3.org/1999/xlink" x="0px" y="0px" viewBox="0 0 144 32.3"
	 style="enable-background:new 0 0 144 32.3;" xml:space="preserve">
<style type="text/css">
	.st0{fill:#070707;}
</style>
<g>
	<path class="st0" d="M6,25.1c-1.4,1.1-2.3,2.1-2.5,2.9c-0.2,0.4-0.3,0.9-0.3,1.3c0,0.7,0.2,1.3,0.7,1.8s1.1,0.8,2,0.9
		c1,0.1,2.2,0.2,3.6,0.2c3.9,0,9.1-0.3,15.6-1c0.3,0.3,0.6,0.7,0.9,1.2l6.5-1.1c-1.7-2.4-3.9-4.4-6.5-6.2l-6.2,0.9
		c1.6,1,2.5,1.5,2.6,1.7c-4.5,0.4-8,0.7-10.4,0.7c-1.1,0-1.6,0-1.7-0.1c0-0.1-0.1-0.2-0.1-0.2c0-0.3,1.1-1.2,3.4-2.8l20.2-0.3
		l-0.6-3.8c-4.7,0-10,0.1-16,0.2c-6,0.1-11.7,0.2-17.3,0.2l0.2,3.9L6,25.1z M17.3,22.1c5.6-0.1,10.6-0.2,15.1-0.2l0.3,1.8L13.3,24
		l-0.3,0.2c-3.6,2.6-3.8,3-3.8,3.6c0,0.3,0.1,0.5,0.2,0.7c0.3,0.7,1.1,0.7,2.6,0.7c2.4,0,5.9-0.2,10.5-0.7l2.1-0.2l-1.5-1.5
		c-0.1-0.1-0.1-0.1-0.5-0.4l3.1-0.4c1.9,1.3,3.6,2.8,5,4.4l-4.2,0.7c-0.2-0.3-0.5-0.6-0.7-0.8l-0.3-0.3l-0.4,0
		c-6.5,0.7-11.7,1-15.5,1C8.1,31.1,7,31.1,6,31c-0.7-0.1-1.1-0.3-1.4-0.6c-0.3-0.3-0.4-0.6-0.4-1.1c0-0.3,0.1-0.6,0.2-0.9
		c0.1-0.5,0.6-1.3,2.2-2.5L9,24.1l-7.8,0.1l-0.1-1.9C6.3,22.3,11.8,22.2,17.3,22.1z"/>
	<path class="st0" d="M13.4,10.3c-1.9-0.3-4-0.5-6.2-0.5l-0.7,2.3c2.2,0,4.3,0.2,6.3,0.5L13.4,10.3z M12.1,11.4
		c-1.4-0.2-2.8-0.3-4.2-0.3l0.1-0.3c1.5,0,2.9,0.1,4.2,0.3L12.1,11.4z"/>
	<path class="st0" d="M6.9,15c1.7,0,3.6,0.2,5.6,0.5l0.7-2.3c-1.9-0.3-4-0.4-6.3-0.4L6.1,15L6.9,15z M7.6,13.8
		c1.5,0,2.9,0.1,4.3,0.3l-0.1,0.3C10.2,14.2,8.8,14,7.5,14L7.6,13.8z"/>
	<path class="st0" d="M26.8,15.3l0.7-2.3c-2-0.4-4-0.6-6.3-0.6l-0.7,2.3C22.6,14.7,24.7,14.9,26.8,15.3z M21.9,13.5
		c1.5,0,2.9,0.1,4.3,0.3L26,14.2c-1.4-0.2-2.8-0.3-4.3-0.4L21.9,13.5z"/>
	<path class="st0" d="M33.9,11.5c0-1.3-0.1-2.7-0.3-4c-0.1-0.7-0.5-1.2-1.1-1.5c-0.6-0.3-1.2-0.4-1.9-0.5c-0.7-0.1-1.5-0.1-2.6-0.1
		c-4.4,0-7.3,0-8.7,0l-0.1-1c0,0,0-0.1,0-0.3l11.4,0l-0.4-3.9C14,0.3,4.9,0.4,3,0.4l0.1,3.9c2.7-0.1,6.4-0.1,11.2-0.1
		c0,0.3,0.1,0.8,0.1,1.4L5.6,5.6V5L0.4,5.1c0.1,2.5,0.1,4.4,0.1,5.8l0,4.4l5.4,0.1l0-3c0-0.6-0.1-1.5-0.2-2.9l8.8-0.3
		c0,2.1-0.1,4.1-0.4,6l5.4,0.2l0-2.9c0-0.7,0-1.8-0.1-3.3h7.8c0.9,0,1.3,0.7,1.3,2c0,1.3-0.1,2.6-0.4,4.1l5.4,0.1
		C33.8,13.9,33.9,12.6,33.9,11.5z M32.8,14.2l-3.4-0.1c0.1-1.1,0.2-2.1,0.2-3.1c0-2.7-1.6-3-2.3-3h-8.9l0,1c0,1.5,0.1,2.6,0.1,3.3
		l0,1.9l-3.3-0.1c0.2-1.6,0.2-3.3,0.3-5l0-1.1L4.6,8.5l0.1,1c0.1,1.3,0.2,2.3,0.2,2.8l0,2l-3.4-0.1l0-3.4c0-1.2,0-2.8-0.1-4.8L4.6,6
		v0.7l10.8-0.1v-1c0-0.8,0-1.3-0.1-1.6l-0.1-0.8l-0.8,0c-4.2,0-7.6,0.1-10.2,0.1L4.1,1.4c3.2,0,11.6-0.1,25.3-0.3L29.5,3L18.3,3v1
		c0,0.2,0,0.3,0,0.5l0.1,1.9l0.9,0c1.4,0,4.3,0,8.7,0c1,0,1.8,0,2.5,0.1c0.6,0.1,1.1,0.2,1.5,0.4c0.2,0.1,0.4,0.3,0.5,0.8
		c0.2,1.2,0.2,2.6,0.2,3.8C32.9,12.3,32.8,13.3,32.8,14.2z"/>
	<path class="st0" d="M27.1,12.3l0.7-2.2c-1.9-0.4-4-0.6-6.3-0.6l-0.7,2.3l0.8,0C23.2,11.8,25.1,12,27.1,12.3z M22.2,10.5
		c1.5,0,2.9,0.1,4.2,0.3l-0.1,0.3c-1.5-0.2-2.9-0.3-4.2-0.4L22.2,10.5z"/>
	<path class="st0" d="M3.3,20c17.3-0.2,26.4-0.3,27.5-0.4l-0.6-4c-3.6,0-8.1,0.1-13.7,0.2C11,16,6.5,16,3.1,16.1L3.3,20z M16.6,16.9
		c5.1-0.1,9.4-0.1,12.8-0.2l0.3,2c-3,0.1-11.5,0.2-25.4,0.3l-0.1-2C7.5,17,11.6,17,16.6,16.9z"/>
	<path class="st0" d="M55,2.3c-3.1,0-5.9,0.6-8.3,1.9s-4.3,3.1-5.6,5.5c-1.3,2.4-2,5.1-2,8.1c0,3.2,0.7,5.8,2.2,7.6
		c1.5,1.8,3.5,2.8,6.1,2.8c2.2,0,4-0.7,5.5-2.2c1.4-1.4,2.6-3.5,3.8-6.3c1.1-2.8,2.1-6.2,2.8-10.2l-5-1.7c2.8,0,5.2,0.8,7,2.5
		c1.8,1.6,2.7,3.8,2.7,6.4c0,1.8-0.5,3.6-1.4,5.5c-1,1.8-2.3,3.5-4.1,5l5.8,3.5c1.9-1.9,3.4-4,4.4-6.3c1-2.3,1.5-4.8,1.5-7.3
		c0-4.4-1.4-7.9-4.3-10.6C63.3,3.7,59.6,2.3,55,2.3z M68,23.9c-0.9,2-2.1,3.8-3.6,5.5l-4-2.4c1.4-1.4,2.5-2.8,3.3-4.4
		c1-2,1.6-4,1.6-5.9c0-2.9-1-5.3-3-7.1c-1.9-1.8-4.5-2.7-7.5-2.7l0-0.1l-1.4,0.1c-2.9,0.2-5.2,1.3-6.9,3.2c-1.7,1.9-2.6,4.3-2.6,7.2
		c0,1.5,0.2,2.7,0.7,3.7c0.7,1.4,1.8,1.7,2.5,1.7c1.5,0,2.8-1.3,4.1-3.9c1-2.2,2.1-5.5,3.1-10l4.1,1.4c-0.7,3.6-1.6,6.7-2.6,9.2
		c-1.1,2.7-2.3,4.7-3.5,5.9c-1.3,1.3-2.9,1.9-4.8,1.9c-2.3,0-4-0.8-5.3-2.4c-1.3-1.7-2-4-2-7c0-2.8,0.6-5.4,1.9-7.6
		c1.2-2.2,3-3.9,5.2-5.1C49.4,3.9,52,3.3,55,3.3c4.3,0,7.9,1.3,10.5,3.8c2.7,2.5,4,5.8,4,9.9C69.4,19.4,68.9,21.7,68,23.9z
		 M53.4,7.8c-1.1,4.8-2.2,8.2-3.2,10.5c-1,2.2-2.1,3.4-3.2,3.4c-0.7,0-1.2-0.4-1.6-1.2c-0.4-0.8-0.6-1.9-0.6-3.2
		c0-2.7,0.8-4.9,2.3-6.5C48.7,9,50.8,8.1,53.4,7.8z"/>
	<path class="st0" d="M79.9,0c-0.7,6.3-2.7,11.2-6.1,14.9l2.9,5.5c0.7-0.6,1.2-1.2,1.5-1.8c0,5-0.2,9.3-0.5,12.9l5.9,0.2l0-4.5
		c0-5.8-0.1-11.8-0.3-18c0.8-2.2,1.4-5,1.7-8.5L79.9,0z M82.3,9.2c0.2,6.1,0.3,12.2,0.3,18l0,3.5l-3.8-0.1c0.3-3.4,0.4-7.4,0.4-11.9
		l-1.9-0.5c-0.1,0.2-0.2,0.4-0.4,0.6L74.9,15c3.1-3.5,5-8.2,5.8-13.9l3.2,0.4c-0.3,2.9-0.9,5.4-1.6,7.3L82.3,9L82.3,9.2z"/>
	<path class="st0" d="M97.9,18.4l1.1-0.1c1-0.1,1.9-0.2,2.7-0.3l0.8-0.1l0.1-0.8c0.2-1.7,0.3-3.5,0.3-5.2c0-1.6-0.2-2.7-0.9-3
		l-0.1,0l-0.1,0c-0.2,0-0.4-0.1-0.8-0.1c-0.5,0-1.2,0-2.2,0.1l-0.9,0.1v0.9c0,2.6,0,5.1,0.1,7.4L97.9,18.4z M100.9,9.8
		c0.3,0,0.5,0,0.6,0c0.2,0.1,0.4,0.8,0.4,2.2c0,1.7-0.1,3.4-0.3,5.1c-0.8,0.1-1.6,0.2-2.6,0.3c0-2.4-0.1-4.8-0.1-7.4
		C99.7,9.8,100.4,9.8,100.9,9.8z"/>
	<path class="st0" d="M89.7,11c0.1,2.6,0.2,4.9,0.3,6.7l0,1l5-0.2l-0.1-9.2l-1.1,0.1c-0.9,0.1-2,0.3-3.2,0.5l-0.9,0.2L89.7,11z
		 M93.9,10.5l0.1,7.1l-3,0.1c0-1.9-0.1-4.1-0.3-6.8C91.9,10.8,93,10.6,93.9,10.5z"/>
	<path class="st0" d="M90.6,4.5l-4.8,0.7c0.2,3.3,0.3,8.1,0.3,14.4l0,3.4c3,0,5.6-0.1,7.8-0.1l0,8.7l5,0.1c0-3.4,0-6.4-0.1-8.9
		l7-0.4c0.5-4.9,0.8-8.7,0.8-11.6l0-1.4c-0.2-2.9-1.3-4.5-3.5-4.6c-1.4,0-2.9,0.1-4.4,0.2c-0.1-2-0.2-3.6-0.3-4.8l-4.7,0.5
		c0,1.6,0.1,3.2,0.1,4.8c-1.3,0.1-2.3,0.3-3.2,0.5C90.7,5.2,90.6,4.7,90.6,4.5z M93.9,6.5l0.9-0.1l0-0.9c-0.1-1.3-0.1-2.6-0.1-3.9
		l2.8-0.3c0.1,1,0.2,2.3,0.2,3.7l0,1l1-0.1c1.5-0.1,3-0.2,4.3-0.2c1,0.1,2.3,0.6,2.5,3.7l0,1.3c0,2.6-0.2,6.2-0.7,10.6l-7.1,0.4l0,1
		c0,2.2,0.1,4.9,0.1,7.9l-3,0l0-8.7l-1,0c-2,0-4.2,0.1-6.8,0.1l0-2.4c0-5.8-0.1-10.3-0.3-13.6l2.8-0.4c0,0.1,0,1.6,0,1.6L90.9,7
		C91.7,6.8,92.7,6.6,93.9,6.5z"/>
	<path class="st0" d="M137,12h2.9l-0.2-3.4l-3.3,0.1c-1,0-1.9,0-2.7-0.1l-1.1-0.1v3.4l1,0C134.6,12,135.8,12,137,12z M133.6,9.6
		c0.9,0,1.8,0.1,2.8,0.1l2.3,0l0.1,1.4H137c-1.2,0-2.3,0-3.3,0V9.6z"/>
	<path class="st0" d="M130.5,1.2l-2,0.1v13.4c3.5,0.1,7,0.1,10.5,0.1l0,9.4c0,1.1-0.5,1.6-1.5,1.6c-0.5,0-1-0.1-1.4-0.2l0.8,5.7
		c0.2,0.2,0.5,0.3,0.9,0.3c0.3,0,0.8,0,1.5-0.1c2.8-0.1,4.4-1.7,4.6-4.9v-0.3c0.1-2.6,0.1-4.3,0.1-5.1c0-4.6-0.2-10.1-0.5-16.5
		c-0.4-2.5-1.9-3.7-4.3-3.7C137,0.9,134.1,1,130.5,1.2L130.5,1.2z M139.2,1.9c1.9,0,3,0.9,3.3,2.9c0.3,6.3,0.5,11.8,0.5,16.4
		c0,0.8,0,2.5-0.1,5.1l0,0.4c-0.2,2.6-1.3,3.8-3.6,3.9c-0.9,0.1-1.3,0.1-1.5,0.1c0,0,0,0,0,0l-0.5-3.8c0.1,0,0.2,0,0.3,0
		c1.6,0,2.5-1,2.5-2.6l0-10.4h-1c-3.1,0-6.3,0-9.5-0.1V2.2l0.6,0l0,0l0.5,0C134.2,2,137,1.9,139.2,1.9z"/>
	<path class="st0" d="M137.3,7.1h2.3l-0.1-1.7c0-0.7-0.4-1.9-3.1-1.9h0l-3.8,0.2V7l1,0C134.8,7.1,136.1,7.1,137.3,7.1z M133.6,4.6
		l2.8-0.1c1.4,0,2.1,0.3,2.1,1l0,0.7h-1.2c-1.2,0-2.5,0-3.7-0.1V4.6z"/>
	<path class="st0" d="M117.2,8.7l-1,0v3.5h1c2.2,0,3.7,0,4.5-0.1l0.9-0.1V8.8h-2.3C119.3,8.8,118.3,8.8,117.2,8.7z M121.6,9.8v1.3
		c-0.8,0-2.3,0.1-4.5,0.1V9.7c1.1,0,2.1,0.1,3.2,0.1H121.6z"/>
	<path class="st0" d="M116.1,6.2v1l1,0c1.2,0,2.4,0.1,3.3,0.1h2.2v-2c0-0.6-0.4-1.4-1.7-1.4h0L116,4l0.1,1
		C116.1,5.4,116.1,5.8,116.1,6.2z M120.9,4.9c0.4,0,0.7,0.1,0.7,0.4v1h-1.2c-1,0-2.1,0-3.3-0.1c0-0.4,0-0.8,0-1.2L120.9,4.9z"/>
	<path class="st0" d="M117.2,31.7l0-17.2c3.4-0.1,6.5-0.1,9.2-0.1c0.2-2,0.3-5.7,0.3-11c0-1.4-0.9-2.1-2.6-2.3c-3,0-5.4,0.1-7.2,0.2
		l0-0.6L111.4,1c0,0.6,0.1,2.4,0.1,5.6c0,10.6-0.1,18.8-0.4,24.7L117.2,31.7z M112.4,2l3.5-0.2l0,0.6l1-0.1c1.8-0.1,4.2-0.2,7.2-0.2
		c1.6,0.1,1.6,0.8,1.6,1.3c0,4.6-0.1,7.9-0.2,10c-2.5,0-5.3,0.1-8.3,0.1l-1,0l0,17.1l-4-0.3c0.2-5.8,0.3-13.8,0.3-23.7
		C112.5,4.1,112.5,2.8,112.4,2z"/>
	<path class="st0" d="M123.7,18.3v3.4l7.7-0.2l0.2-0.7c0.1-0.2,0.1-0.5,0.1-0.7c0-0.4-0.1-0.9-0.8-1.5c-0.5-0.4-1-0.5-1.7-0.5
		c-1.6,0-3.1,0.1-4.6,0.2L123.7,18.3z M124.7,19.2c1.4-0.1,2.9-0.1,4.5-0.1c0.4,0,0.8,0.1,1.1,0.3s0.4,0.4,0.4,0.7
		c0,0.1,0,0.3-0.1,0.4l-6,0.1V19.2z"/>
	<path class="st0" d="M123.7,26.6h1c0.9,0,2.9-0.1,5.8-0.2l0.9,0l0.4-3.4l-8,0.2V26.6z M124.7,24.1l5.9-0.1l-0.1,1.4
		c-2.9,0.1-4.9,0.2-5.8,0.2V24.1z"/>
	<path class="st0" d="M119.5,15.8c0.3,3.5,0.4,7,0.4,10.3v3.7c5.5,0,10.7-0.1,15.4-0.3c0.3-4.4,0.5-7.6,0.5-9.8c0-2.8-1.3-4.2-4-4.4
		c-1.7-0.1-2.9-0.2-3.5-0.2C126.8,15.2,123.8,15.4,119.5,15.8z M134.9,19.7c0,2-0.2,4.9-0.4,8.8c-4.2,0.2-8.7,0.2-13.5,0.3v-2.7
		c0-3-0.1-6.2-0.4-9.4c3.8-0.3,6.4-0.5,7.8-0.5c0.6,0,1.8,0.1,3.5,0.2C134,16.5,134.9,17.5,134.9,19.7z"/>
</g>
</svg>
