<?xml version="1.0" encoding="utf-8"?>
<!-- Generator: Adobe Illustrator 27.9.1, SVG Export Plug-In . SVG Version: 6.00 Build 0)  -->
<svg version="1.1" id="Layer_1" xmlns:inkscape="http://www.inkscape.org/namespaces/inkscape"
	 xmlns="http://www.w3.org/2000/svg" xmlns:xlink="http://www.w3.org/1999/xlink" x="0px" y="0px" viewBox="0 0 212.5 32.1"
	 style="enable-background:new 0 0 212.5 32.1;" xml:space="preserve">
<style type="text/css">
	.st0{fill:#070707;}
</style>
<g>
	<path class="st0" d="M12,14.1c-2.9-1.2-6.3-2.3-10-3.2l-2,5.6c3.6,0.9,6.9,1.9,9.9,3.1L12,14.1z"/>
	<path class="st0" d="M16.7,20.2c-3.1,2.6-6.2,3.9-9.3,3.9c-1.4,0-3.1-0.5-4.9-1.5l-2,6.2C2.6,30,5,30.7,7.6,30.7
		c4.2,0,8.2-1.4,12.1-4.2c3.9-2.8,7.2-6.7,9.8-11.7l-5-4.8C22.4,14.2,19.8,17.7,16.7,20.2z"/>
	<path class="st0" d="M15,6.7C12.5,5,9.4,3.5,5.8,2L2.9,7c3.7,1.5,6.8,3,9.3,4.5L15,6.7z"/>
	<path class="st0" d="M55.8,6.4c-0.7,0-1.6,0-2.7,0c0.4-1.2,0.7-2.4,1-3.5l-6-1.6c-0.4,1.7-1,3.5-1.6,5.5c-4.1,0.3-7.4,0.7-9.9,1
		l0.9,6.2c2-0.3,4.3-0.6,6.9-0.9c-2.1,5.9-4.2,11.1-6.3,15.7l6.3,1.8c2.4-5.3,4.6-11.4,6.8-18.2c1.8-0.1,3.2-0.2,4.2-0.2
		c1,0,1.7,0.2,2,0.5c0.4,0.3,0.6,1.1,0.6,2.2c0,1.1-0.1,2.6-0.4,4.4s-0.6,3.1-0.8,3.8c-0.2,0.7-0.4,1.1-0.6,1.2
		c-0.2,0.2-0.6,0.2-1.1,0.2s-1.4-0.2-2.5-0.7l-1.7,5.9c1.9,0.8,3.7,1.2,5.3,1.2c1.6,0,2.9-0.3,3.7-1c0.9-0.7,1.6-1.7,2.1-3.2
		c0.5-1.5,1-3.5,1.4-6c0.4-2.5,0.6-4.7,0.6-6.7c0-2.9-0.6-5-1.8-6.1C61,7,58.9,6.4,55.8,6.4z"/>
	<path class="st0" d="M93.9,7.7L93,4.1c-0.8-0.1-1.8-0.1-2.8-0.1c-3.7,0-9,0.3-15.9,1l0.7,6.3c6.4-0.7,11.3-1,14.5-1
		c1.5,0,2.6,0.2,3.1,0.6s0.8,1.1,0.8,2.3s-0.2,3.1-0.5,5.9c-0.4,2.8-0.8,5.6-1.3,8.5l0.1-4.9c-6.1,0-11.8,0.3-17.2,0.9l0.5,6.3
		c5.7-0.6,11.1-0.9,16.3-0.9c0,0.1,0,0.2-0.1,0.3l6.7,0.9c0.6-3.5,1.1-6.9,1.4-10.3s0.6-5.9,0.6-7.7c0-2.5-0.5-4.4-1.4-5.7L93.9,7.7
		z"/>
	<polygon class="st0" points="97.3,1.5 99.9,6 103,4.2 100.3,0 	"/>
	<polygon class="st0" points="98,5.8 96.5,0.6 93.1,1.4 94.5,6.7 	"/>
	<path class="st0" d="M129.5,24.4c-2.2,0.2-4.2,0.4-5.8,0.4c-4.9,0-7.4-1.2-7.4-3.6c0-1.5,1.1-3.1,3.2-4.7c0.9,1.5,1.7,2.8,2.6,3.7
		l5.4-3.1c-0.7-0.8-1.5-2.1-2.4-3.7c2.7-1.2,5.9-2.2,9.5-3.2l-2.3-5.6c-3.7,1.1-6.8,2.3-9.5,3.5c-1-2.7-1.7-5-2-7.1l-6.2,1.1
		c0.4,2.9,1.3,5.9,2.4,9c-2.3,1.5-4,3.1-5.1,4.9c-1.1,1.7-1.7,3.6-1.7,5.7c0,3.1,1.2,5.4,3.5,6.8s6.1,2.2,11.1,2.2
		c3.9,0,7.5-0.4,11-1.1l-1-6.2C133.4,23.8,131.7,24.1,129.5,24.4z"/>
	<path class="st0" d="M169,24.8l4.1-0.1c0.4-3.2,0.6-7,0.6-11.5c0-2.7-1.4-4.1-4.1-4.3c-2.4,0-5.1,0-8.1,0.1V7.5
		c7.8-0.1,12.2-0.2,13.3-0.3l-0.4-4.9c-4.5,0.1-8.8,0.2-12.9,0.3c-0.1-0.8-0.1-1.5-0.1-2.1L156,0.7l0.1,2c-3.9,0.1-8.4,0.3-13.5,0.4
		l0.1,4.9c4.6-0.1,9-0.2,13.3-0.4v1.5c-3.9,0.1-7.8,0.1-11.7,0.1c0.1,3.3,0.1,7.5,0.1,12.7l0,3.3l4.2-0.1c-1.6,1.3-3.8,2.5-6.7,3.6
		l5.2,3.2c3.3-1.8,6-4.1,8.1-7l0.6,0c-0.1,2.9-0.1,5.1-0.2,6.4l5.9,0.4l0-7l0.4-0.1c2.6,2.4,4.8,4.7,6.8,6.9l6.2-1.9
		C173.3,27.9,171.3,26.2,169,24.8z M156,20.4l-6.6,0v-1.3c2.2,0,4.4-0.1,6.6-0.1V20.4z M156,15.1c-2.2,0-4.4,0.1-6.6,0.1
		c0-0.5,0-1,0-1.5l6.7-0.2V15.1z M168.3,20c-1.6,0.1-3.8,0.2-6.6,0.3V19c2.3-0.1,4.5-0.1,6.7-0.2C168.3,19.1,168.3,19.5,168.3,20z
		 M161.6,15v-1.7h1.6c2.3,0,3.7,0,4.2,0.1c0.6,0.1,0.9,0.5,1,1.3C166.2,14.9,164,14.9,161.6,15z"/>
	<path class="st0" d="M208.6,20.8c0.4-3,0.6-5.1,0.6-6.1c0-3.2-1.6-4.8-4.7-5c-9.3,0-16.3,0.3-21.1,0.8c0.1,2.4,0.2,5,0.2,7.9l0,2.9
		c2.5-0.1,6-0.2,10.5-0.3v0.3c0,2-0.1,3.1-0.4,3.5c-0.2,0.9-0.9,1.4-2.2,1.4c-0.7,0-1.3-0.1-1.7-0.3l1.6,5.6l0.4,0
		c3.2,0,5.2-0.5,6.2-1.4c1.2-0.9,1.8-2.8,1.8-5.5c0-1.2,0-2.5-0.1-3.7C202.3,20.9,205.3,20.9,208.6,20.8z M188.9,16.8
		c0-0.9,0-1.8,0-2.7c1.6-0.2,4.1-0.3,7.5-0.3c1.7,0,3.6,0,5.6,0.1c1,0.1,1.5,0.5,1.5,1.1v0.3c0,0.4,0,0.9-0.1,1.4
		C194.6,16.7,189.8,16.8,188.9,16.8z"/>
	<path class="st0" d="M185.3,22c-0.3,0.7-0.9,1.6-1.8,2.6c-0.9,1-2.2,2-4,3l3.9,3.9c1.3-0.5,2.6-1.5,3.9-3c1.3-1.5,2.3-3.2,2.9-5.1
		L185.3,22z"/>
	<path class="st0" d="M206.3,21.4l-5,2.6c0.9,0.7,1.9,1.9,3.2,3.5c1.2,1.6,2.1,2.9,2.5,4l5.5-2.7c-1.1-1.9-2.1-3.5-3.2-4.7
		S207.3,22,206.3,21.4z"/>
	<path class="st0" d="M211.9,2.9c-3.8,0.1-8.1,0.2-13,0.4c-0.2-0.6-0.5-1.3-1-2.2l-5.9,0.5c0.5,1,0.8,1.6,0.8,1.9
		c-5.5,0.1-10.1,0.2-13.8,0.3l0.1,4.9c11.8-0.3,22.8-0.6,33.2-1L211.9,2.9z"/>
</g>
</svg>
