<?xml version="1.0" encoding="utf-8"?>
<!-- Generator: Adobe Illustrator 27.9.1, SVG Export Plug-In . SVG Version: 6.00 Build 0)  -->
<svg version="1.1" id="Layer_1" xmlns:inkscape="http://www.inkscape.org/namespaces/inkscape"
	 xmlns="http://www.w3.org/2000/svg" xmlns:xlink="http://www.w3.org/1999/xlink" x="0px" y="0px" viewBox="0 0 34.5 32.7"
	 style="enable-background:new 0 0 34.5 32.7;" xml:space="preserve">
<style type="text/css">
	.st0{fill:#070707;}
</style>
<g>
	<path class="st0" d="M0.3,5.8l7.8-0.1L8,6.8H2c0.1,2.4,0.1,4.4,0.1,6l0,2.3l30.7-0.3l0.1-4.8c0-2.1-1.1-3.1-3.3-3.2h-3.9l0.1-1.4
		l8.5-0.1l-0.4-3.9L26,1.6V0.1L21,0l0,1.7l-8.2,0.1L12.6,0L7.6,0.3l0.1,1.6l-7.5,0L0.3,5.8z M23.9,9.9c2.1,0,3.3,0.1,3.6,0.1
		c0.3,0,0.5,0.2,0.5,0.5c0,0.3,0,0.6,0,0.9l-4.2,0.1V9.9z M19.3,11.7l-4.4,0v-1.6l4.4-0.1V11.7z M20.6,5.6c-0.1,0.3-0.1,0.7-0.2,1.3
		h-7.1l0-1.2L20.6,5.6z M10.5,11.7H6.6v-1.5l3.8-0.1V11.7z"/>
	<path class="st0" d="M31,15.8c-1.6,0-3.2,0-4.8,0c-8.3,0-17,0.3-26.1,0.8C0,18.1,0,19.4,0,20.5c0,0.4,0.1,1.6,0.2,3.4l3.7,0l2.2,3
		c2.4-0.5,4.4-1.3,6.2-2.4c4.2-0.1,7.2-0.2,9.2-0.2c1.6,0,2.4,0.1,2.4,0.3c0,0.2-0.7,0.5-2,1c-1,0.4-2.1,0.9-3.5,1.3
		c-1.3-0.8-3.1-1.5-5.5-2.2l-4.7,2.1c2,0.7,3.2,1.1,3.9,1.4c-1.3,0.3-5,0.7-11,1.2l2.2,3.5c5.9-0.3,10.6-0.8,14.1-1.6
		s6.3-1.6,8.2-2.5c2-0.9,3.2-1.7,3.7-2.5s0.8-1.6,0.8-2.5l3.8,0.4c0.3-0.8,0.5-2,0.5-3.8c0-0.7-0.1-1.5-0.2-2.2
		C34,16.6,33,15.9,31,15.8z M5,22.9c-0.1-1.1-0.1-2-0.2-2.7c2-0.1,4-0.3,6.1-0.3C9.7,21,7.7,22,5,22.9z M29.2,21.4
		c-0.4-0.5-1.9-0.7-4.4-0.7l-8.8,0.1l0.7-1c0,0,1.6-0.1,4.6-0.1c2.5,0,4.7,0.1,6.6,0.2c0.8,0.2,1.2,0.6,1.2,1.2V21.4z"/>
</g>
</svg>
