<?xml version="1.0" encoding="utf-8"?>
<!-- Generator: Adobe Illustrator 27.9.1, SVG Export Plug-In . SVG Version: 6.00 Build 0)  -->
<svg version="1.1" id="Layer_1" xmlns:inkscape="http://www.inkscape.org/namespaces/inkscape"
	 xmlns="http://www.w3.org/2000/svg" xmlns:xlink="http://www.w3.org/1999/xlink" x="0px" y="0px" viewBox="0 0 174.8 32.1"
	 style="enable-background:new 0 0 174.8 32.1;" xml:space="preserve">
<style type="text/css">
	.st0{fill:#070707;}
</style>
<g>
	<path class="st0" d="M19.4,24c-2.2,0.2-4.2,0.4-5.8,0.4c-4.9,0-7.4-1.2-7.4-3.6c0-1.5,1.1-3.1,3.2-4.7c0.9,1.5,1.7,2.8,2.6,3.7
		l5.4-3.1c-0.7-0.8-1.5-2.1-2.4-3.7c2.7-1.2,5.9-2.2,9.5-3.2L22,4.3c-3.7,1.1-6.8,2.3-9.5,3.5c-1-2.7-1.7-5-2-7.1L4.3,1.8
		c0.4,2.9,1.3,5.9,2.4,9c-2.3,1.5-4,3.1-5.1,4.9C0.6,17.4,0,19.3,0,21.3c0,3.1,1.2,5.4,3.5,6.8c2.4,1.4,6.1,2.2,11.1,2.2
		c3.9,0,7.5-0.4,11-1.1l-1-6.2C23.4,23.4,21.6,23.7,19.4,24z"/>
	<path class="st0" d="M34.1,4.8l0.6,6.2c4.9-0.8,9.2-1.4,12.7-1.8c-2.1,2.5-3.1,5.4-3.1,8.7s1,6.1,2.9,8.3c1.9,2.3,4.7,3.9,8.3,5
		l3-5.6c-2.6-0.9-4.6-2-5.9-3.3c-1.3-1.3-1.9-2.8-1.9-4.5c0-1.7,0.5-3.4,1.6-5c1.1-1.6,2.4-2.8,4.2-3.6c0.7-0.3,1.4-0.6,2.3-0.7
		c0.9-0.1,2.3-0.2,4.3-0.3l-0.2-5.9C51.7,2.6,42.1,3.5,34.1,4.8z"/>
	<path class="st0" d="M92.4,22.8c-1.1,1.2-2.5,1.8-4.2,1.8c-2.8,0-4.5-1.4-5-4.2c3.9-0.5,7-1.1,9.4-1.8L91.4,13
		c-2.3,0.6-5.1,1.1-8.3,1.5c0.1-1.3,0.3-2.7,0.5-4.2c3.2,0.1,5.8,0.4,7.9,0.9l0.9-5.6c-2.4-0.4-5.1-0.7-7.8-1
		c0.2-1.2,0.5-2.3,0.7-3.3l-6.2-0.7c-0.3,1-0.6,2.3-0.9,3.8c-2.4,0-4.8,0-7.3,0.1l-0.4,5.7c2.5,0,4.8-0.1,6.9-0.1
		c-0.2,1.8-0.4,3.5-0.5,5c-2,0.1-3.9,0.2-5.8,0.3l0.3,5.9c1.9-0.1,3.8-0.2,5.7-0.3c0.9,6.5,4.5,9.7,10.9,9.7c3.6,0,6.5-1,8.6-3.1
		c2.2-2.1,3.6-5.1,4.1-9l-5.9-1.6C94.3,19.7,93.5,21.6,92.4,22.8z"/>
	<path class="st0" d="M137.6,14.2l-0.2-4.9c-2.5,0-5,0.1-7.5,0.2c0-0.4,0-0.8,0-1.2l0-1.2l5.9-0.3L135.6,2c-2,0-3.9,0.1-5.7,0.2
		c0-0.7,0-1.4-0.1-2.2l-5.2,0.1c0,0.8,0.1,1.5,0.1,2.2c-1.6,0.1-3.5,0.2-5.7,0.3l0.1,4.9c2,0,3.8-0.1,5.6-0.3c0,0.9-0.1,1.7-0.1,2.4
		l-7,0.2v4.9l10.1-0.3c0,1.3,0,2,0,2.3h-0.7c-4.1,0.1-7,0.2-8.7,0.3l0,4.8l2.2,0l-2.2,1.2c1.3,1.5,2.3,3.2,3,5l4.1-2.6
		c-0.5-1.3-1.4-2.5-2.5-3.7l4.8-0.2c0,3-0.1,4.6-0.2,4.8c-0.1,0.2-0.2,0.3-0.4,0.3c-0.1,0-0.3,0-0.6,0c-0.3,0-1-0.1-1.9-0.4l0.4,5.5
		c1.9,0.1,3.2,0.2,4,0.2c1.1,0,2-0.3,2.6-0.9c0.6-0.5,1-1.5,1.1-2.8c0.1-1.3,0.1-2.5,0.1-3.5l0-3.3c2.7,0,4.3,0,4.8-0.1l-0.2-4.9
		l-4.6,0.1v-2.3C135.5,14.3,137.1,14.3,137.6,14.2z"/>
	<path class="st0" d="M114.4,16.7v-4.5l2.4-0.1l-0.3-5.5l-2.2,0.1l0-6.5l-4.6,0l0,6.3h-1.1c0.1-1.3,0.2-3.1,0.2-5.6l-4.2-0.2
		c0,4.8-0.3,9.3-0.9,13.5l4.2,0.8c0.2-1,0.3-2,0.4-3l1.3,0c0,1.9,0,3.7,0,5.4c-2.4,0.5-4.4,0.9-6,1.2l0.9,5.5c1.3-0.3,3-0.6,5.1-1.1
		c0,3.9,0,6.7,0,8.5l4.8,0.3V22l3.1-0.9l-0.4-5.1L114.4,16.7z"/>
	<path class="st0" d="M160.1,18.3c-0.5-0.6-1.2-0.9-2.2-0.9c-0.3,0-0.9,0-1.6,0c-1.2,0-3.3,0-6.2,0.1c0.1-0.8,0.2-1.7,0.3-2.7
		c2.8-0.1,6.1-0.2,9.9-0.3c0.3-3.4,0.4-6.8,0.4-10.1c-0.2-2.4-1.4-3.5-3.6-3.5c-5.5,0-9.2,0.1-11.2,0.3l-0.1-0.9L141.1,1
		c0.2,3.5,0.3,8.2,0.3,14.2c1.2-0.1,2.6-0.1,4.3-0.2v0.7c0,2.4-0.3,4.5-0.9,6.6c-0.8,2.6-2.1,4.8-3.9,6.4l4,3.5
		c2.7-2.9,4.3-6.3,4.8-10.1c2.9-0.2,4.6-0.3,4.9-0.3c0.7,0,1,0.5,1,1.4v2.4c0,0.6-0.4,1-1.1,1c-0.8,0-1.7-0.1-2.8-0.3l0.5,5.1
		c2.2,0.2,3.7,0.3,4.5,0.3c2.5,0,3.8-1.5,3.9-4.5c0-2.1,0.1-3.9,0.1-5.4c0-0.1,0-0.6,0-1.3C160.8,19.5,160.5,18.8,160.1,18.3z
		 M146,10.5V5.6c4.2-0.2,7.1-0.3,8.7-0.3c0.8,0,1.2,0.3,1.2,0.9c0,1.1,0,2.4-0.1,3.7C150.9,10.3,147.6,10.5,146,10.5z"/>
	<path class="st0" d="M168.9,0.7c0.5,7.8,0.7,14.7,0.7,20.7l0,3.2c0,1.2-0.6,1.8-1.8,1.8c-2,0-3.5-0.1-4.5-0.3l0.3,5.4
		c1.3,0.2,2.6,0.3,3.7,0.3c3.4,0,5.5-0.6,6.5-1.9c0.6-0.8,1-1.8,1-3.2c0-1.3,0.1-2.9,0.1-4.7c0-4-0.2-11.1-0.5-21.6L168.9,0.7z"/>
	<path class="st0" d="M167.3,21.9v-2.7c0-6.1-0.1-10.7-0.2-14l-4.8,0.2c0.1,1.1,0.1,2.5,0.1,4.2c0,4.1-0.1,8.1-0.3,12.1L167.3,21.9z
		"/>
</g>
</svg>
