<?xml version="1.0" encoding="utf-8"?>
<!-- Generator: Adobe Illustrator 27.9.1, SVG Export Plug-In . SVG Version: 6.00 Build 0)  -->
<svg version="1.1" id="Layer_1" xmlns="http://www.w3.org/2000/svg" xmlns:xlink="http://www.w3.org/1999/xlink" x="0px" y="0px"
	 viewBox="0 0 108.3 34.9" style="enable-background:new 0 0 108.3 34.9;" xml:space="preserve">
<style type="text/css">
	.st0{fill:#282828;}
</style>
<g>
	<path class="st0" d="M20.1,7.7c1.4,0.8,2.6,1.7,3.6,2.5l2.7-3.6c-1-0.7-2.2-1.5-3.7-2.3c-1.4-0.8-2.9-1.6-4.5-2.3
		C16.6,1.2,15,0.5,13.5,0l-2.6,3.2c1.5,0.6,3.1,1.2,4.7,2C17.2,6,18.7,6.8,20.1,7.7z M13.8,1.2c1.3,0.5,2.6,1,3.9,1.6
		c1.6,0.7,3.1,1.5,4.5,2.3c1,0.6,1.9,1.1,2.7,1.7l-1.5,2c-0.8-0.6-1.8-1.3-2.9-1.9c-1.4-0.9-3-1.7-4.6-2.5c-1.2-0.6-2.3-1.1-3.5-1.6
		L13.8,1.2z"/>
	<path class="st0" d="M88,1.7l-1.1,4.1c0.6,0.2,1.4,0.3,2.3,0.6c1,0.2,2,0.4,3.2,0.7c1.2,0.2,2.3,0.5,3.5,0.7
		c1.2,0.2,2.3,0.4,3.4,0.6s2,0.3,2.7,0.4l1-4.2c-0.8-0.1-1.9-0.2-3.2-0.4c-1.3-0.2-2.7-0.5-4.2-0.7c-1.5-0.3-2.9-0.6-4.3-0.9
		C90,2.2,88.9,2,88,1.7z M99.7,5.1c0.8,0.1,1.5,0.2,2.2,0.3l-0.5,2.2c-0.5-0.1-1.1-0.2-1.8-0.3c-1.1-0.2-2.2-0.4-3.4-0.6
		C95,6.5,93.8,6.3,92.6,6c-1.1-0.2-2.2-0.5-3.2-0.7C89,5.2,88.6,5.1,88.2,5l0.6-2.1c0.7,0.2,1.5,0.4,2.4,0.6
		c1.3,0.3,2.8,0.6,4.3,0.9C96.9,4.7,98.3,4.9,99.7,5.1z"/>
	<path class="st0" d="M10.7,29.1c0,1.5,0.2,2.7,0.5,3.5c0.3,0.8,0.9,1.4,1.8,1.8c0.9,0.4,2.1,0.5,3.6,0.5c0.2,0,0.5,0,1,0
		c0.4,0,0.9,0,1.5,0c0.5,0,1.1,0,1.7,0c0.6,0,1.1,0,1.5,0c0.4,0,0.8,0,1,0c1.5,0,2.7-0.3,3.5-0.9c0.8-0.6,1.4-1.5,1.8-2.9
		c0.4-1.4,0.6-3.2,0.8-5.6c-0.6-0.2-1.2-0.4-2-0.7c-0.7-0.3-1.4-0.7-1.8-1c-0.1,2.1-0.2,3.6-0.4,4.7s-0.4,1.8-0.7,2.2
		c-0.3,0.4-0.8,0.6-1.5,0.6c-0.3,0-0.7,0-1.2,0c-0.5,0-1.1,0-1.7,0c-0.6,0-1.2,0-1.7,0c-0.5,0-0.9,0-1.1,0c-0.9,0-1.5-0.1-1.8-0.4
		c-0.3-0.3-0.4-0.8-0.4-1.7V10.6h-4.2V29.1z M11.7,11.6h2.2v17.4c0,1.2,0.2,2,0.7,2.5c0.5,0.5,1.2,0.7,2.5,0.7h5.7
		c1,0,1.7-0.3,2.2-0.9c0.5-0.5,0.8-1.4,1-2.7c0.1-0.8,0.2-1.8,0.3-3.1c0.2,0.1,0.3,0.2,0.5,0.2c0.5,0.2,0.9,0.4,1.3,0.5
		c-0.2,1.9-0.4,3.5-0.7,4.6c-0.3,1.1-0.8,1.9-1.4,2.4c-0.6,0.4-1.6,0.7-2.9,0.7h-6.5c-1.4,0-2.5-0.2-3.2-0.5c-0.6-0.3-1-0.7-1.3-1.3
		c-0.3-0.7-0.4-1.8-0.4-3.1V11.6z"/>
	<path class="st0" d="M5.9,24.8c0.5-1.6,1-3.4,1.3-5.2C7.5,17.8,7.8,16,8,14.3l-4-0.8c-0.2,1.7-0.4,3.4-0.7,5
		c-0.3,1.6-0.8,3.2-1.3,4.6c-0.5,1.4-1.2,2.7-2,3.8l3.8,2.2C4.7,27.9,5.4,26.4,5.9,24.8z M1.4,26.6c0.6-0.9,1.1-2,1.5-3.1
		c0.5-1.5,1-3.1,1.3-4.8c0.3-1.3,0.5-2.7,0.6-4l2,0.4c-0.2,1.4-0.4,2.9-0.7,4.3c-0.3,1.8-0.7,3.5-1.3,5c-0.4,1.2-0.9,2.3-1.5,3.3
		L1.4,26.6z"/>
	<path class="st0" d="M73.2,16.6c-0.5-1.3-1.1-2.6-1.7-3.9c-0.6-1.3-1.3-2.6-1.9-3.8c-0.7-1.2-1.3-2.2-1.9-3l-4.1,1.7
		c0.7,0.8,1.4,1.8,2,3c0.7,1.2,1.3,2.5,1.9,3.8c0.6,1.3,1.1,2.7,1.6,4c0.5,1.3,0.8,2.5,1.1,3.5l4.3-2C74.1,18.9,73.7,17.8,73.2,16.6
		z M70.8,20.4c-0.2-0.8-0.5-1.6-0.8-2.4c-0.5-1.3-1-2.6-1.6-4c-0.6-1.4-1.2-2.7-1.9-3.9c-0.4-0.8-0.9-1.5-1.3-2.1l2.1-0.9
		c0.4,0.6,0.9,1.4,1.3,2.3c0.6,1.2,1.3,2.5,1.9,3.8c0.6,1.3,1.2,2.6,1.7,3.8c0.3,0.9,0.7,1.6,0.9,2.3L70.8,20.4z"/>
	<path class="st0" d="M35.2,21.5c-0.7-1.6-1.5-3.2-2.5-4.9c-1-1.6-2-3.2-3.1-4.6L26,13.9c1,1.4,2,3,2.9,4.6c0.9,1.7,1.7,3.3,2.3,5
		s1.1,3.1,1.3,4.4l4.1-2C36.4,24.5,35.9,23.1,35.2,21.5z M32.1,23.1c-0.7-1.7-1.5-3.4-2.4-5.1c-0.7-1.3-1.5-2.6-2.3-3.8l1.9-0.9
		c0.9,1.2,1.7,2.5,2.5,3.8c0.9,1.6,1.7,3.2,2.4,4.8c0.5,1.2,0.9,2.4,1.2,3.5l-2.2,1.1C33,25.4,32.6,24.3,32.1,23.1z"/>
	<path class="st0" d="M83.1,11.5c-0.1,1.1-0.2,2.3-0.3,3.4c-0.1,1.2-0.3,2.3-0.4,3.5c-0.2,1.2-0.3,2.2-0.5,3.2
		c-0.2,1-0.3,1.9-0.5,2.6l4,1c0.2-0.4,0.3-0.7,0.5-1c0.2-0.3,0.5-0.7,0.8-1.1c1.2-1.5,2.8-2.6,4.7-3.5c1.9-0.8,3.9-1.2,6.2-1.2
		c1.2,0,2.2,0.2,3.1,0.6c0.9,0.4,1.6,0.9,2.1,1.6c0.5,0.7,0.8,1.5,0.8,2.4c0,1.6-0.7,3-2,4.2c-1.3,1.1-3.3,1.9-5.9,2.3
		c-2.6,0.4-5.8,0.4-9.7-0.1l1.3,4.4c3.8,0.3,7.1,0.3,9.7-0.1c2.7-0.4,4.8-1.1,6.5-2.1c1.7-1,2.9-2.2,3.6-3.7c0.7-1.5,1.1-3,1.1-4.8
		c0-1.5-0.4-2.9-1.2-4.2c-0.8-1.3-2-2.3-3.5-3.1c-1.5-0.8-3.4-1.2-5.5-1.2c-2.1,0-4.1,0.3-6,1c-1.9,0.6-3.8,1.6-5.5,3
		c0.1-0.6,0.2-1.3,0.3-2.1c0.1-0.8,0.2-1.7,0.4-2.6c0.1-0.9,0.3-1.8,0.4-2.6c0.1-0.8,0.3-1.5,0.4-2.1l-4.6-0.6
		C83.3,9.4,83.2,10.4,83.1,11.5z M83.8,15c0.1-1.2,0.2-2.3,0.3-3.5c0.1-0.7,0.1-1.4,0.2-2l2.5,0.3c-0.1,0.3-0.1,0.7-0.2,1.1
		c-0.1,0.8-0.3,1.7-0.4,2.6c-0.1,0.9-0.3,1.8-0.4,2.6l-0.6,4.5l1.9-1.5c1.7-1.3,3.4-2.2,5.2-2.8c1.8-0.6,3.7-0.9,5.7-0.9
		c2,0,3.7,0.4,5.1,1.1c1.4,0.7,2.4,1.6,3.1,2.7c0.7,1.1,1.1,2.3,1.1,3.7c0,1.6-0.3,3-1,4.3c-0.7,1.3-1.7,2.4-3.2,3.3
		c-1.5,0.9-3.6,1.6-6.1,2c-1.4,0.2-3.1,0.3-4.9,0.3c0,0,0,0,0,0c-1.2,0-2.6-0.1-4-0.2l-0.7-2.3c1.6,0.2,3.1,0.2,4.4,0.2
		c1.5,0,2.9-0.1,4.1-0.3c2.8-0.4,4.9-1.3,6.4-2.5c1.5-1.3,2.3-3,2.3-4.9c0-1.1-0.3-2.1-1-3c-0.6-0.8-1.5-1.5-2.5-1.9
		c-1-0.4-2.2-0.7-3.5-0.7c-2.4,0-4.6,0.4-6.6,1.3c-2,0.9-3.7,2.1-5.1,3.7c-0.3,0.4-0.7,0.8-0.9,1.2C85,23.8,85,23.9,84.9,24
		l-2.2-0.5c0.1-0.5,0.2-1.1,0.3-1.7c0.2-1,0.3-2.1,0.5-3.2C83.5,17.4,83.7,16.2,83.8,15z"/>
	<path class="st0" d="M42.1,14.4c0.8-0.1,1.5-0.2,2-0.3c0.6-0.1,1.3-0.2,2.3-0.3c0.4-0.1,0.9-0.1,1.4-0.2c-0.1,0.3-0.1,0.5-0.2,0.8
		c-0.4,1.3-0.8,2.7-1.3,4.2c-0.5,1.5-1.1,3.1-1.7,4.6c-0.6,1.6-1.3,3.1-2.1,4.6c-0.8,1.5-1.6,2.8-2.5,4l4.4,1.7
		c0.8-1.3,1.6-2.7,2.3-4.3c0.7-1.6,1.4-3.2,2-4.8c0.6-1.6,1.2-3.3,1.7-4.9c0.5-1.6,0.9-3.1,1.3-4.6c0.2-0.6,0.3-1.2,0.5-1.8
		c0.2,0,0.4,0,0.6-0.1c1-0.1,1.8-0.1,2.4-0.1c0.8,0,1.5,0.1,2.1,0.3c0.6,0.2,1,0.5,1.3,1c0.3,0.5,0.4,1.3,0.4,2.4
		c0,1.3-0.1,2.6-0.2,4c-0.1,1.4-0.3,2.7-0.5,3.9c-0.2,1.2-0.6,2.2-0.9,2.9c-0.3,0.7-0.7,1.1-1.2,1.4c-0.5,0.2-1.1,0.3-1.7,0.3
		c-0.3,0-0.8,0-1.3-0.1c-0.5-0.1-1.1-0.2-1.7-0.3c-0.6-0.1-1.1-0.3-1.6-0.4l0.7,4.5c0.6,0.1,1.4,0.2,2.2,0.4s1.6,0.2,2.3,0.2
		c1.4,0,2.6-0.2,3.6-0.7c1-0.5,1.8-1.4,2.4-2.7c0.6-1.1,1-2.4,1.3-4c0.3-1.6,0.5-3.3,0.7-5c0.1-1.7,0.2-3.4,0.2-4.8
		c0-1.8-0.3-3.2-0.9-4.2c-0.6-1-1.4-1.8-2.4-2.2c-1-0.4-2.1-0.6-3.4-0.6c-0.6,0-1.3,0-2.1,0.1c-0.4,0-0.9,0.1-1.4,0.1
		c0-0.1,0-0.2,0.1-0.3c0.1-0.7,0.3-1.5,0.4-2.2S53.9,5.5,54,5c0.1-0.5,0.2-0.9,0.3-1.5c0.1-0.5,0.2-1,0.3-1.4l-5.1-0.5
		c0,1.4-0.1,3-0.3,4.6c-0.2,1.2-0.4,2.4-0.6,3.6c0,0,0,0,0,0c-1,0.1-2,0.1-2.9,0.2c-0.9,0.1-1.6,0.1-2.2,0.1c-0.7,0-1.3,0-1.9,0.1
		c-0.6,0-1.3,0-1.9-0.1l0.4,4.6C40.6,14.6,41.3,14.5,42.1,14.4z M41.2,11.1l0.4,0c0.6,0,1.3,0,2-0.1c0.6,0,1.4-0.1,2.3-0.1l2.8-0.2
		h0.8l0.2-0.8c0.3-1.4,0.5-2.5,0.6-3.6c0.2-1.2,0.3-2.4,0.3-3.6L53.4,3c0,0.1,0,0.2-0.1,0.4c-0.1,0.5-0.2,1-0.3,1.4
		c-0.1,0.6-0.2,1.2-0.4,1.9c-0.2,0.7-0.3,1.5-0.4,2.2l-0.3,1.5l2.7-0.2c0.8-0.1,1.5-0.1,2.1-0.1c1.1,0,2.2,0.2,3,0.6
		c0.8,0.3,1.4,0.9,1.9,1.8c0.5,0.9,0.7,2.1,0.7,3.7c0,1.4-0.1,3-0.2,4.7c-0.1,1.7-0.4,3.4-0.7,4.9c-0.3,1.5-0.7,2.7-1.2,3.7
		c-0.5,1.1-1.2,1.9-2,2.3c-0.9,0.4-1.9,0.6-3.2,0.6c-0.7,0-1.4-0.1-2.2-0.2c-0.5-0.1-1-0.1-1.5-0.2l-0.4-2.3c0.1,0,0.1,0,0.2,0
		c0.6,0.1,1.2,0.2,1.8,0.3c0.6,0.1,1.1,0.1,1.4,0.1c0.8,0,1.5-0.1,2.1-0.4c0.7-0.3,1.3-0.9,1.7-1.8c0.4-0.8,0.7-1.9,1-3.2
		c0.2-1.2,0.4-2.6,0.5-4c0.1-1.4,0.2-2.8,0.2-4.1c0-1.3-0.2-2.2-0.6-2.9c-0.4-0.7-1-1.2-1.9-1.5C57,12.1,56.2,12,55.3,12
		c-0.6,0-1.4,0-2.5,0.1l-1.3,0.1L51.3,13c-0.1,0.6-0.3,1.1-0.5,1.8c-0.4,1.4-0.8,2.9-1.3,4.5c-0.5,1.6-1,3.2-1.7,4.8
		c-0.6,1.6-1.3,3.2-2,4.8c-0.6,1.3-1.2,2.4-1.8,3.5l-2.5-1c0.6-1,1.2-2,1.8-3.1c0.8-1.5,1.5-3.1,2.1-4.6c0.6-1.6,1.2-3.2,1.7-4.7
		c0.5-1.5,1-3,1.3-4.3l0.6-2.2l-1.5,0.2c-0.5,0.1-1,0.1-1.4,0.2c-1,0.1-1.8,0.2-2.3,0.3c-0.5,0.1-1.2,0.2-1.9,0.3
		c-0.4,0-0.7,0.1-1,0.1l-0.2-2.4C40.9,11.1,41.1,11.1,41.2,11.1z"/>
</g>
</svg>
