<?xml version="1.0" encoding="utf-8"?>
<!-- Generator: Adobe Illustrator 27.9.1, SVG Export Plug-In . SVG Version: 6.00 Build 0)  -->
<svg version="1.1" id="Layer_1" xmlns="http://www.w3.org/2000/svg" xmlns:xlink="http://www.w3.org/1999/xlink" x="0px" y="0px"
	 viewBox="0 0 140.6 65.2" style="enable-background:new 0 0 140.6 65.2;" xml:space="preserve">
<g>
	<path d="M0,45c0-10,7.4-15.8,11.6-16.5c-4-1-8.2-6-8.2-12.1C3.4,8.1,10.9,0,21.6,0C32.3,0,40,8,40,16.3c0,6.7-5,11.2-8.1,12.1
		c3.5,0.8,11.4,6.4,11.4,16.6c0,10.7-8.8,20.2-21.6,20.2C8.6,65.2,0,55.7,0,45z M30.6,44.2c0-4.9-4.2-8.8-9-8.8s-9.1,3.9-9.1,8.8
		c0,4.7,3.9,8.4,9,8.4S30.6,49,30.6,44.2z M27.9,17.3c0-3.8-2.9-5.7-6.2-5.7s-6.2,1.9-6.2,5.5c0,3.7,3,5.7,6.2,5.7
		C24.6,22.8,27.9,21.3,27.9,17.3z"/>
	<path d="M48.7,45c0-10,7.4-15.8,11.6-16.5c-4-1-8.2-6-8.2-12.1C52.1,8.1,59.5,0,70.3,0C81,0,88.7,8,88.7,16.3
		c0,6.7-5,11.2-8.1,12.1C84,29.2,91.9,34.8,91.9,45c0,10.7-8.8,20.2-21.6,20.2C57.3,65.2,48.7,55.7,48.7,45z M79.3,44.2
		c0-4.9-4.2-8.8-9-8.8s-9.1,3.9-9.1,8.8c0,4.7,3.9,8.4,9,8.4S79.3,49,79.3,44.2z M76.6,17.3c0-3.8-2.9-5.7-6.2-5.7s-6.2,1.9-6.2,5.5
		c0,3.7,3,5.7,6.2,5.7C73.3,22.8,76.6,21.3,76.6,17.3z"/>
	<path d="M97.4,45c0-10,7.4-15.8,11.6-16.5c-4-1-8.2-6-8.2-12.1C100.7,8.1,108.2,0,119,0c10.7,0,18.3,8,18.3,16.3
		c0,6.7-5,11.2-8.1,12.1c3.5,0.8,11.4,6.4,11.4,16.6c0,10.7-8.8,20.2-21.6,20.2C106,65.2,97.4,55.7,97.4,45z M128,44.2
		c0-4.9-4.2-8.8-9-8.8s-9.1,3.9-9.1,8.8c0,4.7,3.9,8.4,9,8.4S128,49,128,44.2z M125.3,17.3c0-3.8-2.9-5.7-6.2-5.7s-6.2,1.9-6.2,5.5
		c0,3.7,3,5.7,6.2,5.7C122,22.8,125.3,21.3,125.3,17.3z"/>
</g>
</svg>
