<?xml version="1.0" encoding="utf-8"?>
<!-- Generator: Adobe Illustrator 27.9.1, SVG Export Plug-In . SVG Version: 6.00 Build 0)  -->
<svg version="1.1" id="Layer_1" xmlns:inkscape="http://www.inkscape.org/namespaces/inkscape"
	 xmlns="http://www.w3.org/2000/svg" xmlns:xlink="http://www.w3.org/1999/xlink" x="0px" y="0px" viewBox="0 0 71.1 31.7"
	 style="enable-background:new 0 0 71.1 31.7;" xml:space="preserve">
<style type="text/css">
	.st0{fill:#070707;}
</style>
<g>
	<path class="st0" d="M4.9,12.2v1.1h1.7V15c-2.1,0.1-3.8,0.1-5.2,0.2l0,4.3c1.3,0,3,0,5.2-0.1v6.8c-2.1,0.2-4.2,0.4-6.2,0.6l0.9,4.5
		c2.9-0.3,5.4-0.5,7.5-0.7s4.6-0.6,7.3-1.2l0.3-4.8c-0.5,0.1-1,0.2-1.5,0.3c0.4-1.6,0.8-2.9,0.9-4L12.1,20c0,1-0.4,2.8-1.2,5.6v-6.3
		c2.5-0.1,4.1-0.1,4.8-0.2l-0.2-4.4c-1.3,0-2.8,0.1-4.6,0.2v-1.7c1.5,0,2.5-0.1,2.9-0.1l-0.1-2.6c0.3,0.3,0.6,0.7,0.9,1.1l2.3-2.3
		c-0.1,7.2-0.1,12.5-0.1,15.9v2.2c0,1.4,0.3,2.5,0.8,3.1s1.1,1,1.8,1.1c0.7,0.1,1.3,0.2,1.7,0.2c0.5,0,1.2-0.1,2.3-0.4
		c1-0.2,1.9-0.6,2.8-1.2l-0.6-5.3c1.5,2.2,2.8,4.5,4,6.9l4.9-2.4c-0.9-1.7-2-3.3-3.4-4.8c1.1-0.9,2.1-2.1,3.2-3.3L30.7,18
		c-0.7,0.9-1.5,1.7-2.3,2.4c-0.7-0.7-1.3-1.4-1.9-2l-4.1,2.2c1,1.3,2,2.7,3,4.1c-1.1,0.8-2.1,1.2-2.8,1.2c-0.6,0-1-0.4-1-1.2
		c-0.1-1.2-0.2-3.3-0.2-6.3c3.9-0.1,7.9-0.3,12.2-0.7c0.3-2.7,0.4-5.8,0.4-9.2c0-2.2-0.1-3.8-0.3-4.6s-0.6-1.5-1.3-2.1
		c-0.7-0.5-1.7-0.8-3.2-0.8c-1.5,0-4.1,0-7.9,0.1V0.4L17,0.9C17,3,17,5.1,16.9,7C15,5.2,13,3.4,11,1.6c0.1-0.3,0.2-0.6,0.3-0.9L7,0
		C6.3,2.2,5.5,4,4.3,5.6s-2.6,3.2-4.3,5l3.6,3C4,13.1,4.5,12.7,4.9,12.2z M23.9,20.8l2.3-1.2c0.4,0.5,0.9,1,1.4,1.5l0.6,0.6l0.7-0.5
		c0.7-0.5,1.3-1.1,1.8-1.7l2.1,1.8c-0.8,0.9-1.7,1.8-2.5,2.5l-0.8,0.7l0.7,0.7c1,1.2,2,2.4,2.7,3.7L30,30.4c-1-1.9-2.1-3.7-3.2-5.5
		l0,0L26.2,24C25.5,22.9,24.7,21.9,23.9,20.8z M17.7,25.1c0-3.4,0-8.7,0.1-15.9l0-1.6l0-0.6C18,5.4,18,3.6,18,1.8l2.4-0.3v0.6l1,0
		c3.7-0.1,6.4-0.1,7.8-0.1c1.6,0,2.3,0.3,2.6,0.6c0.5,0.4,0.8,0.9,0.9,1.5C32.9,4.8,33,6.3,33,8.4c0,3-0.1,5.8-0.3,8.3
		c-4,0.3-7.8,0.5-11.3,0.6l-1,0v1c0,3,0.1,5.1,0.2,6.4c0.1,1.5,1.1,2.1,2,2.1c0.6,0,1.3-0.2,2.1-0.6l0.4,3.4c-0.6,0.3-1.3,0.6-2,0.7
		c-1.2,0.3-1.7,0.3-2,0.3c-0.4,0-0.9-0.1-1.5-0.2c-0.4-0.1-0.8-0.3-1.2-0.8c-0.2-0.3-0.6-1-0.6-2.5L17.7,25.1z M9.9,12.2v3.8
		l4.6-0.2l0.1,2.4c-0.8,0-2.1,0.1-3.8,0.1l-1,0v7.3l2,0.3c0.5-2,0.9-3.5,1.1-4.6l1.7,0.4c-0.2,0.9-0.4,1.9-0.7,3l-0.4,1.6
		c0,0,1.8-0.4,1.8-0.4l-0.2,2.7c-2.4,0.5-4.5,0.9-6.4,1.1c-1.9,0.2-4.1,0.4-6.6,0.7l-0.5-2.5c1.7-0.1,3.4-0.3,5.2-0.5l0.9-0.1v-8.8
		l-1,0c-1.6,0.1-3,0.1-4.2,0.1l0-2.3L7.6,16v-3.7H5.9v-2.2l3.4-0.1c1.1,0,2.1-0.1,3-0.1l0.4,0l0.1,2.3C12.3,12.1,9.9,12.2,9.9,12.2z
		 M7.3,9c0.4-0.6,0.8-1.3,1.2-1.9C8.7,6.6,9,6.2,9.2,5.7c1.1,1,2.1,2.1,3.1,3.1c-0.9,0-1.9,0.1-3,0.1C8.6,9,7.9,9,7.3,9z M1.5,10.5
		C3,9,4.2,7.6,5.2,6.2C6.2,4.7,7,3,7.7,1.1L10,1.5L9.8,2l0.5,0.4c2,1.7,4,3.5,5.9,5.3l0.4,0.4L14.7,10c-0.1-0.1-0.1-0.1-0.2-0.2
		l-1.9-2.2l0,0.1C11.8,6.8,10.9,5.9,9.9,5L9,4.1L8.3,5.2C8.1,5.7,7.8,6.1,7.6,6.6C7.2,7.2,6.8,7.9,6.4,8.5l-1.1,1.6l0.1,0l-1.3,1.4
		C4,11.7,3.8,12,3.5,12.2L1.5,10.5z"/>
	<path class="st0" d="M30.6,7.4c0-1.2-0.2-1.9-0.7-2.4c-0.5-0.5-1.2-0.7-2.2-0.7c-0.2,0-1.1,0-6.2,0.3l-1,0v4.1l10.2-0.4V7.4z
		 M21.4,7.7V5.6c3.8-0.2,5.9-0.3,6.2-0.3c0.8,0,1.3,0.1,1.6,0.4s0.4,0.8,0.4,1.7L21.4,7.7z"/>
	<path class="st0" d="M29.3,14.6l0.9,0l0.3-4.4l-1.1,0.1c-2.9,0.2-5.6,0.3-8,0.4l-1,0v4.1h4C26.2,14.7,27.9,14.7,29.3,14.6z
		 M21.4,11.6c2.5-0.1,5.2-0.2,8.1-0.4l-0.2,2.4c-1.4,0.1-3,0.1-4.8,0.1h-3V11.6z"/>
	<path class="st0" d="M5.1,20.5l-3.5,1.1c0.6,1.6,1,3.2,1.4,4.7l3.6-1.6C6.2,23.5,5.8,22,5.1,20.5z M2.9,22.2l1.6-0.5
		c0.3,0.9,0.6,1.7,0.9,2.5l-1.7,0.7C3.4,24,3.2,23.1,2.9,22.2z"/>
	<path class="st0" d="M47.8,13.7C46,11.5,44.1,9.8,42,8.4l-4.5,2.6c2.2,1.8,4,3.6,5.3,5.4L47.8,13.7z M39.3,11.2L42,9.6
		c1.5,1,2.9,2.3,4.2,3.8l-3.1,1.8C42.1,13.9,40.8,12.5,39.3,11.2z"/>
	<path class="st0" d="M48.5,18.4l-4.8-1.6c-1.1,4.4-2.8,8.4-5.3,11.9l5.5,3C45.7,28.5,47.3,24.1,48.5,18.4z M39.8,28.3
		c2-3.1,3.6-6.5,4.6-10.2l2.9,1c-1,4.7-2.4,8.5-3.9,11.2L39.8,28.3z"/>
	<path class="st0" d="M42.8,0.4l-4.5,2.2c2.2,1.9,4,3.7,5.3,5.5l4.9-2.7C46.8,3.1,44.9,1.5,42.8,0.4z M43.9,6.8
		c-1-1.3-2.3-2.6-3.8-3.9l2.7-1.3C44.3,2.4,45.7,3.6,47,5L43.9,6.8z"/>
	<path class="st0" d="M57.6,18.4c0.1-0.7,0.2-1.8,0.2-3.3l0-0.5c0-0.4,0-1.8-1-2.3c-0.3-0.2-0.7-0.2-1.3-0.2c-0.4,0-0.9,0.1-1.6,0.3
		l-0.7,0.2v6.7h4.2L57.6,18.4z M56.6,18.2c-1.6,0-2.4,0-2.4,0c0-2.1,0-3.7,0-4.9c0.6-0.1,1-0.2,1.3-0.2c0.4,0,0.7,0,0.8,0.1
		c0.3,0.1,0.4,0.6,0.4,1.6l0,0.4C56.8,16.5,56.7,17.6,56.6,18.2z"/>
	<path class="st0" d="M60.9,22.4c0.2-3.2,0.3-5.9,0.3-7.9c0-3.5-1.1-5.3-3.2-5.6c-2.4-0.1-5.1,0.1-8.1,0.7c0,2.5,0.1,5.8,0.1,9.8
		v3.2C53.2,22.6,56.9,22.5,60.9,22.4z M56.9,9.9c0.4,0,0.7,0,1,0c0.5,0.1,2.3,0.3,2.3,4.6c0,1.8-0.1,4.2-0.3,6.9
		c-3.2,0.1-6.3,0.2-9,0.2v-2.1c0-3.6,0-6.6-0.1-9C53,10.1,55.1,9.9,56.9,9.9z"/>
	<path class="st0" d="M63.5,31.3c1.7,0,2.9-0.3,3.6-1c0.5-0.5,0.8-1,1-1.5c0.3-1.2,0.5-3.5,0.5-6.8c0-2.9-0.1-8.2-0.2-15.9
		c1.1,0,2-0.1,2.7-0.1l-0.3-5.4c-2.3,0-5.9,0.1-10.8,0.3C55,1,51.4,1.1,49,1l0.1,5.4c2.1,0,6.1-0.1,12.2-0.2l1.9,0
		c0,6.3,0,12,0.1,17c0,0.8-0.1,1.3-0.3,1.6c-0.2,0.3-0.4,0.4-0.7,0.5c-0.3,0.1-0.5,0.1-0.8,0.1c-0.5,0-1.4-0.2-2.8-0.4l0.4,6
		C61.1,31.2,62.6,31.3,63.5,31.3z M61.4,26.4C61.4,26.4,61.4,26.4,61.4,26.4c0.4,0,0.8,0,1.1-0.1c0.5-0.1,1-0.4,1.3-0.9
		c0.3-0.5,0.5-1.1,0.5-2.2c0-5.1-0.1-18.1-0.1-18.1l-2.9,0.1c-5.2,0.1-8.9,0.2-11.2,0.2L50,2c0,0,0,0,0.1,0C52.4,2,55.8,2,60,1.9
		c4.3-0.1,7.6-0.2,9.8-0.3L70,5c-0.5,0-2.7,0.1-2.7,0.1l0,1c0.1,7.7,0.2,13,0.2,15.9c0,3.2-0.2,5.4-0.5,6.6c-0.1,0.3-0.4,0.7-0.7,1
		c-0.5,0.5-1.4,0.7-2.6,0.7l-0.3,0c-0.8,0-1.9-0.1-3.5-0.2l-0.3-3.9C60.5,26.3,61.1,26.4,61.4,26.4z"/>
</g>
</svg>
