<?xml version="1.0" encoding="utf-8"?>
<!-- Generator: Adobe Illustrator 27.9.1, SVG Export Plug-In . SVG Version: 6.00 Build 0)  -->
<svg version="1.1" id="Layer_1" xmlns="http://www.w3.org/2000/svg" xmlns:xlink="http://www.w3.org/1999/xlink" x="0px" y="0px"
	 viewBox="0 0 579.1 66.1" style="enable-background:new 0 0 579.1 66.1;" xml:space="preserve">
<g>
	<path d="M12.6,36.8l18,26.2h0.1l18-26.2v27.2h12.6V0h-0.7L30.6,41.3L0.7,0H0v64.1h12.6V36.8z M10.1,61.6H2.5V6.7l28.1,38.8
		L58.7,6.8v54.8h-7.6V28.8L30.6,58.7L10.1,28.8V61.6z"/>
	<path d="M122.4,65.2V1.4h-12.6v35l-37-36h-0.6v63.8h12.6v-35l37.1,36.1H122.4z M119.9,59.9L82.2,23.2v38.4h-7.6v-56l37.7,36.6V3.9
		h7.6V59.9z"/>
	<path d="M171,13.9V1.4h-37.7v62.8h12.6V39.1h21.6V26.5h-21.6V13.9H171z M164.9,29v7.5h-21.6v25.1h-7.6V3.9h32.7v7.5h-25.1V29H164.9
		z"/>
	<path d="M197,52.7c-5.4,0-9.4-2-12.1-6.4l-10,7.1c4.2,7.8,11.8,12,22,12c13.4,0,22.7-7.3,22.7-18.7c0-9.6-6.5-14.9-16.9-19.8
		c-7.2-3.4-11.9-4.7-11.9-8.4c0-3.2,3.5-5.9,8.2-5.9c3.5,0,7.1,1.5,9,5.2l9.3-6.5c-2.8-7.6-9.9-11.1-18.4-11.1
		c-11.5,0-20.6,7.1-20.6,18c0,10,7.7,13.8,14.7,17.3c6.6,3.3,14,6.9,14,11.4C206.8,50.3,202.8,52.7,197,52.7z M194.3,33.5l-0.5-0.2
		c-6.9-3.4-13.4-6.6-13.4-15.1c0-9,7.6-15.5,18.1-15.5c4.3,0,11.8,1.1,15.3,7.7l-5.5,3.8c-2.3-2.7-5.7-4.2-9.6-4.2
		c-6,0-10.7,3.7-10.7,8.4c0,4.7,4.3,6.6,9.7,9c1.1,0.5,2.3,1,3.6,1.6c11.3,5.3,15.4,10.1,15.4,17.5c0,9.8-7.9,16.2-20.2,16.2
		c-8.3,0-14.7-3-18.6-8.8l6.1-4.3c3.1,3.6,7.4,5.5,12.7,5.5c7.3,0,12.4-3.4,12.4-8.2C209.3,40.9,201.7,37.1,194.3,33.5z"/>
	<path d="M251.3,64.1V14h15.4V1.6h-43.4V14h15.4v50.1H251.3z M225.8,11.5V4.1h38.4v7.5h-15.4v50.1h-7.6V11.5H225.8z"/>
	<path d="M291.9,1.6l-18.2,0v62.5h18.2c20.2,0,32.5-11.8,32.5-31.2C324.4,13.4,312.1,1.5,291.9,1.6z M291.9,61.6h-15.7V4.1l15.7,0
		c18.8,0,30,10.8,30,28.8C321.9,50.9,310.7,61.6,291.9,61.6z"/>
	<path d="M291.8,11.5h-8.1V54h8.2c13.7,0,22.3-8.1,22.3-21.2C314.2,19.7,305.7,11.5,291.8,11.5z M292,51.5h-5.7V14h5.6
		c12.4,0,19.9,7.1,19.9,18.9C311.7,44.5,304.3,51.5,292,51.5z"/>
	<path d="M326.2,58.1c0,4.4,3.6,8,8,8c4.4,0,8-3.6,8-8c0-4.3-3.7-8-8-8C329.8,50,326.2,53.7,326.2,58.1z M339.7,58.1
		c0,3-2.5,5.5-5.5,5.5c-3,0-5.5-2.5-5.5-5.5c0-3,2.5-5.5,5.5-5.5C337.2,52.5,339.7,55.1,339.7,58.1z"/>
	<path d="M419.4,51.5h-20.3c9-6.4,19.4-18.8,19.4-29.1c0-11.6-9.8-22.1-21.8-22.1C384.9,0.4,375,9.7,375,21l11.4,2.9
		c0-6,5-10.9,10.7-10.9c4,0,8.8,4.2,8.8,10.2c0,6.7-10.5,17.8-33.6,38.6v2.3h47V51.5z M416.9,61.6h-40.6
		c24.5-22.3,32.1-31.5,32.1-38.4c0-7.2-5.9-12.7-11.3-12.7c-6.1,0-11.4,4.5-12.8,10.3l-6.7-1.7c1.1-8.9,9.4-16.1,19.1-16.1
		c10.3,0,19.3,9.1,19.3,19.6c0,9-9.5,20.6-18.4,27l-6.3,4.5h25.5V61.6z"/>
	<path d="M450.7,10.6c-9.5,0-15.8,8.9-15.8,22.2c0,13.3,6.4,22.2,15.8,22.2s15.8-8.9,15.8-22.2C466.5,19.5,460.1,10.6,450.7,10.6z
		 M450.7,52.5c-8.1,0-13.3-8.1-13.3-19.7c0-11.6,5.2-19.7,13.3-19.7S464,21.3,464,32.8C464,44.3,458.8,52.5,450.7,52.5z"/>
	<path d="M450.7,0.4c-15.5,0-25.9,13.4-25.9,32.4c0,18.9,10.4,32.3,25.9,32.3c15.5,0,25.9-13.4,25.9-32.3
		C476.6,13.8,466.2,0.4,450.7,0.4z M450.7,62.7c-14,0-23.4-12-23.4-29.8c0-17.9,9.4-29.9,23.4-29.9c14,0,23.4,12,23.4,29.9
		C474.1,50.7,464.7,62.7,450.7,62.7z"/>
	<path d="M529.1,51.5h-20.3c9-6.4,19.4-18.8,19.4-29.1c0-11.6-9.8-22.1-21.8-22.1c-11.8,0-21.7,9.2-21.7,20.6l11.4,2.9
		c0-6,5-10.9,10.7-10.9c4,0,8.8,4.2,8.8,10.2c0,6.7-10.5,17.8-33.6,38.6v2.3h47V51.5z M526.6,61.6H486
		c24.5-22.3,32.1-31.5,32.1-38.4c0-7.2-5.9-12.7-11.3-12.7c-6.1,0-11.4,4.5-12.8,10.3l-6.7-1.7c1.1-8.9,9.4-16.1,19.1-16.1
		c10.3,0,19.3,9.1,19.3,19.6c0,9-9.5,20.6-18.4,27l-6.3,4.5h25.5V61.6z"/>
	<path d="M555.6,52.3c-3.5,0-6.7-1.7-8.6-4.7l-12.5,4c3.6,8.1,12.1,13.2,21.6,13.2c12.7,0,22.9-9,22.9-22.7
		c0-12.3-8.3-21.6-21.6-21.6c-3.3,0-5.9,0.6-8.1,2.1l1.4-8.6h22.9V1.5h-32.2L536.6,34l7,3.6c2.8-3.3,7.7-5,12-5
		c6.5,0,10.4,3.6,10.4,9.5C566,49.5,560.1,52.3,555.6,52.3z M568.5,42.1c0-7.3-5.1-12-12.9-12c-4.7,0-9.3,1.7-12.5,4.4l-3.8-1.9
		L543.5,4h27.6v7.5h-22.5L546,28.1l4.9-3.5c1.6-1.2,3.7-1.7,6.7-1.7c11.5,0,19.1,7.7,19.1,19.1c0,11.7-8.6,20.2-20.4,20.2
		c-7.5,0-14.3-3.5-18-9.2l7.9-2.5c2.4,2.7,5.8,4.2,9.5,4.2C562,54.8,568.5,50.4,568.5,42.1z"/>
</g>
</svg>
