<?xml version="1.0" encoding="utf-8"?>
<!-- Generator: Adobe Illustrator 27.9.1, SVG Export Plug-In . SVG Version: 6.00 Build 0)  -->
<svg version="1.1" id="Layer_1" xmlns:inkscape="http://www.inkscape.org/namespaces/inkscape"
	 xmlns="http://www.w3.org/2000/svg" xmlns:xlink="http://www.w3.org/1999/xlink" x="0px" y="0px" viewBox="0 0 178.8 31.9"
	 style="enable-background:new 0 0 178.8 31.9;" xml:space="preserve">
<style type="text/css">
	.st0{fill:#070707;}
</style>
<g>
	<path class="st0" d="M15.8,18.4h-2.7l0.1,3.5h10.2L21,23.1c0.7,0.8,1.3,2.2,1.9,3.9l4.3-1.8c-0.5-1.3-1.3-2.4-2.3-3.3
		c4.5,0,7.3,0,8.5-0.1c0.1-2.8,0.1-5.4,0.1-7.9c0-0.7,0-1.4-0.1-2c-0.2-1.3-0.7-2.1-1.6-2.5c0.7-1.6,1.2-3.4,1.5-5.4l-1.7-0.3
		l-1.1-3.5C26.4,1,20.7,1.4,13.5,1.5l0.9,3.9l-1,0.1c0.6,1.3,1,2.5,1.1,3.7l-1.1,0l-0.1,3.6C22,12.7,27,12.6,28,12.6
		c0.2,0,0.4,0,0.5,0.1c0.1,0.1,0.1,0.3,0.1,0.8l0,0.1c-0.8,0-5.7,0.1-14.8,0.3l0.1,3.5c3.2,0,8-0.1,14.6-0.3v1.2
		C23,18.4,18.7,18.4,15.8,18.4z M17.5,9.2L19,9c0-1-0.3-2-0.7-2.9C19,6,19.9,5.9,20.9,5.8c0.3,1,0.5,2.1,0.8,3.4L17.5,9.2z M27.1,9
		c0.3,0.1,0.5,0.1,0.7,0.2l-5.4,0l3.7-0.7c-0.1-1-0.3-2-0.6-3c0.8-0.2,1.8-0.4,3-0.6C28.2,6.5,27.7,7.9,27.1,9z"/>
	<path class="st0" d="M22.3,27.9c-0.4,0-0.7,0-1-0.1c-0.2-0.1-0.4-0.3-0.5-0.7c-0.1-0.4-0.1-1.7-0.2-4h-4.5l0,3.1
		c0,1.7,0.2,2.9,0.6,3.7c0.5,1,1.3,1.6,2.4,1.8c1.1,0.2,2,0.3,2.8,0.3c2.4,0,4.5-0.3,6.4-1l-0.1-4C24.9,27.6,22.9,27.9,22.3,27.9z"
		/>
	<path class="st0" d="M0.6,7c0.1,1.8,0.2,4.5,0.2,8.1c0,4.1-0.1,9.7-0.4,16.7l5.1,0l0-9.4c0-5.5-0.1-10.7-0.2-15.8L0.6,7z"/>
	<path class="st0" d="M12,21.7c0.2-0.8,0.3-1.4,0.3-1.9c0-0.5,0-1.1,0-1.9c0-1.8-0.6-3.8-1.9-5.8c0.8-1.6,1.3-2.8,1.7-3.7
		s0.5-1.8,0.5-2.6c0-2.2-0.6-3.7-1.8-4.4C9.9,0.7,9.1,0.4,8.3,0.4S7.1,0.3,7.1,0.3C5.9,0.3,3.5,0.5,0,1l0.7,4.6
		c2.9-0.5,4.8-0.7,5.6-0.7c1,0,1.5,0.6,1.5,1.9c0,1-0.7,2.6-2.1,5c1.1,2.6,1.7,4.2,1.9,4.8c0.1,0.5,0.2,0.9,0.2,1.3
		c0,1.4-0.4,2-1.3,2c-0.2,0-0.5,0-0.9-0.1L6.3,25l0.9,0c1.3,0,2.5-0.4,3.5-1.3C11.4,23.1,11.8,22.4,12,21.7z"/>
	<path class="st0" d="M9.8,29.7l4.1,1.9c1-2,1.6-4.5,1.7-7.3l-4.1-0.6C11.3,26.5,10.7,28.5,9.8,29.7z"/>
	<path class="st0" d="M27.8,23.9c0.7,1.9,1.4,4.2,2,7.1l4.5-2.3c-0.6-2.3-1.5-4.4-2.6-6.3L27.8,23.9z"/>
	<path class="st0" d="M46.1,17.4L41.2,21c3.1,6,8.3,9.5,15.6,10.6l2.3-5.7c-3.2-0.6-5.8-1.6-7.8-2.9C49.3,21.8,47.6,19.9,46.1,17.4z
		"/>
	<path class="st0" d="M58.2,4.6c-0.4-1.4-0.9-2.9-1.3-4.6l-6.1,0.7c0.4,1.6,0.9,3.2,1.3,4.6c-3.6,0.5-7.5,1.3-11.7,2.4l1.5,5.9
		c4.3-1.2,8.3-2.1,12.2-2.6c1.5,3.5,3.3,6.8,5.5,10.1l5.4-2.7c-1.9-2.8-3.4-5.4-4.6-7.9c2.5-0.1,5.2-0.1,7.9,0l0.2-5.8
		C65,4.4,61.6,4.4,58.2,4.6z"/>
	<path class="st0" d="M102.7,23.4c-0.2-0.2-0.4-0.8-0.4-1.6s0.1-2.5,0.4-4.9c0.2-2.4,0.4-4.1,0.4-4.9c0-2.1-0.5-3.7-1.4-4.8
		c-1-1.1-2.3-1.7-4.1-1.7c-1.3,0-2.8,0.3-4.5,0.9c-1.7,0.6-3.3,1.5-4.8,2.6c0.2-2.7,0.4-5.3,0.7-7.7L83,1c-0.2,1.8-0.4,3.6-0.6,5.5
		c-1.6-0.6-3.2-1.2-4.8-1.6l-1.7,5.6c1.3,0.4,3.3,1.1,6.1,2.2c0,0.3,0,0.7,0,1c-2.4,3.5-4.6,6.9-6.7,10.2l4.3,3.7
		c0.7-1.4,1.4-2.7,2.2-4c0,2.5,0.1,4.9,0.2,7.1l6-0.3c-0.3-3.8-0.3-8.5-0.1-14.1c1.6-1.4,3.2-2.6,4.8-3.6c1.6-1,2.9-1.4,3.8-1.4
		c0.3,0,0.6,0.1,0.7,0.3c0.1,0.2,0.2,0.7,0.2,1.5S97.3,15.5,97,18c-0.2,2.5-0.4,4.2-0.4,5c0,2.1,0.6,3.7,1.7,4.7s2.9,1.5,5.3,1.5
		c0.9,0,1.9-0.1,3-0.3l0.4-5.7c-0.9,0.3-1.8,0.4-2.7,0.4S103,23.6,102.7,23.4z"/>
	<path class="st0" d="M131.2,9.6l0.1-5.5c-1.2,0-2.3,0-3.3,0c-0.8,0-1.5,0-2.2,0c0.3-1.1,0.6-2,0.9-2.8l-6-0.9
		c-0.4,1.1-0.8,2.5-1.3,4.2c-2,0.2-4.3,0.7-6.9,1.3l0.8,5.7c1.6-0.4,3-0.7,4.4-0.9c-2,7-3.5,13.2-4.7,18.8l6.3,1.1
		c1.3-6.6,3-13.5,5-20.7c1.5-0.1,3-0.1,4.6-0.1C129.5,9.6,130.3,9.6,131.2,9.6z"/>
	<path class="st0" d="M127.7,16.5c3-0.5,6-0.8,9-0.8c1.3,0,2.6,0,3.9,0.1l0.2-5.5c-1.4-0.1-2.9-0.2-4.3-0.2c-3.3,0-6.5,0.3-9.5,0.9
		L127.7,16.5z"/>
	<path class="st0" d="M132.9,23.9c-1.9-0.4-3.9-1.2-6.2-2.2l-2.2,5.3c2.1,1.2,4.3,2,6.5,2.5c2.2,0.5,4.8,0.8,7.7,0.8
		c0.6,0,1.3,0,2,0l0.2-5.7c-0.5,0-0.9,0-1.3,0C137,24.6,134.8,24.4,132.9,23.9z"/>
	<path class="st0" d="M174.4,7.5c-1.5-0.2-3.3-0.4-5.3-0.4c-1.9,0-4,0-6.3,0.1c0.2-1.8,0.4-4,0.5-6.7l-5.9-0.2
		c0,2.9-0.2,5.3-0.5,7.3c-3.1,0.2-6.8,0.4-10.9,0.7l0.3,5.6c3.8-0.2,7-0.4,9.6-0.5c-0.8,5.7-4,10.7-9.4,15.1l6.2,3.3
		c5.4-5,8.6-11.3,9.5-18.8c2.5-0.1,4.4-0.1,5.6-0.1c1.9,0,3.1,0.1,3.6,0.4c1,0.5,1.5,1.2,1.6,2c0.1,0.8,0.1,1.8,0.1,2.9
		c0,3.3-0.2,5.4-0.6,6.3c-0.2,0.7-1,1.1-2.2,1.1c-1.7,0-3.5-0.4-5.2-1.3l0,6.2c1.9,0.7,3.5,1.1,4.7,1.2c1.2,0.1,1.9,0.2,2.1,0.2
		c1.5,0,2.8-0.2,3.7-0.7s1.6-1.4,2-2.7c0.4-1.3,0.7-3.2,0.9-5.5c0.2-2.3,0.2-4.4,0.2-6.1c0-3.1-0.4-5.5-1.2-7
		C176.9,8.5,175.9,7.7,174.4,7.5z"/>
</g>
</svg>
