<?xml version="1.0" encoding="utf-8"?>
<!-- Generator: Adobe Illustrator 27.9.1, SVG Export Plug-In . SVG Version: 6.00 Build 0)  -->
<svg version="1.1" id="Layer_1" xmlns:inkscape="http://www.inkscape.org/namespaces/inkscape"
	 xmlns="http://www.w3.org/2000/svg" xmlns:xlink="http://www.w3.org/1999/xlink" x="0px" y="0px" viewBox="0 0 143.2 32.4"
	 style="enable-background:new 0 0 143.2 32.4;" xml:space="preserve">
<style type="text/css">
	.st0{fill:#070707;}
</style>
<g>
	<path class="st0" d="M33.2,24.4L33.1,20l-13.4,0.2c0.1-0.4,0.1-0.9,0.1-1.3l-6.8-0.1c0,0.5-0.1,1.1-0.2,1.6
		c-5.1,0.1-9.2,0.2-12.2,0.2L0.8,25l10.9-0.2c-1.7,1.3-5.1,2.3-10.4,2.9l2.2,4.1c5.8-0.4,10.3-1.9,13.5-4.4c4.7,1.1,9,2.5,13,4.2
		l3.2-4.2c-2.4-1.1-6.1-2.1-11.2-2.9L33.2,24.4z"/>
	<path class="st0" d="M19.4,13.7v-1.3l11.3-0.3l-0.1-4.4L19.3,7.9c0-0.7,0-1.2-0.1-1.4C26.5,6.4,30.8,6.3,32,6.3l-0.1-4.2l-5.2,0.1
		c0.2-0.6,0.4-1.1,0.7-1.7l-6-0.5l-0.8,2.3l-7.5,0.2c-0.4-0.9-0.9-1.7-1.4-2.5l-6,0.8l1.2,1.7c-2,0-3.8,0.1-5.7,0.1l0.2,4.2
		l12.1-0.2c0,0.4,0,0.9,0,1.4L2.7,8.5l0.1,4.4c3.1,0,6.6-0.1,10.7-0.3l0,1.3C8.5,14,4,14.1,0,14.1l0.1,4.5c3.1-0.1,9.2-0.2,18.2-0.4
		c9-0.1,14.2-0.3,15.5-0.3l-0.2-4.5C29.6,13.5,24.8,13.6,19.4,13.7z"/>
	<path class="st0" d="M59.4,23.1c-1.6,1-3.3,1.5-5,1.5c-1.8,0-3.1-0.5-3.9-1.4c-0.8-0.9-1.3-2.3-1.3-4.2c0-1.7,0.3-4.2,0.9-7.3
		c0.6-3.2,1.4-6.4,2.4-9.7L46,1c-0.9,3.3-1.6,6.8-2.2,10.4c-0.6,3.6-0.9,6.4-0.9,8.5c0,3.5,1,6.2,3,8.1c2,1.9,4.8,2.9,8.5,2.9
		c2.8,0,5.4-0.6,7.8-1.9c2.4-1.2,4.8-3.3,7.2-6l-4.6-4.8C62.8,20.5,61,22.1,59.4,23.1z"/>
	<path class="st0" d="M97.5,5.6l-4.8,3.9c1.5,1.2,3.2,2.9,5.1,5.1c2,2.2,3.5,4.1,4.5,5.6l4.8-4c-1-1.5-2.5-3.4-4.4-5.5
		C100.7,8.5,99,6.8,97.5,5.6z"/>
	<path class="st0" d="M88.1,22c-0.7,0.8-1.4,1.1-2.1,1.1c-1.3,0-2.3-1.7-3-5.1c-0.6-3.4-0.9-8.2-0.7-14.3l-6.3,0.2
		c-0.2,8.9,0.5,15.4,2.1,19.6c1.6,4.2,4.1,6.2,7.6,6.2c2,0,3.9-0.6,5.6-1.9s3.1-3,4.1-5.2l-5.5-3.4C89.4,20.3,88.8,21.3,88.1,22z"/>
	<path class="st0" d="M123,25.1l20.2-0.3l-0.6-3.8c-4.7,0-10,0.1-16,0.2c-6,0.1-11.7,0.2-17.3,0.2l0.2,3.9l5.8,0
		c-1.4,1.1-2.3,2.1-2.5,2.9c-0.2,0.4-0.3,0.9-0.3,1.3c0,0.7,0.2,1.3,0.7,1.8s1.1,0.8,2,0.9c1,0.1,2.2,0.2,3.6,0.2
		c3.9,0,9.1-0.3,15.6-1c0.3,0.3,0.6,0.7,0.9,1.2l6.5-1.1c-1.7-2.4-3.9-4.4-6.5-6.2l-6.2,0.9c1.6,1,2.5,1.5,2.6,1.7
		c-4.5,0.4-8,0.7-10.4,0.7c-1.1,0-1.6,0-1.7-0.1c0-0.1-0.1-0.2-0.1-0.2C119.6,27.6,120.7,26.7,123,25.1z"/>
	<path class="st0" d="M136.1,15.4l0.7-2.3c-2-0.4-4-0.6-6.3-0.6l-0.7,2.3C131.9,14.8,134.1,15,136.1,15.4z"/>
	<path class="st0" d="M141.9,6c-0.6-0.3-1.2-0.4-1.9-0.5c-0.7-0.1-1.5-0.1-2.6-0.1c-4.4,0-7.3,0-8.7,0l-0.1-1c0,0,0-0.1,0-0.3
		l11.4,0l-0.4-3.9c-16.3,0.2-25.3,0.3-27.2,0.3l0.1,3.9c2.7-0.1,6.4-0.1,11.2-0.1c0,0.3,0.1,0.8,0.1,1.4l-8.8,0.1V5l-5.2,0.1
		c0.1,2.5,0.1,4.4,0.1,5.8l0,4.4l5.4,0.1l0-3c0-0.6-0.1-1.5-0.2-2.9l8.8-0.3c0,2.1-0.1,4.1-0.4,6l5.4,0.2l0-2.9c0-0.7,0-1.8-0.1-3.3
		h7.8c0.9,0,1.3,0.7,1.3,2c0,1.3-0.1,2.6-0.4,4.1l5.4,0.1c0.1-1.4,0.2-2.6,0.2-3.7c0-1.3-0.1-2.7-0.3-4C142.8,6.8,142.4,6.3,141.9,6
		z"/>
	<path class="st0" d="M136.4,12.4l0.7-2.2c-1.9-0.4-4-0.6-6.3-0.6l-0.7,2.3l0.8,0C132.6,11.9,134.4,12,136.4,12.4z"/>
	<path class="st0" d="M122.8,10.4c-1.9-0.3-4-0.5-6.2-0.5l-0.7,2.3c2.2,0,4.3,0.2,6.3,0.5L122.8,10.4z"/>
	<path class="st0" d="M112.7,20.1c17.3-0.2,26.4-0.3,27.5-0.4l-0.6-4c-3.6,0-8.1,0.1-13.7,0.2c-5.5,0.1-10,0.1-13.5,0.2L112.7,20.1z
		"/>
	<path class="st0" d="M116.2,15.1c1.7,0,3.6,0.2,5.6,0.5l0.7-2.3c-1.9-0.3-4-0.4-6.3-0.4l-0.7,2.3L116.2,15.1z"/>
</g>
</svg>
