<?xml version="1.0" encoding="utf-8"?>
<!-- Generator: Adobe Illustrator 27.9.1, SVG Export Plug-In . SVG Version: 6.00 Build 0)  -->
<svg version="1.1" id="Layer_1" xmlns="http://www.w3.org/2000/svg" xmlns:xlink="http://www.w3.org/1999/xlink" x="0px" y="0px"
	 viewBox="0 0 265.1 35.6" style="enable-background:new 0 0 265.1 35.6;" xml:space="preserve">
<style type="text/css">
	.st0{fill:#282828;}
</style>
<g>
	<path class="st0" d="M246.4,3.8c-1.1,1.4-2.5,2.8-4.1,4.2c-1.7,1.4-3.5,2.8-5.5,4.1c-2,1.3-4.1,2.5-6.2,3.5
		c-0.2-0.3-0.4-0.7-0.7-1.1c-0.3-0.4-0.6-0.8-0.9-1.2c-0.3-0.4-0.6-0.8-0.9-1c2.2-1,4.3-2.1,6.4-3.5c2.1-1.4,3.9-2.8,5.6-4.3
		c1.7-1.5,3-3,4-4.4h4.3c1.1,1.3,2.2,2.5,3.6,3.7c1.3,1.2,2.7,2.3,4.1,3.3c1.5,1,3,1.9,4.5,2.7c1.5,0.8,3.1,1.5,4.6,2.1
		c-0.5,0.5-1,1.1-1.4,1.8c-0.5,0.7-0.9,1.3-1.3,1.9c-1.4-0.7-2.9-1.5-4.4-2.4c-1.5-0.9-3-1.8-4.4-2.9c-1.4-1-2.8-2.1-4-3.2
		C248.3,5.9,247.3,4.9,246.4,3.8z M20.1,0l4.1,0.4c-0.3,1.1-0.5,2.3-0.8,3.5c-0.3,1.2-0.6,2.4-0.9,3.6c-0.3,1.2-0.6,2.2-0.8,3.1
		l-4.1,0c0.3-0.9,0.6-2,0.9-3.2c0.3-1.2,0.6-2.4,0.9-3.7C19.7,2.4,19.9,1.2,20.1,0z M54.3,0.1h4.4c0,1.8,0,3.8-0.1,5.9
		c-0.1,2.1-0.3,4.3-0.6,6.4c-0.3,2.2-0.8,4.4-1.5,6.5c-0.7,2.2-1.6,4.3-2.9,6.3s-2.8,3.9-4.7,5.6c-1.9,1.7-4.2,3.2-6.9,4.5
		c-0.3-0.6-0.8-1.2-1.4-1.8C40.2,33,39.6,32.4,39,32c2.6-1.2,4.8-2.6,6.6-4.1c1.8-1.5,3.2-3.2,4.3-5.1c1.1-1.8,2-3.7,2.6-5.7
		c0.6-2,1-4,1.2-5.9c0.2-2,0.4-3.9,0.4-5.8C54.2,3.5,54.2,1.7,54.3,0.1z M9.2,0.2L13,1.4c-0.8,2.1-1.8,4.2-3,6.3
		c-1.2,2.1-2.4,4-3.7,5.9c-1.3,1.8-2.7,3.5-4.1,4.9c-0.1-0.3-0.3-0.8-0.6-1.3c-0.3-0.5-0.5-1-0.8-1.6c-0.3-0.5-0.5-1-0.8-1.3
		c1.2-1.1,2.4-2.5,3.6-4c1.2-1.5,2.2-3.1,3.2-4.9C7.7,3.7,8.5,1.9,9.2,0.2z M191.3,3.3l3.1-2.3c0.7,0.6,1.5,1.2,2.3,1.9
		c0.8,0.7,1.5,1.4,2.2,2.1c0.7,0.7,1.2,1.4,1.6,2l-3.3,2.5c-0.4-0.6-0.8-1.3-1.5-2.1c-0.6-0.8-1.3-1.5-2.1-2.3
		C192.8,4.6,192,3.9,191.3,3.3z M201.4,1.3h23.9v5.1h-3.8V4.2H205v2.2h-3.6V1.3z M131.3,1.7c-0.2,0.6-0.4,1.4-0.6,2.4
		c-0.3,1-0.5,2-0.8,3.1c-0.3,1.1-0.6,2.2-1,3.2c-0.6,1.8-1.3,3.8-2.2,5.8c-0.9,2-1.9,4-3,6c-1.1,1.9-2.1,3.7-3.2,5.1l-4.1-2.1
		c0.9-1,1.7-2.2,2.5-3.5c0.8-1.3,1.6-2.6,2.4-4c0.7-1.4,1.4-2.7,2-4c0.6-1.3,1.1-2.5,1.4-3.5c0.5-1.3,0.9-2.8,1.2-4.4
		c0.4-1.6,0.6-3.1,0.6-4.6L131.3,1.7z M13.6,2.8h19.2v7.3h-4V5.9H13.6V2.8z M86.4,3.3c-0.1,0.2-0.2,0.6-0.3,1
		c-0.1,0.4-0.2,0.8-0.3,1.2c-0.1,0.4-0.2,0.7-0.2,1c-0.1,0.6-0.2,1.3-0.4,2.1c-0.2,0.9-0.3,1.8-0.5,2.9c-0.2,1.1-0.3,2.1-0.5,3.2
		c-0.1,1.1-0.3,2.1-0.4,3.2c-0.1,1-0.2,1.9-0.2,2.7c0,0.5,0,1.1,0.1,1.6c0,0.6,0.1,1.1,0.1,1.6c0.2-0.5,0.4-0.9,0.6-1.4
		c0.2-0.5,0.4-1,0.6-1.5c0.2-0.5,0.4-1,0.6-1.4l2.2,1.7c-0.4,1-0.7,2.1-1.1,3.3c-0.4,1.2-0.7,2.3-1,3.3c-0.3,1-0.5,1.9-0.7,2.5
		c-0.1,0.3-0.1,0.6-0.1,1c0,0.4-0.1,0.6-0.1,0.8c0,0.2,0,0.4,0,0.7c0,0.3,0,0.5,0.1,0.8l-3.9,0.3c-0.4-1.3-0.7-3.1-1-5.2
		c-0.3-2.2-0.5-4.5-0.5-7.1c0-1.4,0.1-2.9,0.2-4.3c0.1-1.5,0.3-2.9,0.5-4.2c0.2-1.4,0.4-2.6,0.5-3.7C81,8,81.2,7,81.3,6.3
		c0.1-0.5,0.1-1.1,0.2-1.7c0.1-0.6,0.1-1.2,0.2-1.7L86.4,3.3z M160.1,3.5c0.5,0.1,1.1,0.1,1.6,0.1c0.6,0,1.1,0.1,1.6,0.1
		c0.4,0,1,0,1.9,0c0.8,0,1.8-0.1,2.8-0.1c1,0,2.1-0.1,3.1-0.1c1.1,0,2-0.1,2.8-0.1c0.8-0.1,1.5-0.1,1.9-0.1c0.7-0.1,1.3-0.1,1.7-0.2
		c0.4-0.1,0.7-0.1,1-0.2l2.2,3.1c-0.4,0.3-0.8,0.5-1.3,0.8c-0.4,0.3-0.8,0.6-1.3,0.9c-0.5,0.4-1.1,0.8-1.9,1.4
		c-0.7,0.6-1.5,1.2-2.4,1.9c-0.8,0.7-1.7,1.4-2.5,2c-0.8,0.7-1.5,1.3-2.2,1.8c0.7-0.2,1.4-0.4,2.1-0.4c0.7-0.1,1.3-0.1,2-0.1
		c2.1,0,4,0.4,5.7,1.2c1.7,0.8,3,1.9,4,3.3s1.5,3,1.5,4.8c0,2-0.5,3.8-1.5,5.4s-2.5,2.9-4.6,3.8c-2,0.9-4.5,1.4-7.5,1.4
		c-1.7,0-3.3-0.2-4.7-0.7c-1.4-0.5-2.4-1.2-3.2-2.1c-0.8-0.9-1.2-2-1.2-3.2c0-1,0.3-1.9,0.8-2.8c0.5-0.9,1.3-1.6,2.3-2.1
		c1-0.5,2.1-0.8,3.4-0.8c1.7,0,3.2,0.3,4.4,1c1.2,0.7,2.1,1.6,2.7,2.8c0.6,1.2,1,2.4,1,3.8l-4,0.6c-0.1-1.4-0.4-2.6-1.2-3.5
		c-0.7-0.9-1.7-1.4-3-1.4c-0.8,0-1.4,0.2-1.8,0.6c-0.5,0.4-0.7,0.9-0.7,1.4c0,0.8,0.4,1.4,1.2,1.8c0.8,0.5,1.8,0.7,3.1,0.7
		c2.1,0,3.9-0.3,5.4-0.8c1.5-0.5,2.6-1.3,3.4-2.3c0.8-1,1.1-2.2,1.1-3.6c0-1.2-0.4-2.2-1.1-3.1c-0.7-0.9-1.7-1.6-2.9-2.1
		c-1.2-0.5-2.6-0.8-4.1-0.8c-1.5,0-2.9,0.2-4.1,0.6c-1.2,0.4-2.4,0.9-3.5,1.5c-1.1,0.7-2.1,1.5-3.2,2.4s-2.1,2-3.2,3.2l-3.1-3.2
		c0.7-0.6,1.5-1.2,2.4-1.9c0.9-0.7,1.8-1.5,2.7-2.2c0.9-0.8,1.8-1.5,2.6-2.2c0.8-0.7,1.5-1.3,2.1-1.7c0.5-0.4,1.2-1,1.9-1.6
		c0.7-0.6,1.5-1.2,2.3-1.9c0.8-0.7,1.5-1.3,2.2-1.9c0.7-0.6,1.3-1.1,1.7-1.5c-0.4,0-0.9,0-1.6,0.1c-0.7,0-1.4,0.1-2.2,0.1
		c-0.8,0-1.6,0.1-2.4,0.1c-0.8,0-1.5,0.1-2.2,0.1c-0.7,0-1.2,0.1-1.6,0.1c-0.5,0-1,0.1-1.5,0.1c-0.5,0-1,0.1-1.4,0.2L160.1,3.5z
		 M211.2,4.9h4v25.2h-4V4.9z M116.9,7.6c0.8,0.1,1.6,0.1,2.5,0.2c0.9,0,1.7,0.1,2.4,0.1c1.5,0,3.1-0.1,4.6-0.2
		c1.6-0.2,3.1-0.4,4.6-0.7c1.5-0.3,2.9-0.6,4.2-1l0.1,4c-1.1,0.3-2.5,0.6-4,0.9c-1.5,0.3-3.1,0.5-4.7,0.7c-1.6,0.2-3.3,0.3-4.9,0.3
		c-0.7,0-1.5,0-2.3,0c-0.8,0-1.6-0.1-2.4-0.1L116.9,7.6z M92.6,5.9c1.1,0.2,2.4,0.3,3.9,0.4c1.4,0.1,2.9,0.1,4.4,0.1
		c1.5,0,2.9-0.1,4.3-0.2c1.4-0.1,2.6-0.2,3.6-0.3v4.4c-1.1,0.1-2.4,0.2-3.8,0.2c-1.4,0.1-2.8,0.1-4.3,0.1c-1.5,0-2.9,0-4.3-0.1
		c-1.4-0.1-2.7-0.1-3.8-0.2L92.6,5.9z M147,15.3c-0.7-0.6-1.6-1.2-2.7-1.9c-1.1-0.7-2.2-1.3-3.3-1.9c-1.1-0.6-2.1-1.1-3-1.5l2.2-3.3
		c0.7,0.3,1.5,0.7,2.3,1.1c0.9,0.4,1.7,0.9,2.6,1.4c0.9,0.5,1.7,1,2.5,1.4c0.8,0.5,1.4,0.9,1.8,1.2L147,15.3z M5.2,10.5L9,6.7l0,0
		v28.8H5.2V10.5z M202.4,7.1h21.7V10h-21.7V7.1z M11,8.4h25.4v3.2H11V8.4z M238.8,9.8h15.4v3.6h-15.4V9.8z M39.7,10.5h33.7v4.2H39.7
		V10.5z M203.3,11.6h20.1v11.1h-20.1V11.6z M59,12.2c0.8,2.9,1.9,5.7,3.2,8.2c1.4,2.5,3,4.8,5,6.7c2,1.9,4.3,3.4,7,4.5
		c-0.3,0.3-0.7,0.7-1.1,1.1c-0.4,0.5-0.7,0.9-1.1,1.4c-0.4,0.5-0.6,0.9-0.9,1.3c-2.8-1.3-5.3-3.1-7.4-5.3c-2.1-2.2-3.9-4.7-5.3-7.5
		c-1.4-2.9-2.6-6-3.6-9.5L59,12.2z M13.9,13.1h19.8v8.4H13.9V13.1z M140.2,13.6c-0.1,0.8-0.1,1.6-0.1,2.3c0,0.7,0,1.5,0,2.3
		c0,0.6,0.1,1.3,0.1,2.2c0,0.9,0.1,1.9,0.1,2.9c0.1,1,0.1,2,0.1,2.9c0,0.9,0.1,1.7,0.1,2.2c0,1.1-0.2,2.1-0.7,3.1
		c-0.5,0.9-1.2,1.7-2.3,2.2c-1,0.5-2.4,0.8-4.2,0.8c-1.5,0-2.9-0.2-4.1-0.7c-1.2-0.4-2.2-1.1-3-2c-0.7-0.9-1.1-2-1.1-3.4
		c0-1.2,0.3-2.3,1-3.3c0.7-1,1.6-1.7,2.9-2.3c1.2-0.5,2.7-0.8,4.3-0.8c2.2,0,4.2,0.3,6.1,0.9c1.9,0.6,3.5,1.4,5,2.4
		c1.5,1,2.7,1.9,3.8,2.8l-2.3,3.6c-0.7-0.6-1.5-1.3-2.4-2.1c-0.9-0.7-1.9-1.4-2.9-2.1c-1.1-0.6-2.3-1.2-3.5-1.6
		c-1.3-0.4-2.6-0.6-4-0.6c-1.2,0-2.1,0.2-2.9,0.7c-0.7,0.5-1.1,1.1-1.1,1.8c0,0.7,0.3,1.3,0.9,1.8c0.6,0.5,1.5,0.7,2.7,0.7
		c0.9,0,1.6-0.2,2.2-0.5c0.5-0.3,0.9-0.7,1.1-1.3c0.2-0.5,0.3-1.2,0.3-1.8c0-0.6,0-1.5-0.1-2.5c-0.1-1.1-0.1-2.3-0.2-3.6
		c-0.1-1.3-0.1-2.6-0.2-3.9c-0.1-1.3-0.1-2.4-0.1-3.4H140.2z M206.8,14.2V16h12.9v-1.8H206.8z M199.4,14.9v13.9h-3.9V18.7h-4.4v-3.8
		H199.4z M17.7,16v2.6h12V16H17.7z M257.3,16.1h3.9v11.6c0,0.9-0.1,1.6-0.3,2.2c-0.2,0.6-0.6,1-1.3,1.3c-0.6,0.3-1.4,0.5-2.3,0.6
		c-0.9,0.1-2.1,0.1-3.3,0.1c-0.1-0.6-0.2-1.2-0.4-1.9c-0.2-0.7-0.5-1.3-0.7-1.8c0.8,0,1.6,0,2.3,0.1c0.7,0,1.2,0,1.5,0
		c0.2,0,0.4-0.1,0.5-0.2c0.1-0.1,0.1-0.2,0.1-0.5V16.1z M247.4,16.1h11v3.6h-7.1v16h-3.9V16.1z M234.1,16.1h10.6v13.5h-10.6v-3.6
		h6.9v-6.4h-6.9V16.1z M232.4,16.1h3.6v16.6h-3.6V16.1z M206.8,18.4v1.8h12.9v-1.8H206.8z M23.8,19.9h4v15.6h-4V19.9z M95.2,21.9
		c-0.2,0.7-0.3,1.2-0.3,1.7c-0.1,0.5-0.1,1-0.1,1.5c0,0.4,0.1,0.8,0.3,1.2c0.2,0.4,0.5,0.7,1,0.9c0.4,0.3,1,0.5,1.7,0.6
		c0.7,0.1,1.6,0.2,2.7,0.2c1.7,0,3.3-0.1,4.8-0.2c1.5-0.2,3.1-0.4,4.7-0.8l0.1,4.6c-1.2,0.3-2.6,0.4-4.2,0.6
		c-1.6,0.1-3.4,0.2-5.5,0.2c-3.2,0-5.6-0.5-7.2-1.6c-1.6-1.1-2.3-2.6-2.3-4.5c0-0.7,0.1-1.4,0.2-2.2c0.1-0.8,0.3-1.6,0.5-2.6
		L95.2,21.9z M12.3,23.1h23.3v3H12.3V23.1z M15.4,23.8h3.9v5.7h-3.9V23.8z M201,24.3h24.8v3H201V24.3z M199.4,27.1
		c0.8,1.3,1.9,2.2,3.3,2.9c1.4,0.6,3.1,1,5.1,1c1.1,0.1,2.5,0.1,4.1,0.1c1.6,0,3.2,0,5,0c1.7,0,3.4-0.1,5.1-0.1
		c1.7-0.1,3.1-0.1,4.4-0.2c-0.2,0.3-0.3,0.7-0.5,1.2c-0.2,0.5-0.3,1-0.5,1.5c-0.1,0.5-0.2,0.9-0.3,1.3c-1.1,0.1-2.5,0.1-4,0.1
		c-1.5,0-3.1,0.1-4.7,0.1c-1.6,0-3.2,0-4.7,0c-1.5,0-2.8-0.1-3.9-0.1c-2.4-0.1-4.4-0.5-6-1.1c-1.6-0.7-3-1.7-4.2-3.2
		c-0.8,0.8-1.6,1.5-2.4,2.3c-0.8,0.8-1.7,1.6-2.7,2.4l-2-4c0.8-0.6,1.7-1.2,2.6-1.9c0.9-0.7,1.8-1.4,2.6-2.1H199.4z M11.1,28.8h25.2
		v3.1H11.1V28.8z"/>
</g>
</svg>
