<?xml version="1.0" encoding="utf-8"?>
<!-- Generator: Adobe Illustrator 27.9.1, SVG Export Plug-In . SVG Version: 6.00 Build 0)  -->
<svg version="1.1" id="Layer_1" xmlns:inkscape="http://www.inkscape.org/namespaces/inkscape"
	 xmlns="http://www.w3.org/2000/svg" xmlns:xlink="http://www.w3.org/1999/xlink" x="0px" y="0px" viewBox="0 0 70.8 32.3"
	 style="enable-background:new 0 0 70.8 32.3;" xml:space="preserve">
<style type="text/css">
	.st0{fill:#070707;}
</style>
<g>
	<path class="st0" d="M6,25.1c-1.4,1.1-2.3,2.1-2.5,2.9c-0.2,0.4-0.3,0.9-0.3,1.3c0,0.7,0.2,1.3,0.7,1.8s1.1,0.8,2,0.9
		c1,0.1,2.2,0.2,3.6,0.2c3.9,0,9.1-0.3,15.6-1c0.3,0.3,0.6,0.7,0.9,1.2l6.5-1.1c-1.7-2.4-3.9-4.4-6.5-6.2l-6.2,0.9
		c1.6,1,2.5,1.5,2.6,1.7c-4.5,0.4-8,0.7-10.4,0.7c-1.1,0-1.6,0-1.7-0.1c0-0.1-0.1-0.2-0.1-0.2c0-0.3,1.1-1.2,3.4-2.8l20.2-0.3
		l-0.6-3.8c-4.7,0-10,0.1-16,0.2c-6,0.1-11.7,0.2-17.3,0.2l0.2,3.9L6,25.1z M17.3,22.1c5.6-0.1,10.6-0.2,15.1-0.2l0.3,1.8l-19.4,0.3
		l-0.3,0.2c-3.6,2.6-3.8,3-3.8,3.6c0,0.3,0.1,0.5,0.2,0.7c0.3,0.7,1.1,0.7,2.6,0.7c2.4,0,5.9-0.2,10.5-0.7l2.1-0.2l-1.5-1.5
		c-0.1-0.1-0.1-0.1-0.5-0.4l3.1-0.4c1.9,1.3,3.6,2.8,5,4.4l-4.2,0.7c-0.2-0.3-0.5-0.6-0.7-0.8l-0.3-0.3l-0.4,0
		c-6.5,0.7-11.7,1-15.5,1C8.1,31.2,7,31.1,6,31c-0.7-0.1-1.1-0.3-1.4-0.6s-0.4-0.6-0.4-1.1c0-0.3,0.1-0.6,0.2-0.9
		c0.1-0.5,0.6-1.3,2.2-2.5L9,24.1l-7.8,0.1l-0.1-1.9C6.3,22.3,11.7,22.2,17.3,22.1z"/>
	<path class="st0" d="M6.9,15c1.7,0,3.6,0.2,5.6,0.5l0.7-2.3c-1.9-0.3-4-0.4-6.3-0.4l-0.7,2.3L6.9,15z M7.6,13.8
		c1.5,0,2.9,0.1,4.3,0.3l-0.1,0.3c-1.5-0.2-2.9-0.4-4.2-0.4L7.6,13.8z"/>
	<path class="st0" d="M13.4,10.3c-1.9-0.3-4-0.5-6.2-0.5l-0.7,2.3c2.2,0,4.3,0.2,6.3,0.5L13.4,10.3z M12.1,11.5
		c-1.4-0.2-2.8-0.3-4.2-0.3l0.1-0.3c1.5,0,2.9,0.1,4.2,0.3L12.1,11.5z"/>
	<path class="st0" d="M26.8,15.3l0.7-2.3c-2-0.4-4-0.6-6.3-0.6l-0.7,2.3C22.6,14.8,24.7,15,26.8,15.3z M21.9,13.5
		c1.5,0,2.9,0.1,4.3,0.3L26,14.2c-1.4-0.2-2.8-0.3-4.3-0.4L21.9,13.5z"/>
	<path class="st0" d="M3.3,20.1c17.3-0.2,26.4-0.3,27.5-0.4l-0.6-4c-3.6,0-8.1,0.1-13.7,0.2C11,16,6.5,16.1,3.1,16.1L3.3,20.1z
		 M16.6,16.9c5.1-0.1,9.4-0.1,12.8-0.2l0.3,2c-3,0.1-11.5,0.2-25.4,0.3l-0.1-2C7.5,17.1,11.6,17,16.6,16.9z"/>
	<path class="st0" d="M33.9,11.5c0-1.3-0.1-2.7-0.3-4c-0.1-0.7-0.5-1.2-1.1-1.5c-0.6-0.3-1.2-0.4-1.9-0.5c-0.7-0.1-1.5-0.1-2.6-0.1
		c-4.4,0-7.3,0-8.7,0l-0.1-1c0,0,0-0.1,0-0.3l11.4,0l-0.4-3.9C14,0.3,4.9,0.4,3,0.4l0.1,3.9c2.7-0.1,6.4-0.1,11.2-0.1
		c0,0.3,0.1,0.8,0.1,1.4L5.6,5.7V5L0.4,5.2c0.1,2.5,0.1,4.4,0.1,5.8l0,4.4l5.4,0.1l0-3c0-0.6-0.1-1.5-0.2-2.9l8.8-0.3
		c0,2.1-0.1,4.1-0.4,6l5.4,0.2l0-2.9c0-0.7,0-1.8-0.1-3.3h7.8c0.9,0,1.3,0.7,1.3,2c0,1.3-0.1,2.6-0.4,4.1l5.4,0.1
		C33.8,13.9,33.9,12.7,33.9,11.5z M32.8,14.3l-3.4-0.1c0.1-1.1,0.2-2.1,0.2-3.1c0-2.7-1.6-3-2.3-3h-8.9l0,1c0,1.5,0.1,2.6,0.1,3.3
		l0,1.9l-3.3-0.1c0.2-1.6,0.2-3.3,0.3-5l0-1.1L4.6,8.5l0.1,1c0.1,1.3,0.2,2.3,0.2,2.8l0,2l-3.4-0.1l0-3.4c0-1.2,0-2.8-0.1-4.8L4.6,6
		v0.7l10.8-0.1v-1c0-0.8,0-1.3-0.1-1.6l-0.1-0.8l-0.8,0c-4.2,0-7.6,0.1-10.2,0.1L4.1,1.4c3.1,0,11.4-0.1,25.3-0.3L29.5,3l-11.3,0v1
		c0,0.2,0,0.3,0,0.5l0.1,1.9l0.9,0c1.4,0,4.3,0,8.7,0c1,0,1.8,0,2.5,0.1c0.6,0.1,1.1,0.2,1.6,0.4c0.2,0.1,0.4,0.3,0.5,0.8
		c0.2,1.2,0.2,2.6,0.2,3.8C32.9,12.4,32.8,13.3,32.8,14.3z"/>
	<path class="st0" d="M27.1,12.3l0.7-2.2c-1.9-0.4-4-0.6-6.3-0.6l-0.7,2.3l0.8,0C23.2,11.8,25.1,12,27.1,12.3z M22.2,10.5
		c1.5,0,2.9,0.1,4.2,0.3l-0.1,0.3c-1.5-0.2-2.9-0.3-4.2-0.4L22.2,10.5z"/>
	<path class="st0" d="M43.3,8.1l4.6-2.8c-1.7-2.3-3.4-4-5.3-5.1l-4.3,2.3C40.4,4.4,42.1,6.3,43.3,8.1z M42.5,1.3
		c1.3,0.9,2.6,2.1,3.8,3.7l-2.8,1.7c-1-1.3-2.2-2.7-3.6-4L42.5,1.3z"/>
	<path class="st0" d="M63.8,22.2c0.2-0.8,0.3-1.7,0.4-2.6l0.2-1.2l-11,0.2l-0.1,0.9c-0.1,0.9-0.2,1.7-0.4,2.3l-0.3,1.2l5.4-0.1
		l-0.3-1.2c-0.1-0.2-0.1-0.5-0.2-0.7l2.1-0.2c0.2,0.4,0.3,0.9,0.5,1.4l0.2,0.8h3.4L63.8,22.2z M62.9,22h-1.8
		c-0.2-0.8-0.5-1.6-0.9-2.2l-4.3,0.5c0.5,0.6,0.8,1.2,1,1.7l-2.9,0c0.1-0.7,0.3-1.5,0.4-2.4l9-0.2C63.1,20.3,63,21.2,62.9,22z"/>
	<path class="st0" d="M60.2,27.6c-0.9,0-2.1,0-3.7-0.1l0.3,3.9c2.7,0.2,4.8,0.4,6.2,0.4c1.1,0,2.1-0.4,2.8-1.3
		c0.7-0.9,1.2-2.1,1.3-3.8l3.2,0.2V22h-2.5l0.3-2.7l2.8-0.1l-0.1-4.7l-2.3,0c0-0.9,0.1-2.1,0.1-3.6c0-1.2-0.5-2.1-1.4-2.6
		c-0.9-0.5-2.4-0.8-4.4-0.8c-2.1,0-5,0.1-8.6,0.3l-0.9,0c0.2-0.4,0.4-0.8,0.6-1.2c9.9-0.3,15.5-0.4,16.9-0.5V1.4
		C64.3,1.6,59,1.7,55,2l0.4-1.1L50.5,0c-0.8,4.3-2.3,7.8-4.5,10.5l3.9,2.4l-0.2,2c-1.2,0-2.3,0.1-3.2,0.1l0.1,3.6l-3.6-1.2
		c-1.1,3.8-2.9,7.6-5.5,11.5l5.5,2.7c1.7-3.1,3-7.1,3.9-11.9l2.3-0.1c-0.3,2-0.6,4.2-1,6.6c5.2,0,9.7,0.1,13.4,0.1v0.2
		C61.8,27.2,61.2,27.6,60.2,27.6z M46.1,19.6c-0.8,4.3-1.9,7.9-3.3,10.8l-3.6-1.8c2.1-3.3,3.7-6.5,4.7-9.8L46.1,19.6L46.1,19.6z
		 M61.8,25.4c-3.4-0.1-7.5-0.1-12.2-0.1c0.3-1.9,0.6-3.8,0.8-5.4l0.2-1.2l-2.8,0.1L47.6,16c0.7,0,1.4-0.1,2.2-0.1l0.9,0l0.3-3.6
		l-3.5-2.1c1.7-2.5,3-5.5,3.8-9.1l2.8,0.5L53.6,3L55.1,3c3.7-0.2,8.7-0.4,14.6-0.5v2.8c-2.3,0.1-7.6,0.2-15.9,0.5l-0.6,0l-0.3,0.5
		c-0.2,0.4-0.5,0.9-0.6,1.3L51.7,9l2.5-0.1c3.6-0.2,6.4-0.3,8.5-0.3c2.3,0,3.4,0.3,3.9,0.6c0.4,0.2,0.9,0.6,0.9,1.7
		c0,1.4,0,2.6-0.1,3.5l-0.1,1.1l2.4,0l0.1,2.7l-2.7,0.1L66.7,23h2.6v2.8l-3.1-0.2l-0.1,1c-0.1,1.4-0.5,2.5-1.1,3.2
		c-0.5,0.6-1.2,0.9-2,0.9c-1.2,0-3-0.1-5.3-0.3l-0.1-1.9c1,0.1,1.9,0.1,2.6,0.1c2.4,0,2.6-1.5,2.6-2v-1.2L61.8,25.4z"/>
	<path class="st0" d="M57.9,14.5c-0.1-0.2-0.2-0.5-0.3-0.8l2-0.4c0.3,0.5,0.5,1,0.6,1.6l0.2,0.8l4.4-0.1l0.1-2.3
		c0-1.4-0.9-2.3-2.4-2.3c-2.8,0-5.4,0.1-7.7,0.2l-0.9,0.1l-0.3,4.6l4.8-0.1L57.9,14.5z M54.6,14.8l0.1-2.6c2.3-0.1,4.9-0.2,7.6-0.2
		c1,0,1.4,0.4,1.4,1.3l-0.1,1.4l-2.6,0c-0.2-0.9-0.5-1.8-1.1-2.6L56,13c0.5,0.8,0.8,1.4,0.9,1.8L54.6,14.8z"/>
	<path class="st0" d="M42.2,16.6l4.7-2.9c-1.7-2.2-3.5-4-5.4-5.4l-4.2,2.7C39.3,13,41,14.8,42.2,16.6z M41.4,9.6
		c1.4,1.1,2.7,2.4,4,3.9l-2.9,1.8c-1-1.3-2.2-2.7-3.6-4.1L41.4,9.6z"/>
</g>
</svg>
