<?xml version="1.0" encoding="utf-8"?>
<!-- Generator: Adobe Illustrator 27.9.1, SVG Export Plug-In . SVG Version: 6.00 Build 0)  -->
<svg version="1.1" id="Layer_1" xmlns:inkscape="http://www.inkscape.org/namespaces/inkscape"
	 xmlns="http://www.w3.org/2000/svg" xmlns:xlink="http://www.w3.org/1999/xlink" x="0px" y="0px" viewBox="0 0 67.1 31.7"
	 style="enable-background:new 0 0 67.1 31.7;" xml:space="preserve">
<style type="text/css">
	.st0{fill:#070707;}
</style>
<g>
	<path class="st0" d="M23,0.8C17.8,0.8,12,1.1,5.8,1.5L5.6,0L0,0.9c0.3,3.9,0.5,12.9,0.5,27.1l0,3.8c8.5-0.2,17.4-0.3,26.8-0.3
		c0.2-5.9,0.3-14.3,0.3-25.2C27.6,2.8,26,1,23,0.8z M21.3,26.1c-5.1,0.1-10.3,0.1-15.4,0.1v-3.5c1.6-0.1,6.8-0.2,15.4-0.4L21.3,26.1
		z M21.4,17.5C13,17.7,7.8,17.9,5.9,18v-3.6c6.3-0.2,11.5-0.4,15.6-0.4L21.4,17.5z M21.7,9.2c-5.1,0-10.4,0.2-15.9,0.5
		c0-1.3,0-2.4,0-3.1c6.2-0.5,10.6-0.7,13.3-0.7c0.9,0,1.5,0,1.8,0.1c0.6,0.2,0.9,0.7,0.9,1.6C21.8,8.4,21.8,8.9,21.7,9.2z"/>
	<path class="st0" d="M63.3,4.1c-0.5,0-1.1,0-1.6,0c-1,0-2.5,0-4.4,0.1c0.1-1.4,0.3-2.6,0.4-3.6l-4.9-0.5c-0.2,4.7-1.3,8.3-3.4,10.8
		l5.2,2.1c0.7-1.1,1.3-2.4,1.8-3.8C57.5,9,58.9,9,60.3,9c1,0,1.6,0.4,1.8,1.3c0,0.4,0.1,0.8,0.1,1.2c0,3-0.3,7.1-0.9,12.4
		c0,0.7-0.2,1.2-0.5,1.5c-0.3,0.3-1,0.5-2.1,0.5c-1.9,0-3.5-0.2-4.9-0.7l0.4,6c2,0.4,4.2,0.6,6.8,0.6c2.8,0,4.5-1.5,5.1-4.5
		c0.7-4.2,1-10.5,1-18.8C67.1,6,65.8,4.5,63.3,4.1z"/>
	<path class="st0" d="M55.6,14l-4.9,1.4c1.5,2.3,2.4,4.7,2.5,7.3l5.5-1.6C58.3,18.5,57.2,16.1,55.6,14z"/>
	<path class="st0" d="M45.6,5c-0.8,0-1.6,0-2.4,0c0.4-1.7,0.6-3.2,0.7-4.6L38.7,0c0,2-0.2,3.8-0.6,5.4c-1.7,0.1-3.1,0.3-4.4,0.4
		c0.1,3.8,0.1,10.8,0.1,21l0,3.9c3,0,6.1,0,9.4,0H48c0.6-4.7,0.9-11.9,0.9-21.5C48.9,6.6,47.8,5.2,45.6,5z M43.4,25.6
		c-2.4-0.1-4-0.1-4.7-0.1c0-0.7,0-2.4,0-5.1l4.9-0.1C43.6,22.9,43.5,24.7,43.4,25.6z M43.6,14.7l-1.4,0c-1.5,0-2.7,0.1-3.6,0.1v-4.2
		c1.5-0.2,2.7-0.3,3.5-0.3c0.2,0,0.5,0,0.8,0.1c0.4,0.1,0.7,0.7,0.7,1.7V14.7z"/>
</g>
</svg>
