<?xml version="1.0" encoding="utf-8"?>
<!-- Generator: Adobe Illustrator 27.9.1, SVG Export Plug-In . SVG Version: 6.00 Build 0)  -->
<svg version="1.1" id="Layer_1" xmlns="http://www.w3.org/2000/svg" xmlns:xlink="http://www.w3.org/1999/xlink" x="0px" y="0px"
	 viewBox="0 0 147.3 35.6" style="enable-background:new 0 0 147.3 35.6;" xml:space="preserve">
<style type="text/css">
	.st0{fill:#282828;}
</style>
<g>
	<path class="st0" d="M33.8,14.8V6.3H19V4.4h12.2V1.3H3v3.1h12v1.9H0.6v8.5h3.6V9.3H15v9.3h4V9.3h11v5.5H33.8z M18,8.3v9.3h-2V8.3
		H3.3v5.5H1.6V7.3H16V3.4H4V2.3h26.2v1.1H18v3.9h14.7v6.5H31V8.3H18z"/>
	<path class="st0" d="M20.6,17.9h8.7v-2.6h-8.7V17.9z M21.6,16.4h6.7v0.6h-6.7V16.4z"/>
	<path class="st0" d="M5.1,17.9h8.4v-2.6H5.1V17.9z M6.1,16.4h6.4v0.6H6.1V16.4z"/>
	<path class="st0" d="M4.4,22.8H30v-3H4.4V22.8z M5.4,20.8H29v1H5.4V20.8z"/>
	<path class="st0" d="M13.5,11.1H5.9v2.6h7.7V11.1z M12.5,12.6H6.9v-0.6h5.7V12.6z"/>
	<path class="st0" d="M20.6,11.1v2.6h7.7v-2.6H20.6z M27.3,12.6h-5.7v-0.6h5.7V12.6z"/>
	<path class="st0" d="M44.3,25.9c0.7,0.6,1.4,0.9,2.2,0.9c0.8,0,1.6-0.4,2.4-1.1c0.6-0.6,1.3-1.6,1.9-2.9c0.6-1.2,1.1-2.8,1.7-4.6
		c0.6-1.9,1.1-3.8,1.5-5.9c0.2-1.1,0.4-2.3,0.6-3.8l0.2-1.4l-1.3,0.2c-1.2,0.2-2.2,0.5-3.1,1c-1.7,0.8-3.1,1.8-4.3,3.1
		c-1.2,1.2-2.1,2.6-2.7,4.1c-0.6,1.5-0.9,2.9-0.9,4.3c0,1.5,0.2,2.7,0.6,3.7C43.1,24.5,43.6,25.3,44.3,25.9z M44.1,15.8
		c0.6-1.4,1.4-2.6,2.5-3.8c1.1-1.2,2.4-2.1,4-2.9c0.9-0.4,1.9-0.7,2.9-0.9c-0.2,1.2-0.4,2.5-0.6,3.7c-0.4,2.1-0.9,4-1.4,5.8
		c-0.6,1.8-1.1,3.3-1.7,4.5s-1.1,2-1.7,2.6c-0.6,0.6-1.1,0.8-1.7,0.8c-0.5,0-1-0.2-1.5-0.7c-0.5-0.4-0.9-1.1-1.2-2
		c-0.3-0.9-0.5-2-0.5-3.4C43.2,18.5,43.5,17.2,44.1,15.8z"/>
	<path class="st0" d="M39.9,25.8c0.7,1.6,1.6,2.9,2.8,3.8c1.1,0.9,2.4,1.4,3.7,1.4c1.3,0,2.6-0.5,3.7-1.4c1.2-1,2.2-2.4,3.2-4.2
		c1-1.8,1.8-4,2.6-6.6c0.7-2.2,1.2-4.4,1.6-6.6c0.2-1.4,0.5-2.7,0.7-4c0.9,0.1,1.7,0.3,2.5,0.6c1.3,0.5,2.4,1.3,3.3,2.2
		c0.9,1,1.6,2.1,2.1,3.3c0.5,1.3,0.7,2.7,0.7,4.2c0,1.4-0.2,2.8-0.7,3.9c-0.5,1.2-1.1,2.2-1.9,3.1c-0.8,0.9-1.8,1.6-2.8,2.2
		c-1.1,0.6-2.2,1-3.4,1.3c-0.5,0.1-1,0.2-1.6,0.3c-0.6,0.1-1.2,0.2-1.9,0.3l2.5,4c3.2-0.5,5.8-1.4,7.9-2.7c2.1-1.3,3.7-3.1,4.8-5.1
		c1.1-2.1,1.7-4.4,1.7-7.1c0-2-0.4-3.9-1.1-5.7c-0.7-1.8-1.7-3.3-3-4.7C65.8,7,64.2,6,62.3,5.3c-1.9-0.7-3.9-1.1-6.3-1.1
		c-2.4,0-4.7,0.4-6.8,1.3c-2.1,0.8-3.9,2-5.5,3.5c-1.6,1.5-2.8,3.2-3.7,5.1c-0.9,1.9-1.3,4-1.3,6.1C38.8,22.3,39.2,24.1,39.9,25.8z
		 M41.1,14.5c0.8-1.8,2-3.4,3.5-4.8c1.5-1.4,3.2-2.5,5.2-3.3c2-0.8,4.1-1.2,6.4-1.2c2.2,0,4.1,0.4,5.9,1c1.7,0.7,3.2,1.7,4.4,2.9
		c1.2,1.2,2.2,2.7,2.8,4.3c0.7,1.6,1,3.4,1,5.3c0,2.5-0.5,4.7-1.5,6.6c-1,1.9-2.5,3.5-4.5,4.8c-1.9,1.2-4.2,2-6.9,2.5l-1.4-2.2
		c0.1,0,0.3,0,0.4-0.1c0.6-0.1,1.1-0.2,1.6-0.3c1.3-0.3,2.6-0.8,3.7-1.4c1.2-0.6,2.2-1.4,3.1-2.4c0.9-1,1.6-2.1,2.1-3.4
		c0.5-1.3,0.8-2.7,0.8-4.3c0-1.6-0.3-3.2-0.8-4.5c-0.5-1.4-1.3-2.6-2.3-3.7c-1-1-2.2-1.9-3.7-2.4c-0.8-0.3-1.7-0.6-2.7-0.7l-1-0.1
		l-0.2,1c-0.2,1.3-0.4,2.6-0.7,4c-0.4,2.1-0.9,4.3-1.6,6.4c-0.7,2.5-1.6,4.6-2.5,6.4c-0.9,1.7-1.9,3-2.9,3.9c-1,0.8-2,1.2-3.1,1.2
		c-1.1,0-2.1-0.4-3.1-1.1c-1-0.8-1.8-2-2.5-3.4c-0.6-1.5-1-3.3-1-5.2C39.8,18.2,40.2,16.3,41.1,14.5z"/>
	<path class="st0" d="M144.2,3.4h-8.8v4.4h8.8V3.4z M143.2,6.7h-6.8V4.4h6.8V6.7z"/>
	<path class="st0" d="M135.6,25.1h-9v4.7h9V25.1z M134.6,28.8h-7v-2.7h7V28.8z"/>
	<path class="st0" d="M143.2,1.4h-10.6V15h10.6v15.4c0,0.3-0.1,0.6-0.2,0.7c-0.1,0.1-0.4,0.2-0.7,0.2c-0.2,0-0.6,0-1.2,0
		c-0.5,0-1.2,0-1.8,0c-0.3,0-0.6,0-0.8,0V17.4h-10.9h-2h-1.7v16.3h3.7v-1.9h9.9c0.1,0.2,0.2,0.4,0.3,0.7c0.2,0.5,0.4,1,0.5,1.5
		c0.1,0.5,0.2,0.9,0.3,1.3c1.6,0,3,0,4.1-0.1c1.1-0.1,2-0.3,2.8-0.6c0.7-0.4,1.2-0.9,1.5-1.5c0.3-0.7,0.4-1.5,0.4-2.7v-29h-2H143.2z
		 M137.4,30.8h-10.9v1.9h-1.7V18.4h12.6V30.8z M146.3,30.4c0,1-0.1,1.7-0.3,2.3c-0.2,0.4-0.5,0.8-1,1c-0.6,0.3-1.4,0.4-2.4,0.5
		c-0.9,0.1-1.9,0.1-3.2,0.1c0-0.2-0.1-0.4-0.2-0.6c-0.1-0.5-0.3-1-0.5-1.5c0.2,0,0.4,0,0.5,0h3c0.6,0,1.1-0.2,1.4-0.5
		s0.5-0.8,0.5-1.4V14h-10.6V2.4h12.7V30.4z"/>
	<path class="st0" d="M135.6,19.5h-9v4.6h9V19.5z M134.6,23.1h-7v-2.6h7V23.1z"/>
	<path class="st0" d="M144.2,8.5h-8.8v4.6h8.8V8.5z M143.2,12.1h-6.8V9.5h6.8V12.1z"/>
	<path class="st0" d="M115.3,35.4h4.1V15h10.3V1.4h-10.3h-1.7h-2.4V35.4z M116.3,2.4h12.4V14h-10.3v20.4h-2.1V2.4z"/>
	<path class="st0" d="M126.9,8.5h-8.5V13h8.5V8.5z M125.9,12h-6.5V9.5h6.5V12z"/>
	<path class="st0" d="M126.9,3.4h-8.5v4.4h8.5V3.4z M125.9,6.7h-6.5V4.4h6.5V6.7z"/>
	<path class="st0" d="M7.5,30.1c-0.2,0.3-0.4,0.6-0.6,0.9c-1.7,0-3.3,0.1-4.7,0.1l0.3,3.5c2.2-0.1,4.7-0.1,7.6-0.2
		c2.9-0.1,5.9-0.2,9-0.3c2.7-0.1,5.5-0.2,8.2-0.3c0.7,0.7,1.3,1.3,1.8,1.8l3.8-1.8c-0.6-0.7-1.4-1.4-2.4-2.2c-1-0.8-2-1.6-3-2.4
		c-0.7-0.5-1.3-0.9-1.9-1.4h8.9v-3.1H0v3.1h8.8C8.4,28.5,8,29.3,7.5,30.1z M1,26.8v-1.1h32.4v1.1H13.2l-0.3,0.4
		c-0.5,0.8-1.1,1.5-1.6,2.1c-0.3,0.4-0.6,0.7-0.8,1L9.2,32l2.2,0c2.4,0,5-0.1,7.7-0.1c1,0,2,0,3.1-0.1l4.4-0.1l-2.2-1.7
		c-0.5-0.4-0.9-0.7-1.4-1l0.4-0.2l-0.3-1.4l2,1.3c0.6,0.4,1.3,0.9,1.9,1.3c1,0.8,2,1.6,3,2.4c0.5,0.4,0.9,0.8,1.3,1.2l-1.9,0.9
		c-0.4-0.4-0.8-0.9-1.3-1.3l-0.3-0.3l-0.4,0c-2.7,0.1-5.4,0.2-8.2,0.3l-9,0.3c-2.4,0.1-4.7,0.1-6.6,0.2l-0.1-1.5
		c1.1,0,2.3,0,3.6-0.1l0.5,0l0.3-0.4c0.2-0.3,0.4-0.6,0.6-1c0.5-0.8,0.9-1.5,1.4-2.4l0.8-1.5H1z M23.6,30.7c-1.5,0-3,0.1-4.6,0.1
		c-2.7,0.1-5.2,0.1-7.7,0.1c0.3-0.3,0.5-0.7,0.8-1c0.6-0.7,1.1-1.4,1.6-2.1h9l-2,0.9C21.7,29.3,22.6,30,23.6,30.7z"/>
	<path class="st0" d="M99.2,20.4h7.7v-10h-7.7V20.4z M100.2,11.4h5.7v8h-5.7V11.4z"/>
	<path class="st0" d="M89.5,20.4h7.5v-10h-7.5V20.4z M90.5,11.4h5.5v8h-5.5V11.4z"/>
	<path class="st0" d="M109.9,7.6h-9.7V0.3h-4.1v7.3h-9.4v17.9h3.9v-2.4h5.5v12.2h4.1V23.1h5.7v2.1h4V7.6z M108.9,24.2h-2v-2.1h-7.7
		v12.2h-2.1V22.1h-7.5v2.4h-1.9V8.6h9.4V1.3h2.1v7.3h9.7V24.2z"/>
	<path class="st0" d="M75.8,15.8c0.3,0.5,0.6,1.1,0.8,1.6c0.3,0.5,0.5,1,0.6,1.3c0.9-1,1.7-2,2.5-3.1v19.8h3.9V9.2
		c0.3-0.6,0.6-1.1,0.9-1.7c1.1-2.1,2-4.3,2.8-6.4L83.6,0c-0.6,1.8-1.4,3.6-2.3,5.4s-1.9,3.5-2.9,5c-1.1,1.5-2.2,2.9-3.3,4.1
		C75.3,14.8,75.5,15.3,75.8,15.8z M79.1,11c1.1-1.6,2.1-3.3,3-5.1c0.8-1.5,1.4-3.1,2-4.6l1.9,0.6c-0.7,1.8-1.5,3.5-2.4,5.3
		c-0.2,0.4-0.4,0.7-0.6,1.1L82.7,9v25.3h-1.9V12.5L79,15c-0.5,0.7-1,1.3-1.5,1.9c-0.3-0.5-0.5-1-0.8-1.5c-0.1-0.3-0.3-0.5-0.4-0.7
		C77.3,13.5,78.2,12.3,79.1,11z"/>
</g>
</svg>
