<?xml version="1.0" encoding="utf-8"?>
<!-- Generator: Adobe Illustrator 27.9.1, SVG Export Plug-In . SVG Version: 6.00 Build 0)  -->
<svg version="1.1" id="Layer_1" xmlns:inkscape="http://www.inkscape.org/namespaces/inkscape"
	 xmlns="http://www.w3.org/2000/svg" xmlns:xlink="http://www.w3.org/1999/xlink" x="0px" y="0px" viewBox="0 0 143.2 32.4"
	 style="enable-background:new 0 0 143.2 32.4;" xml:space="preserve">
<style type="text/css">
	.st0{fill:#070707;}
</style>
<g>
	<path class="st0" d="M13.1,18.8c0,0.5-0.1,1.1-0.2,1.6c-5.1,0.1-9.2,0.2-12.2,0.2L0.8,25l10.9-0.2c-1.7,1.3-5.1,2.3-10.4,2.9
		l2.2,4.1c5.8-0.4,10.3-1.9,13.5-4.4c4.7,1.1,9,2.5,13,4.2l3.2-4.2c-2.4-1.1-6.1-2.1-11.2-2.9l11.1-0.1L33.1,20l-13.4,0.2
		c0.1-0.4,0.1-0.9,0.1-1.3L13.1,18.8z M32.1,21l0.1,2.4l-10.1,0.1l-0.2,2c4.2,0.7,7.4,1.5,9.7,2.4l-1.9,2.5c-3.8-1.6-8-2.9-12.4-4
		l-0.5-0.1l-0.4,0.3c-2.9,2.3-7.1,3.6-12.3,4.1L3,28.5c4.6-0.6,7.7-1.6,9.4-2.9l2.3-1.8L1.8,24l-0.1-2.4c2.9,0,6.6-0.1,11.2-0.2
		l0.8,0l0.2-0.8c0-0.3,0.1-0.5,0.1-0.8l4.8,0.1c0,0-0.2,1.3-0.2,1.3L32.1,21z"/>
	<path class="st0" d="M18.4,18.3c9-0.1,14.2-0.3,15.5-0.3l-0.2-4.5c-4.1,0-8.9,0.1-14.2,0.3v-1.3l11.3-0.3l-0.1-4.4L19.3,7.9
		c0-0.7,0-1.2-0.1-1.4C26.5,6.4,30.8,6.3,32,6.3l-0.1-4.2l-5.2,0.1c0.2-0.6,0.4-1.1,0.7-1.7l-6-0.5l-0.8,2.3l-7.5,0.2
		c-0.4-0.9-0.9-1.7-1.4-2.5l-6,0.8l1.2,1.7c-2,0-3.8,0.1-5.7,0.1l0.2,4.2l12.1-0.2c0,0.4,0,0.9,0,1.4L2.7,8.5l0.1,4.4
		c3.1,0,6.6-0.1,10.7-0.3l0,1.3C8.5,14,4,14.1,0,14.1l0.1,4.5C3.3,18.5,9.3,18.4,18.4,18.3z M13.5,14.9l0.9,0l0.1-3.3l-1.1,0
		c-3.5,0.1-6.8,0.2-9.6,0.2L3.8,9.4l10.7-0.4v-1c0-0.6,0-1.1,0-1.5l-0.1-1L2.3,5.8L2.2,3.6c1.5,0,3.1,0,4.7-0.1l1.8,0L7.4,1.6
		l3.8-0.5c0.4,0.6,0.7,1.2,1,1.8l0.3,0.6l8.8-0.2L22,1.1l3.9,0.3c-0.1,0.2-0.1,0.3-0.2,0.5l-0.4,1.3l5.6-0.1L31,5.3
		c-1.9,0.1-5.8,0.1-11.8,0.3l-1.3,0l0.3,1.2c0,0,0,0.2,0,1.1v1l11.3-0.3l0.1,2.4l-11.3,0.3v3.3l1,0c4.9-0.1,9.4-0.2,13.3-0.2
		l0.1,2.5c-2.2,0.1-7,0.2-14.5,0.3c-8.1,0.1-13.9,0.2-17.3,0.3L1,15.1C4.8,15.1,9,15,13.5,14.9z"/>
	<path class="st0" d="M52.5,2L46,1c-0.9,3.3-1.6,6.8-2.2,10.4c-0.6,3.6-0.9,6.4-0.9,8.5c0,3.5,1,6.2,3,8.1c2,1.9,4.8,2.9,8.5,2.9
		c2.8,0,5.4-0.6,7.8-1.9c2.4-1.2,4.8-3.3,7.2-6l-4.6-4.8c-2,2.3-3.8,3.9-5.5,4.9c-1.6,1-3.3,1.5-5,1.5c-1.8,0-3.1-0.5-3.9-1.4
		c-0.8-0.9-1.3-2.3-1.3-4.2c0-1.7,0.3-4.2,0.9-7.3C50.8,8.6,51.6,5.3,52.5,2z M49.7,23.9c1,1.1,2.6,1.7,4.6,1.7
		c1.9,0,3.8-0.5,5.5-1.6c1.5-0.9,3.2-2.3,5-4.3L68,23c-2.2,2.3-4.3,4.1-6.3,5.1c-2.2,1.2-4.7,1.7-7.3,1.7c-3.4,0-6-0.9-7.8-2.6
		c-1.8-1.7-2.7-4.1-2.7-7.4c0-2,0.3-4.8,0.9-8.3c0.5-3.2,1.2-6.4,2-9.4l4.5,0.7c-0.8,3-1.6,5.9-2.1,8.7c-0.6,3.2-0.9,5.7-0.9,7.5
		C48.2,21.1,48.7,22.8,49.7,23.9z"/>
	<path class="st0" d="M97.7,14.6c2,2.2,3.5,4.1,4.5,5.6l4.8-4c-1-1.5-2.5-3.4-4.4-5.5c-1.9-2.1-3.7-3.8-5.2-5.1l-4.8,3.9
		C94.1,10.7,95.8,12.4,97.7,14.6z M97.4,6.9c1.3,1.2,2.8,2.7,4.5,4.5c1.6,1.7,2.9,3.3,3.8,4.6l-3.3,2.7c-1-1.4-2.3-3-3.9-4.8
		c-1.6-1.8-3-3.3-4.3-4.4L97.4,6.9z"/>
	<path class="st0" d="M85.6,29.7c2,0,3.9-0.6,5.6-1.9s3.1-3,4.1-5.2l-5.5-3.4c-0.5,1.1-1.1,2.1-1.8,2.8c-0.7,0.8-1.4,1.1-2.1,1.1
		c-1.3,0-2.3-1.7-3-5.1c-0.6-3.4-0.9-8.2-0.7-14.3l-6.3,0.2c-0.2,8.9,0.5,15.4,2.1,19.6C79.6,27.6,82.1,29.7,85.6,29.7z M76.9,4.9
		l4.3-0.1C81.2,10.5,81.4,15,82,18.2c0.3,1.5,1.1,5.9,4,5.9c0.9,0,1.9-0.5,2.8-1.4c0.6-0.6,1.1-1.3,1.5-2.1L94,23
		C93.1,24.7,92,26,90.6,27c-1.5,1.1-3.2,1.7-5,1.7c-3.1,0-5.3-1.8-6.7-5.6C77.5,19.3,76.8,13.1,76.9,4.9z"/>
	<path class="st0" d="M123,25.1l20.2-0.3l-0.6-3.8c-4.7,0-10,0.1-16,0.2c-6,0.1-11.7,0.2-17.3,0.2l0.2,3.9l5.8,0
		c-1.4,1.1-2.3,2.1-2.5,2.9c-0.2,0.4-0.3,0.9-0.3,1.3c0,0.7,0.2,1.3,0.7,1.8s1.1,0.8,2,0.9c1,0.1,2.2,0.2,3.6,0.2
		c3.9,0,9.1-0.3,15.6-1c0.3,0.3,0.6,0.7,0.9,1.2l6.5-1.1c-1.7-2.4-3.9-4.4-6.5-6.2l-6.2,0.9c1.6,1,2.5,1.5,2.6,1.7
		c-4.5,0.4-8,0.7-10.4,0.7c-1.1,0-1.6,0-1.7-0.1c0-0.1-0.1-0.2-0.1-0.2C119.6,27.6,120.7,26.7,123,25.1z M118.8,28.6
		c0.3,0.7,1.1,0.7,2.6,0.7c2.4,0,5.9-0.2,10.5-0.7l2.1-0.2l-1.5-1.5c-0.1-0.1-0.1-0.1-0.5-0.4l3.1-0.4c1.9,1.3,3.6,2.8,5,4.4
		l-4.2,0.7c-0.2-0.3-0.5-0.6-0.7-0.8l-0.3-0.3l-0.4,0c-6.5,0.7-11.7,1-15.5,1c-1.3,0-2.5-0.1-3.5-0.2c-0.7-0.1-1.1-0.3-1.4-0.6
		c-0.3-0.3-0.4-0.6-0.4-1.1c0-0.3,0.1-0.6,0.2-0.9c0.2-0.5,0.6-1.3,2.2-2.5l2.4-1.8l-7.8,0.1l-0.1-1.9c5.2,0,10.7-0.1,16.3-0.2
		c5.6-0.1,10.6-0.2,15.1-0.2l0.3,1.8l-19.4,0.3l-0.3,0.2c-3.6,2.6-3.8,3-3.8,3.6C118.6,28.2,118.7,28.4,118.8,28.6z"/>
	<path class="st0" d="M136.1,15.4l0.7-2.3c-2-0.4-4-0.6-6.3-0.6l-0.7,2.3C131.9,14.8,134.1,15,136.1,15.4z M131.2,13.5
		c1.5,0,2.9,0.1,4.3,0.3l-0.1,0.3c-1.4-0.2-2.8-0.3-4.3-0.4L131.2,13.5z"/>
	<path class="st0" d="M142.9,7.5c-0.1-0.7-0.5-1.2-1.1-1.5c-0.6-0.3-1.2-0.4-1.9-0.5c-0.7-0.1-1.5-0.1-2.6-0.1c-4.4,0-7.3,0-8.7,0
		l-0.1-1c0,0,0-0.1,0-0.3l11.4,0l-0.4-3.9c-16.3,0.2-25.3,0.3-27.2,0.3l0.1,3.9c2.7-0.1,6.4-0.1,11.2-0.1c0,0.3,0.1,0.8,0.1,1.4
		l-8.8,0.1V5l-5.2,0.1c0.1,2.5,0.1,4.4,0.1,5.8l0,4.4l5.4,0.1l0-3c0-0.6-0.1-1.5-0.2-2.9l8.8-0.3c0,2.1-0.1,4.1-0.4,6l5.4,0.2l0-2.9
		c0-0.7,0-1.8-0.1-3.3h7.8c0.9,0,1.3,0.7,1.3,2c0,1.3-0.1,2.6-0.4,4.1l5.4,0.1c0.1-1.4,0.2-2.6,0.2-3.7
		C143.2,10.2,143.1,8.9,142.9,7.5z M142.1,14.3l-3.4-0.1c0.1-1.1,0.2-2.1,0.2-3.1c0-2.7-1.6-3-2.3-3h-8.9l0,1c0,1.5,0.1,2.6,0.1,3.3
		l0,1.9l-3.3-0.1c0.2-1.6,0.2-3.3,0.3-5l0-1.1L114,8.5l0.1,1c0.1,1.3,0.2,2.3,0.2,2.8l0,2l-3.4-0.1l0-3.4c0-1.2,0-2.8-0.1-4.8
		l3.2-0.1v0.7l10.8-0.1v-1c0-0.8,0-1.3-0.1-1.6l-0.1-0.8l-0.8,0c-4.2,0-7.6,0.1-10.2,0.1l-0.1-1.8c3.2,0,11.6-0.1,25.3-0.3l0.2,1.9
		l-11.3,0v1c0,0.2,0,0.3,0,0.5l0.1,1.9l0.9,0c1.4,0,4.3,0,8.7,0c1,0,1.8,0,2.5,0.1c0.6,0.1,1.1,0.2,1.6,0.4c0.2,0.1,0.4,0.3,0.5,0.8
		c0.2,1.2,0.2,2.6,0.2,3.8C142.2,12.4,142.2,13.3,142.1,14.3z"/>
	<path class="st0" d="M136.4,12.4l0.7-2.2c-1.9-0.4-4-0.6-6.3-0.6l-0.7,2.3l0.8,0C132.6,11.9,134.4,12,136.4,12.4z M131.5,10.6
		c1.5,0,2.9,0.1,4.2,0.3l-0.1,0.3c-1.5-0.2-2.9-0.3-4.2-0.4L131.5,10.6z"/>
	<path class="st0" d="M122.8,10.4c-1.9-0.3-4-0.5-6.2-0.5l-0.7,2.3c2.2,0,4.3,0.2,6.3,0.5L122.8,10.4z M121.4,11.5
		c-1.4-0.2-2.8-0.3-4.2-0.3l0.1-0.3c1.5,0,2.9,0.1,4.2,0.3L121.4,11.5z"/>
	<path class="st0" d="M112.7,20.1c17.3-0.2,26.4-0.3,27.5-0.4l-0.6-4c-3.6,0-8.1,0.1-13.7,0.2c-5.5,0.1-10,0.1-13.5,0.2L112.7,20.1z
		 M125.9,17c5.1-0.1,9.4-0.1,12.8-0.2l0.3,2c-2.9,0.1-11.3,0.2-25.4,0.3l-0.1-2C116.8,17.1,120.9,17.1,125.9,17z"/>
	<path class="st0" d="M116.2,15.1c1.7,0,3.6,0.2,5.6,0.5l0.7-2.3c-1.9-0.3-4-0.4-6.3-0.4l-0.7,2.3L116.2,15.1z M116.9,13.8
		c1.5,0,2.9,0.1,4.3,0.3l-0.1,0.3c-1.5-0.2-2.9-0.4-4.2-0.4L116.9,13.8z"/>
</g>
</svg>
