<?xml version="1.0" encoding="utf-8"?>
<!-- Generator: Adobe Illustrator 27.9.1, SVG Export Plug-In . SVG Version: 6.00 Build 0)  -->
<svg version="1.1" id="Layer_1" xmlns:inkscape="http://www.inkscape.org/namespaces/inkscape"
	 xmlns="http://www.w3.org/2000/svg" xmlns:xlink="http://www.w3.org/1999/xlink" x="0px" y="0px" viewBox="0 0 34.5 32.7"
	 style="enable-background:new 0 0 34.5 32.7;" xml:space="preserve">
<style type="text/css">
	.st0{fill:#070707;}
</style>
<g>
	<path class="st0" d="M14,12.7l6.4-0.1V8.9L14,9.1V12.7z M15,10.1l4.4-0.1v1.7l-4.4,0V10.1z"/>
	<path class="st0" d="M5.6,12.7h5.8V9.1L5.6,9.2V12.7z M6.6,10.2l3.8-0.1v1.6H6.6V10.2z"/>
	<path class="st0" d="M34.3,5.3l-0.4-3.9L26,1.6V0.1L21,0l0,1.7l-8.2,0.1L12.6,0L7.6,0.3l0.1,1.6l-7.5,0l0.1,3.8l7.8-0.1L8,6.8H2
		c0.1,2.4,0.1,4.4,0.1,6l0,2.3l30.7-0.3l0.1-4.8c0-2.1-1.1-3.1-3.3-3.2h-3.9l0.1-1.4L34.3,5.3z M29.5,7.8c2.1,0.1,2.3,1.1,2.3,2.2
		l-0.1,3.8L3.1,14.1l0-1.2c0-1.4,0-3.1-0.1-5.1H9l0.2-3.2L1.3,4.7l0-1.8l7.6,0L8.7,1.2l3-0.1l0.2,1.8L22,2.7L22,1l3,0v1.5l8-0.1
		l0.2,1.9l-8.3,0.1l-0.4,3.4H29.5z"/>
	<path class="st0" d="M22.9,8.9v3.7l6.2-0.2v-1c0-0.3,0-0.7,0-1c0-0.8-0.6-1.3-1.4-1.4c-0.3,0-0.9-0.1-3.7-0.1L22.9,8.9z M28,10.5
		c0,0.3,0,0.6,0,0.9l-4.2,0.1V9.9c2.1,0,3.3,0.1,3.6,0.1C27.8,10.1,28,10.2,28,10.5z"/>
	<path class="st0" d="M12.3,7.8h9l0.1-0.9c0-0.5,0.1-0.9,0.2-1.1l0.3-1.2l-9.6,0L12.3,7.8z M20.6,5.6c-0.1,0.3-0.1,0.7-0.2,1.3h-7.1
		l0-1.2L20.6,5.6z"/>
	<path class="st0" d="M31,15.8c-1.6,0-3.2,0-4.8,0c-8.3,0-17,0.3-26.1,0.8C0,18.1,0,19.4,0,20.5c0,0.4,0.1,1.6,0.2,3.4l3.7,0l2.2,3
		c2.4-0.5,4.4-1.3,6.2-2.4c4.2-0.1,7.2-0.2,9.2-0.2c1.6,0,2.4,0.1,2.4,0.3c0,0.2-0.7,0.5-2,1c-1,0.4-2.1,0.9-3.5,1.3
		c-1.3-0.8-3.1-1.5-5.5-2.2l-4.7,2.1c2,0.7,3.2,1.1,3.9,1.4c-1.3,0.3-5,0.7-11,1.2l2.2,3.5c5.9-0.3,10.6-0.8,14.1-1.6
		s6.3-1.6,8.2-2.5c2-0.9,3.2-1.7,3.7-2.5s0.8-1.6,0.8-2.5l3.8,0.4c0.3-0.8,0.5-2,0.5-3.8c0-0.7-0.1-1.5-0.2-2.2
		C34,16.6,33,15.9,31,15.8z M4.8,20.2c2-0.1,4-0.3,6.1-0.3C9.7,21,7.7,22,5,22.9C5,21.8,4.9,20.9,4.8,20.2z M29.2,21.4
		c-0.4-0.5-1.9-0.7-4.4-0.7l-8.8,0.1l0.7-1c0,0,1.6-0.1,4.6-0.1c2.5,0,4.7,0.1,6.6,0.2c0.8,0.2,1.2,0.6,1.2,1.2V21.4z M33.3,23
		l-3-0.4l0-1.5c0-0.5-0.2-1.8-2-2.2l-0.1,0l-0.1,0c-1.8-0.1-4.1-0.2-6.6-0.2c-5,0-5,0-5.3,0.4L16,19.1l-1.8,2.7l10.7-0.2
		c3,0,3.6,0.4,3.7,0.4l0.7,0.7l0,0.8c0,0.7-0.2,1.3-0.7,2c-0.2,0.4-1,1.1-3.3,2.1c-1.9,0.8-4.6,1.7-8,2.4c-3.3,0.8-7.8,1.3-13.4,1.5
		l-1-1.6c5.1-0.4,8.2-0.8,9.5-1l3-0.7l-2.8-1.2c-0.3-0.2-0.9-0.4-1.6-0.6l2.1-0.9c2.2,0.6,3.8,1.3,4.9,2l0.4,0.2l0.4-0.1
		c1.4-0.4,2.6-0.9,3.6-1.3c1.8-0.7,2.5-1,2.5-1.9c0-1.3-1.6-1.3-3.4-1.3c-2,0-5.1,0.1-9.2,0.2l-0.3,0l-0.2,0.2
		c-1.5,1-3.2,1.7-5.2,2.2l-1.4-1.8l0.2-0.1c2.9-0.9,4.9-2,6.3-3.3l2-1.8l-2.7,0.1c-2.1,0.1-4.2,0.2-6.2,0.3l-1,0.1l0.1,1
		C3.9,21,4,21.8,4,22.9l-2.9,0C1,21.4,1,20.8,1,20.5c0-0.9,0-1.9,0.1-3c8.7-0.5,17.1-0.7,25.1-0.7c1.7,0,3.3,0,4.8,0
		c1.8,0,2.2,0.7,2.3,1.4c0.1,0.7,0.2,1.4,0.2,2C33.5,21.6,33.4,22.4,33.3,23z"/>
</g>
</svg>
