<?xml version="1.0" encoding="utf-8"?>
<!-- Generator: Adobe Illustrator 27.9.1, SVG Export Plug-In . SVG Version: 6.00 Build 0)  -->
<svg version="1.1" id="Layer_1" xmlns="http://www.w3.org/2000/svg" xmlns:xlink="http://www.w3.org/1999/xlink" x="0px" y="0px"
	 viewBox="0 0 223.9 35.7" style="enable-background:new 0 0 223.9 35.7;" xml:space="preserve">
<style type="text/css">
	.st0{fill:#282828;}
</style>
<g>
	<path class="st0" d="M65,25.7c-0.8,0.9-1.8,1.6-2.8,2.2c-1.1,0.6-2.2,1-3.4,1.3c-0.5,0.1-1,0.2-1.6,0.3c-0.6,0.1-1.2,0.2-1.9,0.3
		l2.5,4c3.2-0.5,5.8-1.4,7.9-2.7s3.7-3.1,4.8-5.1c1.1-2.1,1.7-4.4,1.7-7.1c0-2-0.4-3.9-1.1-5.7c-0.7-1.8-1.7-3.3-3-4.7
		c-1.3-1.3-2.9-2.4-4.8-3.1c-1.9-0.7-3.9-1.1-6.3-1.1c-2.4,0-4.7,0.4-6.8,1.3c-2.1,0.8-3.9,2-5.5,3.5c-1.6,1.5-2.8,3.2-3.7,5.1
		c-0.9,1.9-1.3,4-1.3,6.1c0,2.1,0.3,4,1,5.6c0.7,1.6,1.6,2.9,2.8,3.8c1.1,0.9,2.4,1.4,3.7,1.4c1.3,0,2.6-0.5,3.7-1.4
		c1.2-1,2.2-2.4,3.2-4.2c1-1.8,1.8-4,2.6-6.6c0.7-2.2,1.2-4.4,1.6-6.6c0.2-1.4,0.5-2.7,0.7-4c0.9,0.1,1.7,0.3,2.5,0.6
		c1.3,0.5,2.4,1.3,3.3,2.2s1.6,2.1,2.1,3.3c0.5,1.3,0.7,2.7,0.7,4.2c0,1.4-0.2,2.8-0.7,3.9C66.4,23.8,65.8,24.8,65,25.7z M67.8,14.2
		c-0.5-1.4-1.3-2.6-2.3-3.7c-1-1-2.2-1.9-3.7-2.4c-0.8-0.3-1.7-0.6-2.7-0.7l-1-0.1l-0.2,1c-0.2,1.3-0.4,2.6-0.7,4
		c-0.4,2.1-0.9,4.3-1.6,6.4c-0.7,2.5-1.6,4.6-2.5,6.4c-0.9,1.7-1.9,3-2.9,3.9c-1,0.8-2,1.2-3.1,1.2c-1.1,0-2.1-0.4-3.1-1.1
		c-1-0.8-1.8-2-2.5-3.4c-0.6-1.5-1-3.3-1-5.2c0-2,0.4-3.9,1.2-5.7c0.8-1.8,2-3.4,3.5-4.8c1.5-1.4,3.2-2.5,5.2-3.3
		c2-0.8,4.1-1.2,6.4-1.2c2.2,0,4.1,0.4,5.9,1C64.7,7,66.2,8,67.4,9.2c1.2,1.2,2.2,2.7,2.8,4.3c0.7,1.6,1,3.4,1,5.3
		c0,2.5-0.5,4.7-1.5,6.6c-1,1.9-2.5,3.5-4.5,4.8c-1.9,1.2-4.2,2-6.9,2.5l-1.4-2.2c0.1,0,0.3,0,0.4-0.1c0.6-0.1,1.1-0.2,1.6-0.3
		c1.3-0.3,2.6-0.8,3.7-1.4c1.2-0.6,2.2-1.4,3.1-2.4c0.9-1,1.6-2.1,2.1-3.4c0.5-1.3,0.8-2.7,0.8-4.3C68.6,17.1,68.3,15.5,67.8,14.2z"
		/>
	<path class="st0" d="M51.1,8.4c-1.7,0.8-3.1,1.8-4.3,3.1c-1.2,1.2-2.1,2.6-2.7,4.1c-0.6,1.5-0.9,2.9-0.9,4.3c0,1.5,0.2,2.7,0.6,3.7
		c0.4,1.1,0.9,1.9,1.5,2.4c0.7,0.6,1.4,0.9,2.2,0.9c0.8,0,1.6-0.4,2.4-1.1c0.6-0.6,1.3-1.6,1.9-2.9c0.6-1.2,1.1-2.8,1.7-4.6
		c0.6-1.9,1.1-3.8,1.5-5.9c0.2-1.1,0.4-2.3,0.6-3.8l0.2-1.4l-1.3,0.2C53.1,7.6,52.1,8,51.1,8.4z M53.8,12.1c-0.4,2.1-0.9,4-1.4,5.8
		c-0.6,1.8-1.1,3.3-1.7,4.5c-0.5,1.2-1.1,2-1.7,2.6c-0.6,0.6-1.1,0.8-1.7,0.8c-0.5,0-1-0.2-1.5-0.7c-0.5-0.4-0.9-1.1-1.2-2
		c-0.3-0.9-0.5-2-0.5-3.4c0-1.2,0.3-2.5,0.9-3.9c0.6-1.4,1.4-2.6,2.5-3.8c1.1-1.2,2.4-2.1,4-2.8c0.9-0.4,1.9-0.7,2.9-0.9
		C54.3,9.7,54.1,10.9,53.8,12.1z"/>
	<path class="st0" d="M121.8,5.9c0.8,0.5,1.5,1,2,1.5l2.4-3.3c-0.5-0.5-1.2-0.9-2.1-1.4c-0.8-0.5-1.7-0.9-2.6-1.4
		c-0.9-0.4-1.8-0.8-2.7-1.1l-2.2,3c0.9,0.4,1.8,0.8,2.7,1.3C120.1,4.9,120.9,5.4,121.8,5.9z M119.1,1.4c0.6,0.2,1.3,0.5,1.9,0.8
		c0.9,0.4,1.8,0.9,2.6,1.3c0.4,0.3,0.8,0.5,1.2,0.7L123.5,6c-0.4-0.3-0.8-0.6-1.2-0.9c-0.8-0.5-1.7-1.1-2.7-1.5
		c-0.5-0.3-1.1-0.5-1.6-0.8L119.1,1.4z"/>
	<path class="st0" d="M105.9,18.5h-8.2v3.4h8.2V18.5z M98.7,21.2v-1.7h6.2v1.7H98.7z"/>
	<path class="st0" d="M88,25.9h8.1v-3.5H88V25.9z M95.2,23.1v1.7H89v-1.7H95.2z"/>
	<path class="st0" d="M88,21.8h8.1v-3.4H88V21.8z M89,19.5h6.1v1.7H89V19.5z"/>
	<path class="st0" d="M97.7,25.9h8.2v-3.5h-8.2V25.9z M104.9,23.1v1.7h-6.2v-1.7H104.9z"/>
	<path class="st0" d="M105.6,16v-3.2c0.6,0.6,1.3,1.2,2.1,1.8c0.8,0.6,1.5,1.1,2.3,1.5c0.3-0.4,0.6-0.8,1-1.2c0.4-0.4,0.8-0.8,1.1-1
		c-0.7-0.3-1.5-0.7-2.2-1.1c-0.8-0.4-1.5-0.9-2.2-1.4c-0.3-0.2-0.5-0.4-0.7-0.6h4.3V8.1h-5.5V6.2h6V2.9H97.4V0h-4.3v2.9H82.9h-1.4
		h-2.4V15c0,1.4,0,2.8-0.1,4.4c-0.1,1.6-0.2,3.2-0.4,4.8c-0.2,1.6-0.5,3.2-0.9,4.7c-0.4,1.5-1,3-1.7,4.3c0.3,0.1,0.6,0.3,1,0.6
		c0.4,0.3,0.8,0.6,1.2,1c0.4,0.3,0.7,0.6,0.9,0.9c0.8-1.4,1.5-3,2-4.8c0.5-1.8,0.9-3.6,1.1-5.4c0.3-1.9,0.4-3.7,0.5-5.5
		c0.1-1.8,0.2-3.4,0.2-4.9V6.2h6.3v1.9h-5.1v2.5H88c-0.2,0.1-0.3,0.3-0.5,0.4c-0.7,0.6-1.4,1.1-2.2,1.6c-0.8,0.5-1.6,0.8-2.4,1.1
		c0.3,0.3,0.7,0.6,1.1,1.1s0.7,0.8,0.9,1.2c0.8-0.4,1.7-0.9,2.5-1.5c0.6-0.5,1.2-1,1.7-1.6V16h3v-3c0.2,0.1,0.4,0.3,0.6,0.4
		c0.5,0.3,0.9,0.6,1.3,0.9c0.3,0.2,0.5,0.3,0.7,0.5l-0.2,0c-0.2,0.4-0.4,0.9-0.6,1.5c-0.1,0.3-0.2,0.5-0.4,0.8h-8v10.1h4.2
		c-0.2,0.7-0.6,1.4-1,2c-0.5,0.7-1.4,1.3-2.5,1.9c-1.1,0.5-2.6,1-4.6,1.4c0.3,0.2,0.5,0.5,0.8,0.9c0.3,0.4,0.6,0.8,0.8,1.2
		c0.3,0.4,0.4,0.8,0.5,1.1c2.3-0.6,4.1-1.3,5.5-2.1c1.3-0.8,2.4-1.8,3.1-2.9c0.6-1,1-2.1,1.3-3.4h2.9v4.3c0,1,0.1,1.8,0.4,2.3
		c0.3,0.6,0.8,0.9,1.5,1.2c0.7,0.2,1.8,0.3,3.1,0.3c0.2,0,0.5,0,0.9,0c0.4,0,0.9,0,1.4,0c0.5,0,1.1,0,1.6,0c0.5,0,1,0,1.4,0
		s0.7,0,0.9,0c1,0,1.7-0.1,2.3-0.3c0.6-0.2,1-0.6,1.3-1.2c0.3-0.6,0.5-1.4,0.6-2.5c-0.5-0.1-1-0.3-1.6-0.5c0,0-0.1,0-0.1,0
		c-0.2-0.5-0.5-1-0.8-1.6c-0.4-0.7-0.8-1.3-1.3-1.8l-2.2,0.7c0.3,0.4,0.5,0.8,0.8,1.2c-0.8,0-1.5,0.1-2.3,0.1
		c0.1-0.2,0.1-0.4,0.2-0.6c0.2-0.5,0.4-1,0.6-1.4h3.2V17.1H97.3c0.3-0.4,0.7-0.9,1-1.3c0.1,0.1,0.1,0.2,0.2,0.2
		c0.8-0.4,1.6-0.9,2.4-1.5c0.6-0.5,1.2-1,1.7-1.6V16H105.6z M94.7,13.6c-0.4-0.3-0.9-0.6-1.3-0.9l-1.2-0.8c0.2,0.1,0.3,0.1,0.5,0.2
		c0.5,0.2,1,0.4,1.5,0.7c0.4,0.2,0.8,0.4,1.2,0.6l-0.4,0.4C94.9,13.7,94.8,13.6,94.7,13.6z M107.9,28.5c0.3,0.4,0.5,0.8,0.8,1.2
		c0.2,0.3,0.3,0.5,0.4,0.7l-0.4,0.1c0,0-0.2-0.4-0.2-0.4l0.1,0c0,0-0.9-1.5-1-1.5L107.9,28.5z M104.7,31.2c1-0.1,2-0.2,3.1-0.3
		c0.1,0.3,0.3,0.6,0.3,0.9l0.7-0.3c0,0,0,0.1,0,0.1c-0.1,0.4-0.3,0.6-0.5,0.7c-0.2,0.1-0.5,0.2-0.9,0.2c-0.2,0-0.6,0-1.1,0
		c-0.5,0-1.1,0-1.7,0c-0.6,0-1.1,0-1.6,0c-0.5,0-0.8,0-1,0c-0.8,0-1.3-0.1-1.6-0.2c-0.2-0.1-0.4-0.4-0.4-0.9v-4.3h2.7
		c0,0.2-0.1,0.4-0.1,0.6c-0.1,0.6-0.2,1-0.4,1.5c-0.5,0-0.9,0-1.3,0.1l0.4,2.1C102.4,31.4,103.6,31.3,104.7,31.2z M107.6,18.1v8.1
		h-2.9l-0.3,0.6c-0.2,0.5-0.4,1-0.6,1.5l-0.7,1.9l1.1,0c-0.7,0.1-1.4,0.1-2.1,0.2l0-0.1c0.1,0,0.9,0,0.9,0l0.2-0.7
		c0.1-0.5,0.3-1,0.4-1.6l0.4-1.8h-4.9v5.3c0,1.1,0.5,1.5,0.9,1.8c0.4,0.2,1,0.3,2,0.3h5.4c0.6,0,1-0.1,1.4-0.2
		c0.5-0.2,0.8-0.7,1-1.3l0.1-0.4l0.3,0.1c0.3,0.1,0.5,0.2,0.8,0.3c-0.1,0.5-0.2,1-0.4,1.3c-0.2,0.4-0.4,0.6-0.8,0.8
		c-0.4,0.2-1.1,0.3-1.9,0.3h-6.2c-1.2,0-2.2-0.1-2.8-0.3c-0.6-0.2-0.8-0.5-0.9-0.6c-0.1-0.3-0.3-0.8-0.3-1.9v-5.3h-4.7L92.8,27
		c-0.3,1.2-0.7,2.2-1.2,3.1c-0.6,1-1.5,1.9-2.7,2.6c-1.1,0.7-2.6,1.3-4.4,1.8c-0.1-0.1-0.2-0.3-0.3-0.4c-0.2-0.3-0.4-0.6-0.6-0.9
		c1.3-0.3,2.3-0.7,3.2-1.1c1.3-0.6,2.2-1.3,2.8-2.2c0.5-0.7,0.9-1.4,1.1-2.3l0.4-1.3h-4.6v-8.1h7.6c0,0,0.5-1.1,0.7-1.3
		c0.1-0.3,0.3-0.6,0.4-0.8l1.6,0.2c-0.1,0.1-0.2,0.2-0.3,0.3l-1.3,1.6H107.6z M95.2,14.9l1.7-1.9c-0.2-0.1-0.5-0.3-1-0.5
		c-0.4-0.2-0.9-0.4-1.4-0.7c-0.5-0.2-1-0.5-1.5-0.7c-0.4-0.2-0.7-0.3-0.9-0.4v-0.1h4.8V8.1h-4.8V6.2h10.4v1.9H98v2.5h3.3
		c-0.2,0.1-0.3,0.3-0.5,0.4c-0.7,0.6-1.4,1.1-2.1,1.6c-0.8,0.5-1.6,0.8-2.3,1.1c0.3,0.3,0.7,0.6,1.1,1.1c0.1,0.2,0.2,0.3,0.4,0.4
		L95.2,14.9z M101.8,12.2c-0.6,0.6-1.1,1.1-1.6,1.5c-0.5,0.4-1,0.7-1.5,1l-0.4-0.6l0,0c0,0,0,0,0,0c0.4-0.2,0.7-0.4,1.1-0.6
		c0.8-0.5,1.6-1.1,2.3-1.7c0.1-0.1,0.2-0.2,0.4-0.3l1.9-1.9H99V9.1h4.5V5.2H91.2v3.9h4.8v0.5h-4.8V15h-1v-4.6l-1.7,1.8
		c-0.6,0.6-1.1,1.1-1.6,1.5c-0.5,0.4-1,0.7-1.5,1c-0.1-0.2-0.3-0.3-0.4-0.5c0,0,0-0.1-0.1-0.1c0.4-0.2,0.8-0.4,1.1-0.6
		c0.8-0.5,1.6-1,2.3-1.7c0.1-0.1,0.3-0.2,0.4-0.3l2-1.9h-5.4V9.1h5.1V5.2h-8.3V15c0,1.5-0.1,3.1-0.2,4.9c-0.1,1.8-0.3,3.6-0.5,5.4
		c-0.2,1.8-0.6,3.6-1.1,5.3c-0.3,1.2-0.8,2.4-1.3,3.4c-0.4-0.4-0.8-0.7-1.2-1c-0.1-0.1-0.2-0.1-0.3-0.2c0.6-1.1,1-2.4,1.4-3.6
		c0.4-1.6,0.8-3.2,1-4.9c0.2-1.6,0.3-3.3,0.4-4.9c0.1-1.6,0.1-3.1,0.1-4.4V3.9h14.1V1h2.3v2.9h14.1v1.4h-6v3.9h5.5v0.5h-5.9l2,1.7
		c0.2,0.2,0.5,0.4,0.8,0.6c0.7,0.6,1.5,1.1,2.3,1.5c0.3,0.2,0.7,0.4,1,0.5c0,0-0.1,0.1-0.1,0.1c-0.2,0.2-0.3,0.4-0.5,0.6
		c-0.5-0.3-0.9-0.6-1.4-1c-0.7-0.5-1.3-1.1-2-1.7l-1.7-1.6V15h-1v-4.6L101.8,12.2z"/>
	<path class="st0" d="M13.8,29.8l1,4.3c1.7-0.2,3.5-0.4,5.5-0.7c2-0.3,4.1-0.6,6.3-0.9c1.5-0.2,3-0.4,4.5-0.6
		c0.3,1.3,0.6,2.6,0.7,3.6l4.3-1.4c-0.2-1.4-0.6-3-1.1-4.8c-0.5-1.8-1.2-3.6-1.9-5.5c-0.7-1.9-1.5-3.7-2.4-5.3l-3.9,1.1
		c0.8,1.7,1.5,3.5,2.2,5.4c0.4,1,0.7,2,1,3c-1.4,0.1-2.8,0.3-4.2,0.4c-1.5,0.2-2.9,0.3-4.3,0.4c0.3-1.3,0.7-2.6,1-4
		c0.6-2.4,1.2-5,1.7-7.6c0.6-2.7,1.1-5.3,1.6-8c0.5-2.7,0.9-5.3,1.3-7.8l-4.6-0.8c-0.3,2.4-0.6,4.9-1,7.6c-0.4,2.7-0.9,5.3-1.4,8
		c-0.5,2.7-1,5.2-1.6,7.7c-0.4,1.9-0.9,3.7-1.3,5.3C16.1,29.6,14.9,29.7,13.8,29.8z M18.1,30.4l0.2-0.7c0.4-1.6,0.9-3.5,1.3-5.4
		c0.6-2.5,1.1-5.1,1.6-7.8c0.5-2.7,1-5.4,1.4-8.1C23,6.3,23.3,4.1,23.5,2l2.6,0.4c-0.3,2.2-0.7,4.5-1.1,6.8c-0.5,2.7-1,5.4-1.6,8
		c-0.6,2.6-1.1,5.2-1.7,7.6c-0.3,1.4-0.7,2.7-1,4l-0.4,1.4l5.7-0.6c1.1-0.1,5.4-0.6,5.4-0.6L31,27.9c-0.3-1-0.7-2-1-3.1
		c-0.6-1.5-1.1-3-1.8-4.4l2-0.6c0.7,1.4,1.3,2.9,1.9,4.5c0.7,1.9,1.4,3.7,1.9,5.4c0.4,1.4,0.7,2.6,0.9,3.8l-2.4,0.8
		c-0.1-0.8-0.3-1.7-0.6-2.6l-0.2-0.9c0,0-3.9,0.6-5.4,0.8l-6.3,0.9c-1.7,0.2-3.2,0.4-4.6,0.6l-0.5-2.3c0.7-0.1,1.5-0.1,2.4-0.2
		L18.1,30.4z"/>
	<path class="st0" d="M2.1,29.9c0.8-0.9,1.6-2,2.4-3.3C5.2,25.4,6,24,6.7,22.6c0.3-0.7,0.7-1.4,1-2v14.9h4V20.6
		c0.3,0.3,0.5,0.6,0.8,1c0.6,0.7,1.1,1.4,1.7,2.1c0.5,0.7,0.9,1.2,1.2,1.7l2.4-3.1c-0.2-0.3-0.6-0.7-1.2-1.2
		c-0.6-0.6-1.2-1.2-1.9-1.8c-0.7-0.7-1.3-1.3-1.9-1.8c-0.5-0.5-0.9-0.8-1.2-1.1V15h6v-3.9h-6v-6c0.4-0.1,0.8-0.2,1.1-0.3
		c1.8-0.5,3.4-1,4.9-1.6l-2.9-3c-1.1,0.5-2.4,1-4,1.4C9.3,2.1,7.6,2.5,5.9,2.9c-1.7,0.4-3.5,0.7-5.1,1C1,4.2,1.2,4.8,1.4,5.4
		C1.7,6,1.8,6.5,1.9,7c1.8-0.2,3.6-0.5,5.5-0.9c0.1,0,0.2,0,0.3-0.1v5.1H0.9V15h6c-0.2,0.4-0.3,0.8-0.5,1.2
		c-0.6,1.2-1.2,2.4-1.9,3.6c-0.7,1.2-1.4,2.3-2.2,3.4c-0.8,1.1-1.5,2-2.3,2.8c0.3,0.5,0.7,1.1,1.1,1.9S1.8,29.4,2.1,29.9z M3.1,23.8
		c0.8-1.1,1.5-2.3,2.2-3.5c0.7-1.2,1.4-2.5,1.9-3.7c0.2-0.4,0.3-0.7,0.5-1.1L8.4,14H1.9v-1.9h6.8V4.8L7.2,5.1
		C5.7,5.4,4.1,5.6,2.7,5.8C2.6,5.6,2.5,5.3,2.4,5C2.3,4.9,2.2,4.7,2.2,4.6c1.3-0.2,2.6-0.5,3.9-0.8c1.8-0.4,3.4-0.8,5-1.3
		c1.3-0.4,2.4-0.8,3.4-1.2l1.4,1.4c-1,0.4-2.2,0.7-3.3,1C12.4,3.9,12.1,4,11.9,4l-1.2,0.3v7.8h6V14h-6v2.8L11,17
		c0.3,0.2,0.7,0.6,1.1,1c0.6,0.6,1.2,1.2,1.9,1.8c0.7,0.7,1.3,1.3,1.9,1.8c0.2,0.2,0.4,0.4,0.6,0.6l-1.1,1.3
		c-0.2-0.2-0.3-0.4-0.5-0.7c-0.5-0.7-1.1-1.4-1.7-2.1c-0.3-0.3-0.5-0.7-0.8-1l-1.8-2.1v16.6h-2V20.6l-1.9-0.5c-0.3,0.7-0.6,1.3-1,2
		c-0.7,1.4-1.5,2.8-2.2,4c-0.4,0.7-0.9,1.3-1.3,1.9c-0.1-0.2-0.2-0.4-0.3-0.6c-0.3-0.5-0.5-0.9-0.7-1.3C1.9,25.5,2.5,24.7,3.1,23.8z
		"/>
	<path class="st0" d="M114.4,13.6c0.8,0.3,1.7,0.7,2.7,1.2c0.9,0.5,1.8,0.9,2.6,1.4c0.8,0.5,1.5,0.9,2,1.3l2.2-3.4
		c-0.6-0.4-1.3-0.9-2.1-1.3c-0.8-0.4-1.7-0.9-2.7-1.3c-0.9-0.4-1.8-0.7-2.7-1L114.4,13.6z M118.7,12.4c0.9,0.4,1.8,0.8,2.6,1.2
		c0.4,0.2,0.8,0.5,1.2,0.7l-1.1,1.7c-0.4-0.3-0.8-0.5-1.2-0.8c-0.8-0.5-1.8-1-2.7-1.4c-0.5-0.3-1.1-0.5-1.6-0.7l1-1.4
		C117.5,11.9,118.1,12.1,118.7,12.4z"/>
	<path class="st0" d="M121.2,31.1c0.7-1.4,1.5-2.7,2.2-4.1c0.7-1.4,1.4-2.8,2-4.1l-3.1-2.6c-0.7,1.4-1.4,2.9-2.2,4.4
		c-0.8,1.5-1.6,2.9-2.4,4.2c-0.8,1.3-1.5,2.5-2.1,3.4L119,35C119.7,33.8,120.4,32.5,121.2,31.1z M116.8,32.1
		c0.5-0.8,1.1-1.7,1.7-2.7c0.8-1.3,1.6-2.7,2.4-4.2c0.6-1.1,1.2-2.2,1.7-3.3l1.5,1.3c-0.5,1.1-1.1,2.2-1.6,3.4
		c-0.7,1.4-1.4,2.8-2.2,4.1c-0.5,1-1.1,2-1.6,2.9L116.8,32.1z"/>
	<path class="st0" d="M219.7,8h-11.4c0-0.1,0-0.3,0-0.5V0.1H204v7.5c0,0.1,0,0.3,0,0.5h-11.9v4.2h11.7c0,0.1,0,0.1,0,0.2
		c-0.2,1.7-0.5,3.5-0.9,5.2c-0.5,1.8-1.2,3.6-2.1,5.3c-0.9,1.7-2.2,3.4-3.8,5c-1.6,1.6-3.6,3.1-6,4.4c0.4,0.2,0.7,0.5,1.1,0.9
		c0.4,0.4,0.8,0.8,1.2,1.2c0.4,0.4,0.7,0.8,0.9,1.2c2.6-1.5,4.8-3.1,6.5-5c1.7-1.8,3.1-3.7,4.1-5.7c1-2,1.8-4,2.3-6
		c0.5-2,0.8-4,1-5.9c0-0.3,0-0.6,0.1-0.9h11.4c-0.1,2.2-0.2,4.2-0.4,5.9c-0.2,2.6-0.4,4.7-0.6,6.4c-0.2,1.7-0.5,3-0.8,4
		c-0.3,1-0.6,1.6-0.9,1.9c-0.2,0.3-0.5,0.4-0.7,0.5c-0.3,0.1-0.6,0.1-1,0.1c-0.5,0-1.3,0-2.3,0c-1.1,0-2.2-0.1-3.4-0.2
		c0.4,0.6,0.7,1.3,1,2.1s0.4,1.5,0.4,2.1c1.1,0.1,2.3,0.1,3.4,0.1c1.1,0,2,0,2.7-0.1c0.8-0.1,1.5-0.3,2.1-0.5
		c0.6-0.3,1.1-0.7,1.7-1.4c0.4-0.5,0.8-1.2,1.1-2.3c0.3-1,0.6-2.5,0.9-4.2s0.5-4,0.7-6.7c0.2-2.7,0.4-6,0.6-9.8c0-0.2,0-0.5,0.1-0.8
		c0-0.3,0-0.7,0-1.3h-2.5H219.7z M222.9,9.2c0,0.3,0,0.5,0,0.7c-0.2,3.9-0.4,7.2-0.6,9.9c-0.2,2.7-0.4,4.9-0.7,6.7
		c-0.2,1.7-0.5,3.1-0.8,4.1c-0.3,1.1-0.7,1.7-0.9,1.9c-0.5,0.6-0.9,1-1.3,1.2c-0.5,0.2-1.1,0.4-1.8,0.5c-0.6,0.1-1.3,0.1-2.2,0.1
		l-0.4,0c-0.8,0-1.7,0-2.5-0.1c-0.1-0.4-0.2-0.9-0.4-1.5c-0.1-0.2-0.2-0.4-0.2-0.7c0.6,0,1.2,0.1,1.7,0.1c1.1,0,1.8,0,2.3,0
		c0.5,0,0.9,0,1.3-0.2c0.4-0.1,0.9-0.4,1.2-0.8c0.4-0.4,0.8-1.2,1.1-2.3c0.3-1,0.6-2.4,0.8-4.2c0.2-1.7,0.4-3.9,0.6-6.5
		c0.1-1.7,0.3-3.7,0.4-5.9l0.1-1.1h-13.4l-0.1,0.9c0,0,0,0.7-0.1,0.9c-0.2,1.9-0.5,3.8-1,5.8c-0.5,1.9-1.2,3.9-2.2,5.8
		c-1,1.9-2.3,3.7-4,5.5c-1.5,1.5-3.3,3-5.5,4.3c-0.1-0.2-0.3-0.3-0.4-0.5c-0.4-0.4-0.8-0.9-1.2-1.3c0,0-0.1-0.1-0.1-0.1
		c1.9-1.2,3.6-2.5,5-3.9c1.6-1.7,3-3.4,4-5.3c1-1.8,1.7-3.7,2.2-5.5c0.5-1.8,0.8-3.6,0.9-5.4l0.1-1.2l-1.1-0.1h-10.7V9H205l0-1.5
		V1.1h2.3v6.5l0,0.5v1h15.6C222.9,9.1,222.9,9.2,222.9,9.2z"/>
	<path class="st0" d="M165.1,8.4c-1.7,0.8-3.1,1.8-4.3,3.1c-1.2,1.2-2.1,2.6-2.7,4.1c-0.6,1.5-0.9,2.9-0.9,4.3
		c0,1.5,0.2,2.7,0.6,3.7c0.4,1.1,0.9,1.9,1.5,2.4c0.7,0.6,1.4,0.9,2.2,0.9c0.8,0,1.6-0.4,2.4-1.1c0.6-0.6,1.3-1.6,1.9-2.9
		c0.6-1.2,1.1-2.8,1.7-4.6c0.6-1.9,1.1-3.9,1.5-5.9c0.2-1.1,0.4-2.4,0.6-3.8l0.2-1.3l-1.3,0.2C167.1,7.6,166.1,8,165.1,8.4z
		 M167.8,12.1c-0.4,2.1-0.9,4-1.4,5.8c-0.6,1.8-1.1,3.3-1.7,4.5c-0.5,1.2-1.1,2-1.7,2.6c-0.6,0.6-1.1,0.8-1.7,0.8
		c-0.5,0-1-0.2-1.5-0.7c-0.5-0.4-0.9-1.1-1.2-2c-0.3-0.9-0.5-2-0.5-3.4c0-1.2,0.3-2.5,0.9-3.9c0.6-1.4,1.4-2.6,2.5-3.8
		c1.1-1.2,2.4-2.1,4-2.8c0.9-0.4,1.9-0.7,2.9-0.9C168.3,9.7,168.1,10.9,167.8,12.1z"/>
	<path class="st0" d="M186.2,18.8c0-2-0.4-3.9-1.1-5.7c-0.7-1.8-1.7-3.3-3-4.7c-1.3-1.3-2.9-2.4-4.8-3.1c-1.9-0.7-3.9-1.1-6.3-1.1
		c-2.4,0-4.7,0.4-6.8,1.3c-2.1,0.8-3.9,2-5.5,3.5c-1.6,1.5-2.8,3.2-3.7,5.1c-0.9,1.9-1.3,4-1.3,6.1c0,2.1,0.3,4,1,5.6
		c0.7,1.6,1.6,2.9,2.8,3.8c1.1,0.9,2.4,1.4,3.7,1.4c1.3,0,2.6-0.5,3.7-1.4c1.2-1,2.2-2.4,3.2-4.2c1-1.8,1.8-4,2.6-6.6
		c0.7-2.2,1.2-4.4,1.6-6.6c0.2-1.4,0.5-2.7,0.7-4c0.9,0.1,1.7,0.3,2.5,0.6c1.3,0.5,2.4,1.3,3.3,2.2c0.9,1,1.6,2.1,2.1,3.3
		c0.5,1.3,0.7,2.7,0.7,4.2c0,1.4-0.2,2.8-0.7,3.9s-1.1,2.2-1.9,3.1c-0.8,0.9-1.8,1.6-2.8,2.2c-1.1,0.6-2.2,1-3.4,1.3
		c-0.5,0.1-1,0.2-1.6,0.3c-0.6,0.1-1.2,0.2-1.9,0.3l2.5,4c3.2-0.5,5.8-1.4,7.9-2.7c2.1-1.3,3.7-3.1,4.8-5.1
		C185.6,23.9,186.2,21.5,186.2,18.8z M179.2,30.2c-1.9,1.2-4.2,2-6.9,2.5l-1.4-2.2c0.1,0,0.3,0,0.4-0.1c0.6-0.1,1.1-0.2,1.6-0.3
		c1.3-0.3,2.6-0.8,3.7-1.4c1.2-0.6,2.2-1.4,3.1-2.4c0.9-1,1.6-2.1,2.1-3.4c0.5-1.3,0.8-2.7,0.8-4.3c0-1.6-0.3-3.2-0.8-4.5
		c-0.5-1.4-1.3-2.6-2.3-3.7c-1-1-2.2-1.9-3.7-2.4c-0.8-0.3-1.7-0.6-2.7-0.7l-1-0.1l-0.2,1c-0.2,1.3-0.4,2.6-0.7,4
		c-0.4,2.1-0.9,4.3-1.6,6.4c-0.7,2.5-1.6,4.6-2.5,6.4c-0.9,1.7-1.9,3-2.9,3.9c-1,0.8-2,1.2-3.1,1.2c-1.1,0-2.1-0.4-3.1-1.1
		c-1-0.8-1.8-2-2.5-3.4c-0.6-1.5-1-3.3-1-5.2c0-2,0.4-3.9,1.2-5.7c0.8-1.8,2-3.4,3.5-4.8c1.5-1.4,3.2-2.5,5.2-3.3
		c2-0.8,4.1-1.2,6.4-1.2c2.2,0,4.1,0.4,5.9,1c1.7,0.7,3.2,1.7,4.4,2.9c1.2,1.2,2.2,2.7,2.8,4.3c0.7,1.6,1,3.4,1,5.3
		c0,2.5-0.5,4.7-1.5,6.6C182.7,27.4,181.1,29,179.2,30.2z"/>
	<path class="st0" d="M146,26c-0.9-1.3-1.9-2.5-2.8-3.6l-3.5,1.9c0.9,1.2,1.9,2.4,2.8,3.8c0.2,0.3,0.4,0.6,0.6,0.9
		c-1.6,0.1-3.3,0.2-4.9,0.3c-2,0.1-3.9,0.2-5.8,0.3c0.2-0.4,0.4-0.8,0.6-1.1c0.7-1.4,1.3-2.9,2-4.4c0.6-1.5,1.2-3,1.8-4.5l-0.1,0h13
		v-3.9h-10.3V9.6h8.5V5.7h-8.5V0h-4.2v5.7h-8.1v3.9h8.1v5.9h-10v3.9h6.9c-0.2,0.7-0.4,1.3-0.6,2c-0.4,1.1-0.8,2.2-1.2,3.4
		s-0.9,2.2-1.3,3.3c-0.3,0.6-0.5,1.1-0.7,1.6c-1.1,0.1-2.1,0.1-3,0.2l0.6,4.1c1.8-0.1,3.8-0.3,6-0.4c2.2-0.2,4.6-0.3,7-0.5
		c2.2-0.2,4.4-0.3,6.6-0.5c0.6,1.1,1.1,2.2,1.4,3.1l3.9-2.1c-0.4-1.1-1-2.2-1.7-3.5C147.8,28.6,147,27.3,146,26z M147,34.1
		c-0.3-0.7-0.6-1.4-1-2.1l-0.3-0.6l-0.7,0c-2.2,0.2-4.4,0.3-6.6,0.5c-2.4,0.2-4.7,0.4-7,0.5c-1.8,0.1-3.5,0.3-5.1,0.4l-0.3-2.1
		c0.6,0,2.5-0.1,2.5-0.1l0.3-0.5c0.3-0.5,0.5-1.1,0.8-1.7c0.5-1,0.9-2.2,1.3-3.3c0.4-1.2,0.8-2.3,1.2-3.4c0.2-0.7,0.4-1.4,0.6-2
		l0.4-1.3h-7.2v-1.9h10V8.6h-8.1V6.7h8.1V1h2.2v5.7h8.5v1.9h-8.5v7.9h10.3v1.9h-12l-0.2,1.8l-0.6-1.1c-0.6,1.4-1.2,2.9-1.8,4.5
		c-0.6,1.5-1.3,3-2,4.4c-0.2,0.4-0.4,0.8-0.5,1.1l-0.8,1.5l1.7-0.1c1.9-0.1,3.8-0.2,5.8-0.3c1.3-0.1,2.6-0.1,3.9-0.2l2.7-0.1
		l-1.1-1.8c-0.1-0.2-0.2-0.4-0.4-0.6c-0.7-1-1.4-2-2.1-2.9l1.8-0.9c0.7,0.9,1.5,1.9,2.2,3c0.9,1.3,1.8,2.6,2.5,3.8
		c0.5,0.9,1,1.8,1.3,2.6L147,34.1z"/>
	<polygon class="st0" points="6.8,20.1 8.7,20.6 8.7,20.5 	"/>
	<polygon class="st0" points="6.8,20.1 8.7,20.5 8.7,20.6 8.9,16.2 	"/>
</g>
</svg>
