<?xml version="1.0" encoding="utf-8"?>
<!-- Generator: Adobe Illustrator 27.9.1, SVG Export Plug-In . SVG Version: 6.00 Build 0)  -->
<svg version="1.1" id="Layer_1" xmlns="http://www.w3.org/2000/svg" xmlns:xlink="http://www.w3.org/1999/xlink" x="0px" y="0px"
	 viewBox="0 0 90.3 65.3" style="enable-background:new 0 0 90.3 65.3;" xml:space="preserve">
<g>
	<path d="M42.4,45.4c0,11-9.2,19.9-21,19.9c-10.2,0-19.3-7-21.4-15.5l12.3-3.1c0.9,3.7,4.5,6.2,8.8,6.2c5.2,0,8.6-3.8,8.6-8.4
		c0-6.7-7.4-11.3-16.3-11.3l1.9-7.1c6.4,0,11.2-3.4,11.2-8c0-3.3-2.5-5.7-5.6-5.7c-2.6,0-4.7,1.7-5.2,4.4L2.9,14
		C4.7,6.6,11.7,0,21.1,0c9.7,0,18.2,7.1,18.2,17c0,5.5-2.7,10.2-6.8,12.3C37.7,31.8,42.4,37.4,42.4,45.4z"/>
	<path d="M90.3,45.4c0,11-9.2,19.9-21,19.9c-10.2,0-19.3-7-21.4-15.5l12.3-3.1c0.9,3.7,4.5,6.2,8.8,6.2c5.2,0,8.6-3.8,8.6-8.4
		c0-6.7-7.4-11.3-16.3-11.3l1.9-7.1c6.4,0,11.2-3.4,11.2-8c0-3.3-2.5-5.7-5.6-5.7c-2.6,0-4.7,1.7-5.2,4.4L50.7,14
		c1.8-7.5,8.8-14,18.2-14c9.7,0,18.2,7.1,18.2,17c0,5.5-2.7,10.2-6.8,12.3C85.6,31.8,90.3,37.4,90.3,45.4z"/>
</g>
</svg>
