<?xml version="1.0" encoding="utf-8"?>
<!-- Generator: Adobe Illustrator 27.9.1, SVG Export Plug-In . SVG Version: 6.00 Build 0)  -->
<svg version="1.1" id="Layer_1" xmlns:inkscape="http://www.inkscape.org/namespaces/inkscape"
	 xmlns="http://www.w3.org/2000/svg" xmlns:xlink="http://www.w3.org/1999/xlink" x="0px" y="0px" viewBox="0 0 144 32.3"
	 style="enable-background:new 0 0 144 32.3;" xml:space="preserve">
<style type="text/css">
	.st0{fill:#070707;}
</style>
<g>
	<path class="st0" d="M13.7,25l20.2-0.3l-0.6-3.8c-4.7,0-10,0.1-16,0.2c-6,0.1-11.7,0.2-17.3,0.2l0.2,3.9l5.8,0
		c-1.4,1.1-2.3,2.1-2.5,2.9c-0.2,0.4-0.3,0.9-0.3,1.3c0,0.7,0.2,1.3,0.7,1.8s1.1,0.8,2,0.9c1,0.1,2.2,0.2,3.6,0.2
		c3.9,0,9.1-0.3,15.6-1c0.3,0.3,0.6,0.7,0.9,1.2l6.5-1.1c-1.7-2.4-3.9-4.4-6.5-6.2l-6.2,0.9c1.6,1,2.5,1.5,2.6,1.7
		c-4.5,0.4-8,0.7-10.4,0.7c-1.1,0-1.6,0-1.7-0.1c0-0.1-0.1-0.2-0.1-0.2C10.3,27.6,11.4,26.6,13.7,25z"/>
	<path class="st0" d="M13.4,10.3c-1.9-0.3-4-0.5-6.2-0.5l-0.7,2.3c2.2,0,4.3,0.2,6.3,0.5L13.4,10.3z"/>
	<path class="st0" d="M6.9,15c1.7,0,3.6,0.2,5.6,0.5l0.7-2.3c-1.9-0.3-4-0.4-6.3-0.4L6.1,15L6.9,15z"/>
	<path class="st0" d="M26.8,15.3l0.7-2.3c-2-0.4-4-0.6-6.3-0.6l-0.7,2.3C22.6,14.7,24.7,14.9,26.8,15.3z"/>
	<path class="st0" d="M32.5,5.9c-0.6-0.3-1.2-0.4-1.9-0.5c-0.7-0.1-1.5-0.1-2.6-0.1c-4.4,0-7.3,0-8.7,0l-0.1-1c0,0,0-0.1,0-0.3
		l11.4,0l-0.4-3.9C14,0.3,4.9,0.4,3,0.4l0.1,3.9c2.7-0.1,6.4-0.1,11.2-0.1c0,0.3,0.1,0.8,0.1,1.4L5.6,5.6V5L0.4,5.1
		c0.1,2.5,0.1,4.4,0.1,5.8l0,4.4l5.4,0.1l0-3c0-0.6-0.1-1.5-0.2-2.9l8.8-0.3c0,2.1-0.1,4.1-0.4,6l5.4,0.2l0-2.9c0-0.7,0-1.8-0.1-3.3
		h7.8c0.9,0,1.3,0.7,1.3,2c0,1.3-0.1,2.6-0.4,4.1l5.4,0.1c0.1-1.4,0.2-2.6,0.2-3.7c0-1.3-0.1-2.7-0.3-4C33.5,6.7,33.1,6.2,32.5,5.9z
		"/>
	<path class="st0" d="M27.1,12.3l0.7-2.2c-1.9-0.4-4-0.6-6.3-0.6l-0.7,2.3l0.8,0C23.2,11.8,25.1,12,27.1,12.3z"/>
	<path class="st0" d="M3.3,20c17.3-0.2,26.4-0.3,27.5-0.4l-0.6-4c-3.6,0-8.1,0.1-13.7,0.2C11,16,6.5,16,3.1,16.1L3.3,20z"/>
	<path class="st0" d="M55,2.3c-3.1,0-5.9,0.6-8.3,1.9s-4.3,3.1-5.6,5.5c-1.3,2.4-2,5.1-2,8.1c0,3.2,0.7,5.8,2.2,7.6
		c1.5,1.8,3.5,2.8,6.1,2.8c2.2,0,4-0.7,5.5-2.2c1.4-1.4,2.6-3.5,3.8-6.3c1.1-2.8,2.1-6.2,2.8-10.2l-5-1.7c2.8,0,5.2,0.8,7,2.5
		c1.8,1.6,2.7,3.8,2.7,6.4c0,1.8-0.5,3.6-1.4,5.5c-1,1.8-2.3,3.5-4.1,5l5.8,3.5c1.9-1.9,3.4-4,4.4-6.3c1-2.3,1.5-4.8,1.5-7.3
		c0-4.4-1.4-7.9-4.3-10.6C63.3,3.7,59.6,2.3,55,2.3z M50.2,18.3c-1,2.2-2.1,3.4-3.2,3.4c-0.7,0-1.2-0.4-1.6-1.2
		c-0.4-0.8-0.6-1.9-0.6-3.2c0-2.7,0.8-4.9,2.3-6.5c1.5-1.7,3.6-2.7,6.3-2.9C52.4,12.6,51.3,16.1,50.2,18.3z"/>
	<path class="st0" d="M79.9,0c-0.7,6.3-2.7,11.2-6.1,14.9l2.9,5.5c0.7-0.6,1.2-1.2,1.5-1.8c0,5-0.2,9.3-0.5,12.9l5.9,0.2l0-4.5
		c0-5.8-0.1-11.8-0.3-18c0.8-2.2,1.4-5,1.7-8.5L79.9,0z"/>
	<path class="st0" d="M103.1,4.8c-1.4,0-2.9,0.1-4.4,0.2c-0.1-2-0.2-3.6-0.3-4.8l-4.7,0.5c0,1.6,0.1,3.2,0.1,4.8
		c-1.3,0.1-2.3,0.3-3.2,0.5c0-0.8,0-1.3-0.1-1.5l-4.8,0.7c0.2,3.3,0.3,8.1,0.3,14.4l0,3.4c3,0,5.6-0.1,7.8-0.1l0,8.7l5,0.1
		c0-3.4,0-6.4-0.1-8.9l7-0.4c0.5-4.9,0.8-8.7,0.8-11.6l0-1.4C106.5,6.5,105.3,4.9,103.1,4.8z M91,17.7c0-1.9-0.1-4.1-0.3-6.8
		c1.2-0.2,2.3-0.4,3.2-0.5l0.1,7.1L91,17.7z M101.5,17c-0.8,0.1-1.6,0.2-2.6,0.3c0-2.4-0.1-4.8-0.1-7.4c0.9-0.1,1.6-0.1,2.1-0.1
		c0.3,0,0.5,0,0.6,0c0.2,0.1,0.4,0.8,0.4,2.2C101.8,13.6,101.7,15.3,101.5,17z"/>
	<path class="st0" d="M139.2,0.9c-2.2,0-5,0.1-8.6,0.3l0,0l-2,0.1v13.4c3.5,0.1,7,0.1,10.5,0.1l0,9.4c0,1.1-0.5,1.6-1.5,1.6
		c-0.5,0-1-0.1-1.4-0.2l0.8,5.7c0.2,0.2,0.5,0.3,0.9,0.3c0.3,0,0.8,0,1.5-0.1c2.8-0.1,4.4-1.7,4.6-4.9v-0.3c0.1-2.6,0.1-4.3,0.1-5.1
		c0-4.6-0.2-10.1-0.5-16.5C143.1,2.1,141.6,0.9,139.2,0.9z M133.6,4.6l2.8-0.1c1.4,0,2.1,0.3,2.1,1l0,0.7h-1.2c-1.2,0-2.5,0-3.7-0.1
		V4.6z M137,11c-1.2,0-2.3,0-3.3,0V9.6c0.9,0,1.8,0.1,2.8,0.1l2.3,0l0.1,1.4H137z"/>
	<path class="st0" d="M126.8,3.3c0-1.4-0.9-2.1-2.6-2.3c-3,0-5.4,0.1-7.2,0.2l0-0.6L111.4,1c0,0.6,0.1,2.4,0.1,5.6
		c0,10.6-0.1,18.8-0.4,24.7l6,0.4l0-17.2c3.4-0.1,6.5-0.1,9.2-0.1C126.7,12.4,126.8,8.7,126.8,3.3z M121.6,11.1
		c-0.8,0-2.3,0.1-4.5,0.1V9.7c1.1,0,2.1,0.1,3.2,0.1h1.3V11.1z M121.6,6.2h-1.2c-1,0-2.1,0-3.3-0.1c0-0.4,0-0.8,0-1.2l3.9-0.1
		c0.4,0,0.7,0.1,0.7,0.4V6.2z"/>
	<path class="st0" d="M131.9,15.4c-1.7-0.1-2.9-0.2-3.5-0.2c-1.6,0-4.5,0.2-8.9,0.6c0.3,3.5,0.4,7,0.4,10.3v3.7
		c5.5,0,10.7-0.1,15.4-0.3c0.3-4.4,0.5-7.6,0.5-9.8C135.9,17,134.5,15.5,131.9,15.4z M130.5,25.5c-2.9,0.1-4.9,0.2-5.8,0.2v-1.5
		l5.9-0.1L130.5,25.5z M130.7,20.5l-6,0.1v-1.4c1.4-0.1,2.9-0.1,4.5-0.1c0.4,0,0.8,0.1,1.1,0.3s0.4,0.4,0.4,0.7
		C130.7,20.2,130.7,20.3,130.7,20.5z"/>
</g>
</svg>
