<?xml version="1.0" encoding="utf-8"?>
<!-- Generator: Adobe Illustrator 27.9.1, SVG Export Plug-In . SVG Version: 6.00 Build 0)  -->
<svg version="1.1" id="intergalactic" xmlns="http://www.w3.org/2000/svg" xmlns:xlink="http://www.w3.org/1999/xlink" x="0px"
	 y="0px" viewBox="0 0 497 161.3" style="enable-background:new 0 0 497 161.3;" xml:space="preserve">
<path d="M155.3,138.2c-2.3-5-5.1-9.7-8.6-14c-0.4-0.5-0.8-0.7-1.4-0.4c-1.9,0.6-3.8,1.2-5.6,1.8c-1.2,0.4-2.3,0.7-3.5,1.1
	c1.2,1.8,2.3,3.4,3.6,5.4c-3.6,0-6.9,0-10.2,0c1-2.7,2.1-5.4,3.1-8.1c0.2-0.6,0.6-0.8,1.2-0.8c4.2,0,8.5,0,12.7,0c0.3,0,0.7,0,1,0
	c0-15.4,0-30.5,0-45.9c-17,0-34,0-51,0c1.5-2,2.8-3.9,4.2-5.8c0.3,0.4,0.5,0.6,0.8,0.9c6.9-3.5,12.9-8.3,18.5-13.9c0,4.9,0,9.5,0,14
	c4.7,0,9.2,0,13.9,0c0-4.8,0-9.5,0-14.4c6.1,5.6,12.3,10.7,19.3,14.3c3.2-3.5,6.2-6.9,9.2-10.2c-8.1-3.6-16-7.8-22.9-14.2
	c6.7,0,13,0,19.4,0c0-3.8,0-7.5,0-11.4c-8.4,0-16.7,0-25,0c0-2.9,0-5.7,0-8.7c9,0,18,0,27,0c0-5.1,0-10.2,0-15.3
	c-21.3,0-42.6,0-64,0c0-4.3,0-8.5,0-12.8c-6.5,0-12.8,0-19.3,0c0,4.3,0,8.5,0,12.8c-21.2,0-42.4,0-63.6,0c0,0.4,0,0.7,0,1
	C14,34,14,54.2,13.9,74.4C13.8,82,13.5,89.5,13.1,97c-0.4,8.3-1.5,16.5-3.2,24.7c-1.7,8.1-3.9,16.1-7.6,23.6
	c-0.8,1.6-1.6,3.1-2.4,4.6c5.3,3,9.9,6.7,14.1,11.2c0.2-0.3,0.4-0.6,0.5-0.8c1.2-2.4,2.4-4.7,3.5-7.2c5.8-13.2,8.8-27.2,10.5-41.5
	c0.7-6,1.3-12,1.7-18.1c0.5-6.8,0.8-13.6,0.9-20.4c0.1-14.6,0.1-29.3,0.1-43.9c0-0.4,0-0.7,0-1.1c9.5,0,18.9,0,28.2,0
	c0,2.9,0,5.7,0,8.6c-7.6,0-15.2,0-22.7,0c0,3.8,0,7.6,0,11.4c5.8,0,11.6,0,17.6,0c-6.8,6.2-14.2,11-22.7,14c3.6,3,6.3,6.6,9,10.2
	c7.1-3.4,13.1-8.2,18.8-13.8c0,4.8,0,9.4,0,14c4.6,0,9,0,13.5,0c0-4.4,0-8.7,0-13.3c4,2.7,7.8,5.3,11.4,7.7
	c-0.4,0.3-0.8,0.5-0.9,0.8c-1.3,2.9-2.6,5.8-3.9,8.7c-0.3,0.7-0.7,0.9-1.4,0.9c-11.4,0-22.7,0-34.1,0c-0.4,0-0.7,0-1.1,0
	c0,15.3,0,30.5,0,45.8c6.3,0,12.6,0,19,0c0,0.2,0,0.3,0,0.4c-1.9,5.9-5.2,10.8-10.4,14.2c-4.8,3.2-10.1,5.2-15.7,6.7
	c-3.3,0.9-6.7,1.6-10.1,2.5c0,0,0,0.1,0,0.2c0.1,0.1,0.2,0.2,0.3,0.3c3.7,4,7,8.3,9.1,13.4c0.2,0.6,0.5,0.5,0.9,0.3
	c6.2-1.7,12.2-3.7,18-6.3c12.6-5.7,21.4-14.8,25.1-28.4c0.3-1.1,0.6-2.2,0.9-3.3c4.3,0,8.5,0,12.8,0c0,0.4,0,0.7,0,1.1
	c0,5.9-0.1,11.8,0,17.6c0,2.3,0.2,4.6,0.6,6.8c0.8,5.2,3.7,8.4,8.8,9.7c3.3,0.8,6.6,1.2,10,1.2c10.2,0.1,20.5,0.1,30.7,0
	c2.7,0,5.4-0.2,8.1-0.6c3.2-0.4,6-1.8,7.9-4.5c2.9-4,3.6-8.7,4.2-13.2c-2.4-0.7-4.6-1.4-6.8-2.1
	C155.9,139.2,155.6,138.8,155.3,138.2z M86.5,112.3c-9.2,0-18.3,0-27.5,0c0-2.5,0-5.1,0-7.7c9.1,0,18.3,0,27.5,0
	C86.5,107.2,86.5,109.7,86.5,112.3z M86.5,95.7c-9.2,0-18.3,0-27.5,0c0-2.5,0-5,0-7.6c9.2,0,18.3,0,27.5,0
	C86.5,90.6,86.5,93.1,86.5,95.7z M87.1,67.5c2.6-3,5.1-5.9,7.7-8.8c-2.1-1-4-2-6-3c-5-2.3-10.1-4.5-15.1-6.8
	c-0.3-0.1-0.4-0.4-0.6-0.6c0.1-0.1,0.1-0.2,0.2-0.2c7.2,0,14.3,0,21.5,0c0-3.8,0-7.5,0-11.3c-7.2,0-14.3,0-21.6,0c0-2.9,0-5.7,0-8.6
	c15.6,0,31.1,0,46.7,0c0,2.8,0,5.7,0,8.6c-6.7,0-13.4,0-20.2,0c0,3.8,0,7.6,0,11.4c5,0,9.9,0,14.8,0c0,0.1,0.1,0.2,0.1,0.2
	c-6.5,6-13.7,10.7-22,13.8c2.1,2.2,4.1,4.4,6.2,6.6c-0.1,0.1-0.1,0.2-0.2,0.2C94.9,68.5,91.1,68,87.1,67.5z M102.9,88.1
	c9.3,0,18.5,0,27.8,0c0,2.5,0,5,0,7.6c-9.3,0-18.5,0-27.8,0C102.9,93.1,102.9,90.6,102.9,88.1z M102.9,104.6c9.3,0,18.5,0,27.8,0
	c0,2.6,0,5.1,0,7.7c-9.3,0-18.5,0-27.8,0C102.9,109.7,102.9,107.2,102.9,104.6z M146.3,146.4c-1.6,0.4-3.2,0.7-4.9,0.8
	c-6.1,0.1-12.2,0.1-18.3,0c-3.4,0-6.8-0.2-10.2-0.4c-2.7-0.2-3.5-1.1-3.8-3.7c0-0.4-0.1-0.8-0.1-1.2c0-5.9,0-11.7,0-17.6
	c0-0.3,0-0.7,0-1.1c4,0,8,0,12.1,0c-0.7,3-1.4,6-2.2,8.9c-0.1,0.2-0.5,0.5-0.8,0.5c-1.7,0.1-3.5,0.2-5.4,0.2
	c0.6,3.3,1.2,6.4,1.7,9.7c1.8-0.1,3.5-0.3,5.3-0.4c3.4-0.3,6.8-0.6,10.2-0.9c2.8-0.3,5.5-0.6,8.3-0.8c1.6-0.2,3.2-0.3,4.9-0.5
	c0.7-0.1,1,0.2,1.2,0.8c0.3,1,0.7,2.1,1.1,3.2c1-0.3,2-0.7,3-1C148.5,144.2,147.5,146.1,146.3,146.4z M205.8,78.2
	c0.3,0.2,0.6,0.4,0.9,0.7c3.4-5.2,6.8-10.3,10.1-15.4c-0.3-0.2-0.4-0.4-0.6-0.5c-1.6-1.1-3.2-2.2-4.9-3.2c-8.6-5-17.8-8.8-27.2-12.2
	c-0.8-0.3-1.1-0.1-1.6,0.5c-2.9,4.4-5.9,8.7-8.9,13c0,0.1,0,0.1,0,0.2c0.3,0.1,0.6,0.1,0.8,0.2c5.1,2.3,10.3,4.6,15.3,7.1
	C195.4,71.4,200.9,74.3,205.8,78.2z M288,109.1c5.4,6.8,10.3,13.7,14.9,21.1c-16.1,0.9-32.1,1.8-48.2,2.7
	c7.5-14.9,13.5-30.3,19.7-45.7c19.3,0,38.6,0,57.9,0c0-5.9,0-11.6,0-17.5c-15.6,0-31.1,0-46.5,0c0-8.8,0-17.5,0-26.3
	c12.8,0,25.5,0,38.3,0c0-5.9,0-11.7,0-17.6c-12.8,0-25.5,0-38.4,0c0-8.6,0-17.1,0-25.7c-6.4,0-12.7,0-19.1,0c0,8.6,0,17.1,0,25.7
	c-12.3,0-24.5,0-36.7,0c0,5.9,0,11.7,0,17.6c12.2,0,24.4,0,36.6,0c0,8.8,0,17.5,0,26.3c-15.1,0-30.1,0-45.1,0c0,5.9,0,11.7,0,17.5
	c10.3,0,20.5,0,30.9,0c-0.1,0.4-0.2,0.7-0.3,1c-3,8.8-5.8,17.7-9,26.4c-2.3,6.3-5.1,12.3-7.8,18.5c-0.1,0.3-0.6,0.7-0.9,0.7
	c-2.6,0.2-5.2,0.3-7.8,0.4c-1.7,0.1-3.4,0.2-5.2,0.4c0.9,6.2,1.7,12.4,2.6,18.5c2.5-0.2,5-0.3,7.5-0.5c4.8-0.4,9.5-0.7,14.3-1.1
	c3.7-0.3,7.4-0.5,11.1-0.8c6.1-0.5,12.2-1,18.3-1.5c4.9-0.4,9.8-0.8,14.7-1.1c7.3-0.6,14.7-1.1,22-1.7c0.3,0,0.8,0.3,0.9,0.5
	c1.8,3.9,3.5,7.8,5.2,11.7c0.2,0.5,0.4,1.1,0.6,1.8c5.9-3.2,11.7-6.4,17.6-9.7c-8-18.6-19.7-34.6-32.2-50.1
	C298.7,103.4,293.4,106.2,288,109.1z M209.3,91.6c-9.2,18.8-19.3,36.9-30.5,54.5c5.3,4,10.6,8,15.9,12c10.1-18,20-36,28.5-54.8
	C218.6,99.4,214,95.5,209.3,91.6z M226.6,18.3c-0.3-0.3-0.6-0.5-0.8-0.7c-4.7-3.8-10-6.7-15.3-9.4c-5.3-2.7-10.8-5.1-16.4-7.2
	c-0.4-0.1-0.7-0.4-1.1,0.1c-3.3,4.4-6.5,8.8-9.8,13.1c11.7,5.1,22.9,10.9,32.9,19.1C219.5,28.4,223.1,23.4,226.6,18.3z M426.6,36.1
	c0-12,0-23.9,0-35.8c-6.6,0-13.1,0-19.7,0c0,11.9,0,23.8,0,35.8c-18,0-35.9,0-53.7,0c0,6.4,0,12.7,0,19.1c17.6,0,35.1,0,52.7,0
	c0,0.3,0,0.4,0,0.6c-0.1,0.9-0.1,1.8-0.2,2.7c-0.8,6.6-1.9,13.2-3.5,19.7c-3.6,14.3-9.8,27.3-18.9,38.9c-9,11.4-20,20.4-32.6,27.6
	c-0.9,0.5-1.8,1-2.7,1.6c5.6,4.3,10.4,9.3,14.5,15c0.1-0.1,0.2-0.1,0.3-0.2c2.2-1.3,4.4-2.6,6.5-4c16.3-10.3,29.5-23.7,39.3-40.4
	c6.5-11.2,11-23.1,13.7-35.8c1.5-6.9,2.6-13.8,3.2-20.8c0.1-1.6,0.3-3.3,0.4-5c17.1,0,34.2,0,51.3,0c-0.2,3.3-0.4,6.6-0.6,9.8
	c-0.4,6.2-0.8,12.4-1.3,18.6c-0.2,3.5-0.5,7-0.8,10.5c-0.6,5.7-1.1,11.4-1.9,17c-0.7,5.1-1.6,10.3-2.7,15.4
	c-0.7,3.3-1.8,6.5-3.5,9.5c-1.4,2.3-3.2,3.9-6,4.3c-1.1,0.1-2.3,0.2-3.4,0.2c-3.9,0-7.9,0-11.8-0.2c-4.7-0.2-9.5-0.5-14.1-0.7
	c3.7,5.7,5.7,12.1,6.5,19c0.3,0,0.6,0,0.9,0c2.8,0.1,5.6,0.2,8.5,0.3c7.2,0.2,14.3,0.4,21.4-1c3.4-0.7,6.7-1.7,9.4-4
	c3.3-2.8,6-6.1,7.6-10.1c3.1-7.6,4.3-15.7,5.5-23.7c0.6-4.4,1.1-8.9,1.6-13.4c0.5-4.7,0.9-9.4,1.3-14.1c0.3-4,0.5-8.1,0.8-12.1
	c0.3-4.3,0.6-8.6,0.9-13c0.2-3.5,0.4-7,0.6-10.5c0.3-5,0.6-10,0.9-15c0.1-1.9,0-3.9,0-5.9C473.6,36.1,450.1,36.1,426.6,36.1z"/>
</svg>
