<?xml version="1.0" encoding="utf-8"?>
<!-- Generator: Adobe Illustrator 27.9.1, SVG Export Plug-In . SVG Version: 6.00 Build 0)  -->
<svg version="1.1" id="Layer_1" xmlns="http://www.w3.org/2000/svg" xmlns:xlink="http://www.w3.org/1999/xlink" x="0px" y="0px"
	 viewBox="0 0 1399.8 1400" style="enable-background:new 0 0 1399.8 1400;" xml:space="preserve">
<style type="text/css">
	.st0{fill:#1A171C;}
	.st1{fill:#9F792C;}
	.st2{fill:#E54B9B;}
	.st3{fill:#76B6E3;}
	.st4{fill:#414FA2;}
	.st5{fill:#64BC46;}
	.st6{fill:#EDE829;}
	.st7{fill:#8A8C87;}
	.st8{fill:#DE4A4A;}
</style>
<g id="bg">
	<rect class="st0" width="1399.8" height="1400"/>
</g>
<g id="_x33_2_g7">
	
		<rect id="stroke_00000091017126662046955730000000723557037552861328_" x="948.7" y="1158.9" class="st1" width="202.2" height="132.2"/>
	
		<rect id="fill_00000013184113318066323780000004857128004064339876_" x="958.7" y="1168.9" class="st1" width="182.2" height="112.2"/>
</g>
<g id="_x33_1_g5">
	
		<rect id="stroke_00000043417234088639485980000004538581488233131661_" x="598.8" y="1158.9" class="st2" width="202.2" height="132.2"/>
	
		<rect id="fill_00000096763917463534931020000016453404246145454991_" x="608.8" y="1168.9" class="st2" width="182.2" height="112.2"/>
</g>
<g id="_x33_0_g8">
	
		<rect id="stroke_00000073681724937698081530000016924889918446962309_" x="248.9" y="1158.9" class="st3" width="202.2" height="132.2"/>
	
		<rect id="fill_00000017476669731533589930000016452061106730846099_" x="258.9" y="1168.9" class="st3" width="182.2" height="112.2"/>
</g>
<g id="_x32_9_29-right_g6">
	
		<rect id="stroke_00000009571540845858098280000012418089482977232823_" x="1298.7" y="1158.9" class="st4" width="202.2" height="132.2"/>
	
		<rect id="fill_00000076567754973661874090000005178699518317521538_" x="1308.7" y="1168.9" class="st4" width="182.2" height="112.2"/>
</g>
<g id="_x32_9_29-left_g6">
	
		<rect id="stroke_00000096752152398488156770000018329833251302662327_" x="-101.1" y="1158.9" class="st4" width="202.2" height="132.2"/>
	
		<rect id="fill_00000073688337762322321190000003341543321520092313_" x="-91.1" y="1168.9" class="st4" width="182.2" height="112.2"/>
</g>
<g id="_x32_8_g1">
	
		<rect id="stroke_00000029740337080856474570000016389822835708547230_" x="1121.5" y="983.9" class="st5" width="202.2" height="132.2"/>
	
		<rect id="fill_00000072988904338980537690000013118229081005685933_" x="1131.5" y="993.9" class="st5" width="182.2" height="112.2"/>
</g>
<g id="_x32_7_g2">
	
		<rect id="stroke_00000147207734032171137220000006172709461783677831_" x="773.1" y="983.9" class="st6" width="202.2" height="132.2"/>
	
		<rect id="fill_00000045613527240432376360000010396595250021085884_" x="783.1" y="993.9" class="st6" width="182.2" height="112.2"/>
</g>
<g id="_x32_6_g3">
	
		<rect id="stroke_00000129184727396688055120000002269825758048191901_" x="424.7" y="983.9" class="st7" width="202.2" height="132.2"/>
	
		<rect id="fill_00000181063509039485175390000013469756971152677045_" x="434.7" y="993.9" class="st7" width="182.2" height="112.2"/>
</g>
<g id="_x32_5_g4">
	
		<rect id="stroke_00000087370794075220686440000012585560805654904465_" x="76.4" y="983.9" class="st8" width="202.2" height="132.2"/>
	
		<rect id="fill_00000068675098383178115960000004484239167475359891_" x="86.4" y="993.9" class="st8" width="182.2" height="112.2"/>
</g>
<g id="_x32_4_g5">
	
		<rect id="fill_00000132772689859652540730000000023384656271707528_" x="948.7" y="808.9" class="st2" width="202.2" height="132.2"/>
	
		<rect id="fill_00000164478833866448836810000016893097699760426890_" x="958.7" y="818.9" class="st2" width="182.2" height="112.2"/>
</g>
<g id="_x32_3_g8">
	
		<rect id="stroke_00000111182805901625388300000001028072330836481193_" x="598.8" y="808.9" class="st3" width="202.2" height="132.2"/>
	
		<rect id="fill_00000001626770179742919910000014465917391925803156_" x="608.8" y="818.9" class="st3" width="182.2" height="112.2"/>
</g>
<g id="_x32_2_g6">
	
		<rect id="stroke_00000099628554618945732270000008703157231513380781_" x="248.9" y="808.9" class="st4" width="202.2" height="132.2"/>
	
		<rect id="fill_00000145762659742036339760000007800285710707928968_" x="258.9" y="818.9" class="st4" width="182.2" height="112.2"/>
</g>
<g id="_x32_1_21-left_g7">
	
		<rect id="stroke_00000014629165708833087240000002825033025775597218_" x="-101.1" y="808.9" class="st1" width="202.2" height="132.2"/>
	
		<rect id="fill_00000011714932346411459420000016588493243976478342_" x="-91.1" y="818.9" class="st1" width="182.2" height="112.2"/>
</g>
<g id="_x32_1_21-right_g7">
	
		<rect id="stroke_00000013903243657330015010000009099440480155812750_" x="1298.7" y="808.9" class="st1" width="202.2" height="132.2"/>
	
		<rect id="fill_00000167381342038010060360000017743291090728171146_" x="1308.7" y="818.9" class="st1" width="182.2" height="112.2"/>
</g>
<g id="_x32_0_g3">
	
		<rect id="stroke_00000089573461696860287120000010826836140380693670_" x="1121.5" y="633.9" class="st7" width="202.2" height="132.2"/>
	
		<rect id="fill_00000132089751616517691000000013921405633439508143_" x="1131.5" y="643.9" class="st7" width="182.2" height="112.2"/>
</g>
<g id="_x31_9_g4">
	
		<rect id="stroke_00000071521362721650407540000008643269786732097715_" x="773.1" y="633.9" class="st8" width="202.2" height="132.2"/>
	
		<rect id="fill_00000173134782341738127100000012321264369386110608_" x="783.1" y="643.9" class="st8" width="182.2" height="112.2"/>
</g>
<g id="_x31_8_g1">
	
		<rect id="stroke_00000109727738616296339720000007857613432129200262_" x="424.7" y="633.9" class="st5" width="202.2" height="132.2"/>
	
		<rect id="fill_00000168814007213651004730000004469432129601289895_" x="434.7" y="643.9" class="st5" width="182.2" height="112.2"/>
</g>
<g id="_x31_7_g2">
	
		<rect id="stroke_00000086655759380265723090000000800022365056325823_" x="76.4" y="633.9" class="st6" width="202.2" height="132.2"/>
	
		<rect id="fill_00000005256323412854039290000005506619792790317205_" x="86.4" y="643.9" class="st6" width="182.2" height="112.2"/>
</g>
<g id="_x31_6_g6">
	
		<rect id="stroke_00000078032551380514203430000005743107788519308172_" x="948.7" y="458.9" class="st4" width="202.2" height="132.2"/>
	
		<rect id="fill_00000087405964486731728160000010683175532025293971_" x="958.7" y="468.9" class="st4" width="182.2" height="112.2"/>
</g>
<g id="_x31_5_g7">
	
		<rect id="stroke_00000117669758455306263580000000786814844961154691_" x="598.8" y="458.9" class="st1" width="202.2" height="132.2"/>
	
		<rect id="fill_00000083082184679683530940000017129192605877695382_" x="608.8" y="468.9" class="st1" width="182.2" height="112.2"/>
</g>
<g id="_x31_4_g5">
	
		<rect id="stroke_00000044859399359657933920000014090277032093651878_" x="248.9" y="458.9" class="st2" width="202.2" height="132.2"/>
	
		<rect id="fill_00000140711643143853766630000010379932327085563541_" x="258.9" y="468.9" class="st2" width="182.2" height="112.2"/>
</g>
<g id="_x31_3_13-right_g8">
	
		<rect id="stroke_00000056393482437850737410000007594000529704737443_" x="1298.7" y="458.9" class="st3" width="202.2" height="132.2"/>
	
		<rect id="fill_00000005235708641639632770000009568743405584305282_" x="1308.7" y="468.9" class="st3" width="182.2" height="112.2"/>
</g>
<g id="_x31_3_13-left_g8">
	
		<rect id="stroke_00000157301712387770003390000011265528156108972963_" x="-101.1" y="458.9" class="st3" width="202.2" height="132.2"/>
	
		<rect id="fill_00000095311773689197713860000000194592038370235780_" x="-91.1" y="468.9" class="st3" width="182.2" height="112.2"/>
</g>
<g id="_x31_2_g1">
	
		<rect id="stroke_00000079444480122179820630000005962389724468741299_" x="1121.5" y="283.9" class="st5" width="202.2" height="132.2"/>
	
		<rect id="fill_00000172410983831621301620000008755430017703356069_" x="1131.5" y="293.9" class="st5" width="182.2" height="112.2"/>
</g>
<g id="_x31_1_g2">
	
		<rect id="stroke_00000006708125570338110420000003328192252035845020_" x="773.1" y="283.9" class="st6" width="202.2" height="132.2"/>
	
		<rect id="fill_00000043445525540759354140000013702358096420336058_" x="783.1" y="293.9" class="st6" width="182.2" height="112.2"/>
</g>
<g id="_x31_0_g3">
	
		<rect id="stroke_00000155117035179406352150000011348643451016922265_" x="424.7" y="283.9" class="st7" width="202.2" height="132.2"/>
	
		<rect id="fill_00000091726295462933130550000003892921002159563649_" x="434.7" y="293.9" class="st7" width="182.2" height="112.2"/>
</g>
<g id="_x39__g4">
	
		<rect id="stroke_00000172431255155518615590000014688918435347770782_" x="76.4" y="283.9" class="st8" width="202.2" height="132.2"/>
	
		<rect id="fill_00000008862123146064152760000004848111733293160585_" x="86.4" y="293.9" class="st8" width="182.2" height="112.2"/>
</g>
<g id="_x38__g8">
	
		<rect id="stroke_00000071560196983322337830000004898597409366753455_" x="948.7" y="108.9" class="st3" width="202.2" height="132.2"/>
	
		<rect id="fill_00000081640730926579236560000001012894650171914137_" x="958.7" y="118.9" class="st3" width="182.2" height="112.2"/>
</g>
<g id="_x37__g7">
	
		<rect id="stroke_00000096038514995918501850000002735019034452842159_" x="598.8" y="108.9" class="st1" width="202.2" height="132.2"/>
	
		<rect id="fill_00000066500788049288571500000016791019558418227108_" x="608.8" y="118.9" class="st1" width="182.2" height="112.2"/>
</g>
<g id="_x36__g6">
	
		<rect id="stroke_00000151504458213929916910000015424905937773010576_" x="248.9" y="108.9" class="st4" width="202.2" height="132.2"/>
	
		<rect id="fill_00000033357104471711636720000017155292278351023279_" x="258.9" y="118.9" class="st4" width="182.2" height="112.2"/>
</g>
<g id="_x35__5left_g5">
	<rect x="-101.1" y="108.9" class="st2" width="202.2" height="132.2"/>
	<rect x="-91.1" y="118.9" class="st2" width="182.2" height="112.2"/>
</g>
<g id="_x35__5-right_g5_00000039134989534540288500000015818540289841498777_">
	<rect x="1298.7" y="108.9" class="st2" width="202.2" height="132.2"/>
	<rect x="1308.7" y="118.9" class="st2" width="182.2" height="112.2"/>
</g>
<g id="_x34__4-bottom_g4">
	
		<rect id="stroke_00000083087793398704090270000000770176890566530744_" x="1121.5" y="1333.9" class="st8" width="202.2" height="132.2"/>
	
		<rect id="fill_00000163033409290717831930000005476635446251243148_" x="1166.4" y="1308.9" transform="matrix(-1.836970e-16 1 -1 -1.836970e-16 2622.5298 177.4703)" class="st8" width="112.2" height="182.2"/>
</g>
<g id="_x34__4-top_g4">
	
		<rect id="stroke_00000164505392450859347030000002740231427634717345_" x="1121.5" y="-66.1" class="st8" width="202.2" height="132.2"/>
	
		<rect id="fill_00000014627131040176874040000012180174947084800135_" x="1166.4" y="-91.1" transform="matrix(-1.836970e-16 1 -1 -1.836970e-16 1222.5297 -1222.5299)" class="st8" width="112.2" height="182.2"/>
</g>
<g id="_x33__3-bottom_g3">
	<rect x="773.1" y="1333.9" class="st7" width="202.2" height="132.2"/>
	
		<rect x="818.1" y="1308.9" transform="matrix(-1.836970e-16 1 -1 -1.836970e-16 2274.1768 525.8234)" class="st7" width="112.2" height="182.2"/>
</g>
<g id="_x33__3-top_g3">
	
		<rect id="stroke_00000029006004637938762420000004887928731550366345_" x="773.1" y="-66.1" transform="matrix(-1 4.489641e-11 -4.489641e-11 -1 1748.3533 -7.052491e-08)" class="st7" width="202.2" height="132.2"/>
	
		<rect id="fill_00000044143922434680962450000012026005639700157332_" x="818.1" y="-91.1" transform="matrix(4.488569e-11 1 -1 4.488569e-11 874.1763 -874.1766)" class="st7" width="112.2" height="182.2"/>
</g>
<g id="_x32__2-bottom_g2">
	
		<rect id="stroke_00000103237672406138808300000009820148389697450392_" x="424.7" y="1333.9" class="st6" width="202.2" height="132.2"/>
	
		<rect id="fill_00000180355271972645600200000018087792226105785021_" x="469.7" y="1308.9" transform="matrix(-1.836970e-16 1 -1 -1.836970e-16 1925.8234 874.1769)" class="st6" width="112.2" height="182.2"/>
</g>
<g id="_x32__2-top_g2">
	
		<rect id="stroke_00000171687707101773053420000010425998387228673943_" x="424.7" y="-66.1" class="st6" width="202.2" height="132.2"/>
	
		<rect id="fill_00000143577482800988522550000000373344108421821349_" x="469.7" y="-91.1" transform="matrix(-1.836970e-16 1 -1 -1.836970e-16 525.8231 -525.8234)" class="st6" width="112.2" height="182.2"/>
</g>
<g id="_x31__1-bottom_g1">
	
		<rect id="stroke_00000011750871333868490100000003961461896239146404_" x="76.4" y="1333.9" class="st5" width="202.2" height="132.2"/>
	
		<rect id="fill_00000170968550949247546620000008160043969388569249_" x="121.4" y="1308.9" transform="matrix(-1.836970e-16 1 -1 -1.836970e-16 1577.4703 1222.5299)" class="st5" width="112.2" height="182.2"/>
</g>
<g id="_x31__1-top_g1">
	
		<rect id="stroke" x="76.4" y="-66.1" transform="matrix(-1 4.489641e-11 -4.489641e-11 -1 354.9401 2.331339e-08)" class="st5" width="202.2" height="132.2"/>
	
		<rect id="fill" x="121.4" y="-91.1" transform="matrix(4.488569e-11 1 -1 4.488569e-11 177.4698 -177.4701)" class="st5" width="112.2" height="182.2"/>
</g>
</svg>
