<?xml version="1.0" encoding="utf-8"?>
<!-- Generator: Adobe Illustrator 27.9.1, SVG Export Plug-In . SVG Version: 6.00 Build 0)  -->
<svg version="1.1" id="Layer_1" xmlns="http://www.w3.org/2000/svg" xmlns:xlink="http://www.w3.org/1999/xlink" x="0px" y="0px"
	 viewBox="0 0 73.3 35.8" style="enable-background:new 0 0 73.3 35.8;" xml:space="preserve">
<style type="text/css">
	.st0{fill:#282828;}
</style>
<g>
	<path class="st0" d="M13.5,11.2H5.9v2.6h7.7V11.2z M12.5,12.8H6.9v-0.6h5.7V12.8z"/>
	<path class="st0" d="M4.4,22.9H30v-3H4.4V22.9z M5.4,20.9H29v1H5.4V20.9z"/>
	<path class="st0" d="M5.1,18.1h8.4v-2.6H5.1V18.1z M6.1,16.5h6.4v0.6H6.1V16.5z"/>
	<path class="st0" d="M33.8,15V6.5H19V4.5h12.2V1.4H3v3.1h12v1.9H0.6V15h3.6V9.5H15v9.3h4V9.5h11V15H33.8z M18,8.5v9.3h-2V8.5H3.3
		V14H1.6V7.5H16V3.5H4V2.4h26.2v1.1H18v3.9h14.7V14H31V8.5H18z"/>
	<path class="st0" d="M43.8,1.5c-0.8-0.4-1.6-0.8-2.3-1.2l-2.3,3c0.7,0.4,1.5,0.8,2.3,1.3C42.3,5,43,5.5,43.7,6
		c0.7,0.5,1.3,1,1.7,1.4l2.4-3.2c-0.5-0.5-1-0.9-1.8-1.4C45.4,2.4,44.6,1.9,43.8,1.5z M45.3,6c-0.3-0.2-0.6-0.5-1-0.7
		c-0.7-0.5-1.5-1-2.3-1.5c-0.4-0.3-0.9-0.5-1.3-0.7l1.1-1.4c0.5,0.2,1,0.5,1.5,0.8c0.8,0.4,1.5,0.9,2.2,1.3c0.4,0.2,0.7,0.4,0.9,0.7
		L45.3,6z"/>
	<path class="st0" d="M39.7,14.6c0.8,0.5,1.5,0.9,2.2,1.4c0.7,0.5,1.3,0.9,1.7,1.4l2.4-3.3c-0.5-0.4-1-0.8-1.8-1.3
		c-0.7-0.5-1.5-0.9-2.3-1.3c-0.8-0.4-1.6-0.7-2.3-1l-2.3,3C38.2,13.8,38.9,14.2,39.7,14.6z M40,11.7c0.5,0.2,1,0.4,1.5,0.7
		c0.8,0.4,1.5,0.8,2.2,1.2c0.3,0.2,0.7,0.4,0.9,0.6l-1.2,1.6c-0.3-0.2-0.6-0.5-1-0.7c-0.7-0.5-1.5-1-2.3-1.5
		c-0.4-0.2-0.9-0.5-1.3-0.7L40,11.7z"/>
	<path class="st0" d="M42,25c-0.7,1.5-1.3,3-2,4.3c-0.7,1.3-1.3,2.5-1.8,3.5l3.7,2.2c0.6-1.2,1.2-2.5,1.8-3.9s1.2-2.8,1.8-4.2
		c0.6-1.4,1.1-2.8,1.6-4.2l-3.2-2.3C43.3,22,42.6,23.5,42,25z M45.9,23.2c-0.4,1.1-0.9,2.2-1.3,3.4c-0.6,1.4-1.2,2.8-1.8,4.2
		c-0.4,1-0.9,2-1.3,2.9l-1.9-1.2c0.4-0.8,0.9-1.7,1.4-2.7c0.7-1.3,1.3-2.8,2-4.3c0.5-1.1,1-2.3,1.4-3.4L45.9,23.2z"/>
	<path class="st0" d="M20.6,18.1h8.7v-2.6h-8.7V18.1z M21.6,16.5h6.7v0.6h-6.7V16.5z"/>
	<path class="st0" d="M67.5,18.5c0.1-1.3,0.1-2.6,0.2-4.1l0-1h-6.1l-0.2,2.9l-0.3,3.2h6.4L67.5,18.5z M66.5,18.5h-4.3
		c0.1-0.7,0.1-1.4,0.2-2.1c0.1-0.7,0.1-1.4,0.2-2h4.2C66.6,15.8,66.6,17.2,66.5,18.5z"/>
	<path class="st0" d="M66.9,26.5c0.1-1.2,0.2-2.6,0.4-4.2l0.1-1.1h-6.5l-0.1,0.9c-0.1,0.9-0.2,1.9-0.3,2.7c-0.1,0.6-0.1,1.2-0.2,1.7
		l-0.1,1.1h6.6L66.9,26.5z M65.9,26.4c0,0.1,0,0.2,0,0.3h-4.6c0.1-0.6,0.1-1.1,0.2-1.7c0.1-0.9,0.2-1.8,0.3-2.7h4.5
		C66.2,23.8,66.1,25.2,65.9,26.4z"/>
	<path class="st0" d="M59.8,17.8c0-0.5,0.1-0.9,0.1-1.4c0.1-0.7,0.2-3,0.2-3h-5.8L54,16.2l-0.4,3.3h6L59.8,17.8z M58.9,16.3
		c-0.1,0.7-0.1,1.4-0.2,2.2h-4c0.1-0.7,0.2-1.4,0.3-2.2c0.1-0.7,0.2-1.3,0.2-1.9H59C59,15,58.9,15.6,58.9,16.3z"/>
	<path class="st0" d="M59,25c0.1-0.9,0.2-1.8,0.3-2.7l0.1-1.1h-6.1l-0.1,0.9c-0.2,1.6-0.4,3-0.6,4.5l-0.2,1.2h6.2
		C58.7,27.7,58.9,25.6,59,25z M58,24.9c-0.1,0.6-0.2,1.2-0.2,1.8h-4.1c0.2-1.4,0.4-2.9,0.6-4.5h4.1C58.2,23.1,58.1,24,58,24.9z"/>
	<path class="st0" d="M72.5,8.1V4.5H55.5c0.5-1.2,0.9-2.4,1.2-3.6l-4-0.9c-0.6,2.2-1.4,4.3-2.5,6.4s-2.3,3.7-3.6,5.1
		c0.3,0.2,0.7,0.4,1.2,0.7c0.4,0.3,0.9,0.6,1.3,0.9c0.4,0.3,0.8,0.6,1,0.8c0.6-0.7,1.2-1.4,1.8-2.3c-0.1,1.5-0.3,3-0.5,4.6
		c-0.1,0.8-0.2,1.5-0.3,2.3h-3.8v3.7h3.4c-0.2,1.7-0.5,3.3-0.7,4.9c-0.3,1.7-0.6,3.2-0.8,4.5l3.9,0.3c0.1-0.6,0.2-1.2,0.3-1.8h12.3
		c-0.2,0.7-0.4,1.2-0.6,1.5c-0.2,0.2-0.4,0.4-0.6,0.5c-0.2,0.1-0.5,0.1-0.8,0.1c-0.4,0-0.9,0-1.7,0c-0.7,0-1.5-0.1-2.4-0.1
		c0.3,0.5,0.5,1,0.7,1.6c0.2,0.6,0.3,1.2,0.3,1.7c0.9,0.1,1.8,0.1,2.7,0.1s1.6,0,2.1-0.1c0.6-0.1,1.1-0.3,1.6-0.5
		c0.5-0.2,0.9-0.6,1.3-1.2c0.3-0.4,0.6-1.1,0.8-2c0.1-0.4,0.2-1,0.3-1.6h3.6v-3.5h-3.2c0.1-1.3,0.2-2.8,0.3-4.5h3.2v-3.7h-3
		c0.1-1.8,0.2-3.7,0.2-5.9c0-0.2,0-0.4,0-0.7c0-0.3,0-0.6,0-1.1h-2.6h-1.2H55.6h-2.1h-1.3c0.5-0.8,1.1-1.7,1.6-2.7H72.5z M52.3,16.3
		c0.2-1.5,0.3-3,0.5-4.4h16.8c0,0,0,0.1,0,0.1c0,0.2,0,0.4,0,0.5l0,0.1c-0.1,2.1-0.2,4.1-0.2,5.8l0,1h3.1v1.7h-3.2L69,22.1
		c-0.1,1.7-0.2,3.2-0.3,4.4l-0.1,1.1h3.3v1.5h-3.5L68.3,30c-0.1,0.6-0.2,1.1-0.3,1.5c-0.3,1-0.5,1.4-0.7,1.6
		c-0.3,0.4-0.6,0.7-0.9,0.9c-0.4,0.2-0.8,0.3-1.4,0.4c-0.5,0.1-1.2,0.1-2,0.1c-0.6,0-1.2,0-1.8,0c-0.1-0.3-0.1-0.7-0.3-1
		c0-0.1,0-0.2-0.1-0.2c0.3,0,0.6,0,0.8,0c0.7,0,1.3,0,1.7,0c0.4,0,0.8-0.1,1.2-0.2c0.4-0.1,0.8-0.4,1-0.8c0.3-0.4,0.5-1,0.8-1.8
		l0.3-1.3H52.2c0,0-0.2,1.4-0.3,1.7l-1.8-0.1c0.2-1,0.4-2.2,0.6-3.5c0.3-1.6,0.5-3.2,0.7-4.9l0.2-1.1h-3.5v-1.7h3.7
		C51.8,19.5,52.2,16.8,52.3,16.3z M52.9,7.7c-0.5,0.9-1,1.8-1.5,2.7l-0.2,0.3L50.9,11c-0.4,0.5-0.7,1-1.1,1.4
		c-0.1-0.1-0.2-0.1-0.3-0.2c-0.4-0.3-0.9-0.6-1.3-0.9c0,0-0.1-0.1-0.1-0.1c1.1-1.2,2.1-2.7,2.9-4.4C52,5,52.8,3.1,53.4,1.2l2,0.4
		c-0.3,0.8-0.6,1.7-0.9,2.5L54,5.5h17.5v1.6H53.2L52.9,7.7z"/>
	<path class="st0" d="M7.5,30.2c-0.2,0.3-0.4,0.6-0.6,0.9c-1.7,0-3.3,0.1-4.7,0.1l0.3,3.5c2.2-0.1,4.7-0.1,7.6-0.2
		c2.9-0.1,5.9-0.2,9-0.3c2.7-0.1,5.5-0.2,8.2-0.3c0.7,0.7,1.3,1.3,1.8,1.8l3.8-1.8c-0.6-0.7-1.4-1.4-2.4-2.2c-1-0.8-2-1.6-3-2.4
		c-0.7-0.5-1.3-0.9-1.9-1.4h8.9v-3.1H0v3.1h8.8C8.4,28.7,8,29.5,7.5,30.2z M1,26.9v-1.1h32.4v1.1H13.2l-0.3,0.4
		c-0.5,0.8-1.1,1.5-1.6,2.1c-0.3,0.4-0.6,0.7-0.8,1l-1.4,1.7l2.2,0c2.4,0,5-0.1,7.7-0.1c1,0,2,0,3.1-0.1l4.4-0.1l-2.2-1.7
		c-0.5-0.4-0.9-0.7-1.4-1l0.4-0.2l-0.3-1.4l2,1.3c0.6,0.4,1.3,0.9,1.9,1.3c1,0.8,2,1.6,3,2.4c0.5,0.4,0.9,0.8,1.3,1.2l-1.9,0.9
		c-0.4-0.4-0.8-0.9-1.3-1.3l-0.3-0.3l-0.4,0c-2.7,0.1-5.4,0.2-8.2,0.3l-9,0.3c-2.5,0.1-4.7,0.1-6.6,0.2l-0.1-1.5
		c1.1,0,2.3,0,3.6-0.1l0.5,0l0.3-0.4c0.2-0.3,0.4-0.6,0.6-1c0.5-0.7,0.9-1.5,1.4-2.4l0.8-1.5H1z M23.6,30.8c-1.5,0-3,0.1-4.6,0.1
		c-2.7,0.1-5.2,0.1-7.7,0.1c0.3-0.3,0.5-0.7,0.8-1c0.6-0.7,1.1-1.4,1.6-2.1h9l-2,0.9C21.7,29.4,22.6,30.1,23.6,30.8z"/>
	<path class="st0" d="M20.6,11.2v2.6h7.7v-2.6H20.6z M27.3,12.8h-5.7v-0.6h5.7V12.8z"/>
</g>
</svg>
