<?xml version="1.0" encoding="utf-8"?>
<!-- Generator: Adobe Illustrator 27.9.1, SVG Export Plug-In . SVG Version: 6.00 Build 0)  -->
<svg version="1.1" id="intergalactic" xmlns="http://www.w3.org/2000/svg" xmlns:xlink="http://www.w3.org/1999/xlink" x="0px"
	 y="0px" viewBox="0 0 477.7 159.7" style="enable-background:new 0 0 477.7 159.7;" xml:space="preserve">
<style type="text/css">
	.st0{fill:#050606;}
</style>
<path class="st0" d="M17.1,159.7l-2.3-2.4c-4-4.2-8.2-7.5-12.8-10.2L0,146l1.8-3.5c0.5-1,1-2,1.5-3c2.9-6.1,5.2-13,7-21.9
	c1.6-7.7,2.6-15.4,3-23.1c0.4-8.2,0.7-15,0.7-21.3c0.1-13.7,0.1-27.7,0.1-41.2c0-5.5,0-10.9,0-16.4v-3.5h60.4V0h23.3v12.1h60.7v19.5
	h-25.7v3.2h23.7v15.8h-13.9c5.1,3.6,10.5,6.3,15.7,8.7l3.1,1.4l-12.4,13.7l-1.7-0.9c-4.7-2.5-9.5-5.8-14.6-10.2v10h13v47.2
	c2.6,3.5,4.9,7.4,7.1,11.9c1.4,0.4,2.8,0.8,4.3,1.3l3.9,1.2l-0.3,2.1c-0.6,4.4-1.3,9.4-4.5,13.7c-2.1,2.9-5.2,4.7-9.2,5.2
	c-2.6,0.4-5.3,0.5-8,0.6c-9.7,0.1-19.6,0.1-29.2,0c-3.4,0-6.8-0.4-10-1.2c-5.8-1.4-9.4-5.3-10.2-11.3c-0.3-2.3-0.5-4.6-0.6-6.8
	c-0.1-4,0-8.1,0-12c0-1.1,0-2.2,0-3.3h-7.7l-0.3,1.3c-3.6,13-12.1,22.6-25.3,28.5c-5.2,2.3-10.9,4.3-17.5,6.1
	c-2.1,0.6-3.3-0.6-3.9-1.8c-1.6-4-4.2-7.8-8.1-12c-0.2-0.2-0.3-0.3-0.4-0.4c-0.2-0.3-0.5-0.8-0.6-1.4c-0.8,2.3-1.7,4.5-2.7,6.7
	c-0.7,1.7-1.6,3.3-2.4,4.9c-0.3,0.7-0.7,1.3-1,2c-0.1,0.3-0.3,0.5-0.4,0.7L17.1,159.7z M32.5,143.4c2.6,3.1,4.6,6.1,6,9.2
	c5.7-1.6,10.8-3.4,15.3-5.5c11.9-5.4,19.3-13.7,22.5-25.3l1.4-4.9h16.5v3.5c0,1.6,0,3.2,0,4.8c0,3.9,0,8,0,11.9c0,2,0.2,4.1,0.5,6.2
	c0.6,3.9,2.6,6.2,6.5,7.1c2.9,0.7,5.9,1.1,8.9,1.1c9.6,0.1,19.4,0.1,29.1,0c2.5,0,4.9-0.2,7.3-0.5c2.6-0.4,4.5-1.4,5.8-3.2
	c2-2.7,2.7-5.9,3.2-9.3c-1.5-0.5-2.9-0.9-4.3-1.3c-1.3-0.4-2.2-1.2-2.8-2.4c-2.2-4.7-4.6-8.7-7.3-12.1c-0.9,0.3-1.9,0.6-2.8,0.9
	c-0.6,0.2-1.2,0.3-1.7,0.5c0,0-0.1,0-0.1,0l4.1,6.2h-18l2.1-5.4c0.7-1.9,1.5-3.8,2.2-5.7c0.3-0.9,1.3-2.4,3.5-2.4c3.1,0,6.1,0,9.2,0
	l1.3,0V78.3H90l5.8-8L84.5,69c-1.3,2.8-2.2,5-3.1,7.1c-0.5,1.1-1.5,2.3-3.6,2.3c0,0,0,0,0,0c-8.8,0-17.5,0-26.3,0h-4.7v38.5H65
	l-0.2,2.7c0,0.2,0,0.5-0.2,0.9c-2.1,6.6-5.7,11.4-10.9,14.8c-4.3,2.8-9.2,4.9-15.6,6.7C36.3,142.5,34.4,143,32.5,143.4z M6.6,144
	c3.3,2.1,6.5,4.5,9.5,7.4c0.8-1.5,1.5-3,2.1-4.4c4.8-10.9,7.9-23.2,9.8-38.7c0.7-5.8,1.3-11.5,1.6-17c0.4-5.7,0.8-12.4,0.8-19.2
	c0-3.2,0-6.4,0.1-9.6l-2.1-1.7l2.1-0.7c0-5.9,0-11.8,0-17.6c0-4,0-8,0-12v-3.6h31.8v13.2H40.8v5.8h20.8l-4.8,4.4
	c-6.1,5.5-12.2,9.5-18.6,12.3c1.7,1.8,3.2,3.7,4.7,5.6c5.3-2.8,10.2-6.6,15.4-11.7l4.3-4.2v16.8h7.9V54L85,64l2.5-2.9l-0.6-0.6
	l1.7-0.6l0.7-0.7c-0.9-0.5-1.8-0.9-2.7-1.3c-2.8-1.3-5.5-2.5-8.3-3.7c-2-0.9-4.1-1.8-6.1-2.7c-0.7-0.3-1.1-0.8-1.3-1l-1.5-1.5l2-3
	l1.4-0.1h17.9v-5.8H70.3V26.7h49.4v13.1h-19.1v5.8h13.2l1.4,3.4l-1.3,1.2c-5.6,5.2-11.8,9.3-18.3,12.2l4.8,5.2l-0.2,0.3l0.1,0.1
	c5.1-2.8,10-6.6,15.2-11.8l4.3-4.2v16.8h8.2V52l4.2,3.9c5.9,5.5,11,9.4,16.1,12.3l5.2-5.7c-6.3-3-13.2-6.8-19.3-12.5l-4.7-4.3h22.3
	v-5.8h-23.7V26.6h25.7v-9.5H92.9V5H79.5v12.2H19.2c0,5,0,9.9,0,14.9c0,13.5,0,27.5-0.1,41.2c0,6.5-0.3,13.3-0.7,21.6
	c-0.4,7.9-1.5,15.9-3.1,23.8c-1.9,9.3-4.3,16.6-7.4,23C7.4,142.4,7,143.2,6.6,144z M35.5,67c0,1.7,0,3.3,0,5
	c-0.1,7-0.5,13.8-0.9,19.5c-0.4,5.6-0.9,11.4-1.7,17.3c-1.5,11.8-3.6,21.9-6.6,30.9l1-0.2c1-0.2,2-0.5,3-0.7c2.2-0.5,4.4-1,6.5-1.6
	c5.8-1.6,10.3-3.5,14.2-6c3.4-2.2,5.9-5.3,7.7-9.3h-17V74.1l-0.5,0.3L39.5,72C38.2,70.3,36.9,68.6,35.5,67z M129.9,125.4h1.4
	l-0.9-1.3C130.3,124.5,130.1,124.9,129.9,125.4z M59.9,119C59.9,119,59.9,119,59.9,119C59.9,119,59.9,119,59.9,119z M75.3,73.4
	c0.6,0,1.2,0,1.8,0c0.9-2,1.8-4.1,3-6.7l-4.8-3.3V73.4z M43.3,73.4h8.2c2,0,4,0,5.9,0v-9.5C52.8,67.9,48.2,71,43.3,73.4z M101,73.3
	h13.8v-9.5C110.2,67.9,105.7,70.9,101,73.3z M35.5,31.7c0,3.5,0,7.1,0,10.6c0,5.2,0,10.5,0,15.8c4.3-1.8,8.4-4.3,12.5-7.3H35.8V34.9
	h21.6v-3.2H35.5z M83.1,50.7c1.9,0.8,3.7,1.7,5.6,2.5c1.3,0.6,2.6,1.3,3.9,1.9c0.6,0.3,1.2,0.6,1.8,0.9l1.5,0.7
	c3.4-1.7,6.6-3.7,9.7-6.1L83.1,50.7z M74.3,46.7C74.3,46.7,74.3,46.7,74.3,46.7L74.3,46.7C74.3,46.7,74.3,46.7,74.3,46.7z
	 M75.3,34.9h20.2v-0.1h19.1v-3.1H75.3V34.9z M346.7,159l-1.3-1.8c-3.6-5.1-7.9-9.6-13.2-13.7l-2.9-2.3l5.8-3.4
	c12.3-7.1,22.2-15.4,30.2-25.6c8.3-10.5,14.2-22.7,17.5-36c1.5-5.9,2.6-12,3.3-18.4c0-0.1,0-0.3,0-0.4h-49.9V34.4h51v-34h23.7v34
	h66.8v2.5c0,0.6,0,1.2,0,1.8c0,1.3,0,2.6,0,4c-0.2,3.2-0.4,6.5-0.6,9.7c-0.1,1.5-0.2,3.1-0.3,4.6l-0.2,3.7c-0.1,2.1-0.2,4.2-0.4,6.3
	c-0.2,2.6-0.3,5.2-0.5,7.8l-0.3,4.6c-0.1,1.3-0.2,2.6-0.2,3.8c-0.2,2.6-0.3,5.1-0.5,7.7c-0.4,5.1-0.8,9.4-1.2,13.4
	c-0.4,4.3-0.9,8.5-1.5,12.8c-1.1,7.2-2.2,15.4-5.3,23.1c-1.6,4-4.2,7.5-7.9,10.6c-3.1,2.6-6.8,3.6-10.1,4.3
	c-6.7,1.4-13.5,1.2-20,1.1l-0.9,0c-1.9,0-3.8-0.1-5.7-0.2l-5.4-0.2l-0.2-2.1c-0.8-6.6-2.7-12.1-5.8-17l-2.7-4.1l4.9,0.3
	c1.3,0.1,2.7,0.1,4,0.2c3.1,0.2,6.2,0.3,9.4,0.5c3.3,0.1,6.8,0.1,10.1,0.2l1,0c0.8,0,1.7-0.1,2.9-0.2c1.6-0.2,2.8-1.1,3.8-2.9
	c1.4-2.3,2.4-5,3-8.2c1.1-5.2,1.9-9.9,2.5-14.4c0.6-4.6,1.1-9.3,1.5-13.9l0.2-2.1c0.3-2.7,0.5-5.5,0.6-8.2l0.1-1.7
	c0.4-5.9,0.8-11.8,1.2-17.6c0.1-2.1,0.3-4.3,0.4-6.4l0-0.2h-43.8c-0.1,0.8-0.1,1.6-0.2,2.4c-0.5,6.1-1.5,12.5-3.1,20.1
	c-2.7,12.5-7.1,24.1-13.3,34.7c-9.2,15.9-22.1,29.1-38.1,39.2c-1.4,0.9-2.9,1.8-4.3,2.6c-0.6,0.4-1.3,0.8-1.9,1.2
	c-0.1,0.1-0.2,0.1-0.3,0.2L346.7,159z M338.1,141.8c3.8,3.3,7.1,6.7,10,10.6c0.1-0.1,0.2-0.1,0.3-0.2c1.4-0.8,2.8-1.7,4.2-2.6
	c15.4-9.7,27.6-22.3,36.5-37.5c5.9-10.1,10.1-21.3,12.7-33.2c1.6-7.4,2.5-13.5,3-19.4c0.1-1.1,0.2-2.1,0.3-3.2l0.3-3.8H459l-0.3,5.5
	c-0.1,2.2-0.3,4.3-0.4,6.5c-0.4,5.9-0.8,11.8-1.2,17.7l-0.1,1.7c-0.2,2.7-0.4,5.6-0.7,8.4l-0.2,2.1c-0.5,4.6-0.9,9.4-1.6,14.1
	c-0.6,4.7-1.5,9.5-2.6,14.7c-0.8,3.8-2,7-3.7,9.8c-1.9,3.1-4.4,4.9-7.5,5.3c-1,0.1-2.2,0.3-3.5,0.2l-1,0c-3.4,0-6.8,0-10.2-0.2
	c-3-0.1-6-0.3-8.9-0.4c1.9,3.9,3.2,8.2,4,12.9l1.2,0c1.9,0.1,3.8,0.1,5.6,0.2l0.9,0c6.5,0.2,12.7,0.3,18.9-1
	c2.7-0.6,5.6-1.3,7.8-3.2c3.1-2.6,5.2-5.4,6.5-8.7c2.9-7.1,4-15,5-22c0.6-4.2,1-8.3,1.5-12.6c0.4-4,0.8-8.2,1.2-13.3
	c0.2-2.5,0.4-5.1,0.5-7.6c0.1-1.3,0.2-2.6,0.2-3.9l0.3-4.6c0.2-2.6,0.4-5.2,0.5-7.7c0.1-2.1,0.3-4.2,0.4-6.3l0.2-3.7
	c0.1-1.5,0.2-3.1,0.3-4.6c0.2-3.2,0.4-6.4,0.6-9.7c0.1-1,0-2,0-3h-66.8v-34h-13.7v34h-51v13.1h49.9l0.1,2.5c0,0.3,0,0.5,0,0.8l0,0.5
	c-0.1,0.7-0.1,1.4-0.2,2.2c-0.8,6.5-1.9,12.9-3.4,19c-3.5,14.1-9.7,26.8-18.4,37.9C360.9,125.8,350.7,134.5,338.1,141.8z
	 M304.4,158.5l-1-2.8c-0.1-0.2-0.1-0.4-0.2-0.7c-0.1-0.3-0.2-0.6-0.3-0.8c-1.4-3.2-2.9-6.6-4.5-10.1c-5.5,0.4-11.1,0.8-16.6,1.2
	l-7.1,0.5c-3.4,0.3-6.7,0.5-10.1,0.8c-2.5,0.2-4.9,0.4-7.4,0.6c-3.3,0.3-6.7,0.5-10,0.8c-2,0.2-3.9,0.3-5.9,0.4
	c-1.6,0.1-3.1,0.2-4.7,0.3c-2.3,0.2-4.5,0.3-6.8,0.5c-2.3,0.2-4.5,0.3-6.8,0.5c-1.6,0.1-3.3,0.2-4.9,0.3l-4.5,0.3l-3.1-22.6l4.3-0.3
	c1.2-0.1,2.3-0.2,3.4-0.2c0.9-0.1,1.8-0.1,2.8-0.1c1.2-0.1,2.5-0.1,3.7-0.2c0.6-1.3,1.2-2.7,1.7-4c1.8-4.1,3.7-8.4,5.2-12.7
	c2.1-5.8,4.1-11.8,6.1-17.6c0.6-1.7,1.1-3.4,1.7-5H211V66.1h42.9v-20h-34.8V24.4h34.8V0H277v24.4h36.4v21.7h-36.4v20h44.2v21.6
	h-55.7c-5,12.6-10.2,25.6-16.2,38.2l37.2-2.1c-3.7-5.6-7.5-10.9-11.7-16.2l-1.9-2.4l19.8-10.4l1.3,1.6c11.4,14.2,23,29.9,30.9,48.2
	l0.9,2.1L304.4,158.5z M299.4,139.1c1.3,0,2.6,0.8,3.1,2c1.6,3.5,3.1,7,4.6,10.3l12.2-6.7c-7.3-16.2-17.7-30.4-28-43.4l-10.8,5.7
	c4.5,5.8,8.6,11.6,12.5,17.9l2.2,3.6l-54.3,3l1.9-3.9c7-13.9,12.8-28.5,18.4-42.7l0.8-2.1h54.1V71h-44.2v-30h36.4V29.4H272V5h-13.1
	v24.4h-34.8v11.7h34.8v30H216v11.7h30.1l-1,3.5c-0.1,0.3-0.1,0.5-0.2,0.8c-0.8,2.5-1.7,4.9-2.5,7.4c-1.9,5.8-4,11.9-6.1,17.7
	c-1.6,4.4-3.5,8.7-5.4,12.9c-0.7,1.6-1.4,3.2-2.1,4.7c-0.5,1.2-1.8,2.1-3,2.2c-1.6,0.1-3.1,0.2-4.7,0.3c-0.9,0-1.8,0.1-2.7,0.1
	c-0.8,0-1.5,0.1-2.3,0.1l1.8,12.7c1.6-0.1,3.2-0.2,4.8-0.3c2.3-0.2,4.5-0.3,6.8-0.5c2.3-0.2,4.5-0.3,6.8-0.5
	c1.6-0.1,3.1-0.2,4.7-0.3c2-0.1,3.9-0.3,5.9-0.4c3.3-0.3,6.7-0.5,10-0.8c2.5-0.2,4.9-0.4,7.4-0.6c3.4-0.3,6.7-0.5,10.1-0.8l7.1-0.5
	c5.9-0.5,11.8-0.9,17.7-1.3C299.3,139.1,299.4,139.1,299.4,139.1z M189,156.3l-19.3-14.5l1.3-2c10.3-16.1,19.7-32.9,28.9-51.5
	l1.4-2.9l17.1,14.4l-0.8,1.7c-8.4,18.5-18.5,36.6-27.2,52.2L189,156.3z M176.4,140.6l11,8.3c8.1-14.4,17.1-30.9,24.8-47.6l-9.3-7.8
	C194.5,110.3,185.8,125.8,176.4,140.6z M128.6,144.8c-2.7,0-5.5,0-8.5,0c-3.2,0-6.5-0.2-9.9-0.4c-3.7-0.2-5.5-2-5.9-5.8
	c0-0.4-0.1-0.9-0.1-1.4l0-20.3h17.1l-1.1,4.8c-0.5,2.3-1.1,4.6-1.7,6.8c-0.4,1.6-2,2.3-3,2.3c-0.8,0.1-1.5,0.1-2.3,0.1l0.7,4.1
	c0.9-0.1,1.8-0.2,2.7-0.2l2.2-0.2c2.5-0.2,5-0.4,7.5-0.7c1.7-0.2,3.5-0.3,5.2-0.5l4.2-0.4c1-0.1,2-0.2,3.1-0.3
	c1.8-0.2,3.3,0.7,3.8,2.5c0.1,0.2,0.1,0.4,0.2,0.6l3.6-1.2l0.2,3.2c0.2,2.3-1.4,5.3-3.9,5.9l0,0c-2,0.5-3.7,0.8-5.2,0.8
	C134.8,144.8,131.8,144.8,128.6,144.8z M119,139.8c0.4,0,0.8,0,1.3,0c6.5,0.1,12.1,0.1,17.3,0c0.5,0,0.9,0,1.4-0.1l-0.2-0.6
	c-0.1-0.4-0.3-0.7-0.4-1.1c-0.7,0.1-1.3,0.1-2,0.2l-4.2,0.4c-1.7,0.2-3.5,0.4-5.2,0.5c-2.5,0.2-5,0.5-7.5,0.7L119,139.8z
	 M109.6,139.3C109.6,139.3,109.7,139.3,109.6,139.3l-0.3-2.2v0.2c0,0.3,0,0.6,0,0.9C109.5,139,109.6,139.2,109.6,139.3
	C109.6,139.3,109.6,139.3,109.6,139.3z M109.3,121.9l0,4.2l2.3-0.1c0.9,0,1.7-0.1,2.6-0.1c0.3-1.3,0.7-2.7,1-4H109.3z M88,111.6
	H56.9V99.3H88V111.6z M61.9,106.6H83v-2.3H61.9V106.6z M130,111.6H98.5V99.3H130V111.6z M103.5,106.6H125v-2.3h-21.4V106.6z
	 M88,95.8H56.9V83.6H88V95.8z M61.9,90.8H83v-2.2H61.9V90.8z M130,95.8H98.5V83.6H130V95.8z M103.5,90.8H125v-2.2h-21.4V90.8z
	 M200.2,81l-2.4-1.8c-0.2-0.2-0.4-0.3-0.6-0.5c-4.6-3.6-9.8-6.4-14.8-8.8c-3.3-1.7-6.8-3.2-10.2-4.8c-1.4-0.6-2.9-1.3-4.3-1.9
	c0,0,0,0-0.1,0c-0.1,0-0.2-0.1-0.3-0.1l-1.8-0.5v-2.8l2.5-3.7c2.1-3.1,4.2-6.2,6.3-9.3c1.1-1.6,2.6-2.1,4.4-1.5
	c10.5,3.7,18.9,7.5,26.2,11.8c1.2,0.7,2.3,1.5,3.4,2.2c0.4,0.3,0.9,0.6,1.3,0.9c0.2,0.1,0.4,0.3,0.6,0.5l1.9,1.6L200.2,81z
	 M172,59.6c0.8,0.4,1.6,0.7,2.3,1.1c3.4,1.5,6.9,3.1,10.3,4.8c4.7,2.3,9.7,5,14.3,8.4l6.8-10.4c-1.1-0.7-2.1-1.4-3.1-2
	c-6.9-4-14.7-7.5-24.5-11c-1.9,2.9-3.9,5.7-5.8,8.6L172,59.6z M208.9,37.9l-2.1-1.7c-10-8.2-21.6-13.8-30.6-17.7l-2.9-1.3l4.2-5.6
	c2.3-3.1,4.7-6.2,7-9.4c0.4-0.6,1.7-1.9,3.9-1c5.3,1.9,10.6,4.2,15.9,7c5,2.5,10.2,5.4,15,9.2c0.2,0.1,0.3,0.3,0.5,0.4l2,1.7
	L208.9,37.9z M181.1,15.1c8.2,3.7,17.9,8.6,26.8,15.5l7.2-10.2c-4.1-3.1-8.7-5.6-13.1-7.8c-4.8-2.5-9.6-4.6-14.3-6.3
	c-2.1,2.8-4.1,5.5-6.2,8.3L181.1,15.1z"/>
</svg>
