<?xml version="1.0" encoding="utf-8"?>
<!-- Generator: Adobe Illustrator 27.9.1, SVG Export Plug-In . SVG Version: 6.00 Build 0)  -->
<svg version="1.1" id="Layer_1" xmlns="http://www.w3.org/2000/svg" xmlns:xlink="http://www.w3.org/1999/xlink" x="0px" y="0px"
	 viewBox="0 0 143.9 33.4" style="enable-background:new 0 0 143.9 33.4;" xml:space="preserve">
<style type="text/css">
	.st0{fill:#282828;}
</style>
<g>
	<path class="st0" d="M33.6,15c-0.5-1.3-1.1-2.6-1.7-3.9c-0.6-1.3-1.3-2.6-1.9-3.8c-0.7-1.2-1.3-2.2-1.9-3L24,6c0.7,0.8,1.4,1.8,2,3
		c0.7,1.2,1.3,2.5,1.9,3.8c0.6,1.3,1.1,2.7,1.6,4s0.8,2.5,1.1,3.5l4.3-2C34.5,17.4,34.1,16.3,33.6,15z M31.1,18.8
		c-0.2-0.8-0.5-1.6-0.8-2.4c-0.5-1.3-1-2.7-1.6-4c-0.6-1.4-1.2-2.7-1.9-3.9C26.4,7.7,26,7,25.6,6.4l2.1-0.9c0.4,0.6,0.9,1.4,1.3,2.3
		c0.6,1.2,1.3,2.5,1.9,3.8c0.6,1.3,1.2,2.6,1.7,3.8c0.3,0.9,0.7,1.6,0.9,2.3L31.1,18.8z"/>
	<path class="st0" d="M2.5,12.8c0.8-0.1,1.4-0.2,2-0.3c0.6-0.1,1.3-0.2,2.3-0.3c0.4-0.1,0.9-0.1,1.4-0.2C8,12.4,8,12.6,7.9,12.9
		c-0.4,1.3-0.8,2.7-1.3,4.2c-0.5,1.5-1.1,3.1-1.7,4.6c-0.6,1.6-1.3,3.1-2.1,4.6c-0.8,1.5-1.6,2.8-2.5,4l4.4,1.7
		c0.8-1.3,1.6-2.7,2.3-4.3c0.7-1.6,1.4-3.2,2-4.8c0.6-1.6,1.2-3.3,1.7-4.9c0.5-1.6,0.9-3.1,1.3-4.6c0.2-0.6,0.3-1.2,0.5-1.8
		c0.2,0,0.4,0,0.6-0.1c1-0.1,1.8-0.1,2.4-0.1c0.8,0,1.5,0.1,2.1,0.3c0.6,0.2,1,0.5,1.3,1c0.3,0.5,0.4,1.3,0.4,2.4
		c0,1.3-0.1,2.6-0.2,4c-0.1,1.4-0.3,2.7-0.5,3.9c-0.2,1.2-0.6,2.2-0.9,2.9c-0.3,0.7-0.7,1.1-1.2,1.4c-0.5,0.2-1.1,0.3-1.7,0.3
		c-0.3,0-0.8,0-1.3-0.1c-0.5-0.1-1.1-0.2-1.7-0.3c-0.6-0.1-1.1-0.3-1.6-0.4l0.7,4.5c0.6,0.1,1.4,0.2,2.2,0.4
		c0.8,0.1,1.6,0.2,2.3,0.2c1.4,0,2.6-0.2,3.6-0.7c1-0.5,1.8-1.4,2.4-2.7c0.6-1.1,1-2.4,1.3-4c0.3-1.6,0.5-3.3,0.7-5
		c0.1-1.7,0.2-3.4,0.2-4.8c0-1.8-0.3-3.2-0.9-4.2c-0.6-1-1.4-1.8-2.4-2.2c-1-0.4-2.1-0.6-3.4-0.6c-0.6,0-1.3,0-2.1,0.1
		c-0.4,0-0.9,0.1-1.4,0.1c0-0.1,0-0.2,0.1-0.3c0.1-0.7,0.3-1.5,0.4-2.2c0.2-0.7,0.3-1.3,0.4-1.9C14.4,3,14.5,2.5,14.6,2
		c0.1-0.5,0.2-1,0.3-1.4L9.9,0c0,1.4-0.1,3-0.3,4.6C9.4,5.8,9.2,7,9,8.2c0,0,0,0,0,0C8,8.2,7,8.3,6.1,8.4C5.2,8.4,4.5,8.5,3.9,8.5
		c-0.7,0-1.3,0-1.9,0.1c-0.6,0-1.3,0-1.9-0.1l0.4,4.6C1,13,1.7,12.9,2.5,12.8z M1.5,9.6l0.4,0c0.6,0,1.3,0,2-0.1
		c0.6,0,1.4-0.1,2.3-0.1l3.6-0.3L10,8.4c0.3-1.4,0.5-2.5,0.6-3.6c0.2-1.2,0.3-2.4,0.3-3.6l2.8,0.3c0,0.1,0,0.2-0.1,0.4
		c-0.1,0.5-0.2,1-0.3,1.4c-0.1,0.6-0.2,1.2-0.4,1.9c-0.2,0.7-0.3,1.5-0.4,2.2l-0.3,1.5l2.7-0.2c0.8-0.1,1.5-0.1,2.1-0.1
		c1.1,0,2.2,0.2,3,0.6c0.8,0.3,1.4,0.9,1.9,1.8c0.5,0.9,0.7,2.1,0.7,3.7c0,1.4-0.1,3-0.2,4.7c-0.1,1.7-0.4,3.4-0.7,4.9
		c-0.3,1.5-0.7,2.7-1.2,3.7c-0.5,1.1-1.2,1.9-2,2.3c-0.9,0.4-1.9,0.6-3.2,0.6c-0.7,0-1.4-0.1-2.2-0.2c-0.5-0.1-1-0.1-1.5-0.2
		l-0.4-2.3c0.1,0,0.1,0,0.2,0c0.6,0.1,1.2,0.2,1.8,0.3c0.6,0.1,1.1,0.1,1.4,0.1c0.8,0,1.5-0.1,2.1-0.4c0.7-0.3,1.3-0.9,1.7-1.8
		c0.4-0.8,0.7-1.9,1-3.2c0.2-1.2,0.4-2.6,0.5-4c0.1-1.4,0.2-2.8,0.2-4.1c0-1.3-0.2-2.2-0.6-2.9c-0.4-0.7-1-1.2-1.9-1.5
		c-0.7-0.2-1.5-0.3-2.4-0.3c-0.6,0-1.4,0-2.5,0.1l-1.3,0.1l-0.2,0.7c-0.1,0.6-0.3,1.1-0.5,1.8c-0.4,1.4-0.8,2.9-1.3,4.5
		c-0.5,1.6-1,3.2-1.7,4.8c-0.6,1.6-1.3,3.2-2,4.8c-0.6,1.3-1.2,2.4-1.8,3.5l-2.5-1c0.6-0.9,1.2-2,1.8-3.1c0.8-1.5,1.5-3,2.1-4.6
		C6.5,20.6,7,19,7.6,17.5c0.5-1.5,0.9-3,1.3-4.3L9.5,11L8,11.1c-0.5,0.1-1,0.1-1.4,0.2c-1,0.1-1.8,0.2-2.3,0.3
		c-0.5,0.1-1.2,0.2-1.9,0.3c-0.4,0-0.7,0.1-1,0.1L1.1,9.6C1.2,9.6,1.4,9.6,1.5,9.6z"/>
	<path class="st0" d="M51.9,14.2c-0.7,0.3-1.2,0.8-1.6,1.5c-0.4,0.7-0.6,1.4-0.6,2.3c0,1.3,0.4,2.3,1.3,3c0.8,0.7,1.8,1.1,2.9,1.1
		c0.9,0,1.7-0.3,2.4-0.8c0.7-0.5,1.1-1.4,1.3-2.5c0.1-0.8,0.1-1.7-0.1-2.7l0-0.2l-0.1-0.2c-0.2-0.3-0.3-0.5-0.5-0.7
		c-0.8-0.8-1.8-1.3-3-1.3C53.2,13.7,52.5,13.9,51.9,14.2z M56.5,16.2c0.2,0.9,0.2,1.7,0.1,2.4c-0.2,0.9-0.5,1.5-1,1.9
		c-0.5,0.4-1.1,0.6-1.8,0.6c-0.8,0-1.6-0.3-2.2-0.8c-0.6-0.6-1-1.3-1-2.3c0-0.7,0.2-1.3,0.5-1.8c0.3-0.5,0.7-0.9,1.2-1.1
		c0.5-0.3,1-0.4,1.5-0.4c0.9,0,1.7,0.3,2.3,1C56.3,15.8,56.4,16,56.5,16.2z"/>
	<path class="st0" d="M39.2,9c1.4-0.1,3-0.2,4.6-0.3c1.6-0.1,3.3-0.1,5.1-0.2c1.8-0.1,3.5-0.1,5.3-0.1c0.5,0,1,0,1.5,0
		c0,0.6,0,1.2,0,1.8c0,0.4,0,0.8,0,1.2c-0.6-0.1-1.2-0.2-1.8-0.2c-1.3,0-2.5,0.3-3.6,0.9c-1.1,0.6-2,1.4-2.7,2.4c-0.7,1-1,2.3-1,3.6
		c0,1.1,0.2,2.1,0.6,2.9c0.4,0.8,0.9,1.6,1.5,2.1c0.6,0.6,1.3,1,2.1,1.3c0.8,0.3,1.5,0.4,2.3,0.4c0.8,0,1.6-0.1,2.2-0.4
		c-0.4,0.5-0.9,1-1.4,1.5c-1,0.8-2.2,1.6-3.6,2.1c-1.4,0.6-2.9,1-4.5,1.4l3.6,3.6c2.3-0.7,4.2-1.5,5.8-2.5c1.5-1,2.8-2.2,3.7-3.4
		c0.9-1.3,1.6-2.6,2-3.9c0.4-1.3,0.6-2.6,0.6-3.9c0-1.6-0.3-3-0.8-4.2c-0.1-0.3-0.3-0.6-0.5-0.9c0-0.1,0-0.2,0-0.3
		c0-0.9,0-1.9,0-2.9c0-0.9,0-1.7,0-2.6c2.6,0,4.8,0,6.6,0.1c1.9,0,3.4,0.1,4.6,0.1l0-4c-0.5,0-1.2,0-2.1,0c-0.9,0-1.9,0-2.9,0
		c-1.1,0-2.2,0-3.3,0c-1,0-2,0-2.9,0c0-0.6,0-1.1,0-1.6c0-0.2,0-0.5,0-0.9c0-0.4,0.1-0.8,0.1-1.2s0.1-0.7,0.1-0.9h-4.9
		c0.1,0.2,0.1,0.6,0.2,1.2c0.1,0.6,0.1,1.2,0.2,1.9c0,0.4,0,0.9,0.1,1.5c-1.2,0-2.5,0-3.9,0.1c-1.5,0-3,0.1-4.6,0.1
		c-1.5,0-3,0.1-4.4,0.1c-1.4,0-2.6,0-3.7,0L39.2,9z M42.8,5.8c1.4,0,2.8-0.1,4.4-0.1c1.5,0,3-0.1,4.6-0.1c1.4,0,2.7,0,3.9-0.1l1,0
		l0-1c0-0.7,0-1.2-0.1-1.6c-0.1-0.7-0.1-1.3-0.2-1.9c0,0,0,0,0,0h2.7c0,0.4-0.1,0.7-0.1,1.1c0,0.4,0,0.7,0,0.9c0,0.4,0,0.9,0,1.5
		l0,1l1,0c0.9,0,1.9,0,2.9,0c1.1,0,2.2,0,3.3,0c1.1,0,2,0,2.9,0c0.4,0,0.7,0,1.1,0l0,2c-1,0-2.2-0.1-3.6-0.1c-1.8,0-4-0.1-6.6-0.1
		l-1,0l0,1c0,0.9,0,1.7,0,2.6l0,3.6l0.2,0.2c0.2,0.3,0.3,0.5,0.4,0.8c0.5,1.1,0.7,2.4,0.7,3.8c0,1.1-0.2,2.4-0.5,3.6
		c-0.4,1.2-1,2.4-1.8,3.6c-0.8,1.2-2,2.2-3.4,3.2c-1.3,0.9-3,1.6-4.9,2.2L47.7,30c1-0.3,2-0.6,3-1c1.5-0.6,2.8-1.4,3.9-2.3
		c0.6-0.5,1.1-1,1.6-1.7l2-2.6L55,23.6c-0.6,0.2-1.2,0.3-1.9,0.3c-0.6,0-1.3-0.1-1.9-0.4c-0.7-0.2-1.3-0.6-1.8-1.1
		c-0.5-0.5-1-1.1-1.3-1.8c-0.3-0.7-0.5-1.6-0.5-2.5c0-1.2,0.3-2.2,0.8-3.1c0.6-0.9,1.3-1.6,2.3-2.1c1-0.5,2-0.8,3.2-0.8
		c0.5,0,1.1,0.1,1.6,0.2l1.2,0.3l-0.1-5.2l-2.5,0c-1.8,0-3.6,0.1-5.3,0.1c-1.8,0.1-3.5,0.1-5.1,0.2c-1.3,0.1-2.5,0.1-3.6,0.2
		l-0.1-2.1C40.9,5.9,41.8,5.8,42.8,5.8z"/>
	<path class="st0" d="M140.6,21h-20.3v7h20.3V21z M139.6,27h-18.3v-5h18.3V27z"/>
	<path class="st0" d="M117.2,33.4h4.1V31h18.3v2.4h4.3V0.5h-26.7V33.4z M118.2,1.5h24.7v30.9h-2.3V30h-20.3v2.4h-2.1V1.5z"/>
	<path class="st0" d="M140.6,3.4h-20.3v6.8h20.3V3.4z M139.6,9.3h-18.3V4.4h18.3V9.3z"/>
	<path class="st0" d="M140.6,12.1h-20.3v7h20.3V12.1z M139.6,18.2h-18.3v-5h18.3V18.2z"/>
	<path class="st0" d="M81.5,26.1c0.6,0,1.1-0.2,1.6-0.5c0.4-0.3,0.8-0.7,1.2-1.3c0.4-0.5,0.8-1.2,1.1-1.9c0.3-0.7,0.7-1.4,1.1-2.2
		c0.4-0.8,0.7-1.6,1.1-2.5l0.2-0.5l0.7-1.6L86.9,16c-1.3,0.2-2.4,0.5-3.4,0.9c-1.5,0.7-2.7,1.6-3.5,2.7c-0.8,1.1-1.2,2.3-1.2,3.5
		c0,1,0.3,1.7,0.8,2.3C80.1,25.8,80.8,26.1,81.5,26.1z M80.8,20.1c0.7-0.9,1.7-1.7,3.1-2.3c0.9-0.4,1.9-0.7,3.1-0.8
		c-0.1,0.2-0.1,0.3-0.2,0.5c-0.3,0.8-0.7,1.6-1.1,2.4c-0.4,0.8-0.7,1.5-1.1,2.2c-0.3,0.7-0.7,1.2-1,1.7c-0.4,0.5-0.7,0.8-1,1
		c-0.3,0.2-0.7,0.3-1.1,0.3c-0.5,0-0.9-0.2-1.3-0.5c-0.4-0.4-0.5-0.9-0.5-1.6C79.8,22,80.1,21.1,80.8,20.1z"/>
	<path class="st0" d="M77.4,28c1.1,1,2.4,1.6,4,1.6c1.2,0,2.3-0.2,3.2-0.7c0.9-0.5,1.7-1.3,2.5-2.4c0.4-0.6,0.8-1.3,1.2-2.2
		c0.4-0.8,0.8-1.7,1.3-2.7c0.4-1,0.9-2,1.3-2.9c0.2-0.5,0.5-1.1,0.7-1.6c1,0.1,2,0.3,3,0.6c1.8,0.5,3.5,1.1,5.2,2
		c0.4,0.2,0.9,0.5,1.3,0.7c-0.3,0.7-0.6,1.5-0.9,2.2c-0.7,1.5-1.8,2.9-3.2,4.2c-1.4,1.3-3.3,2.5-5.6,3.4l3.6,3
		c2.3-1.1,4.1-2.4,5.6-3.9c1.5-1.5,2.6-3.1,3.5-4.9c0.3-0.5,0.5-1.1,0.7-1.7c1.3,0.9,2.4,1.8,3.5,2.7l2-4.7c-1-0.7-2.2-1.5-3.6-2.3
		c-0.2-0.1-0.4-0.2-0.6-0.3c0.4-2.2,0.6-4.5,0.8-7.1l-4.4-0.5c0.1,0.6,0.1,1.2,0.1,1.9s0,1.4-0.1,2.1c0,0.5-0.1,1.1-0.2,1.7
		c-0.1-0.1-0.2-0.1-0.4-0.2c-1.8-0.8-3.7-1.4-5.7-1.9c-0.9-0.2-1.8-0.4-2.7-0.5c0.2-0.5,0.5-1,0.7-1.6c0.6-1.4,1.2-2.7,1.8-4
		c0.6-1.2,1.1-2.2,1.5-2.9c0.2-0.3,0.3-0.5,0.5-0.7c0.2-0.2,0.4-0.5,0.6-0.7l-2.7-2.1c-0.3,0.1-0.7,0.2-1.1,0.3
		c-0.4,0.1-0.9,0.2-1.3,0.2c-0.4,0-1,0.1-1.7,0.1C90.7,1.9,90,2,89.2,2c-0.8,0-1.6,0.1-2.3,0.1c-0.7,0-1.4,0-1.9,0
		c-0.4,0-0.9,0-1.4-0.1C82.9,2,82.4,2,81.9,2L82,6.3c0.5-0.1,1-0.1,1.6-0.2c0.6-0.1,1.1-0.1,1.5-0.1c0.4,0,1-0.1,1.6-0.1
		c0.6,0,1.3-0.1,1.9-0.1c0.7,0,1.3-0.1,1.9-0.1c0.6,0,1.1,0,1.5,0c-0.4,0.8-0.8,1.7-1.3,2.8c-0.5,1.1-1,2.1-1.4,3.3
		c-0.2,0.4-0.4,0.8-0.6,1.3c-1.7,0.1-3.3,0.3-4.7,0.8c-1.7,0.5-3.1,1.3-4.3,2.2c-1.2,1-2.2,2.1-2.9,3.4s-1,2.7-1,4.2
		C75.8,25.5,76.3,26.9,77.4,28z M77.7,20c0.6-1.2,1.5-2.2,2.6-3.1c1.1-0.9,2.5-1.6,4-2.1c1.3-0.4,2.8-0.7,4.4-0.7l0.6,0l0.8-1.8
		c0.5-1.1,1-2.2,1.4-3.3c0.5-1,0.9-2,1.3-2.8l0.7-1.4H92c-0.4,0-0.9,0-1.5,0l-1.9,0.1c-0.7,0-1.3,0.1-2,0.1L85,5.1
		c-0.4,0-0.9,0.1-1.5,0.1c-0.2,0-0.4,0-0.5,0L82.9,3c0.2,0,0.3,0,0.5,0c0.6,0,1.1,0.1,1.5,0.1c0.6,0,1.2,0,2,0
		c0.7,0,1.5-0.1,2.3-0.1c0.8,0,1.5-0.1,2.2-0.1l1.7-0.1c0.5-0.1,1-0.1,1.4-0.2c0.2-0.1,0.5-0.1,0.7-0.2l1.5,1.2
		c-0.2,0.3-0.4,0.5-0.6,0.8c-0.4,0.7-1,1.7-1.5,3c-0.6,1.2-1.2,2.6-1.8,4l-1.2,2.8l1.3,0.2c1,0.1,1.8,0.3,2.6,0.5
		c2,0.5,3.8,1.1,5.5,1.9l1.6,0.7l0.2-1.3c0.1-0.6,0.1-1.2,0.2-1.8c0.1-0.7,0.1-1.4,0.1-2.2c0-0.3,0-0.5,0-0.8l2.3,0.3
		c-0.1,2.2-0.4,4.2-0.7,6.1l-0.1,0.7l1.2,0.7c1.1,0.7,2.1,1.3,2.9,1.8l-1.1,2.7c-0.8-0.6-1.6-1.3-2.5-1.9l-1.1-0.8l-0.5,1.2
		c-0.2,0.6-0.4,1.2-0.7,1.6c-0.8,1.7-1.9,3.3-3.3,4.6c-1.3,1.3-2.9,2.4-4.8,3.4l-1.9-1.5c1.7-0.9,3.2-1.9,4.4-2.9
		c1.5-1.4,2.6-2.9,3.4-4.4c0.4-0.8,0.7-1.6,1-2.3l0.3-0.8l-1.1-0.6c-0.3-0.2-0.6-0.4-1-0.5c-1.7-0.8-3.5-1.5-5.4-2
		c-1-0.3-2.1-0.5-3.2-0.6L90.8,16l-1,2.3c-0.4,1-0.8,1.9-1.3,2.9c-0.4,1-0.9,1.9-1.3,2.7c-0.4,0.8-0.8,1.5-1.1,2
		c-0.6,0.9-1.3,1.6-2.1,2.1c-0.7,0.4-1.7,0.6-2.7,0.6c-1.3,0-2.4-0.4-3.3-1.3c-0.9-0.8-1.3-2-1.3-3.6C76.8,22.4,77.1,21.1,77.7,20z"
		/>
</g>
</svg>
