<?xml version="1.0" encoding="utf-8"?>
<!-- Generator: Adobe Illustrator 27.9.1, SVG Export Plug-In . SVG Version: 6.00 Build 0)  -->
<svg version="1.1" id="Layer_1" xmlns="http://www.w3.org/2000/svg" xmlns:xlink="http://www.w3.org/1999/xlink" x="0px" y="0px"
	 viewBox="0 0 147.4 35.5" style="enable-background:new 0 0 147.4 35.5;" xml:space="preserve">
<style type="text/css">
	.st0{fill:#282828;}
</style>
<g>
	<path class="st0" d="M23.7,24.8h-6.9v6.1h6.9V24.8z M22.7,29.9h-4.9v-4.1h4.9V29.9z"/>
	<path class="st0" d="M23.7,9.7h-6.9v6h6.9V9.7z M22.7,14.7h-4.9v-4h4.9V14.7z"/>
	<path class="st0" d="M3.7,25.4h7.2v-9c0,0.1,0.1,0.1,0.1,0.2c0.3,0.5,0.6,0.8,0.7,1.1c0.8-0.9,1.5-1.8,2.2-2.9v20.7h3.9v-2h16.5
		v-3.6h-7.8v-4.1h6.2v-3.6h-6.2v-4h6.2v-3.6h-6.2v-4h7.2V7h-6.6c0.2-0.4,0.4-0.8,0.6-1.3c0.6-1.5,1.2-3,1.8-4.4L25,0.5
		c-0.2,0.8-0.4,1.7-0.6,2.7c-0.3,1-0.6,2-0.9,2.9c-0.1,0.3-0.2,0.6-0.3,0.9h-5.1c0.8-1.9,1.5-3.9,2.1-5.8l-4-1.1
		c-0.7,2.7-1.7,5.3-3,7.7c-0.7,1.5-1.5,2.8-2.4,4v-8H3.7H2.3H0v24.7h3.7V25.4z M11.7,12.4c0.9-1.3,1.7-2.7,2.5-4.1
		c1.1-2.2,2-4.5,2.8-6.9l2,0.5c-0.5,1.5-1.1,3.1-1.8,4.7L16.6,8h7.3l0.3-0.8c0.1-0.3,0.2-0.5,0.3-0.8c0.3-1,0.6-1.9,0.9-3
		c0.2-0.6,0.3-1.3,0.5-1.8l2.3,0.5c-0.4,1.1-0.9,2.2-1.4,3.3c-0.2,0.4-0.4,0.9-0.6,1.3L25.6,8h7.2v1.6h-7.2v6h6.2v1.6h-6.2v6h6.2
		v1.6h-6.2v6.1h7.8v1.6H16.8v2h-1.9v-23l-1.8,2.7c-0.4,0.6-0.9,1.2-1.3,1.8l-1.3-1.9L11.7,12.4z M2.7,27.5H1V4.8h8.9V15l0,0l0,1.4v8
		H2.7V27.5z"/>
	<path class="st0" d="M23.7,17.2h-6.9v6h6.9V17.2z M22.7,22.2h-4.9v-4h4.9V22.2z"/>
	<path class="st0" d="M2.7,22.7h5.5V6.6H2.7V22.7z M3.7,7.6h3.5v14.1H3.7V7.6z"/>
	<path class="st0" d="M144.2,5.3h-27.5v4.4h27.5V5.3z M143.2,8.8h-25.5V6.3h25.5V8.8z"/>
	<path class="st0" d="M95,15.6h-5.3V23H95V15.6z M94,22h-3.3v-5.3H94V22z"/>
	<path class="st0" d="M88.3,6.7h-5.2V14h5.2V6.7z M87.3,13h-3.2V7.7h3.2V13z"/>
	<path class="st0" d="M77,11.2c0.4,0.3,0.7,0.6,1,0.9c0.9-0.7,1.7-1.5,2.6-2.4V13h-5.2v3.6h5.2V22H76v3.6h33.1V22h-4.6v-5.3h5.1V13
		h-5.1V7.7h3.7V4.1H84.9c0.6-1,1.2-1.9,1.7-2.9l-4-1.2c-0.8,1.8-2,3.6-3.4,5.2c-1.4,1.7-3,3-4.6,4.2c0.3,0.2,0.7,0.5,1.1,0.8
		C76.2,10.5,76.6,10.8,77,11.2z M80,5.9c1.3-1.5,2.3-3.1,3.2-4.7l2,0.6c-0.3,0.5-0.7,1.1-1.1,1.8l-1,1.5h24.1v1.6h-3.7V14h5.1v1.6
		h-5.1V23h4.6v1.6H77V23h4.6v-7.3h-5.2V14h5.2V7.2l-1.7,1.8c-0.7,0.7-1.3,1.3-1.8,1.8c-0.1-0.1-0.2-0.2-0.4-0.3
		c-0.4-0.3-0.9-0.7-1.3-1c0,0,0,0,0,0C77.6,8.4,78.8,7.2,80,5.9z"/>
	<path class="st0" d="M88.3,15.6h-5.2V23h5.2V15.6z M87.3,22h-3.2v-5.3h3.2V22z"/>
	<path class="st0" d="M101.8,6.7h-5.3V14h5.3V6.7z M100.8,13h-3.3V7.7h3.3V13z"/>
	<path class="st0" d="M101.8,15.6h-5.3V23h5.3V15.6z M100.8,22h-3.3v-5.3h3.3V22z"/>
	<path class="st0" d="M95,6.7h-5.3V14H95V6.7z M94,13h-3.3V7.7H94V13z"/>
	<path class="st0" d="M99.9,34.4c-0.1-0.6-0.3-1.4-0.5-2.2c-0.2-0.8-0.5-1.6-0.8-2.5c-0.3-0.9-0.6-1.7-1-2.4l-3.8,0.6
		c0.5,1.2,0.9,2.4,1.3,3.8c0.4,1.4,0.6,2.5,0.8,3.4L99.9,34.4z M97.1,28.4c0.2,0.5,0.4,1.1,0.6,1.6c0.3,0.8,0.6,1.7,0.8,2.5
		c0.1,0.4,0.2,0.7,0.3,1.1L96.7,34c-0.2-0.7-0.4-1.6-0.6-2.5c-0.3-0.9-0.6-1.9-0.9-2.7L97.1,28.4z"/>
	<path class="st0" d="M72,15.1H37v4.5H72V15.1z M71,18.6H38v-2.5H71V18.6z"/>
	<path class="st0" d="M147.4,27.5h-33.9v4.7h33.9V27.5z M146.4,31.1h-31.9v-2.7h31.9V31.1z"/>
	<path class="st0" d="M104.9,33.1c0.5,0.9,0.9,1.7,1.2,2.4l4.1-1.4c-0.3-0.7-0.7-1.5-1.3-2.4c-0.6-0.9-1.2-1.8-1.8-2.7
		c-0.6-0.9-1.2-1.8-1.8-2.5l-3.9,1.2c0.6,0.8,1.2,1.7,1.8,2.6C103.8,31.3,104.4,32.2,104.9,33.1z M105,27.6c0.4,0.6,0.9,1.2,1.4,1.9
		c0.6,0.9,1.2,1.8,1.8,2.7c0.3,0.5,0.5,0.9,0.7,1.3l-2.2,0.7c-0.2-0.5-0.5-1.1-0.9-1.7c-0.5-0.9-1.1-1.9-1.7-2.8
		c-0.3-0.5-0.7-1.1-1-1.5L105,27.6z"/>
	<path class="st0" d="M81.5,31.9c0.8-1.4,1.4-2.9,1.8-4.3l-4-0.9c-0.4,1.4-1,2.8-1.8,4.1c-0.8,1.3-1.7,2.4-2.6,3.2l3.9,1.6
		C79.9,34.6,80.8,33.4,81.5,31.9z M76.8,33.6c0.6-0.7,1.1-1.5,1.7-2.3c0.7-1.1,1.2-2.3,1.6-3.4l2,0.5c-0.4,1-0.9,2.1-1.4,3.1
		c-0.6,1.1-1.3,2.1-2,2.9L76.8,33.6z"/>
	<path class="st0" d="M90,27.4l-3.8,0.4c0.2,0.8,0.3,1.6,0.4,2.5c0.1,0.9,0.2,1.7,0.2,2.6c0.1,0.8,0.1,1.6,0.1,2.2l4-0.6
		c0-0.9-0.1-2-0.3-3.4C90.5,29.8,90.2,28.6,90,27.4z M87.9,34c0-0.3,0-0.7-0.1-1.1c-0.1-0.8-0.1-1.7-0.3-2.6c-0.1-0.5-0.1-1-0.2-1.5
		l1.8-0.2c0.2,0.9,0.3,1.8,0.4,2.8c0.1,0.9,0.2,1.7,0.2,2.4L87.9,34z"/>
</g>
</svg>
