<?xml version="1.0" encoding="utf-8"?>
<!-- Generator: Adobe Illustrator 27.9.1, SVG Export Plug-In . SVG Version: 6.00 Build 0)  -->
<svg version="1.1" id="intergalactic" xmlns="http://www.w3.org/2000/svg" xmlns:xlink="http://www.w3.org/1999/xlink" x="0px"
	 y="0px" viewBox="0 0 1231 163.5" style="enable-background:new 0 0 1231 163.5;" xml:space="preserve">
<style type="text/css">
	.st0{fill:#050606;}
</style>
<path class="st0" d="M225.9,162.8c-0.7,0-1.6-0.2-2.4-1c-3.7-3.3-7.3-6.6-11-9.9l-10.5-9.4l9.1-2.9c15.1-4.9,28-11.1,39.6-19
	c18.7-12.8,32.4-28.1,41.7-46.8c3.2-6.5,6.8-14.2,9.1-22.6h-6.2c-14.1,0-28.2,0-42.4,0c-12.8,16.9-27.6,31.1-43.9,42.3
	c-1.6,1.1-3.2,1.1-4.8-0.1c-4.3-3.2-8.6-6.4-12.9-9.6l-6.9-5.1l3.3-2.2c0.2-0.2,0.5-0.3,0.7-0.5c11.1-6.8,21.2-14.9,29.9-24
	c9-9.3,17-20.2,23.9-32.3c3.4-6.1,5.7-11.4,7.2-16.7c0.1-0.4,0.3-0.7,0.3-0.8l1-2l2.1,0.6L279,9.3l-10.9,18.7c2.5,0,4.9,0,7.4,0
	c9.8,0,19.9,0,29.9-0.1c3.9,0,7.4-0.6,10.7-1.7c1-0.3,2.2-0.2,3.1,0.3h0c4.5,2.8,9,5.5,13.6,8.3l0.4-0.8l2.4,2.6
	c0.6,0.6,0.9,1.4,0.9,2.2l-0.2,1.6l-0.6,0.2c-0.4,0.8-0.7,1.5-1.1,2.3c-1.1,2.4-2.2,4.8-3.1,7.2c-0.9,2.4-1.7,4.8-2.5,7.2
	c-0.9,2.7-1.8,5.5-2.9,8.2c-6.5,16.7-14.4,30.9-24.1,43.4c-7.7,9.9-16.6,18.9-27.5,27.5c-12,9.6-26.4,17.7-43.9,24.9
	c-0.4,0.1-0.7,0.3-1.1,0.4c-0.7,0.3-1.4,0.5-2,0.8C227,162.6,226.5,162.8,225.9,162.8z M211.8,144.7l4,3.6c3.5,3.1,6.9,6.2,10.4,9.3
	c0.5-0.2,0.9-0.4,1.4-0.6c0.3-0.1,0.7-0.3,1-0.4c17.1-7,31.1-14.9,42.7-24.2c10.5-8.4,19.2-17.1,26.6-26.6
	c9.4-12.1,17.1-25.9,23.4-42.2c1-2.6,1.9-5.3,2.8-7.9c0.8-2.4,1.7-5,2.6-7.4c1-2.6,2.1-5.1,3.3-7.5c0.2-0.4,0.4-0.9,0.6-1.3
	c-4.5-2.8-9-5.5-13.5-8.3c-3.6,1.2-7.5,1.8-11.7,1.8c-10,0.1-20.1,0.1-29.9,0.1h-10.9c-0.2,0-0.4,0-0.8-0.1l-4.2-0.4l11.8-20.4
	l-17.9-5.9c-1.6,5-3.8,10.1-7,15.8c-7,12.5-15.3,23.7-24.6,33.3c-8.5,8.8-18.1,16.7-28.8,23.5l1.1,0.8c4.2,3.1,8.3,6.2,12.5,9.2
	c15.7-10.9,30-24.7,42.3-41c0.9-1.2,2.1-1.8,3.6-1.8c0,0,0,0,0,0c14.2,0,28.4,0,42.6,0h12.5l-0.9,4c-0.1,0.7-0.3,1.3-0.4,1.9
	c-2.4,9.1-6.2,17.2-9.6,24c-9.6,19.2-24.2,35.6-43.4,48.7c-12,8.2-25.3,14.6-40.9,19.6L211.8,144.7z M317.8,31
	C317.8,31,317.8,31,317.8,31C317.8,31,317.8,31,317.8,31z M316.6,30.8L316.6,30.8C316.6,30.9,316.6,30.9,316.6,30.8
	C316.6,30.9,316.6,30.8,316.6,30.8z M102.3,161.5H73.9l0.2-2.7c0-0.6,0.1-1.2,0.2-1.8c0.1-1.2,0.2-2.4,0.3-3.6
	c0.1-1,0.1-2.1,0.2-3.1c0.2-2.7,0.4-5.5,0.4-8.2c0.1-9,0.1-18.1,0.1-27c0-2.2,0-4.3,0-6.5c-15.5,8-32.9,14.8-52.9,20.9l-1.8,0.5
	L5.3,106.6l10.4-2.5c17.1-4.2,33.1-10.3,47.6-18.2l1.1-0.6c5.1-2.8,10.4-5.7,15.4-8.8c7.4-4.7,14.7-10.4,21.7-17.2
	c2.2-2.1,4.4-4.5,6.5-6.8l-13,0c-17.4,0-35.4,0-53.1,0c-3.6,0-7.3,0.2-10.8,0.3c-1.8,0.1-3.5,0.2-5.3,0.2c-0.5,0-1,0-1.5,0l-3.2,0
	V26.9l2.7,0.3c0.6,0.1,1.2,0.1,1.8,0.2c1.3,0.1,2.5,0.3,3.6,0.3l2.4,0.1c3.2,0.2,6.5,0.4,9.8,0.4c8.4,0.1,17,0.1,25.3,0.1
	c2.9,0,5.8,0,8.7,0c0-1.1,0-2.1,0-3.2c0-6.9,0-13.3-0.8-19.9l-0.4-2.8h28.6l-0.4,2.8c-0.9,6.9-1.2,14.3-1.1,23.1l5.4,0
	c5.4,0,10.9,0,16.3,0c4.1,0,8-0.5,11.7-1.3c1.5-0.4,2.9,0,4,1.1c3,2.9,5.9,5.8,8.9,8.7l3.3,3.2c0.2,0.2,0.3,0.4,0.5,0.5l1.3,1.7
	l-8.9,9.6c-1.8,1.9-3.6,3.9-5.4,5.8c-4,4.4-8.2,8.9-12.4,13.2c-8.6,8.7-16.7,15.8-25,21.8l0,7.3c0,13.5-0.1,27.5,0,41.3v0
	c0,3.2,0.3,6.5,0.5,9.7c0.1,1.5,0.2,3,0.3,4.5c0,0.7,0.1,1.4,0.1,2.1L102.3,161.5z M79.4,156.5H97c0-0.3,0-0.5,0-0.8
	c-0.1-1.5-0.2-3-0.3-4.4c-0.2-3.3-0.5-6.7-0.5-10l0,0c-0.1-13.8-0.1-27.8,0-41.3l0-7.8c0-1.2,0.6-2.5,1.6-3.2
	c8.2-5.9,16.3-13,24.8-21.6c4.2-4.2,8.3-8.7,12.3-13.1c1.8-2,3.6-3.9,5.4-5.9l5.8-6.3l-1.8-1.8c-2.9-2.8-5.8-5.6-8.6-8.4
	c-3.9,0.9-8.1,1.4-12.4,1.4c-5.4,0-10.9,0-16.3,0l-10.3,0l-0.1-2.4c-0.2-9,0-16.6,0.8-23.5H80c0.6,6,0.6,11.9,0.6,17.7
	c0,1.9,0,3.8,0,5.7l0,2.5h-3.7c-3.3,0-6.7,0-10,0c-8.3,0-16.9,0-25.3-0.1c-3.4,0-6.8-0.2-10-0.4l-2.4-0.1c-1-0.1-1.9-0.1-2.9-0.2
	v15.7c1.6-0.1,3.2-0.1,4.7-0.2c3.6-0.2,7.3-0.3,11-0.3c17.7,0,35.7,0,53.1,0l17.5,0c0.3,0,0.5,0,0.8,0.1l0.3,0l4.4,0.4l-2.6,3.6
	c-0.1,0.1-0.2,0.3-0.3,0.4c-0.2,0.3-0.4,0.6-0.7,1c-0.9,1-1.8,2-2.7,3c-2.1,2.3-4.3,4.8-6.7,7c-7.2,7-14.8,13-22.6,17.8
	C77.4,84,72,86.9,66.8,89.7l-1.1,0.6c-14.9,8.1-31.3,14.3-48.8,18.6l-3.5,0.9l9.4,14.3c20.5-6.3,38.1-13.5,53.8-21.9l3.4-1.8l0.3,4
	c0,0.2,0,0.4,0,0.6c0,3.3,0,6.7,0,10c0,8.9,0,18-0.1,27c0,2.9-0.2,5.8-0.4,8.5c-0.1,1-0.1,2-0.2,3.1
	C79.5,154.6,79.5,155.6,79.4,156.5z M604.4,160.5h-30.5l0.3-2.8c0.1-0.5,0.1-1,0.2-1.4c0.1-1,0.2-2,0.3-2.9c0.1-1.3,0.2-2.6,0.3-3.9
	c0.3-3.1,0.5-6.3,0.6-9.5c0.2-14.7,0.2-30,0.2-43.4l0-0.6c0-22.1,0-45,0-67.5c0-6.9-0.5-12.2-1.4-17c-0.1-0.4-0.1-0.7-0.1-0.9l0-0.2
	l-0.2-2.6h30.5l-0.3,2.8c-0.1,0.5-0.1,1-0.2,1.5c-0.1,1-0.2,2-0.3,3c-0.1,1.4-0.2,2.9-0.4,4.3c-0.3,3.5-0.6,7-0.7,10.5
	c-0.1,5.8-0.1,11.7-0.1,17.4c0,2.9,0,5.9,0,8.8c22.5,7,42.8,14.3,62,22.5c2.6,1.1,5.3,2.4,7.8,3.5c1.1,0.5,2.3,1.1,3.4,1.6
	c0.2,0.1,0.4,0.2,0.6,0.3l2.2,1.2l-11,26.8l-2.4-1.2c-18.1-9.3-38.1-17.6-62.5-26l0,13.8c0,10,0,20.3,0.1,30.4
	c0,5.5,0.2,11.1,0.4,17.2c0.1,2.3,0.3,4.7,0.6,7c0.1,1.1,0.2,2.3,0.3,3.4c0,0.3,0,0.6,0,0.9L604.4,160.5z M579.5,155.5h19.6
	c-0.1-0.6-0.1-1.2-0.2-1.8c-0.2-2.4-0.5-4.8-0.6-7.3c-0.3-6.1-0.4-11.8-0.4-17.4c-0.1-10.2-0.1-20.5-0.1-30.5l0-15.4l0-5.3l3.3,1.1
	c25.1,8.5,45.5,16.8,64.1,26.1l7.2-17.5c-0.7-0.3-1.3-0.6-2-0.9c-2.5-1.2-5.1-2.4-7.6-3.5c-19.3-8.2-39.7-15.6-62.3-22.5
	c-2.3-0.7-2.8-2.4-2.8-3.8c0-3.2,0-6.4,0-9.6c0-5.7,0-11.7,0.1-17.5c0.1-3.6,0.4-7.3,0.7-10.8c0.1-1.4,0.2-2.8,0.4-4.3
	c0-0.6,0.1-1.3,0.2-1.9h-19.4c0.7,4.6,1.1,9.6,1.1,15.8c0.1,22.5,0.1,45.4,0,67.5l0,0.6c0,13.5,0,28.7-0.2,43.5
	c0,3.3-0.3,6.6-0.6,9.8c-0.1,1.3-0.2,2.6-0.3,3.9C579.6,154.4,579.5,154.9,579.5,155.5z M749,160.3l-17.6-15.1l0.5-1.5
	c0.2-0.6,0.4-1.2,0.5-1.8c0.4-1.2,0.8-2.4,1-3.6c0.3-1.4,0.3-2.8,0.3-4l0-3.2c0-32,0-65,0-97.5c0-2.7-0.3-5.4-0.6-8.2
	c-0.1-0.9-0.2-1.8-0.3-2.6c-0.1-1.5-0.4-3-0.6-4.6c-0.1-0.7-0.2-1.5-0.3-2.2l-0.4-2.8h30.8l-0.3,2.8c-0.1,0.8-0.2,1.6-0.3,2.4
	c-0.2,1.8-0.4,3.5-0.6,5.2L761,25c-0.2,2.7-0.5,5.6-0.5,8.3c0,24.8,0,49.5,0,74.3l0,19c1.8-0.5,3.5-1,5.1-1.6
	c19.2-6.6,37.2-16.2,55.2-29.4c8.3-6.1,14.7-11.6,20.2-17.3c1.9-2,3.7-4.1,5.5-6.1c0.8-1,1.7-1.9,2.5-2.8l0.6-0.7l2.2-2.5l14.3,22.6
	l-1.2,1.4c-0.5,0.6-1,1.2-1.5,1.8c-1.1,1.3-2.2,2.5-3.3,3.8c-12,13.1-26.1,24.4-43.1,34.3c-17.5,10.2-36.7,18.6-57.3,25.2
	c-3.1,1-6.3,2.1-9.2,4.1L749,160.3z M737.1,143.5l12.3,10.6c2.9-1.7,5.9-2.8,8.8-3.7c20.2-6.4,39.1-14.7,56.3-24.7
	c16.6-9.7,30.3-20.6,42-33.4c1.1-1.2,2.2-2.4,3.2-3.7c0.1-0.1,0.2-0.2,0.3-0.4l-8.7-13.8c-0.3,0.4-0.6,0.7-0.9,1.1
	c-1.8,2.1-3.7,4.2-5.7,6.3c-5.7,5.9-12.3,11.6-20.9,17.8c-18.4,13.5-36.9,23.3-56.5,30.1c-1.9,0.6-3.8,1.2-5.7,1.8
	c-0.9,0.3-1.8,0.5-2.8,0.8l-3.2,1l0-25.8c0-24.8,0-49.5,0-74.3c0-2.9,0.3-5.9,0.5-8.7l0.1-1.5c0.1-1.7,0.3-3.4,0.6-5.1h-19.5
	c0.2,1.4,0.4,2.8,0.5,4.2c0.1,0.9,0.2,1.7,0.3,2.6c0.3,2.8,0.6,5.8,0.6,8.7c0.1,32.5,0,65.6,0,97.6l0,3.2c0,1.4,0,3.2-0.4,5
	c-0.3,1.4-0.7,2.8-1.1,4.1C737.1,143.4,737.1,143.4,737.1,143.5z M489.9,160l-1.6-2.2c-11.7-15.7-25.7-31.4-44-49.2
	c-0.6,0.5-1.1,1-1.7,1.6c-8.1,8.2-16.6,15.7-25,22.4c-11.2,8.8-21.1,15.4-31.1,20.8c-1.8,1-3.7,1.9-5.5,2.8c-1,0.5-2.1,1-3.1,1.5
	c-2,1-3.4,0-4.1-0.6c-3.9-4.1-7.9-8.2-11.8-12.3l-4.2-4.3c-0.4-0.4-0.5-0.7-0.6-0.9l-1.2-2.4l4.2-1.7c1.2-0.5,2.4-1,3.6-1.5
	c10.8-4.6,21.5-10.7,32.9-18.7c10.2-7.2,20-15.5,28.9-24.6c10.6-10.7,19.7-23.3,27-37.4c1.8-3.4,3.2-6.6,4.3-9.7
	c-4.8,0-9.6,0-14.4,0c-14.9,0-30.4,0-45.6,0c-3.4,0-6.8,0.3-10.1,0.5c-1.6,0.1-3.2,0.2-4.8,0.3l-7.6,0.4V16.7l2.7,0.2
	c0.9,0.1,1.8,0.1,2.7,0.2c2,0.2,3.9,0.3,5.9,0.4l2.1,0.1c2.8,0.2,5.8,0.4,8.6,0.4c27,0.1,47.6,0.1,66.9,0c4.4,0,9.6-0.2,14.6-1.7
	c1-0.3,2.2-0.1,3.1,0.5c3.9,2.9,7.8,5.8,11.6,8.8l0.9,0.7c0.5,0.4,0.7,0.9,0.8,1.1l0.7,1.3l-0.8,1.2c-0.2,0.3-0.4,0.7-0.6,1
	c-0.5,0.8-1,1.7-1.6,2.5c-1.7,2.5-2.9,5.3-4.2,8.3c-0.4,1-0.9,2.1-1.4,3.1c-7.7,16.9-16,31.2-25.1,43.6c16.9,15.1,33,31.7,49,50.5
	l1.6,1.9L489.9,160z M363.7,139.5l1.8,1.9c3.7,3.8,7.4,7.6,11,11.4c0.7-0.4,1.5-0.7,2.2-1.1c1.8-0.9,3.6-1.8,5.4-2.7
	c9.8-5.2,19.4-11.6,30.4-20.3c8.3-6.6,16.6-14,24.6-22c0.8-0.8,1.6-1.5,2.4-2.3c0.4-0.3,0.8-0.7,1.2-1.1l1.7-1.6l1.7,1.6
	c18.4,17.9,32.7,33.6,44.6,49.3l14.4-12.4c-15.9-18.5-31.8-34.8-48.6-49.7l-1.4-1.2l0.8-1.7c0.1-0.1,0.2-0.4,0.4-0.7
	c9.4-12.5,17.9-27,25.8-44.3c0.5-1,0.9-2,1.3-3c1.3-3,2.7-6.2,4.6-9.1c0.3-0.5,0.7-1,1-1.5c-3.4-2.6-6.9-5.2-10.3-7.8
	c-5.4,1.5-10.7,1.7-15.3,1.7c-19.3,0.1-40,0.1-67,0c-3,0-6-0.2-8.9-0.4l-2.1-0.1c-2-0.1-4-0.3-5.9-0.4v17.6l2.3-0.1
	c1.6-0.1,3.1-0.2,4.7-0.3c3.4-0.2,7-0.5,10.5-0.5c15.2-0.1,30.6-0.1,45.6,0c5.6,0,11.2,0,16.8,0h4.2l-0.8,3.3
	c-0.1,0.2-0.1,0.4-0.2,0.6c-1.3,4.1-3.1,8.4-5.5,13.1c-7.6,14.6-17,27.5-27.9,38.6c-9.1,9.3-19.1,17.7-29.6,25.1
	c-11.7,8.2-22.7,14.5-33.8,19.2C365,138.9,364.4,139.2,363.7,139.5z M490.5,30.3C490.5,30.3,490.6,30.3,490.5,30.3L490.5,30.3z
	 M479.3,21.2C479.3,21.2,479.3,21.2,479.3,21.2C479.3,21.2,479.3,21.2,479.3,21.2z M1154.8,159.9c-0.9,0-1.7-0.4-2.2-0.9
	c-3.9-3.3-7.9-6.6-12.2-10.1c-1.1-0.9-1.6-2.2-1.3-3.7c0.8-3.8,1.1-7.8,1.1-12.8c0-34.4,0-68.8,0-103.2c0-4.9-0.4-9.4-1.1-13.8
	c0-0.3-0.1-0.6-0.1-0.9l-0.2-2.9h29.3l-0.5,5c-0.2,1.7-0.4,3.3-0.5,5c-0.2,1.9-0.3,3.5-0.3,5.2c0,26.9,0,53.8,0,80.7v13.9
	c16.4-8.7,30.2-20.8,42-37l2.1-2.8l15.4,22.2l-1.3,1.5c-0.8,0.9-1.5,1.8-2.3,2.7c-1.6,1.9-3.3,4-5.1,5.9
	c-15.1,16.3-33.2,30-53.8,40.8c-1.7,0.9-3.4,2.1-5.1,3.3c-0.6,0.4-1.2,0.8-1.7,1.3C1156.2,159.6,1155.4,159.9,1154.8,159.9z
	 M1144.1,145.4c3.8,3.1,7.4,6.1,10.8,9c0.3-0.2,0.6-0.4,0.9-0.6c1.8-1.3,3.6-2.7,5.7-3.7c20.1-10.5,37.7-23.9,52.4-39.8
	c1.7-1.8,3.3-3.8,4.9-5.7c0.3-0.4,0.7-0.8,1-1.3l-9.2-13.3c-12.7,16.7-27.6,29-45.4,37.6l-3.6,1.7v-22c0-26.9,0-53.8,0-80.7
	c0-2,0.2-4,0.3-5.6c0.1-1.5,0.3-3,0.5-4.6h-18.2c0.6,4,0.8,8.2,0.8,12.6c0,34.4,0,68.8,0,103.2
	C1145.1,137.4,1144.8,141.6,1144.1,145.4z M1078.2,159.7c-0.7,0-1.3-0.2-2-0.6c-4.6-3.1-9.2-6.2-13.8-9.2l-4.7-3.1
	c-0.2-0.1-0.4-0.3-0.5-0.4l-0.1-0.1l-2.4-1.9l2.4-1.9c0.7-0.5,1.3-1,2-1.6c1.4-1.1,2.8-2.2,4.1-3.3c6.8-5.8,12.5-13.2,17.5-22.6
	c4-7.6,6.6-14.5,7.9-21.3c0.6-3.1,1.1-6.5,1.6-10.8c0.5-4.3,0.8-8.6,1.1-12.6c0.2-3,0.4-6.9,0.5-10.8c0.1-8.7,0.3-20.3,0.3-32
	c0-3.5-0.4-7.2-1.4-11.6l0,0c0-0.2-0.1-0.4-0.1-0.6l-0.5-3.1h29.2l-0.3,2.7c-0.1,0.7-0.1,1.4-0.2,2.1c-0.2,1.5-0.3,3.1-0.5,4.7
	l-0.1,0.7c-0.2,2-0.3,4.1-0.4,6.2c0,2.5,0,5.1-0.1,7.7c0,3.4,0,6.8-0.1,10.3c-0.2,7.6-0.5,15.8-0.9,25c-0.2,3.7-0.4,7.5-0.7,11.1
	c-0.1,1.3-0.2,2.6-0.3,3.8c-1.7,25.1-11.3,47.1-28.3,65.4c-1.5,1.7-3.2,3.2-4.8,4.7c-0.8,0.7-1.5,1.5-2.3,2.2
	C1079.9,159.4,1079,159.7,1078.2,159.7z M1062.9,144.1l2.3,1.6c4.2,2.8,8.5,5.7,12.7,8.5c0.5-0.5,1-0.9,1.5-1.4
	c1.5-1.5,3.1-3,4.6-4.5c16.2-17.4,25.3-38.4,27-62.4c0.1-1.3,0.2-2.6,0.3-3.9c0.3-3.6,0.5-7.3,0.7-10.9c0.4-9.2,0.7-17.4,0.9-24.9
	c0.1-3.4,0.1-6.8,0.1-10.2c0-2.6,0-5.1,0.1-7.7c0-2.2,0.2-4.4,0.4-6.5l0.1-0.7c0.1-1.4,0.3-2.8,0.4-4.1h-17.8c0.7,3.8,1,7.1,1,10.4
	c0,11.8-0.2,23.3-0.3,32.1c-0.1,4-0.3,8-0.5,11.1c-0.3,4-0.6,8.4-1.1,12.8c-0.5,4.4-1,8-1.6,11.2c-1.4,7.2-4.2,14.6-8.4,22.7
	c-5.3,10-11.4,17.8-18.6,24C1065.3,142.2,1064.1,143.2,1062.9,144.1z M1026,152l-1.8-2.3c-0.4-0.5-0.8-1-1.2-1.5c-0.8-1-1.6-2-2.4-3
	c-3.3-4-6.6-8-9.9-11.9c-8-9.6-16.3-19.6-24.6-29.2c-7.2-8.3-14.7-16.5-22-24.5c-2.4-2.7-4.9-5.3-7.3-8c-1.8-2-3.8-4-5.9-5.8
	c-1-0.8-2.3-1.5-3.3-1.9c-0.5-0.2-1.1-0.3-2.5,0.6c-1.8,1.2-3.3,2.9-4.9,5.1l-5.4,7.1c-5.9,7.8-11.9,15.8-17.8,23.7
	c-3.5,4.7-6.9,9.5-10.2,14.2c-1.5,2.2-3.1,4.3-4.6,6.5c-0.1,0.2-0.2,0.3-0.4,0.5l-0.1,0.1l-1.8,2L877,100l2-1.7
	c0.8-0.7,1.5-1.3,2.3-2c1.6-1.4,3.2-2.8,4.7-4.2c6.5-6,12.9-12.9,20.2-21.7c8.1-9.8,15.3-18.5,22-26.4c3.3-4,6.9-6.8,10.9-8.7
	c5.6-2.6,11.3-2.3,17.1,0.9c3.7,2,6.8,4.8,9.8,7.5c7.8,7,15.1,14.7,22.1,22.1l0.9,0.9c9.2,9.7,18.4,19.5,27.8,29.6
	c6.8,7.3,13.6,14.6,20.4,22l7.9,8.5c0.2,0.2,0.4,0.4,0.6,0.6l1.7,2L1026,152z M947.1,58.9c0.9,0,1.7,0.2,2.5,0.5
	c1.3,0.5,3.1,1.4,4.6,2.7c2.2,1.9,4.4,4,6.3,6.2c2.4,2.7,4.9,5.3,7.3,8c7.3,8,14.9,16.3,22.1,24.6c8.3,9.7,16.6,19.6,24.6,29.3
	c3.3,4,6.6,8,9.9,11.9c0.6,0.7,1.2,1.5,1.8,2.3l14.1-15.2l-7.1-7.6c-6.8-7.3-13.6-14.7-20.4-22c-9.4-10-18.5-19.8-27.7-29.5
	l-0.9-0.9c-6.9-7.3-14.1-14.9-21.7-21.7c-3-2.7-5.7-5.1-8.9-6.9c-4.3-2.4-8.5-2.6-12.6-0.7c-3.3,1.6-6.3,4-9.2,7.4
	c-6.7,8-13.9,16.6-22,26.4c-7.5,9-14,16.1-20.7,22.2c-1.6,1.4-3.2,2.9-4.8,4.3c-0.1,0.1-0.2,0.2-0.3,0.2l15.4,15.9
	c1-1.5,2.1-2.9,3.1-4.4c3.3-4.7,6.8-9.5,10.3-14.2c5.9-8,12-16,17.8-23.8l5.4-7.1c1.6-2.1,3.5-4.5,6.2-6.3
	C944,59.4,945.6,58.9,947.1,58.9z M152.9,131.6l-2-1.6c-16.9-13.7-41.6-27.3-41.9-27.5l-2.7-1.5l16.2-18.7l1.5,0.4
	c3,0.8,11.3,5.5,24.4,13.7c20,12.5,20,12.7,19.9,14.3l0,1.9l-1.1,0.3c-1.8,2.3-8.6,11-12.8,16.6L152.9,131.6z M114.2,99.7
	c6.6,3.8,24.2,14.1,37.9,24.9c5.4-7.1,8.5-11,10.2-13.2c-7.3-4.9-30.7-19.9-38.1-23.2L114.2,99.7z M1000.6,64.9l-1.1-2.1
	c-0.7-1.3-1.4-2.7-2-4c-4.4-8.8-8.5-17.1-14.3-24.7l-1.9-2.6l4.5-1.9c1.1-0.5,2.2-0.9,3.4-1.4c2.7-1.1,5.3-2.2,8-3.3l0.5-0.2
	c2.5-1,3.8,0.5,4.3,1.2c4.9,7.4,11.2,17.3,16.3,27.9c0.1,0.2,0.2,0.4,0.3,0.7l0.9,2.4L1000.6,64.9z M989.2,33.7
	c5.1,7.3,9,15.2,12.9,22.9c0.3,0.6,0.6,1.3,1,1.9l10-4.3c-4.6-9.1-10-17.7-14.4-24.4c-2.5,1-4.9,2.1-7.4,3.1
	C990.5,33.1,989.8,33.4,989.2,33.7z M1025.4,55.2l-1.1-2.2c-5.5-10.8-11.1-20-17-28l-1.8-2.5l11.1-5.2c1.5-0.7,3.1-1.4,4.6-2.2
	c1.8-0.9,3.6-0.4,4.7,1.2c1.1,1.7,2.2,3.4,3.3,5.1c2.1,3.2,4.2,6.4,6.3,9.7c1.8,2.8,3.5,5.8,5.2,8.6c0.8,1.3,1.5,2.6,2.3,4l1.4,2.3
	L1025.4,55.2z M1013,24.4c5,7.1,9.8,15,14.6,24.1l9.7-4.7c-0.3-0.5-0.6-1.1-1-1.6c-1.7-2.9-3.3-5.7-5.1-8.5c-2-3.2-4.2-6.5-6.2-9.6
	c-0.9-1.4-1.8-2.7-2.7-4.1c-1.2,0.6-2.5,1.2-3.6,1.7L1013,24.4z"/>
</svg>
