<?xml version="1.0" encoding="utf-8"?>
<!-- Generator: Adobe Illustrator 27.9.1, SVG Export Plug-In . SVG Version: 6.00 Build 0)  -->
<svg version="1.1" id="Layer_1" xmlns="http://www.w3.org/2000/svg" xmlns:xlink="http://www.w3.org/1999/xlink" x="0px" y="0px"
	 viewBox="0 0 261.1 33.5" style="enable-background:new 0 0 261.1 33.5;" xml:space="preserve">
<style type="text/css">
	.st0{fill:#282828;}
</style>
<g>
	<path class="st0" d="M24.5,17.6l-2.8,3.2c1.1,0.6,2.2,1.2,3.1,1.8c1,0.6,1.9,1.2,2.9,1.9c1,0.7,2,1.4,3.1,2.3l2.8-3.7
		c-1.2-0.8-2.3-1.5-3.2-2.1c-0.9-0.6-1.8-1.1-2.8-1.7C26.7,18.8,25.7,18.2,24.5,17.6z M32.2,23.3l-1.6,2.1c-0.8-0.6-1.6-1.2-2.3-1.7
		c-1-0.7-2-1.3-2.9-1.9c-0.7-0.4-1.4-0.8-2.1-1.2l1.5-1.7c0.9,0.5,1.7,0.9,2.4,1.3c0.9,0.5,1.8,1.1,2.7,1.6
		C30.6,22.3,31.3,22.8,32.2,23.3z"/>
	<path class="st0" d="M8.5,24.4c1.9-0.7,3.6-1.5,5.3-2.4c0.3-0.1,0.5-0.3,0.8-0.4c0,0.6,0,1.2,0,1.8c0,0.9,0,1.9,0,2.8
		c0,0.9,0,1.7,0,2.5c0,0.5,0,1,0,1.6c0,0.6-0.1,1.2-0.1,1.7s-0.1,1-0.1,1.4h4.9c0-0.4-0.1-0.9-0.1-1.4c-0.1-0.5-0.1-1.1-0.1-1.7
		c0-0.6,0-1.1,0-1.6c0-0.8,0-1.7,0-2.7c0-1.1,0-2.1,0-3.3s0-2.2,0-3.2c0-0.2,0-0.4,0-0.5c1-0.7,1.9-1.4,2.8-2.2
		c1.1-0.9,2.1-1.9,3-2.8c0.9-0.9,1.7-1.8,2.4-2.6c0.4-0.4,0.8-0.9,1.3-1.5c0.5-0.5,1-1,1.4-1.5l-2.8-2.7c-0.4,0.1-0.9,0.2-1.4,0.2
		c-0.5,0.1-1,0.1-1.6,0.1c-0.4,0-1,0-1.8,0c-0.8,0-1.8,0-3,0c-0.1,0-0.2,0-0.2,0c0-0.3,0-0.5,0-0.8c0-0.5,0-0.9,0-1.3
		c0-0.6,0-1.2,0.1-1.8c0.1-0.6,0.1-1.2,0.2-1.6h-4.9c0.1,0.4,0.1,1,0.2,1.6c0,0.6,0,1.3,0,1.9c0,0.4,0,0.9,0,1.4c0,0.3,0,0.5,0,0.7
		c-0.8,0-1.6,0-2.3,0c-1.1,0-2,0-2.9,0c-0.8,0-1.4,0-1.6,0c-0.7,0-1.5,0-2.4-0.1C4.5,5.8,3.7,5.8,3,5.7v4.5c0.4,0,0.9-0.1,1.5-0.1
		c0.6,0,1.2,0,1.8-0.1c0.6,0,1.1,0,1.6,0c0.3,0,0.8,0,1.5,0c0.7,0,1.5,0,2.5,0c1,0,2,0,3,0s2.1,0,3.1,0c1,0,1.9,0,2.6,0
		c0.8,0,1.3,0,1.6,0c-0.4,0.5-0.9,1.1-1.6,1.8c-0.7,0.7-1.5,1.4-2.3,2.1s-1.8,1.4-2.8,2.1c-1.7,1.1-3.8,2.2-6.3,3.4
		c-2.5,1.2-5.6,2.2-9.2,3l2.6,4C4.6,25.8,6.6,25.1,8.5,24.4z M9.6,20.3c2.5-1.2,4.7-2.3,6.4-3.4c1.1-0.7,2-1.4,2.9-2.2
		c0.9-0.7,1.7-1.5,2.4-2.2c0.7-0.7,1.3-1.4,1.7-2L24.2,9H7.9c-0.4,0-1,0-1.6,0C5.7,9,5.1,9,4.5,9.1c-0.2,0-0.3,0-0.4,0V6.8
		c0.4,0,0.9,0.1,1.4,0.1c0.9,0,1.7,0.1,2.4,0.1h7.8V3.8c0-0.6,0-1.3,0-1.9c0-0.2,0-0.4,0-0.6h2.6c0,0.2,0,0.3,0,0.5
		c-0.1,0.7-0.1,1.3-0.1,1.9v3.1h6.1c0.6,0,1.1,0,1.7-0.1c0.3,0,0.6-0.1,0.9-0.1l1.7,1.7c-0.2,0.2-0.5,0.5-0.7,0.8
		c-0.5,0.6-0.9,1-1.3,1.5c-0.7,0.8-1.5,1.6-2.4,2.5c-0.9,0.9-1.9,1.8-3,2.8c-0.8,0.7-1.7,1.4-2.7,2.1L18,18.3v10.3c0,0.5,0,1,0,1.6
		c0,0.6,0,1.2,0.1,1.7c0,0.1,0,0.2,0,0.3h-2.7c0-0.1,0-0.2,0-0.3c0-0.5,0.1-1.1,0.1-1.7c0-0.6,0-1.2,0-1.7v-8.7L14,20.8
		c-0.2,0.1-0.4,0.2-0.7,0.4c-1.6,0.8-3.4,1.6-5.2,2.4c-1.6,0.6-3.3,1.2-5.1,1.8l-1.4-2.2C4.7,22.3,7.4,21.4,9.6,20.3z"/>
	<path class="st0" d="M42.4,18.9c1.9-1.3,3.6-2.7,5.2-4.2c1.6-1.5,3-3.1,4.2-4.8c0.1-0.1,0.1-0.2,0.2-0.2h11.3
		c-0.2,1-0.6,2.1-1.1,3.4c-0.5,1.3-1.2,2.6-2,3.9c-0.8,1.3-1.6,2.5-2.5,3.5c-1.1,1.3-2.4,2.5-3.8,3.6c-1.4,1.1-3,2.2-4.9,3.2
		c-1.9,1-4.1,1.9-6.6,2.6l4,3.6c3.6-1.4,6.6-3,9-4.7c2.4-1.8,4.5-3.7,6.3-5.9c1.1-1.4,2.1-2.9,3-4.4c0.9-1.5,1.6-3,2.2-4.5
		c0.6-1.5,1.1-2.8,1.4-3.9c0.2-0.5,0.3-0.9,0.6-1.4c0.2-0.5,0.4-0.8,0.6-1.2L66,5.4c-0.4,0.2-0.8,0.3-1.4,0.3
		c-0.5,0.1-1.1,0.1-1.7,0.1c-0.2,0-0.7,0-1.4,0c-0.7,0-1.6,0-2.5,0c-1,0-1.9,0-2.9,0c-0.5,0-1,0-1.5,0c0.1-0.2,0.2-0.4,0.4-0.6
		c0.2-0.4,0.5-0.9,0.9-1.6c0.4-0.7,0.8-1.4,1.2-2l-5-1.6c-0.2,0.6-0.4,1.3-0.7,2c-0.3,0.7-0.6,1.3-0.9,1.7c-0.5,0.8-1,1.8-1.7,2.8
		c-0.7,1-1.5,2.1-2.5,3.2c-1,1.1-2.1,2.2-3.3,3.3c-1.3,1.1-2.7,2.2-4.4,3.2L42.4,18.9z M43.6,13.7c1.3-1.1,2.5-2.3,3.4-3.4
		c1-1.1,1.8-2.2,2.5-3.3c0.7-1,1.3-2,1.8-2.9c0.3-0.4,0.6-1,0.9-1.8c0.2-0.4,0.3-0.8,0.4-1.1l2.8,0.9c-0.2,0.3-0.4,0.6-0.5,0.9
		c-0.4,0.7-0.7,1.3-0.9,1.7c-0.1,0.1-1.2,2.1-1.2,2.1h10.1c0.6,0,1.2,0,1.8-0.1c0.4-0.1,0.8-0.1,1.1-0.2l2.3,1.4
		C68.1,8,68.1,8.2,68,8.3c-0.2,0.5-0.4,1-0.6,1.5c-0.3,1.1-0.8,2.4-1.4,3.8c-0.6,1.4-1.3,2.9-2.2,4.4c-0.8,1.5-1.8,2.9-2.9,4.3
		c-1.7,2.1-3.8,4-6.1,5.7c-2.2,1.6-4.9,3.1-8.2,4.4l-2.2-2c1.9-0.6,3.6-1.4,5.1-2.2c1.9-1,3.6-2.1,5.1-3.3c1.4-1.2,2.8-2.4,3.9-3.8
		c0.9-1.1,1.8-2.3,2.6-3.6c0.8-1.3,1.5-2.7,2-4c0.6-1.3,1-2.6,1.2-3.6l0.2-1.2h-13L51,9.3c-1.2,1.6-2.6,3.2-4.1,4.7
		c-1.4,1.3-2.9,2.6-4.5,3.7l-2.1-1.5C41.6,15.4,42.7,14.5,43.6,13.7z"/>
	<path class="st0" d="M84.9,29.3c1.9-1.3,3.7-2.7,5.4-4.3c1.2-1,2.3-2.1,3.3-3.2c0.9,0.9,1.9,1.8,2.8,2.7c1.3,1.4,2.6,2.8,3.8,4.2
		c1.2,1.4,2.3,2.7,3.2,4l3.9-3.3c-0.6-0.8-1.4-1.7-2.3-2.7c-0.9-1-1.9-2.1-3-3.2c-1.1-1.1-2.2-2.2-3.3-3.2c-0.7-0.7-1.4-1.3-2.1-1.9
		c0.5-0.7,1-1.4,1.5-2.1c1-1.5,1.8-3,2.6-4.5c0.8-1.5,1.4-2.8,1.9-4c0.2-0.4,0.4-0.8,0.6-1.2c0.3-0.4,0.5-0.7,0.6-0.9L101,3.5
		c-0.4,0.1-0.8,0.2-1.5,0.3c-0.6,0.1-1.3,0.1-2.1,0.1c-0.3,0-0.8,0-1.4,0s-1.5,0-2.4,0c-0.9,0-1.9,0-2.9,0c-1,0-2,0-2.9,0
		c-1,0-1.8,0-2.5,0c-0.7,0-1.2,0-1.5,0c-0.4,0-0.8,0-1.4,0c-0.6,0-1.1-0.1-1.7-0.1c-0.5,0-1-0.1-1.3-0.1v4.9c0.3,0,0.6,0,1.1-0.1
		c0.5,0,1-0.1,1.6-0.1c0.6,0,1.1-0.1,1.6-0.1c0.3,0,0.7,0,1.4,0c0.7,0,1.5,0,2.4,0s1.9,0,2.9,0c1,0,2,0,2.9,0c0.9,0,1.7,0,2.4,0
		s1.2,0,1.4,0c-0.3,0.9-0.7,2-1.3,3.1c-0.6,1.1-1.3,2.3-2.1,3.4c-0.8,1.1-1.6,2.2-2.5,3.1c-1.2,1.4-2.6,2.7-4.3,4.1
		c-1.6,1.4-3.4,2.7-5.4,3.9c-1.9,1.2-3.9,2.2-6,3l3.5,3.6C81.1,31.7,83.1,30.6,84.9,29.3z M82.1,26.8c2-1.2,3.8-2.6,5.5-4
		s3.2-2.8,4.4-4.2c0.9-1,1.7-2.1,2.5-3.2c0.8-1.2,1.5-2.3,2.1-3.5c0.6-1.2,1.1-2.3,1.4-3.3l0.4-1.3H83.7c-0.5,0-1.1,0-1.7,0.1
		c-0.6,0-1.1,0.1-1.6,0.1c0,0,0,0,0,0V4.8c0.1,0,0.1,0,0.2,0c0.6,0,1.1,0.1,1.7,0.1c0.6,0,1.1,0,1.5,0h13.8c0.8,0,1.6,0,2.2-0.1
		c0.4-0.1,0.8-0.1,1.2-0.2l1.6,1.2L102.4,6c-0.3,0.5-0.5,0.9-0.7,1.4c-0.5,1.1-1.1,2.5-1.9,3.9c-0.8,1.5-1.6,2.9-2.6,4.4
		c-0.5,0.7-1,1.4-1.5,2.1l-0.6,0.8l0.7,0.6c0.8,0.7,1.4,1.2,2,1.8c1.1,1,2.2,2.1,3.3,3.2c1.1,1.1,2.1,2.2,3,3.2
		c0.6,0.7,1.2,1.3,1.7,1.9l-2.3,2c-0.8-1-1.6-2.1-2.6-3.2c-1.2-1.4-2.5-2.8-3.9-4.2c-0.8-0.9-1.7-1.7-2.8-2.8l-0.7-0.7l-0.7,0.7
		c-1,1.1-2.1,2.1-3.2,3.1c-1.7,1.5-3.4,2.9-5.3,4.2c-1.6,1.1-3.3,2.1-5,2.9l-2-2.1C79,28.6,80.6,27.8,82.1,26.8z"/>
	<path class="st0" d="M212.7,10.3c0.4,0.7,0.7,1.4,1.1,2.2l3.1-1.3c-0.3-0.6-0.6-1.3-1.1-2c-0.4-0.7-0.9-1.5-1.3-2.2
		c-0.4-0.7-0.8-1.3-1.2-1.8l-3,1.3c0.5,0.6,0.9,1.2,1.3,1.9C211.9,8.9,212.3,9.6,212.7,10.3z M212.9,6.3c0.2,0.3,0.5,0.7,0.7,1.1
		c0.4,0.7,0.9,1.4,1.3,2.2c0.2,0.4,0.4,0.7,0.6,1l-1.2,0.5c-0.2-0.5-0.5-0.9-0.7-1.4c-0.4-0.7-0.8-1.4-1.1-2.1
		c-0.2-0.3-0.4-0.7-0.6-1L212.9,6.3z"/>
	<path class="st0" d="M217.8,8.2c0.4,0.7,0.8,1.4,1.2,2.2l3-1.4c-0.3-0.6-0.7-1.2-1.1-1.9c-0.4-0.7-0.9-1.5-1.3-2.2
		c-0.5-0.7-0.9-1.3-1.3-1.8l-2.9,1.4c0.5,0.6,0.9,1.2,1.3,1.9C217,6.9,217.4,7.5,217.8,8.2z M218,4.3c0.2,0.3,0.5,0.7,0.7,1.1
		c0.5,0.7,0.9,1.4,1.3,2.2c0.2,0.3,0.4,0.7,0.6,1l-1.2,0.6c-0.2-0.5-0.5-0.9-0.7-1.3c-0.4-0.7-0.8-1.4-1.2-2
		c-0.2-0.3-0.4-0.6-0.6-0.9L218,4.3z"/>
	<path class="st0" d="M244.1,10.8c0,1.3,0,2.6,0,4c0,1.4,0,2.9,0,4.3c0,1.4,0,2.7,0,3.9c0,1.2,0,2.2,0,3.1c0,0.8,0,1.4,0,1.7
		c0,0.5,0,0.9-0.1,1.4c-0.1,0.5-0.1,0.9-0.2,1.2l2.9,2.4c0.2-0.1,0.3-0.3,0.6-0.5c0.2-0.2,0.6-0.4,0.9-0.6c1.5-0.7,3-1.6,4.6-2.7
		c1.6-1.1,3.1-2.3,4.6-3.6c1.5-1.3,2.7-2.7,3.8-4.1l-2.6-3.7c-0.9,1.3-1.9,2.5-3,3.6c-1.1,1.1-2.3,2.1-3.5,2.9
		c-1.2,0.8-2.3,1.5-3.4,2c0-0.3,0-0.8,0-1.6c0-0.8,0-1.7,0-2.8c0-1.1,0-2.3,0-3.6c0-1.3,0-2.6,0-3.9c0-1.3,0-2.5,0-3.7
		c0-1.2,0-2.2,0-3c0-0.9,0-1.5,0-1.9c0-0.8,0-1.6,0.1-2.1c0.1-0.6,0.1-0.9,0.1-1h-5.1c0,0.1,0.1,0.5,0.2,1c0.1,0.6,0.1,1.3,0.1,2.1
		c0,0.4,0,1.1,0,2C244.1,8.5,244.1,9.6,244.1,10.8z M245,3.3h2.8c-0.1,0.6-0.1,1.4-0.1,2.2v22l1.4-0.6c1.1-0.5,2.3-1.2,3.6-2.1
		c1.2-0.8,2.4-1.9,3.6-3c0.8-0.8,1.6-1.7,2.3-2.6l1.4,2c-0.9,1.1-2,2.3-3.2,3.4c-1.4,1.3-2.9,2.5-4.5,3.5c-1.5,1-3,1.9-4.4,2.6
		c-0.5,0.3-0.8,0.5-1.1,0.7l-1.8-1.5c0-0.2,0.1-0.5,0.1-0.7c0.1-0.5,0.1-1,0.1-1.5V5.5C245.1,4.7,245.1,3.9,245,3.3z"/>
	<path class="st0" d="M234.6,27.8c1.2-1.8,2-3.8,2.6-5.9c0.3-1,0.5-2.1,0.6-3.5c0.1-1.4,0.2-2.8,0.3-4.4c0.1-1.5,0.1-3.1,0.2-4.5
		c0-1.5,0-2.8,0-3.9c0-0.5,0-1,0.1-1.4c0-0.5,0.1-0.9,0.1-1.2s0.1-0.6,0.1-0.6h-5c0.1,0.5,0.2,0.9,0.2,1.5c0.1,0.5,0.1,1.1,0.1,1.8
		c0,1.1,0,2.4,0,3.8c0,1.4-0.1,2.8-0.1,4.2c-0.1,1.4-0.2,2.7-0.3,4c-0.2,1.2-0.4,2.3-0.6,3.1c-0.5,1.7-1.3,3.3-2.4,5
		c-1.1,1.6-2.4,3-4.1,4.2l4.1,2.8C232.1,31.3,233.4,29.7,234.6,27.8z M228,29.9c1.2-1,2.3-2.3,3.2-3.6c1.1-1.7,2-3.5,2.5-5.2
		c0.3-0.9,0.5-2,0.7-3.3c0.2-1.3,0.3-2.6,0.3-4.1c0.1-1.4,0.1-2.9,0.1-4.3c0-1.4,0-2.7,0-3.8c0-0.7,0-1.4-0.1-2c0-0.1,0-0.2,0-0.3
		h2.7c0,0.2,0,0.5-0.1,0.7c0,0.5-0.1,1-0.1,1.5c0,1.1,0,2.4,0,3.9c0,1.5-0.1,3-0.2,4.5c-0.1,1.5-0.2,3-0.3,4.3
		c-0.1,1.3-0.3,2.4-0.6,3.3c-0.5,2-1.4,3.9-2.5,5.7c-1,1.5-2.1,2.9-3.4,4.2L228,29.9z"/>
	<path class="st0" d="M133.8,18.8c1.4,0.5,2.7,1.1,4,1.7c1.3,0.6,2.5,1.2,3.6,1.7l1.9-4.7c-1-0.5-2.1-1-3.6-1.6
		c-1.4-0.6-2.9-1.2-4.5-1.7c-1.6-0.6-3.2-1.1-4.7-1.7c-1.2-0.4-2.2-0.7-3.2-1c0-0.9,0-1.8,0-2.7c0-1.3,0-2.3,0-3
		c0-0.7,0-1.5,0.1-2.3c0.1-0.8,0.2-1.5,0.2-2.1h-5.3c0.1,0.6,0.2,1.4,0.3,2.2c0.1,0.8,0.1,1.6,0.1,2.2c0,0.5,0,1.4,0,2.5
		c0,1.2,0,2.5,0,4c0,1.5,0,3,0,4.7c0,1.6,0,3.1,0,4.6c0,1.5,0,2.7,0,3.8s0,1.9,0,2.3c0,0.8,0,1.6-0.1,2.6c-0.1,1-0.1,1.8-0.2,2.5
		h5.3c-0.1-0.5-0.1-1.1-0.2-1.7s-0.1-1.3-0.1-1.9c0-0.6,0-1.1,0-1.5c0-0.4,0-1.1,0-2.1c0-1,0-2.2,0-3.6c0-1.4,0-2.8,0-4.4
		c0-0.4,0-0.7,0-1.1c0.8,0.3,1.6,0.5,2.5,0.8C131.1,17.7,132.4,18.2,133.8,18.8z M126.3,15.1l0,2.5c0,1.5,0,3,0,4.4v5.8
		c0,0.4,0,0.9,0,1.5c0,0.6,0.1,1.3,0.1,1.9c0,0.2,0,0.4,0.1,0.7h-3.1c0-0.4,0.1-0.9,0.1-1.4c0.1-1,0.1-1.9,0.1-2.6V5.8
		c0-0.7,0-1.4-0.1-2.3c0-0.4-0.1-0.8-0.1-1.1h3c0,0.3-0.1,0.7-0.1,1c-0.1,0.8-0.1,1.6-0.1,2.4v6.5l0.7,0.2c1,0.3,2,0.6,3.2,1
		c1.5,0.5,3.1,1.1,4.7,1.6c1.6,0.6,3.1,1.2,4.5,1.7c1,0.4,1.9,0.8,2.7,1.2l-1.2,2.8c-0.8-0.4-1.7-0.8-2.7-1.3
		c-1.3-0.6-2.7-1.2-4-1.7c-1.4-0.5-2.7-1.1-4-1.5c-0.9-0.3-1.7-0.6-2.5-0.9L126.3,15.1z"/>
	<path class="st0" d="M193.2,23.2c0.4-0.6,0.8-1.2,1.3-1.7c0.4-0.5,0.9-1.1,1.4-1.8c0.5-0.7,1.1-1.4,1.6-2.2
		c0.6-0.7,1.1-1.5,1.6-2.1c0.5-0.7,1-1.3,1.4-1.8c0.6-0.7,1.1-1.1,1.6-1.1c0.5,0,1,0.3,1.7,0.9c0.4,0.4,0.8,0.8,1.4,1.4
		c0.6,0.6,1.2,1.3,1.8,2c0.7,0.7,1.3,1.5,2,2.2c0.7,0.7,1.3,1.5,1.8,2.1c0.8,0.9,1.6,1.8,2.5,3c0.9,1.1,1.9,2.3,2.9,3.4
		c1,1.2,1.9,2.3,2.7,3.4l3.7-4c-1-1-2-2.2-3.1-3.4c-1.1-1.2-2.2-2.4-3.3-3.6c-1.1-1.2-2-2.2-2.9-3.1c-0.7-0.8-1.5-1.7-2.4-2.6
		c-0.9-0.9-1.8-1.8-2.7-2.8c-0.9-0.9-1.8-1.8-2.6-2.5c-1.4-1.3-2.7-1.9-3.8-1.8c-1.1,0.1-2.2,0.9-3.3,2.1c-0.6,0.7-1.3,1.5-2,2.4
		s-1.4,1.7-2,2.5c-0.7,0.8-1.3,1.5-1.8,2.2c-0.6,0.7-1.1,1.2-1.5,1.7c-0.6,0.6-1.1,1-1.5,1.5s-0.9,0.9-1.5,1.3l4.1,4.2
		C192.4,24.4,192.8,23.8,193.2,23.2z M189.5,20.7c0.3-0.2,0.5-0.4,0.7-0.7c0.5-0.4,1-0.9,1.5-1.5c0.5-0.5,1-1.1,1.6-1.7
		c0.6-0.7,1.2-1.4,1.9-2.2c0.7-0.8,1.3-1.6,2-2.5c0.7-0.8,1.3-1.6,2-2.3c0.9-1.1,1.8-1.7,2.7-1.8c0.1,0,0.1,0,0.2,0
		c0.8,0,1.7,0.5,2.8,1.6c0.9,0.8,1.7,1.6,2.6,2.5c0.9,0.9,1.8,1.8,2.7,2.8c0.9,0.9,1.7,1.8,2.4,2.6c0.9,0.9,1.8,2,2.9,3.1
		c1.1,1.2,2.2,2.3,3.3,3.6l2.5,2.7l-2.3,2.5c-0.6-0.8-1.3-1.6-2-2.5c-1-1.2-1.9-2.3-2.9-3.4c-0.9-1.1-1.8-2.1-2.6-3
		c-0.6-0.7-1.2-1.4-1.8-2.1c-0.7-0.7-1.3-1.5-2-2.2c-0.7-0.7-1.3-1.4-1.9-2c-0.6-0.6-1-1.1-1.4-1.5c-0.8-0.8-1.6-1.2-2.3-1.2l-0.2,0
		c-0.7,0.1-1.5,0.5-2.2,1.5c-0.4,0.5-0.9,1.1-1.4,1.8c-0.5,0.7-1.1,1.4-1.6,2.2c-0.6,0.8-1.1,1.5-1.6,2.2c-0.5,0.7-1,1.3-1.4,1.8
		c-0.4,0.6-0.9,1.2-1.3,1.8c-0.2,0.2-0.3,0.4-0.4,0.6L189.5,20.7z"/>
	<path class="st0" d="M156.7,13.2c0,1.4,0,2.9,0,4.4c0,1.5,0,2.9,0,4.2c0,1.3,0,2.5,0,3.5c0,1,0,1.7,0,2.2c0,0.4,0,0.8-0.1,1.2
		c-0.1,0.3-0.2,0.7-0.4,1.2l3.2,2.7c0.4-0.3,0.8-0.5,1.2-0.6c0.4-0.1,0.7-0.2,0.9-0.3c4.6-1.4,8.7-3.3,12.6-5.6c3.8-2.3,7-5,9.6-8.1
		l-2.4-3.8c-1.2,1.5-2.6,2.9-4.2,4.2s-3.3,2.6-5.1,3.7c-1.8,1.1-3.6,2.1-5.4,2.9c-1.8,0.8-3.5,1.4-5.1,1.9c0-0.4,0-0.9,0-1.7
		c0-0.8,0-1.7,0-2.7c0-1,0-2.2,0-3.3c0-1.2,0-2.4,0-3.6s0-2.4,0-3.5c0-1.1,0-2.2,0-3.1c0-0.9,0-1.7,0-2.3c0-0.7,0-1.4,0.1-2.1
		c0.1-0.7,0.1-1.4,0.2-2h-5.4c0.1,0.3,0.1,0.7,0.2,1.2c0.1,0.5,0.1,1,0.2,1.5c0.1,0.5,0.1,1,0.1,1.4c0,0.7,0,1.6,0,2.8
		C156.7,10.5,156.7,11.8,156.7,13.2z M157.6,5.1c0,0-0.2-1.5-0.2-1.6h3c0,0.3-0.1,0.6-0.1,0.9c-0.1,0.7-0.1,1.4-0.1,2.1v21.6
		l1.3-0.3c1.7-0.4,3.4-1.1,5.3-1.9c1.8-0.8,3.7-1.8,5.5-3c1.8-1.1,3.6-2.4,5.2-3.7c1.3-1,2.4-2.2,3.4-3.3l1.3,2.1
		c-2.4,2.8-5.4,5.2-8.8,7.3c-3.7,2.2-7.9,4.1-12.3,5.5c-0.3,0.1-0.6,0.2-0.9,0.3c-0.2,0.1-0.5,0.2-0.7,0.3l-2.1-1.8
		c0.1-0.2,0.1-0.5,0.2-0.7c0.1-0.4,0.1-0.8,0.1-1.3V6.6C157.7,6.1,157.6,5.6,157.6,5.1z"/>
</g>
</svg>
