<?xml version="1.0" encoding="utf-8"?>
<!-- Generator: Adobe Illustrator 27.9.1, SVG Export Plug-In . SVG Version: 6.00 Build 0)  -->
<svg version="1.1" id="Layer_1" xmlns="http://www.w3.org/2000/svg" xmlns:xlink="http://www.w3.org/1999/xlink" x="0px" y="0px"
	 viewBox="0 0 220.4 32.9" style="enable-background:new 0 0 220.4 32.9;" xml:space="preserve">
<style type="text/css">
	.st0{fill:#282828;}
</style>
<g>
	<path class="st0" d="M8.5,24c1.9-0.7,3.6-1.5,5.3-2.4c0.3-0.1,0.5-0.3,0.8-0.4c0,0.6,0,1.2,0,1.8c0,1,0,1.9,0,2.8
		c0,0.9,0,1.7,0,2.5c0,0.5,0,1,0,1.6c0,0.6-0.1,1.2-0.1,1.7c0,0.5-0.1,1-0.1,1.4h4.9c0-0.4-0.1-0.9-0.1-1.4
		c-0.1-0.5-0.1-1.1-0.1-1.7c0-0.6,0-1.1,0-1.6c0-0.8,0-1.7,0-2.7c0-1.1,0-2.1,0-3.3s0-2.2,0-3.2c0-0.2,0-0.4,0-0.5
		c1-0.7,1.9-1.4,2.8-2.2c1.1-1,2.1-1.9,3-2.8c0.9-0.9,1.7-1.8,2.4-2.6c0.4-0.4,0.8-0.9,1.3-1.5c0.5-0.5,1-1,1.4-1.5l-2.8-2.7
		c-0.4,0.1-0.9,0.2-1.4,0.2c-0.5,0.1-1,0.1-1.6,0.1c-0.4,0-1,0-1.8,0c-0.8,0-1.8,0-3,0c-0.1,0-0.2,0-0.2,0c0-0.3,0-0.5,0-0.8
		c0-0.5,0-0.9,0-1.3c0-0.6,0-1.2,0.1-1.8C19.2,1,19.3,0.4,19.3,0h-4.9c0.1,0.4,0.1,1,0.2,1.6c0,0.6,0,1.3,0,1.9c0,0.4,0,0.9,0,1.4
		c0,0.3,0,0.5,0,0.7c-0.8,0-1.6,0-2.3,0c-1.1,0-2,0-2.9,0c-0.8,0-1.4,0-1.6,0c-0.7,0-1.5,0-2.4-0.1C4.5,5.5,3.7,5.4,3,5.3v4.5
		c0.4,0,0.9-0.1,1.5-0.1c0.6,0,1.2,0,1.8-0.1c0.6,0,1.1,0,1.6,0c0.3,0,0.8,0,1.5,0c0.7,0,1.5,0,2.5,0c1,0,2,0,3,0s2.1,0,3.1,0
		c1,0,1.9,0,2.6,0c0.8,0,1.3,0,1.6,0c-0.4,0.5-0.9,1.1-1.6,1.8c-0.7,0.7-1.5,1.4-2.3,2.1s-1.8,1.4-2.8,2.1c-1.7,1.1-3.8,2.2-6.3,3.4
		c-2.5,1.2-5.6,2.2-9.2,3l2.6,4C4.6,25.4,6.6,24.8,8.5,24z M9.6,19.9c2.5-1.2,4.7-2.3,6.4-3.4c1.1-0.7,2-1.4,2.9-2.2
		c0.9-0.7,1.7-1.5,2.4-2.2c0.7-0.7,1.3-1.4,1.7-2l1.1-1.6H7.9c-0.4,0-1,0-1.6,0c-0.6,0-1.2,0-1.8,0.1c-0.2,0-0.3,0-0.4,0V6.4
		c0.4,0,0.9,0.1,1.4,0.1c0.9,0,1.7,0.1,2.4,0.1h7.8V3.5c0-0.6,0-1.3,0-1.9c0-0.2,0-0.4,0-0.6h2.6c0,0.2,0,0.3,0,0.5
		c-0.1,0.7-0.1,1.3-0.1,1.9v3.1h6.1c0.6,0,1.1,0,1.7-0.1c0.3,0,0.6-0.1,0.9-0.1L28.5,8c-0.2,0.2-0.5,0.5-0.7,0.8
		c-0.5,0.5-0.9,1-1.3,1.5C25.8,11,25,11.8,24,12.7c-0.9,0.9-1.9,1.8-3,2.8c-0.8,0.7-1.7,1.4-2.7,2.1L18,17.9v10.3c0,0.5,0,1,0,1.6
		c0,0.6,0,1.2,0.1,1.7c0,0.1,0,0.2,0,0.3h-2.7c0-0.1,0-0.2,0-0.3c0-0.5,0.1-1.1,0.1-1.7c0-0.6,0-1.2,0-1.7v-8.7l-1.5,0.8
		c-0.3,0.2-0.5,0.3-0.8,0.4c-1.6,0.8-3.4,1.6-5.2,2.4c-1.6,0.6-3.3,1.2-5.1,1.8l-1.4-2.2C4.7,21.9,7.4,21,9.6,19.9z"/>
	<path class="st0" d="M24.5,17.2l-2.8,3.2c1.1,0.6,2.2,1.2,3.1,1.8c1,0.6,1.9,1.2,2.9,1.9c1,0.7,2,1.4,3.1,2.3l2.8-3.7
		c-1.2-0.8-2.3-1.5-3.2-2.1c-0.9-0.6-1.8-1.1-2.8-1.7C26.7,18.4,25.7,17.8,24.5,17.2z M32.2,23L30.6,25c-0.8-0.6-1.6-1.2-2.3-1.7
		c-1-0.7-2-1.3-2.9-1.9c-0.7-0.4-1.4-0.8-2.1-1.2l1.5-1.7c0.9,0.5,1.7,0.9,2.4,1.3c0.9,0.5,1.8,1.1,2.7,1.6
		C30.6,21.9,31.3,22.4,32.2,23z"/>
	<path class="st0" d="M87.7,6.1c-0.9-0.8-1.8-1.5-2.7-2.1c-0.9-0.7-1.7-1.2-2.3-1.7l-3.2,3.4c0.7,0.5,1.5,1,2.4,1.7
		c0.9,0.7,1.8,1.5,2.7,2.2c0.9,0.8,1.8,1.5,2.5,2.3c0.8,0.7,1.4,1.4,1.9,1.9l3.5-3.5c-0.5-0.6-1.2-1.2-2.1-2S88.6,6.8,87.7,6.1z
		 M89,12.3c-0.3-0.3-0.7-0.7-1.2-1.2c-0.8-0.8-1.7-1.5-2.6-2.3c-0.9-0.8-1.8-1.5-2.7-2.2c-0.5-0.4-1-0.8-1.5-1.1l1.8-1.9
		c0.5,0.3,1,0.7,1.6,1.2c0.9,0.7,1.8,1.4,2.7,2.1c0.9,0.8,1.8,1.5,2.6,2.2c0.5,0.4,0.9,0.8,1.3,1.2L89,12.3z"/>
	<path class="st0" d="M136.6,2.1c-1,0-2.1,0-3.3,0c-1.2,0-2.5,0-3.7,0c-1.2,0-2.4,0-3.4,0c-1,0-1.7,0-2.2,0c-0.6,0-1.3,0-2,0
		c-0.7,0-1.3-0.1-1.8-0.2v4.4c0.5-0.1,1.1-0.1,1.8-0.1c0.7,0,1.3,0,1.9,0c0.5,0,1.2,0,2.2,0c1,0,2.1,0,3.3,0c1.2,0,2.5,0,3.7,0
		c1.2,0,2.3,0,3.3,0c1,0,1.7,0,2.1,0c0.7,0,1.4,0,2.1,0c0.7,0,1.3,0.1,1.8,0.1V1.9c-0.5,0.1-1.1,0.1-1.9,0.2c-0.7,0-1.4,0-2,0
		C138.3,2.1,137.6,2.1,136.6,2.1z M140.8,3.1c0.3,0,0.6,0,0.8,0v2.3c-0.2,0-0.5,0-0.8,0c-0.7,0-1.5,0-2.2,0H124c-0.6,0-1.2,0-2,0
		c-0.3,0-0.6,0-0.8,0V3c0.2,0,0.5,0,0.8,0c0.7,0,1.4,0,2,0h14.7C139.3,3.1,140,3.1,140.8,3.1z"/>
	<path class="st0" d="M86.6,30.8c1.7-0.6,3.3-1.2,4.8-1.9c1.5-0.7,2.9-1.5,4.2-2.2c2-1.2,3.9-2.6,5.6-4.1c1.7-1.5,3.3-3.1,4.6-4.8
		c1.4-1.7,2.5-3.4,3.5-5.1l-2.6-4.7c-0.8,1.6-1.8,3.4-3.2,5.1c-1.3,1.8-2.9,3.5-4.6,5.1c-1.7,1.6-3.7,3.1-5.8,4.4
		c-1.2,0.7-2.6,1.4-4.1,2.1c-1.5,0.7-3.1,1.3-4.9,1.8c-1.8,0.5-3.7,1-5.7,1.3l2.8,4.4C83.1,31.8,84.9,31.3,86.6,30.8z M84.3,27.3
		c1.8-0.5,3.5-1.2,5-1.8c1.5-0.7,2.9-1.4,4.2-2.1c2.2-1.3,4.2-2.8,6-4.5c1.8-1.7,3.4-3.4,4.7-5.2c0.9-1.2,1.7-2.4,2.4-3.6l1.4,2.6
		c-0.9,1.5-1.9,3-3.1,4.4c-1.3,1.6-2.8,3.2-4.5,4.7c-1.7,1.5-3.5,2.8-5.5,4c-1.2,0.7-2.6,1.5-4.1,2.2c-1.4,0.7-3,1.3-4.7,1.9
		c-1.4,0.5-3,0.9-4.6,1.2L80,28.4C81.5,28.1,83,27.7,84.3,27.3z"/>
	<path class="st0" d="M210.9,18.4c1.4,0.5,2.7,1.1,4,1.7c1.3,0.6,2.5,1.2,3.6,1.7l1.9-4.7c-1-0.5-2.1-1-3.6-1.6
		c-1.4-0.6-2.9-1.2-4.5-1.7c-1.6-0.6-3.2-1.1-4.7-1.7c-1.2-0.4-2.2-0.7-3.2-1c0-0.9,0-1.8,0-2.7c0-1.3,0-2.3,0-3
		c0-0.7,0-1.5,0.1-2.3c0.1-0.8,0.2-1.5,0.2-2.1h-5.3c0.1,0.6,0.2,1.4,0.3,2.2c0.1,0.8,0.1,1.6,0.1,2.2c0,0.5,0,1.4,0,2.5
		c0,1.2,0,2.5,0,4c0,1.5,0,3,0,4.7c0,1.6,0,3.1,0,4.6c0,1.5,0,2.7,0,3.8c0,1.1,0,1.9,0,2.3c0,0.8,0,1.6-0.1,2.6
		c-0.1,1-0.1,1.8-0.2,2.5h5.3c-0.1-0.5-0.1-1.1-0.2-1.7s-0.1-1.3-0.1-1.9c0-0.6,0-1.1,0-1.5c0-0.4,0-1.1,0-2.1s0-2.2,0-3.6
		c0-1.4,0-2.8,0-4.4c0-0.4,0-0.7,0-1.1c0.8,0.3,1.6,0.5,2.5,0.8C208.2,17.4,209.6,17.9,210.9,18.4z M203.4,14.7l0,2.5
		c0,1.5,0,3,0,4.4v5.8c0,0.4,0,0.9,0,1.5c0,0.6,0.1,1.3,0.1,1.9c0,0.2,0,0.4,0.1,0.7h-3.1c0-0.5,0.1-0.9,0.1-1.4
		c0.1-1,0.1-1.9,0.1-2.6V5.4c0-0.7,0-1.4-0.1-2.3c0-0.4-0.1-0.8-0.1-1.1h3c0,0.3-0.1,0.7-0.1,1c-0.1,0.8-0.1,1.6-0.1,2.4v6.5
		l0.7,0.2c1,0.3,2,0.6,3.2,1c1.5,0.5,3.1,1.1,4.7,1.6c1.6,0.6,3.1,1.2,4.5,1.7c1,0.4,1.9,0.8,2.7,1.2l-1.2,2.8
		c-0.8-0.4-1.7-0.8-2.7-1.3c-1.3-0.6-2.7-1.2-4-1.7c-1.4-0.6-2.7-1.1-4-1.5c-0.9-0.3-1.7-0.6-2.5-0.9L203.4,14.7z"/>
	<path class="st0" d="M168.1,27.7c0,0.5,0,1.1,0,1.7c0,0.6-0.1,1.2-0.1,1.7c0,0.5-0.1,1-0.1,1.2h5.4c-0.1-0.3-0.1-0.7-0.2-1.2
		c-0.1-0.5-0.1-1.1-0.1-1.7c0-0.6,0-1.2,0-1.7V12.1c0.8-0.5,1.5-1,2.3-1.6c1.5-1,2.9-2.1,4.2-3.3c1.3-1.2,2.6-2.3,3.7-3.4l-3.7-3.5
		c-0.8,1-1.8,2.1-3,3.2c-1.2,1.1-2.4,2.2-3.7,3.2c-1.3,1-2.6,1.9-3.9,2.8c-2.1,1.3-4.6,2.6-7.4,3.8c-2.8,1.2-5.9,2.2-9.2,3.1
		l2.1,4.3c2-0.6,4-1.3,6-2.1c2-0.8,3.9-1.6,5.6-2.5c0.7-0.4,1.4-0.7,2.1-1.1V27.7z M167.6,14.1c-0.7,0.4-1.3,0.7-2.1,1.1
		c-1.7,0.9-3.6,1.7-5.6,2.5c-1.7,0.7-3.4,1.3-5.1,1.8l-1.2-2.4c3-0.8,5.7-1.8,8.2-2.9c2.8-1.2,5.3-2.5,7.5-3.8
		c1.3-0.8,2.7-1.8,4-2.8c1.3-1,2.6-2.1,3.8-3.3c0.9-0.8,1.7-1.7,2.4-2.4l2.2,2c-0.9,0.9-1.9,1.8-2.9,2.7c-1.3,1.1-2.7,2.2-4.1,3.2
		c-0.8,0.5-1.5,1.1-2.3,1.6l-0.5,0.3v16.1c0,0.5,0,1.1,0,1.8c0,0.6,0,1.3,0.1,1.8c0,0,0,0.1,0,0.1H169c0-0.1,0-0.1,0-0.2
		c0-0.6,0.1-1.1,0.1-1.8c0-0.6,0-1.2,0-1.8V13.3L167.6,14.1z"/>
	<path class="st0" d="M64.9,11.4c0.8,0,1.4,0,1.6,0c0.5,0,1.1,0,1.7,0c0.6,0,1.2,0,1.8,0.1V7c-0.4,0.1-1,0.1-1.7,0.2
		c-0.7,0.1-1.4,0.1-2,0.1c-0.3,0-0.8,0-1.7,0c-0.8,0-1.9,0-3.1,0c-0.1,0-0.2,0-0.3,0c0-1.1,0-2.1,0-3c0-0.6,0-1.2,0-1.8
		s0.1-1.2,0.2-1.8h-4.9c0.1,0.5,0.1,1,0.2,1.6c0.1,0.6,0.1,1.3,0.1,2.1c0.1,0.9,0.1,1.9,0.1,3c-1.2,0-2.5,0-3.7,0c-1.4,0-2.8,0-4,0
		c-1.3,0-2.4,0-3.3,0c-0.9,0-1.5,0-1.9,0c-0.6,0-1.3,0-2-0.1c-0.7-0.1-1.4-0.1-2-0.2v4.5c0.7-0.1,1.3-0.1,2.1-0.1c0.7,0,1.4,0,2.1,0
		c0.3,0,0.9,0,1.7,0c0.9,0,2,0,3.3,0c1.3,0,2.7,0,4.1,0c0.6,0,1.2,0,1.8,0c-0.6,0.9-1.3,1.8-2.2,2.7c-1.2,1.3-2.5,2.6-4,3.9
		s-3.2,2.5-5,3.7c-1.8,1.2-3.7,2.3-5.7,3.2l3.1,3.5c1.7-0.9,3.4-1.9,5-3.1c1.7-1.2,3.2-2.4,4.7-3.7c1.5-1.3,2.8-2.6,4-3.9
		c0.8-0.9,1.5-1.7,2.1-2.6c0,0.1,0,0.2,0,0.3c0,1.4,0,2.8,0.1,4.1c0,1.4,0,2.6,0,3.8c0,1.2,0,2.2,0,3.1c0,0.5-0.1,0.9-0.3,1.2
		c-0.2,0.3-0.5,0.4-1,0.4c-0.7,0-1.5,0-2.4-0.1c-1-0.1-1.9-0.2-2.8-0.3l0.4,4.4c1.1,0.1,2.1,0.1,3.2,0.2c1.1,0,2.2,0.1,3.2,0.1
		c1.4,0,2.4-0.3,3.1-0.9c0.7-0.6,1-1.5,1-2.7c0-1.3,0-2.6,0-4c0-1.4-0.1-2.9-0.1-4.4c0-1.5-0.1-3-0.1-4.5c0-1.5-0.1-2.9-0.1-4.4
		c0,0,0,0,0,0c0.1,0,0.3,0,0.4,0C63,11.4,64,11.4,64.9,11.4z M60.2,10.4l0.1,1.1c0,1.4,0.1,2.8,0.1,4.3l0.2,8.9c0,1.4,0,2.8,0,4
		c0,0.9-0.2,1.5-0.7,1.9c-0.5,0.4-1.3,0.7-2.4,0.7c-1.1,0-2.1,0-3.2-0.1c-0.8,0-1.6-0.1-2.3-0.1l-0.2-2.3c0.5,0.1,1,0.1,1.6,0.2
		c1,0.1,1.8,0.1,2.5,0.1c1,0,1.5-0.4,1.8-0.8c0.4-0.4,0.5-1,0.5-1.8v-3.1c0-1.2,0-2.4,0-3.8c0-1.4,0-2.7-0.1-4.1l-0.1-3.2l-1.8,2.4
		c-0.6,0.8-1.3,1.6-2.1,2.5c-1.2,1.3-2.5,2.6-3.9,3.8c-1.4,1.3-3,2.5-4.6,3.6c-1.4,1-2.8,1.9-4.2,2.6l-1.7-2
		c1.6-0.8,3.2-1.7,4.7-2.7c1.8-1.2,3.5-2.5,5.1-3.8c1.5-1.3,2.9-2.7,4.1-4c0.9-1,1.6-1.9,2.3-2.8l1.1-1.6H44.2c-0.7,0-1.4,0-2.1,0
		c-0.4,0-0.7,0-1,0V8.1c0.3,0,0.6,0,0.9,0.1c0.8,0.1,1.5,0.1,2.1,0.1h14l0-1c0-1.2-0.1-2.2-0.1-3.1c0-0.8-0.1-1.5-0.1-2.1
		c0-0.2,0-0.3-0.1-0.5h2.6c0,0.2,0,0.5-0.1,0.7c0,0.7,0,1.3,0,1.9c0,0.9,0,1.9,0,3l0,1h6.1c0.6,0,1.3,0,2.1-0.1c0.2,0,0.5,0,0.7-0.1
		v2.4c-0.3,0-0.5,0-0.8,0c-0.7,0-1.2,0-1.8,0H60.2z"/>
	<path class="st0" d="M135.7,22.3c-1.5,1.5-3.4,2.9-5.6,4.1c-2.3,1.2-4.8,2.1-7.6,2.6l3.4,3.8c2.4-0.7,4.8-1.7,7.2-3
		c2.3-1.3,4.5-3,6.4-5.2c1.4-1.6,2.6-3.3,3.4-5.1c0.9-1.8,1.6-3.7,2.2-5.5c0.1-0.2,0.1-0.4,0.3-0.7c0.1-0.3,0.3-0.5,0.4-0.8l-3-1.9
		c-0.3,0.1-0.6,0.2-1.1,0.3c-0.5,0.1-1,0.1-1.6,0.1c-0.3,0-0.9,0-1.7,0c-0.8,0-1.7,0-2.7,0s-2.2,0-3.4,0c-1.2,0-2.4,0-3.6,0
		c-1.2,0-2.3,0-3.3,0c-1,0-1.9,0-2.7,0c-0.8,0-1.3,0-1.7,0c-0.6,0-1.2,0-1.9-0.1c-0.7-0.1-1.5-0.1-2.3-0.2v4.4
		c0.8-0.1,1.5-0.1,2.3-0.2c0.8,0,1.4,0,1.9,0c0.5,0,1.1,0,1.9,0c0.8,0,1.8,0,2.8,0c1.1,0,2.2,0,3.4,0c1.2,0,2.3,0,3.5,0
		c1.2,0,2.2,0,3.2,0c1,0,1.8,0,2.5,0c0.7,0,1.2,0,1.5,0c-0.3,1.1-0.8,2.3-1.5,3.6C137.7,20,136.8,21.2,135.7,22.3z M140.8,15.5
		l0.4-1.3H121c-0.5,0-1.1,0-1.9,0c-0.4,0-0.9,0-1.3,0.1V12l1.2,0.1c0.8,0.1,1.4,0.1,2,0.1h19.1c0.6,0,1.2,0,1.7-0.1
		c0.3,0,0.6-0.1,0.8-0.2l1.9,1.2c-0.1,0.3-0.2,0.6-0.3,0.8c-0.6,1.8-1.3,3.6-2.1,5.4c-0.8,1.7-1.9,3.4-3.3,4.9
		c-1.8,2.1-3.9,3.7-6.1,5c-2.1,1.1-4.2,2.1-6.3,2.7l-1.9-2.1c2.2-0.6,4.3-1.4,6.2-2.3c2.3-1.2,4.3-2.7,5.9-4.3
		c1.1-1.1,2-2.4,2.8-3.7C139.9,17.9,140.4,16.7,140.8,15.5z"/>
</g>
</svg>
