<?xml version="1.0" encoding="utf-8"?>
<!-- Generator: Adobe Illustrator 27.9.1, SVG Export Plug-In . SVG Version: 6.00 Build 0)  -->
<svg version="1.1" id="Layer_1" xmlns="http://www.w3.org/2000/svg" xmlns:xlink="http://www.w3.org/1999/xlink" x="0px" y="0px"
	 viewBox="0 0 263.9 35.9" style="enable-background:new 0 0 263.9 35.9;" xml:space="preserve">
<style type="text/css">
	.st0{fill:#282828;}
</style>
<g>
	<path class="st0" d="M42,23.4h5.6V6.6H42V23.4z M43,7.6h3.6v14.7H43V7.6z"/>
	<path class="st0" d="M43,26.3h7.3V3.7H43h-1.6h-2.1v25.7H43V26.3z M42,28.4h-1.7V4.7h9.1v20.6H42V28.4z"/>
	<path class="st0" d="M11.1,4.7l0.7,1.5c0.2,0.4,0.4,0.7,0.5,1.1c0.2,0.6,0.4,1.2,0.6,1.7l0.3-0.5l0.2,1.4h8.5l0.2-1.5l0.4,0.8
		c0.3-0.6,0.6-1.2,0.9-1.9c0.2-0.4,0.3-0.8,0.5-1.2l0.5-1.3H11.1z M22.4,6.9c-0.3,0.7-0.6,1.3-0.9,1.9l0.3,0.1h-8.5l0.5-0.1
		c-0.1-0.5-0.3-1.1-0.6-1.8c-0.2-0.4-0.4-0.8-0.5-1.2h10.2C22.8,6.1,22.6,6.5,22.4,6.9z"/>
	<path class="st0" d="M1.4,12h32.9V8.8h-8.7c0.2-0.3,0.4-0.6,0.5-0.9c0.4-0.6,0.8-1.3,1.2-2.1l-0.8-0.2h5.7V2.5H19.8V0.3h-4.1v2.2
		H3.2v3.2h6L8.7,5.8C9,6.4,9.2,7,9.5,7.8c0.1,0.4,0.2,0.7,0.3,1.1H1.4V12z M2.4,9.8h8.7l-0.3-1.3c-0.1-0.3-0.2-0.7-0.3-1.1
		C10.2,6.7,9.9,6,9.6,5.4L9.3,5.8L9.2,4.7h-5V3.5h12.5V1.3h2.1v2.2h12.5v1.2h-4.7l-0.1,0.7l0-0.1c-0.4,0.7-0.8,1.4-1.1,2
		C25.2,7.7,25,8,24.8,8.3l-0.9,1.5h9.4V11H2.4V9.8z"/>
	<path class="st0" d="M30.7,32.5c0.7,0.8,1.2,1.6,1.5,2.3l3.4-2c-0.4-0.7-1-1.5-1.7-2.3c-0.7-0.8-1.5-1.6-2.3-2.4
		c-0.8-0.8-1.6-1.5-2.4-2.2l-3.2,1.8c0.8,0.7,1.6,1.4,2.4,2.3C29.3,30.9,30,31.7,30.7,32.5z M29.1,27.2c0.6,0.5,1.2,1.1,1.8,1.7
		c0.8,0.8,1.6,1.6,2.2,2.4c0.4,0.4,0.7,0.9,1,1.3l-1.6,0.9c-0.3-0.5-0.7-1-1.1-1.5c-0.7-0.9-1.4-1.7-2.3-2.6c-0.5-0.5-0.9-1-1.4-1.4
		L29.1,27.2z"/>
	<path class="st0" d="M12,35.1c0.8,0.3,2,0.4,3.5,0.4c0.2,0,0.5,0,0.9,0c0.4,0,0.9,0,1.5,0s1.1,0,1.6,0c0.5,0,1,0,1.5,0
		c0.4,0,0.8,0,0.9,0c1.2,0,2.1-0.1,2.7-0.4c0.7-0.3,1.2-0.8,1.5-1.6c0.4-0.8,0.6-1.9,0.7-3.3c-0.5-0.1-1.1-0.3-1.8-0.5
		c-0.7-0.3-1.2-0.5-1.6-0.8c-0.1,0.9-0.1,1.6-0.2,2.1c-0.1,0.5-0.3,0.8-0.5,0.9c-0.2,0.1-0.6,0.2-1.1,0.2c-0.3,0-0.7,0-1.2,0
		c-0.5,0-1.1,0-1.7,0s-1.2,0-1.7,0c-0.5,0-0.8,0-1,0c-0.9,0-1.5-0.1-1.8-0.2c-0.3-0.1-0.4-0.4-0.4-0.9v-4.2h-4v4.3
		c0,1.1,0.2,2,0.5,2.6C10.6,34.3,11.1,34.8,12,35.1z M10.8,27.8h2V31c0,1.2,0.6,1.7,1,1.8c0.3,0.1,0.8,0.3,2.2,0.3h5.6
		c0.7,0,1.2-0.1,1.6-0.3c0.5-0.3,0.8-0.8,1-1.6c0.1-0.2,0.1-0.5,0.1-0.8c0.1,0.1,0.3,0.1,0.4,0.2c0.4,0.1,0.7,0.3,1.1,0.4
		c-0.1,0.9-0.3,1.6-0.5,2.1c-0.3,0.5-0.6,0.9-1,1.1c-0.5,0.2-1.3,0.4-2.3,0.4h-6.5c-1.4,0-2.4-0.1-3.2-0.4c-0.6-0.2-0.9-0.5-1.1-0.8
		c-0.2-0.5-0.4-1.2-0.4-2.2V27.8z"/>
	<path class="st0" d="M8.3,19h19.1v-3.9H8.3V19z M9.3,16.1h17.1V18H9.3V16.1z"/>
	<path class="st0" d="M13.9,26.4c0.7,0.4,1.5,0.8,2.3,1.2c0.8,0.5,1.5,0.9,2.2,1.4c0.7,0.5,1.3,0.9,1.7,1.3l2.3-2.4
		c-0.5-0.4-1-0.8-1.7-1.3c-0.7-0.4-1.5-0.9-2.3-1.3c-0.3-0.2-0.7-0.3-1-0.5h13.1V13.6h-25v11.4h10L13.9,26.4z M17.9,26.3
		c0.8,0.4,1.5,0.8,2.2,1.3c0.3,0.2,0.5,0.3,0.8,0.5L20,29c-0.3-0.3-0.7-0.5-1.1-0.8c-0.7-0.5-1.5-1-2.3-1.4
		c-0.4-0.2-0.7-0.4-1.1-0.6l1.7-1.6L17,25.8C17.3,26,17.6,26.1,17.9,26.3z M6.5,23.9v-9.4h23v9.4H6.5z"/>
	<path class="st0" d="M8.3,23.4h19.1v-3.9H8.3V23.4z M9.3,20.4h17.1v1.9H9.3V20.4z"/>
	<path class="st0" d="M6.5,31.7C7.3,30.4,8,29,8.5,27.6l-3.4-1.3c-0.4,1.3-1.1,2.5-2,3.6c-0.9,1.2-1.9,2.1-3.1,2.9L3.2,35
		C4.5,34.1,5.6,33,6.5,31.7z M1.8,32.9c0.8-0.6,1.5-1.4,2.2-2.2c0.7-1,1.3-1.9,1.7-3l1.5,0.6c-0.4,1-1,2-1.6,3
		c-0.6,1-1.5,1.9-2.5,2.6L1.8,32.9z"/>
	<path class="st0" d="M259,0.8l-2.9,1.6c0.7,0.8,1.4,1.7,2.1,2.7c0.7,1,1.2,1.9,1.6,2.6l3.1-1.8c-0.2-0.5-0.6-1-1-1.6
		c-0.4-0.6-0.9-1.2-1.4-1.8C260,1.8,259.5,1.3,259,0.8z M261.5,5.5l-1.4,0.8c-0.3-0.5-0.7-1.1-1.2-1.8c-0.5-0.7-0.9-1.3-1.4-1.8
		l1.2-0.7c0.3,0.3,0.6,0.7,0.9,1.1c0.5,0.6,0.9,1.2,1.3,1.7C261.2,5,261.4,5.3,261.5,5.5z"/>
	<path class="st0" d="M243.9,31.5c-0.2-1.3-0.4-2.6-0.6-3.7l-3.8,0.4c0.2,0.8,0.3,1.6,0.4,2.5c0.1,0.9,0.2,1.7,0.2,2.6
		c0.1,0.8,0.1,1.6,0.1,2.2l4-0.6C244.2,34,244.1,32.8,243.9,31.5z M241.2,34.3c0-0.3,0-0.7-0.1-1.1c-0.1-0.8-0.1-1.7-0.3-2.6
		c-0.1-0.5-0.1-1-0.2-1.5l1.8-0.2c0.2,0.9,0.3,1.8,0.4,2.8c0.1,0.9,0.2,1.7,0.2,2.4L241.2,34.3z"/>
	<path class="st0" d="M251,27.6l-3.8,0.6c0.5,1.2,0.9,2.4,1.3,3.8c0.4,1.4,0.6,2.5,0.8,3.4l4.1-0.8c-0.1-0.6-0.3-1.4-0.5-2.2
		c-0.2-0.8-0.5-1.6-0.8-2.5C251.6,29.2,251.3,28.4,251,27.6z M250,34.3c-0.2-0.7-0.4-1.6-0.6-2.5c-0.3-0.9-0.6-1.9-0.9-2.7l1.9-0.3
		c0.2,0.5,0.4,1.1,0.6,1.6c0.3,0.8,0.6,1.7,0.8,2.5c0.1,0.4,0.2,0.8,0.3,1.1L250,34.3z"/>
	<path class="st0" d="M227.5,13.2c0.4,0.3,0.9,0.7,1.4,1.2c0.5,0.5,1,1,1.3,1.4c0.5-0.4,0.9-0.8,1.3-1.2c0.4,0.3,0.8,0.6,1.3,0.9
		c0.8,0.6,1.6,1.2,2.3,1.7c0.5,0.4,0.8,0.7,1.2,1.1c-0.3,0.3-0.7,0.7-1,1c-2,1.7-4.1,3.2-6.5,4.2c0.3,0.2,0.6,0.5,1,0.9
		c0.4,0.4,0.7,0.8,1.1,1.2c0.3,0.4,0.6,0.8,0.8,1.1c2.5-1.2,4.8-2.8,6.8-4.8c2.1-2,3.9-4.4,5.4-7.3c0.9-1.8,1.7-3.8,2.4-5.9v3.2h5.1
		c0,0.2,0,0.3-0.1,0.5c-0.2,1.3-0.6,2.6-1.3,4c-0.6,1.3-1.6,2.6-2.8,3.8c-1.3,1.2-2.9,2.4-5,3.4c0.5,0.4,1,0.8,1.5,1.4
		c0.5,0.5,1,1,1.3,1.5c2.2-1.2,4-2.5,5.4-3.9c1.4-1.4,2.4-2.9,3.2-4.4c0.1-0.3,0.2-0.6,0.4-0.8c0.8,2,1.7,3.8,2.9,5.4
		c1.2,1.6,2.7,2.9,4.4,4c0.2-0.4,0.5-0.8,0.8-1.2c0.3-0.4,0.6-0.8,1-1.3c0.4-0.4,0.7-0.7,1-1c-1.6-0.8-2.9-1.8-4-3.2
		c-1.1-1.3-2.1-2.9-2.8-4.7c-0.4-1.1-0.8-2.2-1.1-3.3h6.7V8h-7.3V0.9h-3.9V8h-5.2c0.3-1.1,0.6-2.3,0.9-3.5l-2.5-1.1l-0.7,0.2h-0.8
		h-4.1c0.4-0.9,0.8-1.7,1.1-2.5l-3.9-1c-0.5,1.5-1.2,3.1-2.1,4.7s-1.9,3.2-3,4.7C230.1,10.9,228.8,12.1,227.5,13.2z M247.1,9h5.4
		V1.9h1.9V9h7.3v1.8h-7l0.3,1.3c0.3,1.2,0.7,2.4,1.2,3.5c0.8,1.9,1.7,3.5,2.9,4.9c0.9,1.1,2,2,3.2,2.8c0,0-0.1,0.1-0.1,0.1
		c-0.4,0.4-0.7,0.9-1.1,1.3c-0.1,0.1-0.2,0.3-0.3,0.4c-1.3-0.9-2.3-1.9-3.3-3.2c-1.1-1.5-2-3.2-2.7-5.1l-0.9-2.4l-1,2.5
		c-0.1,0.2-0.2,0.5-0.3,0.7c-0.7,1.4-1.7,2.8-3,4.2c-1.2,1.2-2.7,2.3-4.5,3.3c-0.3-0.3-0.5-0.6-0.9-0.9c-0.2-0.2-0.3-0.3-0.5-0.5
		c1.6-0.9,2.9-1.9,3.9-2.9c1.3-1.3,2.4-2.7,3-4.1c0.7-1.4,1.1-2.8,1.4-4.2c0-0.1,0-0.2,0-0.3l0-0.2l0.2-1.1h-5.3V9z M235.1,5.2
		c0.7-1.4,1.3-2.7,1.8-4l1.9,0.5c-0.2,0.5-0.4,1-0.7,1.4l-0.7,1.4h6.6l0.5-0.1l1.5,0.6c-0.2,0.8-0.4,1.7-0.7,2.6l-0.2,0.6l0,0
		c-0.7,2.2-1.4,4.1-2.3,5.8c-1.5,2.8-3.2,5.1-5.2,7.1c-1.8,1.7-3.7,3.1-5.8,4.3c-0.1-0.1-0.2-0.3-0.3-0.4c-0.3-0.4-0.7-0.8-1-1.2
		c1.9-1,3.7-2.2,5.4-3.7c0.4-0.3,0.7-0.7,1.1-1l0.7-0.7l-0.7-0.7c-0.4-0.4-0.8-0.8-1.2-1.1c-0.7-0.6-1.5-1.2-2.3-1.8
		c-0.4-0.3-0.9-0.6-1.3-0.9l-0.7-0.4l-0.6,0.6c-0.2,0.2-0.4,0.3-0.5,0.5c-0.2-0.2-0.4-0.5-0.7-0.7c-0.2-0.2-0.4-0.4-0.6-0.5
		c1.1-1,2.1-2,3-3.2C233.2,8.5,234.2,6.9,235.1,5.2z"/>
	<path class="st0" d="M237.7,9.5c0.8,0.4,1.5,0.9,2.2,1.3c0.3,0.2,0.6,0.4,0.8,0.6l1,0.7l0.5-1.1c0.5-1.3,1-2.6,1.3-3.9l0.3-1.3
		h-7.1l-0.3,0.5c-0.2,0.3-0.3,0.6-0.5,0.8l-0.7,1.2l1,0.5C236.7,9,237.2,9.3,237.7,9.5z M237.4,6.8h5.2c-0.4,1.3-0.8,2.6-1.3,3.8
		c-0.3-0.2-0.6-0.4-0.9-0.6c-0.7-0.5-1.5-0.9-2.3-1.3c-0.5-0.3-1-0.5-1.4-0.7C236.9,7.6,237.2,7.2,237.4,6.8z"/>
	<path class="st0" d="M234.5,14.1c0.8,0.5,1.6,1.1,2.3,1.6c0.4,0.3,0.7,0.5,1,0.8l0.8,0.7l0.6-0.9c0.6-0.8,1.1-1.6,1.6-2.4l0.4-0.7
		l-0.7-0.5c-0.4-0.4-0.8-0.7-1.3-1c-0.7-0.5-1.5-1-2.3-1.5c-0.5-0.3-0.9-0.5-1.3-0.7l-0.8-0.4l-0.8,1.1c-0.2,0.3-0.3,0.5-0.5,0.7
		c-0.2,0.2-0.4,0.5-0.5,0.7l-0.8,1l1,0.6C233.5,13.5,234,13.8,234.5,14.1z M234.2,11.6c0.3-0.4,0.6-0.8,0.8-1.2
		c0.4,0.2,0.8,0.5,1.3,0.7c0.8,0.5,1.6,0.9,2.3,1.4c0.5,0.3,0.9,0.6,1.2,0.9c-0.5,0.8-1,1.6-1.5,2.3c-0.3-0.3-0.6-0.5-1-0.8
		c-0.7-0.5-1.5-1.1-2.3-1.6c-0.5-0.3-1-0.6-1.5-0.9C233.8,12.1,234,11.9,234.2,11.6z"/>
	<path class="st0" d="M234.8,32.2c0.8-1.4,1.4-2.9,1.8-4.3l-4-0.9c-0.4,1.4-1,2.8-1.8,4.1c-0.8,1.3-1.6,2.4-2.5,3.2l3.8,1.6
		C233.2,34.9,234,33.7,234.8,32.2z M230.1,33.9c0.6-0.7,1.1-1.5,1.6-2.3c0.6-1.1,1.2-2.2,1.6-3.4l2,0.5c-0.4,1-0.8,2.1-1.4,3.1
		c-0.6,1.1-1.2,2.1-2,2.9L230.1,33.9z"/>
	<path class="st0" d="M260.6,29.4c-0.6-0.9-1.2-1.8-1.8-2.5l-3.9,1.2c0.6,0.8,1.2,1.7,1.8,2.6c0.6,1,1.2,1.9,1.7,2.8
		c0.5,0.9,0.9,1.7,1.2,2.4l4.1-1.4c-0.3-0.7-0.7-1.5-1.3-2.4S261.2,30.3,260.6,29.4z M260,34.6c-0.2-0.5-0.5-1.1-0.9-1.7
		c-0.5-0.9-1.1-1.9-1.7-2.8c-0.3-0.5-0.7-1-1-1.5l1.9-0.6c0.5,0.6,0.9,1.2,1.4,1.9c0.6,0.9,1.2,1.8,1.8,2.7c0.3,0.5,0.5,0.9,0.7,1.3
		L260,34.6z"/>
	<path class="st0" d="M190.3,16.3c0.3,0.5,0.6,1.1,0.8,1.6c0.3,0.5,0.4,1,0.6,1.3c0.9-0.9,1.7-2,2.6-3.1v19.7h3.9V9.9
		c0.3-0.6,0.7-1.2,1-1.8c1.1-2.1,2-4.3,2.8-6.4l-3.9-1.2c-0.6,1.8-1.4,3.7-2.3,5.4c-0.9,1.8-1.9,3.4-3,5c-1.1,1.6-2.2,2.9-3.3,4.1
		C189.8,15.3,190,15.8,190.3,16.3z M193.7,11.5c1.1-1.6,2.1-3.3,3-5.1c0.8-1.5,1.5-3.1,2.1-4.7l1.9,0.6c-0.7,1.8-1.5,3.6-2.4,5.3
		c-0.2,0.4-0.4,0.8-0.7,1.2l-0.4,0.7v25.2h-1.9V13.1l-1.8,2.4c-0.5,0.7-1,1.3-1.5,1.9c-0.3-0.5-0.5-1-0.8-1.5
		c-0.1-0.3-0.3-0.5-0.4-0.7C191.8,14.1,192.8,12.8,193.7,11.5z"/>
	<path class="st0" d="M138.9,29.6c-1.6,0.8-3.5,1.4-5.9,1.7l2.2,3.6c2.3-0.4,4.3-0.9,5.9-1.7c1.6-0.8,2.9-1.7,3.9-2.8
		c1-1.1,1.7-2.2,2.1-3.5c0.4-1.3,0.7-2.6,0.7-3.9c0-1.9-0.5-3.6-1.6-5.1c-1-1.5-2.5-2.6-4.3-3.5c-0.5-0.2-1-0.4-1.6-0.6
		c0,0,0,0,0-0.1c0.1-0.4,0.3-0.8,0.4-1.1c0.1-0.4,0.2-0.7,0.3-0.9l-4.2-1c0,0.2-0.1,0.5-0.1,0.9c-0.1,0.4-0.1,0.7-0.2,1.1
		c0,0.1-0.1,0.3-0.1,0.4c-0.3,0-0.6,0-0.9,0c-1.4,0-2.8,0.1-4.3,0.4c-0.6,0.1-1.1,0.2-1.6,0.4c0-0.3,0-0.6,0-0.9c0.1-1,0.2-2,0.3-3
		c1.4-0.1,2.8-0.1,4.2-0.2c1.7-0.1,3.3-0.3,4.9-0.5c1.6-0.2,3-0.4,4.4-0.6l0-4c-1.9,0.4-3.8,0.8-5.8,1c-2,0.3-4,0.4-6.2,0.6
		c-0.3,0-0.7,0-1,0c0.1-0.8,0.3-1.6,0.4-2.3c0.1-0.3,0.2-0.6,0.2-1c0.1-0.3,0.2-0.7,0.3-1L126.9,2c0,0.3,0,0.7,0,1
		c0,0.4-0.1,0.8-0.1,1.1c-0.1,0.7-0.2,1.4-0.3,2.3c-0.6,0-1.2,0-1.8,0c-0.7,0-1.5,0-2.4-0.1c-0.9-0.1-1.7-0.1-2.5-0.2
		C119.1,6,118.4,6,118,5.9l0.1,4c0.6,0,1.3,0.1,2.1,0.1c0.8,0,1.6,0.1,2.4,0.1c0.8,0,1.5,0,2.1,0c0.5,0,1,0,1.5,0
		c0,0.2,0,0.5-0.1,0.7c-0.1,1.3-0.2,2.6-0.3,3.9c0,0.1,0,0.3,0,0.4c-1,0.5-1.9,1-2.8,1.6c-1.3,0.9-2.4,2-3.4,3.2
		c-1,1.2-1.8,2.4-2.3,3.7c-0.6,1.3-0.8,2.6-0.8,3.9c0,1.2,0.2,2.2,0.7,3c0.5,0.8,1.1,1.4,1.8,1.7c0.7,0.4,1.6,0.6,2.5,0.6
		c1.5,0,3.1-0.3,4.7-1c0.5-0.2,0.9-0.4,1.4-0.7c0.2,0.6,0.3,1.2,0.5,1.7l3.9-1.2c-0.3-0.9-0.6-1.9-0.9-2.9c1-0.8,1.9-1.8,2.9-2.9
		c1.2-1.4,2.4-3.1,3.4-5c0.7-1.2,1.2-2.5,1.8-3.8c0.2,0.1,0.5,0.2,0.7,0.3c1.2,0.6,2.1,1.3,2.8,2.3c0.6,0.9,0.9,2,0.9,3.1
		c0,1.3-0.4,2.6-1.1,3.8C141.6,27.7,140.4,28.8,138.9,29.6z M144.5,22.7c0-1.3-0.4-2.6-1.1-3.7c-0.7-1.1-1.8-2-3.2-2.6
		c-0.2-0.1-0.5-0.2-0.8-0.3l-0.9-0.3l-0.4,0.9c-0.5,1.4-1.1,2.6-1.7,3.7c-1,1.8-2.1,3.5-3.3,4.8c-0.9,1.1-1.9,2-2.8,2.8l-0.5,0.4
		l0.2,0.6c0.2,0.7,0.4,1.4,0.6,2l-2,0.6c-0.1-0.2-0.1-0.5-0.2-0.8l-0.3-1.2l-1.1,0.6c-0.4,0.2-0.9,0.4-1.3,0.6
		c-1.4,0.6-2.9,0.9-4.3,0.9c-0.7,0-1.4-0.1-2-0.4c-0.6-0.3-1-0.7-1.4-1.3c-0.4-0.6-0.6-1.5-0.6-2.5c0-1.2,0.3-2.4,0.8-3.5
		c0.5-1.2,1.2-2.4,2.2-3.5c0.9-1.1,2-2.1,3.2-3c0.8-0.6,1.7-1.1,2.6-1.5l0.5-0.3l0.1-1c0.1-1.3,0.2-2.6,0.3-3.9l0.2-1.8l-1.3,0
		c-0.5,0-0.9,0-1.4,0c-0.6,0-1.3,0-2.1,0C121.8,9,121,9,120.2,9c-0.4,0-0.8,0-1.1-0.1L119,7l0.7,0.1c0.8,0.1,1.7,0.2,2.6,0.2
		c0.9,0.1,1.7,0.1,2.5,0.1c0.4,0,0.8,0,1.2,0l1.4,0l0.3-3.1c0,0,0.1-1.2,0.1-1.3l2.2,0.1c-0.1,0.3-0.1,0.5-0.2,0.7
		c-0.1,0.7-0.3,1.5-0.4,2.4l-0.2,1.2c0,0,2.1-0.1,2.3-0.1c2.1-0.1,4.2-0.3,6.2-0.6c1.6-0.2,3.2-0.5,4.7-0.8l0,1.9
		c-1.1,0.2-2.2,0.3-3.5,0.5c-1.6,0.2-3.2,0.3-4.9,0.5c-1.4,0.1-2.8,0.2-4.2,0.2l-0.9,0L129,9.9c-0.1,1-0.2,2-0.3,3
		c0,0.2,0,0.4,0,0.5l-0.1,1.7l1.3-0.3c0.5-0.1,1-0.2,1.5-0.3c1.4-0.3,2.8-0.4,4.1-0.4c0.2,0,0.4,0,0.5,0l1.2,0.1l0.2-0.8
		c0-0.1,0.1-0.3,0.1-0.4c0.1-0.3,0.1-0.6,0.2-1l2,0.5c-0.1,0.3-0.2,0.6-0.3,0.9l-0.3,1l1,0.4c0.6,0.2,1,0.4,1.5,0.5
		c1.7,0.8,3,1.8,3.9,3.2c0.9,1.3,1.4,2.8,1.4,4.5c0,1.2-0.2,2.4-0.6,3.6c-0.4,1.1-1,2.2-1.9,3.2c-0.9,1-2.1,1.8-3.6,2.5
		c-1.4,0.7-3,1.2-4.9,1.5l-1.1-1.7c1.8-0.3,3.4-0.8,4.7-1.5c1.7-0.9,3-2,3.9-3.4C144,25.7,144.5,24.3,144.5,22.7z"/>
	<path class="st0" d="M127,23.8c-0.2-1.5-0.3-3-0.3-4.6l0-1.8l-1.5,1c-0.8,0.5-1.4,1-2.1,1.6c-1.1,1-2,2.1-2.6,3.3
		c-0.7,1.2-1,2.4-1,3.5c0,0.9,0.2,1.6,0.7,2.2c0.5,0.6,1.2,0.8,2.2,0.8c1.1,0,2.3-0.3,3.6-1c0.4-0.2,0.8-0.4,1.1-0.6l0.6-0.4
		l-0.1-0.7C127.3,25.8,127.1,24.8,127,23.8z M125.5,27.9c-1.2,0.6-2.2,0.9-3.2,0.9c-0.6,0-1.1-0.2-1.4-0.5c-0.3-0.3-0.5-0.8-0.5-1.5
		c0-0.9,0.3-1.9,0.9-3c0.6-1.1,1.4-2.1,2.5-3.1c0.6-0.5,1.2-1,1.9-1.5c0,1.6,0.1,3.1,0.3,4.7c0.1,1.2,0.3,2.3,0.5,3.4
		C126.2,27.5,125.8,27.7,125.5,27.9z"/>
	<path class="st0" d="M130.5,16.1c-0.4,0.1-0.9,0.3-1.3,0.4l-0.7,0.2l0,1.2c0,1.9,0.1,3.8,0.3,5.4c0,0.3,0.1,0.6,0.1,0.8l0.4,2.3
		l1.4-1.4c1.1-1.2,2.2-2.5,3.2-4c0.8-1.2,1.5-2.6,2.2-4.3l0.6-1.4l-1.5,0C133.5,15.5,131.9,15.7,130.5,16.1z M133.2,20.6
		c-1,1.4-2,2.7-3.1,3.8c-0.1-0.4-0.1-0.8-0.2-1.2c-0.2-1.6-0.3-3.4-0.3-5.3c0-0.2,0-0.3,0-0.5c0.4-0.1,0.8-0.3,1.2-0.4
		c1.3-0.4,2.9-0.6,4.5-0.6C134.7,18,134,19.4,133.2,20.6z"/>
	<path class="st0" d="M88.7,8.7c-1.7,0.8-3.1,1.8-4.3,3.1c-1.2,1.2-2.1,2.6-2.7,4.1c-0.6,1.5-0.9,2.9-0.9,4.3c0,1.5,0.2,2.7,0.6,3.7
		c0.4,1,0.9,1.9,1.5,2.4c0.7,0.6,1.4,0.9,2.2,0.9c0.8,0,1.6-0.4,2.4-1.1c0.6-0.6,1.3-1.6,1.9-2.9c0.6-1.2,1.1-2.8,1.7-4.6
		c0.6-1.8,1.1-3.8,1.5-5.9c0.2-1.1,0.4-2.4,0.6-3.8l0.2-1.3l-1.3,0.2C90.7,8,89.7,8.3,88.7,8.7z M91.5,12.5c-0.4,2.1-0.9,4-1.4,5.8
		c-0.6,1.8-1.1,3.3-1.7,4.5c-0.5,1.2-1.1,2-1.7,2.6c-0.6,0.6-1.1,0.8-1.7,0.8c-0.5,0-1-0.2-1.5-0.7c-0.5-0.4-0.9-1.1-1.2-2
		c-0.3-0.9-0.5-2-0.5-3.4c0-1.2,0.3-2.5,0.9-3.9c0.6-1.4,1.4-2.6,2.5-3.8c1.1-1.2,2.4-2.1,4-2.8C90,9.2,91,9,92.1,8.8
		C91.9,10,91.7,11.2,91.5,12.5z"/>
	<path class="st0" d="M108.2,26.3c1.1-2.1,1.7-4.4,1.7-7.1c0-2-0.4-3.9-1.1-5.7c-0.7-1.8-1.7-3.3-3-4.7c-1.3-1.3-2.9-2.4-4.8-3.1
		C99.1,5,97,4.6,94.7,4.6c-2.4,0-4.7,0.4-6.8,1.3c-2.1,0.8-3.9,2-5.5,3.5c-1.6,1.5-2.8,3.2-3.7,5.1c-0.9,1.9-1.3,4-1.3,6.1
		c0,2.1,0.3,4,1,5.6s1.6,2.9,2.8,3.8c1.1,0.9,2.4,1.4,3.7,1.4s2.6-0.5,3.7-1.4c1.2-1,2.2-2.4,3.2-4.2c1-1.8,1.8-4,2.6-6.6
		c0.7-2.2,1.2-4.4,1.6-6.6c0.2-1.4,0.5-2.7,0.7-4c0.9,0.1,1.7,0.3,2.5,0.6c1.3,0.5,2.4,1.3,3.3,2.2c0.9,1,1.6,2.1,2.1,3.3
		c0.5,1.3,0.7,2.7,0.7,4.2c0,1.4-0.2,2.8-0.7,3.9c-0.5,1.2-1.1,2.2-1.9,3.1c-0.8,0.9-1.8,1.6-2.8,2.2c-1.1,0.6-2.2,1-3.4,1.3
		c-0.5,0.1-1,0.2-1.6,0.3c-0.6,0.1-1.2,0.2-1.9,0.3l2.5,4c3.2-0.5,5.8-1.4,7.9-2.7C105.4,30.1,107.1,28.4,108.2,26.3z M95.9,33
		l-1.4-2.2c0.1,0,0.3,0,0.4-0.1c0.6-0.1,1.1-0.2,1.6-0.3c1.3-0.3,2.6-0.8,3.7-1.4c1.2-0.6,2.2-1.4,3.1-2.4c0.9-1,1.6-2.1,2.1-3.4
		c0.5-1.3,0.8-2.7,0.8-4.3c0-1.6-0.3-3.2-0.8-4.5c-0.5-1.4-1.3-2.6-2.3-3.7c-1-1-2.2-1.9-3.7-2.4c-0.8-0.3-1.7-0.5-2.7-0.7l-1-0.1
		l-0.2,1c-0.2,1.3-0.4,2.6-0.7,4c-0.4,2.1-0.9,4.3-1.5,6.4c-0.7,2.5-1.6,4.6-2.5,6.4C90,27,89,28.3,88,29.2c-1,0.8-2,1.2-3.1,1.2
		c-1.1,0-2.1-0.4-3.1-1.1c-1-0.8-1.8-2-2.5-3.4c-0.6-1.5-1-3.3-1-5.2c0-2,0.4-3.9,1.2-5.7c0.8-1.8,2-3.4,3.5-4.8
		c1.5-1.4,3.2-2.5,5.2-3.3c2-0.8,4.1-1.2,6.4-1.2c2.2,0,4.1,0.4,5.9,1c1.7,0.7,3.2,1.7,4.4,2.9c1.2,1.2,2.2,2.7,2.8,4.3
		c0.7,1.6,1,3.4,1,5.3c0,2.5-0.5,4.7-1.5,6.6c-1,1.9-2.5,3.5-4.5,4.8C100.9,31.8,98.6,32.6,95.9,33z"/>
	<path class="st0" d="M168.3,10.9c-0.8,0.7-1.5,1.3-2.3,1.9c-0.7,0.6-1.4,1.1-1.9,1.6c-0.6,0.5-1.2,1-2.1,1.7
		c-0.8,0.7-1.7,1.4-2.6,2.2s-1.8,1.5-2.7,2.2c-0.9,0.7-1.7,1.4-2.4,1.9l3.1,3.2c1.1-1.2,2.1-2.2,3.2-3.2c1-1,2.1-1.8,3.2-2.4
		c1.1-0.7,2.3-1.2,3.5-1.5c1.2-0.4,2.6-0.6,4.1-0.6c1.5,0,2.9,0.3,4.1,0.8c1.2,0.5,2.2,1.2,2.9,2.1c0.7,0.9,1.1,1.9,1.1,3.1
		c0,1.4-0.4,2.6-1.1,3.6c-0.6,0.8-1.4,1.4-2.5,1.9c-0.1-1-0.5-1.9-0.9-2.8c-0.6-1.2-1.5-2.1-2.7-2.8c-1.2-0.7-2.6-1-4.4-1
		c-1.3,0-2.4,0.3-3.4,0.8c-1,0.5-1.8,1.2-2.3,2.1c-0.5,0.9-0.8,1.8-0.8,2.8c0,1.2,0.4,2.3,1.2,3.2c0.8,0.9,1.8,1.6,3.2,2.1
		c1.4,0.5,2.9,0.7,4.7,0.7c3,0,5.5-0.5,7.5-1.4c2-0.9,3.5-2.2,4.6-3.8s1.5-3.4,1.5-5.4c0-1.8-0.5-3.4-1.5-4.8c-1-1.4-2.3-2.5-4-3.3
		c-1.7-0.8-3.6-1.2-5.7-1.2c-0.7,0-1.4,0-2,0.1c-0.7,0.1-1.4,0.2-2.1,0.4c0.7-0.5,1.4-1.1,2.2-1.8c0.8-0.7,1.6-1.3,2.5-2
		c0.8-0.7,1.6-1.3,2.4-1.9c0.7-0.6,1.4-1.1,1.9-1.4c0.4-0.3,0.8-0.6,1.3-0.9c0.4-0.3,0.8-0.5,1.3-0.8l-2.2-3.1
		c-0.2,0.1-0.6,0.1-1,0.2c-0.4,0.1-1,0.1-1.7,0.2c-0.4,0-1.1,0.1-1.9,0.1c-0.8,0.1-1.8,0.1-2.8,0.1c-1.1,0-2.1,0.1-3.1,0.1
		c-1,0-2,0.1-2.8,0.1c-0.8,0-1.5,0-1.9,0c-0.5,0-1,0-1.6-0.1c-0.6,0-1.1-0.1-1.6-0.1l0.2,4.4c0.4-0.1,0.9-0.1,1.4-0.2
		c0.5,0,1-0.1,1.5-0.1c0.4,0,0.9-0.1,1.6-0.1c0.7,0,1.4-0.1,2.2-0.1c0.8,0,1.6-0.1,2.4-0.1c0.8,0,1.5-0.1,2.2-0.1
		c0.7,0,1.2-0.1,1.6-0.1c-0.5,0.4-1,0.9-1.7,1.5C169.8,9.7,169.1,10.3,168.3,10.9z M172.9,8.3l2-1.7h-2.6c-0.4,0-0.9,0-1.6,0.1
		c-0.7,0-1.4,0.1-2.1,0.1c-0.8,0-1.6,0.1-2.4,0.1c-0.8,0-1.5,0.1-2.2,0.1L162.3,7c-0.5,0-1,0.1-1.5,0.1c-0.1,0-0.3,0-0.4,0l-0.1-2.2
		c0.2,0,0.3,0,0.5,0c0.6,0,1.2,0.1,1.7,0.1c0.4,0,1,0,1.9,0c0.8,0,1.8,0,2.8-0.1l3.1-0.1c1.1,0,2-0.1,2.9-0.1l1.9-0.1
		c0.7-0.1,1.3-0.1,1.8-0.2c0.1,0,0.3,0,0.4-0.1l1.2,1.7c-0.1,0.1-0.2,0.2-0.4,0.2c-0.5,0.3-0.9,0.6-1.3,0.9
		c-0.5,0.3-1.1,0.8-1.9,1.4c-0.7,0.6-1.5,1.2-2.4,1.9c-0.8,0.7-1.7,1.4-2.5,2l-2.2,1.8l0.9,1.7c0.6-0.2,1.3-0.3,1.9-0.4
		c0.6-0.1,1.3-0.1,1.9-0.1c2,0,3.7,0.4,5.3,1.1c1.5,0.7,2.7,1.7,3.6,3c0.9,1.2,1.3,2.6,1.3,4.3c0,1.8-0.5,3.4-1.4,4.9
		c-0.9,1.4-2.3,2.6-4.1,3.4c-1.9,0.9-4.2,1.3-7,1.3c-1.6,0-3.1-0.2-4.3-0.7c-1.2-0.4-2.1-1-2.8-1.8c-0.6-0.7-0.9-1.5-0.9-2.5
		c0-0.8,0.2-1.5,0.7-2.2c0.5-0.7,1.1-1.3,1.9-1.7c0.8-0.5,1.8-0.7,2.9-0.7c1.5,0,2.8,0.3,3.8,0.9c1,0.6,1.8,1.4,2.3,2.4
		c0.4,0.8,0.7,1.6,0.8,2.4l0.2,1.3l1.2-0.6c1.2-0.6,2.1-1.3,2.8-2.2c0.9-1.2,1.3-2.6,1.3-4.2c0-1.4-0.4-2.6-1.3-3.7
		c-0.8-1-1.9-1.8-3.3-2.4c-1.3-0.6-2.8-0.8-4.5-0.8c-1.6,0-3.1,0.2-4.4,0.6c-1.3,0.4-2.6,0.9-3.7,1.6c-1.1,0.7-2.3,1.5-3.3,2.5
		c-0.8,0.8-1.7,1.6-2.5,2.5l-1.6-1.6c0.5-0.4,1-0.8,1.5-1.3c0.9-0.7,1.8-1.5,2.7-2.2c0.9-0.8,1.8-1.5,2.6-2.2c0.8-0.7,1.5-1.2,2-1.7
		c0.5-0.4,1.2-1,1.9-1.6c0.7-0.6,1.5-1.2,2.3-1.9l2.2-1.9C171.9,9.2,172.5,8.7,172.9,8.3z"/>
	<path class="st0" d="M171.6,26.9c-0.9-1.2-2.2-1.7-3.7-1.7c-1,0-1.8,0.3-2.5,0.9c-0.7,0.6-1,1.3-1,2.2c0,0.8,0.3,1.9,1.7,2.7
		c0.9,0.5,2.1,0.8,3.6,0.8c0.8,0,1.7,0,2.5-0.2l1-0.1l-0.1-1C172.8,29,172.4,27.9,171.6,26.9z M169.5,30.7c-1.3,0-2.3-0.2-3.1-0.7
		c-0.8-0.5-1.2-1.1-1.2-1.8c0-0.5,0.2-1,0.7-1.4c0.5-0.4,1.1-0.6,1.8-0.6c1.2,0,2.2,0.5,3,1.4c0.6,0.8,1,1.8,1.1,3
		C171.2,30.6,170.4,30.7,169.5,30.7z"/>
	<path class="st0" d="M205.7,14.5h6.4V9.8h-6.4V14.5z M206.7,10.8h4.4v2.8h-4.4V10.8z"/>
	<path class="st0" d="M223.3,16.6V2.1h-20.4v14.6h8.2v2.5H201v16.8h3.9V22.5h6.2v4.3c-2.1,0.2-4,0.4-5.5,0.5l0.8,3.5
		c1.8-0.2,3.8-0.5,6-0.8c1.9-0.3,3.9-0.5,5.8-0.8c0.2,0.8,0.4,1.4,0.5,2l2.2-0.8v1.5c0,0.3-0.1,0.4-0.2,0.5
		c-0.1,0.1-0.3,0.1-0.6,0.2c-0.3,0-0.8,0-1.7,0c-0.8,0-1.7,0-2.6-0.1c0.2,0.5,0.4,1.1,0.7,1.7c0.2,0.6,0.4,1.2,0.4,1.7
		c1.4,0,2.6,0,3.6-0.1c1-0.1,1.8-0.2,2.4-0.5c0.7-0.3,1.1-0.6,1.4-1.2s0.3-1.3,0.3-2.2V19.1H223h-2h-6.3v-2.5H223.3z M223.8,20.1V32
		c0,1-0.1,1.5-0.3,1.8c0,0.1-0.2,0.4-0.8,0.6c-0.6,0.2-1.3,0.4-2.2,0.4c-0.7,0.1-1.5,0.1-2.5,0.1c0,0-0.1,0-0.2,0
		c-0.1-0.3-0.2-0.6-0.3-1c0-0.1-0.1-0.2-0.1-0.3c0.4,0,0.8,0,1.1,0h1.7c0.6,0,0.9-0.2,1.2-0.3c0.4-0.3,0.6-0.7,0.6-1.3V21.5h-8.3
		v6.1l4.8-0.5l-0.5-1.3c-0.2-0.4-0.4-0.8-0.5-1.1l0.5-0.2c0.3,0.5,0.5,1,0.7,1.6c0.4,0.8,0.7,1.6,1,2.4c0.1,0.3,0.2,0.6,0.3,0.9
		l1.3-0.2l-1.9,0.7c-0.1-0.3-0.2-0.7-0.3-1l-0.3-0.8l-6.7,0.9c-1.8,0.3-3.5,0.5-5.1,0.7l-0.3-1.4c1.3-0.1,2.8-0.2,4.4-0.4l0.9-0.1
		v-6.2h-8.2v13.3H202V20.1h10.1v-4.5h-8.2V3.1h18.4v12.6h-8.6v4.5H223.8z M217,26.2c-0.8,0.1-1.6,0.2-2.4,0.2v-4h6.3v6.6
		c-0.1-0.3-0.2-0.6-0.3-1c-0.3-0.8-0.6-1.6-1-2.5c-0.4-0.8-0.8-1.6-1.2-2.4l-2.4,0.8C216.4,24.7,216.7,25.5,217,26.2z"/>
	<path class="st0" d="M205.7,8.9h6.4V4.1h-6.4V8.9z M206.7,5.1h4.4v2.7h-4.4V5.1z"/>
	<path class="st0" d="M220.3,9.8h-6.6v4.8h6.6V9.8z M219.3,13.5h-4.6v-2.8h4.6V13.5z"/>
	<path class="st0" d="M220.3,4.1h-6.6v4.7h6.6V4.1z M219.3,7.9h-4.6V5.1h4.6V7.9z"/>
	<path class="st0" d="M70.8,33.6c0.3-0.4,0.6-0.7,0.9-1.2c0.3-0.4,0.7-0.8,1.1-1.2c0.4-0.4,0.7-0.7,1-1c-1.3-0.9-2.5-2-3.7-3.4
		c-1.2-1.4-2.3-2.8-3.2-4.4c-0.6-1.1-1.2-2.1-1.7-3.2h8.1v-3.9H64v-5.2h8V6.2h-8V0.6h-4.1v5.5h-7.2v3.9h7.2v5.2h-8.5v3.9h7.3
		c-0.6,1.2-1.2,2.3-2,3.5c-1.1,1.6-2.3,3.1-3.7,4.4c-1.4,1.3-2.8,2.4-4.4,3.2c0.3,0.3,0.6,0.6,1,1c0.4,0.4,0.7,0.8,1,1.2
		c0.3,0.4,0.6,0.8,0.8,1.1c1.6-1,3.1-2.3,4.5-3.8c1.4-1.5,2.7-3.2,3.8-5.1c0.1-0.1,0.1-0.2,0.2-0.3v11.4H64V24.4
		c0.9,1.8,2,3.5,3.1,5C68.3,31.1,69.5,32.4,70.8,33.6z M64.9,24L63,24.4v10.3h-2.1V20.6l-2,3.5c-1.1,1.8-2.3,3.5-3.7,5
		c-1.1,1.2-2.3,2.3-3.5,3.1c-0.1-0.1-0.2-0.2-0.2-0.3c-0.3-0.4-0.7-0.9-1.1-1.2c0,0,0-0.1-0.1-0.1c1.2-0.8,2.3-1.7,3.4-2.7
		c1.4-1.4,2.7-2.9,3.8-4.6c0.8-1.1,1.5-2.3,2-3.6l0.7-1.4h-7.9v-1.9h8.5V9.1h-7.2V7.2h7.2V1.6H63v5.5h8v1.9h-8v7.2h9.3v1.9h-8.7
		l0.7,1.4c0.5,1.1,1.1,2.2,1.7,3.3c1,1.6,2.1,3.2,3.3,4.6c0.9,1.1,1.9,2,2.9,2.8c-0.1,0.1-0.1,0.1-0.2,0.2c-0.4,0.4-0.8,0.9-1.2,1.3
		c-0.1,0.1-0.2,0.2-0.2,0.3c-0.9-0.9-1.8-2-2.7-3.2C66.8,27.4,65.8,25.8,64.9,24z"/>
</g>
</svg>
