<?xml version="1.0" encoding="utf-8"?>
<!-- Generator: Adobe Illustrator 27.9.1, SVG Export Plug-In . SVG Version: 6.00 Build 0)  -->
<svg version="1.1" id="Layer_1" xmlns="http://www.w3.org/2000/svg" xmlns:xlink="http://www.w3.org/1999/xlink" x="0px" y="0px"
	 viewBox="0 0 298.3 35.6" style="enable-background:new 0 0 298.3 35.6;" xml:space="preserve">
<style type="text/css">
	.st0{fill:#282828;}
</style>
<g>
	<polygon class="st0" points="4.6,23.2 4.4,23.7 4.6,23.2 	"/>
	<path class="st0" d="M10,21.4L10,21.4C10,21.4,10,21.4,10,21.4L10,21.4z"/>
	<path class="st0" d="M6.5,23.5c0,0.1,0,0.2,0,0.2L6.5,23.5L6.5,23.5z"/>
	<path class="st0" d="M1.4,29.8c0.2,0.5,0.4,1,0.5,1.4c0.6-0.9,1.2-2,1.8-3.2c0.6-1.2,1.1-2.5,1.6-3.9c0-0.1,0.1-0.2,0.1-0.3H4.4
		c-0.5,1.4-1,2.7-1.6,3.9c-0.2,0.5-0.4,0.9-0.7,1.4c-0.2-0.4-0.4-0.7-0.5-1.1c-0.1-0.3-0.3-0.5-0.4-0.8c0.6-0.9,1.3-2,1.9-3.2
		c0.7-1.4,1.4-3,2-4.5c0.3-0.8,0.6-1.7,0.9-2.5l0.4-1.3H1.5v-1.8h5V1.2h1.6v12.5H12v1.8H8.2v3.6l0.9-0.8c0.1,0.2,0.3,0.3,0.4,0.5
		c0.5,0.6,1,1.3,1.5,2c0.5,0.7,1,1.4,1.5,2c0.2,0.3,0.4,0.5,0.5,0.7L11.9,25c-0.1-0.2-0.2-0.3-0.2-0.5c-0.4-0.8-0.8-1.5-1.2-2.4
		l-0.4-0.8l-1.9,0.4v12.6H6.5V23.7h-1v11.7h3.6V21.8c0.1,0.3,0.3,0.5,0.4,0.8c0.4,0.8,0.8,1.6,1.2,2.4c0.4,0.7,0.7,1.4,0.9,2
		l2.6-3.2c-0.2-0.3-0.5-0.8-1-1.4c-0.5-0.6-1-1.3-1.5-2.1c-0.5-0.7-1.1-1.4-1.5-2c-0.5-0.6-0.8-1.1-1-1.3L9.2,17v-0.5H13v-3.8H9.2
		V11l2.4,0.7c0.3-0.7,0.6-1.6,0.9-2.6c0.3-1,0.6-2,1-3.1c0.3-1.1,0.7-2.1,1-3l-3.3-0.7c-0.1,0.9-0.3,1.8-0.5,2.9
		c-0.2,1.1-0.5,2.1-0.7,3.1C9.7,9.2,9.4,10,9.2,10.7V0.2H5.5v12.5h-5v3.8H5c-0.2,0.8-0.5,1.6-0.9,2.5c-0.6,1.5-1.2,3-1.9,4.4
		C1.5,24.9,0.7,26,0,27c0.2,0.4,0.4,0.8,0.7,1.3C0.9,28.8,1.2,29.3,1.4,29.8z M10.9,8.5c0.3-1,0.5-2.1,0.8-3.2
		C11.8,4.7,11.9,4,12,3.4l1.2,0.3c-0.2,0.6-0.4,1.3-0.6,2l-1,3.1c-0.2,0.6-0.4,1.2-0.6,1.7l-0.6-0.2C10.5,9.7,10.7,9.1,10.9,8.5z"/>
	<path class="st0" d="M214.4,10.6c1.5,0,2.9,0,4.3-0.1c1.4-0.1,2.6-0.1,3.8-0.2V5.9c-1,0.1-2.2,0.2-3.6,0.3
		c-1.4,0.1-2.8,0.1-4.3,0.2c-1.5,0-3,0-4.4-0.1c-1.4-0.1-2.7-0.2-3.9-0.4l0,4.4c1.1,0.1,2.4,0.2,3.8,0.2
		C211.5,10.6,212.9,10.6,214.4,10.6z M207.3,7c0.9,0.1,1.8,0.2,2.8,0.2c1.2,0.1,2.4,0.1,3.7,0.1l0.8,0c1.5,0,3-0.1,4.4-0.2
		c0.9-0.1,1.7-0.1,2.5-0.2v2.4c-0.9,0.1-1.8,0.1-2.8,0.2c-1.4,0.1-2.8,0.1-4.2,0.1s-2.9,0-4.2-0.1c-1,0-2-0.1-2.9-0.2L207.3,7z"/>
	<path class="st0" d="M14.1,12.3v3h21.7v-3h-9.2v-1.9H34V7.6h-7.4V5.9h8.2V2.9h-8.2V0.1h-3.9v2.9h-7.6v2.9h7.6v1.7h-6.6v2.8h6.6v1.9
		H14.1z M17.1,9.4V8.6h6.6V4.9h-7.6V3.9h7.6V1.1h1.9v2.9h8.2v0.9h-8.2v3.7H33v0.8h-7.4v3.9h9.2v1H15.1v-1h8.6V9.4H17.1z"/>
	<path class="st0" d="M4.3,5.3c-0.3-1-0.6-2-0.9-2.9L0.6,3.1C1,4,1.2,5,1.5,6C1.7,7,2,8.1,2.1,9c0.2,1,0.3,1.9,0.3,2.6L5.3,11
		c-0.1-0.8-0.2-1.7-0.4-2.6C4.8,7.4,4.5,6.4,4.3,5.3z M3.4,10.4c-0.1-0.5-0.1-1-0.2-1.6c-0.2-1-0.4-2-0.7-3.1
		C2.3,5.1,2.1,4.4,1.9,3.8l0.8-0.2c0.2,0.6,0.4,1.3,0.6,2c0.3,1,0.5,2,0.7,2.9c0.1,0.6,0.2,1.2,0.3,1.7L3.4,10.4z"/>
	<path class="st0" d="M30.7,19H19v4.1h11.7V19z M29.7,22.1H20V20h9.7V22.1z"/>
	<path class="st0" d="M20,29.6h9.7v2.1c0,0.2,0,0.3-0.1,0.4c-0.1,0.1-0.3,0.1-0.5,0.1c-0.2,0-0.7,0-1.4,0c-0.7,0-1.4,0-2.1-0.1
		c0.2,0.5,0.4,1,0.6,1.6c0.2,0.6,0.3,1.2,0.4,1.6c1.2,0,2.3,0,3.2-0.1c0.9-0.1,1.6-0.2,2.2-0.5c0.6-0.3,1-0.7,1.2-1.2
		c0.2-0.5,0.3-1.2,0.3-2.1V17.1h-2.9h-1H16.2v18.5H20V29.6z M19,34.5h-1.8V18.1h15.3v13.7c0,0.9-0.1,1.4-0.2,1.7
		c-0.1,0.3-0.4,0.5-0.7,0.6c-0.5,0.2-1.1,0.3-1.9,0.4c-0.6,0-1.3,0.1-2.1,0.1c-0.1,0-0.1,0-0.2,0c-0.1-0.3-0.2-0.6-0.3-1
		c0-0.1-0.1-0.2-0.1-0.3c0.2,0,0.4,0,0.6,0c0.2,0,0.5,0,0.6,0c0.4,0,0.6,0,0.8,0c0.2,0,0.8,0,1.2-0.4c0.3-0.3,0.4-0.7,0.4-1.1v-3.1
		H19V34.5z"/>
	<path class="st0" d="M30.7,23.8H19v4.1h11.7V23.8z M29.7,26.9H20v-2.1h9.7V26.9z"/>
	<path class="st0" d="M197.8,14.7c0.1-1.1,0.3-2.2,0.5-3.2c0.2-1.1,0.3-2,0.5-2.9c0.2-0.9,0.3-1.6,0.4-2.1c0.1-0.2,0.1-0.5,0.2-1
		c0.1-0.4,0.2-0.8,0.3-1.2c0.1-0.4,0.2-0.7,0.3-1l-4.8-0.4c0,0.6-0.1,1.1-0.2,1.7c-0.1,0.6-0.1,1.2-0.2,1.7
		c-0.1,0.8-0.3,1.7-0.5,2.8c-0.2,1.1-0.4,2.4-0.5,3.7c-0.2,1.4-0.3,2.8-0.5,4.2c-0.1,1.5-0.2,2.9-0.2,4.3c0,2.6,0.2,5,0.5,7.1
		c0.3,2.2,0.6,3.9,1,5.2l3.9-0.3c0-0.3,0-0.5-0.1-0.8c0-0.3,0-0.5,0-0.7c0-0.2,0-0.5,0.1-0.8c0-0.4,0.1-0.7,0.1-1
		c0.2-0.6,0.4-1.5,0.7-2.5c0.3-1,0.6-2.1,1-3.3c0.4-1.2,0.7-2.3,1.1-3.3l-2.2-1.7c-0.2,0.4-0.4,0.9-0.6,1.4c-0.2,0.5-0.4,1-0.6,1.5
		c-0.2,0.5-0.4,1-0.6,1.4c-0.1-0.5-0.1-1.1-0.1-1.6c0-0.6-0.1-1.1-0.1-1.6c0-0.8,0.1-1.7,0.2-2.7C197.5,16.8,197.7,15.8,197.8,14.7z
		 M196.4,22.2c0,0.6,0.1,1.1,0.1,1.7l0.4,3.8l1.5-3.5c0.2-0.5,0.4-0.9,0.6-1.5c0.2-0.5,0.7-1.6,0.7-1.7l0.6,0.4
		c-0.3,0.8-0.6,1.7-0.9,2.6c-0.4,1.2-0.7,2.3-1,3.3c-0.3,1.1-0.5,1.9-0.7,2.5c-0.1,0.4-0.1,0.7-0.2,1.1c0,0.4-0.1,0.7-0.1,0.9
		c0,0.1,0,0.3,0,0.6l-2.1,0.1c-0.3-1.2-0.6-2.6-0.8-4.3c-0.3-2.1-0.4-4.5-0.4-7c0-1.4,0.1-2.8,0.2-4.2c0.1-1.4,0.3-2.9,0.5-4.2
		c0.2-1.4,0.4-2.6,0.5-3.7c0.2-1.1,0.3-2.1,0.5-2.8c0.1-0.6,0.1-1.1,0.2-1.7c0-0.3,0.1-0.5,0.1-0.8l2.5,0.2
		c-0.1,0.4-0.2,0.7-0.3,1.1c-0.1,0.4-0.2,0.7-0.2,1c-0.1,0.6-0.2,1.3-0.4,2.2c-0.2,0.9-0.3,1.9-0.5,2.9c-0.2,1.1-0.3,2.1-0.5,3.2
		c-0.1,1.1-0.3,2.2-0.4,3.2c-0.1,1-0.2,2-0.2,2.8C196.3,21.1,196.3,21.6,196.4,22.2z"/>
	<path class="st0" d="M214,28.1c-1.1,0-2-0.1-2.7-0.2c-0.7-0.1-1.3-0.3-1.7-0.6c-0.4-0.3-0.8-0.6-0.9-0.9c-0.2-0.4-0.3-0.8-0.3-1.2
		c0-0.5,0-1,0.1-1.5c0.1-0.5,0.2-1.1,0.3-1.7l-3.9-0.3c-0.2,0.9-0.4,1.8-0.5,2.6c-0.1,0.8-0.2,1.5-0.2,2.2c0,1.9,0.8,3.4,2.3,4.5
		c1.6,1.1,4,1.6,7.2,1.6c2.1,0,3.9-0.1,5.5-0.2c1.6-0.1,3-0.3,4.2-0.6l-0.1-4.6c-1.6,0.4-3.2,0.6-4.7,0.8
		C217.3,28,215.7,28.1,214,28.1z M222.5,28.3l0,2.5c-1,0.2-2.1,0.3-3.3,0.4c-1.6,0.1-3.4,0.2-5.4,0.2c-3,0-5.3-0.5-6.6-1.4
		c-1.3-0.9-1.9-2.1-1.9-3.6c0-0.7,0.1-1.4,0.2-2.1c0.1-0.5,0.2-1.1,0.3-1.6l1.9,0.2c0,0.2-0.1,0.5-0.1,0.7c-0.1,0.6-0.1,1.1-0.1,1.7
		c0,0.6,0.1,1.1,0.4,1.7c0.3,0.5,0.7,1,1.3,1.3c0.5,0.3,1.2,0.5,2,0.7c0.8,0.2,1.7,0.2,2.9,0.2c1.7,0,3.4-0.1,4.9-0.3
		C220.1,28.7,221.3,28.6,222.5,28.3z"/>
	<path class="st0" d="M180.1,30.7c-1.4-0.5-2.8-1-4.2-1.5l-3.4,1.9c1.3,0.5,2.6,1,3.9,1.5c1.3,0.5,2.4,1.1,3.5,1.6
		c1.1,0.5,2,1,2.7,1.4l4.7-1.9c-0.9-0.4-2-0.9-3.2-1.4C182.9,31.8,181.5,31.2,180.1,30.7z M182.8,34.5c-0.7-0.4-1.5-0.8-2.4-1.2
		c-1.1-0.5-2.3-1-3.6-1.6c-0.6-0.3-1.3-0.5-1.9-0.8l1.2-0.7c1.2,0.4,2.5,0.9,3.7,1.3c1.4,0.5,2.7,1.1,4,1.6c0.4,0.2,0.7,0.3,1.1,0.5
		L182.8,34.5z"/>
	<path class="st0" d="M286,26.6c-0.9-1.2-2.2-1.7-3.7-1.7c-1,0-1.8,0.3-2.5,0.9c-0.9,0.8-1,1.6-1,2.2c0,0.8,0.3,1.9,1.7,2.7
		c0.9,0.5,2.1,0.8,3.6,0.8c0.8,0,1.7,0,2.5-0.1l1-0.1l-0.1-1C287.2,28.7,286.8,27.5,286,26.6z M283.9,30.4c-1.3,0-2.3-0.2-3.1-0.7
		c-0.8-0.5-1.2-1.1-1.2-1.8c0-0.5,0.2-1,0.7-1.4c0.5-0.4,1.1-0.6,1.8-0.6c1.2,0,2.2,0.5,3,1.4c0.6,0.8,1,1.8,1.1,3
		C285.6,30.3,284.8,30.4,283.9,30.4z"/>
	<path class="st0" d="M275,22.2c1-1,2.1-1.8,3.2-2.4c1.1-0.7,2.3-1.2,3.5-1.5c1.2-0.4,2.6-0.6,4.1-0.6c1.5,0,2.9,0.3,4.1,0.8
		c1.2,0.5,2.2,1.2,2.9,2.1c0.7,0.9,1.1,1.9,1.1,3.1c0,1.4-0.4,2.6-1.1,3.6c-0.6,0.8-1.4,1.4-2.5,1.9c-0.1-1-0.5-1.9-0.9-2.8
		c-0.6-1.2-1.5-2.1-2.7-2.8c-1.2-0.7-2.6-1-4.4-1c-1.3,0-2.4,0.3-3.4,0.8c-1,0.5-1.8,1.2-2.3,2.1c-0.5,0.9-0.8,1.8-0.8,2.8
		c0,1.2,0.4,2.3,1.2,3.2c0.8,0.9,1.8,1.6,3.2,2.1c1.4,0.5,2.9,0.7,4.7,0.7c3,0,5.5-0.5,7.5-1.4c2-0.9,3.5-2.2,4.6-3.8
		s1.5-3.4,1.5-5.4c0-1.8-0.5-3.4-1.5-4.8s-2.3-2.5-4-3.3c-1.7-0.8-3.6-1.2-5.7-1.2c-0.7,0-1.4,0-2,0.1c-0.7,0.1-1.4,0.2-2.1,0.4
		c0.7-0.5,1.4-1.1,2.2-1.8c0.8-0.7,1.6-1.3,2.5-2c0.8-0.7,1.6-1.3,2.4-1.9c0.7-0.6,1.4-1.1,1.9-1.4c0.4-0.3,0.8-0.6,1.3-0.9
		c0.4-0.3,0.8-0.5,1.3-0.8l-2.2-3.1c-0.2,0.1-0.6,0.1-1,0.2c-0.4,0.1-1,0.1-1.7,0.2c-0.4,0-1.1,0.1-1.9,0.1
		c-0.8,0.1-1.8,0.1-2.8,0.1c-1.1,0-2.1,0.1-3.1,0.1c-1,0-2,0.1-2.8,0.1c-0.8,0-1.5,0-1.9,0c-0.5,0-1,0-1.6-0.1
		c-0.6,0-1.1-0.1-1.6-0.1l0.2,4.4c0.4-0.1,0.9-0.1,1.4-0.2c0.5,0,1-0.1,1.5-0.1c0.4,0,0.9-0.1,1.6-0.1c0.7,0,1.4-0.1,2.2-0.1
		c0.8,0,1.6-0.1,2.4-0.1c0.8,0,1.5-0.1,2.2-0.1c0.7,0,1.2-0.1,1.6-0.1c-0.5,0.4-1,0.9-1.7,1.5c-0.7,0.6-1.5,1.2-2.2,1.9
		c-0.8,0.7-1.5,1.3-2.3,1.9c-0.7,0.6-1.4,1.1-1.9,1.6c-0.6,0.5-1.2,1-2.1,1.7c-0.8,0.7-1.7,1.4-2.6,2.2s-1.8,1.5-2.7,2.2
		c-0.9,0.7-1.7,1.4-2.4,1.9l3.1,3.2C272.9,24.2,274,23.1,275,22.2z M270.3,22.3c0.5-0.4,1-0.8,1.5-1.3l2.7-2.2
		c0.9-0.8,1.8-1.5,2.6-2.2c0.8-0.7,1.5-1.2,2-1.7c0.5-0.4,1.2-1,1.9-1.6c0.7-0.6,1.5-1.2,2.3-1.9l2.2-1.9c0.7-0.6,1.3-1.1,1.8-1.5
		l2-1.7h-2.6c-0.4,0-0.9,0-1.6,0.1c-0.7,0-1.4,0.1-2.1,0.1c-0.8,0-1.6,0.1-2.4,0.1c-0.8,0-1.5,0.1-2.2,0.1l-1.6,0.1
		c-0.5,0-1,0.1-1.5,0.1c-0.1,0-0.3,0-0.4,0l-0.1-2.2c0.2,0,0.3,0,0.5,0c0.6,0,1.2,0.1,1.7,0.1c0.4,0,1,0,1.9,0
		c0.8,0,1.8-0.1,2.8-0.1l3.1-0.1c1.1,0,2-0.1,2.9-0.1l1.9-0.1c0.8-0.1,1.3-0.1,1.8-0.2c0.1,0,0.3,0,0.4-0.1l1.2,1.7
		c-0.1,0.1-0.2,0.2-0.4,0.2c-0.5,0.3-0.9,0.6-1.3,0.9c-0.5,0.3-1.1,0.8-1.9,1.4c-0.7,0.6-1.5,1.2-2.4,1.9c-0.8,0.7-1.7,1.4-2.5,2
		l-2.2,1.8l0.9,1.7c0.6-0.2,1.3-0.3,1.9-0.4c0.6-0.1,1.3-0.1,1.9-0.1c2,0,3.7,0.4,5.3,1.1c1.5,0.7,2.7,1.7,3.6,3
		c0.9,1.2,1.3,2.6,1.3,4.3c0,1.8-0.5,3.4-1.4,4.9c-0.9,1.4-2.3,2.6-4.1,3.4c-1.9,0.9-4.2,1.3-7,1.3c-1.6,0-3.1-0.2-4.3-0.7
		c-1.2-0.4-2.1-1-2.8-1.8c-0.6-0.7-0.9-1.5-0.9-2.5c0-0.8,0.2-1.5,0.7-2.2c0.4-0.7,1.1-1.3,1.9-1.7c0.8-0.5,1.8-0.7,2.9-0.7
		c1.5,0,2.8,0.3,3.8,0.9c1,0.6,1.8,1.4,2.3,2.4c0.4,0.8,0.7,1.6,0.8,2.4l0.2,1.3l1.2-0.6c1.2-0.6,2.1-1.3,2.8-2.2
		c0.9-1.2,1.3-2.6,1.3-4.2c0-1.4-0.4-2.6-1.3-3.7c-0.8-1-1.9-1.8-3.3-2.4c-1.3-0.6-2.8-0.8-4.5-0.8c-1.6,0-3.1,0.2-4.4,0.6
		c-1.3,0.4-2.6,0.9-3.7,1.6c-1.1,0.7-2.3,1.5-3.3,2.5c-0.8,0.8-1.7,1.6-2.5,2.5L270.3,22.3z"/>
	<path class="st0" d="M180,19.4h-19.3v3.9H180V19.4z M179,22.3h-17.3v-1.9H179V22.3z"/>
	<path class="st0" d="M180,23.7h-19.3v4H180V23.7z M179,26.7h-17.3v-2H179V26.7z"/>
	<path class="st0" d="M180,15.1h-19.3V19H180V15.1z M179,18h-17.3v-1.9H179V18z"/>
	<path class="st0" d="M175,4.2c0.8-0.1,1.7-0.1,2.5-0.2c1.5-0.2,2.9-0.3,4.3-0.6c1.4-0.2,2.7-0.5,3.8-0.9l-2.5-2.4
		c-0.8,0.3-1.8,0.5-3,0.7c-1.2,0.2-2.5,0.4-3.8,0.6c-0.7,0.1-1.4,0.2-2,0.2L171.4,1v3.5c0,0.7-0.1,1.4-0.3,2.2s-0.5,1.5-1,2.2
		c-0.5,0.7-1.3,1.4-2.4,2.1c0.3,0.2,0.6,0.4,0.9,0.7c0.3,0.3,0.6,0.7,0.9,1c0.3,0.3,0.5,0.6,0.7,0.9h-12.4v15.6h6.1
		c-0.8,0.5-1.8,0.9-3,1.3c-1.2,0.4-2.5,0.8-3.9,1.2c-1.4,0.4-2.7,0.7-4.1,0.9c0.3,0.2,0.6,0.5,1,0.9c0.4,0.4,0.7,0.7,1.1,1.1
		c0.4,0.4,0.7,0.7,0.9,1c1.3-0.4,2.7-0.8,4.1-1.3c1.4-0.5,2.8-1.1,4.2-1.7c1.4-0.6,2.6-1.2,3.6-1.9l-3.5-1.6h18.8V13.6h-12.7
		c1.2-0.8,2.2-1.8,2.9-2.8c0.4-0.7,0.8-1.4,1.1-2.1h4.3v4.2h3.6V8.7h5.1v-3h-12.3c0-0.4,0.1-0.7,0.1-1V4.2z M165.6,30.9
		c-0.6,0.3-1.2,0.6-1.8,0.9c-1.3,0.6-2.7,1.2-4.1,1.7c-1.2,0.4-2.3,0.8-3.4,1.1c-0.2-0.2-0.3-0.3-0.5-0.5c-0.2-0.3-0.5-0.5-0.7-0.8
		c0.7-0.2,1.5-0.3,2.2-0.5c1.4-0.4,2.7-0.8,4-1.2c1.1-0.4,2-0.8,2.9-1.2L165.6,30.9z M182.1,14.6v13.6h-17.8l-0.2,1l-0.2-1h-5.1
		V14.6H182.1z M174.9,6.7h11.3v1h-5.1v4.2h-1.6V7.7h-6l-0.2,0.6c-0.2,0.6-0.6,1.3-1,1.9c-0.5,0.7-1.1,1.4-1.9,2
		c0-0.1-0.1-0.1-0.2-0.2c-0.3-0.4-0.6-0.7-0.9-1c0.6-0.5,1.2-1,1.6-1.6c0.6-0.8,1-1.7,1.2-2.6c0.2-0.8,0.3-1.6,0.3-2.4V2.2l1.8,0.4
		l0.2,0c0.7-0.1,1.4-0.2,2.1-0.2c1.3-0.2,2.6-0.4,3.8-0.6c1-0.2,1.8-0.4,2.6-0.6l0.8,0.8c-0.6,0.1-1.3,0.3-2,0.4
		c-1.4,0.2-2.8,0.4-4.2,0.6c-0.9,0.1-1.7,0.2-2.5,0.2L174,3.3v1.3c0,0.3,0,0.6-0.1,0.9l-0.1,1.1L174.9,6.7z"/>
	<path class="st0" d="M70.3,9.2H64V15h6.3V9.2z M69.3,14H65v-3.8h4.3V14z"/>
	<path class="st0" d="M62.1,16.4h-6.2v5.9h6.2V16.4z M61.1,21.3h-4.2v-3.9h4.2V21.3z"/>
	<path class="st0" d="M70.3,16.4H64v5.9h6.3V16.4z M69.3,21.3H65v-3.9h4.3V21.3z"/>
	<path class="st0" d="M62.1,9.2h-6.2V15h6.2V9.2z M61.1,14h-4.2v-3.8h4.2V14z"/>
	<path class="st0" d="M39.1,24.5c0.2,0.5,0.4,0.9,0.5,1.3c1.4-1,2.8-2.2,4.2-3.5v13.2h4V19.9c0.2,0.3,0.5,0.5,0.7,0.8
		c0.5,0.6,1,1.1,1.4,1.6c0.4,0.5,0.8,1,1.1,1.3l2.2-3v5.8h3.7V25h4.2v10.5H65V25h4.3v1.3h3.9V6.6H65V0.1h-3.9v6.5h-7.9v13.6
		c-0.2-0.2-0.4-0.4-0.7-0.7c-0.5-0.4-1-0.9-1.5-1.3c-0.6-0.5-1.1-0.9-1.6-1.3c-0.2-0.2-0.4-0.4-0.6-0.5c0.2-0.3,0.4-0.6,0.6-1
		c1.4-2.2,2.5-4.5,3.4-6.9L50.5,7l-0.7,0.2H49h-1.2v-7h-4v7h-4.8v3.7h8.7c-0.4,0.9-0.9,1.7-1.5,2.6c-1.2,1.8-2.5,3.5-4,5
		c-1.5,1.5-3,2.7-4.6,3.7c0.2,0.3,0.5,0.6,0.7,1.1C38.6,23.6,38.9,24,39.1,24.5z M54.2,7.6h7.9V1.1H64v6.5h8.2v17.7h-1.9V24H64v10.5
		h-1.9V24h-6.2v1.5h-1.7V7.6z M43,19c1.5-1.5,2.9-3.3,4.1-5.1c0.6-0.9,1.1-1.7,1.5-2.7l0.7-1.5h-9.3V8.1h4.8v-7h2v7h3.1L50.3,8
		l1.2,0.8c-0.8,2.1-1.8,4.1-3,6c-0.2,0.2-0.3,0.5-0.5,0.7l-0.7,1l0.7,0.6c0.2,0.1,0.4,0.3,0.6,0.5c0.5,0.4,1,0.9,1.6,1.3
		c0.6,0.5,1.1,0.9,1.5,1.3c0.1,0.1,0.2,0.2,0.3,0.3L51,22c-0.1-0.1-0.2-0.2-0.3-0.3c-0.4-0.5-0.9-1.1-1.4-1.6
		c-0.2-0.3-0.5-0.5-0.7-0.8l-1.7-1.9v17.2h-2V19.9l-1.7,1.7c-1,1-2,1.9-3,2.7c0-0.1-0.1-0.1-0.1-0.2c-0.2-0.5-0.5-1-0.7-1.5
		c-0.1-0.1-0.1-0.2-0.2-0.3C40.5,21.4,41.8,20.3,43,19z"/>
	<path class="st0" d="M255.7,12.6c-0.3-0.9-0.6-1.9-0.8-2.9L254.7,9H251l-0.3,1c-0.2,0.8-0.5,1.6-0.9,2.6l-0.5,1.4h6.9L255.7,12.6z
		 M250.8,12.9c0.3-0.9,0.7-1.7,0.9-2.7c0-0.1,0.1-0.2,0.1-0.3h2.2c0.3,1,0.5,2,0.9,3H250.8z"/>
	<path class="st0" d="M233.9,1.4h-1.7h-1.7v13.8c0,1.4,0,2.9-0.1,4.5s-0.2,3.2-0.3,4.9c-0.2,1.7-0.4,3.3-0.7,4.8
		c-0.3,1.6-0.7,3-1.3,4.3c0.3,0.1,0.7,0.3,1,0.5c0.4,0.2,0.8,0.4,1.2,0.6c0.4,0.2,0.7,0.4,0.9,0.6c0.6-1.4,1-3,1.4-4.7
		c0.3-1.7,0.6-3.5,0.8-5.3c0.1-0.9,0.2-1.7,0.2-2.6h3.6v8.2c0,0.3,0,0.4-0.1,0.5c-0.1,0.1-0.2,0.1-0.5,0.2c-0.2,0-0.6,0-1.2,0
		c-0.6,0-1.2,0-1.8-0.1c0.3,0.5,0.5,1.2,0.7,1.9c0.2,0.7,0.3,1.4,0.4,1.8c1.1,0,2.1,0,2.9-0.1c0.8-0.1,1.4-0.3,1.9-0.6
		c0.5-0.3,0.9-0.8,1.1-1.3c0.2-0.6,0.3-1.3,0.3-2.2v-9.3c0,0,0,0,0.1,0.1c0.3,0.4,0.6,0.8,0.9,1.2c0.3,0.4,0.5,0.7,0.6,1
		c0.6-0.4,1.2-0.9,1.7-1.4v2.3h4.5c-0.2,0.6-0.4,1.2-0.7,1.8c-0.5,1.2-1.3,2.3-2.4,3.2c-1,0.9-2.4,1.7-4.2,2.4
		c0.4,0.4,0.9,0.8,1.3,1.5c0.4,0.6,0.8,1.2,1,1.7c2-0.8,3.5-1.8,4.7-3c1.2-1.1,2.1-2.4,2.8-3.9c0.5-1.1,0.9-2.3,1.2-3.6h4.2
		c-0.1,0.9-0.1,1.6-0.2,2.3c-0.1,1.3-0.3,2.3-0.4,3c-0.1,0.7-0.3,1.1-0.5,1.3c-0.2,0.2-0.3,0.3-0.5,0.3c-0.2,0-0.4,0.1-0.7,0.1
		s-0.7,0-1.3,0c-0.6,0-1.3-0.1-2-0.1c0.3,0.5,0.5,1,0.7,1.7c0.2,0.6,0.3,1.2,0.3,1.7c0.8,0.1,1.6,0.1,2.4,0.1c0.8,0,1.4,0,1.8-0.1
		c0.5-0.1,1-0.2,1.4-0.4c0.4-0.2,0.8-0.5,1.1-0.9c0.3-0.4,0.6-1,0.8-1.8s0.4-2,0.5-3.4c0.2-1.5,0.3-3.4,0.4-5.7c0-0.1,0-0.1,0-0.2
		c0.4,0.4,0.9,0.8,1.3,1.1c0.3-0.5,0.7-1.1,1.2-1.7c0.5-0.6,1-1.1,1.4-1.5c-1.3-0.8-2.4-1.8-3.4-3.1c-0.4-0.5-0.7-1-1.1-1.5h3.5
		v-3.3h-5.3c-0.4-1-0.8-2-1.1-3h5.7V6.7h-4.3c0.4-0.6,0.9-1.4,1.4-2.2c0.6-1,1.1-1.9,1.6-2.9L258,0.4c-0.2,0.5-0.4,1.1-0.7,1.8
		c-0.3,0.7-0.6,1.3-0.9,2c-0.3,0.6-0.6,1.2-0.9,1.7l2.3,0.8h-5.2c0.4-2,0.8-4.1,1.1-6.3L250,0c-0.2,2.4-0.6,4.6-1.1,6.7h-3.5l2.8-1
		c-0.2-0.7-0.5-1.5-0.9-2.4c-0.4-0.9-0.8-1.8-1.3-2.6l-3.1,1.1c0.4,0.8,0.8,1.7,1.2,2.6c0.4,0.9,0.6,1.7,0.7,2.3h-2.4V10h5.6
		c-0.3,1-0.7,2-1.2,3h-5.2v3.3h3.3c-1.1,1.6-2.4,3-4,4.1v-19h-1.1h-2.5H233.9z M259.7,23.1c-0.1,2.3-0.3,4.2-0.4,5.7
		c-0.1,1.4-0.3,2.5-0.5,3.3c-0.2,0.8-0.4,1.2-0.6,1.4c-0.2,0.3-0.5,0.5-0.7,0.6c-0.3,0.1-0.7,0.2-1.1,0.3c-0.4,0-1,0.1-1.7,0.1
		l-0.4,0c-0.3,0-0.7,0-1,0c-0.1-0.3-0.1-0.7-0.3-1.1c0-0.1-0.1-0.2-0.1-0.2c0.1,0,0.3,0,0.4,0c0.6,0,1,0,1.3,0c0.4,0,0.7,0,0.9-0.1
		c0.3-0.1,0.7-0.3,1-0.6c0.4-0.4,0.6-0.9,0.8-1.9c0.1-0.7,0.3-1.7,0.4-3.1c0.1-0.7,0.1-1.4,0.2-2.3l0.1-1.1h-6.1l-0.2,0.8
		c-0.3,1.2-0.7,2.4-1.1,3.4c-0.6,1.3-1.5,2.6-2.6,3.6c-0.9,0.9-2.2,1.7-3.6,2.4c-0.2-0.3-0.4-0.6-0.6-0.9c-0.1-0.2-0.3-0.4-0.4-0.5
		c1.2-0.6,2.3-1.3,3.1-2c1.1-1,2-2.2,2.6-3.5c0.3-0.6,0.5-1.2,0.7-1.9l0.4-1.3h-4.9v-1.3h5.1l0.1-0.9c0.1-1,0.2-1.9,0.3-2.8h1.7
		c-0.1,0.9-0.1,1.7-0.2,2.6l-0.1,1.1h7.7L259.7,23.1z M249.7,18.1c-0.1,1.3-0.2,2.5-0.3,3.7h-4.1c1.1-1.1,2.1-2.3,2.9-3.6
		c0.4-0.6,0.8-1.2,1.1-1.9h6.8c0.7,1.5,1.4,2.8,2.3,4c0.4,0.5,0.8,1,1.2,1.5h-1.4H257h-3.8c0.1-1.2,0.2-2.4,0.3-3.7H249.7z
		 M256.9,5.3c0.1-0.2,0.2-0.5,0.4-0.7c0.3-0.7,0.6-1.3,0.9-2c0.2-0.3,0.3-0.7,0.4-1l1.7,0.5c-0.3,0.6-0.7,1.2-1,1.8
		c-0.4,0.7-0.8,1.4-1.2,2l0-0.2L256.9,5.3z M244.3,2.2l1.2-0.4c0.3,0.6,0.6,1.1,0.9,1.8c0.2,0.5,0.4,1,0.6,1.4l-1.3,0.5
		c-0.1-0.5-0.3-1-0.6-1.6C244.8,3.3,244.5,2.8,244.3,2.2z M245.7,16.8l1.1-1.6h-4.2v-1.3h4.8l0.3-0.6c0.4-0.9,0.8-2,1.2-3.1l0.4-1.3
		h-6V7.7h6.3l0.2-0.8c0.4-1.8,0.8-3.8,1-5.8l1.7,0.2c-0.2,1.7-0.6,3.5-0.9,5.2l-0.3,1.2H262V9h-6l0.4,1.3c0.3,1.1,0.7,2.1,1.1,3.1
		l0.3,0.6h4.9v1.3h-4.4l1,1.5c0.4,0.6,0.8,1.1,1.1,1.6c0.8,1,1.7,1.9,2.6,2.6c-0.2,0.2-0.4,0.4-0.6,0.7c-0.3,0.3-0.5,0.6-0.7,0.9
		c-0.1-0.1-0.3-0.2-0.4-0.4l-0.6-0.5l-0.5-0.6c-0.5-0.5-0.8-0.9-1.1-1.4c-0.8-1.1-1.5-2.4-2.2-3.8l-0.3-0.6h-8.1l-0.3,0.5
		c-0.4,0.7-0.7,1.3-1.1,1.8c-0.8,1.2-1.7,2.3-2.8,3.4l-0.6,0.6l-0.4,0.3c-0.3,0.2-0.5,0.5-0.8,0.7c0,0-0.1-0.1-0.1-0.1
		c-0.3-0.4-0.6-0.8-0.9-1.2l-0.2-0.2C243.2,19.9,244.6,18.5,245.7,16.8z M239.9,2.4v28.8c0,0.8-0.1,1.4-0.2,1.9
		c-0.1,0.3-0.3,0.6-0.6,0.8c-0.4,0.3-0.9,0.4-1.6,0.5c-0.5,0.1-1.2,0.1-1.9,0.1c-0.1-0.3-0.1-0.7-0.2-1.1c-0.1-0.2-0.1-0.4-0.2-0.6
		c0.1,0,0.2,0,0.3,0c0.6,0,1,0,1.2,0l0.1,0c0.5-0.1,0.9-0.2,1.1-0.5c0.3-0.4,0.4-0.8,0.4-1.2v-9.2h-5.5l-0.1,0.9
		c-0.1,0.8-0.1,1.7-0.2,2.6c-0.2,1.8-0.4,3.5-0.8,5.2c-0.2,1.2-0.5,2.3-0.9,3.4c-0.4-0.2-0.8-0.4-1.2-0.6c-0.1,0-0.2-0.1-0.2-0.1
		c0.4-1.1,0.7-2.3,1-3.6c0.3-1.6,0.5-3.3,0.7-4.9c0.2-1.7,0.3-3.3,0.3-4.9c0.1-1.6,0.1-3.1,0.1-4.5V2.4H239.9z"/>
	<path class="st0" d="M238.3,4.1h-5.3v7.1h5.3V4.1z M237.3,10.1h-3.3V5.1h3.3V10.1z"/>
	<path class="st0" d="M238.3,12.8h-5.3v2.3c0,1.2,0,2.5-0.1,3.9l0,1h5.4V12.8z M237.3,19.1h-3.4c0-1.4,0.1-2.7,0.1-3.9v-1.3h3.3
		V19.1z"/>
	<path class="st0" d="M154.5,14.3c0.3,0.3,0.6,0.6,0.7,0.9c1.1-1,2-2.2,2.6-3.4c0.5-1,0.8-2,1.1-3h3.7v4.2h3.6V8.7h3.8v-3h-10.8
		c0-0.3,0.1-0.7,0.1-1V4.2c0.8-0.1,1.6-0.1,2.4-0.2c1.4-0.2,2.7-0.4,4-0.6c1.3-0.3,2.5-0.5,3.6-0.8l-2.5-2.4
		c-0.8,0.3-1.7,0.5-2.8,0.7c-1.1,0.2-2.3,0.4-3.5,0.6c-0.7,0.1-1.3,0.2-1.9,0.2L155.7,1v3.5c0,0.8-0.1,1.7-0.2,2.7
		c-0.2,0.9-0.5,1.9-0.9,2.8c-0.4,0.9-1.1,1.8-2.1,2.7c0.3,0.2,0.6,0.4,0.9,0.7C153.8,13.6,154.1,13.9,154.5,14.3z M155.5,10.4
		c0.5-1,0.8-2.1,1-3.1c0.2-1,0.2-1.9,0.2-2.8V2.2l1.7,0.4l0.8-0.1c0.5-0.1,0.9-0.1,1.4-0.2c1.2-0.2,2.4-0.4,3.5-0.6
		c0.9-0.2,1.7-0.4,2.3-0.6l0.8,0.8c-0.6,0.1-1.1,0.3-1.8,0.4c-1.3,0.2-2.6,0.4-3.9,0.6c-0.8,0.1-1.6,0.2-2.3,0.2l-0.9,0.1v1.4
		c0,0.2,0,0.5,0,0.7l-0.1,1.3H169v1h-3.8v4.2h-1.6V7.7H158l-0.2,0.8c-0.2,1-0.5,1.9-1,2.8c-0.4,0.8-0.9,1.6-1.6,2.4
		c0,0-0.1-0.1-0.1-0.1c-0.3-0.4-0.7-0.7-1.1-1c0,0,0,0-0.1-0.1C154.7,11.8,155.2,11.1,155.5,10.4z"/>
	<path class="st0" d="M84.4,30.5c0.2-0.7,0.4-1.5,0.7-2.5c0.3-1,0.6-2.1,1-3.2c0.4-1.1,0.7-2.2,1.1-3.2L85,19.9
		c-0.2,0.5-0.4,0.9-0.6,1.4s-0.4,1-0.6,1.5c-0.2,0.5-0.4,1-0.6,1.5c-0.1-0.5-0.1-1.1-0.2-1.7S83,21.5,83,21c0-0.8,0-1.7,0.1-2.8
		c0.1-1.1,0.2-2.2,0.3-3.3c0.1-1.2,0.3-2.3,0.5-3.4c0.2-1.1,0.3-2.2,0.5-3.1c0.2-0.9,0.3-1.7,0.4-2.3c0.1-0.2,0.1-0.5,0.2-1
		c0.1-0.4,0.2-0.8,0.3-1.2c0.1-0.4,0.2-0.7,0.3-1l-4.7-0.4c0,0.5-0.1,1.1-0.1,1.7c-0.1,0.6-0.1,1.2-0.2,1.7
		c-0.1,0.8-0.2,1.7-0.4,2.9c-0.2,1.2-0.4,2.5-0.5,4c-0.2,1.5-0.3,3-0.5,4.5C79,19,79,20.5,79,21.9c0,2.6,0.2,4.9,0.5,7
		c0.3,2.1,0.6,3.8,1,5.1l3.8-0.3c0-0.3,0-0.5,0-0.8c0-0.3,0-0.5,0-0.7c0-0.2,0-0.5,0.1-0.9C84.3,31,84.3,30.7,84.4,30.5z M84.1,27.7
		c-0.3,1-0.5,1.9-0.7,2.6c-0.1,0.3-0.1,0.6-0.2,1c0,0.4-0.1,0.7-0.1,1v0.1l0,0.1c0,0.1,0,0.3,0,0.4l-2,0.2c-0.3-1.2-0.6-2.6-0.8-4.2
		c-0.3-2-0.4-4.3-0.4-6.8c0-1.4,0.1-2.9,0.2-4.4c0.1-1.5,0.3-3,0.5-4.5c0.2-1.4,0.4-2.8,0.5-4c0.2-1.2,0.3-2.2,0.4-3
		c0.1-0.5,0.1-1.1,0.2-1.7c0-0.3,0-0.5,0.1-0.8l2.5,0.2C84.2,4.2,84.1,4.6,84,5l-0.2,0.9c-0.1,0.6-0.3,1.4-0.4,2.3
		c-0.2,0.9-0.3,2-0.5,3.1c-0.2,1.1-0.3,2.3-0.5,3.5c-0.1,1.2-0.3,2.3-0.3,3.4C82,19.2,82,20.2,82,21c0,0.5,0,1.1,0.1,1.7
		c0,0.6,0.1,1.2,0.2,1.7l1.9,0.2c0.2-0.5,0.4-0.9,0.6-1.4c0.2-0.5,0.7-1.6,0.7-1.7l0.5,0.4c-0.3,0.8-0.5,1.6-0.8,2.5
		C84.7,25.6,84.4,26.7,84.1,27.7z"/>
	<path class="st0" d="M101.1,24.6l-0.7-0.2c-1.1-0.3-2.3-0.5-3.5-0.5c-1.4,0-2.5,0.3-3.4,0.8c-1,0.6-1.6,1.6-1.6,2.7
		c0,1.2,0.6,2.1,1.6,2.7c0.9,0.5,2,0.7,3.3,0.7c1.1,0,1.9-0.2,2.5-0.6c0.7-0.4,1.2-1,1.5-1.8c0.2-0.7,0.4-1.4,0.4-2.3
		c0-0.3,0-0.6,0-0.9L101.1,24.6z M99.8,28.1c-0.2,0.5-0.6,1-1,1.3c-0.5,0.3-1.2,0.4-2,0.4c-1.1,0-2-0.2-2.8-0.6
		c-0.7-0.4-1.1-1-1.1-1.8c0-0.8,0.4-1.4,1.1-1.9s1.7-0.7,2.9-0.7c1.1,0,2.2,0.2,3.3,0.5c0,0.3,0,0.6,0,0.9
		C100.1,26.9,100,27.6,99.8,28.1z"/>
	<path class="st0" d="M105.9,23.6c-0.5-0.3-1.1-0.5-1.6-0.7c0-0.8-0.1-1.6-0.1-2.5c-0.1-1.3-0.1-2.7-0.2-4.2c0-1-0.1-2-0.1-3.1
		c2.1-0.2,4.2-0.4,6.1-0.7V8.2c-1.9,0.4-3.9,0.7-6.1,0.9c0,0,0-0.1,0-0.1c0-0.8,0-1.6,0-2.3C104,6,104,5.4,104,5
		c0-0.4,0.1-0.8,0.1-1.2c0-0.4,0.1-0.8,0.1-1.2h-4.9c0.1,0.4,0.1,0.8,0.2,1.3c0.1,0.5,0.1,0.9,0.1,1.2c0,0.6,0,1.5,0,2.6
		c0,0.5,0,1.1,0,1.7c-1,0-1.9,0.1-2.9,0.1c-1.1,0-2.3,0-3.3-0.1c-1.1-0.1-2.2-0.1-3.3-0.2l0,4.1c1.1,0.1,2.2,0.1,3.3,0.2
		c1.1,0.1,2.2,0.1,3.3,0.1c1,0,2,0,2.9-0.1c0,0.8,0,1.6,0.1,2.4c0.1,1.4,0.1,2.8,0.2,4.1c0,0.6,0.1,1.3,0.1,1.8
		c-0.9-0.1-1.8-0.2-2.8-0.2c-1.7,0-3.2,0.3-4.4,0.8c-1.2,0.5-2.2,1.3-2.9,2.2c-0.7,1-1,2-1,3.3c0,1.9,0.7,3.4,2.2,4.4
		c1.5,1,3.5,1.6,6.1,1.6c1.3,0,2.5-0.2,3.4-0.5c0.9-0.3,1.7-0.8,2.2-1.4c0.6-0.6,1-1.3,1.2-2.1c0.2-0.7,0.3-1.5,0.4-2.3
		c0.3,0.2,0.5,0.3,0.8,0.5c1.4,1,2.7,2.1,4.2,3.5l2.3-3.6c-0.8-0.7-1.6-1.4-2.6-2.1C108.2,24.9,107.1,24.2,105.9,23.6z M109.2,29.8
		c-1.1-1-2.3-2-3.4-2.7c-0.3-0.2-0.6-0.4-0.8-0.6l-1.5-1l0,1.8c0,0.8-0.1,1.5-0.3,2.1c-0.2,0.7-0.5,1.3-1,1.8
		c-0.4,0.5-1.1,0.9-1.8,1.2c-0.8,0.3-1.8,0.5-3.1,0.5c-2.4,0-4.2-0.5-5.5-1.4c-1.2-0.8-1.8-2-1.8-3.6c0-1,0.3-1.9,0.8-2.7
		c0.6-0.8,1.4-1.4,2.4-1.9c1.1-0.5,2.5-0.7,4-0.7c0.9,0,1.8,0.1,2.6,0.2l1.2,0.2l-0.1-3c-0.1-1.3-0.1-2.7-0.2-4.1
		c0-0.8,0-1.6-0.1-2.4l0-1l-1,0c-1,0-1.9,0.1-2.9,0.1c-1.1,0-2.2,0-3.2-0.1c-0.8,0-1.6-0.1-2.3-0.1l0-2c0.7,0.1,1.5,0.1,2.2,0.2
		c1.1,0.1,2.2,0.1,3.4,0.1c1,0,2,0,3-0.1l1,0l0-2.7c0-1.2,0-2,0-2.6c0-0.3,0-0.8-0.1-1.3c0-0.1,0-0.1,0-0.2h2.6c0,0,0,0,0,0.1
		c0,0.4-0.1,0.8-0.1,1.3c0,0.4-0.1,1-0.1,1.7c0,0.7,0,1.5,0,2.3v1.2l1.1-0.1c1.8-0.2,3.4-0.4,5-0.7v2.2c-1.6,0.2-3.3,0.4-5.1,0.5
		l-0.9,0.1l0,0.9c0,1.1,0,2.1,0.1,3.1c0,1.5,0.1,2.9,0.2,4.2l0.2,3.1l0.6,0.2c0.4,0.2,1,0.4,1.5,0.7c1.1,0.6,2.2,1.2,3.1,1.9
		c0.7,0.5,1.3,1,1.9,1.5L109.2,29.8z"/>
	<path class="st0" d="M116,15.9c0.4,0.2,0.6,0.4,0.8,0.6c0.5-1.1,0.9-2.5,1.3-3.9c0.1-0.4,0.2-0.8,0.3-1.2h2.8v7.7
		c-0.9,0.3-1.8,0.5-2.7,0.7c-1.6,0.4-3,0.8-4.2,1l1,3.9c1.8-0.5,3.7-1.1,5.9-1.8v12.5h3.8V21.9c1.4-0.4,2.9-0.9,4.3-1.3l-0.5-3.6
		c-1.3,0.3-2.5,0.7-3.8,1.1v-6.6h3.3V7.5h-3.3V0.1h-3.8v7.4h-2.1c0.2-1.6,0.4-3.2,0.6-4.8l-3.4-0.5c-0.1,1.5-0.3,3-0.5,4.5
		c-0.2,1.5-0.4,3-0.7,4.3c-0.3,1.4-0.7,2.5-1.1,3.6c0.3,0.2,0.6,0.3,1,0.6C115.3,15.4,115.7,15.7,116,15.9z M116,11.3
		c0.3-1.4,0.5-2.8,0.8-4.4c0.2-1.2,0.3-2.3,0.4-3.5l1.4,0.2c-0.1,1.2-0.3,2.5-0.5,3.8l-0.2,1.2h4.3V1.1h1.8v7.4h3.3v1.9h-3.3v8.9
		c0,0,3.1-0.9,3.9-1.1l0.2,1.6c-0.8,0.2-4.2,1.3-4.2,1.3v13.4h-1.8V21.7l-1.3,0.4c-1.8,0.5-3.4,1-4.9,1.5l-0.5-1.9
		c1-0.2,2.1-0.5,3.2-0.8c0.9-0.2,1.8-0.5,2.7-0.7l0.7-0.2v-9.4h-4.6l-0.3,1.2c-0.1,0.3-0.1,0.5-0.2,0.7c-0.2,0.9-0.5,1.8-0.8,2.6
		c-0.3-0.2-0.6-0.4-1-0.6c-0.1,0-0.2-0.1-0.2-0.1C115.5,13.3,115.8,12.4,116,11.3z"/>
	<path class="st0" d="M145.8,6.1h-10.7c0.6-1.7,1.1-3.5,1.5-5.3L133,0c-0.4,1.9-0.9,3.7-1.5,5.5s-1.3,3.4-2.1,5
		c-0.8,1.5-1.7,2.9-2.8,4c0.3,0.2,0.6,0.4,1,0.7c0.4,0.3,0.8,0.6,1.2,0.9c0.4,0.3,0.7,0.5,0.9,0.7c1-1.3,2-2.7,2.9-4.4
		c0.4-0.8,0.8-1.6,1.2-2.5h2.3c-0.2,0.8-0.5,1.6-0.8,2.3c-0.6,1.7-1.3,3.3-2.1,4.8c-0.8,1.5-1.7,3-2.7,4.2c-1,1.3-2,2.3-3.1,3.2
		c0.6,0.3,1.1,0.6,1.7,1.1c0.6,0.4,1.1,0.9,1.4,1.2c1.4-1.3,2.7-2.9,3.9-4.9c1.2-2,2.2-4.1,3.2-6.4c0.8-1.9,1.4-3.8,1.8-5.6h2.2
		c-0.4,1.7-0.8,3.4-1.3,5.1c-0.7,2.4-1.6,4.7-2.6,6.9c-1,2.2-2.2,4.2-3.5,5.9c-1.3,1.8-2.8,3.3-4.5,4.4c0.6,0.3,1.2,0.7,1.8,1.1
		c0.6,0.5,1.1,0.9,1.5,1.3c1.6-1.3,3-2.9,4.4-4.8c1.3-1.9,2.5-3.9,3.5-6.2c1-2.3,1.9-4.6,2.6-7.1c0.7-2.2,1.2-4.5,1.7-6.7h0.6
		c-0.1,2.8-0.3,5.3-0.4,7.5c-0.2,2.8-0.4,5.2-0.6,7c-0.2,1.8-0.4,3.2-0.7,4.2c-0.2,1-0.5,1.6-0.8,2c-0.2,0.3-0.4,0.4-0.6,0.5
		c-0.2,0.1-0.5,0.2-0.8,0.2c-0.4,0-0.8,0-1.5,0c-0.6,0-1.3-0.1-2.1-0.1c0.3,0.6,0.6,1.2,0.8,2c0.2,0.8,0.3,1.4,0.4,2
		c0.8,0.1,1.6,0.1,2.4,0.1c0.8,0,1.4-0.1,1.9-0.2c0.6-0.1,1.1-0.3,1.6-0.5c0.4-0.3,0.9-0.7,1.3-1.3c0.4-0.5,0.7-1.3,1-2.4
		c0.3-1.1,0.5-2.6,0.7-4.5c0.2-1.9,0.4-4.4,0.6-7.4c0.2-3,0.4-6.6,0.6-10.9c0-0.2,0-0.4,0-0.7c0-0.3,0-0.7,0-1.2h-2.1H145.8z
		 M148.7,7.3c0,0.2,0,0.4,0,0.6c-0.2,4.3-0.4,8-0.6,11c-0.2,3-0.4,5.5-0.6,7.3c-0.2,1.9-0.5,3.4-0.7,4.4c-0.3,1.2-0.6,1.7-0.8,2
		c-0.4,0.5-0.7,0.9-1,1c-0.3,0.2-0.8,0.3-1.2,0.4c-0.5,0.1-1.1,0.1-1.8,0.2l-0.4,0c-0.3,0-0.7,0-1,0c-0.1-0.4-0.2-0.8-0.3-1.3
		c-0.1-0.2-0.1-0.4-0.2-0.6c0.2,0,0.3,0,0.5,0c0.6,0,1.1,0,1.5,0c0.5,0,0.9-0.1,1.2-0.3c0.3-0.2,0.6-0.4,0.9-0.8
		c0.4-0.5,0.7-1.2,1-2.4c0.3-1,0.5-2.5,0.7-4.4c0.2-1.8,0.4-4.2,0.6-7.1c0.1-2.1,0.3-4.6,0.4-7.5l0-1h-2.5l-0.2,0.8
		c-0.5,2.3-1,4.5-1.6,6.6c-0.7,2.4-1.6,4.8-2.6,7c-1,2.2-2.1,4.2-3.4,6c-1.1,1.5-2.2,2.9-3.5,4c-0.3-0.2-0.6-0.5-1-0.7
		c-0.2-0.2-0.4-0.3-0.6-0.4c1.3-1.1,2.5-2.3,3.5-3.7c1.4-1.8,2.6-3.9,3.6-6.1c1-2.2,1.9-4.6,2.7-7.1c0.5-1.7,1-3.4,1.3-5.2l0.3-1.2
		h-4.2l-0.2,0.7c-0.5,1.8-1.1,3.7-1.8,5.5c-0.9,2.2-1.9,4.3-3.1,6.3c-0.9,1.6-2,2.9-3.1,4c-0.2-0.2-0.5-0.4-0.8-0.7
		c-0.2-0.2-0.4-0.3-0.6-0.4c0.8-0.7,1.5-1.6,2.2-2.5c1-1.3,1.9-2.8,2.8-4.4c0.8-1.6,1.5-3.2,2.1-4.9c0.3-0.8,0.5-1.6,0.8-2.4
		l0.4-1.3h-4.3l-0.3,0.6c-0.4,0.9-0.8,1.7-1.1,2.4c-0.7,1.3-1.4,2.4-2.2,3.5c0,0-0.1-0.1-0.1-0.1c-0.4-0.3-0.8-0.6-1.2-0.9
		c0,0-0.1,0-0.1-0.1c0.8-1,1.5-2.1,2.2-3.3c0.8-1.6,1.6-3.3,2.2-5.1c0.5-1.5,1-3.1,1.3-4.7l1.7,0.3c-0.3,1.4-0.8,2.8-1.2,4.2
		l-0.4,1.3h14.9V7.3z"/>
	<path class="st0" d="M5.4,23.7L5.4,23.7l0.1-0.2C5.5,23.6,5.5,23.7,5.4,23.7z"/>
	<path class="st0" d="M6.5,23.5l-1.9-0.3l-0.2,0.5h1.1c0-0.1,0-0.1,0.1-0.2v0.2h1C6.5,23.7,6.5,23.7,6.5,23.5z"/>
	<path class="st0" d="M4.6,23.2l1.9,0.3c-0.1-0.7-0.6-3.1-0.6-3.1L4.6,23.2z"/>
	<path class="st0" d="M10,21.4l-1.9,0.5L10,21.4L10,21.4C10,21.4,10,21.4,10,21.4z"/>
	<path class="st0" d="M8.4,20l-0.2,1.9l1.9-0.5C9.2,20.6,8.4,20,8.4,20z"/>
</g>
</svg>
