<?xml version="1.0" encoding="utf-8"?>
<!-- Generator: Adobe Illustrator 27.9.1, SVG Export Plug-In . SVG Version: 6.00 Build 0)  -->
<svg version="1.1" id="Layer_1" xmlns="http://www.w3.org/2000/svg" xmlns:xlink="http://www.w3.org/1999/xlink" x="0px" y="0px"
	 viewBox="0 0 74.2 35.6" style="enable-background:new 0 0 74.2 35.6;" xml:space="preserve">
<style type="text/css">
	.st0{fill:#282828;}
</style>
<g>
	<path class="st0" d="M1.8,11.2c0.3,0.3,0.5,0.7,0.7,0.9c0.3-0.2,0.6-0.5,0.9-0.8v1.5h3.8V16H1.7v3.5h5.5V30
		c-0.6,0.1-1.2,0.2-1.7,0.3c-1.6,0.3-3.1,0.5-4.4,0.7l0.8,3.6c1.4-0.3,2.9-0.5,4.4-0.8c1.6-0.3,3.3-0.6,5-0.9
		c1.3-0.2,2.5-0.5,3.7-0.7l0.8,2.9c1.7-0.4,3.6-0.8,5.7-1.3c2.1-0.5,4.1-1,6.2-1.5l-0.5-3.8c-1.5,0.4-3,0.7-4.5,1
		c-0.4,0.1-0.7,0.2-1.1,0.2V18.5h2.5c0.5,2.5,1.1,4.7,1.9,6.8c0.8,2.3,1.9,4.3,3.3,6.1s3,3.1,4.9,4.2c0.2-0.4,0.4-0.7,0.7-1.2
		c0.3-0.4,0.6-0.8,1-1.2c0.3-0.4,0.7-0.7,0.9-1c-1.7-0.8-3.2-2-4.5-3.5c-0.6-0.7-1.2-1.6-1.7-2.4c0.7-0.4,1.4-0.9,2.2-1.5
		c1.1-0.8,2.2-1.6,3.2-2.4l-2.7-2.8c-0.5,0.5-1.1,1.1-1.7,1.7c-0.7,0.6-1.4,1.2-2.1,1.7c-0.1,0.1-0.2,0.1-0.3,0.2
		c-0.6-1.5-1-3.1-1.4-4.7h6.8v-17H21.6h-2.1h-1.7v29.1c-0.5,0.1-0.9,0.2-1.3,0.3l-0.2-2.3c-1.8,0.3-3.6,0.6-5.5,0.9v-9.9H16V16h-5.2
		v-3.2h4.3V9.5l2.3-2.6c-0.5-0.7-1.1-1.4-1.9-2.3C14.8,3.8,14,3,13.1,2.2c-0.9-0.8-1.7-1.5-2.5-2.2H9.3H7.7H7.1c-0.4,1-1,2-1.6,3.2
		C4.8,4.3,4,5.4,3.1,6.4c-0.9,1.1-2,2.1-3.1,3c0.3,0.2,0.6,0.4,0.9,0.8C1.2,10.5,1.5,10.8,1.8,11.2z M18.7,31.4V2.5h14.7v15h-7
		l0.3,1.2c0.4,1.7,0.9,3.3,1.5,4.9l0.5,1.3l1.4-1c0.7-0.6,1.4-1.1,2.1-1.7c0.4-0.3,0.8-0.7,1.1-1l1.2,1.3c-0.7,0.6-1.5,1.1-2.3,1.7
		c-0.8,0.6-1.5,1-2.2,1.5L29.2,26l0.5,0.8c0.5,0.9,1.2,1.8,1.8,2.6c1,1.2,2.2,2.3,3.6,3.1c0,0,0,0.1-0.1,0.1c-0.4,0.4-0.7,0.9-1,1.3
		c-0.1,0.1-0.2,0.3-0.3,0.4c-1.5-0.9-2.7-2.1-3.8-3.4c-1.3-1.7-2.3-3.6-3.1-5.8c-0.7-2-1.4-4.3-1.9-6.7l-0.2-0.8h-4.3V31l2.3-0.5
		c1.1-0.3,2.3-0.5,3.5-0.8l0.2,1.8c-1.7,0.4-3.5,0.9-5.3,1.3c-1.7,0.4-3.3,0.8-4.7,1.1l-0.6-2L18.7,31.4z M14.1,11.8H9.8V17H15v1.5
		H9.8v12.1l1.2-0.2c1.5-0.2,2.9-0.5,4.4-0.7l0.1,1.4l-0.7,0.1c-1.2,0.2-2.3,0.5-3.5,0.7c0,0-7.4,1.4-8.5,1.6l-0.4-1.7
		c1-0.2,5.9-0.9,5.9-0.9V18.5H2.7V17h5.5v-5.2H4.4v-1.4h9.7V11.8z M5.3,9.4C5.6,9.2,5.8,8.9,6,8.6c1-1.2,1.9-2.4,2.6-3.6
		c0.3-0.4,0.5-0.9,0.8-1.3c0.4,0.4,0.9,0.9,1.3,1.3C11.6,6,12.3,6.9,13,7.7c0.5,0.6,0.9,1.2,1.3,1.7H5.3z M3.9,7.1
		C4.8,6,5.7,4.8,6.4,3.7C6.9,2.8,7.4,1.9,7.8,1h2.4c0.7,0.6,1.4,1.2,2.2,1.9c0.9,0.8,1.7,1.6,2.4,2.4c0.5,0.5,0.9,1.1,1.3,1.5
		l-1.3,1.5c-0.3-0.4-0.6-0.8-1-1.3c-0.7-0.9-1.5-1.8-2.3-2.7c-0.5-0.5-0.9-1-1.4-1.4L9.2,2.2L8.6,3.3C8.3,3.7,8.1,4.1,7.8,4.5
		C7.1,5.6,6.2,6.8,5.3,8C5,8.2,4.8,8.5,4.6,8.8l-0.9,1c0,0-1,0.9-1.1,1c0,0-0.1-0.1-0.1-0.1c-0.3-0.4-0.6-0.7-1-1.1c0,0,0,0-0.1-0.1
		C2.4,8.7,3.2,7.9,3.9,7.1z"/>
	<path class="st0" d="M31.6,4.1h-11v5.1h11V4.1z M30.6,8.2h-9V5.1h9V8.2z"/>
	<path class="st0" d="M31.6,10.6h-11v5.2h11V10.6z M30.6,14.9h-9v-3.2h9V14.9z"/>
	<path class="st0" d="M63.6,10.6h-8.7h-1.7h-2v16.6h3.7v-2.5h8.7V10.6z M62.6,23.7h-8.7v2.5h-1.7V11.6h10.4V23.7z"/>
	<path class="st0" d="M60.8,13.3h-7V22h7V13.3z M59.8,21h-5v-6.7h5V21z"/>
	<path class="st0" d="M43.4,16.8c0.8,0.5,1.5,0.9,2,1.3l2.3-3.4c-0.6-0.4-1.3-0.8-2.1-1.2c-0.8-0.4-1.7-0.9-2.6-1.4
		c-0.9-0.5-1.7-0.9-2.5-1.2l-2.2,3c0.8,0.4,1.6,0.8,2.5,1.3C41.7,15.8,42.6,16.3,43.4,16.8z M40.8,12.2c0.5,0.2,1.1,0.5,1.7,0.8
		l2.6,1.4c0.4,0.2,0.8,0.4,1.2,0.6l-1.1,1.7c-0.4-0.2-0.8-0.5-1.2-0.8c-0.8-0.5-1.7-1-2.6-1.5c-0.5-0.3-1-0.6-1.5-0.8L40.8,12.2z"/>
	<path class="st0" d="M67.3,6.2v23.9c0,0.4-0.1,0.7-0.3,0.8c-0.2,0.2-0.5,0.2-0.9,0.3c-0.3,0-0.9,0-1.7,0c-0.8,0-1.7,0-2.7,0
		c-1,0-2-0.1-3.1-0.1c0.2,0.4,0.4,0.8,0.6,1.3c0.2,0.5,0.4,1,0.6,1.6c0.2,0.5,0.3,1,0.3,1.4c2.1,0,3.9,0,5.3-0.1
		c1.4-0.1,2.6-0.3,3.4-0.6c0.9-0.4,1.5-0.9,1.8-1.6c0.3-0.7,0.5-1.7,0.5-2.9v-24h2.9v-4H49.4v2.2c-0.5-0.4-1.2-0.8-2-1.2
		c-0.8-0.5-1.7-0.9-2.6-1.4c-0.9-0.5-1.7-0.9-2.5-1.3L40,3.5c0.8,0.4,1.6,0.9,2.5,1.4c0.9,0.5,1.7,1.1,2.5,1.6
		c0.8,0.5,1.5,0.9,2,1.3l2.4-3.2v1.6H67.3z M50.4,3.3h22.8v2h-2.9v25c0,1.4-0.2,2.1-0.4,2.5c-0.2,0.5-0.7,0.8-1.3,1.1
		c-0.7,0.3-1.8,0.5-3.1,0.5c-1.2,0.1-2.7,0.1-4.5,0.1c-0.1-0.2-0.1-0.5-0.2-0.7c-0.2-0.5-0.4-1-0.6-1.5c0.5,0,1,0,1.5,0
		c0.7,0,1.3,0,1.9,0c0.3,0,0.6,0,0.8,0c0.8,0,1.3,0,1.6,0c0.7,0,1.2-0.2,1.6-0.5c0.4-0.3,0.6-0.9,0.6-1.6V5.2H50.4V3.3z M46.8,6.4
		c-0.4-0.2-0.8-0.5-1.2-0.8c-0.8-0.5-1.7-1-2.6-1.6c-0.5-0.3-1-0.6-1.5-0.9l1.1-1.4c0.5,0.3,1.1,0.6,1.7,0.9c0.9,0.5,1.7,1,2.6,1.4
		c0.4,0.2,0.8,0.4,1.1,0.7L46.8,6.4z"/>
	<path class="st0" d="M6.3,27.8c-0.1-0.9-0.3-2-0.6-3.2s-0.6-2.4-1-3.4l-2.7,0.7C2.5,22.9,2.7,24,3,25.3c0.3,1.3,0.4,2.4,0.5,3.3
		L6.3,27.8z M4.1,22.3c0.2,0.8,0.5,1.6,0.7,2.5C5,25.6,5.1,26.4,5.2,27l-0.9,0.2c-0.1-0.7-0.2-1.4-0.4-2.2c-0.2-0.9-0.4-1.8-0.6-2.6
		L4.1,22.3z"/>
	<path class="st0" d="M44.2,24.6c-0.9,1.5-1.7,2.9-2.5,4.2c-0.8,1.3-1.6,2.5-2.3,3.4l3.5,2.8c0.8-1.2,1.5-2.5,2.3-3.9
		c0.8-1.4,1.6-2.7,2.3-4.1c0.8-1.4,1.5-2.8,2.1-4.1l-3-2.7C45.9,21.7,45,23.1,44.2,24.6z M48.3,23.1c-0.6,1.1-1.2,2.2-1.8,3.4
		c-0.8,1.4-1.5,2.8-2.3,4.1c-0.6,1-1.2,2-1.7,2.9l-1.8-1.5c0.6-0.8,1.2-1.7,1.8-2.7c0.8-1.3,1.7-2.8,2.5-4.3
		c0.6-1.1,1.3-2.2,1.8-3.3L48.3,23.1z"/>
	<path class="st0" d="M12.5,22.9c-0.2,0.8-0.4,1.6-0.6,2.4c-0.2,0.8-0.4,1.5-0.6,2.1l2.5,0.8c0.3-0.8,0.7-1.9,1.1-3.1
		c0.4-1.2,0.8-2.4,1.1-3.5l-3.1-0.8C12.8,21.4,12.7,22.1,12.5,22.9z M13.5,23.1c0.1-0.4,0.2-0.8,0.2-1.1l1,0.3
		c-0.3,0.8-0.5,1.6-0.8,2.5c-0.2,0.8-0.5,1.5-0.7,2.1l-0.6-0.2c0.1-0.4,0.2-0.8,0.3-1.2C13.1,24.7,13.3,23.9,13.5,23.1z"/>
</g>
</svg>
