<?xml version="1.0" encoding="utf-8"?>
<!-- Generator: Adobe Illustrator 27.9.1, SVG Export Plug-In . SVG Version: 6.00 Build 0)  -->
<svg version="1.1" id="Layer_1" xmlns="http://www.w3.org/2000/svg" xmlns:xlink="http://www.w3.org/1999/xlink" x="0px" y="0px"
	 viewBox="0 0 66.5 34.5" style="enable-background:new 0 0 66.5 34.5;" xml:space="preserve">
<style type="text/css">
	.st0{fill:#282828;}
</style>
<g>
	<path class="st0" d="M4.8,21.1h8.3v-1.7H4.8V21.1z M5.5,19.9h6.9v0.4H5.5V19.9z"/>
	<path class="st0" d="M33.2,13H18.5v-1.3h12.8V9.2H2.5v2.5h12.2V13H0.4v5.6h3.5v-3.2h10.8v6h3.8v-6h11.1v3.2h3.6V13z M32.2,17.6
		h-1.6v-3.2H17.5v6h-1.8v-6H2.9v3.2H1.4V14h14.2v-3.3H3.5v-0.5h26.8v0.5H17.5V14h14.8V17.6z"/>
	<path class="st0" d="M6.8,3.7h19.7V1.2H6.8V3.7z M25.5,1.9v1.3H7.8V1.9H25.5z"/>
	<path class="st0" d="M6.8,6.9h19.7V4.1H6.8V6.9z M25.5,4.9v1.3H7.8V4.9H25.5z"/>
	<path class="st0" d="M4,0v8.1h25.4V0H4z M28.4,7.1h-1.2v0.2H6.5V7.1H5V1h1.5V0.8h20.8V1h1.2V7.1z"/>
	<path class="st0" d="M4,24.7h26v-2.4H4V24.7z M5,23.3h24v0.4H5V23.3z"/>
	<path class="st0" d="M12.2,31.7c2,0,4.2-0.1,6.4-0.1l4.3-0.1l0.4-1.9c-0.4-0.2-0.7-0.4-1.1-0.6l2.6-1.6H13.4l-0.3,0.4
		c-0.4,0.5-0.8,1-1.2,1.5c-0.1,0.2-0.5,0.6-0.5,0.6L10,31.7L12.2,31.7z M12.7,30.1c0.4-0.5,0.8-1,1.2-1.6h7.4l-1.2,0.8
		c0.9,0.4,1.8,0.8,2.8,1.3c-1.4,0-2.9,0-4.3,0.1c-2.2,0-4.4,0.1-6.4,0.1C12.4,30.5,12.5,30.3,12.7,30.1z"/>
	<path class="st0" d="M8.4,30c-0.2,0.3-0.3,0.5-0.5,0.8c-2,0-3.8,0-5.4,0l0.2,2.9c2.1,0,4.5-0.1,7.3-0.1c2.7-0.1,5.6-0.1,8.7-0.2
		c2.8-0.1,5.7-0.2,8.6-0.2c0.7,0.5,1.4,1,1.9,1.4l3-2.1c-0.7-0.5-1.5-1.1-2.6-1.7c-1-0.6-2.1-1.2-3.2-1.8c-0.3-0.2-0.6-0.3-0.9-0.4
		h8.1v-2.6H0v2.6h9.3C9,29,8.7,29.5,8.4,30z M1,27.5v-0.6h31.6v0.6h-7.1l-1,1.7l0.8,0.4c0.2,0.1,0.4,0.2,0.6,0.3
		C27,30.4,28,31,29,31.6c0.5,0.3,0.9,0.6,1.3,0.8l-1.2,0.9c-0.4-0.3-0.9-0.6-1.4-1l-0.3-0.2l-0.3,0c-2.9,0.1-5.7,0.1-8.6,0.2
		c-3,0.1-5.9,0.2-8.7,0.2c-2.3,0.1-4.4,0.1-6.3,0.1l-0.1-0.9c1.3,0,2.8,0,4.3,0l0.5,0l0.3-0.4c0.2-0.3,0.4-0.5,0.5-0.8
		c0.3-0.5,0.6-1,0.9-1.5l0.9-1.5H1z"/>
	<path class="st0" d="M57.9,25.7c-1.3,1-2.8,1.8-4.6,2.4c-1.8,0.6-3.7,1-5.8,1.3l2.6,4c2.5-0.5,4.7-1.1,6.7-2c2-0.9,3.8-2,5.2-3.4
		c1.4-1.4,2.6-3.1,3.3-5.1c0.8-2,1.2-4.3,1.2-7c0-2.8-0.4-5.1-1.2-7.1c-0.8-2-1.9-3.5-3.3-4.6c-1.4-1.1-3-1.6-4.7-1.6
		c-1.1,0-2.1,0.2-3.1,0.6c-1,0.4-1.9,0.9-2.7,1.6c-0.8,0.7-1.6,1.4-2.2,2.2c-0.6,0.8-1.2,1.6-1.6,2.4c0.1-0.6,0.1-1.3,0.2-2
		c0.1-0.8,0.2-1.6,0.4-2.4c0.2-0.8,0.3-1.6,0.5-2.3c0.2-0.7,0.3-1.4,0.5-1.9l-4.7-0.2c0,0.5-0.1,1.1-0.1,1.7c-0.1,0.7-0.1,1.3-0.2,2
		c-0.1,0.9-0.3,1.9-0.4,3c-0.1,1.1-0.3,2.1-0.4,3.2c-0.1,1.1-0.2,2.1-0.2,3.2c-0.1,1-0.1,2-0.1,2.9c0,1.2,0.1,2.4,0.2,3.5
		c0.1,1.1,0.2,2,0.3,2.7l4.2-0.3c-0.1-0.9-0.2-1.7-0.2-2.3c0-0.7,0-1.3,0-1.9c0.1-1.3,0.4-2.6,0.9-4c0.5-1.4,1.2-2.6,2-3.8
		c0.8-1.2,1.8-2.1,2.8-2.9c1-0.7,2.1-1.1,3.3-1.1c1.1,0,2.1,0.4,2.9,1.1c0.8,0.7,1.4,1.8,1.8,3.2c0.4,1.4,0.6,3.1,0.6,5.1
		c0,2.3-0.4,4.3-1.1,5.9C60.2,23.4,59.2,24.7,57.9,25.7z M63,15.9c0-2.1-0.2-3.9-0.7-5.4c-0.5-1.6-1.2-2.8-2.1-3.7
		c-1-0.9-2.2-1.4-3.6-1.4c-1.3,0-2.6,0.4-3.9,1.3c-1.1,0.8-2.1,1.9-3,3.1c-0.9,1.2-1.6,2.6-2.1,4.1c-0.5,1.5-0.8,2.9-0.9,4.2
		c-0.1,0.6-0.1,1.3,0,2c0,0.4,0,0.9,0.1,1.4l-2.2,0.2c-0.1-0.5-0.1-1.1-0.2-1.8c-0.1-1.1-0.1-2.2-0.1-3.4c0-0.9,0-1.8,0.1-2.8
		c0.1-1,0.1-2.1,0.2-3.1c0.1-1.1,0.2-2.1,0.4-3.2c0.1-1.1,0.3-2,0.4-3c0.1-0.7,0.1-1.4,0.2-2.1c0-0.3,0-0.5,0.1-0.8L48,1.6
		c-0.1,0.2-0.1,0.5-0.2,0.8c-0.2,0.8-0.3,1.5-0.5,2.4c-0.2,0.8-0.3,1.6-0.4,2.4c-0.1,0.8-0.2,1.5-0.3,2.1l1.9,0.6
		c0.4-0.8,1-1.5,1.6-2.3c0.6-0.7,1.3-1.4,2-2.1c0.8-0.6,1.6-1.1,2.5-1.5c0.8-0.4,1.8-0.5,2.7-0.5c1.5,0,2.9,0.5,4.1,1.4
		c1.2,1,2.2,2.4,3,4.2c0.7,1.9,1.1,4.2,1.1,6.8c0,2.5-0.4,4.7-1.1,6.6c-0.7,1.8-1.8,3.4-3.1,4.7c-1.4,1.3-3,2.4-4.9,3.2
		c-1.8,0.8-3.7,1.4-5.9,1.8l-1.4-2.1c1.6-0.3,3-0.7,4.4-1.1c1.9-0.6,3.5-1.5,4.9-2.6c1.4-1.1,2.5-2.5,3.3-4.3
		C62.6,20.5,63,18.4,63,15.9z"/>
	<path class="st0" d="M20.1,21.1h8.8v-1.7h-8.8V21.1z M21,19.9h6.9v0.4H21V19.9z"/>
	<path class="st0" d="M5.5,16.5v1.7h7.5v-1.7H5.5z M12.5,17.7H6.2v-0.4h6.3V17.7z"/>
	<path class="st0" d="M20.1,16.5v1.7H28v-1.7H20.1z M27.4,17.7h-6.3v-0.4h6.3V17.7z"/>
</g>
</svg>
