<?xml version="1.0" encoding="utf-8"?>
<!-- Generator: Adobe Illustrator 27.9.1, SVG Export Plug-In . SVG Version: 6.00 Build 0)  -->
<svg version="1.1" id="Layer_1" xmlns="http://www.w3.org/2000/svg" xmlns:xlink="http://www.w3.org/1999/xlink" x="0px" y="0px"
	 viewBox="0 0 183.9 35.6" style="enable-background:new 0 0 183.9 35.6;" xml:space="preserve">
<style type="text/css">
	.st0{fill:#282828;}
</style>
<g>
	<path class="st0" d="M29.7,31.7c0.4,0.8,0.7,1.6,0.9,2.3l3.4-1.5c-0.2-0.7-0.6-1.4-1-2.3c-0.4-0.8-0.9-1.7-1.4-2.6
		c-0.5-0.9-1.1-1.6-1.7-2.4l-3.2,1.3c0.6,0.7,1.1,1.5,1.6,2.4C28.9,30,29.3,30.9,29.7,31.7z M29.6,26.6c0.4,0.5,0.8,1.1,1.1,1.7
		c0.5,0.8,1,1.7,1.4,2.5c0.2,0.5,0.4,0.9,0.6,1.3l-1.5,0.7c-0.2-0.4-0.4-0.9-0.6-1.4c-0.4-0.9-0.9-1.8-1.4-2.7
		c-0.3-0.5-0.6-1-0.9-1.5L29.6,26.6z"/>
	<path class="st0" d="M11.1,28.3c-0.3,0.8-0.7,1.5-1.2,2.3c-0.4,0.7-0.9,1.3-1.3,1.9l3,2c0.5-0.6,1-1.3,1.4-2.1
		c0.4-0.8,0.8-1.6,1.1-2.5c0.4-0.8,0.7-1.6,0.9-2.4L12,26.1C11.7,26.8,11.5,27.5,11.1,28.3z M12.6,27.4l1.3,0.6
		c-0.2,0.5-0.4,1-0.6,1.5c-0.3,0.8-0.7,1.6-1.1,2.4c-0.2,0.4-0.5,0.9-0.7,1.2l-1.3-0.9c0.2-0.3,0.5-0.7,0.7-1.1
		c0.5-0.8,0.9-1.6,1.2-2.4C12.2,28.3,12.4,27.8,12.6,27.4z"/>
	<path class="st0" d="M17.4,34.5c0.6,0.3,1.5,0.4,2.7,0.4c0.2,0,0.5,0,0.9,0c0.4,0,0.8,0,1.3,0c0.4,0,0.9,0,1.3,0c0.4,0,0.7,0,0.9,0
		c0.9,0,1.6-0.1,2.1-0.4c0.5-0.3,0.9-0.7,1.2-1.4c0.3-0.7,0.5-1.6,0.6-2.9c-0.5-0.1-1-0.3-1.7-0.6c-0.6-0.3-1.1-0.5-1.5-0.8
		c0,0.8-0.1,1.4-0.2,1.7c-0.1,0.4-0.2,0.6-0.3,0.7c-0.2,0.1-0.4,0.2-0.7,0.2c-0.2,0-0.4,0-0.7,0c-0.3,0-0.7,0-1,0s-0.7,0-1,0
		c-0.3,0-0.5,0-0.6,0c-0.5,0-0.9-0.1-1-0.2c-0.2-0.1-0.2-0.4-0.2-0.8v-4.4h-3.5v4.4c0,1.1,0.1,1.9,0.3,2.5
		C16.4,33.9,16.8,34.3,17.4,34.5z M16.8,27.3h1.5v3.4c0,0.3,0,1.2,0.7,1.6c0.3,0.2,0.8,0.3,1.6,0.3h3.3c0.5,0,1-0.1,1.3-0.4
		c0.4-0.3,0.6-0.7,0.7-1.3c0-0.1,0-0.2,0.1-0.3c0.1,0,0.2,0.1,0.2,0.1c0.3,0.1,0.7,0.3,1,0.4c-0.1,0.7-0.3,1.3-0.4,1.7
		c-0.2,0.4-0.4,0.7-0.7,0.9c-0.4,0.2-1,0.3-1.7,0.3h-4.2c-1.3,0-2-0.2-2.3-0.3c-0.4-0.1-0.6-0.4-0.7-0.7c-0.2-0.5-0.3-1.2-0.3-2.2
		V27.3z"/>
	<path class="st0" d="M3.6,5.2h3.6C7,6,6.8,6.9,6.5,7.8c-0.3,1-0.6,2-0.9,3c-0.3,1-0.6,2-0.9,2.8c1.2,1.3,1.9,2.6,2.3,3.8
		c0.4,1.2,0.6,2.2,0.6,3.2c0,0.6-0.1,1-0.2,1.4c-0.1,0.4-0.3,0.7-0.5,0.9c-0.3,0.2-0.6,0.3-1.1,0.3c-0.2,0-0.5,0-0.8,0
		c-0.3,0-0.6,0-1,0c0.3,0.5,0.5,1.1,0.6,1.7c0.1,0.7,0.2,1.3,0.2,1.7c1,0,1.8,0,2.5-0.1c0.4-0.1,0.8-0.2,1.1-0.3
		c0.4-0.1,0.7-0.3,1-0.5c0.6-0.4,1-1,1.3-1.8c0.3-0.8,0.4-1.8,0.4-2.9c0-1.1-0.2-2.4-0.6-3.7c-0.4-1.3-1.2-2.7-2.4-4.2
		c0.4-1,0.8-2.1,1.2-3.2s0.8-2.4,1.2-3.6c0.4-1.1,0.7-2.2,1-3.2c0.1,0.2,0.2,0.4,0.3,0.7c0.2,0.6,0.3,1.1,0.4,1.5
		c1.7-0.1,3.4-0.2,5.2-0.3c1.8-0.1,3.6-0.3,5.3-0.5c1.8-0.2,3.5-0.5,5.1-0.7c1.6-0.3,3.2-0.6,4.5-0.9l-3-2.8
		c-1.1,0.3-2.3,0.5-3.7,0.8c-1.4,0.2-2.9,0.5-4.5,0.6c-1.6,0.2-3.3,0.4-4.9,0.5c-1.7,0.2-3.3,0.3-5,0.4c0.1,0.1,0.1,0.2,0.2,0.3
		L9,1.4L8.5,1.6H7.8H0v33.9h3.6V5.2z M16.3,3c1.7-0.2,3.4-0.3,5-0.5c1.6-0.2,3.2-0.4,4.6-0.7c1.2-0.2,2.3-0.4,3.3-0.7l1.2,1.1
		c-0.8,0.2-1.7,0.3-2.6,0.5c-1.6,0.3-3.3,0.5-5.1,0.7c-1.7,0.2-3.5,0.4-5.3,0.5c-1.4,0.1-2.8,0.2-4.1,0.3l-0.5-1
		C14,3.3,15.1,3.2,16.3,3z M2.6,34.4H1V2.6h7.6l0.3-0.1l1.6,0.9C10.3,4.3,10,5.1,9.7,6.1C9.3,7.3,8.9,8.5,8.5,9.6
		c-0.4,1.2-0.8,2.2-1.2,3.2l-0.2,0.5l0.4,0.5c1.1,1.4,1.9,2.7,2.2,3.8c0.3,1.2,0.5,2.4,0.5,3.4c0,1-0.1,1.9-0.3,2.6
		c-0.2,0.6-0.5,1-0.9,1.3c-0.2,0.1-0.4,0.2-0.7,0.3c-0.3,0.1-0.7,0.2-1,0.3c-0.4,0-0.9,0.1-1.4,0.1c0-0.3-0.1-0.6-0.2-1
		c0-0.2-0.1-0.3-0.1-0.5h0.3c0.7,0,1.3-0.2,1.7-0.5c0.4-0.3,0.7-0.8,0.9-1.4c0.1-0.5,0.2-1,0.2-1.7c0-1-0.2-2.2-0.6-3.5
		c-0.4-1.2-1.1-2.4-2.1-3.7c0.2-0.7,0.5-1.5,0.7-2.3c0.3-1,0.6-2,0.9-3.1c0.3-0.9,0.5-1.8,0.7-2.6l0.3-1.2H2.6V34.4z"/>
	<path class="st0" d="M138.7,13.1c-1.2,0-2.5,0-3.7,0.1c-1.3,0.1-2.4,0.1-3.5,0.2v4c1.2-0.1,2.4-0.2,3.6-0.3
		c1.2-0.1,2.4-0.1,3.7-0.1c1.2,0,2.3,0,3.4,0.1c1.1,0.1,2.1,0.2,3.1,0.3l0.1-4.1c-1.1-0.1-2.2-0.2-3.3-0.2
		C140.9,13.1,139.8,13.1,138.7,13.1z M144.3,16.4c-0.7-0.1-1.3-0.1-2-0.2c-1.1-0.1-2.3-0.1-3.5-0.1c-1.3,0-2.5,0-3.7,0.1
		c-0.8,0-1.7,0.1-2.5,0.2v-2c0.8-0.1,1.6-0.1,2.5-0.2c1.2-0.1,2.5-0.1,3.7-0.1c1.1,0,2.2,0,3.3,0.1c0.8,0,1.6,0.1,2.3,0.1
		L144.3,16.4z"/>
	<path class="st0" d="M17.4,25c0.7,0.3,1.4,0.7,2.1,1.1c0.7,0.4,1.4,0.8,2,1.3c0.6,0.4,1.1,0.8,1.5,1.2l2.5-2.5
		c-0.4-0.4-0.9-0.8-1.6-1.2c-0.6-0.4-1.3-0.8-2.1-1.2h9.8V11.6H29c0.5-0.7,1.1-1.6,1.7-2.5c0.7-1.1,1.4-2.3,2.1-3.3l-3.6-1.5
		c-0.3,0.7-0.6,1.4-1,2.2c-0.4,0.8-0.8,1.5-1.2,2.3c-0.4,0.7-0.8,1.4-1.2,2l2,0.9H15l2.8-1.3c-0.2-0.7-0.5-1.5-1-2.3
		c-0.5-0.9-1-1.7-1.5-2.4l-3,1.3c0.5,0.7,1,1.6,1.4,2.5c0.4,0.8,0.7,1.6,0.8,2.2h-2.4v2.9H28v1.7H13.1V19H28v1.8H12.2v2.9h6.6
		L17.4,25z M27.3,10.2c0.2-0.3,0.4-0.7,0.6-1.1c0.4-0.7,0.8-1.5,1.2-2.3c0.2-0.4,0.4-0.9,0.6-1.3l1.6,0.7c-0.5,0.8-1,1.5-1.5,2.3
		c-0.6,0.9-1.1,1.7-1.7,2.5l0.1-0.3L27.3,10.2z M13.8,7.3l1.2-0.5c0.3,0.5,0.7,1,1,1.6c0.2,0.5,0.5,0.9,0.6,1.3l-1.4,0.6
		c-0.2-0.5-0.4-0.9-0.6-1.5C14.4,8.4,14.1,7.8,13.8,7.3z M13.2,22.7v-0.9H29V18H14.1v-0.8H29v-3.7H13.2v-0.9h17.6v10.1H22l-0.5,1.9
		c0.7,0.4,1.4,0.8,2,1.1c0.2,0.1,0.4,0.3,0.6,0.4L23,27.2c-0.3-0.2-0.6-0.4-0.9-0.7c-0.6-0.4-1.3-0.9-2.1-1.3
		c-0.3-0.2-0.6-0.3-0.9-0.5l2.2-2H13.2z"/>
	<path class="st0" d="M24.5,9.8c-0.2-0.7-0.4-1.5-0.8-2.4c-0.4-0.9-0.8-1.7-1.2-2.5L19.3,6c0.4,0.8,0.8,1.6,1.1,2.5
		c0.3,0.9,0.6,1.8,0.7,2.5L24.5,9.8z M22,6.1c0.3,0.5,0.5,1,0.8,1.6c0.2,0.5,0.4,1,0.5,1.4l-1.4,0.6c-0.1-0.5-0.3-0.9-0.5-1.5
		c-0.2-0.6-0.4-1.1-0.7-1.7L22,6.1z"/>
	<path class="st0" d="M121.4,15.2c-0.4,1.3-0.8,2.8-1.3,4.3c-0.5,1.6-1.1,3.1-1.7,4.7c-0.6,1.6-1.2,3.1-1.8,4.5
		c-0.6,1.4-1.2,2.6-1.8,3.5l4.8,1.6c0.5-1.1,1-2.4,1.6-3.9c0.6-1.5,1.1-3,1.7-4.6c0.5-1.6,1.1-3.2,1.5-4.8c0.5-1.6,0.9-3,1.2-4.4
		c0.3-1.3,0.7-2.6,1-4c0.1-0.3,0.2-0.7,0.2-1c0.8-0.1,1.7-0.2,2.5-0.3c1.8-0.3,3.4-0.6,5-0.9V5.9c-1.6,0.4-3.3,0.7-5,1
		c-0.5,0.1-1.1,0.2-1.6,0.2c0.1-0.7,0.3-1.3,0.4-1.8c0.1-0.4,0.2-1,0.3-1.7c0.2-0.7,0.3-1.3,0.4-1.8l-5.2-0.4c0.1,0.4,0.1,1,0,1.7
		c0,0.7-0.1,1.3-0.2,2c-0.1,0.6-0.2,1.2-0.3,2c0,0.2-0.1,0.3-0.1,0.5c-1.2,0.1-2.5,0.1-3.6,0.1c-0.7,0-1.5,0-2.2-0.1
		c-0.7,0-1.6-0.1-2.5-0.2l0.1,4.2c0.7,0,1.4,0.1,2.1,0.1c0.7,0,1.5,0.1,2.4,0.1c0.9,0,1.8,0,2.8-0.1c-0.1,0.2-0.1,0.4-0.1,0.7
		C121.9,13.4,121.7,14.3,121.4,15.2z M122.2,10.8c-1.1,0.1-2,0.1-2.7,0.1c-0.9,0-1.7,0-2.4-0.1c-0.4,0-0.8,0-1.2-0.1l-0.1-2.2
		c0.5,0,1,0.1,1.4,0.1c0.7,0,1.5,0.1,2.2,0.1c1.1,0,2.3,0,3.7-0.1l0.8-0.1l0.2-1.2c0.1-0.8,0.3-1.5,0.3-2.1c0.1-0.7,0.1-1.4,0.2-2.1
		c0-0.2,0-0.4,0-0.6l2.9,0.2c0,0.2-0.1,0.4-0.1,0.7c-0.2,0.7-0.3,1.3-0.3,1.7l-0.7,3.2l1.8-0.3c0.4-0.1,0.9-0.1,1.3-0.2
		c1.3-0.2,2.6-0.5,3.8-0.7v2.2c-1.3,0.3-2.7,0.5-4.1,0.7c-0.8,0.1-1.7,0.2-2.5,0.3l-0.7,0.1l-0.4,1.7c-0.3,1.4-0.6,2.7-1,3.9
		c-0.3,1.3-0.7,2.8-1.2,4.3c-0.5,1.6-1,3.1-1.5,4.7c-0.5,1.6-1.1,3.1-1.6,4.5c-0.4,1.1-0.8,2.1-1.2,3l-2.7-0.9
		c0.4-0.8,0.8-1.6,1.2-2.6c0.6-1.4,1.2-2.9,1.8-4.5c0.6-1.6,1.2-3.2,1.7-4.8c0.5-1.6,0.9-3,1.3-4.4c0.3-0.9,0.5-1.9,0.7-2.8l0.4-2
		L122.2,10.8z"/>
	<path class="st0" d="M133.2,22.9l-4.1-0.4c-0.2,0.8-0.3,1.6-0.4,2.4c-0.1,0.8-0.2,1.7-0.2,2.5c0,1.9,0.8,3.4,2.5,4.4
		c1.7,1,4.1,1.5,7.2,1.5c1.5,0,2.9-0.1,4.1-0.2c1.3-0.1,2.4-0.2,3.5-0.4l0.2-4.4c-1.3,0.3-2.6,0.5-3.9,0.6c-1.3,0.1-2.6,0.2-3.8,0.2
		c-1.1,0-2-0.1-2.8-0.2c-0.7-0.2-1.3-0.4-1.7-0.7c-0.4-0.3-0.7-0.6-0.9-1c-0.2-0.4-0.2-0.8-0.2-1.2c0-0.4,0.1-0.9,0.2-1.5
		C132.9,24,133,23.4,133.2,22.9z M133.2,29.1c0.5,0.4,1.2,0.6,2,0.8c0.8,0.2,1.8,0.3,3,0.3c1.3,0,2.6-0.1,3.9-0.2
		c0.9-0.1,1.8-0.2,2.8-0.4l-0.1,2.3c-0.8,0.1-1.7,0.2-2.6,0.3c-1.2,0.1-2.6,0.2-4.1,0.2c-2.9,0-5.2-0.5-6.7-1.4c-1.4-0.8-2-2-2-3.5
		c0-0.8,0.1-1.6,0.2-2.3c0.1-0.5,0.2-1,0.3-1.5l2,0.2c0,0.2-0.1,0.4-0.1,0.7c-0.1,0.6-0.2,1.2-0.2,1.7c0,0.6,0.1,1.1,0.3,1.6
		C132.2,28.3,132.6,28.7,133.2,29.1z"/>
	<path class="st0" d="M47.5,33.2c1.9,0.6,4.1,1,6.6,1c2.3,0,4.2-0.1,5.9-0.3c1.7-0.2,3.1-0.4,4.2-0.6l0.2-4.3
		c-1.3,0.3-2.8,0.5-4.5,0.7c-1.7,0.2-3.5,0.2-5.5,0.2c-2.7,0-4.7-0.4-6.2-1.2c-1.4-0.7-2.1-1.9-2.1-3.6c0-0.9,0.2-1.7,0.5-2.6
		c0.3-0.8,0.8-1.7,1.4-2.6l-4.3-1c-0.6,1.2-1.1,2.4-1.5,3.5c-0.3,1.1-0.5,2.2-0.5,3.3c0,1.8,0.5,3.3,1.5,4.5
		C44.2,31.6,45.7,32.5,47.5,33.2z M43.2,22.8c0.3-0.8,0.6-1.7,1.1-2.7l2.1,0.5c-0.3,0.5-0.5,1.1-0.7,1.6c-0.4,1-0.5,1.9-0.5,2.9
		c0,2,0.9,3.6,2.7,4.5c1.6,0.8,3.8,1.2,6.6,1.3c0,0,0,0,0,0c2.1,0,4-0.1,5.7-0.3c1.2-0.1,2.3-0.3,3.3-0.4l-0.1,2.2
		c-0.9,0.2-2,0.3-3.3,0.4c-1.6,0.2-3.6,0.3-5.8,0.3c-2.4,0-4.5-0.3-6.3-0.9c-1.7-0.6-3-1.4-3.9-2.5c-0.9-1.1-1.3-2.3-1.3-3.9
		C42.7,24.8,42.8,23.8,43.2,22.8z"/>
	<path class="st0" d="M162.9,17.5c-0.5,1.8-1.2,3.6-2.1,5.3c-0.9,1.7-2.2,3.4-3.8,5c-1.6,1.6-3.6,3.1-6,4.4c0.4,0.2,0.7,0.5,1.1,0.9
		c0.4,0.4,0.8,0.8,1.2,1.2c0.4,0.4,0.7,0.8,0.9,1.2c2.6-1.5,4.8-3.1,6.5-5c1.7-1.8,3.1-3.7,4.1-5.7c1-2,1.8-4,2.3-6
		c0.5-2,0.8-4,1-5.9c0-0.3,0-0.6,0.1-0.9h11.4c-0.1,2.2-0.2,4.2-0.4,5.9c-0.2,2.6-0.4,4.7-0.6,6.4c-0.2,1.7-0.5,3-0.8,4
		c-0.3,1-0.6,1.6-0.9,1.9c-0.2,0.3-0.5,0.4-0.7,0.5c-0.3,0.1-0.6,0.1-1,0.1c-0.5,0-1.3,0-2.3,0c-1.1,0-2.2-0.1-3.4-0.2
		c0.4,0.6,0.7,1.3,1,2.1s0.4,1.5,0.4,2.1c1.1,0.1,2.3,0.1,3.4,0.1c1.1,0,2,0,2.7-0.1c0.8-0.1,1.5-0.3,2.1-0.5
		c0.6-0.3,1.1-0.7,1.7-1.4c0.4-0.5,0.8-1.2,1.1-2.3c0.3-1,0.6-2.5,0.9-4.2c0.3-1.8,0.5-4,0.7-6.7c0.2-2.7,0.4-6,0.6-9.8
		c0-0.2,0-0.5,0.1-0.8s0-0.7,0-1.3h-2.5h-1.7h-11.4c0-0.1,0-0.3,0-0.5V0H164v7.5c0,0.1,0,0.3,0,0.5h-11.9v4.2h11.7
		c0,0.1,0,0.1,0,0.2C163.6,14,163.3,15.8,162.9,17.5z M163.8,11.1h-10.7V8.9H165l0-1.5V1h2.3v6.5l0,0.4l0,1h15.6c0,0.1,0,0.1,0,0.2
		c0,0.3,0,0.5-0.1,0.7c-0.2,3.9-0.4,7.2-0.6,9.8c-0.2,2.7-0.4,4.9-0.7,6.7c-0.2,1.7-0.5,3.1-0.8,4.1c-0.3,1.1-0.7,1.6-0.9,1.9
		c-0.5,0.6-0.9,1-1.3,1.2c-0.5,0.2-1.1,0.4-1.8,0.5c-0.6,0.1-1.3,0.1-2.2,0.1l-0.3,0c-0.8,0-1.7,0-2.5-0.1c-0.1-0.4-0.2-0.9-0.4-1.5
		c-0.1-0.2-0.2-0.4-0.2-0.7c0.6,0,1.2,0.1,1.7,0.1c1.1,0,1.8,0,2.3,0c0.5,0,0.9,0,1.3-0.2c0.4-0.1,0.9-0.4,1.2-0.8
		c0.4-0.4,0.8-1.2,1.1-2.3c0.3-1,0.6-2.4,0.8-4.2c0.2-1.7,0.4-3.9,0.6-6.5c0.1-1.7,0.3-3.7,0.4-5.9l0.1-1.1h-13.4l-0.1,0.9
		c0,0,0,0.7-0.1,0.9c-0.2,1.9-0.5,3.8-1,5.8c-0.5,1.9-1.2,3.9-2.2,5.8c-1,1.9-2.3,3.7-4,5.5c-1.5,1.5-3.3,3-5.5,4.3
		c-0.1-0.2-0.3-0.3-0.4-0.5c-0.4-0.4-0.8-0.9-1.2-1.3c0,0-0.1-0.1-0.1-0.1c2-1.2,3.6-2.5,5-3.9c1.6-1.7,3-3.4,4-5.3
		c1-1.8,1.7-3.7,2.2-5.5c0.5-1.8,0.8-3.7,0.9-5.4l0.1-1.2L163.8,11.1z"/>
	<path class="st0" d="M51,12c2.1,0,4.1-0.1,6-0.3c0.2,0.6,0.5,1.2,0.8,1.7c0.5,1.1,1,2.1,1.6,3.1c0.5,1,1.1,1.8,1.5,2.6
		c-0.4,0-0.9-0.1-1.6-0.1c-0.7-0.1-1.4-0.1-2.1-0.2c-0.7-0.1-1.4-0.1-2.1-0.2l-0.3,3.6c0.8,0.1,1.6,0.1,2.6,0.2
		c0.9,0.1,1.8,0.2,2.8,0.3c0.9,0.1,1.8,0.2,2.6,0.3c0.8,0.1,1.4,0.2,2,0.3l2.1-3c-0.3-0.4-0.7-0.8-1-1.2c-0.3-0.4-0.6-0.8-1-1.2
		c-0.7-0.9-1.4-2.2-2.2-3.7c-0.5-1-1-2-1.4-3c0.4-0.1,0.8-0.1,1.2-0.2c1-0.2,2.1-0.3,3.1-0.6c1-0.2,1.9-0.4,2.8-0.7l-0.5-4.3
		c-1,0.3-2,0.6-3.1,0.8c-1.1,0.3-2.2,0.5-3.3,0.7c-0.5,0.1-1.1,0.2-1.6,0.2c0-0.1-0.1-0.3-0.1-0.4C59.2,5.9,59,5,58.7,4
		c-0.2-0.9-0.4-1.9-0.6-2.8l-4.6,0.5c0.2,0.6,0.4,1.2,0.6,1.8c0.2,0.6,0.4,1.1,0.5,1.6c0.2,0.6,0.4,1.3,0.7,2.2
		c0,0.1,0.1,0.3,0.1,0.4c-0.8,0.1-1.6,0.1-2.5,0.1c-1.8,0.1-3.7,0-5.8-0.1c-2-0.1-4.2-0.3-6.5-0.6l0.1,4.3C44.6,11.9,48,12,51,12z
		 M47.2,8.8c1.3,0.1,2.5,0.1,3.7,0.1c0.7,0,1.5,0,2.2,0c0.9,0,1.7-0.1,2.5-0.1l1.3-0.1l-0.6-1.6c-0.3-0.9-0.5-1.6-0.7-2.2
		c-0.2-0.4-0.3-0.9-0.5-1.5c-0.1-0.2-0.1-0.5-0.2-0.7l2.4-0.3c0.1,0.6,0.3,1.3,0.5,1.9c0.2,1,0.5,1.9,0.8,2.9L59,8.4l1.4-0.2
		c0.4,0,0.7-0.1,1.1-0.2c1.1-0.2,2.3-0.4,3.3-0.7c0.7-0.2,1.4-0.3,2-0.5l0.3,2.2c-0.6,0.2-1.2,0.3-1.9,0.4c-1,0.2-2,0.4-3,0.5
		c-0.2,0-0.5,0.1-0.7,0.1l-1.8,0.3l0.5,1.2c0.5,1.2,1,2.1,1.4,3c0.8,1.6,1.6,2.9,2.3,3.8c0.4,0.5,0.7,0.9,1,1.3
		c0.2,0.2,0.3,0.4,0.5,0.6l-1.3,1.9c-0.4-0.1-0.9-0.1-1.4-0.2c-0.8-0.1-1.7-0.2-2.6-0.3c-0.9-0.1-1.9-0.2-2.8-0.3
		c-0.5-0.1-1.1-0.1-1.6-0.1l0.2-1.6c0.4,0,0.7,0.1,1.1,0.1c0.7,0.1,1.4,0.1,2.1,0.2c0.7,0.1,1.2,0.1,1.6,0.1l2,0.1l-1-1.7
		c-0.5-0.7-1-1.6-1.5-2.5c-0.5-0.9-1-1.9-1.5-3c-0.3-0.6-0.5-1.1-0.7-1.7l-0.3-0.7l-0.7,0.1C55.1,10.9,53.1,11,51,11
		c-0.3,0-0.7,0-1,0c-2.5,0-5.2-0.1-8.2-0.3l0-2.3C43.7,8.6,45.5,8.7,47.2,8.8z"/>
	<path class="st0" d="M83.1,14.8c-0.2,0.3-0.4,0.7-0.7,1c-0.6,0.8-1.2,1.7-1.8,2.6c-0.7,0.9-1.3,1.8-2,2.8c-0.7,0.9-1.3,1.8-2,2.6
		c-0.6,0.8-1.2,1.5-1.7,2.1l2.7,3.8c0.5-0.7,1.1-1.6,1.8-2.5c0.7-1,1.3-1.9,2-2.9c0.5-0.7,1-1.4,1.4-2.1c0,0.9,0,1.8-0.1,2.5
		c0,1.1,0,2.2-0.1,3.2c0,1,0,2.1-0.1,3.4c0,0.3,0,0.7,0,1.2c0,0.5,0,1-0.1,1.4h4.7c-0.1-0.4-0.1-0.9-0.2-1.4c-0.1-0.5-0.1-1-0.1-1.3
		c-0.1-1.2-0.1-2.3-0.1-3.3c0-1.1,0-2.1-0.1-3.2c0-1.1,0-2.1,0-3.2c0-1.1,0-2.2,0.1-3.4c0.3-0.3,0.5-0.5,0.8-0.8
		c1.1-1.1,2.1-2.1,3.3-3c1.1-0.9,2.3-1.7,3.3-2.3c1.1-0.6,2.1-0.9,3-0.9c0.9,0,1.5,0.2,2,0.7c0.5,0.5,0.7,1.2,0.7,2.2
		c0,0.9-0.1,1.9-0.2,3c-0.1,1.1-0.3,2.3-0.5,3.5c-0.2,1.2-0.3,2.4-0.5,3.6c-0.1,1.2-0.2,2.3-0.2,3.3c0,1.8,0.4,3.1,1.3,4.1
		c0.8,0.9,2,1.4,3.3,1.4c1.5,0,2.8-0.3,4-0.8c1.2-0.5,2.2-1.2,3.1-2.1l-0.6-4.8c-0.9,0.9-1.8,1.6-2.7,2.1c-0.9,0.5-1.7,0.7-2.5,0.7
		c-0.5,0-0.9-0.2-1.2-0.6c-0.3-0.4-0.4-0.8-0.4-1.3c0-1,0.1-2,0.2-3.2c0.1-1.2,0.3-2.4,0.5-3.6c0.2-1.2,0.3-2.4,0.5-3.6
		c0.1-1.2,0.2-2.2,0.2-3.2c0-1.1-0.2-2-0.6-2.8c-0.4-0.8-1.1-1.5-1.9-1.9C100.8,7.2,99.7,7,98.4,7c-1,0-2,0.2-3.1,0.6
		c-1.1,0.4-2.1,0.9-3.2,1.6c-1.1,0.6-2,1.3-3,2.1c-0.7,0.6-1.4,1.1-2,1.7c0-0.1,0-0.3,0-0.4c0-0.3,0.1-0.6,0.1-0.8
		c0.1-0.1,0.1-0.2,0.2-0.3c0.3-0.5,0.6-0.9,0.9-1.4s0.6-0.8,0.8-1.1L87.8,7C87.9,6,88,5,88.1,4.1c0.2-1.1,0.3-1.9,0.4-2.5l-5-0.2
		c0.1,0.6,0.2,1.1,0.2,1.7c0,0.5,0,1.1,0,1.6c0,0.3,0,0.7-0.1,1.5c0,0.5-0.1,1.1-0.1,1.7c0,0,0,0,0,0C82.7,8,81.8,8.1,81,8.2
		c-0.8,0.1-1.5,0.2-2.1,0.2c-0.6,0-1.1,0-1.6,0.1c-0.5,0-1,0-1.5,0l0.5,4.4c0.6-0.1,1.3-0.2,2.1-0.3c0.8-0.1,1.5-0.2,2.2-0.3
		c0.7-0.1,1.4-0.2,2.1-0.3c0.2,0,0.4-0.1,0.7-0.1c0,0,0,0.1,0,0.1C83.2,12.9,83.2,13.9,83.1,14.8z M83.2,10.9l-0.7,0.1
		c-0.6,0.1-1.3,0.2-2.1,0.3c-0.7,0.1-3,0.4-3.3,0.5l-0.2-2.2c0.1,0,0.3,0,0.4,0c0.5,0,1,0,1.6-0.1c0.6,0,1.3-0.1,2.2-0.2
		c0.8-0.1,1.7-0.2,2.6-0.3l0.8-0.1l0.1-0.8c0-0.6,0.1-1.2,0.1-1.7c0-0.7,0.1-1.3,0.1-1.5V3.1c0-0.2,0-0.4,0-0.6l2.6,0.1
		C87.3,3,87.2,3.5,87.2,4c-0.1,0.9-0.3,1.8-0.4,2.9l0,0.4l1.2,1.5l-0.4,0.5c-0.3,0.5-0.6,0.9-0.9,1.4l-0.3,0.5l-0.1,1.1l0,0.4
		L86,15.2l1.9-1.7c0.7-0.6,1.3-1.1,1.9-1.6c0.9-0.7,1.9-1.4,2.9-2c1-0.6,2-1.1,3-1.5C96.6,8.1,97.6,8,98.4,8c1.1,0,2.1,0.2,2.8,0.6
		c0.7,0.4,1.2,0.9,1.5,1.5c0.3,0.7,0.5,1.5,0.5,2.4c0,0.9-0.1,2-0.2,3.1c-0.1,1.2-0.3,2.4-0.5,3.6c-0.2,1.2-0.3,2.4-0.5,3.6
		c-0.1,1.2-0.2,2.3-0.2,3.3c0,0.8,0.2,1.4,0.6,2c0.3,0.4,0.9,0.9,2,0.9c0.9,0,1.9-0.3,3-0.9c0.5-0.3,1-0.6,1.4-1l0.3,2.3
		c-0.7,0.6-1.6,1.2-2.5,1.6c-1,0.5-2.2,0.7-3.6,0.7c-1.1,0-1.9-0.4-2.6-1.1c-0.7-0.7-1-1.9-1-3.4c0-1,0.1-2.1,0.2-3.2
		c0.1-1.2,0.3-2.4,0.5-3.6c0.2-1.2,0.3-2.4,0.5-3.5c0.1-1.2,0.2-2.2,0.2-3.1c0-1.2-0.3-2.2-1-2.9c-0.7-0.7-1.6-1-2.7-1
		c-1.1,0-2.2,0.3-3.4,1c-1.1,0.6-2.3,1.4-3.5,2.4c-1.2,1-2.3,2-3.4,3.1c-0.2,0.2-0.4,0.4-0.5,0.6l-0.5,0.5l0,0.4
		c-0.1,1.3-0.1,2.5-0.1,3.5c0,1.1,0,2.1,0,3.2c0,1.1,0,2.1,0.1,3.2c0,1.1,0.1,2.2,0.1,3.4c0,0.4,0.1,0.8,0.1,1.4c0,0.1,0,0.2,0,0.3
		h-2.5c0-0.1,0-0.3,0-0.4c0-0.5,0-1,0-1.3c0-1.2,0-2.3,0.1-3.4c0-1,0-2.1,0.1-3.2l0.1-5.9l-3.3,4.9c-0.7,1-1.3,2-2,2.9
		c-0.3,0.5-0.7,0.9-1,1.4l-1.4-2c0.4-0.5,0.8-1,1.2-1.5c0.6-0.8,1.3-1.7,2-2.6l2-2.8c0.7-0.9,1.3-1.8,1.9-2.6
		c0.3-0.4,0.9-1.3,0.9-1.3l0-0.3c0.1-0.9,0.1-1.9,0.2-2.8l0.1-1.2L83.2,10.9z"/>
</g>
</svg>
