<?xml version="1.0" encoding="utf-8"?>
<!-- Generator: Adobe Illustrator 27.9.1, SVG Export Plug-In . SVG Version: 6.00 Build 0)  -->
<svg version="1.1" id="intergalactic" xmlns="http://www.w3.org/2000/svg" xmlns:xlink="http://www.w3.org/1999/xlink" x="0px"
	 y="0px" viewBox="0 0 321 154" style="enable-background:new 0 0 321 154;" xml:space="preserve">
<style type="text/css">
	.st0{fill:#050606;}
</style>
<path class="st0" d="M206.1,63.9l-2.5-1.6c-0.3-0.2-0.7-0.4-1-0.6l-5.7-3c-6.2-3.3-12.7-6.7-19.1-10c-3.8-2-5.2-1.7-7.8,1.9
	c-1.7,2.3-3.3,4.6-4.9,6.8l-3.6,5l32.9,18.9L206.1,63.9z M168.9,60.7l0.3-0.5c1.6-2.2,3.2-4.5,4.9-6.8c0.2-0.3,0.4-0.6,0.6-0.8
	c0.3,0.1,0.6,0.3,0.9,0.4c6.4,3.3,12.8,6.7,19.1,10l4.4,2.3l-6.1,9.1L168.9,60.7z M211,12.6c-0.1,0-0.1,0-0.3,0
	c-1.2-0.1-2.1,0.1-2.9,0.8c-0.8,0.7-1.1,1.7-1.1,2.9c0,0.9,0,1.8,0,2.8L180.8,4.8l-12.4,15.6l32.5,19.9l6.1-8.1v1.3h71.5v17.4
	c0,25.1,0,50.1,0,75.2c0,1.3-0.2,1.6-0.2,1.7c0,0-0.3,0.2-1.6,0.4c-0.3,0-0.6,0.1-0.9,0.1l-28.1-0.5c-0.3,0-0.6,0-1,0l-4.1,0.3
	l1.6,3.4c0.1,0.2,0.2,0.4,0.3,0.6c0.1,0.2,0.2,0.4,0.3,0.6c0.5,1.2,0.9,2.5,1.4,3.7c1.3,3.4,2.6,6.9,3.8,10.4
	c0.5,1.6,1.5,3.3,4.3,3.3c0.1,0,0.1,0,0.2,0c2.8-0.1,5.6-0.1,8.4-0.2c4.2-0.1,8.5-0.2,12.7-0.4c4.7-0.2,8.8-1,12.6-2.3
	c5.9-2.1,9.5-6.1,10.7-11.8c0.6-2.8,0.8-5.1,0.8-7.3c0-25.6,0-51.2,0-76.7l0-18h11.4V12.6H211z M199.6,33.6l-23.8-14.6l6.3-7.9
	l24.3,13.4L199.6,33.6z M306.1,28.4h-11.4l0,23c0,25.6,0,51.2,0,76.7c0,1.8-0.2,3.8-0.7,6.3c-0.8,3.9-3.2,6.5-7.4,8
	c-3.3,1.2-6.9,1.8-11.1,2c-4.2,0.2-8.5,0.3-12.6,0.4c-2.7,0.1-5.4,0.1-8.1,0.2c-1.2-3.6-2.5-7.1-3.8-10.6c-0.2-0.5-0.4-1.1-0.6-1.6
	l25.4,0.4c0.7,0,1.2,0,1.8-0.1c4.3-0.7,6-2.7,6-7c0-25.1,0-50.1,0-75.2V28.5h-71.5v-3.3l-0.1-1.7l-0.1,0c0-0.2,0.1-0.5,0.1-0.8
	l0-1.4c0-1.2,0-2.4,0-3.6h94.3V28.4z M136.6,24H95.9v17.3h40.7V24z M131.6,36.4h-30.7V29h30.7V36.4z M211.1,95
	c-0.7-0.6-1.4-1.2-2-1.8c-0.4-0.4-0.8-0.7-1.2-1.1l-10.3-9.3l-2.1,3.8c-8.7,15.8-17.7,32.1-28.2,46.9l-1.4,1.9l18,14.5l1.5-2.5
	c1.5-2.5,2.9-5.1,4.4-7.6c3.2-5.6,6.6-11.3,9.8-17.1c2.8-5,5.5-10.1,8.1-15c1.4-2.7,2.9-5.4,4.3-8.1C212.9,97.9,212.6,96.2,211.1,95
	z M203.3,105.4c-2.6,4.9-5.3,10-8,14.9c-3.2,5.7-6.5,11.4-9.7,17c-1,1.7-2,3.4-3,5.1l-9.8-7.9c9.8-14,18.2-29.1,26.2-43.8l5.6,5.1
	c0.4,0.3,0.7,0.7,1.1,1c0.5,0.4,1,0.9,1.4,1.3C205.8,100.6,204.6,103,203.3,105.4z M268.6,45.9h-54.5v71.3h19.7v-10.2h34.8V45.9z
	 M263.6,102.1h-34.8v10.2h-9.7V50.9h44.5V102.1z M253.5,60.7h-24.7v31.6h24.7V60.7z M248.5,87.3h-14.7V65.7h14.7V87.3z M136.6,50
	H95.9v17.8h40.7V50z M131.6,62.8h-30.7V55h30.7V62.8z M137.8,112l22.3-16.2l-14.2-13.4h6.4V9.5H80.4v18.6c-1.6-2-3.3-4-5.1-5.9
	C69.3,15.8,63,9.9,56.6,4.7c-0.9-0.7-2.1-1.2-3.3-1.2c-2,0-3.9,0-5.9,0c-1.9,0-3.8,0-5.7,0c-1.8,0-3.1,0.8-3.8,2.5
	c-5.9,13.3-14.4,24.7-25.2,34l-3.8,3.3l13.3,14.5l1-0.8v3h15.2v7.4h-22v19.1h21.9v20.2c-1.2-6.2-2.8-11.8-4.7-17.1l-0.8-2.1l-15.4,4
	l0.7,2.5c3,10.4,4.6,18.6,5.2,26.6l0.2,3l14.7-4v4.2l-24.9,3.9l4.5,19.6l52.6-9.7l3.3,11.7l3.2-0.7c0.7-0.2,1.3-0.3,1.9-0.4
	c14.3-3.4,28.5-6.9,42.8-10.3c2.9-0.7,3.8-1.9,3.4-4.9c-0.1-0.9-0.2-1.8-0.3-2.7c5.9,8.5,13,14.9,21.3,19.6c0.3,0.2,0.7,0.3,1,0.5
	l2.1,1l1.2-1.7c0.5-0.8,1-1.5,1.6-2.2c1.1-1.6,2.2-3.2,3.4-4.7c1.2-1.5,2.4-2.9,3.7-4.4c0.6-0.7,1.2-1.3,1.8-2l2.1-2.5l-2.9-1.4
	C150.9,127.9,143.6,121.3,137.8,112z M28.1,117c-0.7-6.8-2.1-13.8-4.4-22.1l6-1.5c2.2,6.6,3.9,13.7,5.1,21.8L28.1,117z M80.4,38.9
	v87L80,126c-0.1-1.8-0.2-3.5-0.3-5.2c0-1.2-0.5-2.2-1.3-2.8c-0.6-0.5-1.3-0.7-2.1-0.7c-0.3,0-0.5,0-0.8,0.1
	c-1.8,0.3-3.6,0.6-5.4,0.9l9.3-28l-15.6-4h14.6v-19H57.8v-7.4H75v-2.5c0-1.1,0-2.2,0-3.3c0-2.9,0-5.6,0-8.4c0-0.4,0-0.6,0.5-1.2
	c1.4-1.5,2.7-3.1,4-4.6C79.8,39.6,80.1,39.3,80.4,38.9z M60.7,113.6l5-21.6l7.3,1.9l-7.1,21.4L60.7,113.6z M62.9,119.5
	c-0.9,0.2-1.8,0.3-2.7,0.5c-0.8,0.1-1.6,0.3-2.4,0.4V118L62.9,119.5z M57.8,103.7V86.3h4.1L57.8,103.7z M151.4,139.5
	c-1.2,1.6-2.4,3.3-3.5,4.9c-0.1,0.1-0.2,0.3-0.3,0.4c-9-5.2-16.3-12.8-22.4-23.3c-0.7-1.2-1.4-2.4-2-3.7l-0.2-1.4l-0.5,0.1
	c-3.4-6.9-6.3-14.8-9-24.7c-0.8-2.8-1.5-5.7-2.2-8.6c-0.3-1.3-0.6-2.7-1-4l-0.5-1.9h-14v50.4l22.9-5.2c0.1,0.9,0.2,1.9,0.4,2.8
	c0.1,1.2,0.3,2.4,0.4,3.6c0.2,1.3,0.3,2.6,0.5,4c-14.1,3.4-28.2,6.8-42.3,10.2c-0.2,0-0.3,0.1-0.5,0.1L74,131.7l-52.3,9.6l-2.2-9.7
	l23.8-3.7V81.4H21.3v-9.1h22V55H28.1v-8.7l-5.5,4.6L16,43.6C27.2,34,36,22.2,42.2,8.5c1.7,0,3.5,0,5.2,0c1.9,0,3.9,0,5.8,0
	c0.1,0,0.2,0.1,0.2,0.1c6.2,5,12.4,10.8,18.2,17.1c1.7,1.8,3.3,3.8,4.9,5.7c0.6,0.7,1.2,1.5,1.8,2.2c-0.9,1-1.8,2.1-2.7,3.1
	c-1.3,1.5-2.6,3.1-4,4.6c-0.2,0.2-0.4,0.5-0.6,0.8C65.2,34,58.8,26.6,51.6,19.4l-2.3-2.2l-1.6,2.7c-4.5,7.6-9.7,14.8-16,22l-3.6,4.1
	H70c0.1,2.6,0,5.3,0,8c0,0.3,0,0.5,0,0.8H52.8v17.4h20.6v9H52.8v44.9l4.5-0.7c1.2-0.2,2.5-0.4,3.7-0.6c4.6-0.8,9.1-1.6,13.7-2.4
	c0.1,1.4,0.2,2.8,0.3,4.3l0.3,5.2l10-2V14.5h61.9v62.8h-28.1l7,23.3l3.2,0.8l15.4-13.3l7.5,7.1l-21.1,15.3l1.1,2
	c5.9,10,13.5,17.6,22.6,22.7C153.7,136.6,152.5,138.1,151.4,139.5z M117.6,117.7l-16.6,3.8V82.4h5.1c0.2,0.7,0.3,1.4,0.5,2.1
	c0.7,2.9,1.4,5.8,2.2,8.7C111.4,103,114.2,110.8,117.6,117.7z M64.1,41.1H38.9c4.2-5.2,8-10.4,11.4-15.8
	C55.3,30.3,59.9,35.5,64.1,41.1z M143.9,82.4l-14.3,12.3l-3.7-12.3H143.9z"/>
</svg>
