<?xml version="1.0" encoding="utf-8"?>
<!-- Generator: Adobe Illustrator 27.9.1, SVG Export Plug-In . SVG Version: 6.00 Build 0)  -->
<svg version="1.1" id="intergalactic" xmlns="http://www.w3.org/2000/svg" xmlns:xlink="http://www.w3.org/1999/xlink" x="0px"
	 y="0px" viewBox="0 0 654.5 155.5" style="enable-background:new 0 0 654.5 155.5;" xml:space="preserve">
<style type="text/css">
	.st0{fill:#050606;}
</style>
<path class="st0" d="M137.5,49.7H95.9v16.1h41.6V49.7z M133.5,61.8H99.9v-8.1h33.6V61.8z M139.9,113.9c5.6-3.7,10.7-8,15.7-12.1
	c2.1-1.8,4.3-3.6,6.5-5.3l1.7-1.3l-12.4-13.3h3.3l0-2c-0.4-26-0.4-49.5,0-71.8l0-2.2l-2.2,0.2c-8.9,0.9-18,0.8-26.8,0.7
	c-3.1,0-6.1-0.1-9.2-0.1c-2.6,0-5.1,0-7.7,0c-9.3,0.1-18.9,0.2-28.2-0.6l-2.2-0.2l0.5,22.6c-0.5-0.4-1-0.7-1.4-1.1
	c-9.2-6.8-15.7-14.5-19.7-23.6c-0.6-1.4-1.7-2-3.3-2c0,0,0,0,0,0c-4.8,0-10.4,0-16.1,0c0,0,0,0,0,0c-1.6,0-2.8,0.8-3.4,2.3
	c-4.5,11-11.8,20.5-22.4,29c-1.5,1.2-3.1,2.4-4.7,3.6c-0.8,0.6-1.5,1.1-2.3,1.7L4,39.4L5.1,41C8.4,45.7,11,51,13,57.1l0.9,2.9
	l7.2-6.3v4.9l13.6-0.4V66L9.3,65.3v20.5l25.5-0.7V128l-28,3.5l3.8,22.3l2-0.4c17.5-3.3,34.7-6.7,51.5-11.6l3.1,14l2-0.5
	c0.5-0.1,1-0.3,1.4-0.4c0.9-0.3,1.8-0.5,2.7-0.7c16-3.6,32.1-8,47.9-13.3c3.8-1.3,4.3-2.1,4.2-5.9l0-0.4c-0.1-1.4-0.1-2.8-0.1-4.3
	c7.6,10.5,17.1,18.5,24.9,24.4l1.7,1.3l13.8-19.9l-1.8-1.1C156.4,130.1,146.9,123.6,139.9,113.9z M78.8,57.1c0,24.7,0,49.5,0,74.2
	c-1.1,0.2-2.2,0.4-3.3,0.6v-13.4l-6.9,1.8l0,0c3.5-7.8,6.3-16.4,8.8-27l0.4-1.7l-16.3-5.7l-0.4,2.3c-1.4,8.2-3.3,15.6-5.9,22.4V85.2
	c1,0,2,0,2.9,0c5.5,0,11.1,0,16.7,0.8l2.3,0.3V65.4L55.3,66v-7.6H71v-8.2l0.2,0.2l7.5-11L78.8,57.1z M58.1,114.5
	c2.8-7.1,5-14.7,6.5-23.2l8.5,3c-2.1,8.8-4.5,16.1-7.4,22.8L58.1,114.5z M65.5,121.2l-10.2,2.7v-6.1L65.5,121.2z M151,150.1
	c-8.5-6.6-18.7-15.6-25.9-27.5l-3.7-6.2v0.2c-5.7-10.4-9.4-22.4-11.6-37.3l-0.3-1.7H95.9v54.7l25.5-7.6c0,0.8,0,1.5,0,2.3
	c0,2.5,0,5.1,0.1,7.6l0,0.4c0,0.5,0,1.1,0,1.4c-0.3,0.2-1,0.4-1.5,0.5c-15.6,5.2-31.6,9.7-47.5,13.2c-0.8,0.2-1.5,0.4-2.3,0.6
	l-3.2-14.1l-2.1,0.6c-16.7,5.1-33.7,8.5-51.2,11.8L11.5,135l27.3-3.4V81l-25.5,0.7V69.4l25.5,0.8V54l-13.6,0.4v-9.6L15.8,53
	c-1.7-4.6-3.8-8.8-6.3-12.7c0.2-0.2,0.5-0.4,0.7-0.5c1.6-1.2,3.3-2.4,4.8-3.7c11-8.9,18.7-18.8,23.5-30.4c5.5,0,11,0,15.7,0
	c4.3,9.6,11.1,17.7,20.8,24.9c1,0.7,1.9,1.4,2.9,2.1l0.4,0.3l-7.8,11.4L69,43l-2.9-2.8C58.8,33.1,53,25.8,48.6,18l-1.8-3.2L45.1,18
	c-4.5,8.7-9.7,16-15.7,22.2L26,43.7h41v10.7H51.3v15.7l21.9-0.6v12.2c-5.1-0.6-10.1-0.5-15-0.5c-1.6,0-3.3,0-4.9,0l-2,0V129
	l20.2-5.3v13l2.4-0.4c0.7-0.1,1.3-0.3,2-0.4c1.4-0.3,2.8-0.5,4.1-0.7c1.3-0.2,2.8-0.9,2.8-3.4c0-24.9,0-49.8,0-74.7l0-22.4
	c0-0.3,0-0.6-0.1-0.9l0-0.1l0.2-0.1l-0.5-23.6c8.8,0.6,17.7,0.5,26.4,0.4c2.5,0,5.1,0,7.7,0c3,0,6.1,0,9.2,0.1
	c8.2,0.1,16.6,0.2,25-0.5c-0.4,21.1-0.4,43.3,0,67.7h-28.9l0.4,2.3c1,6.3,2.3,13.7,5.5,20.6l1,2.1l1.9-1.3
	c6.6-4.4,13.3-9.5,18.8-16.1l8.6,9.2c-1.7,1.3-3.3,2.7-4.9,4c-5.4,4.5-11,9.1-17,12.9l-1.8,1.1l1.2,1.7
	c7.1,10.4,16.7,17.5,24.7,22.6L151,150.1z M119.3,121.1l-19.5,5.8V81.6h6.2C108.6,97.4,112.8,110.1,119.3,121.1z M59.9,39.7H35.3
	c4.3-4.9,8.1-10.4,11.6-16.7C50.5,28.8,54.8,34.3,59.9,39.7z M147.1,81.8c-4.7,6.1-10.8,10.9-16.9,15.1c-2-5-3.1-10.1-3.9-15.1
	H147.1z M137.5,22.5H95.9v15.8h41.6V22.5z M133.5,34.3H99.9v-7.8h33.6V34.3z M211.1,96.7L211.1,96.7c-2.6-1.8-5.2-3.6-7.8-5.5
	l-8.6-6.1l-1.1,2.7c-0.1,0.2-0.2,0.4-0.2,0.6c-0.8,2.1-1.6,4.1-2.3,6.2c-1.7,4.5-3.4,9.1-5.3,13.6c-4.4,10.5-8.7,18.5-13.5,25.4
	c-0.6,0.9-1.3,1.7-2,2.6c-0.3,0.4-0.7,0.9-1,1.3l-1.1,1.5l19.5,17.3l1.2-2.2c0.9-1.6,1.7-3.2,2.6-4.8c1.9-3.6,3.7-7,5.6-10.4
	c6.4-12.3,11-25.6,15.5-38.4C213,99,212.5,97.7,211.1,96.7z M193.4,137c-1.8,3.5-3.6,6.8-5.5,10.4c-0.5,0.9-0.9,1.7-1.4,2.6
	l-12.9-11.5c0.6-0.8,1.3-1.6,1.9-2.5c5-7.1,9.5-15.4,14-26.1c1.9-4.5,3.7-9.2,5.4-13.7c0.6-1.6,1.2-3.2,1.8-4.7l4.5,3.1
	c2.5,1.7,5,3.5,7.4,5.2C204.1,112.2,199.6,125.1,193.4,137z M485.9,4.4l-2.1,0.1c-21.9,0.6-44,0.6-65.7,0L416,4.5l0.1,2.1
	c0.5,18.1,0.5,36.8,0,55.5l-0.1,2.1H464v10.4c0,18.6,0,37.2,0,55.8c0,0.6-0.1,1.2-0.1,1.7c-0.1,0.8-0.4,0.9-0.8,1.1
	c-0.7,0.2-1.5,0.4-2.2,0.4c-3.5-0.1-7.2-0.4-11.7-0.7l-0.1-1.5c-0.2-3.7-0.3-7.6-0.4-11.4c-0.1-9.5,0-19.1,0-28.4l0-5.1
	c0-1.1,0-2.2,0.1-3.3c0-1,0.1-1.9,0.1-2.9c0-2,0-4,0-6l0-4.5l-2.1,0.1c-21.9,0.7-44.6,0.7-67.5,0l-2.1-0.1l0,2.6c0,0.5,0,1,0,1.4
	c0,1.3,0.1,2.6,0.2,4c0.1,2.6,0.2,5.3,0.2,7.9c0,8.1,0,16.3,0,24.2l0,6.6c0,1.2,0,2.4,0,3.6c0,6.4,0,13-0.7,19.4
	c-0.1,0.9-0.2,1.8-0.3,2.8l-0.4,3.5h21.9v-9.2h7.5c10.2,0,20.4,0,30.5,0c0.9,0,1.9,0,2.9,0.1c1.8,4.8,3,9.5,3.5,14.1
	c0.3,2.5,2,3.1,3.3,3.1c2.2,0,4.4,0.1,6.6,0.1c3.4,0.1,7,0.1,10.5,0.1c0.5,0,1.1,0,1.6,0c2.4,0,5-0.3,7.9-1c8.3-1.8,11-7,11.7-11.1
	c0.5-2.9,0.8-5.8,0.8-8.6c0-20.9,0-41.8,0-62.8c0-16.8,0-33.7,0-50.5c0-2.5,0.1-5.1,0.3-7.6c0.1-1.3,0.1-2.6,0.2-3.9
	c0-0.6,0-1.2,0-1.7L485.9,4.4z M481.7,12.4c-0.1,2.6-0.3,5.2-0.3,7.8c0,16.8,0,33.7,0,50.5c0,20.9,0,41.8,0,62.7
	c0,2.6-0.3,5.2-0.8,7.9c-0.8,4.2-3.6,6.8-8.6,7.9c-2.7,0.6-5,0.9-7.1,0.9c-4,0-8.1-0.1-12-0.1c-2,0-4-0.1-6.1-0.1
	c-0.6-5-1.9-10.1-3.9-15.2c-0.4-1.1-1.7-1.9-2.7-2c-1.3-0.1-2.6-0.1-3.8-0.1c-10.2,0-20.4,0-30.5,0h-11.5v9.2h-13.5
	c0.1-0.6,0.1-1.2,0.2-1.8c0.8-6.6,0.7-13.3,0.7-19.8c0-1.2,0-2.4,0-3.6l0-6.6c0-7.9,0-16.2,0-24.2c0-2.7-0.1-5.4-0.2-8
	c-0.1-1.2-0.1-2.5-0.2-3.7c21.5,0.6,42.9,0.6,63.6,0l0,0.4c0,2,0,3.9,0,5.9c0,0.9,0,1.9-0.1,2.8c0,1.1-0.1,2.3-0.1,3.4l0,5.1
	c0,9.3,0,18.9,0,28.4c0,3.9,0.2,7.8,0.4,11.5l0.1,2.5c0.1,1.2,1.2,2.7,2.6,2.8c5,0.3,9.1,0.6,12.9,0.7c1.2,0.1,2.4-0.2,3.4-0.5
	c2.1-0.6,3.4-2.2,3.7-4.5c0.1-0.6,0.1-1.3,0.1-2.1c0-18.6,0-37.2,0-55.8V60.2h-47.8c0.4-17.4,0.4-34.7,0-51.6
	c20.4,0.5,41.2,0.5,61.8,0C481.8,9.8,481.8,11.1,481.7,12.4z M433.1,51h34.8V38.7h-34.8V51z M437.1,42.7h26.8V47h-26.8V42.7z
	 M394.4,122.5H432v-14.4h-37.6V122.5z M398.4,112.1H428v6.4h-29.6V112.1z M433.1,30.5h34.8V18.6h-34.8V30.5z M437.1,22.6h26.8v3.9
	h-26.8V22.6z M432,84.5h-37.6v13.7H432V84.5z M428,94.3h-29.6v-5.7H428V94.3z M647.8,60.3c-4.2-17.5-14.3-30.5-30-38.6
	c-9.8-5.1-20.9-7.6-34.1-7.8c-8.1-0.1-16.1,0.7-23.5,2.6c-16.3,4.1-29.4,12.5-38.9,24.8c-14.1,18.2-18.6,39.2-13.5,62.4
	c2,9.1,6,16.6,12,22.3c7.7,7.4,16.8,10,27.1,7.7c5.5-1.3,10.5-4.4,15.3-9.6c4.5-4.9,8.2-10.7,12-19c5.2-11.2,9.4-23.6,12.8-38
	c2.2-9.2,3.9-18.4,5-27.5c0.1-1,0.3-2,0.4-3c0.5,0.1,1,0.1,1.5,0.2l0.7,0.1c0.9,0.1,1.7,0.3,2.4,0.5c12.2,3.4,20.7,11,25.5,22.8
	c3.4,8.3,3.8,17.6,1.3,27.6c-2.7,10.9-8.6,19.5-17.4,25.5c-5.8,3.9-12.7,6.6-21.7,8.4c-3,0.6-5.9,1.1-9.1,1.6
	c-1.4,0.2-2.8,0.5-4.3,0.7l-3.4,0.6l2.2,2.6c4.5,5.5,7.7,11.7,9.6,18.5l0.5,1.7l2.5-0.4c0.5-0.1,1-0.1,1.5-0.2
	c9.3-1.6,16.4-3.5,22.7-6.1c24.7-10,38.9-28.5,42.2-55C650.3,77.2,649.8,68.6,647.8,60.3z M645.2,85.3c-3.1,25-16.5,42.5-39.7,51.8
	c-6.1,2.5-12.9,4.3-21.9,5.8c-0.1,0-0.3,0-0.4,0.1c-1.8-5.6-4.4-10.8-7.8-15.6c0.3-0.1,0.6-0.1,1-0.2c3.2-0.5,6.1-1,9.2-1.6
	c9.6-1.9,17-4.8,23.2-9c9.7-6.6,16.1-16,19.1-27.9c2.7-10.8,2.2-20.9-1.5-30c-5.2-13-14.7-21.4-28.1-25.2c-1-0.3-2-0.4-2.9-0.6
	l-0.7-0.1c-0.8-0.1-1.6-0.2-2.4-0.3l-3.1-0.4l-0.5,3.5c-0.2,1.2-0.3,2.3-0.5,3.4c-1.2,9-2.8,18.1-5,27.1
	c-3.3,14.1-7.5,26.3-12.6,37.2c-3.7,7.9-7.2,13.4-11.3,17.9c-4.2,4.6-8.4,7.3-13.2,8.4c-8.9,2-16.7-0.2-23.4-6.6
	c-5.4-5.2-9-12-10.8-20.3c-4.8-22-0.5-41.8,12.8-59.1c9-11.6,21.3-19.5,36.8-23.4c7.1-1.8,14.7-2.6,22.5-2.5
	c12.5,0.2,23.1,2.6,32.3,7.4c14.6,7.6,24,19.6,27.9,35.9C645.8,69.1,646.2,77.2,645.2,85.3z M569.2,32.7c-3.5,0.5-8.1,1.4-12.5,3.4
	c-11.7,5.4-20.5,14.2-26.1,26.2c-5.7,12-7.1,24.1-4.2,35.9c1.3,5.3,3.4,9.1,6.6,12c2.1,1.9,4.4,2.8,6.8,2.8c2.2,0,4.4-0.8,6.5-2.4
	c3-2.4,5-5.5,6.5-7.9c4-6.8,7.3-14.4,10.6-24.7c3.8-12,6.7-24.9,8.6-38.4c0.1-1.1,0.3-2.1,0.4-3.2c0.1-0.5,0.1-1,0.2-1.6l0.3-2.2
	l-2.5,0C569.8,32.7,569.6,32.7,569.2,32.7z M567.8,39.2c-1.9,13.2-4.7,25.9-8.4,37.7c-3.2,10-6.3,17.3-10.2,23.9
	c-1.3,2.3-3.1,4.8-5.5,6.8c-2.8,2.2-5.5,2.1-8.1-0.2c-2.6-2.3-4.3-5.5-5.4-10c-2.6-10.9-1.3-22.1,3.9-33.3
	c5.2-11.2,13.4-19.3,24.2-24.3c3.3-1.5,6.8-2.3,9.7-2.8C568,37.7,567.9,38.4,567.8,39.2z M364.2,148.7c-0.2-2.9-0.5-5.9-0.5-8.8
	c-0.1-19-0.1-38.3-0.1-56.9l0-18.9h45.2l-0.1-2.1c-0.5-18.9-0.5-37.6,0-55.5l0.1-2.1l-2.1,0.1c-21,0.6-42.3,0.6-63.2,0l-2.2-0.1
	l0.1,2.2c0.1,1.1,0.1,2.1,0.2,3.2c0.1,2.2,0.3,4.5,0.3,6.8c0,35.6,0.1,67.7,0,100.6c0,2.8,0,5.7,0,8.5c0.1,9.2,0.2,18.7-0.9,28
	l-0.3,2.2h23.7l0-2.3c0-0.2,0-0.4,0-0.7C364.4,151.6,364.3,150.1,364.2,148.7z M345.3,151.9c0.9-8.8,0.8-17.7,0.7-26.3
	c0-2.8-0.1-5.6,0-8.4c0.1-32.9,0-65,0-100.6c0-2.4-0.2-4.7-0.3-7c0-0.3,0-0.6-0.1-1c19.6,0.5,39.5,0.5,59.1,0
	c-0.5,16.7-0.5,34,0,51.6h-45.1l0,22.9c0,18.7,0,38,0.1,56.9c0,3.1,0.3,6.2,0.5,9.1c0.1,0.9,0.2,1.9,0.2,2.8H345.3z M392,18.6h-32.3
	v11.9H392V18.6z M388,26.5h-24.3v-3.9H388V26.5z M359.7,51H392V38.7h-32.3V51z M363.7,42.7H388V47h-24.3V42.7z M17.4,128.3l2.8-0.9
	c0.3-0.1,0.6-0.2,0.9-0.3c1.1-0.4,2.1-0.7,3.2-1.1c2.6-0.9,5.2-1.8,7.8-2.7h0c2.6-0.9,2.6-2.9,2.4-4c-0.4-2.1-0.9-4.1-1.3-6.2
	c-0.9-4.3-1.8-8.7-2.8-13c-0.6-2.7-1.5-5.5-2.3-8.1c-0.4-1.2-0.8-2.4-1.1-3.6l-0.6-1.9L9.1,91.8l0.7,2c3.6,10.3,6.1,20.8,7.4,32.1
	L17.4,128.3z M23.8,91.4c0.2,0.6,0.4,1.2,0.5,1.8c0.8,2.7,1.6,5.2,2.2,7.8c1,4.3,1.9,8.7,2.7,12.9c0.4,1.9,0.8,3.8,1.2,5.7
	c-2.5,0.8-5.1,1.7-7.5,2.6c-0.7,0.3-1.4,0.5-2.1,0.8c-1.3-9.9-3.5-19.3-6.6-28.6L23.8,91.4z M316.8,5.7c-4.1,0.3-8.4,0.5-12.6,0.5
	c-21.1,0.1-42.6,0.1-63.4,0l-6.5,0c-3.9,0-7.8-0.2-11.4-0.3c-1.7-0.1-3.5-0.2-5.3-0.4c-0.8-0.1-1.7-0.1-2.6-0.2l-2.2-0.2v12
	c-0.3-0.2-0.5-0.4-0.8-0.6c-3-2.4-6.1-4.8-9.2-7.1c-3.1-2.3-6.4-4.5-9.6-6.6c-1.4-0.9-2.8-1.9-4.2-2.8l-1.4-1l-14.5,16.2l2,1.3
	c10.5,6.4,20,14.1,29.1,23.5l1.5,1.6l1.8-2.1c0.2-0.3,0.5-0.5,0.6-0.8l2.1-2.7c2-2.5,3.9-5,5.9-7.5c0,0,0,0,0,0
	c0.8-0.1,1.7-0.1,2.5-0.2c3-0.2,6.1-0.5,9.1-0.5c16.2-0.1,32.7-0.1,48.7,0l15.5,0l0,14.3c0,29.8,0,59.5,0,89.3
	c0,1.6-0.2,1.8-1.7,1.9c-5.8,0.4-12.1,0.1-19.9-0.8c-1.3-0.2-2.6-0.3-3.9-0.5l-4.8-0.5l1,3.2c0.1,0.3,0.1,0.5,0.2,0.6
	c2.2,5,3.6,10.3,4.1,15.8c0.1,0.8,0.5,2.5,2.9,2.7c2.1,0.1,4.2,0.2,6.4,0.3c4.5,0.2,9.2,0.5,13.8,0.5c0.1,0,0.2,0,0.3,0
	c3.4,0,7.2-0.4,11.3-1.2c6.4-1.3,10.5-5,11.8-10.9c0.5-2.4,0.8-4.9,0.8-7.5c0-28.8,0-57.6,0-86.5l0-20.7l11.8,0.6V5.2l-3.7,0.2
	C320.7,5.5,318.8,5.6,316.8,5.7z M213.2,25.9c-2,2.5-4,5-5.9,7.5l-1.7,2.1c-8.3-8.4-16.9-15.4-26.3-21.3l9-10
	c0.9,0.6,1.9,1.3,2.8,1.9c3.3,2.2,6.4,4.3,9.4,6.5c3.1,2.2,6,4.6,9,7c1.3,1.1,2.7,2.1,4,3.2l2.1,1.6
	C214.4,24.6,213.5,25.5,213.2,25.9z M322.3,24.1l-11.8-0.6l0,24.9c0,28.8,0,57.6,0,86.5c0,2.3-0.2,4.5-0.7,6.6
	c-1,4.3-3.9,6.9-8.7,7.9c-4,0.8-7.5,1.2-10.8,1.2c-4.5,0-9.1-0.3-13.6-0.5c-1.8-0.1-3.7-0.2-5.6-0.3c-0.5-4.7-1.6-9.2-3.3-13.6
	c0.8,0.1,1.5,0.2,2.3,0.3c8.1,1,14.6,1.2,20.7,0.8c3.7-0.2,5.5-2.2,5.5-5.9c0-29.8,0-59.5,0-89.3l0-15.5c0-0.2,0-0.3,0-0.5l-0.1-2.2
	l-19.4,0c-16,0-32.5,0-48.7,0c-3.2,0-6.3,0.3-9.4,0.5c-0.6,0-1.2,0.1-1.8,0.1V9.5c0.1,0,0.3,0,0.4,0c1.9,0.2,3.7,0.3,5.5,0.4
	c3.7,0.2,7.7,0.3,11.6,0.3l6.5,0c20.8,0,42.3,0.1,63.4,0c4.3,0,8.6-0.3,12.8-0.5c1.8-0.1,3.5-0.2,5.3-0.3V24.1z M182.1,39.9
	l-1.5-0.8L167,56.4l2.1,1.1c10.1,5.4,19.7,12.7,30.1,22.8l1.7,1.6l13.3-19l-1.4-1.2C201.6,52.2,191.9,45.3,182.1,39.9z M200.3,75.8
	c-9.3-8.9-18.1-15.5-27.2-20.7l8.6-10.9c8.7,4.9,17.4,11.1,27.2,19.4L200.3,75.8z M237.8,96.3h24.7V56.4h-24.7V96.3z M241.8,60.4
	h16.7v31.9h-16.7V60.4z M280.5,110.7c-0.5-22.5-0.5-45.6,0-68.7l0-2.1l-2.1,0.1c-17.7,0.6-36.7,0.6-56.4,0l-2.2-0.1l0.2,2.2
	c0.8,10.1,0.7,20.4,0.6,30.4c0,3.6-0.1,7.2-0.1,10.7c0,2.9,0,5.8,0.1,8.7c0.1,10.7,0.2,21.7-0.8,32.5l-0.2,2.2h22v-14h38.9
	L280.5,110.7z M237.7,108.8v14H224c0.8-10.3,0.7-20.7,0.6-30.7c0-2.9-0.1-5.8-0.1-8.7c0-3.6,0-7.1,0.1-10.7c0.1-9.4,0.2-19-0.5-28.6
	c18.2,0.5,35.7,0.5,52.3,0c-0.5,21.8-0.5,43.5,0,64.7H237.7z"/>
</svg>
