<?xml version="1.0" encoding="utf-8"?>
<!-- Generator: Adobe Illustrator 27.9.1, SVG Export Plug-In . SVG Version: 6.00 Build 0)  -->
<svg version="1.1" id="Layer_1" xmlns:inkscape="http://www.inkscape.org/namespaces/inkscape"
	 xmlns="http://www.w3.org/2000/svg" xmlns:xlink="http://www.w3.org/1999/xlink" x="0px" y="0px" viewBox="0 0 289.8 32"
	 style="enable-background:new 0 0 289.8 32;" xml:space="preserve">
<style type="text/css">
	.st0{fill:#070707;}
</style>
<g>
	<path class="st0" d="M19.4,22.7c0.3-3.4,0.5-6,0.5-7.6c0-3.7-1.4-5.6-4.1-5.8C12,9.3,8.1,9.6,4,10.2c0.1,2.7,0.1,6,0.1,9.8v3.4
		C8.3,23.3,13.4,23.1,19.4,22.7z M15.8,10.3c1.3,0.1,3.1,0.6,3.1,4.8c0,1.5-0.1,3.7-0.4,6.7c-5.1,0.3-9.6,0.5-13.4,0.6v-2.3
		c0-3.4,0-6.4-0.1-9C8.7,10.6,12.4,10.3,15.8,10.3z"/>
	<path class="st0" d="M7.8,18.4v1h1c0.6,0,2.6,0,6-0.1l0.8,0l0.2-0.8c0.1-0.7,0.2-1.5,0.2-2.3l0-0.5c0-1.6-0.9-2.2-1.5-2.4
		c-0.4-0.1-1-0.2-2.8-0.2c-0.7,0-1.7,0.2-3.1,0.5l-0.8,0.2l0,0.8C7.8,15.7,7.8,17,7.8,18.4z M11.6,14.1c1.3,0,2.1,0,2.5,0.1
		c0.5,0.2,0.8,0.7,0.8,1.5l0,0.4c0,0.7-0.1,1.4-0.2,2.1c-3.3,0.1-5.3,0.1-5.9,0.1c0-1.4,0-2.7,0-3.8C10,14.3,10.9,14.1,11.6,14.1z"
		/>
	<path class="st0" d="M18,7.1L22.6,7c0.1,6.2,0.1,10.6,0.1,13.2c0,3-0.1,4.7-0.4,5c-0.2,0.4-0.6,0.5-1.2,0.5c-0.5,0-2.5-0.2-6-0.4
		l0.7,6.2c2.4,0.3,4.5,0.4,6.6,0.4c1.7,0,3-0.3,3.8-0.8c0.9-0.5,1.5-1.4,1.8-2.5c0.3-1.2,0.5-3.2,0.5-6.2c0-2.9-0.1-8.2-0.2-15.7
		c2.7-0.1,4.4-0.1,5-0.2L33,0.8c-4,0-9.7,0.2-16.9,0.4C8.8,1.5,3.5,1.6,0,1.7l0.1,5.8C3,7.4,8.9,7.3,18,7.1z M16.1,2.2
		C22.8,2,28.1,1.9,32,1.8l0.3,3.9c-0.9,0-2.2,0.1-4,0.1l-1,0l0,1c0.1,7.5,0.2,12.8,0.2,15.7c0,2.8-0.2,4.8-0.5,5.9
		c-0.3,0.9-0.7,1.6-1.4,2C25,30.8,23.9,31,22.4,31c-1.8,0-3.7-0.1-5.7-0.3l-0.5-4.2c2.8,0.2,4.4,0.3,4.8,0.3c0,0,0,0,0,0
		c1.1,0,1.7-0.5,2-1c0.3-0.4,0.5-1.2,0.5-5.6c0-2.7-0.1-7.1-0.1-13.2l0-1l-5.6,0.1C9.8,6.3,4.2,6.4,1.1,6.4L1,2.7
		C4.5,2.6,9.6,2.5,16.1,2.2z"/>
	<path class="st0" d="M38.8,10.2c0.6,0.2,1.5,0.3,2.6,0.3c1.4,0,4.5-0.3,9.4-0.8l0.2,1.2l5.5-1.6c-1-2.6-2.4-5.1-4-7.5l-4.9,1.2
		c0.7,0.8,1.2,1.6,1.6,2.3C46.6,5.7,45,5.9,44.3,6c-0.3,0-0.5,0-0.7,0c-0.6,0-0.9-0.1-0.9-0.3c0-0.4,1.2-2,3.5-4.8L41,0
		c-2,2.3-3.2,4-3.5,5.1c-0.3,1.1-0.4,1.9-0.4,2.5c0,0.4,0.1,0.8,0.3,1.1C37.7,9.5,38.2,10,38.8,10.2z M38.5,5.4
		c0.2-0.6,0.8-1.9,2.9-4.3l2.8,0.5c-2.6,3.2-2.6,3.7-2.6,4.1C41.7,6,41.8,7,43.5,7c0.2,0,0.5,0,0.8,0c0.8-0.1,2.4-0.3,4.8-0.6
		l1.4-0.1L50,5c-0.2-0.4-0.5-0.9-0.8-1.3L51.9,3c1.2,1.8,2.3,3.7,3.1,5.7l-3.3,1l-0.2-1l-0.9,0.1c-4.8,0.5-7.9,0.8-9.3,0.8
		c-1,0-1.7-0.1-2.2-0.3c-0.2-0.1-0.5-0.3-0.8-0.9l0-0.1l0-0.1c-0.1-0.1-0.1-0.3-0.1-0.6C38.1,7.3,38.2,6.7,38.5,5.4z"/>
	<path class="st0" d="M42.7,19.9v3.4l7.9-0.2l-0.1-3.4c0,0-4.9,0.2-6.8,0.3L42.7,19.9z M43.7,20.9c1.9-0.1,3.8-0.1,5.8-0.2l0,1.4
		l-5.8,0.2V20.9z"/>
	<path class="st0" d="M43.7,31.6v-6.1c1.9,0,3.8-0.1,5.9-0.1c0,0.2,0,0.5-0.1,1.1c-0.1,0.3-0.2,0.5-0.4,0.5c-0.2,0-0.3,0-0.3,0
		c-0.4,0-1.6-0.1-3.5-0.4l0.6,4.5c1.4,0.3,2.8,0.5,4.1,0.5c2.8,0,4.3-1.3,4.3-4v-8.7c0-2.3-0.3-4-1-5.1c-0.7-1.1-2.2-1.7-4.7-1.7
		c-0.6,0-2.4,0.1-5.3,0.4l0-0.7L38.3,12c0.1,1.5,0.1,3.8,0.1,7c0,3.2-0.1,7.3-0.3,12.4L43.7,31.6z M39.4,12.9l3.2-0.1l0,0.8l1-0.1
		c3.6-0.3,4.8-0.4,5.2-0.4c2.1,0,3.4,0.4,3.8,1.2c0.6,0.9,0.8,2.5,0.8,4.6v8.7c0,2.1-1,3-3.3,3c-1,0-2.1-0.1-3.2-0.3l-0.4-2.5
		c1.5,0.2,2,0.2,2.3,0.2c0,0,0.1,0,0.4,0c0.3,0,1-0.2,1.3-1.3l0-0.1l0-0.1c0.1-0.6,0.1-1,0.1-1.2v-1l-7.9,0.2v6l-3.5-0.2
		c0.2-4.6,0.3-8.4,0.3-11.4C39.5,16.4,39.5,14.4,39.4,12.9z"/>
	<path class="st0" d="M42.8,18.6l7.6-0.3l-0.3-1.2c-0.2-0.6-0.4-1.1-0.8-1.4c-0.4-0.3-1-0.5-1.9-0.5c-0.8,0-2,0.1-3.7,0.2l-0.9,0.1
		v0.9c0,0.4,0,0.8,0,1.3L42.8,18.6z M47.3,16.2c0.6,0,1.1,0.1,1.3,0.3s0.4,0.5,0.5,0.9l-5.4,0.2c0-0.4,0-0.8,0-1.2
		C45.3,16.2,46.5,16.2,47.3,16.2z"/>
	<path class="st0" d="M57.7,30.6c0.5,0.5,1.1,0.8,1.8,0.9c0.7,0.1,1.4,0.1,2.2,0.1c2,0,4.8-0.2,8.6-0.7l0.4-5.2
		c-4.1,0.8-6.7,1.2-7.6,1.2c-0.7,0-1.2-0.2-1.3-0.5c-0.1-0.2-0.2-0.9-0.2-2.1c3.4-0.5,6.5-1.4,9.4-2.7l-1.8-4
		c-2.3,1-4.9,1.7-7.7,2.2l0-3.5h-4.8c0,7.1,0.1,11.1,0.2,12.1C56.9,29.3,57.2,30.1,57.7,30.6z M60.4,17.3l0,3.6l1.2-0.2
		c2.5-0.4,4.9-1.1,7-1.9l1,2.3c-2.5,1.1-5.3,1.8-8.2,2.3l-0.9,0.1l0,0.9c0.1,1.8,0.2,2.2,0.3,2.5c0.3,0.7,1.1,1,2.2,1
		c0.9,0,3-0.3,6.5-1l-0.2,3.1c-3.4,0.4-6,0.6-7.7,0.6c-0.7,0-1.4,0-2.1-0.1c-0.5,0-0.8-0.2-1.2-0.6c-0.3-0.4-0.6-0.9-0.7-1.7
		c-0.1-0.6-0.2-3-0.2-10.9H60.4z"/>
	<path class="st0" d="M61.5,0.4h-4.7c0.1,6.8,0.2,10.7,0.3,11.7s0.4,1.7,0.9,2.2s1.1,0.8,1.8,0.9c0.7,0.1,1.4,0.1,2.3,0.1
		c1.9,0,4.8-0.2,8.6-0.7L71,9.4c-4.1,0.8-6.6,1.2-7.6,1.2c-0.8,0-1.2-0.2-1.3-0.5c-0.1-0.2-0.2-0.7-0.3-1.6C65.3,8,68.3,7,71,5.7
		l-1.9-4c-2.1,1-4.6,1.7-7.5,2.2L61.5,0.4z M68.6,2.9l1.1,2.3c-2.3,1.1-5,1.9-7.9,2.3l-0.9,0.1l0.1,0.9c0.1,1.1,0.2,1.6,0.3,1.9
		c0.2,0.6,0.7,1.1,2.2,1.1c0.9,0,3-0.3,6.5-1l-0.2,3.1c-3.4,0.4-5.9,0.6-7.7,0.6c-0.8,0-1.5,0-2.1-0.1c-0.5-0.1-0.8-0.2-1.2-0.6
		c-0.3-0.4-0.5-0.9-0.6-1.7c-0.1-0.9-0.2-4.5-0.3-10.6h2.7l0.1,3.6l1.1-0.2C64.3,4.4,66.6,3.8,68.6,2.9z"/>
	<path class="st0" d="M73.9,16.3l3.9,1.3c0.1-2.7,0.2-5.1,0.2-7.2l0-2.9l-3.5-0.3C74.5,10.5,74.3,13.5,73.9,16.3z M75.5,8.4L77,8.5
		l0,2c0,1.7,0,3.6-0.1,5.8L75,15.6C75.3,13.4,75.4,10.9,75.5,8.4z"/>
	<path class="st0" d="M100.2,21c1.6,0,3.5-0.1,5.8-0.1l-0.3-5.5c-2.3,0.1-4.1,0.1-5.5,0.1l0-5c2.4,0,4.7,0,6.9,0L106.8,5L100,5.1
		L100,0.1l-4.8,0l0.1,5l-3,0.1c0.1-1.6,0.1-2.6,0.1-3.2c0-0.2,0-0.6,0-1L88,0.3c-0.2,4.6-0.5,8.2-1,10.7c-0.4-1.7-1-3.4-1.9-5.3
		l-1.6,0.7l0-6.1l-4.6,0.3C79,8.5,79,13.8,79,16.6c0,4.8-0.1,9.7-0.4,14.9l5,0.3l0-7.5c0-3.3,0-7.6-0.1-12.9l0.6,2.3l2.7-1.3
		c-0.1,0.3-0.3,0.8-0.5,1.3l4.9,1.3c0.2-1,0.5-2.4,0.7-4.3v-0.2c1.2,0.1,2.3,0.1,3.3,0.1v5c-1.2,0-3.3,0-6.1,0l0.1,5.5
		c2.2-0.1,4.2-0.1,5.9-0.2l-0.1,4.8c-2.9,0.1-5.4,0.2-7.2,0.2H87l0.1,5.3c12.4-0.2,19.3-0.4,20.7-0.4l-0.1-5.3
		c-1.9,0-4.4,0.1-7.5,0.2V21z M84.8,12.2l-0.3-1.1l-2,0.2c0.1,5.3,0.1,9.6,0.1,12.9l0,6.5l-2.9-0.2c0.2-4.8,0.3-9.5,0.3-14
		c0-2.6,0-7.6-0.1-15.1l2.6-0.1l0,6.6l2.1-1c0.7,1.5,1.1,2.9,1.4,4.2l0.9,0L84.8,12.2z M100.2,26.7c2.5-0.1,4.7-0.1,6.5-0.2l0.1,3.4
		C104.3,29.9,98,30,88,30.2l0-3.3c1.9,0,4.3-0.1,7.2-0.2l0.9,0l0.1-6.8l-1,0c-1.5,0-3.1,0.1-4.9,0.2l-0.1-3.5c2.3,0,4,0,5.1,0h1v-7
		h-1c-1,0-2.1,0-3.3-0.1l-1.1-0.1v1.2c-0.2,1.3-0.3,2.3-0.5,3.2L87.6,13c0-0.1,1.1-2.7,1.1-2.7l-0.6,0.3c0.4-2.3,0.7-5.4,0.9-9.2
		l2.4,0.4c0,0.1,0,0.1,0,0.2c0,0.5,0,1.5-0.1,3.1l-0.1,1.1l5.1-0.1l-0.1-4.9l2.8,0l0.1,5l6.7-0.1l0.1,3.5c-1.9,0-3.8,0-5.8,0l-1,0
		l0.1,7h1c1.2,0,2.7,0,4.5-0.1l0.2,3.5c-1.8,0-3.4,0-4.8,0.1l-1,0v6.7L100.2,26.7z"/>
	<path class="st0" d="M139.7,8.9c-5.3,1.3-9.7,3-13.3,5c-0.4-0.1-0.8-0.3-0.9-0.4c-0.2-0.1-0.3-0.3-0.3-0.5c0-0.5,0.4-1.9,1.1-4.2
		c3.2-0.4,6.3-0.6,9.3-0.6c0.3,0,0.7,0,1.1,0l0.3-5.3c-0.8,0-1.7-0.1-2.6-0.1c-2,0-4.1,0.1-6.2,0.3c0.3-0.8,0.6-1.5,0.9-2l-5.8-1
		c-0.5,1.2-0.9,2.5-1.3,3.7c-2.6,0.4-5.1,0.9-7.5,1.4l0.9,5.5c1.6-0.4,3.2-0.7,4.8-1c-0.6,2.5-1,4.2-1,5.2c0,0.6,0.2,1.2,0.5,1.6
		s0.9,0.8,1.8,1.3c-1.8,2-2.7,4-2.7,6.1c0,4.5,4.2,6.8,12.5,6.8c2.9,0,6-0.3,9.3-0.8L140,24c-3.3,0.7-6.6,1.1-9.9,1.1
		c-3.6,0-5.4-0.6-5.4-1.8c0-0.9,0.9-2,2.8-3.3c2.4,0.8,4.8,2,7.3,3.5l2.7-4.8c-1.2-0.8-2.4-1.5-3.7-2c2.5-1,5-1.8,7.5-2.4L139.7,8.9
		z M133.4,17.5c0.9,0.4,1.8,0.9,2.8,1.5l-1.7,3.1c-2.2-1.3-4.5-2.3-6.6-3.1l-0.5-0.2l-0.4,0.3c-2.2,1.5-3.2,2.9-3.2,4.2
		c0,2.8,4.6,2.8,6.4,2.8c3,0,6-0.3,9-0.9l0.3,3.8c-2.9,0.4-5.7,0.7-8.2,0.7c-11.5,0-11.5-4.3-11.5-5.8c0-1.8,0.8-3.7,2.5-5.4l0.9-1
		l-1.2-0.6c-0.9-0.4-1.3-0.8-1.4-1c-0.2-0.2-0.3-0.6-0.3-1c0-0.6,0.2-2,0.9-5l0.4-1.5l-1.5,0.3c-1.2,0.2-2.5,0.5-3.8,0.7L115.5,6
		c2-0.5,4.2-0.9,6.5-1.2l0.6-0.1l0.2-0.6c0.3-1,0.7-2,1-2.9l3.7,0.6c-0.1,0.3-0.2,0.6-0.3,0.9l-0.6,1.5l1.6-0.1
		c2.1-0.2,4.1-0.3,6.1-0.3c0.5,0,1,0,1.5,0l-0.2,3.4h-0.1c-3,0-6.2,0.2-9.4,0.6l-0.6,0.1l-0.2,0.6c-1,3.2-1.1,4.1-1.1,4.5
		c0,0.5,0.2,0.9,0.6,1.3c0.3,0.2,0.7,0.4,1.3,0.6l0.4,0.1l0.4-0.2c3.3-1.9,7.3-3.4,12.1-4.7l1.1,3.3c-2.2,0.6-4.4,1.3-6.6,2.2
		l-2.1,0.9L133.4,17.5z"/>
	<path class="st0" d="M157.8,11.4l0.1,3.8l4.1-0.1l0.1-1.6c0-0.9-0.2-1.5-0.7-1.9c-0.4-0.3-0.9-0.5-1.6-0.5c-0.3,0-0.7,0-1.1,0.1
		L157.8,11.4z M159.8,12.2c0.4,0,0.7,0.1,0.9,0.3c0.2,0.2,0.3,0.5,0.3,1l0,0.6l-2.2,0l0-1.9C159.2,12.2,159.5,12.2,159.8,12.2z"/>
	<path class="st0" d="M158,20.8l4.1-0.1v-4.1l-4.2,0.1L158,20.8z M161.1,17.6v2.1l-2.2,0.1l0-2.1L161.1,17.6z"/>
	<path class="st0" d="M158,27.4c0,0,2.6,0.2,2.6,0.2c0.5,0,0.9-0.2,1.2-0.5c0.3-0.3,0.4-0.4,0.4-3.5v-1l-4.1,0.1V27.4z M159,23.7
		l2.1-0.1c0,1.8,0,2.8-0.1,2.8s-0.2,0.1-0.3,0.1l-1.6-0.1V23.7z"/>
	<path class="st0" d="M155.5,11.1l-1.3,0.5c-0.1,0-0.5,0.1-1.6,0.1l-0.9,0.1v3.5l3.9-0.1L155.5,11.1z M152.7,14.3v-1.5
		c1.1-0.1,1.7-0.1,1.9-0.2l0,1.7L152.7,14.3z"/>
	<path class="st0" d="M158.9,8.5c0.4-0.8,0.5-1.3,0.5-1.7c0-0.8-0.6-1.3-1.4-1.3c-0.6,0-2.2,0.1-4.9,0.4l-0.5,0l-0.3,0.4
		c-0.3,0.5-0.5,0.8-0.6,1.1l-0.1,0.2v2l7-0.6L158.9,8.5z M158,8.1l-5.3,0.4V7.8c0.1-0.2,0.3-0.6,0.6-1c2.6-0.2,4.2-0.4,4.8-0.4
		c0.2,0,0.4,0.1,0.4,0.3S158.3,7.4,158,8.1z"/>
	<path class="st0" d="M152,31.7c0.3-1.8,0.5-4.5,0.5-7.9l2,0l-0.1,5.7l4.5-0.1l0.3,2.2c1.1,0.1,2.1,0.2,3,0.2c1.4,0,2.3-0.5,2.8-1.4
		c0.3-0.7,0.5-1.6,0.5-2.8c0-1.2,0-2.9,0-5.1c-0.1-6.9-0.3-11-0.6-12.2c-0.3-1.2-1.1-1.9-2.2-2c0.3-1.1,0.5-2.3,0.5-3.5
		c0-1.5-0.6-2.4-1.8-2.5l-0.7,0c-1,0-2.8,0.1-5.3,0.2c0.3-0.4,0.5-1,0.7-1.8L151.7,0c-1.1,2.7-2.7,4.9-4.7,6.7l1.4,2.5
		c0.1,2.6,0.1,5.1,0.1,7.4c0,6.8-0.4,11.4-1.3,13.8L152,31.7z M149.3,9.1l0-0.2l-1.1-2c1.7-1.6,3-3.6,4.1-5.8l2.6,0.3
		c-0.1,0.2-0.2,0.3-0.2,0.4l-1.2,1.7l2-0.1c2.5-0.1,4.2-0.2,5.2-0.2l0.7,0c0.3,0,0.8,0.1,0.8,1.5c0,1.1-0.2,2.2-0.5,3.2l-0.4,1.2
		l1.2,0.1c0.5,0.1,1.1,0.2,1.3,1.3c0.2,0.8,0.5,3.5,0.6,11.9c0,2.2,0,3.9,0,5c0,1-0.2,1.9-0.4,2.4c-0.1,0.2-0.4,0.8-1.9,0.8
		c-0.6,0-1.3,0-2.1-0.1l-0.3-2.3l-4.3,0.1l0.1-5.7l-4,0.1v1c0,2.7-0.1,5-0.3,6.6l-2.8-0.8c0.7-2.7,1-7,1-13.1
		C149.4,14.3,149.4,11.8,149.3,9.1z"/>
	<path class="st0" d="M155.6,16.7l-3.9,0.2v1c0,0.4,0,1.1-0.1,2.1l-0.1,1.1l4.1-0.1V16.7z M154.6,19.9l-2,0c0-1,0.1-1.7,0.1-2.1
		l1.9-0.1V19.9z"/>
	<path class="st0" d="M175.6,0.5c-1.7,0-5.2,0.2-10.5,0.6L165,5.6l3.5-0.2c-0.6,1.8-1.7,3.6-3.3,5.2l4.3,1.9
		c1.6-1.7,2.7-4.2,3.4-7.3l1.9-0.1c0.5,0,0.9,0.1,1.1,0.2s0.4,0.4,0.4,0.8c0,0.4,0,0.6,0,0.7c0,0.2-0.1,0.5-0.2,0.7
		c-0.1,0.2-0.4,0.3-0.9,0.3c-0.4,0-0.9-0.1-1.6-0.3l-0.1,4.7c0.4,0.2,1,0.3,1.7,0.4l-3.2,0.2c0,0.6,0.1,1.4,0.1,2.5l-1.4,0v-1.9
		l-4-0.6c0,2.5-0.4,5.1-1.2,7.8l3.9,1.1c0.1-0.3,0.3-0.8,0.4-1.5l2.4,0l0,2.1c-1.8,0-3.9,0.1-6.3,0.3l0.1,4.8
		c2.4-0.1,4.4-0.2,6.1-0.2l-0.1,4.8l4.7,0l0-4.9c1.5,0,2.9-0.1,4.5-0.2l-0.1-4.8c-1.2,0-2.6,0-4.3,0.1v-2.2c1.9,0,3.1-0.1,3.6-0.1
		l-0.1-4.8c-1,0-2.2,0.1-3.6,0.1l0-2.4c2.4,0,3.7-0.9,3.8-2.7s0.2-3.3,0.2-4.6c0-1.1,0-2-0.1-2.6c-0.2-0.8-0.5-1.3-0.9-1.6
		c-0.4-0.3-1.1-0.5-2-0.5S175.9,0.5,175.6,0.5z M179.5,3c0.1,0.5,0.1,1.3,0.1,2.3c0,1.3-0.1,2.8-0.2,4.5c0,0.6-0.1,1.7-2.8,1.7h-1
		l0.1,4.4l1,0c1,0,1.8,0,2.6-0.1l0.1,2.8c-0.5,0-1.3,0.1-2.5,0.1l-1,0V23c0,0,3.4-0.1,4.4-0.1l0.1,2.8c-1.2,0.1-2.3,0.1-3.5,0.1
		l-1,0l0,4.9l-2.7,0l0.1-4.8l-1,0c-1.5,0-3.2,0.1-5.1,0.1l-0.1-2.8c2-0.1,3.8-0.2,5.4-0.2l1,0l0.1-4.1l-4.3,0.1l-0.1,0.8
		c0,0.2-0.1,0.3-0.1,0.5l-2-0.5c0.5-2,0.9-4,1-5.9l2,0.3v2.1l3.5-0.1l0-1c0-0.6,0-1.1-0.1-1.6l2.2-0.1l0.1-2c-0.4,0-0.6-0.1-0.9-0.2
		l0-2.7c0.2,0,0.4,0.1,0.6,0.1c1,0,1.5-0.4,1.7-0.8c0.2-0.4,0.3-0.8,0.3-1.2c0-0.1,0-0.3,0-0.7c0-1-0.6-1.5-1-1.6
		C176,4.1,175.5,4,174.9,4l-2.8,0.2L172,5c-0.6,2.7-1.5,4.8-2.7,6.3l-2.4-1.1c1.2-1.4,2.1-3,2.6-4.6l0.4-1.4L166,4.5l0-2.5
		c4.8-0.3,8-0.5,9.6-0.5c0.3,0,0.9,0,1.8,0.1c1,0.1,1.3,0.2,1.5,0.3C179.1,2.1,179.3,2.3,179.5,3z"/>
	<path class="st0" d="M193.8,19.8l-4.2,4.1c3.4,4.5,8.2,7.1,14.2,7.8l2-5.5C201,25.5,197,23.4,193.8,19.8z M203.1,30.6
		c-5.1-0.8-9.2-3-12.2-6.6l2.8-2.7c3,3,6.6,5,10.7,5.7L203.1,30.6z"/>
	<path class="st0" d="M189.2,19.6c3.8-1.2,8.3-2.1,13.4-2.9c1.3,2.3,2.6,4.3,3.9,5.8l5.4-2.4c-1-1.3-1.9-2.6-2.7-4
		c2.3-0.1,4.2-0.2,5.9-0.1l0.2-5.5c-3,0-6,0.1-9,0.3c-0.4-0.9-0.8-1.7-1.2-2.6c2.6-0.2,4.9-0.3,7.1-0.3l0-5.3c-2.9-0.1-5.9,0-9,0.3
		c-0.3-0.9-0.5-1.8-0.7-2.6l-5.9,0.6c0.1,0.9,0.3,1.8,0.6,2.8c-2.9,0.5-5.8,1.1-8.5,1.9l1.3,5.2c2.7-0.7,5.7-1.3,8.9-1.8
		c0.3,0.8,0.7,1.6,1,2.5c-4.2,0.6-8.3,1.5-12.3,2.7L189.2,19.6z M200.9,11.1c-0.3-0.8-0.7-1.7-1-2.5l-0.3-0.7L198.8,8
		c-2.9,0.4-5.6,1-8,1.6L190,6.4c2.4-0.6,5-1.2,7.5-1.6l1.1-0.2l-0.3-1c-0.1-0.6-0.3-1.2-0.4-1.7l3.9-0.4c0.2,0.6,0.3,1.2,0.5,1.8
		l0.2,0.8l0.8-0.1c2.3-0.2,4.6-0.3,6.7-0.3c0.4,0,0.8,0,1.2,0l0,3.3c-1.9,0-4,0.1-6.2,0.3l-1.3,0.1l0.5,1.3c0.4,0.9,0.8,1.8,1.2,2.7
		l0.3,0.6l0.7,0c2.6-0.2,5.2-0.3,7.9-0.3l-0.1,3.4c-0.4,0-0.8,0-1.2,0c-1.2,0-2.5,0-3.8,0.1l-1.6,0.1l0.8,1.4
		c0.7,1.1,1.3,2.1,2.1,3.1l-3.6,1.6c-1.1-1.4-2.2-3.1-3.3-5.1l-0.3-0.6l-0.7,0.1c-4.7,0.7-9,1.5-12.6,2.6l-1-3.5
		c3.6-1,7.4-1.8,11.2-2.4l1.3-0.2L200.9,11.1z"/>
	<path class="st0" d="M239.8,13.9l-2.4,1.6c1.5,1.2,3.1,3.2,4.9,6c-1.3,2.4-3.3,4.2-5.8,5.7l3.4,4.5c2.4-1.7,4.2-3.5,5.4-5.3
		c1,1.9,1.8,3.6,2.5,5.2l5.6-2.2c-1.7-3.5-3.4-6.3-5.1-8.6c1.6-2.8,2.6-6.4,3.1-10.8c0.6,0,1.4,0,2.3,0l-0.2-4.9c-2.8,0-5.8,0-9,0.1
		c0.2-0.9,0.5-2.4,0.8-4.3l-4.7-0.4c-0.8,5-2.3,9-4.3,12L239.8,13.9z M241.4,1.3l2.7,0.2c-0.3,1.4-0.5,2.5-0.6,3.2L243.2,6l1.3,0
		c2.8-0.1,5.5-0.1,8-0.1l0.1,2.9h-2.1l-0.1,0.9c-0.5,4.2-1.5,7.8-3,10.4l-0.3,0.6l0.4,0.5c1.5,2,3,4.6,4.5,7.5l-3.7,1.4
		c-0.6-1.4-1.3-2.8-2.1-4.3l-0.8-1.5l-0.9,1.5c-1,1.6-2.4,3.1-4.3,4.5l-2.1-2.8c2.2-1.4,4-3.3,5.2-5.5l0.3-0.5l-0.3-0.5
		c-1.5-2.3-2.8-4-4.1-5.3l2.1-1.4c0.8,0.7,1.8,1.7,3,3l1,1.1l0.6-1.4c1-2.3,1.6-4.7,1.7-7.1l0-1h-4.8l-0.3,0.6
		c-0.6,1.4-1.2,2.6-1.7,3.5l-0.2,0.3l-2.8-1.3C239.4,9,240.7,5.5,241.4,1.3z M241.7,13.3c0.5-0.9,1.1-2.1,1.7-3.5h3.1
		c-0.1,2.2-0.6,4.5-1.6,6.7C243.6,15.1,242.5,14,241.7,13.3z"/>
	<path class="st0" d="M225.6,30.9c1.4-4.3,2.3-8.3,2.8-12.2c0.8,0,1.7-0.1,2.6-0.1c0.7,0,1,0.3,1,0.8c0,1.7-0.1,3.4-0.4,5
		c0,0.5-0.2,0.8-0.6,0.8c-0.9,0-1.8-0.3-2.7-0.8l0.2,5.8c1.3,0.5,2.6,0.9,3.9,0.9c1.7,0,2.7-0.7,3.2-2.2c0.7-1.2,1-4.9,1.1-11.1
		v-0.4c0-1.6-0.4-2.6-1.2-3.3s-1.8-0.9-3.1-0.9c-0.6,0-1.7,0.1-3.3,0.2c0.1-0.7,0.1-2,0.2-3.8h0.1c4.2-0.3,6.7-0.5,7.6-0.6l-0.2-5.5
		c-2.1,0.1-3.8,0.3-5.2,0.5c-0.2-1.4-0.5-2.6-0.9-3.8L226,0.9c0.2,1.3,0.4,2.5,0.6,3.5c-1.7,0.2-3.7,0.3-5.9,0.4l0.1,5.5
		c1.6-0.1,2.9-0.2,3.9-0.3c-0.1,6.6-1.5,13.1-4.2,19.4L225.6,30.9z M224.5,9c-0.7,0.1-1.7,0.1-2.8,0.2l0-3.5c1.9-0.1,3.5-0.2,5-0.4
		l1-0.1l-0.2-1c-0.1-0.7-0.2-1.6-0.4-2.5l3-0.4c0.3,0.9,0.5,1.8,0.6,2.8l0.1,1l1-0.1c1.1-0.1,2.5-0.3,4.1-0.4l0.1,3.5
		c-1.3,0.1-3.5,0.3-6.7,0.5l-1,0l0,1c-0.1,1.8-0.1,3.1-0.2,3.8l-0.1,1.2l1.2-0.1c1.6-0.1,2.7-0.2,3.3-0.2c1.1,0,1.9,0.2,2.5,0.7
		c0.5,0.4,0.8,1.3,0.8,2.5v0.4c-0.1,7.9-0.7,10-1,10.6l-0.1,0.1l0,0.1c-0.2,0.7-0.6,1.5-2.2,1.5c-1-0.1-2-0.3-3-0.6l-0.1-3.5
		c0.5,0.2,1.1,0.2,1.6,0.2c0.7,0,1.5-0.4,1.6-1.7c0.2-1.7,0.4-3.4,0.4-5.1c0-0.8-0.5-1.8-2-1.8l-3.5,0.2l-0.1,0.8
		c-0.4,3.5-1.2,7.3-2.4,11.1l-3.2-1c2.4-6.1,3.7-12.4,3.8-18.7l0-1.1L224.5,9z"/>
	<path class="st0" d="M286.4,6.6c-2.3-1.8-5.5-2.7-9.6-2.7c-4.4,0-10.2,1.1-17.5,3.2l2,6.5c3-1,6-1.8,9-2.4s5.4-0.9,7.3-0.9
		c1.8,0,3.2,0.3,4,1s1.3,1.8,1.3,3.2c0,2-0.8,3.9-2.5,5.6c-1.6,1.7-4.2,3.4-7.8,5.1l4.3,5.5c4.3-2.4,7.6-4.9,9.7-7.6
		c2.1-2.7,3.2-5.6,3.2-8.7C289.8,11.1,288.7,8.5,286.4,6.6z M285.8,22.4c-1.9,2.4-4.8,4.7-8.6,6.9l-3-3.8c3.1-1.6,5.4-3.2,7-4.8
		c1.8-1.9,2.7-4,2.7-6.3c0-1.8-0.6-3.1-1.7-4c-1-0.8-2.6-1.2-4.6-1.2c-1.9,0-4.5,0.3-7.5,0.9c-2.7,0.6-5.4,1.3-8.2,2.2l-1.4-4.5
		c6.7-1.9,12.2-2.9,16.2-2.9c3.9,0,6.9,0.8,9,2.5c2,1.6,3,3.9,3,7C288.8,17.2,287.8,20,285.8,22.4z"/>
</g>
</svg>
