<?xml version="1.0" encoding="utf-8"?>
<!-- Generator: Adobe Illustrator 27.9.1, SVG Export Plug-In . SVG Version: 6.00 Build 0)  -->
<svg version="1.1" id="Layer_1" xmlns:inkscape="http://www.inkscape.org/namespaces/inkscape"
	 xmlns="http://www.w3.org/2000/svg" xmlns:xlink="http://www.w3.org/1999/xlink" x="0px" y="0px" viewBox="0 0 107.6 31.7"
	 style="enable-background:new 0 0 107.6 31.7;" xml:space="preserve">
<style type="text/css">
	.st0{fill:#070707;}
</style>
<g>
	<path class="st0" d="M25.8,22.5c1.3,2.4,2.4,5.2,3.2,8.3l5.3-2.1c-1.1-3.2-2.4-5.9-3.8-8L25.8,22.5z"/>
	<path class="st0" d="M19.7,26.6c-1.2,0.1-2,0.1-2.5,0.1c-0.9,0-1.6-0.1-2-0.3c-0.3-0.1-0.5-0.6-0.7-1.4c-0.1-1-0.2-2.2-0.2-3.4H9.4
		l-0.1,3.1c0,2.2,0.3,3.8,1,4.8c0.7,1.1,1.8,1.8,3.2,1.9s2.6,0.3,3.7,0.3c1,0,2.1,0,3.2-0.1c2.3-0.2,4.1-0.7,5.4-1.2l-0.1-5
		C22.9,26.1,20.9,26.5,19.7,26.6z"/>
	<path class="st0" d="M0,15.2l4.2,2.9c0.2-0.2,0.7-0.7,1.6-1.6l-0.2,3.8l5.5,0.3l0.1-6.3c0.8,0.5,1.3,0.9,1.7,1.1l2.6-3.5
		c-1.7-1-3.1-1.7-4.3-2.2V8.6l3.6-0.1L14.5,4L11.1,4l-0.1-4L5.9,0.3C6,2.2,6,3.5,6,4.2c-1.7,0-3,0-4,0H1.2l0.1,4.6l4.3-0.1
		C4.6,10.8,2.7,13,0,15.2z"/>
	<path class="st0" d="M0.7,28.9l5,2c1.4-2.4,2.2-5.3,2.6-8.6l-4.6-0.6C3.4,24.7,2.4,27.1,0.7,28.9z"/>
	<path class="st0" d="M16.4,19.6h0.5l-2,0.6c1.3,1.9,2.2,3.7,2.8,5.5l5.2-1.6c-0.7-1.8-1.6-3.3-2.7-4.5c3.9,0,8.1-0.1,12.8-0.2
		c0.2-3.6,0.3-8.6,0.3-15.1c0-2.2-1.4-3.4-4.3-3.5h-1.5c-2.4,0-4.6,0-6.3,0.1l-0.1-0.7l-5.2,0.4c0.4,2.6,0.6,8,0.6,16.3L16.4,19.6z
		 M27.5,15.9c-2.8,0.1-4.7,0.2-5.6,0.2h-0.4v-1.5c1,0,3-0.1,6.1-0.2L27.5,15.9z M27.6,11c-2.8,0.1-4.9,0.2-6.2,0.2V9.6
		c2.6-0.1,4.7-0.2,6.3-0.2L27.6,11z M21.4,4.8c2-0.1,3.5-0.2,4.5-0.2c0.5,0,0.9,0.1,1.3,0.1C27.7,4.8,28,5.1,28,5.5v0.7
		c-3.1,0-5.3,0.1-6.6,0.1C21.4,5.3,21.4,4.8,21.4,4.8z"/>
	<path class="st0" d="M68.3,14.6c-2.4,1.5-4.7,2.4-6.9,2.9c-0.3-0.7-0.7-1.7-1.4-2.9L70,14.4c0.3-2.4,0.5-3.8,0.5-4.2
		c0-1.9-0.7-3.1-2-3.7c0.5-1.1,0.7-2.1,0.7-3c0-1.5-1.4-2.3-4.3-2.4l-2.1,0c-1.4,0-3.2,0-5.4,0.1l0-0.3l-4.7-0.9
		c-1.3,2.3-3,4.1-5.1,5.5l1.2,1.1c0.1,2,0.2,4,0.2,5.9l0,2.3l3.8-0.1c-1.8,1-3.7,1.8-5.8,2.5l2.4,3.4c3.1-1.2,5.3-2.3,6.7-3.2
		l0.1,0.2c-2.9,2.4-5.8,4.1-8.6,5.2l1.9,3.4c3-1.3,5.7-2.9,8-5l0.1,0.5c-3.4,3-6.4,5.1-9.2,6.2l2.1,3.3c2.5-1.3,4.2-2.2,5-2.9
		l0.2,2.9c1.2,0.3,2.1,0.5,2.6,0.5c1.9,0,3.2-0.5,3.8-1.6c0.5-0.8,0.8-1.7,0.8-2.5s0-1.3,0-1.5c0-1.5-0.1-2.9-0.3-4.3
		c1,2.4,2.2,5.6,3.4,9.4l5-1.9c-1.3-3.6-2.7-6.7-4.1-9.1c1.7-0.5,3.1-1.1,4.2-1.6L68.3,14.6z M65.4,10.6c0,0.3,0,0.5-0.1,0.7l-3.5,0
		c0.2-0.7,0.4-1.4,0.5-2.1l2.5,0C65.2,9.4,65.4,9.8,65.4,10.6z M56.4,11.4l-2.5,0.1l0-2.1c0.2-0.1,1.4-0.1,3.6-0.1
		C57.1,10.1,56.8,10.8,56.4,11.4z M56.7,27.2h-0.3l1.6-1.7C58,25.8,58,26,58,26.1C58,26.9,57.6,27.2,56.7,27.2z M54.7,6.3
		c0.4-0.5,0.7-0.9,0.9-1.2c3.7-0.2,5.9-0.4,6.7-0.4c0.4,0,0.6,0.1,0.6,0.3s0,0.3,0,0.4c0,0.2-0.1,0.5-0.2,0.7
		C59.5,6.1,56.8,6.2,54.7,6.3z"/>
	<path class="st0" d="M47.9,0.6l-5-0.6c-0.7,5.6-2.7,10.1-5.9,13.4l2.2,6.5c0.8-0.8,1.5-1.4,1.9-2c0,5-0.2,9.6-0.4,13.6l5.8,0.1
		v-4.5c0-5.9-0.1-12-0.3-18.2C46.8,7.3,47.4,4.5,47.9,0.6z"/>
	<path class="st0" d="M103.1,7.3C101.6,7.1,99.9,7,97.8,7c-1.9,0-4,0-6.3,0.1c0.2-1.8,0.4-4,0.5-6.7l-5.9-0.2c0,2.9-0.2,5.3-0.5,7.3
		c-3.1,0.2-6.8,0.4-10.9,0.7l0.3,5.6c3.8-0.2,7-0.4,9.6-0.5c-0.8,5.7-4,10.7-9.4,15.1l6.2,3.3c5.4-5,8.6-11.3,9.5-18.8
		c2.5-0.1,4.4-0.1,5.6-0.1c1.9,0,3.1,0.1,3.6,0.4c1,0.5,1.5,1.2,1.6,2c0.1,0.8,0.1,1.8,0.1,2.9c0,3.3-0.2,5.4-0.6,6.3
		c-0.2,0.7-1,1.1-2.2,1.1c-1.7,0-3.5-0.4-5.2-1.3l0,6.2c1.9,0.7,3.5,1.1,4.7,1.2c1.2,0.1,1.9,0.2,2.1,0.2c1.5,0,2.8-0.2,3.7-0.7
		s1.6-1.4,2-2.7c0.4-1.3,0.7-3.2,0.9-5.5c0.2-2.3,0.2-4.4,0.2-6.1c0-3.1-0.4-5.5-1.2-7C105.7,8.3,104.6,7.6,103.1,7.3z"/>
</g>
</svg>
