<?xml version="1.0" encoding="utf-8"?>
<!-- Generator: Adobe Illustrator 27.9.1, SVG Export Plug-In . SVG Version: 6.00 Build 0)  -->
<svg version="1.1" id="Layer_1" xmlns:inkscape="http://www.inkscape.org/namespaces/inkscape"
	 xmlns="http://www.w3.org/2000/svg" xmlns:xlink="http://www.w3.org/1999/xlink" x="0px" y="0px" viewBox="0 0 253.7 31.7"
	 style="enable-background:new 0 0 253.7 31.7;" xml:space="preserve">
<style type="text/css">
	.st0{fill:#070707;}
</style>
<g>
	<path class="st0" d="M0.6,10.8c4.3,0,9.8-0.1,16.4-0.3c10-0.1,15.8-0.1,17.4-0.2l-0.5-3.9l-8.2,0.1C25.9,6,26,5.4,26.1,4.9l5.3,0
		l-0.4-3.9L19.8,1.1c-0.2-0.3-0.5-0.7-0.9-1.1l-5.6,0.3c0.3,0.5,0.6,0.8,0.7,0.9l-11,0.2L3,5.3l5-0.1c0.1,0.6,0.2,1.1,0.3,1.7
		l-8,0.1L0.6,10.8z M9.5,7.8L9.4,6.7C9.3,6.1,9.2,5.5,9.1,4.9L8.9,4.1L4,4.2L3.9,2.4l12.4-0.2l-0.9-0.9L18.5,1
		c0.3,0.3,0.4,0.5,0.5,0.6l0.3,0.5l10.9-0.1l0.2,1.9l-5.1,0l-0.1,0.8c-0.1,0.5-0.2,1.1-0.4,1.6l-0.3,1.3L33,7.4l0.2,1.9
		c-2.5,0-7.9,0.1-16.3,0.2C10.8,9.7,5.7,9.8,1.5,9.8L1.5,7.9L9.5,7.8z"/>
	<path class="st0" d="M13.1,7l0.2,0.7L21,7.7l0.3-0.6c0.3-0.7,0.5-1.4,0.6-1.9l0.2-1.2l-1.2,0C18.3,4,15.9,4,13.5,4l-1.4,0l0.5,1.3
		C12.7,5.9,12.9,6.5,13.1,7z M20.9,4.9c-0.1,0.5-0.3,1.1-0.6,1.7L14,6.8c-0.2-0.6-0.4-1.2-0.6-1.7C15.9,5,18.4,5,20.9,4.9z"/>
	<path class="st0" d="M17,26.9c-0.9,0-1.6-0.1-2-0.3c-0.5-0.3-0.8-1.4-0.9-3.2H8.9l0,1.4c0,2.1,0.3,3.6,0.9,4.6
		c0.8,1.1,1.9,1.8,3.4,1.9c1.5,0.2,2.7,0.3,3.8,0.3c1.1,0,2.2-0.1,3.4-0.2c2.3-0.2,4.2-0.6,5.6-1.2l-0.1-4.9c-2.9,0.8-5,1.3-6.3,1.4
		C18.3,26.8,17.5,26.9,17,26.9z M24.9,26.7l0.1,2.9c-1.3,0.4-2.8,0.7-4.7,0.9c-1.1,0.1-2.3,0.2-3.3,0.2c-1,0-2.3-0.1-3.7-0.3
		c-1.2-0.2-2.1-0.7-2.7-1.5c-0.3-0.5-0.7-1.6-0.7-4l0-0.4h3.2c0.2,1.7,0.6,2.6,1.4,3.1c0.6,0.3,1.4,0.4,2.5,0.4c0.5,0,1.4,0,2.7-0.1
		C20.8,27.7,22.6,27.3,24.9,26.7z"/>
	<path class="st0" d="M34.6,29.1c-0.9-2.7-2.1-4.8-3.5-6.2l-4.8,1.7c1.3,1.7,2.4,3.8,3.2,6.4L34.6,29.1z M30.8,24.1
		c1,1.1,1.8,2.6,2.5,4.4l-3.2,1.2c-0.6-1.7-1.4-3.3-2.3-4.6L30.8,24.1z"/>
	<path class="st0" d="M7.8,24.1l-4.7-0.7c-0.4,2.2-1.4,4.1-3.1,5.9l5.2,1.9C6.6,28.8,7.5,26.5,7.8,24.1z M1.7,28.8
		c1-1.3,1.8-2.8,2.2-4.3L6.7,25c-0.4,1.7-1,3.3-1.9,5L1.7,28.8z"/>
	<path class="st0" d="M24.8,13.8c-0.4-0.1-0.9-0.1-1.7-0.1c-3.6,0-7.8,0.1-12.6,0.2l-1,0V17L26,16.8v-1.2
		C26,14.2,25.2,13.9,24.8,13.8z M25,15.8L10.6,16v-1.1c4.8-0.1,9-0.2,12.6-0.2c0.7,0,1.1,0,1.4,0.1c0.3,0.1,0.4,0.3,0.5,0.8V15.8z"
		/>
	<path class="st0" d="M30.9,15.1c0-2.2-1.2-3.3-3.7-3.4c-2.2-0.1-4.2-0.1-6.1-0.1c-4.2,0-9.6,0.1-16.2,0.4c0.1,2.2,0.2,5.1,0.2,8.8
		L5,23l10.4-0.2c0.7,1,1.3,2.1,1.9,3.3l5-1.4c-0.3-0.8-0.7-1.4-1-1.9l9.4-0.1C30.8,20,30.9,17.5,30.9,15.1z M29.7,21.6l-10.4,0.2
		l1.2,1.6c0.1,0.2,0.3,0.4,0.4,0.7l-3.1,0.9c-0.5-1-1-1.9-1.6-2.7l-0.3-0.4L6.1,22l0-1.2c0-3.1,0-5.8-0.1-7.8
		c6.1-0.2,11.2-0.3,15.1-0.3c1.9,0,3.9,0,6.1,0.1c2.4,0.1,2.7,1.2,2.7,2.4C29.9,17.2,29.8,19.3,29.7,21.6z"/>
	<path class="st0" d="M10.6,17.5l-1,0v3.2h1c3.8,0,8.7-0.1,14.5-0.3l1,0v-3h-1C20.3,17.3,15.4,17.4,10.6,17.5z M25,19.4
		c-5.8,0.2-10.7,0.3-14.5,0.3v-1.2c4.8-0.1,9.7-0.1,14.5-0.1V19.4z"/>
	<path class="st0" d="M49,25.5c0.1-5.4,0.2-9.8,0.2-13.3c0-1.4,0-2.9-0.1-4.6C49,6,48.7,4.9,48,4.3c-0.7-0.6-1.6-0.9-2.7-0.9
		c-1.3,0-2.4,0.1-3.3,0.2l-0.3-0.9l-4.3,0.8c0.2,0.8,0.3,3.7,0.3,8.5c0,4.1,0,8.7-0.1,13.7L49,25.5z M41,3.9l0.3,0.8l0.8-0.1
		c0.9-0.1,2-0.2,3.2-0.2c0.9,0,1.6,0.2,2.1,0.6c0.4,0.4,0.7,1.3,0.8,2.6c0,1.6,0.1,3.1,0.1,4.5c0,3.3-0.1,7.4-0.2,12.4l-9.4,0.3
		c0.1-4.6,0.1-8.9,0.1-12.7c0-4.4-0.1-6.6-0.2-7.7L41,3.9z"/>
	<path class="st0" d="M45.8,11.3c0-1-0.1-1.7-0.2-2.2l0-0.1l0-0.1c-0.6-1.2-1.4-1.4-2-1.4c-0.4,0-0.9,0.1-1.7,0.3l-0.7,0.2v13.8
		l4.5-0.1L45.8,11.3z M44.6,20.6l-2.5,0.1v-12c0.7-0.2,1.2-0.3,1.4-0.3c0.4,0,0.8,0.3,1.1,0.9c0.1,0.4,0.1,1,0.1,1.9L44.6,20.6z"/>
	<path class="st0" d="M67.3,17.9c1.5,0,2.6-0.1,3.3-0.2l-0.3-5.2c-1.9,0-4.4,0.1-7.5,0.3V9.2C66,9.1,68.1,9,69,8.9l-0.2-5.2
		c-2,0.1-4,0.2-6,0.3c-0.1-1.2-0.1-2.4-0.1-3.7l-4.7,0.3c0,1.2,0.1,2.4,0.1,3.6c-2.2,0.1-4.5,0.3-6.8,0.4l0.1,5.2
		c2-0.1,4.2-0.2,6.6-0.4V13c-3.2,0.2-5.8,0.3-7.9,0.3l0.1,5.2c1.2,0,2.4-0.1,3.7-0.2c-0.9,3.8-2.4,6.9-4.6,9.3l4.3,2.6
		c1.8-2.4,3.3-5.7,4.4-9.8c-0.1,5.5-0.1,9.2-0.2,11.3h5V19.2c1.2,3.1,2.3,6.8,3.3,11l5.2-1.7C70.2,24.7,68.8,21.2,67.3,17.9z
		 M63.7,18.9l-1.9,0.3v11.5h-3c0-2.2,0.1-5.6,0.2-10.3l-2-0.3c-0.9,3.5-2.2,6.4-3.7,8.7l-2.5-1.5c1.9-2.4,3.2-5.4,4.1-8.8l0.3-1.3
		l-1.3,0.1c-0.9,0.1-1.8,0.1-2.7,0.1l0-3.2c1.9,0,4.3-0.2,7-0.3l0.9-0.1V8.4l-1.1,0.1c-2,0.1-3.9,0.3-5.6,0.4l0-3.2
		c2-0.1,3.9-0.2,5.8-0.3l1-0.1l0-1c0-0.9-0.1-1.8-0.1-2.7l2.7-0.2c0,0.9,0.1,1.8,0.1,2.7l0.1,1l1-0.1c1.7-0.1,3.4-0.2,5-0.3L67.9,8
		c-1.1,0.1-2.9,0.1-5.2,0.2l-1,0v5.6l1,0c2.6-0.1,4.8-0.2,6.6-0.2l0.2,3.3c-0.6,0-1.3,0.1-2.2,0.1L65.7,17l0.7,1.4
		c1.4,2.9,2.6,6.1,3.7,9.6l-3.3,1C65.8,25.2,64.7,21.8,63.7,18.9z"/>
	<path class="st0" d="M95.6,27.2l5.8,3.5c1.9-1.9,3.4-4,4.4-6.3s1.5-4.8,1.5-7.3c0-4.4-1.4-7.9-4.3-10.6c-2.8-2.7-6.6-4.1-11.2-4.1
		c-3.1,0-5.9,0.6-8.3,1.9S79.3,7.4,78,9.8c-1.3,2.4-2,5.1-2,8.1c0,3.2,0.7,5.8,2.2,7.6c1.5,1.8,3.5,2.8,6.1,2.8c2.2,0,4-0.7,5.5-2.2
		c1.4-1.4,2.6-3.5,3.8-6.3s2.1-6.2,2.8-10.2l-5-1.7c2.8,0,5.2,0.8,7,2.5c1.8,1.6,2.7,3.8,2.7,6.4c0,1.8-0.5,3.6-1.4,5.5
		C98.7,23.9,97.3,25.6,95.6,27.2z M102.1,16.7c0-2.9-1-5.3-3-7.1c-1.9-1.8-4.5-2.7-7.5-2.7l0-0.1l-1.4,0.1c-2.9,0.2-5.2,1.3-6.9,3.2
		c-1.7,1.9-2.6,4.3-2.6,7.2c0,1.5,0.2,2.7,0.7,3.7c0.7,1.4,1.8,1.7,2.5,1.7c1.5,0,2.8-1.3,4.1-3.9c1-2.2,2.1-5.5,3.1-10l4.1,1.4
		c-0.7,3.6-1.6,6.7-2.6,9.2c-1.1,2.7-2.3,4.7-3.5,5.9c-1.3,1.3-2.9,1.9-4.8,1.9c-2.3,0-4-0.8-5.3-2.4c-1.3-1.7-2-4-2-7
		c0-2.8,0.6-5.4,1.9-7.6c1.2-2.2,3-3.9,5.2-5.1c2.3-1.2,4.9-1.8,7.8-1.8c4.3,0,7.9,1.3,10.5,3.8c2.7,2.5,4,5.8,4,9.9
		c0,2.4-0.5,4.7-1.5,6.9c-0.9,2-2.1,3.8-3.6,5.5l-4-2.4c1.4-1.4,2.5-2.8,3.3-4.4C101.6,20.6,102.1,18.6,102.1,16.7z M90.3,7.9
		c-1.1,4.8-2.2,8.2-3.2,10.5c-1,2.2-2.1,3.4-3.2,3.4c-0.7,0-1.2-0.4-1.6-1.2c-0.4-0.8-0.6-1.9-0.6-3.2c0-2.7,0.8-4.9,2.3-6.5
		C85.6,9,87.7,8.1,90.3,7.9z"/>
	<path class="st0" d="M128.8,14.2c-0.7,0-1.4,0.1-2.2,0.2l-0.9,0.2l0.1,0.9c0.1,1.6,0.4,3.2,0.7,4.9l0.2,0.9l-3.6,0.6
		c-0.3-1.5-0.5-3-0.7-4.5l-0.2-1.7l-1.4,1c-2.3,1.7-3.5,3.7-3.5,6c0,2,1.2,3.2,3.2,3.2c1.7,0,3.6-0.9,5.5-2.6l0.9-0.8l0,0.1l0.4-0.6
		l1.1-1L128,21l0.2-0.3c1.1-1.5,2.1-3.2,3-5l0.6-1.3l-1.4-0.2C130,14.2,129.5,14.2,128.8,14.2z M120.4,24.8c-1.5,0-2.2-0.7-2.2-2.2
		c0-2,1-3.7,3.1-5.2c0.2,1.9,0.5,3.7,0.9,5.5l3-0.5C123.5,24,121.9,24.8,120.4,24.8z M127.4,20.1c-0.3-1.6-0.6-3.2-0.7-4.8
		c0.7-0.1,1.4-0.2,2.1-0.2s1.1,0,1.5,0.1C129.4,17.1,128.5,18.7,127.4,20.1z"/>
	<path class="st0" d="M143,21.3c0-3.6-1.2-6.3-3.7-8.3c-2.4-2-5.8-3-10.2-3c-0.9,0-1.8,0-2.6,0.1c0-0.5,0-1.1,0.1-1.7
		c4.6-0.2,8.7-0.2,12.5,0l0-5.2c-3.6-0.1-7.6-0.1-12,0c0.1-0.8,0.2-1.6,0.3-2.5l-5.7-0.3c-0.2,1.1-0.3,2.1-0.4,3.1
		c-2.9,0.2-5.5,0.4-7.9,0.7l0.4,5.3c2.1-0.3,4.4-0.5,7-0.7c0,0.9,0,1.8,0,2.7c-2.5,1-4.5,2.5-5.9,4.5s-2.1,4.2-2.1,6.7
		c0,2.5,0.7,4.4,2,5.7c1.3,1.3,3.2,1.9,5.7,1.9c3.1,0,5.9-1.1,8.3-3.2s4.7-5.4,6.6-9.7c1,1,1.5,2.3,1.5,3.8c0,2.4-1.2,4.9-3.6,7.6
		l5.4,2.9c1.4-1.4,2.4-3,3.1-4.8C142.6,25.1,143,23.2,143,21.3z M138.6,30.4l-3.6-1.9c2-2.5,3-4.9,3-7.3c0-1.8-0.6-3.3-1.8-4.5
		l-1-1.1l-0.6,1.3c-1.9,4.2-4,7.3-6.3,9.4c-2.3,2-4.8,2.9-7.7,2.9c-2.2,0-3.9-0.6-5-1.6c-1.1-1.1-1.7-2.8-1.7-5
		c0-2.3,0.6-4.3,1.9-6.1c1.3-1.8,3.1-3.2,5.5-4.1l0.6-0.3v-0.7c0-0.9,0-1.7,0-2.6l0-1.1l-1.1,0.1c-2.2,0.2-4.2,0.4-6,0.6l-0.3-3.3
		c2.1-0.2,4.4-0.4,6.9-0.6l0.9-0.1l0.1-0.9c0.1-0.7,0.1-1.4,0.2-2.1l3.7,0.2c-0.1,0.5-0.1,1-0.2,1.4L126,4.4l1.2,0
		c2.4-0.1,4.7-0.1,6.8-0.1c1.4,0,2.8,0,4.1,0.1l0,3.2c-1.6-0.1-3.3-0.1-5-0.1c-2.1,0-4.3,0-6.6,0.1l-0.9,0l-0.2,3.8l1.2-0.1
		c0.8-0.1,1.6-0.1,2.5-0.1c4.1,0,7.4,0.9,9.6,2.7c2.2,1.8,3.3,4.3,3.3,7.5c0,1.8-0.3,3.5-1,5.2C140.4,27.9,139.6,29.2,138.6,30.4z"
		/>
	<path class="st0" d="M175.2,14.9c-1.2-1.6-2.9-2.8-5.2-3.5c1.8-1.4,2.7-3,2.7-5c0-1.7-0.8-2.9-2.3-3.7c-1.5-0.8-3.9-1.2-7-1.2
		s-6.6,0.3-10.3,0.8l1,5.7c3.6-0.6,6.8-1,9.7-1c1.6,0,2.3,0.2,2.3,0.7c0,0.9-2.4,2-7.3,3.1l1.1,5.4c1.5-0.4,3.2-0.6,5-0.6
		c1.8,0,3.3,0.4,4.3,1.2c1.1,0.8,1.6,2,1.6,3.5c0,1.5-0.6,2.7-1.7,3.5c-1.2,0.9-2.8,1.3-5,1.4l3-2.6c-2.2-3.5-5.1-5.2-8.5-5.2
		c-1.8,0-3.3,0.6-4.5,1.8c-1.2,1.2-1.9,2.7-1.9,4.5c0,2.2,1,4,3,5.3c2,1.3,4.7,1.9,8.2,1.9c4.2,0,7.6-0.9,10-2.8
		c2.4-1.8,3.6-4.4,3.6-7.6C177,18.4,176.4,16.5,175.2,14.9z M172.8,27.5c-2.2,1.7-5.4,2.6-9.4,2.6c-3.3,0-5.9-0.6-7.7-1.8
		c-1.7-1.1-2.5-2.5-2.5-4.4c0-1.5,0.5-2.8,1.5-3.8c1.1-1,2.3-1.5,3.8-1.5c2.9,0,5.2,1.3,7.2,4L163,25l-0.1-0.1
		c-0.6-0.9-1.2-1.6-1.9-2.2c-0.8-0.6-1.5-0.9-2.1-0.9c-2,0-2.1,1.4-2.1,1.7c0,0.6,0.3,1.5,1.8,2.1c0.8,0.3,1.7,0.6,2.9,0.7l-0.2,0.2
		l1.5-0.1l1.2,0.1l-0.1-0.1l0.2,0c2.4-0.1,4.2-0.7,5.6-1.6c1.4-1,2.2-2.5,2.2-4.3c0-1.8-0.7-3.3-2-4.3c-1.3-0.9-2.9-1.4-4.9-1.4
		c-1.5,0-2.9,0.1-4.2,0.4l-0.7-3.4c5.9-1.5,7.1-2.6,7.1-3.9c0-1.7-2.3-1.7-3.3-1.7c-2.6,0-5.6,0.3-8.9,0.8l-0.6-3.7
		c3.3-0.4,6.4-0.7,9.2-0.7c2.9,0,5.1,0.4,6.5,1.1c1.2,0.6,1.8,1.5,1.8,2.8c0,1.6-0.8,3-2.3,4.2l-1.5,1.2l1.8,0.6
		c2,0.6,3.6,1.7,4.7,3.1c1.1,1.4,1.6,3.1,1.6,5.1C176,23.6,175,25.8,172.8,27.5z M162.1,25.4c-1.3-0.1-2.3-0.3-3.1-0.7
		c-0.8-0.3-1.2-0.8-1.2-1.2c0-0.5,0.4-0.7,1.1-0.7c0.4,0,0.9,0.2,1.5,0.7C161,23.9,161.6,24.6,162.1,25.4z"/>
	<path class="st0" d="M187.7,0.1c-0.5,5.6-2.2,10.2-5,13.7l2.4,5.5c0.7-0.8,1.1-1.3,1.2-1.4c0,5.3-0.1,9.8-0.4,13.6l5.7-0.1l0-4.2
		c0-5.4-0.1-11.2-0.3-17.4c0.8-3.4,1.2-6.3,1.4-8.7L187.7,0.1z M190.3,9.8c0.2,6.2,0.3,12,0.3,17.4l0,3.2l-3.7,0.1
		c0.2-3.6,0.3-7.8,0.3-12.6l-1.8-0.2l-1.6-3.7c2.6-3.3,4.2-7.6,4.8-12.6l3,0.5c-0.2,2.2-0.6,4.8-1.3,7.7l0,0.1L190.3,9.8z"/>
	<path class="st0" d="M205.6,24.7l3.5-0.2c0,0-0.3-1.2-0.3-1.3l1.1-0.2c0.4,1.1,0.7,2.5,1,4l0.4,1.8l1.3-1.3c0.4-0.4,0.6-1,0.6-2.4
		l-0.1-2.2c-0.1-2.1-1.3-2.3-1.8-2.3l-5.7,0.2v1c0,0.7,0,1.3,0,1.9L205.6,24.7z M211.3,21.6c0.5,0,0.8,0.4,0.8,1.3l0.1,2.2
		c0,0.9-0.1,1.5-0.2,1.6l0,0c-0.4-1.9-0.8-3.5-1.3-4.9l-3,0.5c0.1,0.4,0.2,0.8,0.3,1.2l-1.3,0.1c0-0.6,0-1.2,0-1.9
		C208.5,21.7,210,21.6,211.3,21.6z"/>
	<path class="st0" d="M197.6,8.1L203,8V3.9l-5.4,0.4V8.1z M198.6,5.2l3.4-0.2v2l-3.4,0.1V5.2z"/>
	<path class="st0" d="M201.6,17.9c-1.7,0-4.5,0.3-8.6,0.7c0.1,2.8,0.1,4.6,0.1,5.6c0,1,0,3.4,0.1,7.3l4.5,0l0-5.4
		c0-0.5,0-1.8-0.1-3.8c1.5-0.1,2.9-0.2,4.4-0.3v2.1c-1.3,0.1-2.5,0.2-3.6,0.2l0.5,4.6c2.6-0.3,5.9-0.7,9.7-1.1
		c0.1,0.2,0.2,0.9,0.3,1.9l1.3-0.2l0.2,2c0.8,0.2,1.5,0.3,2,0.3c2.3,0,3.6-0.9,4.1-2.6c0.2-0.7,0.4-2,0.4-3.7c0-2.2-0.1-3.7-0.2-4.6
		c-0.1-0.9-0.4-1.6-0.7-2c-0.3-0.5-0.8-0.8-1.4-0.9c-0.6-0.1-1.5-0.2-2.7-0.2c-0.3,0-2.1,0-5.3,0.1v-1.1c2.4-0.1,5.1-0.2,8.1-0.3
		c0.1-2,0.1-3.9,0.1-5.6c0-1.7,0-3.3-0.1-4.7l0-1.3c-0.2-2.8-1.4-4.3-3.6-4.4c-3,0-7.2,0.2-12.4,0.6c0,0-0.1-0.3-0.1-0.7l-4.6,0.6
		c0.2,3.3,0.3,7.7,0.3,13l0,3.3c3.1,0,5.8-0.1,7.9-0.1c0,0.4,0,0.8,0,1.2L201.6,17.9z M202,15.7c-1.9,0.1-4.2,0.1-6.9,0.1l0-2.2
		c0-4.8-0.1-8.9-0.2-12.1l2.7-0.3c0,0,0.3,0.7,0.3,0.7l0.7-0.1c5.2-0.4,9.4-0.6,12.4-0.6c1.1,0.1,2.4,0.5,2.6,3.5l0,1.2
		c0.1,1.4,0.1,3,0.1,4.7c0,1.4,0,3-0.1,4.6c-2.6,0.1-5,0.2-7.2,0.3l-1,0v3.1l1,0c3.2-0.1,5-0.1,5.3-0.1c1.4,0,2.1,0.1,2.4,0.2
		c0.4,0.1,0.6,0.3,0.8,0.5c0.2,0.2,0.4,0.7,0.5,1.6c0.1,0.8,0.2,2.3,0.2,4.5c0,2-0.2,3-0.3,3.4c-0.2,0.8-0.8,1.9-3.2,1.9
		c-0.3,0-0.6,0-1-0.1l-0.2-2.3l-1.4,0.2c-0.1-0.6-0.2-0.9-0.2-1.1l-0.3-0.7l-0.8,0.1c-3.3,0.4-6.2,0.7-8.7,1l-0.3-2.5
		c0.8,0,1.7-0.1,2.6-0.2l0.9-0.1v-4.1l-1.1,0.1c-1.4,0.1-2.9,0.2-4.4,0.3l-1,0.1l0,1c0.1,2,0.1,3.2,0.1,3.7l0,4.4l-2.5,0
		c0-3.3-0.1-5.4-0.1-6.3c0-0.8,0-2.4-0.1-4.7c3.5-0.3,6.1-0.5,7.6-0.6l1.4-0.1v-0.9c0-0.4,0-0.7,0-1.1l0.1-1.1L202,15.7z"/>
	<path class="st0" d="M197.6,13.8l5.4-0.2V9.8l-5.4,0.3L197.6,13.8z M202,10.8v1.8l-3.4,0.1l0-1.7L202,10.8z"/>
	<path class="st0" d="M210,13.1l0.9-0.1V9.2l-5.4,0.4v3.7l1,0C207.8,13.2,209,13.2,210,13.1z M206.5,10.5l3.4-0.3v1.8
		c-1,0.1-2.2,0.2-3.4,0.2V10.5z"/>
	<path class="st0" d="M210.8,6.3c0-1.4-0.4-2.3-1.2-2.6c-0.3-0.1-0.6-0.2-0.9-0.2h0l-3.3,0.1v4l5.3-0.4V6.3z M206.5,6.6v-2l2.3,0
		c0.2,0,0.4,0,0.4,0.1c0.4,0.1,0.6,0.7,0.6,1.7L206.5,6.6z"/>
	<path class="st0" d="M246.5,1.3c0.7,1.6,1.2,3.2,1.4,4.8l4.2-0.9c-0.5-1.6-1.1-3.2-1.9-4.8L246.5,1.3z M248.7,4.9
		c-0.2-1-0.5-1.9-0.9-2.9l1.9-0.4c0.4,1,0.8,1.9,1.1,2.9L248.7,4.9z"/>
	<path class="st0" d="M226.4,25.6l-4.9-0.2c-0.2,1.5-1,3.1-2.2,5l5.3,1.3C225.6,29.4,226.2,27.3,226.4,25.6z M220.9,29.7
		c0.7-1.2,1.1-2.3,1.4-3.3l3,0.1c-0.2,1.2-0.6,2.5-1.2,4L220.9,29.7z"/>
	<path class="st0" d="M247.9,24.3l5.5-1.4c-1-2.5-2.8-6.1-5.5-10.7c3,0,4.7-0.1,5.1-0.1l-0.2-5.3c-1.6,0.1-3.8,0.1-6.6,0.2l0.1-1.4
		c0-1.6-0.1-3.5-0.3-5.5l-4.8,0.1c0.1,1.2,0.2,2.4,0.2,3.6c0,1.2-0.1,2.3-0.2,3.3l-3.3,0c-0.1-2.3-1.2-3.6-3.1-3.8
		c-0.7,0-1.8,0-3.5-0.1c0.5-1,0.8-1.8,1-2.6l-4.8-0.7c-1,4.1-3.5,7.7-7.7,10.8l4.2,3c2.1-1.4,4-3.5,5.5-6.5c1.4,0.1,2.3,0.2,2.7,0.4
		c0.4,0.3,0.7,0.6,0.7,0.9c0,0.3-0.2,0.7-0.5,1.4c-1-0.5-1.9-0.9-2.7-1.2l-2.2,2.7c1,0.6,2,1.2,2.9,1.9c-0.4,0.5-0.9,1-1.4,1.7
		c-1.1-0.7-2.1-1.3-3-1.6l-2.6,2.8c0.9,0.5,1.7,1,2.4,1.6c-1.4,0.9-3,1.7-4.9,2.5l3.3,3.9c3.3-1.4,6-3.3,8.2-5.7
		c2.2-2.4,3.6-4.5,4.4-6.3c0.4-1,0.8-2.2,1.2-3.7l0,4l2.3,0c-0.9,3.6-3.3,6.6-6.9,9.1l4.9,3.2c2.9-2.2,4.8-5,5.9-8.5
		C245.9,19.3,247.2,22,247.9,24.3z M243.1,16c-0.9,3-2.6,5.5-5,7.5l-3.1-2c3.2-2.4,5.2-5.4,6.1-8.8l0.3-1.3l-2.6,0l0-3l-2-0.2
		c-0.4,1.5-0.7,2.7-1.1,3.6c-0.7,1.7-2.1,3.7-4.2,6c-1.9,2.1-4.3,3.8-7.2,5.2l-2-2.3c1.4-0.6,2.7-1.3,3.8-2l1.3-0.8l-1.2-0.9
		c-0.5-0.3-0.9-0.7-1.5-1l1.3-1.4c0.7,0.3,1.4,0.8,2.3,1.3l0.7,0.5l0.6-0.6c0.6-0.7,1.1-1.2,1.5-1.7l0.6-0.8l-0.8-0.6
		c-0.6-0.5-1.3-0.9-2-1.3l1-1.3c0.6,0.2,1.2,0.5,1.9,0.9l0.9,0.4l0.4-0.9c0.4-0.8,0.6-1.4,0.6-1.8c0-0.5-0.2-1.2-1.1-1.7
		c-0.4-0.2-1.1-0.4-3.1-0.5l-0.6,0L228.5,7c-1.3,2.5-2.9,4.4-4.6,5.7l-2.5-1.8c3.4-2.8,5.7-6.1,6.8-9.6l2.7,0.4
		c-0.2,0.4-0.4,0.9-0.6,1.3l-0.7,1.4l1.6,0c1.6,0,2.8,0,3.5,0.1c0.9,0.1,2,0.5,2.2,2.9l0.1,0.9l5.2-0.1l0.1-0.9
		c0.1-1.1,0.2-2.2,0.2-3.4c0-0.9,0-1.8-0.1-2.7l2.8,0c0.1,1.6,0.2,3.1,0.2,4.5l-0.1,2.4l1.1,0c2.3-0.1,4.2-0.1,5.7-0.2l0.1,3.3
		c-0.7,0-1.9,0.1-4.1,0.1l-1.7,0l0.9,1.5c2.3,3.9,4,7.1,5,9.4l-3.5,0.9c-0.8-2.2-2-4.7-3.7-7.3l-1.2-1.9L243.1,16z"/>
	<path class="st0" d="M253.7,30.5c-0.7-2.1-1.6-4-2.9-5.9l-5.2,0.9c1.3,1.9,2.1,3.8,2.4,5.9L253.7,30.5z M250.3,25.8
		c0.8,1.3,1.5,2.6,2.1,4l-3.5,0.6c-0.3-1.4-0.8-2.7-1.6-4L250.3,25.8z"/>
	<path class="st0" d="M229.1,31l5.4,0.1c0.3-1.8,0.4-3.6,0.4-5.6l-5.2,0C229.5,27,229.2,28.8,229.1,31z M230.6,26.5l3.4,0
		c0,1.2-0.1,2.4-0.3,3.6l-3.5-0.1C230.3,28.7,230.4,27.5,230.6,26.5z"/>
	<path class="st0" d="M237.9,26.2c0,1.4,0,3,0.1,4.8l5.5,0c-0.1-1.8-0.2-3.7-0.5-5.6l-5.2,0.3V26.2z M242.2,26.4
		c0.1,1.2,0.2,2.4,0.3,3.6l-3.5,0c-0.1-1.3-0.1-2.4-0.1-3.5L242.2,26.4z"/>
</g>
</svg>
