<?xml version="1.0" encoding="utf-8"?>
<!-- Generator: Adobe Illustrator 27.9.1, SVG Export Plug-In . SVG Version: 6.00 Build 0)  -->
<svg version="1.1" id="Layer_1" xmlns="http://www.w3.org/2000/svg" xmlns:xlink="http://www.w3.org/1999/xlink" x="0px" y="0px"
	 viewBox="0 0 66.5 34.5" style="enable-background:new 0 0 66.5 34.5;" xml:space="preserve">
<style type="text/css">
	.st0{fill:#282828;}
</style>
<g>
	<path class="st0" d="M4,0h25.4v8.1H4V0z M49.3,0.7c-0.2,0.5-0.3,1.2-0.5,1.9c-0.2,0.7-0.3,1.5-0.5,2.3c-0.2,0.8-0.3,1.6-0.4,2.4
		c-0.1,0.8-0.2,1.5-0.2,2c0.5-0.8,1-1.6,1.6-2.4c0.6-0.8,1.4-1.6,2.2-2.2c0.8-0.7,1.7-1.2,2.7-1.6c1-0.4,2-0.6,3.1-0.6
		c1.7,0,3.3,0.5,4.7,1.6c1.4,1.1,2.5,2.6,3.3,4.6c0.8,2,1.2,4.4,1.2,7.1c0,2.7-0.4,5-1.2,7c-0.8,2-1.9,3.7-3.3,5.1
		c-1.4,1.4-3.2,2.5-5.2,3.4c-2,0.9-4.3,1.5-6.7,2l-2.6-4c2.1-0.3,4-0.8,5.8-1.3c1.8-0.6,3.3-1.4,4.6-2.4c1.3-1,2.3-2.3,3-3.9
		c0.7-1.6,1.1-3.5,1.1-5.9c0-2-0.2-3.7-0.6-5.1c-0.4-1.4-1-2.5-1.8-3.2c-0.8-0.7-1.8-1.1-2.9-1.1s-2.2,0.4-3.3,1.1
		c-1,0.7-2,1.7-2.8,2.9c-0.8,1.2-1.5,2.5-2,3.8c-0.5,1.4-0.8,2.7-0.9,4c-0.1,0.6-0.1,1.2,0,1.9c0,0.7,0.1,1.4,0.2,2.3l-4.2,0.3
		c-0.1-0.7-0.2-1.6-0.3-2.7c-0.1-1.1-0.2-2.3-0.2-3.5c0-0.9,0-1.9,0.1-2.9c0.1-1,0.1-2.1,0.2-3.2c0.1-1.1,0.2-2.1,0.4-3.2
		c0.1-1.1,0.3-2.1,0.4-3c0.1-0.7,0.1-1.4,0.2-2c0.1-0.7,0.1-1.2,0.1-1.7L49.3,0.7z M7.8,1.9v1.3h17.7V1.9H7.8z M7.8,4.9v1.3h17.7
		V4.9H7.8z M2.5,9.2h28.8v2.5H2.5V9.2z M14.7,10.6h3.8v10.8h-3.8V10.6z M0.4,13h32.8v5.6h-3.6v-3.2H3.9v3.2H0.4V13z M20.1,16.5H28
		v1.7h-7.9V16.5z M5.5,16.5h7.5v1.7H5.5V16.5z M4.8,19.4h8.3v1.7H4.8V19.4z M20.1,19.4h8.8v1.7h-8.8V19.4z M4,22.3h26v2.4H4V22.3z
		 M0,25.9h33.6v2.6H0V25.9z M10.4,26.4l4.5,0.7c-0.7,1-1.4,2-2.1,2.9c-0.8,0.9-1.5,1.7-2.1,2.4l-3.4-0.8C7.6,31.1,8,30.6,8.4,30
		c0.4-0.6,0.8-1.2,1.1-1.8C9.9,27.5,10.1,27,10.4,26.4z M20.1,29.3l2.9-1.8c1,0.4,2.1,0.9,3.2,1.5c1.1,0.6,2.2,1.2,3.2,1.8
		c1,0.6,1.9,1.2,2.6,1.7l-3,2.1c-0.7-0.6-1.5-1.2-2.5-1.8c-1-0.6-2.1-1.3-3.2-1.9C22.3,30.2,21.2,29.7,20.1,29.3z M2.5,30.8
		c2.1,0,4.5,0,7.3,0c2.8,0,5.7-0.1,8.8-0.1c3.1-0.1,6.2-0.1,9.3-0.2l-0.2,2.6c-3,0.1-6.1,0.2-9.1,0.2c-3,0.1-5.9,0.2-8.7,0.2
		c-2.7,0.1-5.2,0.1-7.3,0.1L2.5,30.8z"/>
</g>
</svg>
