<?xml version="1.0" encoding="utf-8"?>
<!-- Generator: Adobe Illustrator 27.9.1, SVG Export Plug-In . SVG Version: 6.00 Build 0)  -->
<svg version="1.1" id="Layer_1" xmlns:inkscape="http://www.inkscape.org/namespaces/inkscape"
	 xmlns="http://www.w3.org/2000/svg" xmlns:xlink="http://www.w3.org/1999/xlink" x="0px" y="0px" viewBox="0 0 359.5 32.2"
	 style="enable-background:new 0 0 359.5 32.2;" xml:space="preserve">
<style type="text/css">
	.st0{fill:#070707;}
</style>
<g>
	<path class="st0" d="M7.8,10.5l0.9-0.1l0-0.9c0-0.6,0-1.1,0-1.5c0-0.8-0.1-1.4-0.2-1.9c-0.2-0.8-1-1.2-2.3-1.3l-0.1,0L4.9,5v5.8
		L6,10.6C6.4,10.6,7,10.5,7.8,10.5z M5.9,5.9l0.4,0c0.8,0,1.3,0.3,1.4,0.6C7.7,6.8,7.8,7.3,7.8,8c0,0.4,0,0.9,0,1.4
		C6.9,9.5,6.3,9.6,5.9,9.6V5.9z"/>
	<path class="st0" d="M5.6,23l2.2-0.1c0,1.5,0,2.4,0,2.7c-0.1,0.5-0.4,0.8-0.8,0.8c-0.2,0-0.7-0.1-1.4-0.2l0.3,5.2
		c1.2,0.3,2.2,0.5,3,0.5c1.5,0,2.5-0.6,3-1.7c0.3-0.7,0.4-2.7,0.4-5.9v-3.6l1.4,3.8c0.8-0.3,1.6-0.7,2.2-1.2c1,0,1.9,0,2.7,0
		c-0.9,2.1-2.9,3.7-6,4.9l2.4,3.9c4.6-1.8,7.3-4.7,8.3-8.6c0.9,0,1.5,0,2,0c0.1,0,0.1,0.1,0.2,0.2s0.1,0.5,0.1,1.2v1
		c0,0.7-0.1,1.1-0.2,1.1c-1,0-1.9-0.1-2.8-0.4l0.1,4.8c1.7,0.4,3,0.7,4.1,0.7c0.8,0,1.5-0.2,2.1-0.6c0.6-0.6,0.9-1.4,1-2.5
		c0-2.9,0.1-4.7,0.1-5.2l0.4,1l4.1-3.3c-1.2-2.1-2.6-4.2-4.1-6.5l3.7-0.1l-0.3-4.8l-10.7,0.4l0.5-1.9c5.5-0.1,8.6-0.2,9.1-0.2
		l-0.2-4.4l-1.9,0c0.5-1,0.8-1.8,1-2.3l-4.4-1.4c-0.3,1.3-0.7,2.5-1.2,3.7l-1.4,0.1c0.3-1.2,0.5-2.4,0.7-3.6l-4.8-0.1
		C20.4,2,20.2,3.3,20,4.5l-0.9,0c-0.2-1.2-0.6-2.5-1.3-3.9l-4.3,0.8c0.4,0.9,0.7,1.9,0.9,3.2h-1.1L13.3,9l5.6-0.1
		c-0.2,0.7-0.4,1.3-0.7,1.8c-2.6,0-4.4,0.1-5.3,0.1h-0.2l0.1,4.8l3.4,0c-0.8,1.4-2.1,2.6-3.9,3.7V6.1c0-1.7-0.4-3-1.1-3.8
		C10.5,1.4,9.5,1,8.4,1c-1.1,0-2,0-2.6,0.1c0-0.3,0-0.6,0-0.9L1.1,0.7c0.1,3.4,0.2,6.9,0.2,10.7c0,7.4-0.4,13.9-1.3,19.3l4.8,1
		C5.1,29.5,5.4,26.5,5.6,23z M12.9,20c2-1.1,3.4-2.5,4.3-4.1l0.8-1.5l-4.1,0l-0.1-2.7c1,0,2.6,0,4.5-0.1l0.6,0l0.3-0.6
		c0.2-0.5,0.5-1.2,0.7-1.9l0.4-1.3l-6,0.1l-0.1-2.4h1.2l-0.1-1.1c-0.1-0.8-0.3-1.6-0.5-2.3l2.4-0.4c0.4,1,0.8,2,0.9,2.9l0.1,0.9
		l2.6-0.1l0.2-0.8c0.2-0.9,0.4-1.9,0.5-3l2.8,0.1c-0.1,0.8-0.3,1.6-0.5,2.4l-0.3,1.3l3.4-0.2l0.2-0.6c0.4-0.9,0.7-1.9,1-2.9l2.3,0.7
		c-0.2,0.4-0.3,0.8-0.5,1.2l-0.7,1.4l2.5,0l0.1,2.4c-1.2,0-3.5,0.1-8.1,0.2l-0.7,0l-1.1,3.9l11.1-0.4l0.2,2.8l-4.5,0.1l1,1.5
		c1.3,2,2.5,3.9,3.6,5.7l-2.7,2.1L29,23.8c0,0.5,0,2.2-0.1,5.1c0,0.8-0.2,1.4-0.6,1.8c-0.4,0.2-0.8,0.4-1.4,0.4
		c-0.8,0-1.9-0.2-3.1-0.4l-0.1-2.8c0.6,0.1,1.2,0.2,1.8,0.2c1.2,0,1.2-1.5,1.2-2.1v-1c0-1-0.1-1.4-0.2-1.6c-0.3-0.7-0.8-0.8-1.1-0.8
		c-0.4,0-1.1,0-1.9,0l-0.8,0l-0.2,0.8c-0.8,3.4-3.1,5.9-6.9,7.6l-1.4-2.2c2.7-1.2,4.5-2.9,5.4-5l0.6-1.4h-4.6l-0.3,0.2
		c-0.3,0.2-0.7,0.5-1,0.6l-1-2.8l-1.3,0.2L12.9,20z M4.6,22.9c-0.2,3-0.4,5.6-0.7,7.7L1.1,30c0.8-5.3,1.1-11.5,1.1-18.5
		c0-3.4-0.1-6.7-0.2-9.8l2.7-0.3l0.1,0.9l1.1-0.2C6.6,2.1,7.4,2,8.4,2c0.8,0,1.5,0.3,2.1,0.9c0.6,0.6,0.9,1.7,0.9,3.1v18.1
		c0,4-0.2,5.2-0.3,5.6c-0.2,0.4-0.7,1.1-2.1,1.1c-0.6,0-1.2-0.1-2-0.3l-0.2-3.2c0.2,0,0.3,0,0.4,0c0.3,0,1.4-0.1,1.8-1.6l0-0.1
		l0-0.1c0-0.2,0-0.7,0-2.7v-1L4.7,22L4.6,22.9z"/>
	<path class="st0" d="M8.9,13.3l-4,0.1l-0.1,5.8l1.1-0.1C6.3,19.2,7,19.1,8,19l0.9-0.1V13.3z M7.9,18c-1,0.1-1.7,0.2-2.1,0.2l0-3.7
		l2-0.1V18z"/>
	<path class="st0" d="M20.8,19.1c0.1-0.5,0.1-1,0.2-1.4l2.6,0c0,0.4-0.1,0.7-0.2,1.1l-0.2,1.1h2c1.3,0,1.8,0.1,2,0.1l2,0.5l-0.8-1.8
		c-0.9-2-1.6-3.3-2.1-4l-0.3-0.4l-4.8,0.1l0-0.5l-2,2.7c-0.4,0.6-0.9,1.2-1.3,1.8l-1.4,1.8l4.2-0.4L20.8,19.1z M19.8,18.9
		c-0.2,0-0.6,0.1-1.2,0.1c0.4-0.6,0.9-1.2,1.3-1.8C19.9,17.8,19.9,18.3,19.8,18.9z M21.3,15.4l4.1-0.1c0.5,0.6,1.1,1.9,2,3.8
		c-0.4-0.1-1.2-0.1-2.2-0.1h-0.8c0.1-0.8,0.2-1.6,0.3-2.3l-4.3,0.1C20.7,16.3,21,15.8,21.3,15.4z"/>
	<path class="st0" d="M39.2,7.2l2,6.5c3-1,6-1.8,9-2.4c3-0.6,5.4-0.9,7.3-0.9c1.8,0,3.2,0.3,4,1c0.9,0.7,1.3,1.8,1.3,3.2
		c0,2-0.8,3.9-2.5,5.6c-1.6,1.7-4.2,3.4-7.8,5.1l4.3,5.5c4.3-2.4,7.6-4.9,9.7-7.6c2.1-2.7,3.2-5.6,3.2-8.7c0-3.3-1.1-5.9-3.4-7.8
		C64,4.9,60.8,4,56.7,4C52.3,4,46.5,5,39.2,7.2z M68.7,14.5c0,2.8-1,5.6-3,8c-1.9,2.4-4.8,4.7-8.6,6.9l-3-3.8c3.1-1.6,5.4-3.2,7-4.8
		c1.8-1.9,2.7-4,2.7-6.3c0-1.8-0.6-3.1-1.7-4c-1-0.8-2.6-1.2-4.6-1.2c-1.9,0-4.5,0.3-7.5,0.9c-2.7,0.6-5.4,1.3-8.2,2.2l-1.4-4.5
		C47.1,5.9,52.6,5,56.7,5c3.9,0,6.9,0.8,9,2.5C67.7,9.1,68.7,11.4,68.7,14.5z"/>
	<path class="st0" d="M83.1,30.5c1.3-6.6,3-13.5,5-20.7c1.5-0.1,3-0.1,4.6-0.1c0.8,0,1.6,0,2.5,0l0.1-5.5c-1.2,0-2.3,0-3.3,0
		c-0.8,0-1.5,0-2.2,0c0.3-1.1,0.6-2,0.9-2.8l-6-0.9c-0.4,1.1-0.8,2.5-1.3,4.2c-2,0.2-4.3,0.7-6.9,1.3l0.8,5.7c1.6-0.4,3-0.7,4.4-0.9
		c-2,7-3.5,13.2-4.7,18.8L83.1,30.5z M81.3,9.6c-1.1,0.2-2.2,0.4-3.4,0.7l-0.5-3.7c2.2-0.5,4.2-0.8,5.9-1L84,5.5l0.2-0.6
		c0.4-1.3,0.8-2.4,1.1-3.3l4,0.6c-0.2,0.5-0.3,1.1-0.5,1.7l-0.4,1.3l1.4-0.1c0.7,0,1.4,0,2.2,0c0.7,0,1.5,0,2.3,0l-0.1,3.5h-1.5
		c-1.6,0-3.1,0.1-4.6,0.2l-0.7,0l-0.2,0.7c-1.9,6.9-3.5,13.6-4.8,19.8l-4.4-0.7c1.2-5.3,2.7-11.2,4.5-17.7l0.4-1.5L81.3,9.6z"/>
	<path class="st0" d="M91.6,16.5c3-0.5,6-0.8,9-0.8c1.3,0,2.6,0,3.9,0.1l0.2-5.5c-1.4-0.1-2.9-0.2-4.3-0.2c-3.3,0-6.5,0.3-9.5,0.9
		L91.6,16.5z M100.4,11.2c1.1,0,2.2,0,3.3,0.1l-0.1,3.5c-1-0.1-2-0.1-3-0.1c-2.7,0-5.5,0.2-8.2,0.6L92,11.9
		C94.7,11.5,97.5,11.2,100.4,11.2z"/>
	<path class="st0" d="M102.7,30.3c0.6,0,1.3,0,2,0l0.2-5.7c-0.5,0-0.9,0-1.3,0c-2.6,0-4.8-0.2-6.7-0.6c-1.9-0.4-3.9-1.2-6.2-2.2
		L88.5,27c2.1,1.2,4.3,2,6.5,2.5S99.8,30.3,102.7,30.3z M91.2,23c2,0.9,3.8,1.5,5.5,1.9c1.9,0.4,4.3,0.7,6.9,0.7h0.3l-0.1,3.7
		c-0.4,0-0.7,0-1,0c-2.8,0-5.3-0.3-7.5-0.8c-1.9-0.4-3.7-1.1-5.5-2L91.2,23z"/>
	<path class="st0" d="M111,20.6c0,2.8,0.7,5,2,6.6c1.4,1.6,3.3,2.4,5.7,2.4c3.1,0,5.9-1.4,8.4-4.3s4.5-7.2,6.2-12.9
		c2,1.4,3,3.6,3,6.5c0,3-1.2,6.2-3.7,9.6l6.5,2.3c2.5-3.6,3.7-7.5,3.7-11.5c0-3.1-0.7-5.8-2.1-8s-3.4-3.9-5.9-4.9
		c0.3-1.4,0.5-2.9,0.8-4.4l-6.2-1.1c-0.2,1.4-0.4,2.9-0.7,4.3c-0.2,0-0.4,0-0.6,0c-2.7,0-5.2,0.5-7.5,1.4c-0.4-1.2-0.8-2.6-1.2-4
		l-5.8,1.7c0.5,2.1,1.1,4,1.7,5.8c-1.4,1.4-2.5,3-3.2,4.8C111.3,16.6,111,18.6,111,20.6z M116,10.8l0.5-0.4l-0.2-0.6
		c-0.5-1.5-1-3-1.4-4.7l3.9-1.1c0.3,1.1,0.6,2.1,0.9,3.1l0.3,1l1-0.4c2.1-0.9,4.5-1.4,7.1-1.4h1.5l0.2-0.8c0.2-1.1,0.4-2.2,0.5-3.4
		l4.1,0.7c-0.2,1.2-0.4,2.3-0.6,3.4L133.6,7l0.8,0.3c2.3,1,4.2,2.5,5.5,4.5c1.3,2.1,2,4.6,2,7.4c0,3.6-1,7-3.1,10.3l-4.5-1.6
		c2.1-3.2,3.1-6.2,3.1-9.1c0-3.3-1.2-5.8-3.4-7.4l-1.1-0.8l-0.4,1.3c-1.6,5.5-3.6,9.7-6,12.5c-2.3,2.7-4.8,4-7.6,4
		c-2.1,0-3.7-0.7-4.9-2c-1.2-1.4-1.8-3.4-1.8-5.9c0-1.9,0.4-3.7,1.1-5.4C113.7,13.6,114.7,12.1,116,10.8z"/>
	<path class="st0" d="M118.8,24.6c1.8,0,3.6-1.3,5.3-3.9l0.8-1.2l0,0l0.1-0.3l0.8-1.3l-0.3,0.1l0.2-0.3c1-2,1.8-4.2,2.5-6.7l0.4-1.3
		l-1.4,0c-1.9,0-3.7,0.4-5.4,1.1l-0.9,0.4l0.3,0.9c0.8,1.9,1.6,3.8,2.5,5.6l0.4,0.8l-3.7,1.5c-0.8-1.6-1.5-3.1-2.1-4.4l-0.8-1.8
		l-1,1.7c-0.8,1.4-1.2,3-1.2,4.7C115.6,24,117.6,24.6,118.8,24.6z M122.4,11.9c1.5-0.7,3.2-1,5-1c-0.7,2.4-1.5,4.6-2.5,6.5
		C124,15.6,123.1,13.8,122.4,11.9z M117.7,16.1c0.7,1.6,1.6,3.4,2.6,5.3l3-1.2c-1.5,2.3-3,3.5-4.5,3.5s-2.2-1.1-2.2-3.3
		C116.6,18.8,117,17.4,117.7,16.1z"/>
	<path class="st0" d="M151.3,1.9c-0.7,1.9-1.3,4.1-1.7,6.8c-0.4,2.7-0.6,5.5-0.6,8.4c0,5.2,0.6,9.6,1.7,13.2l5.9-0.9
		c-1.1-4-1.6-8.2-1.6-12.4c0-4.9,0.7-9.5,2.2-13.9L151.3,1.9z M155.4,28.5l-3.9,0.6c-1-3.3-1.4-7.4-1.4-12.1c0-2.9,0.2-5.7,0.6-8.3
		c0.3-2.2,0.8-4.1,1.3-5.8l3.9,0.8C154.6,8,154,12.4,154,17C154,20.9,154.4,24.8,155.4,28.5z"/>
	<path class="st0" d="M160.2,5.5l0.5,5.6c2.7-0.5,6.1-0.8,10.2-0.8c1.8,0,3.5,0.1,5.3,0.2l0.2-5.6c-2.2-0.2-4.4-0.3-6.5-0.3
		C166.1,4.5,162.9,4.9,160.2,5.5z M175.3,5.8l-0.1,3.7c-1.5-0.1-2.9-0.1-4.3-0.1c-3.6,0-6.7,0.2-9.3,0.6l-0.3-3.6
		c2.4-0.5,5.3-0.8,8.6-0.8C171.6,5.5,173.5,5.6,175.3,5.8z"/>
	<path class="st0" d="M165.8,27.9c2.4,0.6,5.3,0.9,8.7,0.9c0.6,0,1.2,0,1.9,0l0.2-6c-3.5,0-6.4-0.3-8.6-0.7
		c-2.2-0.5-4.5-1.3-6.8-2.5l-2.4,5.6C161,26.3,163.4,27.3,165.8,27.9z M161.7,20.8c2.1,1,4.1,1.7,6.1,2.1c2,0.4,4.6,0.7,7.8,0.7
		l-0.2,4.1c-0.3,0-0.6,0-0.9,0c-3.3,0-6.1-0.3-8.5-0.8c-2-0.5-4-1.3-6-2.3L161.7,20.8z"/>
	<path class="st0" d="M211.6,7.9c-0.1-0.1-0.2-0.3-0.2-0.8c0-0.5,0-1,0.1-1.4c0.1-0.4,0.1-0.8,0.1-1.1c0-0.3-0.1-0.8-0.3-1.5
		c-0.5-1.9-1.9-2.8-4.2-2.8c-1.1,0-2.6,0.2-4.6,0.6l0-0.6l-4.7,0.3c0,5.2-0.8,8.7-2.5,10.7l5.4,1.6c1-1.3,1.6-3.7,1.8-7.4
		c1.3-0.4,2.3-0.6,3-0.6c0.6,0,1,0.1,1.2,0.3s0.3,0.9,0.3,2.1c0,0.6-0.1,1.1-0.1,1.6c0,0.7,0.1,1.3,0.2,1.9c0.4,1.7,2.1,2.5,5.3,2.5
		l2.3,0l0.6-5.7c-1.6,0.2-2.6,0.3-3.2,0.3C211.9,8.1,211.7,8,211.6,7.9z M213.9,12.4l-1.4,0c-2.6,0-4-0.6-4.3-1.7
		c-0.1-0.5-0.2-1.1-0.2-1.7c0-0.5,0-1,0.1-1.5c0-1.8-0.2-2.5-0.7-3c-0.4-0.3-1-0.5-1.8-0.5c-0.8,0-1.9,0.2-3.3,0.6l-0.7,0.2l0,0.7
		c-0.2,3.5-0.7,5.3-1.2,6.3l-3.4-1c1.2-2.1,1.8-5.1,1.9-9.2l2.8-0.2l0,0.7l1.1-0.2c1.9-0.4,3.4-0.6,4.4-0.6c2.4,0,3,1.1,3.2,2
		c0.2,0.8,0.3,1.2,0.3,1.3c0,0.3,0,0.6-0.1,1c-0.1,0.5-0.1,1-0.1,1.5c0,0.5,0.1,1.2,0.6,1.5c0.3,0.2,0.7,0.3,1.2,0.3
		c0.4,0,1.1-0.1,2-0.2L213.9,12.4z"/>
	<path class="st0" d="M194.9,8.5c-2.7,0.1-6.9,0.3-12.6,0.7l0.1,4.2c5.7-0.3,9.9-0.5,12.7-0.7L194.9,8.5z M183.4,12.2l-0.1-2.2
		c4.5-0.3,8.1-0.5,10.6-0.6l0.1,2.2C191.6,11.8,188,12,183.4,12.2z"/>
	<path class="st0" d="M195.2,18.4l-0.2-4.2c-5.4,0.3-9.6,0.6-12.5,0.7l0,4.2C188.3,18.8,192.5,18.6,195.2,18.4z M194.1,15.3l0.1,2.2
		c-2.5,0.2-6.1,0.3-10.6,0.5l0-2.2C186.2,15.8,189.7,15.5,194.1,15.3z"/>
	<path class="st0" d="M181.5,7.3c5.6-0.3,9.1-0.5,10.3-0.5c1.3-0.1,2.2-0.1,2.7-0.1s1-0.1,1.5-0.2l-0.2-4.2
		c-1.4,0.1-2.9,0.2-4.5,0.4c-0.2-1.1-0.5-1.9-0.8-2.5L185.6,1c0.3,0.8,0.5,1.4,0.5,1.9l-4.8,0.3L181.5,7.3z M187.2,3.9l-0.1-1
		c0-0.3-0.1-0.6-0.2-1l3-0.5c0.1,0.4,0.3,0.9,0.4,1.6l0.2,0.9l0.9-0.1c1.2-0.1,2.3-0.3,3.4-0.3l0.1,2.3c-0.2,0-0.4,0-0.6,0
		c-0.5,0-1.4,0.1-2.7,0.1c-1.2,0.1-4.3,0.2-9.3,0.5l0-2.2L187.2,3.9z"/>
	<path class="st0" d="M191.2,23.4c-0.4-0.1-0.8-0.2-1.3-0.2c-0.7,0-1.7,0.1-3.1,0.3l-0.8,0.1l0.1,4.8h1c0.9,0,2.4-0.1,4.3-0.4
		l0.7-0.1l0.1-0.7c0.1-0.3,0.1-0.7,0.1-1.2C192.3,24.9,192.1,23.8,191.2,23.4z M191.2,27.1c-1.9,0.3-3.3,0.4-4.2,0.4l0-2.9
		c1.3-0.2,2.2-0.3,2.9-0.3c0.4,0,0.7,0,0.9,0.1c0.3,0.1,0.4,0.7,0.4,1.7C191.3,26.4,191.2,26.8,191.2,27.1z"/>
	<path class="st0" d="M210.1,24.1c0.9-0.7,1.6-1.4,1.9-2.1c0.4-0.7,0.7-1.3,0.9-1.8c0.2-0.7,0.4-1.6,0.4-2.6c0-2.2-1.3-3.4-4-3.7
		c-1.5-0.1-2.8-0.2-4-0.2c-2.2,0-5.2,0.1-9,0.3l0.1,4.9l3.4-0.2l-2.6,3.3c1.7,0.7,3.2,1.6,4.6,2.6c-1.4,1.1-3.4,2-5.9,2.8
		c0-1,0.1-1.8,0.1-2.4c0-3.1-0.7-4.8-2.1-4.9c-2.9,0-6.6,0.2-11.2,0.7c0,2.6,0.1,5.4,0.1,8.3l0,2.8c4.8-0.1,9.1-0.3,13-0.5l0.1-2.5
		l1.6,3.2c3.1-0.8,6.1-2.3,8.8-4.5c2.2,1.3,4.1,2.8,5.9,4.3l3.7-4.2C214.1,26.5,212.2,25.3,210.1,24.1z M194.8,27.3l-0.1,1.4l0,0
		l-0.1,1.7c-3.4,0.1-7.1,0.3-11,0.4l0-1.8c0-2.6,0-5.1-0.1-7.5c4.1-0.4,7.5-0.6,10.2-0.6c0.7,0.1,1.1,1.6,1.1,3.9
		C194.9,25.6,194.8,26.4,194.8,27.3z M211.8,30.6c-1.6-1.3-3.4-2.6-5.3-3.8l-0.6-0.4l-0.6,0.5c-2.3,1.9-4.9,3.3-7.6,4.1l-1.3-2.8
		c2.4-0.8,4.4-1.8,5.8-2.8l1.1-0.8l-1.1-0.8c-1.1-0.8-2.3-1.5-3.6-2.1l1.7-2.1c2.2,1,3.8,1.9,4.8,2.7l0.6,0.4l0.6-0.4
		c1.1-0.7,1.9-1.6,2.2-2.6l0.1-0.2v-0.2c0-1.3-0.7-2-1.9-2c-0.7,0-2.7,0.1-6.2,0.3l0,0.1l-3.2,0.2l0-2.9c3.3-0.2,6-0.3,8-0.3
		c1.1,0,2.4,0.1,3.9,0.2c2.8,0.3,3.1,1.6,3.1,2.7c0,0.9-0.1,1.7-0.3,2.3c-0.2,0.5-0.5,1.1-0.8,1.7c-0.3,0.5-0.9,1.1-1.7,1.8
		l-1.2,0.9l1.3,0.7c1.7,1,3.2,2,4.6,3L211.8,30.6z M200.6,18.6c3.5-0.2,5.5-0.3,6.2-0.3c0.6,0,0.9,0.3,0.9,1v0.1
		c-0.3,0.8-0.9,1.5-1.8,2.1C204.7,20.6,203,19.6,200.6,18.6z"/>
	<path class="st0" d="M230.7,23.4c-0.4-0.1-0.9-0.2-1.7-0.2c-1.1,0-2.7,0.1-4.9,0.4l-0.9,0.1l0,0.9c0,1.4,0,2.4,0,2.9v1h1
		c2.2,0,4.5-0.1,6.7-0.4l0.7-0.1l0.2-0.6c0.1-0.5,0.2-1.1,0.1-1.8C231.9,24.1,231.3,23.6,230.7,23.4z M230.9,27.1
		c-2.2,0.3-4.4,0.4-6.6,0.4c0-0.5,0-1.5,0-2.9c3.5-0.4,5.5-0.4,6.2-0.2c0.3,0.1,0.5,0.5,0.5,1.3C231,26.2,231,26.7,230.9,27.1z"/>
	<path class="st0" d="M233.1,20.1c-3.4,0-7.8,0.2-13.2,0.7c0,2.6,0.1,5.4,0.1,8.3l0,2.8c5.6-0.1,10.7-0.3,15.3-0.5
		c0.2-2.9,0.3-5.1,0.3-6.5C235.5,21.9,234.7,20.3,233.1,20.1z M234.2,30.5c-4.1,0.1-8.5,0.3-13.3,0.4l0-1.8c0-2.6,0-5.1-0.1-7.4
		c4.9-0.4,9-0.6,12.2-0.6c1.2,0.1,1.4,2.2,1.4,3.9C234.5,26.2,234.4,28,234.2,30.5z"/>
	<path class="st0" d="M235.5,16.2c1.8-0.1,3.7-0.2,5.9-0.4c-0.1,3.9-0.2,9.3-0.3,16l5.9,0.1V22c0-2.1,0-4.2,0-6.3
		c2.9-0.2,4.8-0.4,5.6-0.5l-0.2-5.5c-1.8,0.1-3.6,0.2-5.4,0.4c0-2.9-0.1-6.1-0.1-9.6l-5.6,0.1c0.1,2.8,0.1,6,0.1,9.8
		c-2,0.2-4,0.3-6,0.3L235.5,16.2z M241.5,11.2l0.9-0.1v-0.9c0-3.3,0-6.3-0.1-8.8l3.6,0c0.1,3.1,0.1,6,0.1,8.6l0,1.1l1.1-0.1
		c1.4-0.1,2.9-0.2,4.3-0.3l0.1,3.6c-1,0.1-2.5,0.2-4.6,0.4l-0.9,0.1v16.1l-3.9-0.1c0.1-6.3,0.2-11.3,0.2-15l0-1.1l-1.1,0.1
		c-1.8,0.2-3.4,0.3-4.9,0.4l0-3.6C238.1,11.5,239.8,11.4,241.5,11.2z"/>
	<path class="st0" d="M234.5,14.2c-1.8,0.1-4.1,0.2-7,0.4c-2.9,0.1-5.5,0.3-7.7,0.3l0,4.2c6.7-0.2,11.7-0.5,14.9-0.6l-0.1-2.6
		L234.5,14.2z M220.8,18l0-2.2c2-0.1,4.3-0.2,6.8-0.3c2.4-0.1,4.4-0.2,6-0.3l0,0.6l0.1,1.6C230.7,17.7,226.3,17.8,220.8,18z"/>
	<path class="st0" d="M227.4,8.7c-2.9,0.1-5.5,0.3-7.8,0.4l0.1,4.2c6.7-0.3,11.7-0.5,14.9-0.7l-0.2-4.2
		C232.6,8.5,230.3,8.6,227.4,8.7z M220.7,12.2l-0.1-2.2c2-0.1,4.3-0.2,6.8-0.3c2.3-0.1,4.3-0.2,6-0.2l0.1,2.2
		C230.6,11.8,226.3,12,220.7,12.2z"/>
	<path class="st0" d="M233.9,6.7c0.6,0,1.2-0.1,1.8-0.2l-0.2-4.2c-1.7,0.1-3.7,0.2-6.1,0.4c-0.2-1.1-0.6-1.9-0.9-2.5L223.9,1
		c0.3,0.8,0.6,1.4,0.6,1.9c-2.2,0.1-4.2,0.2-6,0.3l0.1,4.2c6.6-0.3,10.7-0.5,12.2-0.5C232.2,6.7,233.3,6.7,233.9,6.7z M219.6,6.3
		l0-2.2c1.6-0.1,3.3-0.1,5-0.2l1.1-0.1l-0.2-1.1c0-0.3-0.1-0.6-0.2-1l2.6-0.5c0.2,0.4,0.3,1,0.5,1.6l0.2,0.8l0.9-0.1
		c1.9-0.2,3.6-0.3,5.1-0.4l0.1,2.3c-0.3,0-0.5,0-0.8,0.1c-0.6,0-1.7,0.1-3.2,0.1C229.3,5.9,225.6,6,219.6,6.3z"/>
	<path class="st0" d="M260.5,13.6c4.3-1.2,8.3-2.1,12.2-2.6c1.5,3.5,3.3,6.8,5.5,10.1l5.4-2.7c-1.9-2.8-3.4-5.4-4.6-7.9
		c2.5-0.1,5.2-0.1,7.9,0l0.2-5.8c-3.5-0.2-6.9-0.2-10.3,0c-0.4-1.4-0.9-2.9-1.3-4.6l-6.1,0.7c0.4,1.6,0.9,3.2,1.3,4.6
		c-3.6,0.5-7.5,1.3-11.7,2.4L260.5,13.6z M271.6,5c-0.3-1.1-0.7-2.2-1-3.4l4.1-0.5c0.4,1.4,0.8,2.7,1.1,3.8l0.2,0.7l0.8-0.1
		c1.7-0.1,3.4-0.2,5.1-0.2c1.4,0,2.8,0,4.2,0.1l-0.1,3.8c-1.2,0-2.4-0.1-3.5-0.1c-1.2,0-2.3,0-3.5,0.1l-1.5,0.1l0.6,1.4
		c1,2.2,2.4,4.6,4,7.1l-3.6,1.8c-1.9-2.9-3.6-6-4.9-9.2l-0.3-0.7l-0.8,0.1c-3.6,0.5-7.4,1.3-11.4,2.4l-1-3.9c3.7-1,7.3-1.7,10.6-2.2
		l1.2-0.2L271.6,5z"/>
	<path class="st0" d="M277.7,26c-3.2-0.6-5.8-1.6-7.8-2.9c-2-1.3-3.7-3.2-5.3-5.7l-4.9,3.6c3.1,6,8.3,9.5,15.6,10.6L277.7,26z
		 M261,21.3l3.3-2.5c1.4,2.2,3.1,3.8,5,5.1c1.8,1.2,4.2,2.1,6.9,2.8l-1.6,3.8C268.4,29.4,263.9,26.4,261,21.3z"/>
	<path class="st0" d="M321.3,23.4c-0.2-0.2-0.4-0.8-0.4-1.6c0-0.8,0.1-2.5,0.4-4.9c0.2-2.4,0.4-4.1,0.4-4.9c0-2.1-0.5-3.7-1.4-4.8
		c-1-1.1-2.3-1.7-4.1-1.7c-1.3,0-2.8,0.3-4.5,0.9c-1.7,0.6-3.3,1.5-4.8,2.6c0.2-2.7,0.4-5.3,0.7-7.7l-6-0.3
		c-0.2,1.8-0.4,3.6-0.6,5.5c-1.6-0.6-3.2-1.2-4.8-1.6l-1.7,5.6c1.3,0.4,3.3,1.1,6.1,2.2c0,0.3,0,0.7,0,1c-2.4,3.5-4.6,6.9-6.7,10.2
		l4.3,3.7c0.7-1.4,1.4-2.7,2.2-4c0,2.5,0.1,4.9,0.2,7.1l6-0.3c-0.3-3.8-0.3-8.5-0.1-14.1c1.6-1.4,3.2-2.6,4.8-3.6
		c1.6-1,2.9-1.4,3.8-1.4c0.3,0,0.6,0.1,0.7,0.3c0.1,0.2,0.2,0.7,0.2,1.5c0,0.8-0.1,2.4-0.4,4.9c-0.2,2.5-0.4,4.2-0.4,5
		c0,2.1,0.6,3.7,1.7,4.7c1.1,1,2.9,1.5,5.3,1.5c0.9,0,1.9-0.1,3-0.3l0.4-5.7c-0.9,0.3-1.8,0.4-2.7,0.4S321.5,23.6,321.3,23.4z
		 M324.5,24.6l-0.3,3.6c-0.7,0.1-1.4,0.2-2.1,0.2c-2.1,0-3.7-0.4-4.6-1.3c-0.9-0.8-1.3-2.2-1.3-4c0-0.8,0.1-2.5,0.4-4.9
		c0.3-2.5,0.4-4.2,0.4-5c0-1-0.1-1.6-0.4-2c-0.2-0.3-0.6-0.8-1.6-0.8c-1.1,0-2.5,0.5-4.3,1.6c-1.7,1-3.3,2.2-5,3.7l-0.3,0.3l0,0.4
		c-0.2,5.1-0.1,9.5,0.1,13.2l-4,0.2c-0.1-1.9-0.2-3.9-0.2-6v-3.8l-1.9,3.3c-0.5,1-1.1,2-1.6,3l-2.7-2.3c1.9-3.1,4-6.3,6.2-9.5
		l0.2-0.3v-0.3c0-0.3,0-0.6,0-1l0.1-0.7l-0.7-0.3c-2.2-0.9-4-1.5-5.2-1.9l1.2-3.8c1.2,0.4,2.5,0.8,3.8,1.3l1.2,0.5l0.1-1.3
		c0.1-1.5,0.3-3,0.4-4.5l4,0.2c-0.2,2.1-0.5,4.4-0.6,6.7l-0.2,2.1l1.7-1.3c1.4-1,3-1.9,4.6-2.5c1.6-0.6,3-0.9,4.2-0.9
		c1.5,0,2.6,0.4,3.3,1.3c0.8,0.9,1.2,2.3,1.2,4.1c0,0.8-0.1,2.4-0.3,4.8c-0.2,2.5-0.4,4.1-0.4,5c0,1.2,0.2,1.9,0.7,2.3
		c0.5,0.4,1.2,0.6,2.3,0.6C323.5,24.7,324,24.7,324.5,24.6z"/>
	<path class="st0" d="M358.2,24.6c-2.6,0-4.8-0.2-6.7-0.6c-1.9-0.4-3.9-1.2-6.2-2.2l-2.2,5.3c2.1,1.2,4.3,2,6.5,2.5
		c2.2,0.5,4.8,0.8,7.7,0.8c0.6,0,1.3,0,2,0l0.2-5.7C359,24.6,358.6,24.6,358.2,24.6z M358.4,29.3c-0.4,0-0.7,0-1,0
		c-2.8,0-5.3-0.3-7.5-0.8c-1.9-0.4-3.7-1.1-5.5-2l1.4-3.5c2,0.9,3.8,1.5,5.5,1.9c1.9,0.4,4.3,0.7,6.9,0.7h0.3L358.4,29.3z"/>
	<path class="st0" d="M349.8,9.6l0.1-5.5c-1.2,0-2.3,0-3.3,0c-0.8,0-1.5,0-2.2,0c0.3-1.1,0.6-2,0.9-2.8l-6-0.9
		c-0.4,1.1-0.8,2.5-1.3,4.2c-2,0.2-4.3,0.7-6.9,1.3l0.8,5.7c1.6-0.4,3-0.7,4.4-0.9c-2,7-3.5,13.2-4.7,18.8l6.3,1.1
		c1.3-6.6,3-13.5,5-20.7c1.5-0.1,3-0.1,4.6-0.1C348.1,9.6,348.9,9.6,349.8,9.6z M342.6,8.8l-0.7,0l-0.2,0.7
		c-1.9,6.9-3.5,13.5-4.8,19.8l-4.4-0.7c1.2-5.2,2.7-11.2,4.5-17.7l0.4-1.5l-1.5,0.3c-1.1,0.2-2.2,0.4-3.4,0.7l-0.5-3.7
		c2.2-0.5,4.2-0.8,5.9-1l0.6-0.1l0.2-0.6c0.4-1.3,0.8-2.4,1.1-3.3l4,0.6c-0.2,0.5-0.3,1.1-0.5,1.7L343,5.1l1.4-0.1
		c0.7,0,1.4,0,2.2,0c0.7,0,1.5,0,2.3,0l-0.1,3.5h-1.5C345.7,8.6,344.1,8.7,342.6,8.8z"/>
	<path class="st0" d="M346.3,16.5c3-0.5,6-0.8,9-0.8c1.3,0,2.6,0,3.9,0.1l0.2-5.5c-1.4-0.1-2.9-0.2-4.3-0.2c-3.3,0-6.5,0.3-9.5,0.9
		L346.3,16.5z M355.1,11.2c1.1,0,2.2,0,3.3,0.1l-0.1,3.5c-1-0.1-2-0.1-3-0.1c-2.7,0-5.5,0.2-8.2,0.6l-0.5-3.4
		C349.3,11.5,352.2,11.2,355.1,11.2z"/>
</g>
</svg>
