<?xml version="1.0" encoding="utf-8"?>
<!-- Generator: Adobe Illustrator 27.9.1, SVG Export Plug-In . SVG Version: 6.00 Build 0)  -->
<svg version="1.1" id="Layer_1" xmlns:inkscape="http://www.inkscape.org/namespaces/inkscape"
	 xmlns="http://www.w3.org/2000/svg" xmlns:xlink="http://www.w3.org/1999/xlink" x="0px" y="0px" viewBox="0 0 108 32"
	 style="enable-background:new 0 0 108 32;" xml:space="preserve">
<style type="text/css">
	.st0{fill:#070707;}
</style>
<g>
	<path class="st0" d="M29.5,20.6l0.8-0.1l0.2-3.1l-1.1,0c-1.2,0.1-2.2,0.1-3.1,0.2l-0.9,0.1v3.4l1.1-0.1
		C27.5,20.9,28.5,20.7,29.5,20.6z M26.3,18.6c0.9-0.1,1.9-0.1,3.1-0.2l-0.1,1.2c-0.9,0.1-1.9,0.2-3,0.3V18.6z"/>
	<path class="st0" d="M30.5,14.4c-0.1-1.3-0.5-2.1-1.3-2.3c-0.3-0.1-0.9-0.2-2.8-0.2h-1v3.7l5.2-0.3L30.5,14.4z M26.3,14.7V13
		c1.4,0,2.2,0,2.5,0.1c0.3,0.1,0.5,0.5,0.6,1.4L26.3,14.7z"/>
	<path class="st0" d="M18.2,13.4c0,0.5,0,1.1,0,1.6l0,1l5-0.2v-3.6l-5.1,0.4V13.4z M22.3,13.2v1.6l-3,0.1c0-0.5,0-1,0-1.5L22.3,13.2
		z"/>
	<path class="st0" d="M18.2,21.2l5-0.1v-3.4l-5,0.2V21.2z M19.2,18.9l3-0.1v1.4l-3,0V18.9z"/>
	<path class="st0" d="M4.5,12.6v0.9h1.6v1.8l-4.9,0.2l0,4.3c1.3,0,2.9,0,4.8-0.1v5c-0.3-1.2-0.7-2.5-1.3-4l-3.4,1.2
		c0.5,1.6,1,3.2,1.3,4.8L6.1,25v1.4c-1.9,0.2-3.8,0.4-5.8,0.6l0.8,4.5c2.7-0.3,5.1-0.5,7.1-0.7c1.8-0.2,3.9-0.6,6.2-1.1l2.1,2.1
		c2.4-1.6,4.2-3.9,5.3-7l0.4,0L22,31.2l4.3,0.4l0-7l0.2-0.1c1.4,2.7,2.6,5.1,3.8,7.3l3.8-2.3c-1-2-2.1-3.7-3.3-5.1l2.2-0.1
		c0.2-3.2,0.3-7,0.3-11.5c0-2.7-0.8-4.1-2.5-4.3c-1.5,0-3,0-4.6,0.1V7.2C30.9,7,33.5,7,34.1,6.9L33.8,2c-2.7,0.1-5.2,0.2-7.5,0.3
		c-0.1-0.8-0.1-1.5-0.1-2.1l-4,0.2l0.1,2c-2.2,0.1-4.6,0.3-7.3,0.4l0.1,3.6c-1.6-1.6-3.2-3.1-4.8-4.6l0.3-0.9L6.5,0.2
		C5.8,2.4,5,4.3,4,5.9s-2.4,3.2-4,4.9l3.4,3.1C3.9,13.4,4.3,12.9,4.5,12.6z M3.4,25.1c-0.2-0.9-0.5-1.8-0.7-2.7l1.5-0.5
		c0.3,0.9,0.6,1.7,0.8,2.5L3.4,25.1z M14.1,28.8c-2.2,0.5-4.2,0.8-5.9,1C6.4,30,4.3,30.2,2,30.5l-0.5-2.5c1.6-0.1,3.2-0.3,4.7-0.5
		l0.9-0.1v-8.7l-1,0c-1.5,0.1-2.7,0.1-3.8,0.1l0-2.3l4.9-0.2v-3.7H5.5v-2.2l1.4-0.1c1.5-0.1,3-0.1,4.5-0.2l0.7,0l0.1,2.3l-3,0.1v3.8
		l4.3-0.2l0.1,2.4c-0.8,0-1.9,0.1-3.4,0.1l-1,0v6.7l2,0.2c0.4-1.6,0.7-3,0.8-4l1.6,0.4c-0.2,0.9-0.4,1.8-0.7,2.9l-0.4,1.6l1.7-0.4
		L14.1,28.8z M6.9,9.2c0.4-0.6,0.8-1.3,1.1-2L8.6,6c0.9,1,1.9,2,2.8,3C9.9,9.1,8.3,9.2,6.9,9.2z M14,25c0.4-1.6,0.7-2.9,0.9-4
		l-3.7-0.9c0,1-0.3,2.7-0.9,5v-5.7c2.3-0.1,3.8-0.1,4.5-0.2l-0.2-4.4l-4.3,0.2v-1.7l3-0.1l-0.1-2.1l0.9,1l1.4-1.7
		c0,3,0.1,6.8,0.1,11.3l0,3.3l1.6-0.1c-0.4,0.8-1.1,1.5-1.9,2.2l0.1-2.4L14,25z M16.3,7.8c1.9-0.1,3.9-0.2,5.9-0.4v1.5
		C20.5,9,18.6,9,16.7,9l0.4-0.5L16.3,7.8z M22.3,3.4l1-0.1l-0.1-2l2-0.1c0,0.4,0,0.7,0.1,1.2l0.1,1l1-0.1c2-0.1,4.2-0.2,6.5-0.3
		L33.1,6c-1.2,0-3.5,0.1-6.8,0.2l-1,0v3.6l1.1-0.1c1.5-0.1,3-0.1,4.4-0.1c0.5,0.1,1.5,0.3,1.5,3.3c0,4-0.1,7.5-0.3,10.5l-3.3,0.1
		l1.3,1.6c1,1.2,1.9,2.5,2.7,4.1l-2.1,1.3c-1-1.9-2.1-4.1-3.3-6.4L27,23.2L25.4,24l0,6.5l-2.3-0.2l0.1-6.6l-2.1,0.2l-0.2,0.6
		c-0.9,2.6-2.3,4.6-4.2,6l-1.8-1.8l1-0.8c0.9-0.8,1.6-1.6,2.1-2.5l0.9-1.6L16.5,24l0-2.2c0-4.5,0-8.3-0.1-11.3l0-0.4l0.2,0
		c1.9,0,3.8-0.1,5.6-0.1l1,0V6.3l-1.1,0.1c-2,0.2-4,0.3-5.9,0.4l-0.2,0L16,3.8C18.3,3.7,20.4,3.6,22.3,3.4z M1.4,10.7
		c1.3-1.5,2.5-2.9,3.4-4.3C5.8,5,6.5,3.3,7.2,1.4l2.1,0.4L9.2,2.2l0.4,0.4c1.6,1.5,3.2,3,4.8,4.6l0.5,0.5l0.9,0.9L14.5,10h0L14,10.6
		L13.4,10l0.1,0l-1.4-1.6c-0.9-1.1-1.9-2.1-2.8-3.1l-1-1L7.1,6.8C6.8,7.5,6.4,8.1,6,8.7l-1,1.6L3.7,12c-0.1,0.1-0.3,0.3-0.4,0.5
		L1.4,10.7z"/>
	<path class="st0" d="M71.2,10.9c-4.4-3.2-9.3-6.1-14.8-8.8c0.4-0.4,0.6-0.9,0.8-1.3l-5-0.9c-2.5,4.1-7.5,7.9-14.7,11.4l3.1,4
		c1.6-0.7,3.1-1.5,4.3-2.3v1.3l6.5-0.3l0,2.3c-4.5,0.2-8.2,0.3-11.3,0.4l0.1,4.7l11.2-0.3c0,1.8-0.1,3.6-0.1,5.3l-3,0.1
		c-0.5-1.7-1.1-3.2-1.7-4.5l-4.6,1.3c0.6,1,1.1,2.1,1.4,3.3l-5.5,0.1l0.2,5c3.8-0.1,9.4-0.2,17-0.4c9-0.3,14.3-0.4,16.1-0.5
		l-0.4-5.1L65,26.2c0.3-1.1,0.5-2.3,0.6-3.6l-4.5-0.7c-0.1,1.3-0.4,2.8-1.1,4.5l-3.3,0.1v-1.9l0-3.5c6.4-0.2,10.2-0.3,11.5-0.3
		l-0.4-4.8c-2.8,0.1-6.5,0.2-11.1,0.4l-0.1-2.5l6.1-0.3l-0.1-1.8c1.9,1.3,3.5,2.3,4.8,3.1L71.2,10.9z M63.2,10.9l-1.6-1.1l0.1,0
		L59,8.2c-1.4-0.9-3.1-1.9-5-2.9L53.4,5l-0.5,0.5c-1.2,1.1-2.3,2.2-3.5,3.2l-2.3,1.9l14.5-0.7l0.1,2.7l-6.1,0.3l0.1,4.5l1,0
		c4.1-0.2,7.5-0.3,10.1-0.4l0.2,2.8c-1.8,0.1-5.3,0.2-10.4,0.3l-1,0l0,4.4v3l5-0.2l0.2-0.6c0.5-1.3,0.9-2.5,1-3.7l2.5,0.4
		c-0.1,0.9-0.3,1.7-0.5,2.5l-0.3,1.3l6.1-0.1l0.3,3.1c-2.4,0.1-7.5,0.2-15.1,0.5c-7,0.2-12.3,0.3-16,0.4l-0.1-3l5.8-0.1l-0.4-1.3
		c-0.3-0.8-0.6-1.7-0.9-2.4l2.6-0.7c0.5,1,0.9,2.2,1.3,3.5l0.2,0.8l4.7-0.2l0-0.9c0.1-1.8,0.1-3.6,0.1-5.4l0-1l-11.2,0.3l-0.1-2.7
		c2.8-0.1,6.3-0.2,10.3-0.3l1,0l-0.1-4.3l-6.4,0.3v-2l-1.5,0.9c-1,0.6-2.2,1.3-3.5,1.9L39,11.8c6.5-3.3,11.1-6.9,13.7-10.7l2.9,0.5
		l-0.8,0.9L56,3.1c5,2.4,9.6,5.1,13.7,8l-2.5,2.5C66.1,12.9,64.7,12,63.2,10.9z M58.4,9L50,9.4c1.2-1,2.4-2.1,3.6-3.2
		C55.4,7.2,57.1,8.1,58.4,9z"/>
	<path class="st0" d="M93.3,31.8v-4.7c0-2.1,0-4.5,0-7.2c1,1.3,1.7,2.6,2.3,3.7l3.3-3.9c-1.9-2.4-3.8-4.3-5.7-5.6v-1
		c2.1,0,3.6-0.1,4.5-0.1l0-5.8c-0.9,0-2.4,0-4.5,0.1c0-1.2,0-2.4,0-3.6c0.9,1,1.6,1.9,2,2.8l3.2-2.3l0,2.3c1.2,0,2.9-0.1,4.9-0.2
		c2-0.1,3.4-0.2,4.2-0.2l-0.3-5.8c-0.5,0-1.8,0.1-3.8,0.2c-2,0.1-3.3,0.2-4,0.2h-1.1l0.1,3.1c-0.7-1.2-1.6-2.3-2.7-3.3l-2.6,1.6
		c0-0.7,0-1.4,0-2.2l-4.9,0.3c0,2.6,0,5,0,7.1c-0.9,0-1.7,0-2.4,0h-1.6l0.1,3.9l-3.5-1.3c-1.9,3.5-4,6-6.1,7.5l1.6,4.9
		c0.3-0.2,0.6-0.5,0.9-0.9c0,3.9-0.2,7.2-0.3,10l5.8,0.2l0-4.7c0-3.8,0-7.5-0.1-10.9c0.9-1,1.6-2,2-3c1,0,2.1,0,3.5-0.1
		c-1.6,3.2-3.3,5.7-5.3,7.3l2.8,5.2c0.8-0.8,1.6-1.9,2.5-3.2c0,3.7-0.1,6.7-0.3,9.1L93.3,31.8z M99.3,1.7c0.7,0,2.1-0.1,4.1-0.2
		c1.3-0.1,2.2-0.1,2.7-0.2l0.2,3.8c-0.8,0-1.8,0.1-3.2,0.1c-1.5,0.1-2.8,0.1-3.9,0.1l-0.1-2.2l0-1l0,0L99.3,1.7L99.3,1.7z M95.5,1.8
		c0.6,0.6,1.1,1.3,1.6,2L95.4,5c-0.4-0.7-1-1.4-1.6-2L95.5,1.8z M83.7,12.8c-0.4,0.9-1.1,1.8-1.9,2.7l-0.3,0.3l0,0.4
		c0.1,3.4,0.1,7.1,0.1,10.9l0,3.6L78,30.6c0.1-2.6,0.2-5.6,0.3-9l0-3.4l-1.6,2.4L75.9,18c1.9-1.5,3.7-3.7,5.4-6.7l2.7,1L83.7,12.8z
		 M92,1.1C92,1.1,92,1.1,92,1.1L92,1.1L92,1.1z M87.3,21.8c-0.5,0.8-1,1.4-1.4,2l-1.8-3.2c1.8-1.7,3.5-4.1,4.9-7.1l0.7-1.5
		c0,0-3.6,0.1-4.4,0.1l-0.1-3.7h0.5c0.7,0,1.5,0,2.4,0l1,0l0-1c0-1.8,0-3.9,0-6.1L92,1.1l0.1,2.5c0,1.2,0,2.4,0,3.5v1l1,0
		C94.6,8.1,95.7,8,96.6,8l0,3.8c-0.8,0-2,0.1-3.5,0.1l-1,0v2.5l0.4,0.3c1.6,1.2,3.3,2.8,5,4.8l-1.9,2.2c-0.5-0.8-1-1.6-1.7-2.5
		l-1.8-2.5l0,3.1c0,2.7,0,5.1,0,7.2v3.6l-3.4-0.2c0.1-2.2,0.2-4.9,0.2-8.1l0-3.5L87.3,21.8z"/>
	<path class="st0" d="M74.3,7.2l2,5.2c3.7-2.5,6.3-5.9,7.9-10.1l-4.4-2C78.8,2.9,77,5.2,74.3,7.2z M82.9,2.8c-1.3,3.2-3.4,5.9-6.1,8
		l-1.2-3.2c2.1-1.8,3.7-3.8,4.7-6L82.9,2.8z"/>
	<path class="st0" d="M107.7,10.2c-1,0-2.5,0.1-4.5,0.2c-2,0.1-3.5,0.2-4.5,0.2h-0.5l0,5.4l2.7-0.2l0,8.8c0,0.9-0.3,1.4-0.7,1.4
		c-0.7,0-1.4-0.3-1.9-0.8l0.3,5.9c1,0.8,2.4,1.1,3.9,1h0.1c2.2,0,3.3-1.3,3.3-3.8V15.7c1,0,1.7-0.1,2-0.2L107.7,10.2z M105.9,14.7
		l-1,0v13.3c0,2.4-1.1,2.8-2.3,2.8h-0.1c-0.3,0-0.5,0-0.6,0c-0.9,0-1.7-0.2-2.3-0.5l-0.2-3.6c0.3,0.1,0.5,0.1,0.8,0.1
		c0.5,0,1.7-0.2,1.7-2.3l0-9.9l-2.7,0.2l0-3.3c1,0,2.3-0.1,4-0.2c1.4-0.1,2.6-0.1,3.5-0.2l0.2,3.4C106.7,14.7,106.3,14.7,105.9,14.7
		z"/>
</g>
</svg>
