<?xml version="1.0" encoding="utf-8"?>
<!-- Generator: Adobe Illustrator 27.9.1, SVG Export Plug-In . SVG Version: 6.00 Build 0)  -->
<svg version="1.1" id="Layer_1" xmlns="http://www.w3.org/2000/svg" xmlns:xlink="http://www.w3.org/1999/xlink" x="0px" y="0px"
	 viewBox="0 0 177 35.6" style="enable-background:new 0 0 177 35.6;" xml:space="preserve">
<style type="text/css">
	.st0{fill:#282828;}
</style>
<g>
	<path class="st0" d="M125.6,24.5c-0.6-0.7-1.2-1.3-1.8-1.9l-3,1.9c0.6,0.6,1.2,1.3,1.7,2c0.6,0.7,1.1,1.4,1.6,2.1
		c0.5,0.7,0.9,1.4,1.1,1.9l3.2-2.1c-0.3-0.6-0.7-1.2-1.2-1.9C126.7,25.9,126.2,25.2,125.6,24.5z M125.6,29.1
		c-0.2-0.3-0.4-0.7-0.7-1.1c-0.5-0.7-1-1.5-1.6-2.2c-0.3-0.4-0.6-0.8-1-1.1l1.3-0.8c0.4,0.4,0.8,0.8,1.2,1.3c0.6,0.7,1.1,1.4,1.6,2
		c0.3,0.3,0.5,0.6,0.7,0.9L125.6,29.1z"/>
	<path class="st0" d="M3.7,31.9c1.2,0.6,2.6,1.1,4.1,1.4c1.6,0.3,3.3,0.4,5.1,0.4c1.6,0,3.2,0,4.6-0.1c1.4-0.1,2.8-0.2,4.1-0.3
		c1.3-0.1,2.4-0.3,3.5-0.5l0-4.9c-1.1,0.3-2.3,0.5-3.7,0.7c-1.4,0.2-2.9,0.4-4.4,0.5c-1.5,0.1-2.9,0.2-4.3,0.2
		c-2.7,0-4.8-0.4-6.2-1.2c-1.4-0.8-2.1-1.9-2.1-3.3c0-1.4,0.5-2.6,1.5-3.8c1-1.2,2.3-2.3,3.9-3.3c0.9-0.6,1.8-1.2,2.8-1.7
		c1-0.6,2-1.1,3-1.6c1-0.5,1.9-1,2.8-1.4c0.9-0.4,1.6-0.8,2.2-1.1c0.7-0.3,1.3-0.7,1.9-1c0.6-0.3,1.1-0.6,1.7-1L22.1,6
		c-0.5,0.4-1,0.7-1.5,1.1c-0.5,0.3-1.1,0.7-1.8,1.1c-0.6,0.3-1.3,0.7-2.2,1.2c-0.9,0.5-1.8,1-2.8,1.5c-1,0.5-2,1.1-3.1,1.7
		c-0.2,0.1-0.4,0.2-0.6,0.3c-0.3-0.5-0.5-1-0.8-1.6C8.7,9.9,8,8.5,7.3,7c-0.7-1.5-1.3-3.2-2-4.8L1,3.9c0.7,1.6,1.4,3.2,2.1,4.8
		c0.7,1.6,1.4,3.1,2.2,4.6c0.4,0.7,0.7,1.4,1.1,2.1c-0.9,0.7-1.8,1.4-2.6,2.1C2.6,18.6,1.7,19.8,1,21c-0.7,1.3-1,2.7-1,4.2
		c0,1.6,0.3,2.9,1,4C1.6,30.3,2.6,31.2,3.7,31.9z M1.9,21.5c0.6-1.2,1.5-2.3,2.6-3.3c0.7-0.7,1.6-1.4,2.5-2.1l0.7-0.5l-0.4-0.8
		c-0.3-0.6-0.7-1.3-1.1-2c-0.7-1.4-1.4-3-2.1-4.5C3.5,7,2.9,5.7,2.4,4.4l2.4-1c0.5,1.4,1.1,2.7,1.6,3.9c0.7,1.6,1.4,3,2.1,4.4
		c0.3,0.6,0.6,1.1,0.8,1.6l0.5,0.9c0,0,1.3-0.8,1.4-0.8c1-0.6,2.1-1.1,3-1.7c1-0.5,1.9-1,2.8-1.5C18,9.8,18.7,9.4,19.3,9L21.1,8
		c0.3-0.2,0.5-0.3,0.8-0.5l1.3,2.1c-0.3,0.1-0.5,0.3-0.8,0.4c-0.6,0.3-1.2,0.6-1.8,1c-0.6,0.3-1.3,0.7-2.2,1.1
		c-0.9,0.4-1.8,0.9-2.8,1.4s-2,1.1-3,1.6c-1,0.6-2,1.2-2.9,1.7c-1.7,1.1-3.1,2.3-4.1,3.5c-1.1,1.3-1.7,2.8-1.7,4.4
		c0,1.8,0.9,3.2,2.6,4.2c1.5,0.9,3.7,1.3,6.7,1.3c1.4,0,2.8-0.1,4.3-0.2c1.5-0.1,3-0.3,4.4-0.5c0.9-0.1,1.8-0.3,2.6-0.4l0,2.8
		c-0.8,0.1-1.7,0.2-2.6,0.3c-1.3,0.1-2.6,0.3-4,0.3c-1.4,0.1-3,0.1-4.6,0.1c-1.8,0-3.5-0.1-5-0.4C6.6,32,5.3,31.6,4.2,31
		c-1-0.6-1.8-1.3-2.4-2.2C1.3,27.8,1,26.6,1,25.3C1,23.9,1.3,22.6,1.9,21.5z"/>
	<path class="st0" d="M43.4,9.5c1.2-0.1,2.3-0.3,3.4-0.4c1.1-0.1,2-0.2,2.7-0.3c-0.9,0.7-1.9,1.6-2.8,2.8c-0.9,1.2-1.7,2.6-2.3,4.1
		c-0.6,1.6-0.9,3.3-0.9,5.2c0,1.7,0.3,3.2,0.9,4.5c0.6,1.3,1.3,2.5,2.3,3.5c1,1,2.1,1.9,3.4,2.6c1.3,0.7,2.7,1.2,4.2,1.6
		c1.5,0.4,3,0.6,4.6,0.7l1.6-4.6c-1.3-0.1-2.5-0.2-3.7-0.4c-1.2-0.2-2.4-0.6-3.4-1s-2-1-2.8-1.7c-0.8-0.7-1.4-1.5-1.9-2.5
		c-0.5-1-0.7-2.1-0.7-3.5c0-1.1,0.2-2.3,0.6-3.4c0.4-1.2,1-2.2,1.7-3.3c0.7-1,1.6-1.9,2.6-2.7c1-0.8,2.1-1.3,3.3-1.7
		c0.7-0.2,1.5-0.3,2.3-0.4c0.9-0.1,1.8-0.1,2.7-0.1c0.9,0,1.7,0,2.4,0V4c-0.9,0-1.9,0.1-3,0.2c-1.1,0.1-2.4,0.2-3.6,0.2
		c-1.3,0.1-2.6,0.2-4,0.3c-1.7,0.2-3.4,0.3-5.1,0.4c-1.6,0.1-3.2,0.3-4.6,0.4c-1.4,0.1-2.7,0.2-3.9,0.4C38,6,37.1,6.1,36.4,6.2
		c-0.4,0-0.9,0.1-1.5,0.1c-0.7,0-1.4,0.1-2.1,0.1l0.5,4.7c0.9-0.2,1.9-0.4,3-0.6c1.1-0.2,2.3-0.4,3.6-0.5S42.2,9.7,43.4,9.5z
		 M36,9.5c-0.7,0.1-1.3,0.2-1.9,0.3l-0.2-2.5c0.4,0,0.7,0,1.1-0.1c0.7,0,1.2-0.1,1.5-0.1c0.8-0.1,1.7-0.2,2.9-0.3
		c1.1-0.1,2.4-0.2,3.9-0.4c1.4-0.1,8-0.7,9.7-0.8c1.3-0.1,2.6-0.2,3.9-0.3l3.6-0.2c0.7,0,1.4-0.1,2-0.1v2.3c-0.4,0-0.9,0-1.4,0
		c-0.9,0-1.8,0.1-2.7,0.1c-0.9,0.1-1.8,0.2-2.5,0.4c-1.3,0.4-2.5,1-3.6,1.8c-1.1,0.8-2,1.8-2.8,2.9c-0.8,1.1-1.4,2.3-1.8,3.5
		c-0.4,1.3-0.7,2.5-0.7,3.8c0,1.5,0.3,2.8,0.8,3.9c0.5,1.1,1.2,2.1,2.1,2.9c0.9,0.8,1.9,1.4,3.1,1.9c1.1,0.5,2.3,0.8,3.6,1.1
		c0.8,0.2,1.7,0.3,2.5,0.3l-0.9,2.7c-1.2-0.1-2.4-0.3-3.6-0.6c-1.4-0.4-2.8-0.9-4-1.5c-1.2-0.6-2.3-1.4-3.2-2.4
		c-0.9-0.9-1.6-2-2.1-3.2c-0.5-1.2-0.8-2.6-0.8-4.1c0-1.7,0.3-3.4,0.9-4.8c0.6-1.5,1.3-2.8,2.2-3.9c0.9-1.1,1.7-2,2.6-2.6l-0.7-1.8
		c-0.8,0.1-1.7,0.2-2.7,0.3c-1.1,0.1-2.2,0.2-3.4,0.4c-1.2,0.1-2.4,0.3-3.7,0.4C38.3,9.1,37.1,9.3,36,9.5z"/>
	<path class="st0" d="M76.5,25.6c0,2.1,0.4,3.8,1.3,5.1c0.9,1.3,2,2.2,3.6,2.8c1.5,0.6,3.2,0.9,5.1,0.9c2.7,0,5-0.4,7-1.2
		c2-0.8,3.5-1.9,4.6-3.4c1.1-1.5,1.6-3.1,1.6-5c0-1.6-0.3-3.1-0.9-4.6c-0.6-1.4-1.6-2.9-2.9-4.4l-4.8,1c1.3,1.2,2.3,2.4,3,3.6
		c0.7,1.3,1,2.5,1,3.8c0,1.1-0.3,2.1-1,3c-0.7,0.9-1.6,1.6-2.9,2.1c-1.3,0.5-2.8,0.7-4.6,0.7c-2,0-3.4-0.4-4.4-1.3
		c-1-0.9-1.5-2.2-1.5-3.8c0-0.7,0-1.5,0.1-2.6c0-0.2,0-0.4,0-0.6c0.5,0,1,0,1.5,0c1.2,0,2.4,0,3.5-0.1c1.1-0.1,2.3-0.1,3.4-0.3
		l0.1-4.1c-1.3,0.2-2.6,0.3-3.9,0.3c-1.3,0.1-2.6,0.1-3.8,0.1c-0.1,0-0.3,0-0.4,0c0.1-1,0.2-2,0.4-3c0.1-0.9,0.2-1.8,0.3-2.6
		c1.6,0,2.9,0,4.1-0.1c1.2-0.1,2.3-0.2,3.5-0.3l0.1-4.1c-1,0.2-2.1,0.3-3.4,0.4c-1.2,0.1-2.4,0.1-3.7,0.1c0-0.3,0.1-0.5,0.1-0.8
		c0.1-1,0.3-1.8,0.4-2.4c0.1-0.5,0.2-1,0.2-1.5c0.1-0.5,0.2-1.1,0.4-1.7l-4.8-0.3c0.1,0.4,0.1,0.8,0.1,1.3c0,0.4,0,1.1-0.1,1.9
		c-0.1,0.9-0.2,2-0.3,3.3c-0.1,0-0.1,0-0.2,0C76.7,8,75.3,7.9,74,7.6c-1.3-0.2-2.6-0.5-3.7-0.9l-0.2,4c1.2,0.3,2.4,0.6,3.8,0.8
		c1.3,0.2,2.6,0.4,4,0.5c-0.1,0.4-0.1,0.8-0.2,1.3c-0.2,1.5-0.4,3-0.5,4.4c-1.2-0.1-2.4-0.2-3.6-0.5c-1.4-0.3-2.7-0.6-4.1-1
		l-0.2,4.1c1.7,0.5,3.7,0.9,6,1.1c0.5,0.1,1,0.1,1.5,0.1c0,0.3-0.1,0.6-0.1,0.9C76.5,23.7,76.5,24.8,76.5,25.6z M76.3,20.5
		c-0.3,0-0.6,0-0.9-0.1c-1.9-0.2-3.6-0.5-5.1-0.9l0.1-2c1,0.3,2,0.5,3,0.7c1.2,0.2,2.4,0.4,3.7,0.5l1,0.1l0.9-7.6L78,11
		c-1.3-0.1-2.6-0.3-3.9-0.5c-1-0.2-2-0.4-2.9-0.6L71.3,8c0.8,0.2,1.7,0.4,2.6,0.6C75.2,8.8,76.6,9,78,9.1l1.1,0.1l0.2-1
		C79.4,7,79.6,5.9,79.7,5c0.1-0.9,0.1-1.5,0.1-2c0-0.1,0-0.2,0-0.2l2.5,0.1c0,0.2-0.1,0.4-0.1,0.6C82.1,4,82,4.5,81.9,5
		c-0.1,0.6-0.2,1.4-0.4,2.4l-0.3,1.9l1.1,0c1.4,0,2.7-0.1,3.8-0.1c0.8-0.1,1.6-0.1,2.3-0.2l-0.1,2c-0.9,0.1-1.7,0.1-2.6,0.2
		c-1.1,0.1-2.5,0.1-4,0.1l-0.9,0c0,0-0.3,2.6-0.4,3.5c-0.1,1-0.5,4.1-0.5,4.1l1.5,0c1.2,0,2.5,0,3.9-0.1c1-0.1,1.9-0.1,2.8-0.2
		l-0.1,2c-0.8,0.1-1.6,0.1-2.5,0.2c-1.1,0-2.3,0.1-3.5,0.1c-0.3,0-0.6,0-0.9,0l-0.6,0l-0.9,0l-0.1,1.5c-0.1,1.1-0.1,2-0.1,2.6
		c0,1.9,0.6,3.5,1.8,4.5c1.2,1.1,2.9,1.6,5.1,1.6c1.9,0,3.6-0.3,5-0.8c1.4-0.6,2.6-1.4,3.3-2.4c0.8-1.1,1.2-2.3,1.2-3.6
		c0-1.4-0.4-2.9-1.1-4.3c-0.5-0.9-1.1-1.8-1.8-2.6l2.4-0.5c1,1.3,1.8,2.6,2.3,3.7c0.6,1.3,0.8,2.7,0.8,4.2c0,1.7-0.5,3.1-1.4,4.4
		c-1,1.3-2.4,2.3-4.2,3.1c-1.8,0.8-4.1,1.1-6.6,1.1c-1.8,0-3.4-0.3-4.7-0.8c-1.3-0.5-2.3-1.3-3.1-2.5c-0.7-1.1-1.1-2.6-1.1-4.5
		c0-0.8,0.1-1.8,0.2-3.1l0.2-1.9l-1-0.1L76.3,20.5z"/>
	<path class="st0" d="M115.7,35.5V21.4c1.2-0.4,2.3-0.7,3.5-1.1v2h13v8.5c0,0.3-0.1,0.4-0.2,0.5c-0.1,0.1-0.3,0.1-0.6,0.1
		c-0.3,0-0.9,0-1.8,0c-0.9,0-1.9,0-2.9-0.1c0.3,0.6,0.5,1.2,0.8,2c0.2,0.8,0.4,1.5,0.5,2.1c1.4,0,2.7,0,3.8-0.1
		c1.1-0.1,2-0.3,2.7-0.6c0.7-0.3,1.2-0.8,1.5-1.4c0.3-0.6,0.4-1.4,0.4-2.5v-8.5h4v-3.8h-4v-3.7h4.3V11h-8.9V7.3h7.2V3.6h-7.2V0h-4
		v3.6h-7v3.7h7V11h-8.6V7.4h-3.3V0.1H112v7.3h-2.1c0.2-1.6,0.4-3.2,0.6-4.8L107,2.1c-0.1,1.5-0.3,3-0.5,4.5c-0.2,1.5-0.5,3-0.7,4.3
		c-0.3,1.3-0.7,2.5-1.1,3.6c0.3,0.1,0.6,0.3,1,0.6c0.4,0.2,0.7,0.5,1.1,0.7c0.4,0.2,0.6,0.4,0.8,0.6c0.5-1.1,0.9-2.5,1.3-3.9
		c0.1-0.4,0.2-0.7,0.2-1.1h2.8v7.4c-0.9,0.3-1.8,0.5-2.7,0.7c-1.6,0.4-3,0.8-4.2,1.1l1,3.9c1.8-0.5,3.7-1.1,5.9-1.8v13H115.7z
		 M119.5,12h9.2V6.3h-7V4.6h7V1h2v3.6h7.2v1.7h-7.2V12h8.9v1.8h-4.3v5.7h4v1.8h-4v9.6c0,1.1-0.2,1.8-0.3,2.1c-0.2,0.4-0.5,0.6-1,0.9
		c-0.6,0.3-1.4,0.4-2.4,0.5c-0.8,0.1-1.8,0.1-2.8,0.1c-0.1-0.4-0.2-0.9-0.4-1.4c-0.1-0.2-0.1-0.5-0.2-0.7c0.5,0,0.9,0,1.4,0
		c0.3,0,0.6,0,0.8,0c0.5,0,0.9,0,1.1,0c0,0,0,0,0,0c0.3,0,0.7,0,1.1-0.3c0.3-0.2,0.6-0.6,0.6-1.3v-9.5h-13v-1.8h13v-5.7h-13.8V12z
		 M132.3,14.8v3.7h-12.5l-0.3-2.1c-1.3,0.3-2.5,0.7-3.8,1.1v-6.3h2.7v3.6H132.3z M111.7,21.6c-1.8,0.5-3.4,1-4.9,1.5l-0.5-1.9
		c1-0.2,2.1-0.5,3.2-0.8c0.9-0.2,1.8-0.5,2.7-0.7l0.7-0.2v-9.1h-4.6l-0.3,1.2c0,0.2-0.1,0.5-0.1,0.7c-0.2,0.9-0.5,1.8-0.8,2.6
		l-0.9-0.6c-0.1-0.1-0.2-0.1-0.3-0.2c0.3-0.9,0.6-1.9,0.8-2.9c0.3-1.4,0.5-2.8,0.8-4.4c0.2-1.2,0.3-2.3,0.4-3.5l1.4,0.2
		c-0.1,1.2-0.3,2.5-0.5,3.8l-0.2,1.2h4.3V1.1h1.8v7.3h3.3v1.9h-3.3v8.6c0,0,3.1-0.9,3.9-1.1l0.2,1.6c-0.9,0.3-1.8,0.6-2.8,0.9
		l-1.4,0.4v13.9H113V21.2L111.7,21.6z"/>
	<path class="st0" d="M163.9,26h4V4.7h-4V26z M164.9,5.7h2V25h-2V5.7z"/>
	<path class="st0" d="M166.8,32.7c0.2,0.5,0.4,1,0.5,1.5c0.2,0.5,0.3,1,0.3,1.3c1.7,0,3.2-0.1,4.5-0.2c1.2-0.1,2.2-0.3,2.9-0.6
		c0.7-0.3,1.2-0.8,1.5-1.5c0.3-0.6,0.4-1.6,0.4-2.8V0.8h-4v29.7c0,0.4-0.1,0.6-0.2,0.7c-0.2,0.1-0.4,0.2-0.8,0.2c-0.4,0-1.1,0-2.2,0
		c-1.1,0-2.3,0-3.6-0.1C166.4,31.7,166.6,32.2,166.8,32.7z M169.8,32.4c0.4,0,0.7,0,1,0c0.6,0,1,0,1.3,0c0,0,0,0,0,0
		c0.5,0,1-0.2,1.3-0.4c0.4-0.3,0.6-0.8,0.6-1.5V1.8h2v28.7c0,1.4-0.2,2.1-0.3,2.4c-0.2,0.4-0.5,0.7-1,1c-0.6,0.3-1.5,0.5-2.6,0.6
		c-1,0.1-2.2,0.1-3.6,0.1c-0.1-0.2-0.1-0.4-0.2-0.6c-0.2-0.5-0.3-1-0.5-1.5C168.5,32.4,169.1,32.4,169.8,32.4z"/>
	<path class="st0" d="M157.9,4.4H148v7.8h9.9V4.4z M156.9,11.2H149V5.4h7.9V11.2z"/>
	<path class="st0" d="M145.3,14.9h3.9c-0.1,1.3-0.2,2.7-0.3,4c-0.2,1.8-0.4,3.5-0.9,5.2c-0.4,1.7-1,3.3-1.8,4.7
		c-0.8,1.5-1.9,2.7-3.2,3.9c0.5,0.3,1,0.8,1.5,1.3c0.5,0.6,0.9,1.1,1.3,1.6c1.5-1.3,2.7-2.8,3.7-4.4c0.9-1.7,1.7-3.5,2.2-5.4
		c0.3-1.3,0.6-2.6,0.8-3.9h4.8c-0.1,1.6-0.1,2.9-0.2,4c-0.1,1.8-0.3,3.1-0.4,4c-0.2,0.9-0.4,1.5-0.6,1.7c-0.2,0.2-0.4,0.3-0.6,0.4
		c-0.2,0.1-0.4,0.1-0.7,0.1c-0.3,0-0.9,0-1.6,0c-0.7,0-1.5-0.1-2.3-0.1c0.3,0.5,0.6,1.1,0.7,1.7c0.2,0.7,0.3,1.3,0.3,1.8
		c0.9,0.1,1.8,0.1,2.6,0.1c0.8,0,1.5-0.1,2-0.1c0.6-0.1,1.1-0.2,1.6-0.4c0.4-0.2,0.8-0.5,1.2-1c0.4-0.4,0.6-1.2,0.9-2.2
		c0.2-1,0.4-2.5,0.6-4.4c0.2-1.9,0.3-4.4,0.4-7.5c0-0.2,0-0.4,0-0.6c0-0.2,0-0.6,0-0.9h-2h-1.8h-4.4c0.1-1.1,0.2-2.3,0.3-3.4h7.6
		v-13h-15.5V14.9z M146.3,2.8h13.5v11h-7.5l-0.1,0.9c-0.1,1.1-0.2,2.2-0.3,3.3l-0.1,1.1h8.3c0,0.2,0,0.3,0,0.4l0,0.1l0,0.1
		c-0.1,3-0.2,5.6-0.4,7.5c-0.2,1.9-0.3,3.3-0.6,4.3c-0.2,1.1-0.5,1.6-0.6,1.8c-0.3,0.4-0.5,0.6-0.8,0.7c-0.3,0.1-0.8,0.2-1.3,0.3
		c-0.5,0.1-1.1,0.1-1.9,0.1l-0.5,0c-0.4,0-0.8,0-1.2,0c-0.1-0.4-0.1-0.7-0.3-1.1c0-0.1-0.1-0.2-0.1-0.3c0.2,0,0.5,0,0.7,0
		c0.7,0,1.3,0,1.6,0c0.4,0,0.7,0,1-0.1c0.4-0.1,0.7-0.3,1-0.7c0.4-0.4,0.6-1.1,0.8-2.2c0.2-0.9,0.3-2.3,0.4-4.1
		c0.1-1.1,0.1-2.5,0.2-4.1l0-1h-6.7l-0.1,0.8c-0.2,1.5-0.5,2.7-0.8,3.8c-0.5,1.8-1.2,3.6-2.1,5.2c-0.7,1.3-1.6,2.4-2.7,3.4
		c-0.2-0.3-0.4-0.5-0.7-0.8c-0.2-0.2-0.5-0.5-0.7-0.7c1-1,1.9-2.1,2.6-3.3c0.8-1.5,1.5-3.2,1.9-5c0.4-1.7,0.7-3.5,0.9-5.3
		c0.1-1.4,0.2-2.7,0.3-4.1l0.1-1.1h-3.9V2.8z"/>
</g>
</svg>
