<?xml version="1.0" encoding="utf-8"?>
<!-- Generator: Adobe Illustrator 27.9.1, SVG Export Plug-In . SVG Version: 6.00 Build 0)  -->
<svg version="1.1" id="Layer_1" xmlns="http://www.w3.org/2000/svg" xmlns:xlink="http://www.w3.org/1999/xlink" x="0px" y="0px"
	 viewBox="0 0 73.6 36.1" style="enable-background:new 0 0 73.6 36.1;" xml:space="preserve">
<style type="text/css">
	.st0{fill:#282828;}
</style>
<g>
	<path class="st0" d="M1.3,33c0.3,0.3,0.7,0.6,1,1c0.4,0.4,0.8,0.8,1.1,1.2c0.4,0.4,0.6,0.7,0.8,1c2.4-1.1,4.6-2.5,6.8-4
		c1.2-0.9,2.4-1.8,3.5-2.9c1,0.8,2,1.6,2.9,2.3c1.2,1,2.2,2,3,2.9l3.2-3.1c-0.9-0.9-1.9-1.8-3.2-2.8c-1-0.8-2-1.5-3.1-2.3
		c1.7-1.9,3.1-3.9,4.3-6.1l-4-1.3c-1,1.9-2.2,3.6-3.6,5.2c-0.7-0.5-1.5-0.9-2.2-1.4c-1.5-0.9-3-1.8-4.4-2.5l-2.9,2.7
		C6,23.5,7.5,24.4,9,25.4c0.8,0.5,1.5,1,2.2,1.5c-1,0.9-2.2,1.8-3.3,2.6C5.8,30.8,3.6,32,1.3,33z M11.9,27.6l1-0.9L11.8,26
		c-0.7-0.5-1.5-1-2.2-1.5c-1.1-0.7-2.2-1.4-3.3-2l1.4-1.3c1.2,0.6,2.5,1.4,3.7,2.1c0.7,0.5,1.5,0.9,2.2,1.4l0.7,0.5l0.6-0.6
		c1.3-1.5,2.4-3.1,3.4-4.7l2,0.7c-1,1.7-2.2,3.4-3.6,4.9L16,26.4l0.9,0.6c1.2,0.8,2.2,1.6,3,2.2c0.9,0.7,1.7,1.4,2.4,2L20.5,33
		c-0.7-0.7-1.5-1.4-2.4-2.2c-0.8-0.7-1.8-1.5-3-2.4l-0.7-0.5l-0.6,0.6c-1.1,1-2.3,2-3.4,2.8c-1.9,1.4-3.9,2.6-5.9,3.6
		c-0.1-0.1-0.2-0.3-0.4-0.4c-0.4-0.4-0.7-0.8-1.1-1.2c1.9-0.9,3.7-1.9,5.4-3C9.6,29.5,10.8,28.6,11.9,27.6z"/>
	<path class="st0" d="M2.7,14.9c0.5,0.3,0.8,0.6,1.1,0.9c0.2-0.2,0.4-0.4,0.6-0.6v3.3h20.9c0,1.6,0.1,3.2,0.2,4.7
		c0.1,2.5,0.4,4.7,0.9,6.6c0.5,1.9,1.1,3.3,2,4.4c0.9,1.1,2.1,1.6,3.6,1.6c0.9,0,1.6-0.2,2.1-0.7c0.5-0.5,0.9-1.2,1.2-2.2
		c0.3-1,0.4-2.3,0.5-3.9c-0.4-0.3-0.9-0.7-1.4-1.2c-0.5-0.5-0.9-0.9-1.3-1.4c0,1.6-0.1,2.8-0.2,3.8c-0.1,1-0.3,1.4-0.7,1.5
		c-0.6,0-1.1-0.4-1.4-1.3c-0.4-0.8-0.7-2-0.9-3.6c-0.2-1.5-0.4-3.3-0.4-5.3c-0.1-2-0.1-4.2-0.1-6.5h-2.8h-1.4H4.5
		c1.6-1.6,3-3.4,4.3-5.7c0.4-0.7,0.8-1.3,1.1-2h24.4V3.9H11.4c0.4-1,0.7-1.9,1-3L8.2,0C7.4,2.7,6.3,5.1,4.9,7.5
		c-1.4,2.3-3,4.2-4.9,5.7c0.4,0.2,0.8,0.5,1.3,0.8C1.7,14.2,2.2,14.6,2.7,14.9z M5.3,16h23c0,2,0,3.9,0.1,5.6c0.1,2,0.2,3.8,0.4,5.4
		c0.2,1.6,0.5,2.9,1,3.8c0.7,1.5,1.7,1.9,2.4,1.9c1.4-0.1,1.6-1.8,1.7-2.3c0.1-0.4,0.1-0.9,0.1-1.5c0.3,0.2,0.5,0.4,0.7,0.6
		c-0.1,1.3-0.3,2.3-0.5,3.1c-0.2,0.8-0.5,1.4-0.8,1.7c-0.3,0.3-0.8,0.4-1.5,0.4c-1.2,0-2.2-0.4-2.8-1.2c-0.8-0.9-1.4-2.3-1.8-4
		c-0.4-1.8-0.7-4-0.9-6.4c-0.1-1.4-0.1-2.9-0.2-4.6l0-1H5.3V16z M5.8,8c1.3-2.1,2.3-4.4,3.1-6.8l2.3,0.5c-0.2,0.6-0.4,1.2-0.7,1.9
		L9.9,4.9h23.4v1.4h-24L9,6.9c-0.3,0.7-0.7,1.3-1.1,2c-1.2,2.1-2.6,3.9-4.1,5.5l-0.1,0.1c-0.1-0.1-0.3-0.2-0.4-0.3
		c-0.5-0.3-0.9-0.7-1.4-1c0,0-0.1,0-0.1-0.1C3.2,11.6,4.6,9.9,5.8,8z"/>
	<path class="st0" d="M8.7,12.8h22V9.5h-22V12.8z M9.7,10.5h20v1.3h-20V10.5z"/>
	<path class="st0" d="M66.5,9.9h-9.6v5.3h9.6V9.9z M65.5,14.2h-7.6v-3.3h7.6V14.2z"/>
	<path class="st0" d="M45.7,15.2h9.1V9.9h-9.1V15.2z M46.7,10.9h7.1v3.3h-7.1V10.9z"/>
	<path class="st0" d="M59.7,24.2c1.3,2.4,2.9,4.4,4.7,6.2c1.9,1.7,4.1,3.1,6.6,4.2c0.2-0.4,0.4-0.7,0.7-1.2c0.3-0.4,0.6-0.8,1-1.3
		c0.3-0.4,0.7-0.7,0.9-1c-2.4-0.8-4.5-2-6.3-3.5c-1.1-0.9-2.1-2-2.9-3.1c0.6-0.3,1.3-0.6,2-1c1.1-0.6,2.2-1.2,3.2-1.8
		c1.1-0.6,2.1-1.3,3-1.9l-3.3-2.4c-0.7,0.6-1.6,1.2-2.6,1.9c-1,0.7-2,1.4-3.1,2c-0.4,0.2-0.7,0.4-1.1,0.6c-0.9-1.5-1.6-3-2.2-4.7h9
		V7.9H60c0.4-0.5,0.7-0.9,1.1-1.4c0.6-0.8,1.1-1.6,1.5-2.3l-2.8-1.8l-0.6,0.2h-0.9h-6.3c0.4-0.6,0.9-1.1,1.3-1.7L49.1,0
		c-0.6,1-1.5,2.1-2.5,3.2s-2.2,2.2-3.5,3.2c-1.3,1.1-2.8,2-4.5,2.9c0.3,0.2,0.6,0.5,1,0.8c0.3,0.3,0.7,0.7,1,1
		c0.3,0.4,0.6,0.7,0.8,1c0.5-0.3,1-0.7,1.6-1v6h7.9c-1.8,0.7-3.6,1.3-5.6,1.9c-2,0.6-4,1-5.9,1.3c0.2,0.2,0.4,0.5,0.7,0.9
		c0.3,0.4,0.5,0.7,0.8,1.1c0.2,0.4,0.4,0.7,0.6,0.9c2-0.5,4-1.1,6.1-1.7c0.9-0.3,1.7-0.6,2.6-0.9c0.5,0.3,1.1,0.7,1.5,1
		c-0.7,0.4-1.4,0.7-2.2,1.1c-1.5,0.7-3.2,1.3-4.9,1.8c-1.7,0.5-3.4,0.9-5,1.2c0.4,0.4,0.7,0.8,1.2,1.3c0.4,0.5,0.8,1,1,1.4
		c1.6-0.4,3.4-0.9,5.1-1.6c1.8-0.7,3.4-1.4,5.1-2.3c0.7-0.4,1.3-0.7,1.9-1.1c0.4,0.4,0.7,0.8,1,1.3c-0.7,0.5-1.5,1.1-2.4,1.6
		c-1.3,0.8-2.7,1.5-4.2,2.1c-1.5,0.7-3.1,1.3-4.7,1.8c-1.6,0.5-3.2,1-4.7,1.3c0.4,0.4,0.8,0.8,1.3,1.4c0.5,0.6,0.8,1.1,1,1.5
		c1.5-0.4,3.1-1,4.7-1.6c1.6-0.6,3.2-1.3,4.7-2.1c1.5-0.8,3-1.6,4.4-2.5c0.4-0.3,0.8-0.5,1.2-0.8c0.2,0.8,0.3,1.5,0.2,2.2
		c-0.2,0.8-0.5,1.5-1.1,1.8c-0.3,0.3-0.7,0.5-1.1,0.5c-0.4,0.1-0.8,0.1-1.3,0.1c-0.5,0-1,0-1.6,0c-0.6,0-1.3-0.1-1.9-0.1
		c0.4,0.5,0.7,1.1,0.8,1.8c0.2,0.7,0.3,1.3,0.3,1.8c0.6,0,1.1,0,1.6,0.1c0.5,0,1,0,1.5,0c0.9,0,1.6-0.1,2.3-0.3
		c0.6-0.2,1.3-0.5,2-0.9c0.8-0.5,1.5-1.3,1.9-2.2c0.4-1,0.6-2,0.6-3.2c-0.1-1.2-0.4-2.5-1-3.8s-1.5-2.6-2.8-3.9
		c-0.8-0.8-1.7-1.6-2.8-2.3c1.2-0.6,2.4-1.2,3.4-1.8C57.6,19.8,58.6,22.1,59.7,24.2z M53.1,18.3L51.4,19l1.5,1
		c1.1,0.7,1.9,1.4,2.7,2.1c1.1,1.2,2,2.4,2.6,3.6c0.6,1.2,0.9,2.4,0.9,3.4c0,1-0.1,2-0.5,2.8c-0.4,0.8-0.9,1.4-1.5,1.8
		c-0.6,0.4-1.2,0.6-1.7,0.8c-0.5,0.1-1.2,0.2-2,0.3c-0.4,0-0.9,0-1.4,0c-0.2,0-0.5,0-0.8,0C51,34.4,51,34,50.9,33.6
		c0-0.2-0.1-0.3-0.1-0.5c0.1,0,0.1,0,0.2,0c0.6,0,1.2,0,1.7,0c0.5,0,1,0,1.4-0.1c0.6-0.1,1.1-0.3,1.5-0.7c0.8-0.5,1.3-1.3,1.5-2.4
		c0.1-0.8,0.1-1.7-0.2-2.6L56.5,26l-1.2,0.8c-0.4,0.3-0.8,0.5-1.2,0.8c-1.3,0.9-2.8,1.7-4.3,2.5c-1.5,0.8-3.1,1.5-4.6,2.1
		c-1.3,0.5-2.6,1-3.8,1.3c-0.2-0.3-0.4-0.6-0.7-1c-0.1-0.1-0.1-0.2-0.2-0.3c1-0.3,2.1-0.6,3.1-0.9c1.6-0.5,3.2-1.2,4.7-1.8
		c1.5-0.7,3-1.4,4.3-2.2c0.9-0.5,1.7-1.1,2.5-1.7l0.8-0.6l-0.6-0.8c-0.3-0.5-0.7-0.9-1.1-1.4l-0.6-0.6L53,22.7
		c-0.6,0.4-1.2,0.7-1.8,1.1c-1.6,0.8-3.2,1.6-4.9,2.2c-1.5,0.6-2.9,1-4.3,1.4c-0.2-0.3-0.4-0.6-0.7-0.9c0,0-0.1-0.1-0.1-0.1
		c1.1-0.3,2.3-0.6,3.4-0.9c1.8-0.5,3.4-1.1,5-1.8c0.8-0.4,1.6-0.7,2.3-1.1l1.3-0.8L52,20.9c-0.4-0.3-1-0.7-1.6-1.1L50,19.5l-0.5,0.2
		c-0.8,0.3-1.7,0.6-2.5,0.9c-1.8,0.6-3.6,1.1-5.3,1.6l-0.2-0.3c-0.2-0.3-0.3-0.5-0.5-0.8c1.5-0.3,2.9-0.6,4.4-1.1
		c2-0.5,3.9-1.2,5.7-1.9l-0.4-1.9h-6.9V9.3l-1.6,1c-0.2,0.2-0.5,0.3-0.7,0.5c-0.1-0.1-0.2-0.2-0.3-0.3c-0.3-0.4-0.6-0.7-1-1
		c1.2-0.7,2.3-1.5,3.3-2.3c1.4-1.1,2.6-2.2,3.6-3.3c0.9-0.9,1.6-1.9,2.2-2.7l2.1,0.4c-0.1,0.1-1.6,2-1.6,2h9.4l0.3-0.1l1.6,1
		c-0.3,0.4-0.6,0.9-1,1.4c-0.3,0.5-0.7,0.9-1.1,1.4l-1.4,1.6h10.7v7.3h-9.5l0.5,1.3c0.6,1.7,1.3,3.3,2.2,4.9l0.5,0.9l1-0.6
		c0.3-0.2,0.6-0.4,1-0.6c1.1-0.6,2.1-1.3,3.1-2c0.8-0.5,1.4-1,2-1.5l1.5,1.1c-0.6,0.4-1.2,0.7-1.8,1.1c-1.1,0.6-2.2,1.2-3.2,1.8
		c-0.7,0.4-1.3,0.7-2,1l-1.1,0.5l0.8,1c1,1.2,2,2.3,3.1,3.2c1.5,1.3,3.2,2.3,5.2,3.1c-0.3,0.4-0.7,0.8-1,1.3
		c-0.1,0.2-0.2,0.3-0.3,0.5c-2.1-0.9-3.9-2.2-5.5-3.6c-1.8-1.7-3.3-3.6-4.5-5.9c-1.1-2-2-4.2-2.7-6.6l-0.4-1.3l-1.1,0.7
		C55.3,17.1,54.2,17.7,53.1,18.3z"/>
	<path class="st0" d="M58.8,4.7H49L48.7,5c-0.4,0.4-0.7,0.8-1.1,1.2c-0.3,0.3-0.7,0.7-1.1,1l-1.9,1.7l2.6,0h8.6L56,8.6
		c0.2-0.3,0.5-0.6,0.7-0.9c0.3-0.4,0.7-0.9,1.1-1.5L58.8,4.7z M55.9,7.1c-0.2,0.3-0.5,0.6-0.7,0.8h-8.1c0.4-0.3,0.8-0.7,1.1-1
		c0.4-0.4,0.8-0.8,1.2-1.2H57C56.6,6.1,56.3,6.6,55.9,7.1z"/>
</g>
</svg>
