<?xml version="1.0" encoding="utf-8"?>
<!-- Generator: Adobe Illustrator 27.9.1, SVG Export Plug-In . SVG Version: 6.00 Build 0)  -->
<svg version="1.1" id="Layer_1" xmlns:inkscape="http://www.inkscape.org/namespaces/inkscape"
	 xmlns="http://www.w3.org/2000/svg" xmlns:xlink="http://www.w3.org/1999/xlink" x="0px" y="0px" viewBox="0 0 254 32.2"
	 style="enable-background:new 0 0 254 32.2;" xml:space="preserve">
<style type="text/css">
	.st0{fill:#070707;}
</style>
<g>
	<path class="st0" d="M26.1,26v-1.3l6.2-0.1l-0.2-3.7L26,21.1l0-1.2h5.9c0.1-2.4,0.1-4.2,0.1-5.2c0-1.8-0.6-2.8-1.9-2.9
		c-8.6,0-13.2,0-13.9,0.1c-1.1,0.1-2.2,0.1-3.5,0.2c0,4.3,0,6.9,0,7.9C14,20,16.8,20,21,20l0,1.2l-10.5,0.1l0.1,3.7h1.4
		c-0.5,0.8-0.7,1.5-0.7,2c0,0.5,0,0.8,0,0.9c0,0.8,0.3,1.5,0.9,1.9s3.5,0.6,8.7,0.6l-0.1,1.7l5.2,0v-1.9l7.9-0.3l-0.3-4.2L26.1,26z
		 M21,26.3l-3.8,0c-0.4,0-0.6-0.3-0.6-0.8c0-0.2,0.1-0.5,0.2-0.7l4.2,0L21,26.3z M17.4,16.6c0-0.5,0-1,0-1.3c0.4-0.1,1-0.2,1.6-0.2
		c4.7,0,7.2,0,7.5,0.1c0.3,0,0.4,0.3,0.4,0.7c0,0.3,0,0.5,0,0.6L17.4,16.6z"/>
	<path class="st0" d="M11.5,1L6.2,0.4C5.5,6.7,3.5,11.6,0,15.3l2.9,5.5c0.7-0.6,1.2-1.2,1.5-1.8c0,5-0.2,9.3-0.5,12.9l6,0.2l0-4.5
		c0-5.8-0.1-11.8-0.3-18C10.5,7.3,11.1,4.5,11.5,1z"/>
	<path class="st0" d="M31,6.9l0-1.3c0-0.8-0.2-1.6-0.4-2.2c-0.2-0.6-0.7-1-1.3-1.2c-0.2-0.1-0.8-0.1-1.6-0.1l-6.2,0l0-1.3h-4.9
		l-0.1,1.6l-4.1,0.1l0.1,3.8l3.7-0.1l-0.1,1l-5.3,0l0,4c12.6-0.1,20.4-0.2,23.3-0.3L34,6.9L31,6.9z M21.2,7.1L21.3,6l3.4,0
		c0.8,0.1,1.2,0.4,1.2,1L21.2,7.1z"/>
	<path class="st0" d="M55.2,15.4c0.1-0.5,0.3-1,0.5-1.6c9-0.1,14-0.2,14.9-0.3l-0.3-5.6C66,7.9,61.5,8,56.7,8.2
		C56.9,6.3,57,3.7,57,0.4l-6,0.3c0.1,3.2,0,5.8-0.2,7.8c-5,0.1-9.5,0.2-13.2,0.2v5.6c4.5-0.1,8.7-0.2,12.4-0.3c-2,5.5-6,9.9-12,13.2
		l4.8,4.3c4.8-2.3,8.4-5.7,10.8-10.2c4.2,2.7,8.2,6.2,11.8,10.5l5.9-3.7C66.1,22.7,60.8,18.5,55.2,15.4z"/>
	<path class="st0" d="M99.6,10.6c1.8,0,3.5,0.1,5.3,0.2l0.2-5.6c-2.2-0.2-4.4-0.3-6.5-0.3c-3.7,0-7,0.3-9.6,1l0.5,5.6
		C92.1,10.8,95.5,10.6,99.6,10.6z"/>
	<path class="st0" d="M80,2.1c-0.7,1.9-1.3,4.1-1.7,6.8c-0.4,2.7-0.6,5.5-0.6,8.4c0,5.2,0.6,9.6,1.7,13.2l5.9-0.9
		c-1.1-4-1.6-8.2-1.6-12.4c0-4.9,0.7-9.5,2.2-13.9L80,2.1z"/>
	<path class="st0" d="M90,19.7l-2.4,5.6c2.3,1.3,4.6,2.3,7,2.8c2.4,0.6,5.3,0.9,8.7,0.9c0.6,0,1.2,0,1.9,0l0.2-6
		c-3.5,0-6.4-0.3-8.6-0.7C94.6,21.7,92.3,20.9,90,19.7z"/>
	<path class="st0" d="M129,10.7l-0.1-5.3c-1.1,0-2.4,0.1-3.7,0.2c0.3-1.3,0.6-2.7,0.9-4.1l-5.8-0.9c-0.4,1.9-0.8,3.8-1.3,5.7
		c-2.5,0.4-4.7,0.8-6.4,1.3l1.1,5.2c1.1-0.3,2.3-0.5,3.7-0.8c-1.6,4.8-3.3,9.1-5.1,12.8l5.7,2c2.4-5.6,4.3-10.9,5.7-15.8
		C125.6,10.9,127.4,10.8,129,10.7z"/>
	<path class="st0" d="M136.4,11.8l-5.4,0.9c0.3,1.6,0.6,3,0.9,4.2c-0.6-0.1-1.2-0.1-1.8-0.1c-2.5,0-4.6,0.7-6.3,2.1
		c-1.6,1.4-2.4,3.2-2.4,5.4c0,2.2,0.8,3.9,2.3,5.3c1.6,1.3,3.6,2,6.1,2c2.3,0,4.1-0.6,5.5-1.8s2.2-3,2.6-5.3
		c1.5,0.8,2.6,1.5,3.4,2.3l2.1-5.3c-1.6-1.2-3.5-2.2-5.6-3C137.5,16.5,137,14.3,136.4,11.8z M131.7,25.4c-0.5,0.7-1.2,1-2.1,1
		c-0.8,0-1.5-0.2-2-0.6c-0.5-0.4-0.7-1-0.7-1.7c0-0.7,0.2-1.3,0.7-1.7c0.5-0.4,1.1-0.6,2-0.6c0.7,0,1.6,0.2,2.8,0.5
		C132.4,23.7,132.1,24.8,131.7,25.4z"/>
	<path class="st0" d="M143.2,9c-2.8-2.3-5.9-4.4-9.4-6.1l-3,4.6c3.5,1.7,6.6,3.7,9.3,6.2L143.2,9z"/>
	<path class="st0" d="M170,11.8c1.8-1.4,2.7-3,2.7-5c0-1.7-0.8-2.9-2.3-3.7c-1.5-0.8-3.9-1.2-7-1.2s-6.6,0.3-10.3,0.8l1,5.7
		c3.6-0.6,6.8-1,9.7-1c1.6,0,2.3,0.2,2.3,0.7c0,0.9-2.4,2-7.3,3.1l1.1,5.4c1.5-0.4,3.2-0.6,5-0.6s3.3,0.4,4.3,1.2s1.6,2,1.6,3.5
		c0,1.5-0.6,2.7-1.7,3.5s-2.8,1.3-5,1.4l3-2.6c-2.2-3.5-5.1-5.2-8.5-5.2c-1.8,0-3.3,0.6-4.5,1.8s-1.9,2.7-1.9,4.5c0,2.2,1,4,3,5.3
		c2,1.3,4.7,1.9,8.2,1.9c4.2,0,7.6-0.9,10-2.8c2.4-1.8,3.6-4.4,3.6-7.6c0-2.2-0.6-4.1-1.8-5.7S172.3,12.6,170,11.8z M159,25.1
		c-0.8-0.3-1.2-0.8-1.2-1.2c0-0.5,0.4-0.7,1.1-0.7c0.4,0,0.9,0.2,1.5,0.7c0.6,0.5,1.2,1.1,1.7,1.9C160.8,25.7,159.8,25.4,159,25.1z"
		/>
	<path class="st0" d="M192.4,6.5c-1.2-2.4-2.5-4.4-4-6l-5,2.2c1.8,2.2,3.1,4.4,3.9,6.4L192.4,6.5z"/>
	<path class="st0" d="M216.8,4.7c0-0.7,0-1.4-0.1-2.1c-0.2-1.4-1.1-2.1-2.7-2.2l-4.1,0c-2.7,0-4.9,0-6.4,0.1
		c-2.8,0.1-6.5,0.4-11,0.6c-0.1,1.4-0.1,2.7-0.1,3.8c0,0.4,0,1.2,0.1,2.3l2.2-0.1v2.2c3,0,5.3-0.1,6.9-0.2v1.2
		c-1.8,0-4.3,0.1-7.5,0.1c0.1,2.8,0.2,5.3,0.2,7.5l0,2.5l7.6-0.1v1.2l-7.4,0h-2.4l0,3.5c3.5-0.1,6.8-0.2,9.8-0.2l0,1.8h-0.8
		c-1.4,0-2.7-0.1-3.9-0.2c-2.8-0.4-5.1-1.1-6.8-2c0.7-2.2,1.2-5.3,1.3-9.3c0-2.7-1.1-4.3-3.3-4.8c-0.9-0.1-1.8-0.1-2.6-0.1
		c-1,0-2,0.1-3,0.3l0.2,5.1c0.6,0,1.1-0.1,1.6-0.1c0.5,0,0.9,0.1,1.3,0.3c0.3,0.1,0.4,0.5,0.4,1c0,0.2,0,0.6-0.1,1.1
		c-0.6,4.4-1.9,8-3.8,10.6l4.9,3.5c0.6-0.9,1.2-1.7,1.6-2.6c2,1.2,4.7,2,8.1,2.4c1.2,0.1,2.5,0.2,4.1,0.2c3,0,7.9-0.2,14.6-0.6
		l1-5.5c-4,0.3-7.5,0.5-10.4,0.6l0-1.7l10.4-0.1l-0.1-3.3l-10.4,0.1v-1.3l8.4-0.1c-0.1-3.5-0.1-5.5-0.1-6c0-2.4-1-3.7-3-3.7
		c-1.6,0-3-0.1-4-0.1h-1.3V9.1c2.7-0.1,5.3-0.2,7.9-0.2l-0.1-1.7l2.3,0.1C216.7,6.5,216.8,5.6,216.8,4.7z M210,17.4l-3.7,0.1v-1.2
		h3.7V17.4z M206.3,13h0.9c0.9,0,1.6,0,2,0.1c0.4,0.1,0.7,0.4,0.8,1.1h-3.7V13z M198.6,13.2l3.2-0.1v1.1l-3.2,0V13.2z M198.6,17.6
		v-1.3l3.2-0.1l0,1.3L198.6,17.6z M206.3,5.8V4.7l-4.8,0.1l0,1l-2.2,0c-0.9,0-1.8,0-2.6,0l-0.1-1.3c3.7-0.3,7.5-0.5,11.5-0.5
		c2,0,3.2,0.1,3.5,0.2s0.5,0.6,0.5,1.2L206.3,5.8z"/>
	<path class="st0" d="M239.5,1.2l-5-1.2c-3.5,4.5-8.4,7.8-14.8,10.2l2.4,4.5c1.9-0.6,3.5-1.3,4.6-2v1.7c4.2-0.2,7.3-0.4,9.5-0.5
		c2.2-0.1,5.4-0.2,9.6-0.5l-0.1-2.1c1.5,1,3,2.1,4.6,3.2l3.6-4.1c-4.7-3.1-9.7-5.8-15.1-8.2C239,2.1,239.2,1.7,239.5,1.2z
		 M241.4,8.8L232,9.2c1.4-0.8,2.8-1.8,4.3-3.1C237.9,6.9,239.6,7.8,241.4,8.8z"/>
	<path class="st0" d="M246.5,15.4c-1,0-2.6,0.1-4.8,0.2c0,0,0-0.2,0.1-0.6l-5.2,0.1c0.1,1.8,0.2,4.1,0.2,6.8c0,2.1-0.1,5.5-0.4,10.2
		L242,32v-3.8c0-3.6,0-6.3,0-8.2c1.3-0.1,2.2-0.2,2.5-0.2c0.3,0,0.6,0,0.8,0c0.6,0.1,1,0.5,1,1.1c0.1,0.6,0.1,1.3,0,2.1
		c0,0.8-0.2,1.3-0.6,1.4c-0.2,0.1-0.5,0.1-0.7,0.1c-0.6,0-1.1-0.2-1.6-0.5l0.1,5.2c1.5,0.6,2.8,0.9,3.9,0.9c1.3,0,2.3-0.5,3-1.5
		c0.7-1,1-3,1-6.1c0-3.1-0.4-5-1.2-5.8C249.6,15.8,248.3,15.4,246.5,15.4z"/>
	<path class="st0" d="M231.6,15.9c-2.2,0-3.9,0.1-5.2,0.3l-0.1-0.7l-4.6,0.6c0.1,2.7,0.2,6.3,0.2,10.8v2.9c3.7,0,7.9-0.1,12.6-0.3
		c0.1-2.7,0.2-6.1,0.2-10.4C234.7,17.1,233.7,16.1,231.6,15.9z M230.1,21.9c0,0.6-0.1,1.7-0.2,3.1c-1.5,0.1-2.6,0.1-3.4,0.1v-4.5
		c0.7,0,1.3-0.1,1.7-0.1c0.8,0,1.3,0,1.6,0.1c0.2,0,0.3,0.3,0.3,0.9V21.9z"/>
</g>
</svg>
