<?xml version="1.0" encoding="utf-8"?>
<!-- Generator: Adobe Illustrator 27.9.1, SVG Export Plug-In . SVG Version: 6.00 Build 0)  -->
<svg version="1.1" id="Layer_1" xmlns:inkscape="http://www.inkscape.org/namespaces/inkscape"
	 xmlns="http://www.w3.org/2000/svg" xmlns:xlink="http://www.w3.org/1999/xlink" x="0px" y="0px" viewBox="0 0 106.7 31.8"
	 style="enable-background:new 0 0 106.7 31.8;" xml:space="preserve">
<style type="text/css">
	.st0{fill:#070707;}
</style>
<g>
	<path class="st0" d="M17.5,18.5c0.1,1.1,0.1,2.4,0.1,3.9c0,2.4-0.1,5.6-0.3,9.5l5.5-0.1l0-4.3c0-3.5-0.1-6.5-0.3-9.1L17.5,18.5z"/>
	<path class="st0" d="M8.8,30.3l5.3,1.5c1.3-3.1,2-7.1,2-11.9v-1.7l-4.7,0C11.4,22.7,10.5,26.8,8.8,30.3z"/>
	<path class="st0" d="M5.9,17.3c-1,4-2.8,7.8-5.2,11.4L6,31.8c1.8-3.2,3.3-7.4,4.4-12.8L5.9,17.3z"/>
	<path class="st0" d="M5.4,8.2l4.8-2.9C8.5,3,6.6,1.3,4.6,0.1L0.4,2.5C2.5,4.4,4.2,6.3,5.4,8.2z"/>
	<path class="st0" d="M10.3,7.5c1.8,0,3.2,0,4.1-0.1c-0.8,1.2-1.3,2.2-1.6,3.1c-0.4,1.2-0.7,2.2-0.7,3c0,1.7,0.7,2.7,2.2,3
		c0.9,0.2,2.1,0.3,3.4,0.3c3.1,0,6.1-0.2,8.8-0.6L27,18l5.5-1.8c-1.2-3.9-2.5-6.9-4.2-8.9l-4.5,1.3c0.6,0.9,1.1,1.9,1.5,2.9
		c-2.1,0.3-3.8,0.5-5.1,0.5c-0.8,0-1.4-0.1-1.8-0.2c-0.4-0.2-0.6-0.5-0.6-1.1c0-0.6,0.6-1.8,1.8-3.4c4.4-0.1,8.9-0.1,13.5-0.2L33,2
		c-2.8,0.1-5.7,0.1-8.5,0.2c-0.1-0.5-0.3-1.3-0.7-2.2l-5.4,0.8c0.3,0.8,0.4,1.3,0.4,1.5c-2.4,0.1-5.3,0.2-8.6,0.2L10.3,7.5z"/>
	<path class="st0" d="M5.1,17l4.6-2.9C8.1,11.8,6.3,10,4.3,8.5L0,11.3C2.1,13.2,3.8,15.1,5.1,17z"/>
	<path class="st0" d="M29.2,24.8l-0.1-6.5l-4.4,0.2c-0.1,2.7-0.2,4.9-0.2,6.7c0,2.9,0.3,4.8,1,5.7c0.5,0.7,1.1,1,1.6,1s0.9,0,1.2,0
		c1,0,2.5-0.2,4.5-0.6l0.4-6.6c-1.7,0.7-2.8,1-3.3,1C29.5,25.6,29.2,25.3,29.2,24.8z"/>
	<path class="st0" d="M66.4,23.3c-0.2-0.2-0.4-0.8-0.4-1.6s0.1-2.5,0.4-4.9c0.2-2.4,0.4-4.1,0.4-4.9c0-2.1-0.5-3.7-1.4-4.8
		c-1-1.1-2.3-1.7-4.1-1.7c-1.3,0-2.8,0.3-4.5,0.9C55,7,53.4,7.9,51.9,8.9c0.2-2.7,0.4-5.3,0.7-7.7l-6-0.3c-0.2,1.8-0.4,3.6-0.6,5.5
		c-1.6-0.6-3.2-1.2-4.8-1.6l-1.7,5.6c1.3,0.4,3.3,1.1,6.1,2.2c0,0.3,0,0.7,0,1c-2.4,3.5-4.6,6.9-6.7,10.2l4.3,3.7
		c0.7-1.4,1.4-2.7,2.2-4c0,2.5,0.1,4.9,0.2,7.1l6-0.3c-0.3-3.8-0.3-8.5-0.1-14.1c1.6-1.4,3.2-2.6,4.8-3.6c1.6-1,2.9-1.4,3.8-1.4
		c0.3,0,0.6,0.1,0.7,0.3c0.1,0.2,0.2,0.7,0.2,1.5s-0.1,2.4-0.4,4.9c-0.2,2.5-0.4,4.2-0.4,5c0,2.1,0.6,3.7,1.7,4.7s2.9,1.5,5.3,1.5
		c0.9,0,1.9-0.1,3-0.3l0.4-5.7c-0.9,0.3-1.8,0.4-2.7,0.4S66.6,23.5,66.4,23.3z"/>
	<path class="st0" d="M93.9,27.6V26c5.6,0,9-0.1,10.2-0.1l-0.5-3.9c-2.5,0-5.8,0.1-9.7,0.2l0-1.6c6.9-0.1,10.9-0.1,11.9-0.1
		l-0.5-3.8l-11.6,0.1c0-0.3,0-0.9,0-1.6c3.5,0,6.8-0.1,9.8-0.2c0.4-3.7,0.6-6.7,0.6-8.8c0-3.3-1.3-5.1-4-5.2
		c-4.7-0.1-8.3-0.1-10.8-0.1c-2.5,0-4.8,0.1-6.9,0.2l-0.2-0.8L77,1c0.3,3.6,0.5,7.2,0.5,10.9l0,3.4h0.2c-0.4,1.9-1.8,4-4.3,6.2
		l4.5,1.4l0.1,3.3l10-0.2c0,0.5,0,1-0.1,1.6C82.2,27.9,77.6,28,74,28l0.3,3.8c20.3-0.4,31.1-0.6,32.4-0.7l-0.3-3.7
		C104.7,27.4,100.6,27.5,93.9,27.6z M98.5,11.2c-8.1,0.1-13.4,0.1-15.9,0.1l0-1.8l16.1-0.1L98.5,11.2z M90.3,4.5
		c2.7,0,4.7,0.1,6.1,0.2s2.1,0.6,2.2,1.2L82.5,6.2l0-1.4C85.6,4.6,88.2,4.5,90.3,4.5z M88,15.3c0,0.7,0,1.2,0.1,1.6l-5.6,0.1
		c0.1-0.1,0.3-0.5,0.4-1l-4.7-0.7C80.9,15.3,84.2,15.3,88,15.3z M88.1,22.3c-2.9,0.1-5.5,0.1-8,0.1c0.2-0.4,0.5-0.9,0.8-1.6
		c1.9,0,4.3-0.1,7.2-0.2L88.1,22.3z"/>
</g>
</svg>
