<?xml version="1.0" encoding="utf-8"?>
<!-- Generator: Adobe Illustrator 27.9.1, SVG Export Plug-In . SVG Version: 6.00 Build 0)  -->
<svg version="1.1" id="Layer_1" xmlns:inkscape="http://www.inkscape.org/namespaces/inkscape"
	 xmlns="http://www.w3.org/2000/svg" xmlns:xlink="http://www.w3.org/1999/xlink" x="0px" y="0px" viewBox="0 0 143.7 31.7"
	 style="enable-background:new 0 0 143.7 31.7;" xml:space="preserve">
<style type="text/css">
	.st0{fill:#070707;}
</style>
<g>
	<path class="st0" d="M0.2,26.2l11.2-0.4c0.2-5.4,0.3-9.9,0.3-13.4c0-1.4,0-3.2-0.1-5.3c-0.1-1.2-0.5-2-1.2-2.6S8.8,3.6,7.6,3.6
		c-1.3,0-2.3,0.1-3,0.3l-0.2-1L0,3.7c0.2,0.8,0.3,3.7,0.3,8.6C0.3,16.5,0.3,21.1,0.2,26.2z M3.6,4l0.2,1l1-0.2
		c0.6-0.2,1.5-0.2,2.7-0.2c1,0,1.7,0.2,2.2,0.6c0.5,0.4,0.8,1.1,0.8,2c0,2,0.1,3.8,0.1,5.2c0,3.3-0.1,7.5-0.2,12.5l-9.2,0.3
		c0.1-4.7,0.1-9,0.1-12.8c0-4.5-0.1-6.7-0.2-7.9L3.6,4z"/>
	<path class="st0" d="M8.1,11.5c0-1-0.1-1.8-0.3-2.3C7.4,7.8,6.4,7.6,5.9,7.6c-0.5,0-1.1,0.1-1.6,0.4L3.8,8.3l0,13.7l4.1-0.1
		L8.1,11.5z M6.9,20.9L4.8,21l0-12.1c0.4-0.2,0.7-0.3,1.1-0.3c0.4,0,0.8,0.3,0.9,0.9c0.2,0.4,0.3,1,0.3,1.9L6.9,20.9z"/>
	<path class="st0" d="M19,26.4l1,0c3.2,0,3.4-0.2,3.7-0.3l0.5-0.3l0.1-4.1L19,21.9V26.4z M20,22.9l3.3-0.2l-0.1,2.5
		c-0.2,0.1-1.2,0.2-3.2,0.2V22.9z"/>
	<path class="st0" d="M19.9,14.6l-0.9,0.1L19,19l5.4-0.2l0.1-4.4l-1.1,0C22.1,14.5,20.9,14.6,19.9,14.6z M23.4,17.8L20,18l0-2.3
		c1-0.1,2.2-0.1,3.5-0.2L23.4,17.8z"/>
	<path class="st0" d="M23.5,11.5l0.9-0.1V6.9l-1.3,0.4c-0.1,0-0.8,0.1-3.4,0.2l-1,0l0.1,4.2l1-0.1C21.7,11.7,22.9,11.6,23.5,11.5z
		 M19.8,8.5c2.2-0.1,3.5-0.1,3.7-0.2v2.2c-0.7,0-1.9,0.1-3.6,0.2L19.8,8.5z"/>
	<path class="st0" d="M33.8,24.8c-1,0-2.9,0.1-5.5,0.3l0-2.4c2.7-0.1,4.4-0.1,5.1-0.2l-0.3-4.8l-4.8,0.1v-2.3c2.7,0,4.5-0.1,5.1-0.2
		l-0.3-4.9c-0.9,0-2.5,0-4.8,0.1V8.2l5.3-0.2l-0.2-4.6c-1.2,0-2.7,0-4.4,0c-0.1-1.2-0.6-2.2-1.4-3.2l-4.9,0.8
		c0.5,0.5,0.9,1.2,1.3,2.3c-1.3,0-2.5,0-3.6,0.1C20.4,3,20.7,2.1,21,0.9L16,0.1c-0.6,4.1-2.1,7.3-4.3,9.7l1.5,5.8
		c0.6-0.3,1.1-0.8,1.4-1.5c0,7.5-0.1,13.2-0.3,17.1l5.6,0.1v-1.1c2.4-0.1,5.1-0.2,8.1-0.3c3-0.1,5-0.2,6.1-0.3L33.8,24.8z M28,28.9
		c-3,0.1-5.7,0.2-8.1,0.3l-1,0v1.1l-3.6-0.1c0.1-3.8,0.2-9.2,0.2-16.1l-1.9-0.5c0,0,0,0,0,0.1L12.8,10c2-2.3,3.3-5.2,4-8.8l2.9,0.5
		c-0.2,0.6-0.3,1.1-0.4,1.4l-0.5,1.4l6.4-0.1l-0.4-1.3c-0.1-0.5-0.3-0.9-0.5-1.3l2.8-0.5c0.5,0.7,0.8,1.4,0.8,2.2L28,4.5h0.9
		c1.3,0,2.5,0,3.5,0l0.1,2.7l-5.3,0.2v4.2l1,0c1.6,0,2.9,0,3.9-0.1l0.2,2.9c-0.8,0-2,0.1-4.1,0.1l-1,0v4.3l4.9-0.1l0.2,2.9
		c-0.9,0-2.2,0.1-4,0.1l-1,0l-0.1,4.5l1.1-0.1c1.9-0.1,3.4-0.2,4.5-0.2l0.2,2.9C31.9,28.7,30.3,28.8,28,28.9z"/>
	<path class="st0" d="M69.6,12.4c-3.6,0.1-8.8,0.2-15.8,0.4S41.3,13,37.3,13l0.1,5.4c3.6,0,8.9-0.1,15.9-0.3
		c9.7-0.1,15.3-0.3,16.7-0.3L69.6,12.4z M53.3,17.1C47,17.2,42,17.3,38.4,17.4L38.3,14c3.9,0,9.1-0.1,15.5-0.3
		c6.4-0.1,11.3-0.3,14.9-0.3l0.3,3.4C66.6,16.9,61.4,17,53.3,17.1z"/>
	<path class="st0" d="M97.5,24.9l-5.2,0.4v0.6c0,1.5,0.1,3.2,0.2,5.2l5.5-0.1C98,29.1,97.8,27.1,97.5,24.9z M93.5,30
		c-0.1-1.4-0.1-2.7-0.1-3.8l3.3-0.3c0.2,1.4,0.3,2.7,0.3,4L93.5,30z"/>
	<path class="st0" d="M100.2,25.3c1.1,2,1.8,4,2.2,6.1l5.6-0.9c-0.6-2.5-1.6-4.6-2.7-6.2L100.2,25.3z M103.2,30.3
		c-0.3-1.5-0.8-2.9-1.5-4.3l3.1-0.6c0.8,1.2,1.4,2.7,1.9,4.3L103.2,30.3z"/>
	<path class="st0" d="M96.5,11.3l4.4-0.1l0.1-5.7l-4.4,0.1V11.3z M97.5,6.7l2.4-0.1l0,3.7l-2.4,0V6.7z"/>
	<path class="st0" d="M90.1,11.4h4.6l0.1-5.7l-4.6,0.1V11.4z M91.1,6.8l2.6,0l0,3.6h-2.6V6.8z"/>
	<path class="st0" d="M104.1,14.9l2.5,0v-4.8l-2.5,0.1l0-3.6l3.4-0.2V1.4L84.6,2.2C84.8,1.5,85,1,85.1,0.5l-5-0.5
		c-0.3,1.1-1.1,2.3-2.2,3.6c-1.1,1.3-2.4,2.5-4.1,3.5l2.3,3.6c1.6-0.8,2.9-1.8,3.8-3.2l0,3.1h-2.7l0,0l0.1,4.8l2.5,0v3.6l-5.6,0.1
		l0.1,4.7l33.6-0.7l0-4.8l-3.8,0.1L104.1,14.9z M106.9,22.3l-31.6,0.6l-0.1-2.7l5.6-0.1v-5.6l-2.5,0l-0.1-2.8h2.6L81,4.4L79.1,7
		c-0.7,0.9-1.5,1.7-2.6,2.4l-1.3-2c1.4-1,2.5-2,3.5-3.2c0.9-1.1,1.6-2.2,2-3.1l3,0.3c0,0.1-0.6,1.8-0.6,1.8l23.2-0.8v3L103,5.6
		l0.1,5.6l2.5-0.1v2.8l-2.5,0l0.1,5.7l3.8-0.1L106.9,22.3z"/>
	<path class="st0" d="M83.2,20h4.6l0.1-5.7l-4.7,0.1L83.2,20z M86.8,15.3l0,3.7h-2.6l0-3.6L86.8,15.3z"/>
	<path class="st0" d="M90.2,19.9l4.4-0.1l0.1-5.7l-4.5,0.1L90.2,19.9z M93.6,15.1l0,3.7l-2.4,0l0-3.7L93.6,15.1z"/>
	<path class="st0" d="M83.1,11.7l4.8-0.2L88,5.8L83.1,6V11.7z M84.1,7l2.9-0.1l0,3.7l-2.8,0.1V7z"/>
	<path class="st0" d="M96.5,19.8l4.3-0.1V14l-4.3,0.1L96.5,19.8z M99.8,15v3.7l-2.3,0l0-3.7L99.8,15z"/>
	<path class="st0" d="M74.4,30.3l5.3,1.4c0.9-2.5,1.5-4.6,1.6-6.4L76.5,25C76.3,26.6,75.6,28.4,74.4,30.3z M80.2,26.2
		c-0.2,1.3-0.6,2.7-1.1,4.3l-3.2-0.9c0.7-1.3,1.1-2.5,1.4-3.6L80.2,26.2z"/>
	<path class="st0" d="M89.5,25.3l-5.2,0c-0.2,1.6-0.4,3.5-0.6,5.7l5.5,0.2C89.4,29.3,89.5,27.3,89.5,25.3z M88.2,30.1L84.7,30
		c0.1-1.4,0.2-2.6,0.4-3.8l3.4,0C88.4,27.6,88.4,28.9,88.2,30.1z"/>
	<path class="st0" d="M129.7,27.6c8-0.1,12.7-0.3,14-0.3l-0.4-5.9c-3.4,0.1-8.3,0.2-14.9,0.4s-11.7,0.3-15.4,0.3l0.2,5.9
		C116.5,28,122,27.9,129.7,27.6z M128.4,22.9l13.9-0.4l0.3,3.9c-2.1,0.1-6.4,0.2-13,0.3c-6.9,0.2-12.1,0.4-15.5,0.4l-0.1-3.9
		C117.6,23.1,122.5,23,128.4,22.9z"/>
	<path class="st0" d="M127.8,3.5c-5.3,0.2-9.7,0.3-13.2,0.3l0.1,6c3.1-0.1,7.7-0.2,13.7-0.4c7-0.2,11.2-0.3,12.4-0.4l-0.4-6.1
		C137.4,3.2,133.2,3.3,127.8,3.5z M128.4,8.5c-5.4,0.2-9.6,0.3-12.7,0.3l-0.1-4c3.3,0,7.4-0.1,12.2-0.3c4.8-0.2,8.7-0.3,11.6-0.4
		l0.3,4.1C137.9,8.3,134.1,8.4,128.4,8.5z"/>
</g>
</svg>
