<?xml version="1.0" encoding="utf-8"?>
<!-- Generator: Adobe Illustrator 27.9.1, SVG Export Plug-In . SVG Version: 6.00 Build 0)  -->
<svg version="1.1" id="Layer_1" xmlns="http://www.w3.org/2000/svg" xmlns:xlink="http://www.w3.org/1999/xlink" x="0px" y="0px"
	 viewBox="0 0 177 35.6" style="enable-background:new 0 0 177 35.6;" xml:space="preserve">
<style type="text/css">
	.st0{fill:#282828;}
</style>
<g>
	<path class="st0" d="M127.7,0h4v13.1h-4V0z M112,0.1h3.8v35.5H112V0.1z M173,0.8h4v29.7c0,1.2-0.1,2.2-0.4,2.8
		c-0.3,0.6-0.8,1.1-1.5,1.5c-0.7,0.3-1.7,0.5-2.9,0.6c-1.2,0.1-2.7,0.2-4.5,0.2c-0.1-0.4-0.2-0.8-0.3-1.3c-0.2-0.5-0.3-1-0.5-1.5
		c-0.2-0.5-0.4-1-0.6-1.3c1.3,0.1,2.5,0.1,3.6,0.1c1.1,0,1.8,0,2.2,0c0.4,0,0.6-0.1,0.8-0.2c0.2-0.1,0.2-0.4,0.2-0.7V0.8z M83.5,1.9
		c-0.2,0.6-0.3,1.2-0.4,1.7c-0.1,0.5-0.2,1-0.2,1.5c-0.1,0.6-0.2,1.4-0.4,2.4c-0.1,1-0.3,2.2-0.5,3.4c-0.2,1.3-0.3,2.6-0.5,3.9
		c-0.2,1.3-0.3,2.7-0.5,4c-0.2,1.3-0.3,2.5-0.3,3.5c-0.1,1.1-0.1,1.9-0.1,2.6c0,1.6,0.5,2.9,1.5,3.8c1,0.9,2.4,1.3,4.4,1.3
		c1.8,0,3.4-0.2,4.6-0.7c1.3-0.5,2.2-1.2,2.9-2.1c0.7-0.9,1-1.9,1-3c0-1.3-0.3-2.5-1-3.8c-0.7-1.3-1.7-2.5-3-3.6l4.8-1
		c1.3,1.5,2.2,3,2.9,4.4c0.6,1.4,0.9,2.9,0.9,4.6c0,1.9-0.5,3.6-1.6,5c-1.1,1.5-2.6,2.6-4.6,3.4c-2,0.8-4.3,1.2-7,1.2
		c-1.9,0-3.6-0.3-5.1-0.9c-1.5-0.6-2.7-1.5-3.6-2.8c-0.9-1.3-1.3-3-1.3-5.1c0-0.8,0.1-1.8,0.2-3.2c0.1-1.3,0.3-2.8,0.5-4.3
		c0.2-1.6,0.4-3.2,0.6-4.8c0.2-1.6,0.4-3.2,0.6-4.7c0.2-1.5,0.3-2.7,0.4-3.8c0.1-0.8,0.1-1.5,0.1-1.9c0-0.4,0-0.9-0.1-1.3L83.5,1.9z
		 M145.3,1.8h15.5v13h-15.5V1.8z M107,2.1l3.4,0.6c-0.2,1.7-0.4,3.3-0.6,5c-0.3,1.7-0.6,3.2-0.9,4.7c-0.4,1.5-0.8,2.8-1.3,3.9
		c-0.2-0.2-0.5-0.4-0.8-0.6c-0.4-0.2-0.7-0.5-1.1-0.7c-0.4-0.2-0.7-0.4-1-0.6c0.5-1,0.8-2.2,1.1-3.6c0.3-1.3,0.5-2.8,0.7-4.3
		C106.8,5.1,106.9,3.5,107,2.1z M5.3,2.1c0.6,1.7,1.3,3.3,2,4.8c0.7,1.5,1.4,3,2.1,4.3c0.7,1.3,1.3,2.5,1.9,3.6l-3.8,2.2
		c-0.7-1.1-1.4-2.4-2.1-3.8s-1.4-3-2.2-4.6C2.5,7.1,1.7,5.5,1,3.9L5.3,2.1z M120.7,3.6H139v3.7h-18.2V3.6z M32.7,6.3
		c0.8,0,1.5-0.1,2.1-0.1c0.7,0,1.2-0.1,1.5-0.1C37.1,6.1,38,6,39.2,5.9c1.2-0.1,2.5-0.2,3.9-0.4c1.4-0.1,3-0.3,4.6-0.4
		c1.6-0.1,3.3-0.3,5.1-0.4c1.3-0.1,2.7-0.2,4-0.3c1.3-0.1,2.5-0.2,3.6-0.2c1.1-0.1,2.2-0.1,3-0.2v4.4c-0.7,0-1.5,0-2.4,0
		c-0.9,0-1.8,0.1-2.7,0.1c-0.9,0.1-1.7,0.2-2.3,0.4c-1.2,0.4-2.3,0.9-3.3,1.7c-1,0.8-1.9,1.7-2.6,2.7c-0.7,1-1.3,2.1-1.7,3.3
		c-0.4,1.2-0.6,2.3-0.6,3.4c0,1.3,0.2,2.5,0.7,3.5c0.5,1,1.1,1.8,1.9,2.5c0.8,0.7,1.7,1.3,2.8,1.7c1.1,0.5,2.2,0.8,3.4,1
		c1.2,0.2,2.5,0.4,3.7,0.4l-1.6,4.6c-1.5-0.1-3.1-0.3-4.6-0.7c-1.5-0.4-2.9-0.9-4.2-1.6c-1.3-0.7-2.5-1.6-3.4-2.6
		c-1-1-1.8-2.2-2.3-3.5c-0.6-1.3-0.9-2.8-0.9-4.5c0-1.9,0.3-3.6,0.9-5.2c0.6-1.6,1.4-2.9,2.3-4.1c0.9-1.2,1.9-2.1,2.8-2.8
		c-0.8,0.1-1.7,0.2-2.7,0.3c-1.1,0.1-2.2,0.2-3.4,0.4C42.2,9.7,41,9.8,39.7,10c-1.2,0.2-2.4,0.3-3.6,0.5c-1.1,0.2-2.1,0.4-3,0.6
		L32.7,6.3z M163.9,4.7h4V26h-4V4.7z M149,5.4v5.8h7.9V5.4H149z M24.5,9.9c-0.5,0.3-1.1,0.7-1.7,1c-0.6,0.3-1.2,0.6-1.9,1
		c-0.6,0.3-1.3,0.7-2.2,1.1s-1.8,0.9-2.8,1.4c-1,0.5-2,1.1-3,1.6c-1,0.6-1.9,1.1-2.8,1.7c-1.6,1.1-3,2.2-3.9,3.3
		c-1,1.2-1.5,2.4-1.5,3.8c0,1.4,0.7,2.5,2.1,3.3c1.4,0.8,3.4,1.2,6.2,1.2c1.3,0,2.8-0.1,4.3-0.2c1.5-0.1,3-0.3,4.4-0.5
		c1.4-0.2,2.7-0.4,3.7-0.7l0,4.9c-1,0.2-2.2,0.3-3.5,0.5c-1.3,0.1-2.6,0.3-4.1,0.3c-1.4,0.1-3,0.1-4.6,0.1c-1.8,0-3.6-0.1-5.1-0.4
		c-1.6-0.3-3-0.8-4.1-1.4c-1.2-0.6-2.1-1.5-2.8-2.6c-0.7-1.1-1-2.4-1-4c0-1.5,0.3-3,1-4.2c0.7-1.3,1.6-2.5,2.8-3.6
		c1.2-1.1,2.5-2.1,4-3.1c0.9-0.6,1.9-1.2,2.9-1.8c1-0.6,2.1-1.1,3.1-1.7c1-0.5,1.9-1,2.8-1.5c0.9-0.5,1.6-0.8,2.2-1.2
		c0.7-0.4,1.3-0.8,1.8-1.1c0.5-0.3,1-0.7,1.5-1.1L24.5,9.9z M70.3,6.7c1.1,0.4,2.3,0.7,3.7,0.9c1.3,0.2,2.7,0.4,4.1,0.5
		c1.4,0.1,2.7,0.2,3.9,0.2c1.5,0,2.9,0,4.2-0.1c1.3-0.1,2.4-0.2,3.4-0.4l-0.1,4.1C88.3,12,87.2,12,86,12.1c-1.2,0.1-2.5,0.1-4.1,0.1
		c-1.2,0-2.5-0.1-3.9-0.2c-1.4-0.1-2.7-0.3-4.1-0.6c-1.3-0.2-2.6-0.5-3.8-0.8L70.3,6.7z M107.9,7.4h11.2v3.9h-12L107.9,7.4z
		 M118.5,11h22.2v3.8h-22.2V11z M149.2,13.7h4c-0.1,2-0.3,4-0.5,6.1c-0.2,2.1-0.6,4-1.1,6c-0.5,1.9-1.2,3.7-2.2,5.4
		c-0.9,1.7-2.2,3.2-3.7,4.4c-0.3-0.5-0.7-1-1.3-1.6c-0.5-0.6-1-1-1.5-1.3c1.4-1.1,2.5-2.4,3.2-3.9c0.8-1.5,1.4-3,1.8-4.7
		c0.4-1.7,0.7-3.4,0.9-5.2C149,17.1,149.2,15.4,149.2,13.7z M132.3,14.4h4.1v16.5c0,1.1-0.1,1.9-0.4,2.5c-0.3,0.6-0.7,1.1-1.5,1.4
		c-0.7,0.3-1.6,0.5-2.7,0.6c-1.1,0.1-2.3,0.1-3.8,0.1c-0.1-0.6-0.2-1.3-0.5-2.1c-0.2-0.8-0.5-1.4-0.8-2c1,0,2,0,2.9,0.1
		c0.9,0,1.5,0,1.8,0c0.3,0,0.5,0,0.6-0.1c0.1-0.1,0.2-0.3,0.2-0.5V14.4z M69.5,16.2c1.3,0.4,2.7,0.8,4.1,1c1.4,0.3,2.8,0.4,4.1,0.5
		c1.4,0.1,2.7,0.1,3.9,0.1c1.2,0,2.5,0,3.8-0.1c1.3-0.1,2.6-0.2,3.9-0.3l-0.1,4.1c-1.1,0.1-2.2,0.2-3.4,0.3
		c-1.1,0.1-2.3,0.1-3.5,0.1c-2.4,0-4.8-0.1-7-0.4c-2.3-0.3-4.3-0.6-6-1.1L69.5,16.2z M105.1,20.4c1.2-0.3,2.6-0.7,4.2-1.1
		c1.6-0.4,3.2-0.9,5-1.4c1.7-0.5,3.5-1,5.2-1.5l0.5,3.6c-2.4,0.8-4.8,1.5-7.3,2.3c-2.5,0.7-4.7,1.4-6.7,2L105.1,20.4z M157.3,18.2
		h3.8c0,0.4,0,0.7,0,0.9c0,0.2,0,0.5,0,0.6c-0.1,3.1-0.2,5.6-0.4,7.5c-0.2,1.9-0.4,3.4-0.6,4.4c-0.2,1-0.5,1.8-0.9,2.2
		c-0.4,0.5-0.7,0.8-1.2,1c-0.4,0.2-0.9,0.3-1.6,0.4c-0.5,0.1-1.2,0.1-2,0.1c-0.8,0-1.7,0-2.6-0.1c0-0.5-0.1-1.1-0.3-1.8
		c-0.2-0.7-0.4-1.2-0.7-1.7c0.8,0.1,1.6,0.1,2.3,0.1c0.7,0,1.2,0,1.6,0c0.3,0,0.6,0,0.7-0.1c0.2-0.1,0.4-0.2,0.6-0.4
		c0.2-0.3,0.4-0.8,0.6-1.7c0.2-0.9,0.3-2.2,0.4-4c0.1-1.8,0.2-4.1,0.3-7V18.2z M150.3,18.2h8.8v3.6h-8.8V18.2z M119.2,18.5h21.1v3.8
		h-21.1V18.5z M120.8,24.5l3-1.9c0.6,0.6,1.2,1.2,1.8,1.9c0.6,0.7,1.1,1.4,1.7,2.1c0.5,0.7,0.9,1.3,1.2,1.9l-3.2,2.1
		c-0.3-0.6-0.7-1.2-1.1-1.9c-0.5-0.7-1-1.4-1.6-2.1C121.9,25.7,121.3,25.1,120.8,24.5z"/>
</g>
</svg>
