<?xml version="1.0" encoding="utf-8"?>
<!-- Generator: Adobe Illustrator 27.9.1, SVG Export Plug-In . SVG Version: 6.00 Build 0)  -->
<svg version="1.1" id="Layer_1" xmlns="http://www.w3.org/2000/svg" xmlns:xlink="http://www.w3.org/1999/xlink" x="0px" y="0px"
	 viewBox="0 0 579.1 66.1" style="enable-background:new 0 0 579.1 66.1;" xml:space="preserve">
<g>
	<path d="M61.2,0v64.1H48.7V36.8L30.7,63h-0.1l-18-26.2v27.2H0V0h0.7l29.9,41.3L60.5,0H61.2z"/>
	<path d="M122.4,1.4v63.8h-0.6L84.7,29.1v35H72.1V0.4h0.6l37,36v-35H122.4z"/>
	<path d="M145.8,13.9v12.6h21.6v12.5h-21.6v25.1h-12.6V1.4H171v12.5H145.8z"/>
	<path d="M174.8,53.3l10-7.1c2.8,4.4,6.7,6.4,12.1,6.4c5.9,0,9.9-2.4,9.9-5.7c0-4.6-7.5-8.2-14-11.4c-7-3.5-14.7-7.3-14.7-17.3
		c0-10.8,9.2-18,20.6-18c8.5,0,15.6,3.5,18.4,11.1l-9.3,6.5c-1.9-3.7-5.5-5.2-9-5.2c-4.7,0-8.2,2.7-8.2,5.9c0,3.7,4.7,5,11.9,8.4
		c10.4,4.9,16.9,10.2,16.9,19.8c0,11.4-9.3,18.7-22.7,18.7C186.5,65.3,179,61.1,174.8,53.3z"/>
	<path d="M266.6,14h-15.4v50.1h-12.6V14h-15.4V1.6h43.4V14z"/>
	<path d="M324.4,32.9c0,19.4-12.3,31.2-32.5,31.2h-18.2V1.6l18.2,0C312.1,1.5,324.4,13.4,324.4,32.9z M311.7,32.9
		c0-11.7-7.5-18.9-19.9-18.9h-5.6v37.5h5.7C304.3,51.5,311.7,44.5,311.7,32.9z"/>
	<path d="M326.2,58.1c0-4.4,3.6-8,8-8c4.3,0,8,3.7,8,8c0,4.4-3.6,8-8,8C329.8,66.1,326.2,62.5,326.2,58.1z"/>
	<path d="M419.4,51.5v12.5h-47v-2.3c23-20.9,33.6-31.9,33.6-38.6c0-5.9-4.8-10.2-8.8-10.2c-5.7,0-10.7,4.9-10.7,10.9L375,21
		c0-11.3,9.9-20.6,21.7-20.6c12,0,21.8,10.5,21.8,22.1c0,10.3-10.4,22.6-19.4,29.1H419.4z"/>
	<path d="M424.8,32.8c0-19,10.4-32.4,25.9-32.4c15.5,0,25.9,13.4,25.9,32.4c0,18.9-10.4,32.3-25.9,32.3
		C435.2,65.2,424.8,51.7,424.8,32.8z M464,32.8c0-11.6-5.2-19.7-13.3-19.7s-13.3,8.2-13.3,19.7c0,11.5,5.2,19.7,13.3,19.7
		S464,44.3,464,32.8z"/>
	<path d="M529.1,51.5v12.5h-47v-2.3c23-20.9,33.6-31.9,33.6-38.6c0-5.9-4.8-10.2-8.8-10.2c-5.7,0-10.7,4.9-10.7,10.9L484.7,21
		c0-11.3,9.9-20.6,21.7-20.6c12,0,21.8,10.5,21.8,22.1c0,10.3-10.4,22.6-19.4,29.1H529.1z"/>
	<path d="M579.1,42.1c0,13.7-10.2,22.7-22.9,22.7c-9.5,0-18-5.1-21.6-13.2l12.5-4c1.9,2.9,5.1,4.7,8.6,4.7c4.4,0,10.4-2.8,10.4-10.2
		c0-5.9-3.9-9.5-10.4-9.5c-4.3,0-9.2,1.7-12,5l-7-3.6l4.7-32.5h32.2V14h-22.9l-1.4,8.6c2.2-1.6,4.8-2.1,8.1-2.1
		C570.8,20.5,579.1,29.8,579.1,42.1z"/>
</g>
</svg>
