<?xml version="1.0" encoding="utf-8"?>
<!-- Generator: Adobe Illustrator 27.9.1, SVG Export Plug-In . SVG Version: 6.00 Build 0)  -->
<svg version="1.1" id="Layer_1" xmlns="http://www.w3.org/2000/svg" xmlns:xlink="http://www.w3.org/1999/xlink" x="0px" y="0px"
	 viewBox="0 0 217.5 35.8" style="enable-background:new 0 0 217.5 35.8;" xml:space="preserve">
<style type="text/css">
	.st0{fill:#282828;}
</style>
<g>
	<path class="st0" d="M23.9,8H3.1v6.4h20.8V8z M22.9,13.4H4.1V9h18.8V13.4z"/>
	<path class="st0" d="M23.9,16.2H3.1v6.4h20.8V16.2z M22.9,21.5H4.1v-4.4h18.8V21.5z"/>
	<path class="st0" d="M23.9,24.3H3.1v6.4h20.8V24.3z M22.9,29.8H4.1v-4.4h18.8V29.8z"/>
	<path class="st0" d="M4.1,33.5h18.8v1.9h4.3V5.1H14c0.1-0.3,0.3-0.6,0.4-0.9c0.5-1.2,1-2.4,1.4-3.6L10.9,0
		c-0.1,0.6-0.2,1.3-0.4,2.1c-0.2,0.8-0.4,1.5-0.6,2.3C9.9,4.6,9.8,4.8,9.7,5.1H0v30.4h4.1V33.5z M3.1,34.5H1V6.1h9.5l0.2-0.9
		c0.1-0.2,0.1-0.4,0.2-0.5c0.2-0.8,0.4-1.5,0.6-2.3c0.1-0.4,0.2-0.8,0.3-1.2l2.7,0.3c-0.3,0.8-0.6,1.6-0.9,2.3
		c-0.1,0.3-0.3,0.6-0.4,0.9l-0.6,1.4h13.8v28.4h-2.3v-1.9H3.1V34.5z"/>
	<path class="st0" d="M34.1,15.9c0.4,0.4,0.9,0.8,1.3,1.2c0.4,0.4,0.8,0.8,1,1c1.1-0.9,2.2-1.8,3.3-2.9v2.9h6.8
		c-0.1,0.7-0.2,1.5-0.4,2.2c-0.3,1.6-0.9,3.2-1.7,4.7c-0.8,1.5-1.9,2.8-3.4,4s-3.5,2.2-6.1,3.1c0.3,0.3,0.7,0.6,1,1.1
		c0.3,0.4,0.7,0.9,0.9,1.3c0.3,0.5,0.5,0.9,0.7,1.3c2.8-1,5-2.3,6.7-3.7c1.7-1.5,3-3.1,4-4.9c0.9-1.8,1.6-3.7,2-5.7
		c0.2-1.1,0.4-2.2,0.6-3.4h8.2c-0.1,2.1-0.2,4-0.3,5.5c-0.2,2.3-0.3,4-0.6,5.1c-0.2,1.1-0.5,1.9-0.8,2.2c-0.2,0.2-0.4,0.3-0.7,0.4
		c-0.2,0.1-0.5,0.1-0.9,0.1c-0.5,0-1.2,0-2.1,0c-0.9,0-2-0.1-3.1-0.2c0.4,0.6,0.7,1.3,1,2c0.3,0.8,0.4,1.5,0.4,2.1
		c1.1,0.1,2.2,0.1,3.3,0.1s1.9,0,2.6-0.1c0.7-0.1,1.3-0.3,1.8-0.5c0.5-0.2,1-0.6,1.5-1.2c0.4-0.4,0.6-1,0.9-1.8s0.4-1.9,0.6-3.3
		c0.2-1.4,0.3-3.1,0.4-5.2c0.1-2.1,0.3-4.5,0.4-7.4c0-0.2,0-0.4,0-0.7c0-0.1,0-0.1,0-0.2c0.9,1,1.9,2,2.8,2.8c0.3-0.4,0.6-0.8,1-1.3
		c0.4-0.4,0.8-0.9,1.3-1.3c0.4-0.4,0.8-0.8,1.2-1.1c-1-0.8-2.1-1.7-3.2-2.7c-1.1-1.1-2.1-2.2-3.2-3.4s-2-2.5-2.8-3.7
		c-0.9-1.3-1.6-2.5-2.2-3.7l-4,1.6c0.8,1.4,1.6,2.9,2.5,4.4c0.9,1.5,1.9,2.9,3,4.3c0.9,1.2,1.8,2.3,2.8,3.3h-2.1h-1.3H40.7
		c0.1-0.1,0.2-0.2,0.3-0.3c1.5-1.7,2.9-3.6,4.2-5.6c1.3-2,2.4-4.1,3.3-6.3l-4.4-1.3c-0.8,1.9-1.7,3.8-2.9,5.6
		c-1.2,1.8-2.5,3.4-3.9,4.9c-1.4,1.5-2.9,2.8-4.5,3.8C33.2,15.1,33.6,15.5,34.1,15.9z M60.6,10.1c-1-1.3-2-2.7-2.9-4.2
		c-0.7-1.1-1.4-2.2-2-3.3l2.1-0.8c0.5,1,1.2,2,1.8,3c0.9,1.3,1.8,2.6,2.9,3.8c1,1.2,2.1,2.4,3.2,3.5c0.8,0.8,1.6,1.5,2.3,2.1
		c-0.1,0.1-0.2,0.2-0.3,0.3c-0.5,0.4-0.9,0.9-1.3,1.4c-0.1,0.1-0.3,0.3-0.4,0.4c-0.6-0.6-1.3-1.2-1.9-2l-0.4-0.4l-0.5-0.5
		C62.4,12.3,61.5,11.2,60.6,10.1z M62.5,15.1v0.1c0,0.2,0,0.4,0,0.5c-0.1,3-0.3,5.4-0.4,7.5c-0.1,2-0.3,3.8-0.4,5.1
		c-0.2,1.3-0.3,2.4-0.6,3.1c-0.2,0.8-0.5,1.2-0.6,1.4c-0.4,0.5-0.8,0.8-1.1,1c-0.4,0.2-1,0.3-1.6,0.4c-0.6,0.1-1.4,0.1-2.4,0.1
		c-0.8,0-1.6,0-2.4,0c-0.1-0.4-0.2-0.9-0.4-1.4c-0.1-0.2-0.1-0.4-0.2-0.6c0.5,0,1,0,1.4,0.1c1,0,1.7,0,2.1,0c0.5,0,0.9-0.1,1.2-0.2
		c0.4-0.1,0.8-0.3,1.1-0.7c0.5-0.5,0.8-1.3,1.1-2.7c0.2-1.2,0.4-2.9,0.6-5.2c0.1-1.5,0.2-3.4,0.3-5.5l0-1H50L49.9,18
		c-0.2,1.2-0.4,2.3-0.6,3.3c-0.4,1.9-1,3.7-1.9,5.4c-0.9,1.7-2.1,3.2-3.7,4.6c-1.4,1.2-3.3,2.3-5.6,3.2c-0.1-0.2-0.2-0.4-0.3-0.5
		c-0.3-0.5-0.6-1-1-1.4c0,0,0,0,0,0c2-0.8,3.6-1.7,4.9-2.7c1.6-1.3,2.8-2.8,3.7-4.3c0.8-1.5,1.4-3.2,1.8-4.9
		c0.1-0.7,0.3-1.5,0.4-2.3l0.2-1.1h-6.9v-2H62.5z M38.1,11.8c1.5-1.5,2.8-3.2,4-5.1c1-1.6,1.9-3.2,2.6-4.9l2.4,0.7
		c-0.8,1.8-1.8,3.5-2.8,5.1c-1.3,2-2.6,3.8-4.1,5.4L39.5,14L39,14.5c-0.8,0.8-1.6,1.6-2.5,2.3c-0.1-0.1-0.3-0.3-0.4-0.4
		c-0.4-0.4-0.9-0.8-1.3-1.3c-0.1-0.1-0.1-0.1-0.2-0.2C35.8,14,37,13,38.1,11.8z"/>
	<path class="st0" d="M174.2,8.7c0.4,0.7,0.8,1.4,1.2,2.2l3-1.5c-0.3-0.6-0.6-1.2-1.1-1.9c-0.4-0.7-0.9-1.5-1.4-2.2
		c-0.5-0.7-0.9-1.3-1.2-1.8l-3,1.4c0.5,0.6,0.9,1.2,1.3,1.9C173.4,7.4,173.8,8.1,174.2,8.7z M174.3,4.8c0.2,0.3,0.5,0.7,0.7,1.1
		c0.5,0.7,0.9,1.4,1.3,2.2c0.2,0.3,0.4,0.7,0.6,1l-1.2,0.6c-0.2-0.5-0.5-0.9-0.7-1.3c-0.4-0.7-0.8-1.3-1.2-2c-0.2-0.3-0.4-0.6-0.6-1
		L174.3,4.8z"/>
	<path class="st0" d="M169.6,5.5l-3,1.3c0.5,0.6,0.9,1.3,1.3,1.9c0.4,0.7,0.8,1.3,1.1,2c0.4,0.7,0.7,1.4,1.1,2.2l3.1-1.4
		c-0.3-0.6-0.7-1.3-1.1-2c-0.4-0.8-0.9-1.5-1.3-2.2C170.3,6.7,169.9,6.1,169.6,5.5z M171.8,11.2l-1.2,0.5c-0.2-0.5-0.5-0.9-0.7-1.4
		c-0.4-0.7-0.8-1.4-1.2-2.1c-0.2-0.3-0.4-0.7-0.6-1l1.1-0.5c0.2,0.3,0.5,0.7,0.7,1.1c0.4,0.7,0.9,1.4,1.3,2.2
		C171.4,10.5,171.6,10.8,171.8,11.2z"/>
	<path class="st0" d="M124.2,4.8h17.5V1.6h-17.5V4.8z M125.2,2.6h15.5v1.2h-15.5V2.6z"/>
	<path class="st0" d="M108.9,14.6c0.3,0.3,0.5,0.8,0.8,1.3c0.3,0.5,0.5,1.1,0.8,1.6c0.3,0.5,0.4,1,0.6,1.3c1.2-1.2,2.3-2.5,3.5-4
		v20.7h3.9V8.8c0.2-0.3,0.4-0.7,0.6-1c1.2-2.1,2.2-4.3,3.1-6.4l-3.8-1.2c-0.7,1.8-1.6,3.6-2.5,5.4c-1,1.8-2.1,3.4-3.2,5
		C111.3,12.1,110.1,13.4,108.9,14.6z M113.3,11.1c1.2-1.6,2.3-3.3,3.3-5.1c0.8-1.5,1.6-3.1,2.3-4.6l1.9,0.6
		c-0.8,1.8-1.6,3.5-2.6,5.3c-0.1,0.2-0.2,0.4-0.3,0.6l-0.4,0.7v25.9h-1.9V11.8l-1.8,2.4c-0.8,1-1.6,2-2.3,2.8
		c-0.3-0.5-0.5-1.1-0.8-1.6c-0.1-0.3-0.3-0.5-0.4-0.7C111.2,13.7,112.3,12.5,113.3,11.1z"/>
	<path class="st0" d="M154.4,13.7c0,1.4-0.1,2.8-0.1,4.3c-0.1,1.4-0.1,2.8-0.1,4.2c0,1.4,0,2.6,0,3.6c0,2.1,0.4,3.9,1.2,5.2
		s2,2.3,3.5,2.9c1.5,0.6,3.2,0.9,5.2,0.9c2.2,0,4.1-0.3,5.8-0.8c1.7-0.5,3.3-1.3,4.6-2.1C175.9,31,177,30,178,29
		c1-1,1.8-1.9,2.4-2.8l-3.1-3.8c-0.7,1-1.5,2-2.3,2.9c-0.9,0.9-1.8,1.8-2.9,2.5c-1.1,0.7-2.3,1.3-3.6,1.7c-1.3,0.4-2.8,0.6-4.4,0.6
		c-1,0-2-0.2-2.8-0.5c-0.8-0.3-1.5-0.9-2-1.7c-0.5-0.8-0.7-1.8-0.7-3.1c0-1.2,0-2.7,0.1-4.3c0-1.6,0.1-3.2,0.1-4.9s0.1-3.3,0.2-4.8
		c0.1-1.5,0.1-2.8,0.2-3.8c0.1-0.7,0.1-1.5,0.2-2.3c0.1-0.8,0.2-1.6,0.3-2.4l-5.5,0c0.2,0.7,0.3,1.4,0.4,2.2
		c0.1,0.8,0.1,1.6,0.1,2.5c0,0.7,0,1.6,0,2.7C154.4,11.1,154.4,12.3,154.4,13.7z M155.2,22.2c0-1.3,0.1-2.7,0.1-4.2
		c0.1-1.4,0.1-2.9,0.1-4.3c0-1.4,0.1-2.7,0.1-3.8c0-1.1,0-2.1,0-2.8c0-0.9,0-1.8-0.1-2.6c0-0.4-0.1-0.8-0.1-1.2l3.2,0
		c0,0.4-0.1,0.9-0.1,1.3c-0.1,0.8-0.1,1.6-0.2,2.4c-0.1,1.1-0.1,2.3-0.2,3.9c-0.1,1.5-0.1,3.1-0.2,4.8c-0.1,1.7-0.1,3.3-0.1,4.9
		c0,1.6-0.1,3.1-0.1,4.3c0,1.5,0.3,2.7,0.9,3.6c0.6,0.9,1.4,1.6,2.5,2c0.9,0.4,2,0.6,3.2,0.6c1.7,0,3.3-0.2,4.7-0.7
		c1.4-0.5,2.7-1.1,3.8-1.9c1.1-0.8,2.2-1.6,3.1-2.6c0.6-0.6,1.1-1.3,1.6-2l1.8,2.1c-0.5,0.7-1.1,1.4-1.9,2.1c-0.9,0.9-2,1.8-3.3,2.7
		c-1.3,0.8-2.7,1.5-4.4,2c-1.6,0.5-3.5,0.8-5.5,0.8c-1.8,0-3.5-0.3-4.9-0.8c-1.3-0.5-2.3-1.4-3-2.5c-0.7-1.2-1.1-2.7-1.1-4.7
		C155.1,24.7,155.1,23.5,155.2,22.2z"/>
	<path class="st0" d="M120.6,10.3h24.5V7h-24.5V10.3z M121.6,8h22.5v1.3h-22.5V8z"/>
	<path class="st0" d="M194.2,22.2c1-1,2.1-1.8,3.2-2.4c1.1-0.7,2.3-1.2,3.5-1.5c1.2-0.4,2.6-0.6,4.1-0.6c1.5,0,2.9,0.3,4.1,0.8
		c1.2,0.5,2.2,1.2,2.9,2.1c0.7,0.9,1.1,1.9,1.1,3.1c0,1.4-0.4,2.6-1.1,3.6c-0.6,0.8-1.4,1.4-2.5,1.9c-0.1-1-0.5-1.9-0.9-2.8
		c-0.6-1.2-1.5-2.1-2.7-2.8c-1.2-0.7-2.6-1-4.4-1c-1.3,0-2.4,0.3-3.4,0.8c-1,0.5-1.8,1.2-2.3,2.1c-0.5,0.9-0.8,1.8-0.8,2.8
		c0,1.2,0.4,2.3,1.2,3.2c0.8,0.9,1.8,1.6,3.2,2.1c1.4,0.5,2.9,0.7,4.7,0.7c3,0,5.5-0.5,7.5-1.4c2-0.9,3.5-2.2,4.6-3.8
		s1.5-3.4,1.5-5.4c0-1.8-0.5-3.4-1.5-4.8c-1-1.4-2.3-2.5-4-3.3c-1.7-0.8-3.6-1.2-5.7-1.2c-0.7,0-1.4,0-2,0.1
		c-0.7,0.1-1.4,0.2-2.1,0.4c0.7-0.5,1.4-1.1,2.2-1.8c0.8-0.7,1.6-1.3,2.5-2c0.8-0.7,1.6-1.3,2.4-1.9c0.7-0.6,1.4-1.1,1.9-1.4
		c0.4-0.3,0.8-0.6,1.3-0.9c0.4-0.3,0.8-0.5,1.3-0.8l-2.2-3.1c-0.2,0.1-0.6,0.1-1,0.2c-0.4,0.1-1,0.1-1.7,0.2c-0.4,0-1.1,0.1-1.9,0.1
		c-0.8,0.1-1.8,0.1-2.8,0.1c-1.1,0-2.1,0.1-3.1,0.1c-1,0-2,0.1-2.8,0.1c-0.8,0-1.5,0-1.9,0c-0.5,0-1,0-1.6-0.1
		c-0.6,0-1.1-0.1-1.6-0.1L193,8c0.4-0.1,0.9-0.1,1.4-0.2c0.5,0,1-0.1,1.5-0.1c0.4,0,0.9-0.1,1.6-0.1c0.7,0,1.4-0.1,2.2-0.1
		c0.8,0,1.6-0.1,2.4-0.1c0.8,0,1.5-0.1,2.2-0.1c0.7,0,1.2-0.1,1.6-0.1c-0.5,0.4-1,0.9-1.7,1.5c-0.7,0.6-1.5,1.2-2.2,1.9
		c-0.8,0.7-1.5,1.3-2.3,1.9c-0.7,0.6-1.4,1.1-1.9,1.6c-0.6,0.5-1.2,1-2.1,1.7c-0.8,0.7-1.7,1.4-2.6,2.2s-1.8,1.5-2.7,2.2
		c-0.9,0.7-1.7,1.4-2.4,1.9l3.1,3.2C192.1,24.2,193.2,23.1,194.2,22.2z M189.4,22.3c0.5-0.4,1-0.8,1.5-1.3l2.7-2.2
		c0.9-0.8,1.8-1.5,2.6-2.2c0.8-0.7,1.5-1.2,2-1.7c0.5-0.4,1.2-1,1.9-1.6c0.7-0.6,1.5-1.2,2.3-1.9l2.2-1.9c0.7-0.6,1.3-1.1,1.8-1.5
		l2-1.7h-2.6c-0.4,0-0.9,0-1.6,0.1c-0.7,0-1.4,0.1-2.1,0.1c-0.8,0-1.6,0.1-2.4,0.1c-0.8,0-1.5,0.1-2.2,0.1l-1.6,0.1
		c-0.5,0-1,0.1-1.5,0.1c-0.1,0-0.3,0-0.4,0l-0.1-2.2c0.2,0,0.3,0,0.5,0c0.6,0,1.2,0.1,1.7,0.1c0.4,0,1,0,1.9,0
		c0.8,0,4.5-0.1,4.5-0.1l1.4,0c1.1,0,2-0.1,2.9-0.1l1.9-0.1c0.7-0.1,1.3-0.1,1.8-0.2c0.1,0,0.3,0,0.4-0.1l1.2,1.7
		c-0.1,0.1-0.2,0.2-0.4,0.2c-0.5,0.3-0.9,0.6-1.3,0.9c-0.5,0.3-1.1,0.8-1.9,1.4c-0.7,0.6-1.5,1.2-2.4,1.9c-0.8,0.7-1.7,1.4-2.5,2
		l-2.2,1.8l0.9,1.7c0.6-0.2,1.3-0.3,1.9-0.4c0.6-0.1,1.3-0.1,1.9-0.1c2,0,3.7,0.4,5.3,1.1c1.5,0.7,2.7,1.7,3.6,3
		c0.9,1.2,1.3,2.6,1.3,4.3c0,1.8-0.5,3.4-1.4,4.9c-0.9,1.4-2.3,2.6-4.1,3.4c-1.9,0.9-4.2,1.3-7,1.3c-1.6,0-3.1-0.2-4.3-0.7
		c-1.2-0.4-2.1-1-2.8-1.8c-0.6-0.7-0.9-1.5-0.9-2.5c0-0.8,0.2-1.5,0.7-2.2c0.5-0.7,1.1-1.3,1.9-1.7c0.8-0.5,1.8-0.7,2.9-0.7
		c1.5,0,2.8,0.3,3.8,0.9c1,0.6,1.8,1.4,2.3,2.4c0.4,0.8,0.7,1.6,0.8,2.4l0.2,1.3l1.2-0.6c1.2-0.6,2.1-1.3,2.8-2.2
		c0.9-1.2,1.3-2.6,1.3-4.2c0-1.4-0.4-2.6-1.3-3.7c-0.8-1-1.9-1.8-3.3-2.4c-1.3-0.6-2.8-0.8-4.5-0.8c-1.6,0-3.1,0.2-4.4,0.6
		c-1.3,0.4-2.6,0.9-3.7,1.6c-1.1,0.7-2.3,1.5-3.3,2.5c-0.8,0.8-1.6,1.6-2.5,2.5L189.4,22.3z"/>
	<path class="st0" d="M205.2,26.6c-0.9-1.2-2.2-1.7-3.7-1.7c-1,0-1.8,0.3-2.5,0.9c-0.7,0.6-1,1.3-1,2.2c0,0.8,0.3,1.9,1.7,2.7
		c0.9,0.5,2.1,0.8,3.6,0.8c0.8,0,1.7,0,2.5-0.2l1-0.1l-0.1-1C206.4,28.7,205.9,27.5,205.2,26.6z M203.1,30.4c-1.3,0-2.3-0.2-3.1-0.7
		c-0.8-0.5-1.2-1.1-1.2-1.8c0-0.5,0.2-1,0.7-1.4c0.5-0.4,1.1-0.6,1.8-0.6c1.2,0,2.2,0.5,3,1.4c0.6,0.8,1,1.8,1.1,3
		C204.8,30.3,204,30.4,203.1,30.4z"/>
	<path class="st0" d="M123.7,21.1h18.7v-3.2h-18.7V21.1z M124.7,18.9h16.7v1.2h-16.7V18.9z"/>
	<path class="st0" d="M142.4,12.5h-18.8v3.2h18.8V12.5z M141.4,14.7h-16.8v-1.2h16.8V14.7z"/>
	<path class="st0" d="M139.8,25.4H126v6.2h13.8V25.4z M138.8,30.7H127v-4.2h11.8V30.7z"/>
	<path class="st0" d="M123.1,35.5h3.9v-1.6h11.8v1.4h4.1V23.3h-19.8V35.5z M124.1,24.3h17.8v10.1h-2.1v-1.4H126v1.6h-1.9V24.3z"/>
	<path class="st0" d="M77.6,16c-1.2,1.4-2.7,3-4.3,4.6l3.6,2.7c0.7-0.8,1.3-1.6,1.8-2.3c0.6-0.7,1.1-1.3,1.7-1.9
		c0.8-0.7,1.7-1.4,2.8-1.9c1.1-0.5,2.2-0.8,3.3-0.8c0.8,0,1.6,0.2,2.2,0.7c0.3,0.2,0.5,0.5,0.7,0.9c-0.9,0.5-1.7,0.9-2.6,1.5
		c-1.2,0.7-2.2,1.5-3.2,2.3c-1,0.8-1.7,1.8-2.3,2.8c-0.6,1-0.9,2.2-0.9,3.4c0,1.6,0.4,2.8,1.3,3.7c0.9,0.9,2.1,1.5,3.7,1.9
		c1.5,0.4,3.3,0.6,5.2,0.6c1.2,0,2.4,0,3.7-0.1c1.3-0.1,2.6-0.1,3.8-0.2c1.2-0.1,2.3-0.2,3.1-0.3l0.2-4.4c-1.7,0.3-3.5,0.6-5.4,0.7
		s-3.7,0.3-5.3,0.3c-0.9,0-1.8,0-2.5-0.1c-0.7-0.1-1.4-0.2-1.9-0.4c-0.5-0.2-0.9-0.5-1.1-0.9C85.1,28.5,85,28,85,27.4
		c0-0.8,0.2-1.5,0.7-2.1c0.4-0.6,1.1-1.3,1.9-1.9c0.6-0.5,1.4-0.9,2.2-1.4c0,0.5,0,0.9,0,1.4c0,0.7,0,1.4-0.1,2
		c0,0.6-0.1,1.2-0.1,1.6h4.1c0-0.6,0-1.3,0-2.1c0-0.8,0-1.6-0.1-2.4c0-0.8,0-1.6,0-2.3c0,0,0-0.1,0-0.1c0.7-0.3,1.5-0.7,2.2-1
		c1.7-0.7,3.2-1.3,4.4-1.8c0.4-0.2,0.9-0.3,1.4-0.5c0.5-0.2,1-0.4,1.5-0.6c0.5-0.2,0.9-0.3,1.3-0.4l-1.7-4c-0.6,0.3-1.3,0.6-1.9,1
		s-1.3,0.6-2,0.9c-0.8,0.4-1.6,0.7-2.5,1.1c-0.8,0.4-1.8,0.8-2.8,1.2c-0.1,0.1-0.2,0.1-0.4,0.2c-0.3-0.7-0.7-1.3-1.2-1.7
		c-1-0.9-2.3-1.3-3.9-1.3c-0.5,0-1,0-1.5,0.1c-0.6,0.1-1.1,0.2-1.7,0.3c-0.5,0.1-1,0.3-1.4,0.5c0.6-0.8,1.2-1.8,1.8-2.9
		c0.3-0.5,0.6-1.1,0.8-1.6c1.1,0,2.2-0.1,3.4-0.2c1.6-0.1,3.1-0.2,4.7-0.3c1.5-0.1,3-0.3,4.3-0.5v-4c-1.8,0.3-3.7,0.6-5.8,0.7
		c-1.7,0.2-3.5,0.3-5.2,0.4c0.1-0.4,0.3-0.9,0.4-1.3c0.3-1.1,0.5-2,0.6-2.7l-4.5-0.4c-0.1,1-0.2,2-0.5,3.1c-0.1,0.5-0.2,0.9-0.4,1.4
		c-0.7,0-1.4,0-2,0c-0.9,0-2,0-3.3-0.1c-1.2-0.1-2.4-0.2-3.3-0.3v4c0.7,0,1.5,0.1,2.2,0.1c0.8,0.1,1.5,0.1,2.3,0.1
		c0.7,0,1.3,0,1.9,0c0.2,0,0.5,0,0.8,0c-0.3,0.7-0.7,1.3-1.1,2C79.9,13.1,78.9,14.6,77.6,16z M82.7,10.2l0.7-1.5l-2.4,0
		c-0.5,0-1.1,0-1.9,0c-0.7,0-1.4,0-2.2-0.1c-0.4,0-0.9-0.1-1.3-0.1V6.7c0.7,0.1,1.5,0.1,2.3,0.2C79.1,6.9,80.3,7,81.2,7
		c0.7,0,1.3,0,2,0l0.7,0l0.2-0.7c0.1-0.5,0.3-1,0.4-1.4C84.8,4,84.9,3.3,85,2.6l2.3,0.2c-0.1,0.5-0.2,1-0.4,1.5
		c-0.1,0.4-0.2,0.8-0.3,1.2l-0.4,1.4l1.4,0c1.9-0.1,3.6-0.2,5.2-0.4c1.6-0.2,3.2-0.3,4.7-0.6v1.9c-1.1,0.1-2.2,0.3-3.4,0.4
		c-1.5,0.1-3.1,0.3-4.7,0.3c-1.2,0.1-2.3,0.1-3.4,0.1l-0.6,0l-0.3,0.6c-0.2,0.5-0.5,1-0.8,1.5c-0.5,1-1.1,1.9-1.7,2.7L84,15
		c0.3-0.2,0.7-0.3,1.2-0.4c0.5-0.1,1-0.2,1.6-0.3c0.5-0.1,1-0.1,1.4-0.1c1.3,0,2.4,0.4,3.3,1.1c0.4,0.4,0.7,0.8,0.9,1.3l0.4,1L94,17
		c1-0.4,1.9-0.8,2.7-1.2c0.9-0.4,1.7-0.7,2.5-1.1c0.7-0.3,1.4-0.6,2-0.9c0.3-0.2,0.7-0.3,1-0.5l0.9,2c-0.1,0-0.2,0.1-0.3,0.1
		c-0.5,0.2-1,0.4-1.5,0.6l-1.4,0.5c-1.3,0.5-2.8,1.1-4.5,1.8c-0.7,0.3-1.5,0.6-2.2,1l-0.6,0.3l0,0.8l0,2.3c0,0.8,0,1.6,0.1,2.4
		c0,0.4,0,0.7,0,1h-2c0-0.2,0-0.4,0-0.6c0-0.6,0-1.3,0.1-2c0-0.4,0-0.8,0-1.3l0-1.9l-1.5,0.8c-0.9,0.5-1.7,1-2.3,1.5
		c-0.9,0.7-1.7,1.4-2.2,2.1c-0.6,0.8-0.8,1.7-0.8,2.7c0,0.8,0.2,1.5,0.5,2c0.4,0.5,0.9,1,1.6,1.2c0.6,0.2,1.3,0.4,2.1,0.5
		c0.8,0.1,1.7,0.1,2.6,0.1c1.6,0,3.4-0.1,5.4-0.3c1.5-0.1,2.9-0.3,4.3-0.5l-0.1,2.3c-0.7,0.1-1.4,0.1-2.3,0.2
		c-1.2,0.1-2.5,0.2-3.7,0.2c-1.3,0-2.5,0.1-3.7,0.1c-1.8,0-3.5-0.2-5-0.5c-1.4-0.3-2.4-0.9-3.2-1.6c-0.7-0.7-1.1-1.7-1.1-3
		c0-1.1,0.2-2.1,0.7-2.9c0.5-0.9,1.2-1.8,2.1-2.6c0.9-0.8,1.9-1.5,3-2.2c0.9-0.5,1.7-1,2.6-1.4l0.8-0.4l-0.4-0.9
		c-0.2-0.5-0.6-0.9-1-1.2c-0.8-0.6-1.8-0.9-2.8-0.9c-1.3,0-2.5,0.3-3.8,0.9c-1.2,0.6-2.2,1.3-3.1,2.1c-0.6,0.6-1.2,1.2-1.8,1.9
		c-0.4,0.5-0.8,1-1.2,1.5l-1.9-1.4c1.3-1.3,2.5-2.6,3.6-3.8c1.2-1.5,2.3-3,3.1-4.4C81.9,11.6,82.3,10.9,82.7,10.2z"/>
</g>
</svg>
