<?xml version="1.0" encoding="utf-8"?>
<!-- Generator: Adobe Illustrator 27.9.1, SVG Export Plug-In . SVG Version: 6.00 Build 0)  -->
<svg version="1.1" id="Layer_1" xmlns:inkscape="http://www.inkscape.org/namespaces/inkscape"
	 xmlns="http://www.w3.org/2000/svg" xmlns:xlink="http://www.w3.org/1999/xlink" x="0px" y="0px" viewBox="0 0 211 32.5"
	 style="enable-background:new 0 0 211 32.5;" xml:space="preserve">
<style type="text/css">
	.st0{fill:#070707;}
</style>
<g>
	<path class="st0" d="M22.6,3.9c-3,0-6,0-8.8,0.1c0.3-1.2,0.5-2.2,0.7-3.2L9.3,0.6C8.9,2,8.5,3.3,8.1,4.4L5.9,4.6L5.7,3.2L0,4
		c0.3,3.6,0.5,11.8,0.5,24.5l0,3.5c7.7-0.2,16.5-0.3,26.4-0.3c0.2-5.5,0.3-13,0.3-22.7C27.2,5.7,25.6,4.1,22.6,3.9z M20.8,26.8
		c-5.7,0.1-10.6,0.1-14.8,0.1v-3c1.7,0,6.6-0.2,14.9-0.4L20.8,26.8z M21,19.1c-8.1,0.2-13.1,0.4-15,0.4v-3.1
		c5.5-0.2,10.6-0.3,15.1-0.4L21,19.1z M21.3,11.7c-5.6,0.1-10.7,0.2-15.4,0.4c0-1.3,0-2.2,0-2.9c5.4-0.4,9.6-0.7,12.7-0.7
		c0.9,0,1.5,0,1.9,0.1c0.6,0.1,0.9,0.6,0.9,1.4C21.4,10.9,21.4,11.5,21.3,11.7z"/>
	<path class="st0" d="M58.9,0.3l-5.9,1.6c3,2.7,5.3,6,6.8,10c-1.9-0.1-3.5-0.2-5-0.2c-2.3,0-6.3,0.2-12.1,0.5
		c1.1-1.2,2.3-2.9,3.5-5.1s2-4.2,2.5-5.7L43,0c-0.4,1.9-1.4,3.9-2.9,5.9c-1.5,2-3.6,3.9-6.2,5.7l3.7,4.4c0.5-0.2,1.3-0.7,2.3-1.5
		L39.9,18l5.3-0.3c-1.1,4-4.1,7.5-9,10.6l5.6,4.2c4.7-3.2,7.9-8.3,9.5-15.1c1.9,0,3.1,0,3.7,0c1.7,0,2.7,0.5,3,1.2
		c0.3,0.8,0.4,2.1,0.4,3.9c0,1.4-0.1,2.3-0.3,2.7c-0.2,0.4-0.6,0.7-1.1,0.7c-0.6,0.1-0.9,0.1-1,0.1c-1.5,0-2.7-0.1-3.7-0.3l0.4,5.9
		c1.9,0.4,4,0.6,6.4,0.5l0.8,0c1.4-0.1,2.4-0.7,3.1-1.7c0.7-1,1-2.1,1.1-3.2s0.1-1.9,0.1-2.4c0.2-6.1-0.1-9.9-1.1-11.4l4.5-1.6
		C65.1,7.5,62.2,3.7,58.9,0.3z"/>
	<path class="st0" d="M99.7,9.4c-5.3,1.3-9.7,3-13.3,5c-0.4-0.1-0.8-0.3-0.9-0.4c-0.2-0.1-0.3-0.3-0.3-0.5c0-0.5,0.4-1.9,1.1-4.2
		c3.2-0.4,6.3-0.6,9.3-0.6c0.3,0,0.7,0,1.1,0L97,3.3c-0.8,0-1.7-0.1-2.6-0.1c-2,0-4.1,0.1-6.2,0.3c0.3-0.8,0.6-1.5,0.9-2l-5.8-1
		c-0.5,1.2-0.9,2.5-1.3,3.7c-2.6,0.4-5.1,0.9-7.5,1.4l0.9,5.5c1.6-0.4,3.2-0.7,4.8-1c-0.6,2.5-1,4.2-1,5.2c0,0.6,0.2,1.2,0.5,1.6
		c0.3,0.4,0.9,0.8,1.8,1.3c-1.8,2-2.7,4-2.7,6.1c0,4.5,4.2,6.8,12.5,6.8c2.9,0,6-0.3,9.3-0.8l-0.4-5.9c-3.3,0.7-6.6,1.1-9.9,1.1
		c-3.6,0-5.4-0.6-5.4-1.8c0-0.9,0.9-2,2.8-3.3c2.4,0.8,4.8,2,7.3,3.5l2.7-4.8c-1.2-0.8-2.4-1.5-3.7-2c2.5-1,5-1.8,7.5-2.4L99.7,9.4z
		"/>
	<path class="st0" d="M118.5,1.1l-5.2-0.6c-0.7,6.3-2.8,11.2-6.2,14.9l2.9,5.5c0.7-0.6,1.2-1.2,1.5-1.8c0,5-0.2,9.3-0.5,12.9l6,0.2
		l0-4.5c0-5.8-0.1-11.8-0.3-18C117.6,7.4,118.2,4.6,118.5,1.1z"/>
	<path class="st0" d="M129.7,9.4c-4.5,0.1-7.5,0.2-9.1,0.2l0.1,4.3l9.1-0.2c5.6-0.1,8.8-0.1,9.5-0.2L139,9.2
		C137.3,9.2,134.1,9.3,129.7,9.4z"/>
	<path class="st0" d="M136,20.9h-0.9c-5.3,0-10.6,0.2-15.7,0.7c0.1,2.3,0.1,5,0.1,8.2l0,2.6c3.8-0.1,10.6-0.3,20.3-0.5
		c0.4-2.7,0.6-4.8,0.6-6.5C140.3,22.5,138.9,21,136,20.9z M135.1,26.5c0,0.3,0,0.7-0.1,1.1c-6.3,0.2-9.8,0.3-10.6,0.3
		c0-0.5,0-1.3-0.1-2.3c2.4-0.3,5.2-0.5,8.5-0.5c0.5,0,1,0,1.3,0.1c0.6,0.1,0.9,0.4,0.9,1V26.5z"/>
	<path class="st0" d="M132.5,3.2c-0.2-0.6-0.6-1.5-1.2-2.7L126.3,1c0.5,1.2,0.8,2,0.9,2.3c-3.2,0.1-6.1,0.1-8.8,0.1l0.1,4.6l13-0.3
		c5.5-0.1,8.6-0.1,9.5-0.2l-0.3-4.5C139.3,3.1,136.6,3.2,132.5,3.2z"/>
	<path class="st0" d="M120.5,15.4l0.1,4.3l9.1-0.3c5.7,0,8.8-0.1,9.5-0.1l-0.2-4.3c-1.7,0-4.8,0.1-9.3,0.2
		C125.2,15.4,122.2,15.4,120.5,15.4z"/>
	<polygon class="st0" points="174.7,7.2 170.6,3.6 168.1,5.8 172.2,9.7 	"/>
	<polygon class="st0" points="170.1,10.1 167.2,5.2 164.2,6.8 167,11.9 	"/>
	<path class="st0" d="M166.5,23.5c-1.6,1-3.3,1.5-5,1.5c-1.8,0-3.1-0.5-3.9-1.4c-0.8-0.9-1.3-2.3-1.3-4.2c0-1.7,0.3-4.2,0.9-7.3
		c0.6-3.2,1.4-6.4,2.4-9.7l-6.6-1c-0.9,3.3-1.6,6.8-2.2,10.4c-0.6,3.6-0.9,6.4-0.9,8.5c0,3.5,1,6.2,3,8.1c2,1.9,4.8,2.9,8.5,2.9
		c2.8,0,5.4-0.6,7.8-1.9c2.4-1.2,4.8-3.3,7.2-6l-4.6-4.8C169.9,20.9,168.1,22.5,166.5,23.5z"/>
	<path class="st0" d="M204.1,11.9c1.8-1.4,2.7-3,2.7-5c0-1.7-0.8-2.9-2.3-3.7c-1.5-0.8-3.9-1.2-7-1.2s-6.6,0.3-10.3,0.8l1,5.7
		c3.6-0.6,6.8-1,9.7-1c1.6,0,2.3,0.2,2.3,0.7c0,0.9-2.4,2-7.3,3.1l1.1,5.4c1.5-0.4,3.2-0.6,5-0.6c1.8,0,3.3,0.4,4.3,1.2
		c1.1,0.8,1.6,2,1.6,3.5c0,1.5-0.6,2.7-1.7,3.5c-1.2,0.9-2.8,1.3-5,1.4l3-2.6c-2.2-3.5-5.1-5.2-8.5-5.2c-1.8,0-3.3,0.6-4.5,1.8
		c-1.2,1.2-1.9,2.7-1.9,4.5c0,2.2,1,4,3,5.3c2,1.3,4.7,1.9,8.2,1.9c4.2,0,7.6-0.9,10-2.8c2.4-1.8,3.6-4.4,3.6-7.6
		c0-2.2-0.6-4.1-1.8-5.7C208,13.8,206.3,12.6,204.1,11.9z M193,25.2c-0.8-0.3-1.2-0.8-1.2-1.2c0-0.5,0.4-0.7,1.1-0.7
		c0.4,0,0.9,0.2,1.5,0.7c0.6,0.5,1.2,1.1,1.7,1.9C194.8,25.7,193.8,25.5,193,25.2z"/>
</g>
</svg>
