<?xml version="1.0" encoding="utf-8"?>
<!-- Generator: Adobe Illustrator 27.9.1, SVG Export Plug-In . SVG Version: 6.00 Build 0)  -->
<svg version="1.1" id="Layer_1" xmlns:inkscape="http://www.inkscape.org/namespaces/inkscape"
	 xmlns="http://www.w3.org/2000/svg" xmlns:xlink="http://www.w3.org/1999/xlink" x="0px" y="0px" viewBox="0 0 178.8 31.9"
	 style="enable-background:new 0 0 178.8 31.9;" xml:space="preserve">
<style type="text/css">
	.st0{fill:#070707;}
</style>
<g>
	<path class="st0" d="M21,23.1c0.7,0.8,1.3,2.2,1.9,3.9l4.3-1.8c-0.5-1.3-1.3-2.4-2.3-3.3c4.5,0,7.3,0,8.5-0.1
		c0.1-2.8,0.1-5.4,0.1-7.9c0-0.7,0-1.4-0.1-2c-0.2-1.3-0.7-2.1-1.6-2.5c0.7-1.6,1.2-3.4,1.5-5.4l-1.7-0.3l-1.1-3.5
		C26.4,1,20.7,1.4,13.5,1.5l0.9,3.9l-1,0.1c0.6,1.3,1,2.5,1.1,3.7l-1.1,0l-0.1,3.6C22,12.7,27,12.6,28,12.6c0.2,0,0.4,0,0.5,0.1
		c0.1,0.1,0.1,0.3,0.1,0.8l0,0.1c-0.8,0-5.7,0.1-14.8,0.3l0.1,3.5c3.2,0,8-0.1,14.6-0.3v1.2c-5.5,0.1-9.8,0.1-12.7,0.1h-2.7l0.1,3.5
		h10.2L21,23.1z M25.8,24.7l-2.3,1c-0.3-0.9-0.6-1.6-1-2.2l1.4-0.7l-0.2-0.7l0.5,0.5C24.8,23.2,25.4,23.9,25.8,24.7z M22.4,20.9
		h-8.3l0-1.5h1.7c3,0,7.3,0,12.7-0.1l1,0v-3.2l-1,0c-5.9,0.2-10.5,0.3-13.6,0.3l0-1.5c8.4-0.2,13.1-0.3,13.8-0.3h0.6l0.4-0.8l0-0.3
		c0-0.7,0-1.3-0.5-1.6c-0.4-0.3-0.8-0.3-1.1-0.3c-1,0-5.7,0.1-13.8,0.2l0-1.6l1.3,0l-0.1-1.1c-0.1-0.9-0.3-1.8-0.7-2.8l0.8-0.1
		l-0.8-3.8C20.9,2.3,26,2,29.8,1.4l1,3.3l1.3,0.2c-0.3,1.5-0.7,2.9-1.3,4.1l-0.4,0.9l0.9,0.4c0.4,0.2,0.9,0.5,1,1.7
		c0,0.6,0.1,1.2,0.1,1.9c0,2.1,0,4.4-0.1,6.9c-1.5,0-3.9,0-7.5,0.1L22.4,20.9L22.4,20.9z"/>
	<path class="st0" d="M28.4,3.9c-1.2,0.2-2.2,0.4-3,0.6l-1.1,0.2l0.4,1.1c0.2,0.6,0.4,1.2,0.5,1.8l-2.6,0.5c-0.2-1-0.4-1.9-0.6-2.6
		l-0.2-0.8l-0.8,0.1c-1,0.1-1.9,0.1-2.7,0.2l-1.4,0.1l0.6,1.3c0.3,0.6,0.4,1.1,0.5,1.7l-0.5,0.1l0.2,2l10.3,0L28,9.4L28,9.5
		c0.6-1.2,1.1-2.7,1.5-4.4l0.3-1.5L28.4,3.9z M17.5,9.2L19,9c0-1-0.3-2-0.7-2.9C19,6,19.9,5.9,20.9,5.8c0.3,1,0.5,2.1,0.8,3.4
		L17.5,9.2z M27.1,9c0.3,0.1,0.5,0.1,0.7,0.2l-5.4,0l3.7-0.7c-0.1-1-0.3-2-0.6-3c0.8-0.2,1.8-0.4,3-0.6C28.2,6.5,27.7,7.9,27.1,9z"
		/>
	<path class="st0" d="M19.1,31.6c1.1,0.2,2,0.3,2.8,0.3c2.4,0,4.5-0.3,6.4-1l-0.1-4c-3.3,0.7-5.2,1-5.9,1c-0.4,0-0.7,0-1-0.1
		c-0.2-0.1-0.4-0.3-0.5-0.7c-0.1-0.4-0.1-1.7-0.2-4h-4.5l0,3.1c0,1.7,0.2,2.9,0.6,3.7C17.2,30.9,18,31.5,19.1,31.6z M17.1,24h2.6
		c0,2.3,0.1,3,0.2,3.3c0.2,0.9,0.7,1.3,1.1,1.4c0.4,0.1,0.8,0.2,1.3,0.2c0.4,0,1.4-0.1,4.9-0.8l0.1,2c-1.6,0.5-3.5,0.7-5.4,0.7
		c-0.7,0-1.6-0.1-2.6-0.3c-0.8-0.1-1.3-0.5-1.7-1.2c-0.2-0.4-0.4-1.3-0.4-3.2L17.1,24z"/>
	<path class="st0" d="M5.5,31.8l0-9.4c0-5.5-0.1-10.7-0.2-15.8L0.6,7c0.1,1.8,0.2,4.5,0.2,8.1c0,4.1-0.1,9.7-0.4,16.7L5.5,31.8z
		 M1.7,7.9l2.7-0.2c0.1,4.7,0.2,9.7,0.2,14.7l0,8.3l-3.1,0C1.7,24.3,1.8,19,1.8,15.1C1.8,12.1,1.8,9.7,1.7,7.9z"/>
	<path class="st0" d="M6.4,4.9c1,0,1.5,0.6,1.5,1.9c0,1-0.7,2.6-2.1,5c1.1,2.6,1.7,4.2,1.9,4.8c0.1,0.5,0.2,0.9,0.2,1.3
		c0,1.4-0.4,2-1.3,2c-0.2,0-0.5,0-0.9-0.1L6.3,25l0.9,0c1.3,0,2.5-0.4,3.5-1.3c0.6-0.6,1.1-1.4,1.3-2.1c0.2-0.8,0.3-1.4,0.3-1.9
		c0-0.5,0-1.1,0-1.9c0-1.8-0.6-3.8-1.9-5.8c0.8-1.6,1.3-2.8,1.7-3.7s0.5-1.8,0.5-2.6c0-2.2-0.6-3.7-1.8-4.4C9.9,0.7,9.1,0.4,8.3,0.4
		S7.1,0.3,7.1,0.3C5.9,0.3,3.5,0.5,0,1l0.7,4.6C3.6,5.1,5.5,4.9,6.4,4.9z M7.1,1.3c0.1,0,0.5,0,1.2,0.1c0.6,0,1.3,0.3,2.1,0.7
		c0.8,0.5,1.3,1.7,1.3,3.6c0,0.7-0.1,1.5-0.4,2.3c-0.3,0.9-0.9,2.1-1.6,3.6L9.3,12l0.3,0.5c1.2,1.9,1.7,3.7,1.7,5.3
		c0,0.8,0,1.4,0,1.9c0,0.4-0.1,1-0.3,1.7c-0.2,0.6-0.5,1.2-1,1.7c-0.7,0.7-1.6,1-2.7,1l-0.1,0l-0.4-3.2c0.8-0.1,2.1-0.6,2.1-3
		c0-0.4-0.1-0.9-0.2-1.5c-0.1-0.4-0.4-1.2-1.7-4.4c1.3-2.3,2-3.9,2-5c0-2.7-1.9-2.9-2.5-2.9C5.6,3.9,4,4.1,1.6,4.5L1.1,1.9
		C4,1.5,6,1.3,7.1,1.3z"/>
	<path class="st0" d="M9.8,29.7l4.1,1.9c1-2,1.6-4.5,1.7-7.3l-4.1-0.6C11.3,26.5,10.7,28.5,9.8,29.7z M14.6,25.1
		c-0.2,1.9-0.5,3.7-1.2,5.1l-2.2-1c0.6-1.1,1-2.6,1.2-4.4L14.6,25.1z"/>
	<path class="st0" d="M34.3,28.7c-0.6-2.3-1.5-4.4-2.6-6.3l-3.9,1.5c0.7,1.9,1.4,4.2,2,7.1L34.3,28.7z M31.2,23.7
		c0.7,1.4,1.3,2.9,1.8,4.5l-2.6,1.4c-0.4-1.9-0.9-3.6-1.4-5L31.2,23.7z"/>
	<path class="st0" d="M51.3,23.1c-2-1.3-3.7-3.2-5.3-5.7L41.2,21c3.1,6,8.3,9.5,15.6,10.6l2.3-5.7C55.9,25.3,53.3,24.4,51.3,23.1z
		 M56.2,30.5c-6.3-1.1-10.8-4.1-13.7-9.2l3.3-2.5c1.4,2.2,3.1,3.8,5,5.1c1.8,1.2,4.2,2.1,6.9,2.8L56.2,30.5z"/>
	<path class="st0" d="M54.1,11c1.5,3.5,3.3,6.8,5.5,10.1l5.4-2.7c-1.9-2.8-3.4-5.4-4.6-7.9c2.5-0.1,5.2-0.1,7.9,0l0.2-5.8
		c-3.5-0.2-6.9-0.2-10.3,0c-0.4-1.4-0.9-2.9-1.3-4.6l-6.1,0.7c0.4,1.6,0.9,3.2,1.3,4.6c-3.6,0.5-7.5,1.3-11.7,2.4l1.5,5.9
		C46.2,12.4,50.2,11.5,54.1,11z M52.2,6.3l1.2-0.2L53,5c-0.3-1.1-0.7-2.2-1-3.4l4.1-0.5c0.4,1.4,0.8,2.7,1.1,3.8l0.2,0.7l0.8-0.1
		c1.7-0.1,3.4-0.2,5.1-0.2c1.4,0,2.8,0,4.2,0.1l-0.1,3.8c-1.2,0-2.4-0.1-3.5-0.1c-1.2,0-2.3,0-3.5,0.1l-1.5,0.1l0.6,1.4
		c1,2.2,2.4,4.6,4,7.1l-3.6,1.8c-1.9-2.9-3.6-6-4.9-9.2l-0.3-0.7L54,10c-3.6,0.5-7.4,1.3-11.4,2.4l-1-3.9
		C45.4,7.5,48.9,6.8,52.2,6.3z"/>
	<path class="st0" d="M81.7,23.6c0,2.5,0.1,4.9,0.2,7.1l6-0.3c-0.3-3.8-0.3-8.5-0.1-14.1c1.6-1.4,3.2-2.6,4.8-3.6
		c1.6-1,2.9-1.4,3.8-1.4c0.3,0,0.6,0.1,0.7,0.3c0.1,0.2,0.2,0.7,0.2,1.5S97.3,15.5,97,18c-0.2,2.5-0.4,4.2-0.4,5
		c0,2.1,0.6,3.7,1.7,4.7s2.9,1.5,5.3,1.5c0.9,0,1.9-0.1,3-0.3l0.4-5.7c-0.9,0.3-1.8,0.4-2.7,0.4s-1.4-0.1-1.7-0.4
		c-0.2-0.2-0.4-0.8-0.4-1.6s0.1-2.5,0.4-4.9c0.2-2.4,0.4-4.1,0.4-4.9c0-2.1-0.5-3.7-1.4-4.8c-1-1.1-2.3-1.7-4.1-1.7
		c-1.3,0-2.8,0.3-4.5,0.9c-1.7,0.6-3.3,1.5-4.8,2.6c0.2-2.7,0.4-5.3,0.7-7.7L83,1c-0.2,1.8-0.4,3.6-0.6,5.5
		c-1.6-0.6-3.2-1.2-4.8-1.6l-1.7,5.6c1.3,0.4,3.3,1.1,6.1,2.2c0,0.3,0,0.7,0,1c-2.4,3.5-4.6,6.9-6.7,10.2l4.3,3.7
		C80.3,26.3,81,24.9,81.7,23.6z M76.5,23.8c1.9-3.1,4-6.3,6.2-9.5l0.2-0.3v-0.3c0-0.3,0-0.6,0-1l0.1-0.7l-0.7-0.3
		c-2.2-0.9-4-1.5-5.2-1.9l1.2-3.8c1.2,0.4,2.5,0.8,3.8,1.3l1.2,0.5l0.1-1.3c0.1-1.5,0.3-3,0.4-4.5l4,0.2c-0.2,2.1-0.5,4.4-0.6,6.7
		l-0.2,2.1l1.7-1.3c1.4-1,3-1.9,4.6-2.5c1.6-0.6,3-0.9,4.2-0.9c1.5,0,2.6,0.4,3.3,1.3c0.8,0.9,1.2,2.3,1.2,4.1
		c0,0.8-0.1,2.4-0.3,4.8c-0.2,2.5-0.4,4.1-0.4,5c0,1.2,0.2,1.9,0.7,2.3c0.5,0.4,1.2,0.6,2.3,0.6c0.5,0,1,0,1.6-0.1l-0.3,3.6
		c-0.7,0.1-1.4,0.2-2.1,0.2c-2.1,0-3.7-0.4-4.6-1.3c-0.9-0.8-1.3-2.2-1.3-4c0-0.8,0.1-2.5,0.4-4.9c0.3-2.5,0.4-4.2,0.4-5
		c0-1-0.1-1.6-0.4-2c-0.2-0.3-0.6-0.8-1.6-0.8c-1.1,0-2.5,0.5-4.3,1.6c-1.7,1-3.3,2.2-5,3.7l-0.3,0.3l0,0.4
		c-0.2,5.1-0.1,9.5,0.1,13.2l-4,0.2c-0.1-1.9-0.2-3.9-0.2-6v-3.8l-1.9,3.3c-0.5,1-1.1,2-1.6,3L76.5,23.8z"/>
	<path class="st0" d="M119.2,30.5c1.3-6.6,3-13.5,5-20.7c1.5-0.1,3-0.1,4.6-0.1c0.8,0,1.6,0,2.5,0l0.1-5.5c-1.2,0-2.3,0-3.3,0
		c-0.8,0-1.5,0-2.2,0c0.3-1.1,0.6-2,0.9-2.8l-6-0.9c-0.4,1.1-0.8,2.5-1.3,4.2c-2,0.2-4.3,0.7-6.9,1.3l0.8,5.7c1.6-0.4,3-0.7,4.4-0.9
		c-2,7-3.5,13.2-4.7,18.8L119.2,30.5z M117.4,9.6c-1.1,0.2-2.2,0.4-3.4,0.7l-0.5-3.7c2.2-0.5,4.2-0.8,5.9-1l0.6-0.1l0.2-0.6
		c0.4-1.3,0.8-2.4,1.1-3.3l4,0.6c-0.2,0.5-0.3,1.1-0.5,1.7l-0.4,1.3l1.4-0.1c0.7,0,1.4,0,2.2,0c0.7,0,1.5,0,2.3,0l-0.1,3.5h-1.5
		c-1.6,0-3.1,0.1-4.6,0.2l-0.7,0l-0.2,0.7c-1.9,6.9-3.5,13.6-4.8,19.8l-4.4-0.7c1.2-5.3,2.7-11.2,4.5-17.7l0.4-1.5L117.4,9.6z"/>
	<path class="st0" d="M127,11.1l0.7,5.4c3-0.5,6-0.8,9-0.8c1.3,0,2.6,0,3.9,0.1l0.2-5.5c-1.4-0.1-2.9-0.2-4.3-0.2
		C133.2,10.2,130,10.5,127,11.1z M139.7,14.8c-1-0.1-2-0.1-3-0.1c-2.7,0-5.5,0.2-8.2,0.6l-0.5-3.4c2.7-0.5,5.5-0.7,8.4-0.7
		c1.1,0,2.2,0,3.3,0.1L139.7,14.8z"/>
	<path class="st0" d="M132.9,23.9c-1.9-0.4-3.9-1.2-6.2-2.2l-2.2,5.3c2.1,1.2,4.3,2,6.5,2.5c2.2,0.5,4.8,0.8,7.7,0.8
		c0.6,0,1.3,0,2,0l0.2-5.7c-0.5,0-0.9,0-1.3,0C137,24.6,134.8,24.4,132.9,23.9z M139.8,29.3c-0.4,0-0.7,0-1,0
		c-2.8,0-5.3-0.3-7.5-0.8c-1.9-0.4-3.7-1.1-5.5-2l1.4-3.5c2,0.9,3.8,1.5,5.5,1.9c1.9,0.4,4.3,0.7,6.9,0.7h0.3L139.8,29.3z"/>
	<path class="st0" d="M155.9,13.4c-0.8,5.7-4,10.7-9.4,15.1l6.2,3.3c5.4-5,8.6-11.3,9.5-18.8c2.5-0.1,4.4-0.1,5.6-0.1
		c1.9,0,3.1,0.1,3.6,0.4c1,0.5,1.5,1.2,1.6,2c0.1,0.8,0.1,1.8,0.1,2.9c0,3.3-0.2,5.4-0.6,6.3c-0.2,0.7-1,1.1-2.2,1.1
		c-1.7,0-3.5-0.4-5.2-1.3l0,6.2c1.9,0.7,3.5,1.1,4.7,1.2c1.2,0.1,1.9,0.2,2.1,0.2c1.5,0,2.8-0.2,3.7-0.7s1.6-1.4,2-2.7
		c0.4-1.3,0.7-3.2,0.9-5.5c0.2-2.3,0.2-4.4,0.2-6.1c0-3.1-0.4-5.5-1.2-7c-0.7-1.3-1.8-2-3.3-2.2c-1.5-0.2-3.3-0.4-5.3-0.4
		c-1.9,0-4,0-6.3,0.1c0.2-1.8,0.4-4,0.5-6.7l-5.9-0.2c0,2.9-0.2,5.3-0.5,7.3c-3.1,0.2-6.8,0.4-10.9,0.7l0.3,5.6
		C150,13.7,153.2,13.5,155.9,13.4z M156.9,8.6l0.8-0.1l0.1-0.8c0.2-1.8,0.4-3.9,0.5-6.4l3.9,0.1c-0.1,2.2-0.2,4.1-0.4,5.6l-0.2,1.2
		l1.2,0c2.4,0,4.5-0.1,6.3-0.1c2,0,3.7,0.1,5.2,0.3c1.2,0.2,2,0.8,2.6,1.7c0.7,1.4,1.1,3.6,1.1,6.5c0,1.7-0.1,3.8-0.2,6.1
		c-0.2,2.2-0.4,4-0.8,5.3c-0.3,1.1-0.8,1.8-1.5,2.1c-0.8,0.4-1.9,0.6-3.2,0.6c-0.1,0-0.4,0-2-0.2c-1-0.1-2.3-0.4-3.8-0.9l0-3.9
		c1.4,0.5,2.8,0.8,4.2,0.8c2.1,0,2.8-1,3.1-1.8c0.3-0.6,0.6-2.1,0.6-6.7c0-1.2-0.1-2.2-0.2-3c-0.1-1.1-0.9-2.1-2.1-2.7
		c-0.5-0.2-1.3-0.5-4.1-0.5c-1.2,0-3.1,0-5.6,0.1l-0.9,0l-0.1,0.9c-0.8,7-3.7,12.9-8.6,17.7l-4.2-2.2c4.9-4.3,7.8-9.2,8.6-14.7
		l0.2-1.2l-1.2,0c-2.4,0.1-5.3,0.2-8.7,0.4L147,9.2C150.7,9,154,8.8,156.9,8.6z"/>
</g>
</svg>
