<?xml version="1.0" encoding="utf-8"?>
<!-- Generator: Adobe Illustrator 27.9.1, SVG Export Plug-In . SVG Version: 6.00 Build 0)  -->
<svg version="1.1" id="Layer_1" xmlns="http://www.w3.org/2000/svg" xmlns:xlink="http://www.w3.org/1999/xlink" x="0px" y="0px"
	 viewBox="0 0 223 36.1" style="enable-background:new 0 0 223 36.1;" xml:space="preserve">
<style type="text/css">
	.st0{fill:#282828;}
</style>
<g>
	<path class="st0" d="M45.9,23.7c-0.9,1.4-1.9,2.7-3.2,3.9c-0.7,0.7-1.5,1.4-2.3,1.9c-0.8,0.6-1.6,1.1-2.4,1.5l4,3.2
		c2.1-1.4,3.8-3,5.3-4.8c1.5-1.7,2.8-3.7,3.7-5.9c1-2.2,1.8-4.8,2.3-7.7c0.1-0.8,0.3-1.6,0.4-2.5h9.2c0,0.8,0,1.8-0.1,2.8
		c0,1.1-0.1,2.2-0.2,3.4c-0.1,1.2-0.2,2.3-0.3,3.4c-0.1,1.1-0.3,2.1-0.5,3c-0.2,0.9-0.4,1.6-0.6,2.1c-0.2,0.5-0.5,0.8-0.8,1
		c-0.3,0.2-0.8,0.3-1.4,0.3c-0.8,0-1.6,0-2.6-0.1c-1-0.1-1.9-0.2-2.9-0.4l0.5,4.5c0.9,0.1,2,0.1,3,0.2c1.1,0.1,2.2,0.1,3.2,0.1
		c1.2,0,2.2-0.2,2.9-0.7c0.7-0.5,1.3-1.1,1.7-2.1c0.3-0.8,0.6-1.8,0.9-3c0.2-1.2,0.4-2.6,0.6-4c0.2-1.4,0.3-2.9,0.4-4.4
		c0.1-1.5,0.2-2.8,0.3-4.1c0.1-1.3,0.1-2.3,0.1-3.1c0-0.2,0-0.5,0.1-0.9s0.1-0.7,0.2-1l-3-1.5c-0.4,0.1-0.8,0.1-1.3,0.2
		c-0.5,0.1-0.9,0.1-1.4,0.1h-7.7c0.1-1.1,0.1-2.3,0.2-3.6c0-0.5,0.1-1,0.1-1.7s0.1-1.2,0.1-1.7h-5c0.1,0.3,0.1,0.7,0.1,1.1
		c0,0.4,0.1,0.8,0.1,1.3c0,0.4,0,0.8,0,1.1c0,1.2,0,2.4-0.1,3.5h-5.8c-0.7,0-1.5,0-2.4-0.1c-0.9-0.1-1.7-0.1-2.4-0.2v4.5
		c0.8-0.1,1.6-0.1,2.5-0.1c0.9,0,1.7,0,2.4,0h5.4c-0.3,2-0.7,3.9-1.2,5.5C47.5,20.7,46.8,22.3,45.9,23.7z M50.3,13.6l0.2-1.1H44
		c-0.7,0-1.5,0-2.4,0c-0.5,0-1,0-1.4,0.1v-2.3c0.4,0,0.9,0.1,1.4,0.1c0.9,0.1,1.7,0.1,2.4,0.1h6.7l0.1-0.9c0.1-1.2,0.1-2.3,0.1-3.5
		c0-0.3,0-0.7,0-1.1c0-0.4-0.1-0.9-0.1-1.3h2.8c0,0.2,0,0.4,0,0.6c-0.1,0.7-0.1,1.2-0.1,1.7c0,1.1-0.1,2.2-0.2,3.6l-0.1,1.1h8.8
		c0.5,0,1,0,1.5-0.1c0.4,0,0.7-0.1,1-0.1l2,1c0,0.1,0,0.2,0,0.3c-0.1,0.4-0.1,0.8-0.1,1c0,0.7-0.1,1.8-0.1,3
		c-0.1,1.2-0.2,2.6-0.3,4.1c-0.1,1.4-0.3,2.9-0.4,4.3c-0.2,1.4-0.4,2.7-0.6,3.9c-0.2,1.2-0.5,2.1-0.8,2.8c-0.3,0.7-0.7,1.2-1.3,1.6
		c-0.6,0.4-1.4,0.5-2.4,0.5c-1,0-2.1,0-3.2-0.1c-0.8,0-1.5-0.1-2.2-0.1l-0.3-2.4c0.5,0.1,1.1,0.1,1.6,0.2c1,0.1,1.9,0.1,2.7,0.1
		c0.8,0,1.4-0.2,1.9-0.5c0.5-0.3,0.9-0.8,1.2-1.5c0.2-0.6,0.5-1.3,0.7-2.3c0.2-0.9,0.4-1.9,0.5-3.1c0.1-1.1,0.2-2.3,0.3-3.4
		c0.1-1.2,0.2-2.3,0.2-3.4c0-1.1,0.1-2,0.1-2.9v-1h-11l-0.1,0.9c-0.1,0.8-0.2,1.6-0.4,2.4c-0.5,2.8-1.3,5.3-2.2,7.5
		c-0.9,2.1-2.1,4-3.6,5.7c-1.3,1.5-2.8,2.9-4.5,4.2l-2.3-1.8c0.4-0.3,0.8-0.5,1.2-0.8c0.9-0.6,1.7-1.3,2.5-2.1
		c1.3-1.2,2.4-2.6,3.3-4.1c0.9-1.5,1.7-3.2,2.3-5C49.6,17.6,50,15.7,50.3,13.6z"/>
	<path class="st0" d="M82.1,32.7h17.7c0,0.1,0,0.2,0,0.3c0,0.6,0,1.2,0,1.7h4.9c0-0.5-0.1-1.2-0.1-2c0-0.8-0.1-1.6-0.1-2.2V10.8
		c0-0.5,0-1.1,0-1.7c0-0.6,0.1-1.2,0.1-1.6c-0.3,0-0.8,0-1.4,0.1c-0.6,0-1.2,0-1.7,0H101H82.4c-0.6,0-1.4,0-2.2-0.1
		c-0.8,0-1.6-0.1-2.3-0.2V12c0.5,0,1.2-0.1,2.1-0.1c0.9,0,1.7,0,2.5,0h17.4v16.3H82c-0.8,0-1.7,0-2.5-0.1C78.7,28.1,78,28,77.4,28
		v4.9c0.6-0.1,1.4-0.1,2.3-0.1C80.6,32.7,81.4,32.7,82.1,32.7z M78.4,31.8v-2.7c0.3,0,0.7,0,1.1,0.1c0.8,0.1,1.7,0.1,2.5,0.1h18.9
		V10.9H82.5c-0.8,0-1.6,0-2.5,0c-0.4,0-0.8,0-1.1,0V8.4c0.4,0,0.8,0.1,1.3,0.1c0.9,0,1.6,0.1,2.3,0.1h19c0.5,0,1.1,0,1.8,0
		c0.1,0,0.3,0,0.4,0c0,0.2,0,0.3,0,0.5c0,0.6,0,1.2,0,1.8v19.7c0,0.7,0,1.4,0.1,2.3c0,0.4,0,0.7,0,1h-2.8c0-0.2,0-1,0-1l0-1H82.1
		c-0.7,0-1.6,0-2.5,0.1C79.2,31.8,78.8,31.8,78.4,31.8z"/>
	<path class="st0" d="M4.4,18c0.8,0.5,1.6,1,2.3,1.5c0.7,0.5,1.3,0.9,1.9,1.3l2.5-3.8c-0.5-0.3-1-0.7-1.8-1.2
		c-0.7-0.5-1.5-0.9-2.3-1.4c-0.8-0.5-1.6-1-2.4-1.5c-0.8-0.5-1.5-0.9-2.1-1.2L0,15.4c0.6,0.3,1.3,0.7,2.1,1.1
		C2.8,16.9,3.6,17.4,4.4,18z M2.8,12.9c0.4,0.2,0.8,0.5,1.3,0.7c0.8,0.5,1.6,0.9,2.4,1.5c0.8,0.5,1.6,1,2.3,1.4
		c0.3,0.2,0.7,0.4,0.9,0.6l-1.4,2.2c-0.3-0.2-0.7-0.5-1-0.7c-0.7-0.5-1.5-1-2.3-1.5c-0.8-0.5-1.6-1-2.4-1.5
		c-0.4-0.2-0.8-0.5-1.1-0.7L2.8,12.9z"/>
	<path class="st0" d="M103,4.6c-0.4-0.6-0.7-1.2-1.1-1.9c-0.4-0.6-0.7-1.1-1-1.6L98,2.3c0.3,0.5,0.7,1,1,1.6
		c0.4,0.6,0.7,1.2,1.1,1.8c0.3,0.6,0.6,1.2,0.9,1.7l2.9-1.2C103.6,5.8,103.3,5.2,103,4.6z M101.5,6.2c-0.1-0.3-0.3-0.6-0.5-0.9
		c-0.3-0.6-0.7-1.2-1.1-1.9c-0.1-0.2-0.3-0.4-0.4-0.6l0.9-0.4c0.2,0.3,0.4,0.5,0.5,0.9c0.4,0.6,0.7,1.2,1.1,1.8
		c0.1,0.2,0.3,0.4,0.4,0.7L101.5,6.2z"/>
	<path class="st0" d="M15,7.2c-0.7-0.5-1.5-1-2.3-1.5c-0.8-0.5-1.6-1-2.4-1.5C9.6,3.7,8.9,3.3,8.2,3L5.8,6.7C6.4,7,7.1,7.5,7.9,7.9
		c0.8,0.5,1.5,1,2.3,1.5c0.8,0.5,1.5,1,2.3,1.5c0.7,0.5,1.3,0.9,1.8,1.3l2.5-3.8C16.3,8,15.8,7.6,15,7.2z M14,10.7
		c-0.3-0.2-0.7-0.4-1-0.7c-0.7-0.5-1.5-1-2.3-1.5C9.9,8,9.2,7.5,8.4,7.1C8,6.8,7.6,6.6,7.2,6.4l1.4-2.1C9,4.5,9.4,4.8,9.8,5
		c0.8,0.5,1.6,1,2.4,1.5C13,7,13.8,7.5,14.5,8c0.3,0.2,0.7,0.4,0.9,0.6L14,10.7z"/>
	<path class="st0" d="M203.3,0.6v3.9h-14.5v3.9h33.5V4.5h-14.7V0.6H203.3z M221.4,5.5v1.9h-31.5V5.5h14.5V1.6h2.4v3.9H221.4z"/>
	<path class="st0" d="M5.9,29c-1.5,0.4-2.9,0.7-4.3,1l2.5,4.5c1.1-0.2,2.5-0.6,3.9-1c1.5-0.5,3-1,4.5-1.6c1.5-0.6,2.9-1.3,4.2-2.1
		c3.1-1.8,5.9-3.9,8.5-6.2c2.6-2.3,4.7-4.8,6.5-7.4l-2.6-4.6c-1,1.8-2.2,3.6-3.7,5.3c-1.5,1.7-3.1,3.3-5,4.8c-1.8,1.5-3.8,2.9-6,4.1
		c-1.3,0.7-2.7,1.4-4.2,1.9C8.9,28.2,7.4,28.7,5.9,29z M15,26.6c2.2-1.2,4.2-2.7,6.1-4.2c1.9-1.5,3.6-3.2,5.1-4.9
		c1.1-1.3,2.1-2.6,2.9-3.9l1.5,2.6c-1.6,2.3-3.6,4.6-6,6.7c-2.5,2.3-5.3,4.3-8.3,6.1c-1.2,0.7-2.6,1.4-4.1,2c-1.5,0.6-3,1.2-4.4,1.6
		c-1.2,0.4-2.2,0.6-3.1,0.9l-1.5-2.6c1-0.2,2-0.4,3-0.7c1.5-0.4,3-0.9,4.5-1.4C12.1,28,13.6,27.3,15,26.6z"/>
	<path class="st0" d="M214.9,13.8h-18.5v6.9h18.5V13.8z M213.9,19.7h-16.5v-4.9h16.5V19.7z"/>
	<path class="st0" d="M203.2,32.1c-0.1,0.1-0.3,0.1-0.7,0.1c-0.2,0-0.6,0-1.1,0c-0.6,0-1.2,0-1.9,0c-0.7,0-1.4,0-2.1,0
		c0.3,0.5,0.5,1.2,0.8,1.9c0.3,0.7,0.4,1.4,0.5,2c1.6,0,2.9,0,4.1-0.1c1.1-0.1,2.1-0.2,2.9-0.5c0.8-0.3,1.4-0.7,1.6-1.3
		c0.3-0.6,0.4-1.4,0.4-2.5v-8.5h10.5v-12h-24.9v12h10.1v8.4C203.4,31.9,203.4,32,203.2,32.1z M194.3,22.2v-10h22.9v10h-10.5v9.5
		c0,1.1-0.2,1.7-0.3,2c-0.2,0.3-0.5,0.6-1.1,0.8c-0.7,0.2-1.6,0.4-2.6,0.5c-0.9,0-2,0.1-3.2,0.1c-0.1-0.4-0.2-0.8-0.4-1.3
		c-0.1-0.2-0.1-0.4-0.2-0.5c0.2,0,3.6,0,3.6,0c0.4,0,0.9,0,1.3-0.3c0.3-0.2,0.6-0.6,0.6-1.3v-9.4H194.3z"/>
	<path class="st0" d="M106.1,6.2L109,5c-0.3-0.5-0.6-1-0.9-1.6c-0.4-0.6-0.7-1.2-1.1-1.8c-0.4-0.6-0.7-1.1-1.1-1.6l-2.9,1.1
		c0.5,0.7,1.1,1.5,1.6,2.5C105.2,4.6,105.7,5.4,106.1,6.2z M105.6,1.2c0.2,0.3,0.4,0.6,0.6,0.9c0.4,0.6,0.7,1.2,1.1,1.8
		c0.1,0.2,0.2,0.4,0.4,0.6l-1,0.4c-0.3-0.6-0.6-1.2-1-1.8c-0.3-0.5-0.6-1.1-0.9-1.5L105.6,1.2z"/>
	<path class="st0" d="M193.9,32.3c0.9-0.9,1.8-1.9,2.6-3c0.8-1,1.5-2.1,2.1-3.1l-4.1-1.3c-0.4,0.8-1,1.7-1.7,2.6
		c-0.7,0.9-1.5,1.8-2.3,2.6s-1.7,1.6-2.6,2.2c0.5,0.3,1,0.6,1.7,1.1s1.2,0.9,1.6,1.3C192.1,34,193,33.2,193.9,32.3z M189.6,32.3
		c0.5-0.4,1-0.9,1.6-1.4c0.9-0.9,1.7-1.8,2.4-2.7c0.5-0.7,1-1.4,1.4-2l2.1,0.7c-0.4,0.6-0.9,1.3-1.4,1.9c-0.8,1-1.7,2-2.5,2.9
		c-0.6,0.7-1.3,1.3-2,1.9c-0.3-0.3-0.7-0.5-1.1-0.8C190,32.5,189.8,32.4,189.6,32.3z"/>
	<path class="st0" d="M218.5,27.6c-0.9-1-1.7-1.9-2.5-2.7l-3.7,1.8c0.8,0.8,1.6,1.8,2.5,2.8c0.9,1,1.7,2,2.5,3
		c0.8,1,1.3,1.8,1.7,2.6l4-2c-0.5-0.8-1.2-1.6-1.9-2.6C220.3,29.5,219.4,28.5,218.5,27.6z M219.3,33.7c-0.4-0.6-0.8-1.2-1.3-1.9
		c-0.8-1-1.6-2-2.5-3c-0.5-0.6-1.1-1.3-1.6-1.8l1.9-0.9c0.6,0.7,1.3,1.4,2,2.1c0.9,1,1.7,1.9,2.5,2.8c0.5,0.5,0.9,1.1,1.2,1.6
		L219.3,33.7z"/>
	<path class="st0" d="M157.1,22.5h9.3v-4.7h-9.3V22.5z M158.1,18.8h7.3v2.7h-7.3V18.8z"/>
	<path class="st0" d="M177.3,28.1c-1.3-0.9-2.5-1.8-3.6-2.7c-0.3-0.3-0.6-0.5-0.9-0.8h8.6V10.2h-11.8V7.7h14.9V3.9h-14.9V0.6h-4.3
		v3.2h-14.5v3.8h14.5v2.5h-11.2v14.4h8.2c-0.2,0.2-0.5,0.5-0.8,0.7c-1.1,1-2.3,1.9-3.5,2.7c-1.3,0.9-2.6,1.6-4,2.4
		c-1.4,0.7-2.8,1.3-4.2,1.8c0.3,0.3,0.6,0.6,1,1c0.4,0.4,0.7,0.8,1,1.3c0.3,0.4,0.6,0.8,0.8,1.1c1.4-0.6,2.8-1.3,4.3-2.2
		c1.4-0.8,2.8-1.8,4.1-2.8c1.3-1,2.6-2.1,3.7-3.3c0.2-0.2,0.4-0.5,0.7-0.7v9.4h4.3v-9.6c0.3,0.3,0.6,0.7,0.9,1
		c1.2,1.2,2.4,2.3,3.7,3.3s2.7,2,4.1,2.8c1.4,0.8,2.8,1.5,4.2,2.1c0.2-0.4,0.5-0.8,0.8-1.2c0.3-0.4,0.7-0.9,1-1.3
		c0.4-0.4,0.7-0.8,1-1c-1.4-0.5-2.8-1.1-4.2-1.7C179.9,29.7,178.6,28.9,177.3,28.1z M182.7,33.9c-0.1,0.2-0.3,0.4-0.4,0.6
		c-1.1-0.5-2.2-1.1-3.3-1.7c-1.4-0.8-2.7-1.7-4-2.7c-1.3-1-2.5-2.1-3.6-3.2c-0.2-0.2-0.4-0.5-0.7-0.7l-2-2.2v11.2h-2.3v-11l-1.7,1.9
		l-0.3,0.3c-0.1,0.1-0.2,0.3-0.4,0.4c-1.1,1.1-2.3,2.2-3.6,3.2c-1.3,1-2.6,1.9-4,2.7c-1.1,0.7-2.3,1.3-3.4,1.8
		c-0.1-0.2-0.2-0.3-0.4-0.5c-0.3-0.4-0.7-0.9-1-1.3c0.9-0.4,1.9-0.8,2.8-1.3c1.4-0.7,2.8-1.5,4.1-2.4c1.3-0.9,2.5-1.8,3.6-2.8
		c0.3-0.2,0.5-0.5,0.8-0.8l1.8-1.7h-9.7V11.2h11.2V6.7h-14.5V4.9h14.5V1.6h2.3v3.2h14.9v1.8h-14.9v4.5h11.8v12.4h-10.1l1.8,1.7
		c0.3,0.3,0.6,0.5,0.9,0.8c1.1,1,2.4,1.9,3.7,2.8c1.3,0.9,2.7,1.7,4.2,2.4c1,0.5,1.9,0.9,2.9,1.3C183.4,33,183,33.4,182.7,33.9z"/>
	<path class="st0" d="M157.1,16.9h9.3v-4.7h-9.3V16.9z M158.1,13.3h7.3v2.7h-7.3V13.3z"/>
	<path class="st0" d="M178.3,17.8h-9.7v4.7h9.7V17.8z M177.3,21.5h-7.7v-2.7h7.7V21.5z"/>
	<path class="st0" d="M178.3,12.3h-9.7v4.7h9.7V12.3z M177.3,15.9h-7.7v-2.7h7.7V15.9z"/>
	<path class="st0" d="M118.6,21.6c-0.7,1.3-1,2.7-1,4.2c0,1.6,0.3,2.9,1,4c0.7,1.1,1.6,2,2.8,2.6c1.2,0.6,2.6,1.1,4.1,1.4
		c1.6,0.3,3.3,0.4,5.1,0.4c1.6,0,3.2,0,4.6-0.1c1.4-0.1,2.8-0.2,4.1-0.3c1.3-0.1,2.4-0.3,3.5-0.5l0-4.9c-1.1,0.3-2.3,0.5-3.7,0.7
		c-1.4,0.2-2.9,0.4-4.4,0.5c-1.5,0.1-2.9,0.2-4.3,0.2c-2.7,0-4.8-0.4-6.2-1.2c-1.4-0.8-2.1-1.9-2.1-3.3c0-1.4,0.5-2.6,1.5-3.8
		c1-1.2,2.3-2.3,3.9-3.3c0.9-0.6,1.8-1.2,2.8-1.7c1-0.6,2-1.1,3-1.6c1-0.5,1.9-1,2.8-1.4c0.9-0.4,1.6-0.8,2.2-1.1
		c0.7-0.3,1.3-0.7,1.9-1c0.6-0.3,1.1-0.6,1.7-1l-2.4-3.9c-0.5,0.4-1,0.7-1.5,1.1c-0.5,0.3-1.1,0.7-1.8,1.1c-0.6,0.3-1.3,0.7-2.2,1.2
		s-1.8,1-2.8,1.5c-1,0.5-2,1.1-3.1,1.7c-0.2,0.1-0.4,0.2-0.6,0.3c-0.3-0.5-0.5-1-0.8-1.6c-0.7-1.3-1.4-2.8-2.1-4.3
		c-0.7-1.5-1.3-3.2-2-4.8l-4.3,1.8c0.7,1.6,1.4,3.2,2.1,4.8c0.7,1.6,1.4,3.1,2.2,4.6c0.4,0.7,0.7,1.4,1.1,2.1
		c-0.9,0.7-1.8,1.4-2.6,2.1C120.3,19.1,119.3,20.3,118.6,21.6z M124.6,16.7l0.7-0.5l-0.4-0.8c-0.3-0.6-0.7-1.3-1.1-2
		c-0.7-1.4-1.4-3-2.1-4.5c-0.6-1.3-1.2-2.6-1.7-3.9l2.4-1c0.5,1.3,1.1,2.7,1.6,3.9c0.7,1.6,1.4,3,2.1,4.4c0.3,0.6,0.6,1.1,0.8,1.6
		l0.5,0.9c0,0,1.3-0.8,1.4-0.8c1-0.6,2-1.1,3-1.7c1-0.5,1.9-1,2.8-1.5c0.9-0.5,1.6-0.9,2.2-1.2l1.8-1.1c0.2-0.1,0.5-0.3,0.7-0.5
		l1.3,2.1c-0.3,0.1-0.5,0.3-0.8,0.4c-0.6,0.3-1.2,0.6-1.8,1c-0.6,0.3-1.3,0.7-2.2,1.1c-0.9,0.4-1.8,0.9-2.8,1.4c-1,0.5-2,1.1-3,1.6
		c-1,0.6-2,1.2-2.9,1.7c-1.7,1.1-3.1,2.3-4.1,3.5c-1.1,1.3-1.7,2.8-1.7,4.4c0,1.8,0.9,3.2,2.6,4.2c1.5,0.9,3.7,1.3,6.7,1.3
		c1.4,0,2.8-0.1,4.3-0.2c1.5-0.1,3-0.3,4.4-0.5c0.9-0.1,1.8-0.3,2.6-0.4l0,2.8c-0.8,0.1-1.7,0.2-2.6,0.3c-1.2,0.1-2.6,0.2-4,0.3
		c-1.4,0.1-3,0.1-4.6,0.1c-1.8,0-3.4-0.1-5-0.4c-1.5-0.3-2.8-0.7-3.8-1.3c-1-0.6-1.8-1.3-2.4-2.2c-0.6-0.9-0.8-2.1-0.8-3.5
		c0-1.4,0.3-2.6,0.9-3.8c0.6-1.2,1.5-2.3,2.6-3.3C122.8,18.1,123.7,17.4,124.6,16.7z"/>
</g>
</svg>
