<?xml version="1.0" encoding="utf-8"?>
<!-- Generator: Adobe Illustrator 27.9.1, SVG Export Plug-In . SVG Version: 6.00 Build 0)  -->
<svg version="1.1" id="Layer_1" xmlns="http://www.w3.org/2000/svg" xmlns:xlink="http://www.w3.org/1999/xlink" x="0px" y="0px"
	 viewBox="0 0 375.8 35.6" style="enable-background:new 0 0 375.8 35.6;" xml:space="preserve">
<style type="text/css">
	.st0{fill:#282828;}
</style>
<g>
	<path class="st0" d="M66.1,8.1c-1.8-0.8-3.8-1.3-6.1-1.3c-1.4,0-2.9,0.1-4.4,0.4c-1.6,0.3-3.1,0.6-4.6,1c-1.5,0.4-2.9,0.8-4.1,1.2
		c-1.3,0.4-2.3,0.7-3,1c-0.7,0.2-1.5,0.4-2.3,0.6c-0.8,0.2-1.6,0.4-2.3,0.5l1.9,4.8c0.8-0.3,1.7-0.7,2.8-1.2c1.1-0.5,2.3-1,3.7-1.4
		s2.7-1,4.2-1.4c1.4-0.4,2.8-0.8,4.2-1.1c1.4-0.3,2.7-0.4,3.8-0.4c1.6,0,2.9,0.3,4,0.9s1.9,1.3,2.5,2.3c0.6,1,0.9,2.1,0.9,3.3
		c0,1.7-0.5,3.2-1.4,4.5c-1,1.3-2.3,2.3-4,3.1c-1.7,0.8-3.7,1.4-5.9,1.8c-2.2,0.4-4.6,0.7-7.2,0.7l2,4.5c2.6-0.1,4.9-0.4,7.1-0.9
		c2.2-0.5,4.2-1.2,5.9-2c1.7-0.8,3.2-1.8,4.5-3c1.2-1.2,2.2-2.5,2.8-3.9c0.7-1.5,1-3.1,1-4.8c0-2.3-0.5-4.2-1.6-5.8
		C69.4,10.2,67.9,9,66.1,8.1z M70.1,22c-0.6,1.3-1.5,2.5-2.6,3.6c-1.1,1.1-2.6,2-4.2,2.8c-1.7,0.8-3.6,1.4-5.7,1.9
		c-1.9,0.4-4.1,0.7-6.3,0.9l-1.1-2.5c2.1-0.1,4-0.3,5.9-0.7c2.3-0.4,4.4-1.1,6.1-1.9c1.8-0.9,3.3-2,4.4-3.4c1.1-1.4,1.6-3.2,1.6-5.1
		c0-1.4-0.3-2.7-1-3.8c-0.7-1.2-1.6-2.1-2.9-2.7c-1.2-0.6-2.7-1-4.5-1c-1.2,0-2.6,0.1-4,0.4c-1.4,0.3-2.9,0.7-4.3,1.1
		c-1.4,0.4-2.9,0.9-4.2,1.4c-1.3,0.5-2.6,1-3.7,1.5c-0.7,0.3-1.3,0.6-1.9,0.8l-1.1-2.7c0.4-0.1,0.8-0.2,1.2-0.3
		c0.8-0.2,1.6-0.4,2.3-0.6c0.8-0.2,1.8-0.6,3.1-1c1.3-0.4,2.6-0.8,4.1-1.2c1.5-0.4,3-0.8,4.5-1C57.3,8,58.7,7.9,60,7.9
		c2.1,0,4,0.4,5.7,1.2c1.6,0.8,2.9,1.9,3.9,3.3c1,1.4,1.4,3.2,1.4,5.3C71,19.2,70.7,20.7,70.1,22z"/>
	<path class="st0" d="M10.1,4.1H4.8v7.1h5.3V4.1z M9.1,10.1H5.8V5.1h3.3V10.1z"/>
	<path class="st0" d="M10.1,12.8H4.8v2.3c0,1.2,0,2.5-0.1,3.9l0,1h5.4V12.8z M9.1,19.1H5.7c0-1.4,0.1-2.7,0.1-3.9v-1.3h3.3V19.1z"/>
	<path class="st0" d="M26.7,9.7L26.6,9h-3.7l-0.3,1c-0.2,0.8-0.5,1.6-0.9,2.6l-0.5,1.4H28l-0.4-1.3C27.3,11.7,27,10.7,26.7,9.7z
		 M22.6,12.9c0.3-0.9,0.7-1.7,0.9-2.7c0-0.1,0.1-0.2,0.1-0.3h2.2c0.3,1,0.5,2,0.9,3H22.6z"/>
	<path class="st0" d="M36.5,20.9c-1.3-0.8-2.4-1.8-3.4-3.1c-0.4-0.5-0.7-1-1.1-1.5h3.5v-3.3h-5.3c-0.4-1-0.8-2-1.1-3h5.7V6.7h-4.3
		C31,6,31.5,5.3,32,4.4c0.6-1,1.1-1.9,1.6-2.9l-3.8-1.1c-0.2,0.5-0.4,1.1-0.7,1.8c-0.3,0.7-0.6,1.3-0.9,2c-0.3,0.6-0.6,1.2-0.9,1.7
		l2.3,0.8h-5.2c0.4-2,0.8-4.1,1.1-6.3L21.9,0c-0.2,2.4-0.6,4.6-1.1,6.7h-3.5l2.8-1c-0.2-0.7-0.5-1.5-0.9-2.4
		c-0.4-0.9-0.8-1.8-1.3-2.6l-3.1,1.1c0.4,0.8,0.8,1.7,1.2,2.6c0.4,0.9,0.6,1.7,0.7,2.3h-2.4V10h5.6c-0.3,1-0.7,2-1.2,3h-5.2v3.3h3.3
		c-1.1,1.6-2.4,3-4,4.1v-19h-1.1H9.1H5.8H4.1H2.3v13.8c0,1.4,0,2.9-0.1,4.5c-0.1,1.6-0.2,3.2-0.3,4.9c-0.2,1.7-0.4,3.3-0.7,4.8
		c-0.3,1.6-0.7,3-1.3,4.3c0.3,0.1,0.7,0.3,1,0.5c0.4,0.2,0.8,0.4,1.2,0.6c0.4,0.2,0.7,0.4,0.9,0.6c0.6-1.4,1-3,1.4-4.7
		c0.3-1.7,0.6-3.5,0.8-5.3c0.1-0.9,0.2-1.7,0.2-2.6h3.6v8.2c0,0.3,0,0.4-0.1,0.5c-0.1,0.1-0.2,0.1-0.5,0.2c-0.2,0-0.6,0-1.2,0
		c-0.6,0-1.2,0-1.8-0.1c0.3,0.5,0.5,1.2,0.7,1.9c0.2,0.7,0.3,1.4,0.4,1.8c1.1,0,2.1,0,2.8-0.1c0.8-0.1,1.4-0.3,1.9-0.6
		c0.5-0.3,0.9-0.8,1.1-1.3c0.2-0.6,0.3-1.3,0.3-2.2v-9.3c0,0,0,0,0.1,0.1c0.3,0.4,0.6,0.8,0.9,1.2c0.3,0.4,0.5,0.7,0.6,1
		c0.6-0.4,1.2-0.9,1.7-1.4v2.3h4.5c-0.2,0.6-0.4,1.2-0.7,1.8c-0.5,1.2-1.3,2.3-2.4,3.2c-1,0.9-2.4,1.7-4.2,2.4
		c0.4,0.4,0.9,0.8,1.3,1.5c0.4,0.6,0.8,1.2,1,1.7c2-0.8,3.5-1.8,4.7-3c1.2-1.1,2.1-2.4,2.8-3.9c0.5-1.1,0.9-2.3,1.2-3.6h4.2
		c-0.1,0.9-0.1,1.6-0.2,2.3c-0.1,1.3-0.3,2.3-0.4,3c-0.1,0.7-0.3,1.1-0.5,1.3c-0.2,0.2-0.3,0.3-0.5,0.3c-0.2,0-0.4,0.1-0.7,0.1
		c-0.3,0-0.7,0-1.3,0c-0.6,0-1.3-0.1-2-0.1c0.3,0.5,0.5,1,0.7,1.7s0.3,1.2,0.3,1.7c0.8,0.1,1.6,0.1,2.4,0.1c0.8,0,1.4,0,1.8-0.1
		c0.5-0.1,1-0.2,1.4-0.4c0.4-0.2,0.8-0.5,1.1-0.9c0.3-0.4,0.6-1,0.8-1.8c0.2-0.8,0.4-2,0.5-3.4c0.2-1.5,0.3-3.4,0.4-5.7
		c0-0.1,0-0.1,0-0.2c0.4,0.4,0.9,0.8,1.3,1.1c0.3-0.5,0.7-1.1,1.2-1.7C35.6,21.7,36.1,21.2,36.5,20.9z M11.7,31.2
		c0,0.8-0.1,1.4-0.2,1.9c-0.1,0.3-0.3,0.6-0.6,0.8c-0.4,0.3-0.9,0.4-1.6,0.5c-0.5,0.1-1.1,0.1-1.9,0.1c-0.1-0.3-0.1-0.7-0.2-1.1
		c-0.1-0.2-0.1-0.4-0.2-0.6c0.1,0,0.2,0,0.3,0c0.6,0,1,0,1.2,0l0.1,0c0.5-0.1,0.9-0.2,1.1-0.5c0.3-0.4,0.4-0.8,0.4-1.2v-9.2H4.6
		l-0.1,0.9c-0.1,0.8-0.1,1.7-0.2,2.6c-0.2,1.8-0.4,3.5-0.8,5.2c-0.2,1.2-0.5,2.3-0.9,3.4c-0.4-0.2-0.8-0.4-1.2-0.6
		c-0.1,0-0.2-0.1-0.2-0.1c0.4-1.1,0.7-2.3,1-3.6c0.3-1.6,0.5-3.3,0.7-4.9c0.2-1.7,0.3-3.3,0.3-4.9c0.1-1.6,0.1-3.1,0.1-4.5V2.4h8.4
		V31.2z M28.8,5.3c0.1-0.2,0.2-0.5,0.4-0.7c0.3-0.7,0.6-1.3,0.9-2c0.1-0.3,0.3-0.7,0.4-1l1.7,0.5c-0.3,0.6-0.7,1.2-1,1.8
		c-0.4,0.7-0.8,1.4-1.2,2l0-0.2L28.8,5.3z M16.1,2.2l1.2-0.4c0.3,0.6,0.6,1.1,0.9,1.8c0.2,0.5,0.4,1,0.6,1.4l-1.3,0.5
		c-0.1-0.5-0.3-1-0.6-1.6C16.6,3.3,16.4,2.8,16.1,2.2z M31.5,23.1c-0.1,2.3-0.3,4.2-0.4,5.7c-0.1,1.4-0.3,2.5-0.5,3.3
		c-0.2,0.8-0.4,1.2-0.6,1.4c-0.2,0.3-0.5,0.5-0.7,0.6c-0.3,0.1-0.7,0.2-1.1,0.3c-0.4,0-1,0.1-1.7,0.1l-0.4,0c-0.3,0-0.7,0-1,0
		c-0.1-0.3-0.1-0.7-0.3-1.1c0-0.1-0.1-0.2-0.1-0.2c0.1,0,0.3,0,0.4,0c0.6,0,1,0,1.3,0c0.4,0,0.6,0,0.9-0.1c0.4-0.1,0.7-0.3,1-0.6
		c0.4-0.4,0.6-0.9,0.8-1.9c0.1-0.7,0.3-1.7,0.4-3.1c0.1-0.7,0.1-1.4,0.2-2.3l0.1-1.1h-6.1l-0.2,0.8c-0.3,1.2-0.7,2.4-1.1,3.4
		c-0.6,1.3-1.5,2.6-2.6,3.6c-0.9,0.9-2.2,1.7-3.6,2.4c-0.2-0.3-0.4-0.6-0.6-0.9c-0.1-0.2-0.3-0.4-0.4-0.5c1.2-0.6,2.3-1.3,3.1-2
		c1.1-1,2-2.2,2.6-3.5c0.3-0.6,0.5-1.2,0.7-1.9l0.4-1.3H17v-1.3h5.1l0.1-0.9c0.1-1,0.2-1.9,0.3-2.8h1.7c-0.1,0.9-0.1,1.7-0.2,2.6
		l-0.1,1.1h7.7L31.5,23.1z M21.5,18.1c-0.1,1.3-0.2,2.5-0.3,3.7h-4.1c1.1-1.1,2.1-2.3,2.9-3.6c0.4-0.6,0.8-1.2,1.1-1.9h6.8
		c0.7,1.5,1.4,2.8,2.3,4c0.4,0.5,0.8,1,1.2,1.5h-1.4h-1.1H25c0.1-1.2,0.2-2.4,0.3-3.7H21.5z M34.3,21.7c-0.3,0.3-0.5,0.6-0.7,0.9
		c-0.1-0.1-0.3-0.2-0.4-0.4l-0.6-0.5l-0.5-0.6c-0.5-0.5-0.8-1-1.1-1.4c-0.8-1.1-1.5-2.4-2.2-3.8l-0.3-0.6h-8.1l-0.3,0.5
		c-0.4,0.7-0.7,1.3-1.1,1.8c-0.8,1.2-1.7,2.3-2.8,3.4l-0.6,0.6L15.4,22c-0.3,0.2-0.5,0.5-0.8,0.7c0,0-0.1-0.1-0.1-0.1
		c-0.3-0.4-0.6-0.8-0.9-1.2l-0.2-0.2c1.6-1.2,3-2.7,4.2-4.3l1.1-1.6h-4.2v-1.3h4.8l0.3-0.6c0.4-0.9,0.8-2,1.2-3.1L21.2,9h-6V7.7h6.3
		l0.2-0.8c0.4-1.8,0.8-3.8,1-5.8l1.7,0.2c-0.2,1.7-0.6,3.4-0.9,5.2l-0.3,1.2h10.7V9h-6l0.4,1.3c0.3,1.1,0.7,2.1,1.1,3.1l0.3,0.6h4.9
		v1.3h-4.4l1,1.5c0.4,0.6,0.8,1.1,1.1,1.6c0.8,1,1.7,1.9,2.6,2.6C34.7,21.2,34.5,21.4,34.3,21.7z"/>
	<path class="st0" d="M102,29.3c-1.1,0-2-0.1-2.8-0.2c-0.7-0.2-1.3-0.4-1.7-0.7c-0.4-0.3-0.7-0.6-0.9-1c-0.2-0.4-0.2-0.8-0.2-1.2
		c0-0.4,0.1-0.9,0.2-1.5c0.1-0.6,0.2-1.2,0.4-1.7l-4.1-0.4c-0.2,0.8-0.3,1.6-0.4,2.4c-0.1,0.8-0.2,1.7-0.2,2.5
		c0,1.9,0.8,3.4,2.5,4.4c1.7,1,4.1,1.5,7.2,1.5c1.5,0,2.9-0.1,4.1-0.2c1.3-0.1,2.4-0.2,3.5-0.4l0.2-4.4c-1.3,0.3-2.6,0.5-3.9,0.6
		C104.6,29.3,103.3,29.3,102,29.3z M108.7,29.7l-0.1,2.3c-0.8,0.1-1.7,0.2-2.6,0.3c-1.2,0.1-2.6,0.2-4.1,0.2c-2.9,0-5.2-0.5-6.7-1.4
		c-1.4-0.8-2-2-2-3.5c0-0.8,0.1-1.6,0.2-2.3c0.1-0.5,0.2-1,0.3-1.5l2,0.2c0,0.2-0.1,0.4-0.1,0.7c-0.1,0.6-0.2,1.2-0.2,1.7
		c0,0.6,0.1,1.1,0.3,1.6c0.2,0.6,0.6,1,1.2,1.4c0.5,0.4,1.2,0.6,2,0.8c0.8,0.2,1.8,0.3,3,0.3c1.3,0,2.6-0.1,3.9-0.2
		C106.9,30,107.8,29.9,108.7,29.7z"/>
	<path class="st0" d="M361.3,17.5c1.2-0.1,2.4-0.2,3.6-0.3c1.2-0.1,2.4-0.1,3.7-0.1c1.2,0,2.3,0,3.4,0.1c1.1,0.1,2.1,0.2,3.1,0.3
		l0.1-4.1c-1.1-0.1-2.2-0.2-3.3-0.2c-1.1,0-2.2-0.1-3.3-0.1c-1.2,0-2.5,0-3.7,0.1c-1.3,0.1-2.4,0.1-3.5,0.2V17.5z M362.3,14.4
		c0.8-0.1,1.6-0.1,2.5-0.2c1.2-0.1,2.5-0.1,3.7-0.1c1.1,0,2.2,0,3.3,0.1c0.8,0,1.6,0.1,2.3,0.1l-0.1,2.1c-0.7-0.1-1.3-0.1-2-0.2
		c-1.1-0.1-2.3-0.1-3.5-0.1c-1.3,0-2.5,0-3.7,0.1c-0.8,0-1.7,0.1-2.5,0.2V14.4z"/>
	<path class="st0" d="M98.2,10.3V6c-1.6,0.4-3.3,0.7-5,1c-0.5,0.1-1.1,0.2-1.6,0.2c0.1-0.7,0.3-1.3,0.4-1.8c0.1-0.4,0.2-1,0.3-1.7
		c0.2-0.7,0.3-1.3,0.4-1.8l-5.2-0.4c0.1,0.4,0.1,1,0,1.7c0,0.7-0.1,1.3-0.2,2c-0.1,0.6-0.2,1.2-0.3,2C87,7.4,87,7.6,87,7.7
		c-1.2,0.1-2.5,0.1-3.6,0.1c-0.7,0-1.5,0-2.2-0.1c-0.7,0-1.6-0.1-2.5-0.2l0.1,4.2c0.7,0,1.4,0.1,2.1,0.1c0.7,0,1.5,0.1,2.4,0.1
		c0.9,0,1.8,0,2.8-0.1c-0.1,0.2-0.1,0.4-0.1,0.7c-0.2,1-0.5,1.9-0.7,2.8c-0.4,1.3-0.8,2.8-1.3,4.3c-0.5,1.6-1.1,3.1-1.7,4.7
		c-0.6,1.6-1.2,3.1-1.8,4.5c-0.6,1.4-1.2,2.6-1.8,3.5l4.8,1.6c0.5-1.1,1-2.4,1.6-3.9c0.6-1.5,1.1-3,1.7-4.6c0.5-1.6,1.1-3.2,1.5-4.8
		c0.5-1.6,0.9-3,1.2-4.4c0.3-1.3,0.7-2.6,1-4c0.1-0.3,0.2-0.7,0.2-1c0.8-0.1,1.7-0.2,2.5-0.3C94.9,10.9,96.6,10.6,98.2,10.3z
		 M90.5,10.5l-0.7,0.1l-0.4,1.7c-0.3,1.4-0.6,2.7-1,3.9c-0.3,1.3-0.7,2.8-1.2,4.3c-0.5,1.5-1,3.1-1.5,4.7c-0.5,1.6-1.1,3.1-1.6,4.5
		c-0.4,1.1-0.8,2.1-1.2,3l-2.7-0.9c0.4-0.8,0.8-1.6,1.2-2.6c0.6-1.4,1.2-2.9,1.8-4.5c0.6-1.6,1.2-3.2,1.7-4.8c0.5-1.6,0.9-3,1.3-4.4
		c0.3-0.9,0.5-1.9,0.7-2.8l0.4-2L86,10.9c-1.1,0.1-2,0.1-2.7,0.1c-0.9,0-1.7,0-2.4-0.1c-0.4,0-0.8,0-1.2-0.1l-0.1-2.2
		c0.5,0,1,0.1,1.4,0.1c0.7,0,1.5,0.1,2.2,0.1c1.1,0,2.3,0,3.7-0.1l0.8-0.1L88,7.4c0.1-0.8,0.3-1.5,0.3-2.1c0.1-0.7,0.1-1.4,0.2-2.1
		c0-0.2,0-0.4,0-0.6l2.9,0.2c0,0.2-0.1,0.4-0.1,0.6c-0.2,0.7-0.3,1.3-0.3,1.7l-0.6,3.2l1.8-0.3c0.4-0.1,0.8-0.1,1.2-0.2
		c1.3-0.2,2.6-0.5,3.8-0.7v2.2c-1.3,0.3-2.7,0.5-4.1,0.7C92.2,10.3,91.4,10.4,90.5,10.5z"/>
	<path class="st0" d="M216.6,12.7c0.2,0.7,0.6,1.1,1.1,1.4c0.5,0.3,1.3,0.4,2.2,0.4c0.2,0,0.5,0,0.8,0c0.3,0,0.6,0,0.9,0
		c0.3,0,0.5,0,0.7,0c0.8,0,1.4-0.2,1.9-0.5c0.5-0.3,0.9-0.9,1.1-1.8c0.3-0.9,0.5-2.1,0.6-3.6c-0.5-0.1-1.1-0.3-1.8-0.6
		c-0.7-0.3-1.2-0.6-1.5-0.9c0,1.1-0.1,2-0.1,2.5s-0.1,0.9-0.2,1.1c-0.1,0.2-0.2,0.2-0.4,0.2c-0.1,0-0.2,0-0.4,0c-0.2,0-0.3,0-0.5,0
		c-0.2,0-0.3,0-0.4,0c-0.3,0-0.4-0.1-0.5-0.2c-0.1-0.1-0.1-0.4-0.1-0.9V1.2h-1.8h-2.1h-4.9h-2.3h-1.6v4.6c0,0.9-0.1,1.8-0.2,2.7
		c-0.2,0.9-0.5,1.9-1.1,2.8c-0.6,0.9-1.4,1.7-2.5,2.4v-2h-11.7v3.1h11.7v-1c0.3,0.2,0.5,0.4,0.9,0.6c0.4,0.3,0.8,0.7,1.2,1
		s0.7,0.6,0.8,0.9c1.3-0.9,2.4-2,3-3.2c0.7-1.2,1.2-2.4,1.4-3.7c0.3-1.3,0.4-2.5,0.4-3.6V4.7h4.9V10
		C216.3,11.2,216.4,12.1,216.6,12.7z M202.7,13.8h-9.7v-1.1h9.7V13.8z M210.4,3.7v2.1c0,1.1-0.1,2.2-0.4,3.5
		c-0.2,1.2-0.7,2.3-1.3,3.4c-0.5,0.8-1.2,1.6-2,2.3c-0.1-0.1-0.2-0.2-0.3-0.3c-0.4-0.3-0.8-0.7-1.2-1c0.7-0.6,1.3-1.3,1.8-2
		c0.6-1,1.1-2.1,1.2-3.1c0.2-1,0.3-2,0.3-2.9V2.2h10.6v7.7c0,0.7,0.1,1.1,0.2,1.4c0.1,0.3,0.5,0.7,1.4,0.7h1.2c0.5,0,1-0.3,1.3-0.7
		c0.2-0.3,0.3-0.8,0.4-1.5c0-0.3,0-0.6,0.1-0.9c0.1,0,0.2,0.1,0.2,0.1c0.4,0.2,0.8,0.3,1.1,0.4c-0.1,1.1-0.3,1.9-0.5,2.6
		c-0.2,0.6-0.5,1.1-0.8,1.3c-0.3,0.2-0.8,0.3-1.3,0.3H220c-0.8,0-1.4-0.1-1.8-0.3c-0.2-0.1-0.5-0.3-0.6-0.8
		c-0.2-0.6-0.3-1.4-0.3-2.4V3.7H210.4z"/>
	<path class="st0" d="M172,6.3c-1.4-0.1-2.7-0.2-3.9-0.4l0,4.4c1.1,0.1,2.4,0.2,3.8,0.2c1.4,0.1,2.8,0.1,4.3,0.1
		c1.5,0,2.9,0,4.3-0.1c1.4-0.1,2.6-0.1,3.8-0.2V5.9c-1,0.1-2.2,0.2-3.6,0.3c-1.4,0.1-2.8,0.1-4.3,0.2C174.9,6.3,173.4,6.3,172,6.3z
		 M180.8,7.2c0.9-0.1,1.8-0.1,2.5-0.2v2.4c-0.9,0.1-1.8,0.1-2.8,0.2c-1.4,0.1-2.8,0.1-4.2,0.1s-2.9,0-4.2-0.1c-1,0-2-0.1-2.9-0.2
		l0-2.3c0.9,0.1,1.8,0.2,2.8,0.2c1.2,0.1,2.4,0.1,3.7,0.1l0.8,0C177.9,7.3,179.4,7.3,180.8,7.2z"/>
	<path class="st0" d="M192.2,4.4h11.4V1.3h-11.4V4.4z M193.2,2.3h9.4v1.1h-9.4V2.3z"/>
	<path class="st0" d="M192.1,19.9h11.7v-3.1h-11.7V19.9z M193.1,17.8h9.7v1.1h-9.7V17.8z"/>
	<path class="st0" d="M242.3,1.3h-12v3.1h12V1.3z M241.3,3.4h-10V2.3h10V3.4z"/>
	<path class="st0" d="M98.8,13.3c-1.3,0.1-2.4,0.1-3.5,0.2v4c1.2-0.1,2.4-0.2,3.6-0.3c1.2-0.1,2.4-0.1,3.7-0.1c1.2,0,2.3,0,3.4,0.1
		c1.1,0.1,2.1,0.2,3.1,0.3l0.1-4.1c-1.1-0.1-2.2-0.2-3.3-0.2c-1.1,0-2.2-0.1-3.3-0.1C101.3,13.2,100,13.2,98.8,13.3z M108.1,14.4
		l-0.1,2.1c-0.7-0.1-1.3-0.1-2-0.2c-1.1-0.1-2.3-0.1-3.5-0.1c-1.3,0-2.5,0-3.7,0.1c-0.8,0-1.7,0.1-2.5,0.2v-2
		c0.8-0.1,1.6-0.1,2.5-0.2c1.2-0.1,2.5-0.1,3.7-0.1c1.1,0,2.2,0,3.3,0.1C106.6,14.3,107.4,14.3,108.1,14.4z"/>
	<path class="st0" d="M336.8,27.3c-0.9,0.5-1.7,0.7-2.5,0.7c-0.5,0-0.9-0.2-1.2-0.6c-0.3-0.4-0.4-0.8-0.4-1.3c0-1,0.1-2,0.2-3.2
		c0.1-1.2,0.3-2.4,0.5-3.6c0.2-1.2,0.3-2.4,0.5-3.6c0.1-1.2,0.2-2.2,0.2-3.2c0-1.1-0.2-2-0.6-2.8c-0.4-0.8-1.1-1.5-1.9-1.9
		c-0.8-0.5-1.9-0.7-3.2-0.7c-1,0-2,0.2-3.1,0.6c-1.1,0.4-2.1,0.9-3.2,1.6s-2,1.3-3,2.1c-0.7,0.6-1.4,1.1-2,1.7c0-0.1,0-0.3,0-0.4
		c0-0.3,0.1-0.6,0.1-0.8c0.1-0.1,0.1-0.2,0.2-0.3c0.3-0.5,0.6-0.9,0.9-1.4c0.3-0.5,0.6-0.8,0.8-1.1l-1.4-1.8c0.1-1.1,0.2-2,0.4-2.9
		c0.2-1.1,0.3-1.9,0.4-2.5l-5-0.2c0.1,0.6,0.2,1.1,0.2,1.7c0,0.5,0,1.1,0,1.6c0,0.3,0,0.7-0.1,1.5c0,0.5-0.1,1.1-0.1,1.7
		c0,0,0,0,0,0c-0.9,0.1-1.7,0.2-2.5,0.3c-0.8,0.1-1.5,0.2-2.1,0.2c-0.6,0-1.1,0-1.6,0.1c-0.5,0-1,0-1.5,0l0.5,4.4
		c0.6-0.1,1.3-0.2,2.1-0.3c0.8-0.1,1.5-0.2,2.2-0.3c0.7-0.1,1.4-0.2,2.1-0.3c0.2,0,0.4-0.1,0.7-0.1c0,0,0,0.1,0,0.1
		c-0.1,1-0.1,1.9-0.2,2.8c-0.2,0.3-0.4,0.7-0.7,1c-0.6,0.8-1.2,1.7-1.8,2.6c-0.7,0.9-1.3,1.8-2,2.8c-0.7,0.9-1.3,1.8-2,2.6
		c-0.6,0.8-1.2,1.5-1.7,2.1l2.7,3.8c0.5-0.7,1.1-1.6,1.8-2.5c0.7-1,1.3-1.9,2-2.9c0.5-0.7,1-1.4,1.4-2.1c0,0.9,0,1.8-0.1,2.5
		c0,1.1,0,2.2-0.1,3.2s0,2.1-0.1,3.4c0,0.3,0,0.7,0,1.2c0,0.5,0,1-0.1,1.4h4.7c-0.1-0.4-0.1-0.9-0.2-1.4c-0.1-0.5-0.1-1-0.1-1.3
		c-0.1-1.2-0.1-2.3-0.1-3.3c0-1.1,0-2.1-0.1-3.2c0-1.1,0-2.1,0-3.2c0-1.1,0-2.2,0.1-3.4c0.3-0.3,0.5-0.5,0.8-0.8
		c1.1-1.1,2.1-2.1,3.3-3c1.1-0.9,2.3-1.7,3.3-2.3c1.1-0.6,2.1-0.9,3-0.9c0.9,0,1.5,0.2,2,0.7c0.5,0.5,0.7,1.2,0.7,2.2
		c0,0.9-0.1,1.9-0.2,3c-0.1,1.1-0.3,2.3-0.5,3.5c-0.2,1.2-0.3,2.4-0.5,3.6c-0.1,1.2-0.2,2.3-0.2,3.3c0,1.8,0.4,3.1,1.3,4.1
		c0.8,0.9,2,1.4,3.3,1.4c1.5,0,2.8-0.3,4-0.8c1.2-0.5,2.2-1.2,3.1-2.1l-0.6-4.8C338.6,26.1,337.7,26.8,336.8,27.3z M336.5,31.2
		c-1,0.5-2.2,0.7-3.6,0.7c-1.1,0-1.9-0.4-2.6-1.1c-0.7-0.7-1-1.9-1-3.4c0-1,0.1-2.1,0.2-3.2c0.1-1.2,0.3-2.4,0.5-3.6
		c0.2-1.2,0.3-2.4,0.5-3.5c0.1-1.2,0.2-2.2,0.2-3.1c0-1.2-0.3-2.2-1-2.9c-0.7-0.7-1.6-1-2.7-1c-1.1,0-2.2,0.3-3.4,1
		c-1.1,0.6-2.3,1.4-3.5,2.4c-1.2,1-2.3,2-3.4,3.1c-0.2,0.2-0.4,0.4-0.5,0.6l-0.5,0.5l0,0.4c-0.1,1.3-0.1,2.5-0.1,3.5
		c0,1.1,0,2.1,0,3.2c0,1.1,0,2.1,0.1,3.2c0,1.1,0.1,2.2,0.1,3.4c0,0.4,0.1,0.8,0.1,1.4c0,0.1,0,0.2,0,0.3h-2.5c0-0.1,0-0.3,0-0.4
		c0-0.5,0-1,0-1.3c0-1.2,0-2.3,0.1-3.3c0-1,0-2.1,0.1-3.2l0.1-5.9l-3.3,4.9c-0.7,1-1.3,2-2,2.9c-0.3,0.5-0.7,0.9-1,1.4l-1.4-2
		c0.4-0.5,0.8-1,1.2-1.5c0.6-0.8,1.3-1.7,2-2.6l2-2.8c0.7-0.9,1.3-1.8,1.9-2.6c0.3-0.4,0.5-0.7,0.7-1l0.2-0.2l0-0.3
		c0.1-0.9,0.1-1.9,0.2-2.8l0.1-1.2l-1.2,0l-0.7,0.1c-0.6,0.1-1.3,0.2-2.1,0.3c-0.7,0.1-3,0.4-3.3,0.5l-0.2-2.2c0.1,0,0.3,0,0.4,0
		c0.5,0,1,0,1.6-0.1c0.6,0,1.3-0.1,2.2-0.2c0.8-0.1,1.7-0.2,2.6-0.3l0.8-0.1l0.1-0.8c0-0.6,0.1-1.2,0.1-1.7c0-0.7,0.1-1.3,0.1-1.5
		V3.2c0-0.2,0-0.4,0-0.6l2.6,0.1c-0.1,0.4-0.1,0.9-0.2,1.4c-0.1,0.9-0.3,1.8-0.4,2.9l0,0.4l1.2,1.5l-0.3,0.5c-0.4,0.5-0.7,1-0.9,1.5
		l-0.3,0.5l-0.1,1.1l-0.2,2.9l1.9-1.6c0.7-0.6,1.3-1.1,1.9-1.6c0.9-0.7,1.9-1.4,2.9-2c1-0.6,2-1.1,3-1.5c0.9-0.3,1.9-0.5,2.7-0.5
		c1.1,0,2.1,0.2,2.8,0.6c0.7,0.4,1.2,0.9,1.5,1.5c0.3,0.7,0.5,1.5,0.5,2.4c0,0.9-0.1,2-0.2,3.1c-0.1,1.2-0.3,2.4-0.5,3.6
		c-0.2,1.2-0.3,2.4-0.5,3.6c-0.1,1.2-0.2,2.3-0.2,3.3c0,0.8,0.2,1.4,0.6,2c0.3,0.4,0.9,0.9,2,0.9c0.9,0,1.9-0.3,3-0.9
		c0.5-0.3,1-0.6,1.4-1l0.3,2.3C338.3,30.2,337.4,30.8,336.5,31.2z"/>
	<path class="st0" d="M284.2,30c-2.7,0-4.7-0.4-6.2-1.2c-1.4-0.7-2.1-1.9-2.1-3.6c0-0.9,0.2-1.7,0.5-2.6c0.3-0.8,0.8-1.7,1.4-2.6
		l-4.3-1c-0.6,1.2-1.1,2.4-1.5,3.5c-0.3,1.1-0.5,2.2-0.5,3.3c0,1.8,0.5,3.3,1.5,4.5c1,1.2,2.5,2.2,4.3,2.8c1.9,0.6,4.1,1,6.6,1
		c2.3,0,4.2-0.1,5.9-0.3c1.7-0.2,3.1-0.4,4.2-0.6l0.2-4.3c-1.3,0.3-2.8,0.5-4.5,0.7C288.1,29.9,286.2,30,284.2,30z M293.2,30.3
		l-0.1,2.2c-0.9,0.2-2,0.3-3.3,0.4c-1.6,0.2-3.6,0.3-5.8,0.3c-2.4,0-4.5-0.3-6.3-0.9c-1.7-0.6-3-1.4-3.9-2.5
		c-0.9-1.1-1.3-2.3-1.3-3.9c0-1,0.2-2,0.5-3c0.3-0.8,0.6-1.7,1.1-2.7l2.1,0.5c-0.3,0.5-0.5,1.1-0.7,1.6c-0.4,1-0.5,1.9-0.5,2.9
		c0,2,0.9,3.6,2.7,4.5c1.6,0.8,3.8,1.2,6.6,1.3c0,0,0,0,0,0c2.1,0,4-0.1,5.7-0.3C291,30.7,292.1,30.5,293.2,30.3z"/>
	<path class="st0" d="M230.1,19.9h12.2v-3.1h-12.2V19.9z M231.1,17.8h10.2v1.1h-10.2V17.8z"/>
	<path class="st0" d="M230.1,14.8h12.2v-3.1h-12.2V14.8z M231.1,12.7h10.2v1.1h-10.2V12.7z"/>
	<path class="st0" d="M256,0.2h-4.1v12.7h-8.3v4h8.3v18.6h4.1V16.9h8.1v-4H256V0.2z M263.1,13.9v2H255v18.6h-2.1V15.9h-8.3v-2h8.3
		V1.2h2.1v12.7H263.1z"/>
	<path class="st0" d="M295.3,10.6c1-0.2,1.9-0.4,2.8-0.7l-0.5-4.3c-1,0.3-2,0.6-3.1,0.8c-1.1,0.3-2.2,0.5-3.3,0.7
		c-0.5,0.1-1.1,0.2-1.6,0.2c0-0.1-0.1-0.3-0.1-0.4c-0.3-0.9-0.6-1.9-0.8-2.8c-0.2-1-0.5-1.9-0.6-2.8l-4.6,0.5
		c0.2,0.6,0.4,1.2,0.6,1.8c0.2,0.6,0.4,1.1,0.5,1.6c0.2,0.6,0.4,1.3,0.7,2.2c0,0.1,0.1,0.3,0.1,0.4c-0.8,0.1-1.6,0.1-2.5,0.1
		c-1.8,0.1-3.7,0-5.8-0.1c-2-0.1-4.2-0.3-6.5-0.6l0.1,4.3c3.7,0.3,7.1,0.4,10.2,0.4c2.1,0,4.1-0.1,6-0.3c0.2,0.6,0.5,1.2,0.8,1.7
		c0.5,1.1,1,2.1,1.6,3.1c0.5,1,1.1,1.8,1.5,2.6c-0.4,0-0.9-0.1-1.6-0.1c-0.7-0.1-1.4-0.1-2.1-0.2c-0.7-0.1-1.4-0.1-2.1-0.2l-0.3,3.6
		c0.8,0.1,1.6,0.1,2.6,0.2c0.9,0.1,1.8,0.2,2.8,0.3c0.9,0.1,1.8,0.2,2.6,0.3c0.8,0.1,1.4,0.2,2,0.3l2.1-3c-0.3-0.4-0.7-0.8-1-1.2
		c-0.3-0.4-0.6-0.8-1-1.2c-0.7-0.9-1.4-2.2-2.2-3.7c-0.5-1-1-2-1.4-3c0.4-0.1,0.8-0.1,1.2-0.2C293.3,11,294.3,10.8,295.3,10.6z
		 M291.3,10.3l-1.8,0.3l0.5,1.2c0.5,1.2,1,2.1,1.4,3c0.8,1.6,1.6,2.9,2.3,3.8c0.4,0.5,0.7,0.9,1,1.3c0.2,0.2,0.3,0.4,0.5,0.6
		l-1.3,1.9c-0.4-0.1-0.9-0.1-1.4-0.2c-0.8-0.1-1.7-0.2-2.6-0.3c-0.9-0.1-1.9-0.2-2.8-0.3c-0.5-0.1-1.1-0.1-1.6-0.1l0.2-1.6
		c0.4,0,0.7,0.1,1.1,0.1c0.7,0.1,1.4,0.1,2.1,0.2c0.7,0.1,1.2,0.1,1.6,0.1l2,0.1l-1.1-1.7c-0.5-0.7-1-1.6-1.5-2.5
		c-0.5-0.9-1-1.9-1.5-3c-0.3-0.6-0.5-1.1-0.7-1.7l-0.3-0.7l-0.7,0.1c-1.9,0.1-3.9,0.2-5.9,0.3c-0.3,0-0.7,0-1,0
		c-2.5,0-5.2-0.1-8.2-0.3l0-2.3c1.9,0.2,3.7,0.4,5.4,0.4c1.3,0.1,2.5,0.1,3.7,0.1c0.7,0,1.5,0,2.2,0c0.9,0,1.7-0.1,2.5-0.1l1.3-0.1
		l-0.6-1.6c-0.3-0.9-0.5-1.6-0.7-2.2c-0.2-0.4-0.3-0.9-0.5-1.5c-0.1-0.2-0.1-0.5-0.2-0.7l2.4-0.3c0.1,0.6,0.3,1.3,0.5,1.9
		c0.2,1,0.5,2,0.8,2.9l0.4,1.2l1.4-0.2c0.4,0,0.8-0.1,1.1-0.2c1.1-0.2,2.3-0.4,3.3-0.7c0.7-0.2,1.4-0.3,2-0.5l0.3,2.2
		c-0.6,0.2-1.2,0.3-1.9,0.4c-1,0.2-2,0.4-3,0.5C291.8,10.2,291.6,10.3,291.3,10.3z"/>
	<path class="st0" d="M125.7,20.4c-0.5-1.1-1.1-2.3-1.6-3.6l-1-2.4l-1.1,1.2c-0.4,0.4-0.7,0.8-1,1.2c-0.8,1.1-1.4,2.3-1.8,3.5
		c-0.4,1.2-0.6,2.5-0.6,3.6c0,1.2,0.3,2.2,0.8,3c0.6,0.9,1.5,1.3,2.5,1.3c0.7,0,1.4-0.2,2.1-0.6c0.6-0.3,1.2-0.8,1.8-1.4
		c0.5-0.5,0.9-1,1.4-1.6l0.4-0.5l-0.5-0.8C126.8,22.4,126.3,21.5,125.7,20.4z M125.2,25.6c-0.5,0.5-1.1,0.9-1.6,1.2
		c-0.5,0.3-1.1,0.5-1.6,0.5c-0.7,0-1.3-0.3-1.7-0.9c-0.4-0.6-0.6-1.4-0.6-2.4c0-1.1,0.2-2.2,0.6-3.3c0.4-1.1,0.9-2.2,1.7-3.3
		c0.3-0.4,0.6-0.8,0.9-1.1c0.1,0.3,0.3,0.7,0.4,1c0.5,1.3,1.1,2.5,1.6,3.6c0.5,1.1,1.1,2.1,1.6,2.9c0,0.1,0.1,0.1,0.1,0.2
		C126.2,24.6,125.7,25.1,125.2,25.6z"/>
	<path class="st0" d="M141.6,9.2c-1.1-0.6-2.3-1-3.6-1.3c0.1-0.6,0.3-1.2,0.4-1.8c0.1-0.3,0.2-0.6,0.2-1.1c0.1-0.4,0.2-0.9,0.3-1.3
		c0.1-0.4,0.2-0.8,0.3-1.2l-4.7-0.5c0,0.4,0,1-0.1,1.7c0,0.7-0.1,1.3-0.2,1.8c-0.1,0.7-0.3,1.4-0.4,2.1c-1.7,0.1-3.3,0.3-5,0.8
		c-1.3,0.4-2.6,0.9-4,1.6c-0.3-0.9-0.5-1.7-0.8-2.5c-0.1-0.6-0.3-1.1-0.4-1.7c-0.1-0.6-0.3-1.2-0.4-1.8l-4.5,1.4
		c0.3,0.6,0.6,1.3,0.8,1.9c0.2,0.6,0.4,1.3,0.6,1.9c0.3,1.1,0.7,2.1,1,3.2c-0.8,0.7-1.6,1.5-2.2,2.3c-1.1,1.4-1.9,3-2.5,4.6
		c-0.6,1.7-0.9,3.3-0.9,5c0,1.6,0.3,2.9,0.8,4c0.5,1.1,1.3,1.9,2.2,2.5c0.9,0.6,1.9,0.9,2.9,0.9c1.2,0,2.2-0.2,3.2-0.7
		c1-0.5,2-1.2,3-2.2c0.4-0.4,0.8-0.9,1.3-1.3c0.5,0.6,0.9,1.1,1.4,1.7l3.5-2.8c-0.7-0.7-1.5-1.5-2.2-2.4c0.6-0.8,1.1-1.7,1.6-2.7
		c0.7-1.5,1.4-3.1,2.1-4.8c0.6-1.6,1.1-3.2,1.6-4.8c0.8,0.2,1.6,0.5,2.3,0.9c1.4,0.8,2.5,1.8,3.2,3.2c0.8,1.4,1.2,2.9,1.2,4.7
		c0,1.2-0.2,2.4-0.7,3.6c-0.5,1.1-1.2,2.2-2.1,3.1c-1,0.9-2.2,1.6-3.7,2.2c-1.5,0.6-3.3,1-5.4,1.1l2.6,3.9c2.7-0.4,5-1.2,7.1-2.3
		c2.1-1.1,3.7-2.7,4.8-4.6c1.2-1.9,1.7-4.2,1.7-6.8c0-2.6-0.6-4.9-1.7-6.8C145.2,11.8,143.6,10.3,141.6,9.2z M145.4,26.9
		c-1.1,1.8-2.6,3.2-4.5,4.2c-1.8,1-3.8,1.7-6.1,2.1l-1.3-2c1.5-0.2,2.8-0.6,4-1c1.6-0.6,3-1.4,4-2.4c1-1,1.8-2.1,2.4-3.4
		c0.5-1.3,0.8-2.6,0.8-4c0-1.9-0.4-3.7-1.3-5.2c-0.9-1.5-2.1-2.7-3.6-3.6c-0.8-0.4-1.6-0.7-2.5-1l-0.9-0.2l-0.3,0.9
		c-0.5,1.6-1,3.2-1.6,4.7c-0.6,1.7-1.3,3.2-2,4.7c-0.5,0.9-1,1.8-1.5,2.6l-0.4,0.6l0.5,0.6c0.5,0.6,1,1.2,1.5,1.7l-1.8,1.5
		c-0.3-0.3-0.5-0.6-0.8-1l-0.7-0.9l-0.8,0.9c-0.5,0.5-0.8,0.9-1.2,1.3c-0.9,0.9-1.8,1.6-2.7,2c-0.8,0.4-1.8,0.6-2.8,0.6
		c-0.8,0-1.6-0.2-2.3-0.7c-0.7-0.5-1.3-1.2-1.8-2.1c-0.5-1-0.7-2.2-0.7-3.6c0-1.5,0.3-3.1,0.8-4.7c0.6-1.6,1.4-3,2.4-4.4
		c0.6-0.8,1.3-1.5,2.1-2.2l0.5-0.4l-0.2-0.6c-0.4-1.2-0.7-2.2-1-3.2c-0.2-0.7-0.4-1.3-0.7-2c-0.1-0.3-0.2-0.6-0.4-0.9l2.3-0.7
		c0.1,0.3,0.6,2.5,0.6,2.5c0.2,0.8,0.5,1.7,0.8,2.6l0.4,1.1l1.1-0.6c1.3-0.7,2.6-1.2,3.7-1.5c1.5-0.4,3.1-0.7,4.8-0.7l0.8,0l0.2-0.7
		c0.2-0.7,0.3-1.4,0.4-2.1c0.1-0.5,0.2-1.2,0.2-1.9c0-0.2,0-0.4,0-0.6l2.5,0.2c0,0,0,0,0,0.1c-0.1,0.5-0.2,0.9-0.3,1.4
		c-0.1,0.4-0.2,0.8-0.2,1c-0.1,0.6-0.3,1.2-0.4,1.7l-0.3,1l1,0.3c1.2,0.3,2.4,0.7,3.4,1.2c1.8,1,3.3,2.4,4.3,4.2
		c1,1.8,1.6,3.9,1.6,6.3C147,23,146.5,25.1,145.4,26.9z"/>
	<path class="st0" d="M128.6,11.4c-1,0.4-2,0.9-3,1.5l-0.7,0.4c0,0,0.5,1.3,0.5,1.4c0.4,1.2,0.9,2.3,1.4,3.3c0.5,1,0.9,1.9,1.4,2.7
		l1,1.4l0.8-1.3c0.5-0.8,0.9-1.6,1.2-2.3c0.6-1.4,1.2-2.8,1.8-4.3c0.3-0.8,0.5-1.6,0.8-2.4l0.4-1.4l-1.5,0.1
		C131.3,10.6,129.9,10.9,128.6,11.4z M132.1,13.8c-0.5,1.5-1.1,2.9-1.7,4.2c-0.4,0.8-0.8,1.6-1.2,2.3c0,0-0.1-0.1-0.1-0.1
		c-0.4-0.7-0.9-1.6-1.3-2.6c-0.5-1-0.9-2.1-1.3-3.2c-0.1-0.2-0.1-0.4-0.2-0.6c0.9-0.5,1.9-1,2.8-1.4c1.2-0.5,2.5-0.7,3.8-0.9
		C132.6,12.2,132.4,13,132.1,13.8z"/>
	<path class="st0" d="M364.2,10.3V6c-1.6,0.4-3.3,0.7-5,1c-0.5,0.1-1.1,0.2-1.6,0.2c0.1-0.7,0.3-1.3,0.4-1.8c0.1-0.4,0.2-1,0.3-1.7
		c0.2-0.7,0.3-1.3,0.4-1.8l-5.2-0.4c0.1,0.4,0.1,1,0,1.7c0,0.7-0.1,1.3-0.2,2c-0.1,0.6-0.2,1.2-0.3,2c0,0.2-0.1,0.3-0.1,0.5
		c-1.2,0.1-2.5,0.1-3.6,0.1c-0.7,0-1.5,0-2.2-0.1c-0.7,0-1.6-0.1-2.5-0.2l0.1,4.2c0.7,0,1.4,0.1,2.1,0.1s1.5,0.1,2.4,0.1
		c0.9,0,1.8,0,2.8-0.1c-0.1,0.2-0.1,0.4-0.1,0.7c-0.2,1-0.5,1.9-0.7,2.8c-0.4,1.3-0.8,2.8-1.3,4.3c-0.5,1.6-1.1,3.1-1.7,4.7
		c-0.6,1.6-1.2,3.1-1.8,4.5c-0.6,1.4-1.2,2.6-1.8,3.5l4.8,1.6c0.5-1.1,1-2.4,1.6-3.9c0.6-1.5,1.1-3,1.7-4.6c0.5-1.6,1.1-3.2,1.5-4.8
		c0.5-1.6,0.9-3,1.2-4.4c0.3-1.3,0.7-2.6,1-4c0.1-0.3,0.2-0.7,0.2-1c0.8-0.1,1.7-0.2,2.5-0.3C360.9,10.9,362.6,10.6,364.2,10.3z
		 M356.5,10.5l-0.7,0.1l-0.4,1.7c-0.3,1.4-0.6,2.7-1,3.9c-0.3,1.3-0.7,2.8-1.2,4.3c-0.5,1.5-1,3.1-1.5,4.7c-0.5,1.6-1.1,3.1-1.6,4.5
		c-0.4,1.1-0.8,2.1-1.2,3l-2.7-0.9c0.4-0.8,0.8-1.6,1.2-2.6c0.6-1.4,1.2-2.9,1.8-4.5c0.6-1.6,1.2-3.2,1.7-4.8
		c0.5-1.6,0.9-3.1,1.3-4.4c0.3-0.9,0.5-1.9,0.7-2.8l0.4-2l-1.3,0.1c-1.1,0.1-2,0.1-2.7,0.1c-0.9,0-1.7,0-2.4-0.1
		c-0.4,0-0.8,0-1.2-0.1l-0.1-2.2c0.5,0,1,0.1,1.4,0.1c0.7,0,1.5,0.1,2.2,0.1c1.1,0,2.3,0,3.7-0.1l0.8-0.1l0.2-1.2
		c0.1-0.8,0.3-1.5,0.3-2.1c0.1-0.7,0.1-1.4,0.2-2.1c0-0.2,0-0.4,0-0.6l2.9,0.2c0,0.2-0.1,0.4-0.1,0.7c-0.2,0.7-0.3,1.3-0.3,1.7
		l-0.7,3.2l1.8-0.3c0.4-0.1,0.8-0.1,1.2-0.2c1.3-0.2,2.6-0.5,3.8-0.7v2.2c-1.3,0.3-2.7,0.5-4.1,0.7
		C358.2,10.3,357.4,10.4,356.5,10.5z"/>
	<path class="st0" d="M371.9,29.1c-1.3,0.1-2.6,0.2-3.8,0.2c-1.1,0-2-0.1-2.8-0.2c-0.7-0.2-1.3-0.4-1.7-0.7c-0.4-0.3-0.7-0.6-0.9-1
		c-0.2-0.4-0.2-0.8-0.2-1.2c0-0.4,0.1-0.9,0.2-1.5c0.1-0.6,0.2-1.2,0.4-1.7l-4.1-0.4c-0.2,0.8-0.3,1.6-0.4,2.4
		c-0.1,0.8-0.2,1.7-0.2,2.5c0,1.9,0.8,3.4,2.5,4.4c1.7,1,4.1,1.5,7.2,1.5c1.5,0,2.9-0.1,4.1-0.2c1.3-0.1,2.4-0.2,3.5-0.4l0.2-4.4
		C374.5,28.8,373.2,29,371.9,29.1z M374.7,32c-0.8,0.1-1.7,0.2-2.6,0.3c-1.2,0.1-2.6,0.2-4.1,0.2c-2.9,0-5.2-0.5-6.7-1.4
		c-1.4-0.8-2-2-2-3.5c0-0.8,0.1-1.6,0.2-2.3c0.1-0.5,0.2-1,0.3-1.5l2,0.2c0,0.2-0.1,0.4-0.1,0.6c-0.1,0.6-0.2,1.2-0.2,1.7
		c0,0.6,0.1,1.1,0.3,1.6c0.2,0.5,0.6,1,1.2,1.4c0.5,0.4,1.2,0.6,2,0.8c0.8,0.2,1.8,0.3,3,0.3c1.3,0,2.6-0.1,3.9-0.2
		c0.9-0.1,1.8-0.2,2.8-0.4L374.7,32z"/>
	<path class="st0" d="M232,22h-2v13h3.6v-1.6h8.6V22h-8.6H232z M241.1,32.5h-8.6V34H231V23h10.2V32.5z"/>
	<path class="st0" d="M239.5,24.3h-7v6.9h7V24.3z M238.5,30.2h-5v-4.9h5V30.2z"/>
	<path class="st0" d="M160.6,20.8c-0.2,0.5-0.4,1-0.6,1.5c-0.2,0.5-0.4,1-0.6,1.4c-0.1-0.5-0.1-1.1-0.1-1.6c0-0.6-0.1-1.1-0.1-1.6
		c0-0.8,0.1-1.7,0.2-2.7c0.1-1,0.2-2.1,0.4-3.2c0.1-1.1,0.3-2.2,0.5-3.2c0.2-1.1,0.3-2,0.5-2.9c0.2-0.9,0.3-1.6,0.4-2.1
		c0.1-0.2,0.1-0.5,0.2-1c0.1-0.4,0.2-0.8,0.3-1.2s0.2-0.7,0.3-1l-4.8-0.4c0,0.6-0.1,1.1-0.2,1.7c-0.1,0.6-0.1,1.2-0.2,1.7
		c-0.1,0.8-0.3,1.7-0.5,2.8c-0.2,1.1-0.4,2.4-0.5,3.7c-0.2,1.4-0.3,2.8-0.5,4.2c-0.1,1.5-0.2,2.9-0.2,4.3c0,2.6,0.2,5,0.5,7.1
		c0.3,2.2,0.6,3.9,1,5.2l3.9-0.3c0-0.3,0-0.5-0.1-0.8c0-0.3,0-0.5,0-0.7c0-0.2,0-0.5,0.1-0.8c0-0.4,0.1-0.7,0.1-1
		c0.2-0.6,0.4-1.5,0.7-2.5c0.3-1,0.6-2.1,1-3.3c0.4-1.2,0.7-2.3,1.1-3.3l-2.2-1.7C161,19.9,160.8,20.3,160.6,20.8z M162.2,21.5
		c-0.3,0.8-0.6,1.7-0.9,2.6c-0.4,1.2-0.7,2.3-1,3.3c-0.3,1.1-0.5,1.9-0.7,2.5c-0.1,0.4-0.1,0.7-0.2,1.1c0,0.4-0.1,0.7-0.1,0.9
		c0,0.2,0,0.3,0,0.6l-2.1,0.1c-0.3-1.2-0.5-2.6-0.8-4.3c-0.3-2.1-0.4-4.5-0.4-7c0-1.4,0.1-2.8,0.2-4.2c0.1-1.5,0.3-2.9,0.5-4.2
		c0.2-1.4,0.4-2.6,0.5-3.7c0.2-1.1,0.3-2.1,0.5-2.8c0.1-0.6,0.1-1.1,0.2-1.7c0-0.3,0.1-0.5,0.1-0.8l2.5,0.2
		c-0.1,0.4-0.2,0.7-0.3,1.1c-0.1,0.4-0.2,0.7-0.2,1c-0.1,0.6-0.2,1.3-0.4,2.2c-0.2,0.9-0.3,1.9-0.5,2.9c-0.2,1.1-0.3,2.1-0.5,3.2
		c-0.1,1.1-0.3,2.2-0.4,3.2c-0.1,1-0.2,2-0.2,2.8c0,0.6,0,1.1,0.1,1.7c0,0.6,0.1,1.1,0.1,1.7l0.4,3.8l1.5-3.5
		c0.2-0.5,0.4-0.9,0.6-1.5c0.2-0.5,0.7-1.6,0.7-1.7L162.2,21.5z"/>
	<path class="st0" d="M205,6.3h-14.8v3.3H205V6.3z M204,8.6h-12.8V7.3H204V8.6z"/>
	<path class="st0" d="M180.7,27.9c-1.5,0.2-3.1,0.2-4.8,0.2c-1.1,0-2-0.1-2.7-0.2c-0.7-0.1-1.3-0.3-1.7-0.6c-0.4-0.3-0.8-0.6-1-0.9
		c-0.2-0.4-0.3-0.8-0.3-1.2c0-0.5,0-1,0.1-1.5c0.1-0.5,0.2-1.1,0.3-1.7l-3.9-0.3c-0.2,0.9-0.4,1.8-0.5,2.6c-0.1,0.8-0.2,1.5-0.2,2.2
		c0,1.9,0.8,3.4,2.3,4.5c1.6,1.1,4,1.6,7.2,1.6c2.1,0,3.9-0.1,5.5-0.2c1.6-0.1,3-0.3,4.2-0.6l-0.1-4.6
		C183.7,27.4,182.2,27.7,180.7,27.9z M181.2,31.3c-1.6,0.1-3.4,0.2-5.4,0.2c-3,0-5.3-0.5-6.6-1.4c-1.3-0.9-1.9-2.1-1.9-3.6
		c0-0.7,0.1-1.4,0.2-2.1c0.1-0.5,0.2-1.1,0.3-1.6l1.9,0.2c0,0.2-0.1,0.5-0.1,0.7c-0.1,0.6-0.1,1.1-0.1,1.7c0,0.6,0.1,1.1,0.4,1.7
		c0.3,0.5,0.7,1,1.3,1.3c0.5,0.3,1.2,0.5,2,0.7c0.8,0.2,1.7,0.2,2.9,0.2c1.7,0,3.4-0.1,4.9-0.3c1.2-0.1,2.4-0.3,3.6-0.5l0,2.5
		C183.5,31,182.4,31.2,181.2,31.3z"/>
	<path class="st0" d="M243.7,6.3h-15.5v3.3h15.5V6.3z M242.7,8.6h-13.5V7.3h13.5V8.6z"/>
	<path class="st0" d="M221.3,24c1.2-2,2.1-4.2,2.7-6.7l-2.7-1l-0.7,0.2h-0.8h-14.3v3.7h5.2h8c-0.4,0.8-0.8,1.6-1.2,2.3
		c-0.8,1.3-1.7,2.4-2.7,3.4c-1.7-1.7-3.1-3.6-4-5.8l-3.6,1.1c1.2,2.7,2.8,5,4.7,7.1c-0.8,0.6-1.7,1.1-2.6,1.5
		c-1.7,0.9-3.6,1.5-5.5,2.1c0.3,0.3,0.6,0.6,0.8,1.1c0.3,0.4,0.5,0.9,0.8,1.3c0.3,0.4,0.4,0.8,0.6,1.2c2.2-0.7,4.2-1.5,6.1-2.5
		c1-0.5,2-1.1,2.9-1.8c2.5,1.9,5.3,3.4,8.6,4.3c0.2-0.4,0.4-0.7,0.7-1.2c0.3-0.4,0.6-0.9,1-1.3c0.3-0.4,0.7-0.8,1-1
		c-3.1-0.8-5.8-2-8.2-3.6C219.2,27.1,220.3,25.7,221.3,24z M224.3,32.5c-0.3,0.4-0.6,0.8-0.9,1.2c-0.1,0.2-0.2,0.4-0.4,0.5
		c-2.8-0.9-5.4-2.2-7.5-3.9l-0.6-0.5l-0.6,0.4c-0.9,0.6-1.8,1.2-2.7,1.7c-1.6,0.9-3.3,1.6-5.1,2.2c-0.1-0.2-0.2-0.3-0.3-0.5
		c-0.3-0.4-0.5-0.9-0.8-1.3c1.5-0.5,2.9-1,4.3-1.7c0.9-0.5,1.8-1,2.7-1.6l1-0.6l-0.8-0.9c-1.6-1.7-2.9-3.6-4-5.8l1.7-0.5
		c1,1.9,2.3,3.7,3.9,5.3l0.7,0.7l0.7-0.7c1.1-1.1,2.1-2.3,2.9-3.6c0.5-0.7,0.9-1.5,1.3-2.4l0.6-1.4h-13.7v-1.7h14.2l0.5-0.1l1.5,0.6
		c-0.6,2.1-1.4,4-2.4,5.6c-0.9,1.5-2,2.9-3.2,4.2l-0.8,0.9l1,0.7C219.5,30.6,221.8,31.7,224.3,32.5z"/>
	<path class="st0" d="M195.4,22H194h-2v13h3.5v-1.6h8.2v-1.6V22H195.4z M202.6,32.5h-8.2V34H193V23h9.7V32.5z"/>
	<path class="st0" d="M201.1,24.3h-6.7v6.9h6.7V24.3z M200.1,30.2h-4.7v-4.9h4.7V30.2z"/>
</g>
</svg>
