<?xml version="1.0" encoding="utf-8"?>
<!-- Generator: Adobe Illustrator 27.9.1, SVG Export Plug-In . SVG Version: 6.00 Build 0)  -->
<svg version="1.1" id="Layer_1" xmlns:inkscape="http://www.inkscape.org/namespaces/inkscape"
	 xmlns="http://www.w3.org/2000/svg" xmlns:xlink="http://www.w3.org/1999/xlink" x="0px" y="0px" viewBox="0 0 70 32"
	 style="enable-background:new 0 0 70 32;" xml:space="preserve">
<style type="text/css">
	.st0{fill:#070707;}
</style>
<g>
	<path class="st0" d="M3.8,1.4l0.1,5.8C7,7.2,11.5,7,17.6,6.8s9.7-0.4,10.9-0.5l-0.4-5.8c-3,0-6.8,0.2-11.5,0.4
		C11.9,1.1,7.6,1.3,3.8,1.4z M27.1,1.6l0.3,3.8c-1.7,0.1-5,0.2-9.9,0.4C12.1,6,7.9,6.1,4.9,6.2L4.8,2.4c3.6-0.1,7.5-0.3,11.8-0.5
		C20.8,1.8,24.3,1.6,27.1,1.6z"/>
	<path class="st0" d="M7.6,17.2C7.3,21.6,5,25.4,0.7,28.6l6,2.9c3.9-2.7,6.2-7.5,6.8-14.4h0.2c0.6,0,2.1,0,4.2-0.1
		c0.1,5.2,0.2,8.4,0.4,9.8c0.3,3,2.1,4.6,5.2,4.6h0.6c3.8,0,6.6-0.5,8.5-1.4l0-6.2c-2.8,1.1-5.2,1.6-7.1,1.6h-0.5
		c-0.9,0-1.3-0.6-1.3-1.7l-0.1-6.8c2.8-0.1,5.7-0.3,8.9-0.6l-0.5-5.3c-4.9,0.2-10.4,0.4-16.2,0.6C10,11.7,4.7,11.8,0,11.8l0.1,5.3
		C2.3,17.2,4.8,17.2,7.6,17.2z M15.9,12.5c5.5-0.2,10.6-0.4,15.3-0.6l0.3,3.4c-2.8,0.3-5.4,0.5-7.8,0.5l-1,0l0.2,7.8
		c0,2.4,1.7,2.7,2.3,2.7l0.5,0c1.7,0,3.8-0.4,6.1-1.2l0,4.1c-1.7,0.7-4.2,1.1-7.5,1.1h-0.6c-2.7,0-4-1.2-4.2-3.7
		c-0.2-1.3-0.3-4.6-0.4-9.7l0-1l-1,0c-2.1,0.1-3.6,0.1-4.2,0.1h-1.1L12.6,17C12,23.3,10,27.8,6.6,30.3l-4-1.9
		c3.7-3.2,5.7-6.9,6-11.1l0.1-1.1H7.6c-2.4,0-4.6,0-6.5-0.1L1,12.8C5.4,12.8,10.4,12.7,15.9,12.5z"/>
	<path class="st0" d="M44,8.7l0.1,4.7c12.8-0.1,20.4-0.2,23-0.3l-0.2-4.9c-2.3,0-5.9,0.1-10.7,0.2s-8.4,0.1-10.8,0.1h-1.3
		c0.3-0.5,0.5-1,0.6-1.5c15.5-0.3,23.7-0.5,24.7-0.6l-0.3-4.9C66.5,1.6,63,1.7,58.5,1.8C52.8,1.9,48.6,2,46.1,2.1
		c0.1-0.4,0.2-1,0.3-1.7L41.3,0c-0.9,4.4-2.8,8.1-5.6,11.1l5.6,2.6C42.4,12.1,43.3,10.5,44,8.7z M45.3,9.5c2.4,0,6,0,10.8-0.1
		c4.2-0.1,7.4-0.1,9.8-0.2l0.1,2.9c-3.2,0.1-10.2,0.2-21,0.3L45,9.5H45.3z M37.3,10.7c2.2-2.7,3.8-6,4.8-9.7l3.2,0.3
		c0,0.2-0.1,0.4-0.1,0.5l-0.3,1.3c0,0,7.9-0.2,13.7-0.3c3.9-0.1,7.2-0.2,9.6-0.3l0.2,2.9C65.6,5.6,57.6,5.7,44.7,6l-0.8,0l-0.2,0.7
		c-0.1,0.4-0.3,0.8-0.5,1.2l-0.8,1.5h0.2c-0.5,1-1,2-1.6,2.9L37.3,10.7z"/>
	<path class="st0" d="M39.2,31.8c3.5-0.8,6.7-1.9,9.4-3.2c2.5,1.1,4.8,2.3,6.8,3.5l4.2-4.4c-1.9-0.9-3.7-1.7-5.5-2.4
		c1.5-1.1,2.9-2.4,4.2-3.9l-4.6-1.5c1.2,0,2.3,0,3.3,0c0.8,0,1.3,0,1.6,0c1,0.1,1.5,0.7,1.5,1.7v3.2c0,1,0.1,2.1,0.4,3.5
		s0.8,2.2,1.6,2.7s1.6,0.7,2.4,0.7c1.5,0,3.4-0.6,5.5-1.7l-0.4-6.7c-1.2,1.2-2.3,1.9-3.3,1.9h-0.1c-0.4-0.1-0.7-0.3-0.9-0.6
		s-0.2-0.9-0.2-1.7l0.1-3.9v-0.9c0-2.1-0.7-3.1-2-3.3c-0.7,0-1.6-0.1-2.4-0.1c-1.3,0-3.7,0-7.2,0.1l-16.1,0.3l0.1,5.2
		c6-0.3,11-0.5,15.2-0.6c-1.3,1.2-2.6,2.3-4.1,3.2c-2.4-0.9-4.7-1.7-6.9-2.3L38,24.5c1.3,0.4,2.5,0.9,3.7,1.3
		c-1.6,0.5-3.4,0.9-5.4,1.3L39.2,31.8z M52.7,18.8c-3.9,0.1-8.7,0.3-14.2,0.5l-0.1-3.2l15.1-0.3c3.5,0,6-0.1,7.2-0.1
		c0.9,0,1.7,0,2.4,0.1c0.3,0,1.1,0.1,1.1,2.3v0.9l-0.1,3.9c0,1,0.1,1.6,0.3,2c0.2,0.4,0.6,1,1.6,1.2l0.1,0h0.2
		c0.8,0,1.6-0.3,2.4-0.8l0.2,4.1c-1.7,0.9-3.2,1.3-4.5,1.3c-0.6,0-1.2-0.2-1.9-0.6c-0.6-0.3-0.9-1-1.1-2c-0.2-1.3-0.4-2.4-0.4-3.3
		v-3.2c0-1.6-0.9-2.6-2.4-2.7c-0.2,0-0.5,0-1.7,0c-0.6,0-1.2,0-1.9,0l0,0L52.7,18.8z M42.1,24.9c-0.7-0.3-1.5-0.5-2.3-0.8l2.2-2.3
		c2,0.6,4.1,1.3,6.3,2.1l0.5,0.2l0.4-0.2c1.5-0.9,3-2,4.3-3.3l0,0l0,0.3l3.2,1c-0.9,1-1.9,1.8-3,2.6l-1.4,1l1.6,0.7
		c1.4,0.6,2.8,1.2,4.2,1.9l-2.7,2.8c-1.9-1.1-4-2.1-6.2-3.1l-0.4-0.2l-0.4,0.2c-2.5,1.2-5.4,2.2-8.5,3l-1.7-2.8
		c1.4-0.3,2.8-0.7,4.1-1l2.9-0.9L42.1,24.9z"/>
</g>
</svg>
