<?xml version="1.0" encoding="utf-8"?>
<!-- Generator: Adobe Illustrator 27.9.1, SVG Export Plug-In . SVG Version: 6.00 Build 0)  -->
<svg version="1.1" id="Layer_1" xmlns:inkscape="http://www.inkscape.org/namespaces/inkscape"
	 xmlns="http://www.w3.org/2000/svg" xmlns:xlink="http://www.w3.org/1999/xlink" x="0px" y="0px" viewBox="0 0 71.3 32.1"
	 style="enable-background:new 0 0 71.3 32.1;" xml:space="preserve">
<style type="text/css">
	.st0{fill:#070707;}
</style>
<g>
	<path class="st0" d="M33.9,23.4c-1.2,1.2-2.3,1.9-3.3,1.9h-0.1c-0.4-0.1-0.7-0.3-0.9-0.6c-0.1-0.3-0.2-0.9-0.2-1.7l0.1-3.9v-0.9
		c0-2.1-0.7-3.1-2-3.3c-0.7,0-1.6-0.1-2.4-0.1c-1.3,0-3.7,0-7.2,0.1L1.7,15.3l0.1,5.2c6-0.3,11-0.5,15.2-0.6
		c-1.3,1.2-2.6,2.3-4.1,3.2c-2.4-0.9-4.7-1.7-6.9-2.3l-3.7,3.9c1.3,0.4,2.5,0.9,3.7,1.3c-1.6,0.5-3.4,0.9-5.4,1.3l2.9,4.7
		c3.5-0.8,6.7-1.9,9.4-3.2c2.5,1.1,4.8,2.3,6.8,3.5l4.2-4.4c-1.9-0.9-3.7-1.7-5.5-2.4c1.5-1.1,2.9-2.4,4.2-3.9L18,19.9
		c1.2,0,2.3,0,3.3,0c0.8,0,1.3,0,1.6,0c1,0.1,1.5,0.7,1.5,1.7v3.2c0,1,0.1,2.1,0.4,3.5s0.8,2.2,1.6,2.7s1.6,0.7,2.4,0.7
		c1.5,0,3.4-0.6,5.5-1.7L33.9,23.4z M20.8,21.9c-0.9,1-1.9,1.8-3,2.6l-1.4,1l1.6,0.7c1.4,0.6,2.8,1.2,4.2,1.9l-2.7,2.8
		c-1.9-1.1-4-2.1-6.2-3.1l-0.4-0.2l-0.4,0.2C10,29,7.1,30,4,30.8l-1.7-2.8c1.4-0.3,2.8-0.7,4.1-1L9.2,26l-2.8-1
		c-0.7-0.3-1.5-0.5-2.3-0.8l2.2-2.3c2,0.6,4.1,1.3,6.3,2.1l0.5,0.2l0.4-0.2c1.5-0.9,3-2,4.3-3.3l0,0l0,0.3L20.8,21.9z M28.8,30.8
		c-0.6,0-1.2-0.2-1.9-0.6c-0.6-0.3-0.9-1-1.1-2c-0.2-1.3-0.4-2.4-0.4-3.3v-3.2c0-1.6-0.9-2.6-2.4-2.7c-0.2,0-0.5,0-1.7,0
		c-0.6,0-1.2,0-1.9,0l0,0L17,18.9C13,19,8.3,19.2,2.8,19.4l-0.1-3.2l15.1-0.3c3.5,0,6-0.1,7.2-0.1c0.9,0,1.7,0,2.4,0.1
		c0.3,0,1.1,0.1,1.1,2.3V19L28.4,23c0,1,0.1,1.6,0.3,2c0.2,0.4,0.6,1,1.6,1.2l0.1,0h0.2c0.8,0,1.6-0.3,2.4-0.8l0.2,4.1
		C31.5,30.3,30,30.8,28.8,30.8z"/>
	<path class="st0" d="M8.3,8.8l0.1,4.7c12.8-0.1,20.4-0.2,23-0.3l-0.2-4.9c-2.3,0-5.9,0.1-10.7,0.2S12,8.6,9.6,8.6H8.4
		c0.3-0.5,0.5-1,0.6-1.5c15.5-0.3,23.7-0.5,24.7-0.6l-0.3-4.9c-2.6,0.1-6.1,0.2-10.6,0.3c-5.8,0.1-9.9,0.2-12.4,0.3
		c0.1-0.4,0.2-1,0.3-1.7L5.6,0.1C4.7,4.5,2.8,8.2,0,11.2l5.6,2.6C6.7,12.2,7.6,10.6,8.3,8.8z M9.6,9.6c2.4,0,6,0,10.8-0.1
		c4.2-0.1,7.4-0.1,9.8-0.2l0.1,2.9c-3.2,0.1-10.2,0.2-21,0.3L9.3,9.6H9.6z M1.6,10.9c2.2-2.7,3.8-6,4.8-9.7l3.2,0.3
		c0,0.2-0.1,0.4-0.1,0.5L9.2,3.2c0,0,7.9-0.2,13.7-0.3c3.9-0.1,7.2-0.2,9.6-0.3l0.2,2.9C29.9,5.7,21.9,5.9,9,6.1l-0.8,0L8,6.9
		C7.9,7.3,7.7,7.7,7.5,8.1L6.7,9.6h0.2c-0.5,1-1,2-1.6,2.9L1.6,10.9z"/>
	<path class="st0" d="M59.5,6.9c0.4-0.5,0.5-0.9,0.5-1.3c0,0,0-0.2-0.1-0.5C59.8,4,58.3,4,57.3,4c-0.5,0-3.5,0.1-9,0.4l-0.4,0
		l-0.3,0.3c-0.4,0.4-0.8,0.8-1.2,1.1L44,7.6l15.2-0.2L59.5,6.9z M58.7,6.3L47,6.5c0.4-0.3,0.9-0.7,1.3-1.2C53.8,5.1,56.8,5,57.3,5
		C58.4,5,59,5.1,59,5.3s0.1,0.3,0.1,0.4C59.1,5.8,59,6,58.7,6.3z"/>
	<path class="st0" d="M71,18.6L67.7,15c-2.7,1.4-6.2,2.3-10.4,2.8c-0.5-0.9-1.2-1.9-2-3l14.8-0.2c0.2-2.2,0.3-3.5,0.3-3.9
		c0-2.2-0.5-3.4-1.5-3.7s-2.1-0.4-3.5-0.4c0.4-0.9,0.6-1.9,0.6-2.9c0-1.5-1.1-2.3-3.3-2.3l-4.8,0c-1.2,0-3.6,0-7.2,0.1l0.9-1.2
		L46.1,0c-1.6,2-4.1,3.6-7.7,5l2.2,2.1c0.1,1.6,0.1,3.7,0.1,6.3V15l5.5-0.1c-2.2,0.9-4.9,1.6-8.2,2l1.3,3.6c4.1-0.5,8-1.6,11.8-3.5
		l0.4,0.6c-4.3,2.4-8.8,3.8-13.7,4.4l1.7,3.6c4.8-0.8,9.4-2.5,13.5-5l0.5,1c-4.9,3-10.1,4.9-15.6,5.8l2.4,3.5c4.5-1,7.8-2.1,10-3.3
		l0.3,3.8c1.3,0.2,2.3,0.3,2.9,0.3c2.3,0,3.8-0.4,4.6-1.3s1.2-1.8,1.2-2.7s0.1-1.4,0.1-1.5c0-1.6-0.2-3.1-0.5-4.4l1.4-0.2
		c1.7,2.7,3.5,5.8,5.5,9.3l5.4-2.1c-2-3.4-4-6.3-5.9-8.5C67.5,19.8,69.4,19.2,71,18.6z M69.8,28.4l-3.5,1.4
		c-1.8-3.2-3.6-6.1-5.1-8.6l-0.3-0.6l-3.2,0.5l0.3,1.1c0.3,1.3,0.5,2.7,0.5,4.2c0,0.1,0,0.6-0.1,1.5c0,0.7-0.4,1.3-1,2.1
		c-0.4,0.4-1.4,1-3.8,1c-0.5,0-1.1-0.1-2-0.2l-0.2-2.5c0.4,0.2,0.9,0.3,1.3,0.3c1.4,0,2.3-0.8,2.3-2.2l-0.1-2.5l-1.5,1
		c-0.8,0.6-1.6,1.1-2.4,1.5l-1.8,0.9l0.1,0c-2,1-4.9,2-8.5,2.8l-1.2-1.7c5-1,9.9-2.9,14.4-5.7l0.8-0.5l-1.4-2.8l-0.9,0.6
		c-3.8,2.4-8,4-12.4,4.8l-0.8-1.7c4.5-0.7,8.7-2.1,12.7-4.4l0.9-0.5l-1.4-2.2l-0.8,0.4c-3.4,1.6-7,2.7-10.7,3.3l-0.6-1.7
		c2.8-0.4,5.3-1.1,7.3-1.9l-0.4-1.9L41.7,14v-0.6c0-2.7-0.1-4.8-0.2-6.4l0-0.4l-1.3-1.3c2.8-1.2,4.9-2.7,6.3-4.3l3.3,0.2l-1,1.3
		l2.1,0c3.5-0.1,5.9-0.1,7.1-0.1l4.8,0c2.3,0,2.3,0.9,2.3,1.3c0,0.8-0.2,1.7-0.5,2.5L64,7.6h1.5c1.2,0,2.3,0.1,3.2,0.4
		c0.4,0.1,0.7,0.9,0.7,2.7c0,0.2,0,0.8-0.2,2.9l-16,0.2l1.3,1.6c0.8,1,1.5,1.9,1.9,2.8l0.3,0.6l0.7-0.1c4-0.5,7.3-1.4,10-2.6l1.8,2
		c-1.2,0.5-2.6,0.9-4.2,1.3l-1.6,0.4l1.1,1.2C66.3,23,68,25.5,69.8,28.4z M51.4,27.1c0.8-0.4,1.7-0.9,2.5-1.5l0,0.7
		c0,0.8-0.4,1.2-1.3,1.2C52.3,27.4,51.8,27.3,51.4,27.1z"/>
	<path class="st0" d="M56.8,9.6c-0.1,0.4-0.3,0.9-0.6,1.5l-0.8,1.5l10.2-0.1l0.1-1.7c0-0.4-0.1-1.7-2.1-2l-0.1,0L57,8.8L56.8,9.6z
		 M57.8,9.8l5.7,0.1c0.8,0.1,1.2,0.4,1.2,0.9l0,0.7l-7.6,0C57.4,10.9,57.7,10.4,57.8,9.8z"/>
	<path class="st0" d="M54,8.8h-5c-1.9,0-3,0-3.4,0l-1.1-0.1l0.1,1.1c0,0.8,0.1,1.4,0.1,1.9v1l6.6,0l0.3-0.3c0.8-0.8,1.4-1.5,1.7-2.1
		L54,8.8z M50.9,11.7l-5.2,0c0-0.5,0-1.1-0.1-1.9c0.4,0,1.5,0,3.4,0h3.4C52.1,10.3,51.6,11,50.9,11.7z"/>
</g>
</svg>
