<?xml version="1.0" encoding="utf-8"?>
<!-- Generator: Adobe Illustrator 27.9.1, SVG Export Plug-In . SVG Version: 6.00 Build 0)  -->
<svg version="1.1" id="Layer_1" xmlns="http://www.w3.org/2000/svg" xmlns:xlink="http://www.w3.org/1999/xlink" x="0px" y="0px"
	 viewBox="0 0 73.4 36.1" style="enable-background:new 0 0 73.4 36.1;" xml:space="preserve">
<style type="text/css">
	.st0{fill:#282828;}
</style>
<g>
	<path class="st0" d="M45.8,0l4.3,1c-0.9,3-2.1,5.8-3.6,8.4c-1.5,2.6-3.2,4.7-5.1,6.4c-0.3-0.3-0.6-0.5-1.1-0.9
		c-0.5-0.3-0.9-0.7-1.4-1c-0.5-0.3-0.9-0.6-1.3-0.8c1.9-1.5,3.5-3.4,4.9-5.7C44,5.1,45.1,2.7,45.8,0z M4.1,2.9h27.1v3.9H4.1V2.9z
		 M46,3.9h26v3.4H46V3.9z M46.4,9.5h22v3.3h-22V9.5z M0.7,13.3h33.9v4H0.7V13.3z M62.8,15H67c0,2.4,0,4.5,0.1,6.5
		c0.1,2,0.2,3.8,0.4,5.3c0.2,1.5,0.5,2.7,0.9,3.6c0.4,0.8,0.9,1.3,1.4,1.3c0.3,0,0.6-0.5,0.7-1.5c0.1-1,0.2-2.2,0.2-3.8
		c0.4,0.5,0.8,0.9,1.3,1.4c0.5,0.5,1,0.9,1.4,1.2c-0.1,1.6-0.3,2.9-0.5,3.9c-0.3,1-0.6,1.7-1.2,2.2c-0.5,0.5-1.2,0.7-2.1,0.7
		c-1.5,0-2.7-0.5-3.6-1.6c-0.9-1.1-1.6-2.5-2-4.4c-0.5-1.9-0.8-4.1-0.9-6.6C62.9,20.6,62.8,17.9,62.8,15z M42,15h22.2v3.5H42V15z
		 M20.2,15.9h4.2v13.6c0,0.7,0.1,1.2,0.3,1.3c0.2,0.2,0.6,0.3,1.3,0.3c0.2,0,0.4,0,0.7,0c0.3,0,0.7,0,1.1,0s0.8,0,1.2,0
		c0.4,0,0.6,0,0.8,0c0.5,0,0.8-0.2,1-0.5c0.2-0.3,0.4-0.9,0.5-1.9c0.1-0.9,0.2-2.3,0.2-4.2c0.3,0.3,0.7,0.5,1.1,0.7s0.9,0.4,1.4,0.6
		c0.5,0.2,0.9,0.3,1.3,0.4c-0.2,2.2-0.4,4-0.7,5.2c-0.3,1.3-0.8,2.2-1.5,2.7c-0.7,0.5-1.7,0.8-2.9,0.8c-0.2,0-0.5,0-1,0
		s-0.9,0-1.5,0c-0.5,0-1,0-1.4,0c-0.4,0-0.8,0-1,0c-1.3,0-2.4-0.2-3.1-0.5c-0.7-0.3-1.3-0.9-1.6-1.7c-0.3-0.8-0.4-1.9-0.4-3.2V15.9z
		 M9.7,16.5h4.4c-0.2,2.1-0.4,4.1-0.8,6c-0.4,1.9-0.9,3.6-1.7,5.3c-0.8,1.6-1.9,3.1-3.4,4.4c-1.5,1.3-3.4,2.5-5.7,3.4
		c-0.2-0.5-0.6-1.1-1.1-1.7s-1-1.2-1.4-1.5c2.1-0.8,3.7-1.7,5-2.8c1.2-1.1,2.2-2.3,2.8-3.7c0.6-1.3,1.1-2.8,1.4-4.4
		C9.4,19.8,9.6,18.2,9.7,16.5z M55.4,18.8l4,1.3c-1.3,2.4-2.9,4.6-4.7,6.6c-1.8,2-3.8,3.8-6,5.4c-2.2,1.6-4.4,2.9-6.8,4
		c-0.2-0.3-0.5-0.6-0.8-1c-0.4-0.4-0.7-0.8-1.1-1.2c-0.4-0.4-0.7-0.7-1-1c2.4-1,4.6-2.1,6.7-3.6c2.1-1.4,4-3,5.7-4.8
		C52.9,22.8,54.3,20.9,55.4,18.8z M42.3,22.8l2.9-2.7c1.4,0.7,2.9,1.6,4.4,2.5c1.5,0.9,3,1.9,4.5,2.9c1.5,1,2.9,2,4.1,3
		c1.3,1,2.3,1.9,3.2,2.8l-3.2,3.1c-0.8-0.9-1.8-1.8-3-2.9c-1.2-1-2.5-2.1-4-3.1c-1.4-1.1-2.9-2.1-4.5-3
		C45.2,24.4,43.7,23.5,42.3,22.8z"/>
</g>
</svg>
