<?xml version="1.0" encoding="utf-8"?>
<!-- Generator: Adobe Illustrator 27.9.1, SVG Export Plug-In . SVG Version: 6.00 Build 0)  -->
<svg version="1.1" id="Layer_1" xmlns:inkscape="http://www.inkscape.org/namespaces/inkscape"
	 xmlns="http://www.w3.org/2000/svg" xmlns:xlink="http://www.w3.org/1999/xlink" x="0px" y="0px" viewBox="0 0 142.2 31.7"
	 style="enable-background:new 0 0 142.2 31.7;" xml:space="preserve">
<style type="text/css">
	.st0{fill:#070707;}
</style>
<g>
	<path class="st0" d="M22.2,20.6l5.9-0.2l-0.1-1c-0.1-0.8-0.7-1.8-3.1-1.8c-0.7,0-2.7,0.1-5.9,0.3l-1,0.1l0.1,2.9l1,0
		C19.8,20.8,20.9,20.7,22.2,20.6z M19,18.9c3.2-0.2,5.2-0.3,5.9-0.3c1.4,0,2.1,0.3,2.1,0.9l-4.8,0.1c-1.4,0.1-2.4,0.1-3.1,0.1
		L19,18.9z"/>
	<path class="st0" d="M28.1,21.4l-1,0c-2.4,0.1-5.1,0.2-7.9,0.3l-1,0l0.1,3.2l9.9-0.4V21.4z M27.1,23.5l-7.9,0.3l0-1.2
		c2.9-0.1,5.5-0.2,7.9-0.3V23.5z"/>
	<path class="st0" d="M25.7,27.7c-1.3,0-2.1-0.1-2.6-0.2l0.4,3.8c0.9,0.2,2.3,0.3,4.3,0.3h0.5c1.2,0,2.1-0.3,2.7-1
		c0.6-0.7,0.9-1.9,0.9-3.7c0-1.8,0.1-4,0.1-6.7c0-1.3-0.2-2.4-0.6-3.1c-0.4-0.7-1-1.2-1.7-1.4c-0.8-0.2-1.7-0.3-2.7-0.4
		c-2.6,0-5.3,0.1-8,0.4l0-0.4l-5.1,0.1c0.1,1.3,0.1,3.1,0.1,5.5c0,2.8-0.1,6.3-0.4,10.6l5.6,0.2l0-4.9l7.7-0.3
		c-0.1,0.5-0.2,0.8-0.3,0.9C26.4,27.7,26.1,27.7,25.7,27.7z M18.2,25.9l0,4.8l-3.5-0.1c0.2-3.8,0.3-7,0.3-9.6c0-1.8,0-3.4-0.1-4.6
		l3.1-0.1l0,0.5l1-0.1c2.7-0.3,5.3-0.4,7.9-0.4c0.9,0,1.7,0.1,2.4,0.3c0.5,0.1,0.9,0.4,1.1,0.9c0.3,0.6,0.5,1.5,0.5,2.6
		c0,2.7,0,5-0.1,6.7c0,1.9-0.4,2.7-0.7,3.1c-0.4,0.5-1,0.7-1.9,0.7h-0.5c-1.4,0-2.6-0.1-3.4-0.2l-0.2-1.8c0.4,0,0.9,0,1.5,0
		c0.5,0,1.2-0.1,1.6-0.5c0.3-0.3,0.4-0.7,0.5-1.5l0.2-1.2L18.2,25.9z"/>
	<path class="st0" d="M4.6,16.3l-0.9,0.1v7.8h1c0.6,0,1.3-0.1,2.2-0.2L7.9,24L8,16.2h-1C6.1,16.2,5.4,16.2,4.6,16.3z M6.9,23.1
		c-0.8,0.1-1.5,0.1-2.1,0.1v-5.9c0.7-0.1,1.4-0.1,2.2-0.1L6.9,23.1z"/>
	<path class="st0" d="M0.3,28.6c3.4,0,7.1-0.1,11.2-0.1c0.2-3.7,0.3-10.9,0.3-21.9c0-3.2-1-4.9-3-5L6.6,1.6c-1,0-1.6,0-1.9-0.1
		L4.6,0.6L0,0.8C0.2,4.9,0.3,12.9,0.3,25L0.3,28.6z M3.6,1.6l0.1,0.7l0.8,0.1c0.2,0,0.7,0.1,2.1,0.1l2.1,0.1c0.5,0,2.1,0.1,2.1,4
		c0,10-0.1,17-0.3,20.9c-3.3,0.1-6.4,0.1-9.2,0.1l0-2.7C1.3,13.9,1.2,6.1,1,1.8L3.6,1.6z"/>
	<path class="st0" d="M6.2,13.1H8l0.1-5.3c0-1.4-0.8-2.3-2.2-2.3H3.7v8L5,13.2C5.3,13.1,5.7,13.1,6.2,13.1z M4.7,6.5h1.2
		c0.8,0,1.2,0.4,1.2,1.3L7,12.1H6.2c-0.6,0-1.1,0-1.5,0.1V6.5z"/>
	<path class="st0" d="M32.7,10.7l-8,0.1v-1l6.5-0.1l-0.4-3.7l-6.2,0.1l-0.1-1.2l7.8-0.1l-0.3-3.7c-4.7,0.1-7.2,0.1-7.6,0.2
		c0-0.6-0.1-1.1-0.1-1.3l-4.6,0v1.4h-6.9L13,5.1l6.9-0.1v1.3c-2.6,0-4.6,0.1-6.1,0.1l0.1,3.6l5.9-0.1l-0.1,1.2
		c-2.3,0-4.7,0.1-7.3,0.1l0.1,3.6l20.6-0.3L32.7,10.7z M13.5,13.6l0-1.6c2.2,0,4.3,0,6.3-0.1l0.9,0l0.2-3.2l-6,0.1l0-1.6
		c1.3,0,3,0,5.1-0.1l1,0V3.9l-6.9,0.1l-0.1-1.7h6.9V1l2.7,0c0,0.1,0.1,1.4,0.1,1.4l1-0.1c0.3,0,1.6-0.1,6.6-0.2l0.2,1.7l-7.8,0.1
		l0.2,3.2L30,7l0.2,1.7l-6.4,0.1v3l8.1-0.2l0.2,1.7L13.5,13.6z"/>
	<path class="st0" d="M70.2,23.1c-0.9,0.3-1.8,0.4-2.7,0.4s-1.4-0.1-1.7-0.4c-0.2-0.2-0.4-0.8-0.4-1.6c0-0.8,0.1-2.5,0.4-4.9
		c0.2-2.4,0.4-4.1,0.4-4.9c0-2.1-0.5-3.7-1.4-4.8c-1-1.1-2.3-1.7-4.1-1.7c-1.3,0-2.8,0.3-4.5,0.9c-1.7,0.6-3.3,1.5-4.8,2.6
		c0.2-2.7,0.4-5.3,0.7-7.7l-6-0.3c-0.2,1.8-0.4,3.6-0.6,5.5c-1.6-0.6-3.2-1.2-4.8-1.6L39,10.3c1.3,0.4,3.3,1.1,6.1,2.2
		c0,0.3,0,0.7,0,1c-2.4,3.5-4.6,6.9-6.7,10.2l4.3,3.7c0.7-1.4,1.4-2.7,2.2-4c0,2.5,0.1,4.9,0.2,7.1l6-0.3c-0.3-3.8-0.3-8.5-0.1-14.1
		c1.6-1.4,3.2-2.6,4.8-3.6c1.6-1,2.9-1.4,3.8-1.4c0.3,0,0.6,0.1,0.7,0.3c0.1,0.2,0.2,0.7,0.2,1.5c0,0.8-0.1,2.4-0.4,4.9
		c-0.2,2.5-0.4,4.2-0.4,5c0,2.1,0.6,3.7,1.7,4.7c1.1,1,2.9,1.5,5.3,1.5c0.9,0,1.9-0.1,3-0.3L70.2,23.1z M68.8,27.9
		c-0.7,0.1-1.4,0.2-2.1,0.2c-2.1,0-3.7-0.4-4.6-1.3c-0.9-0.8-1.3-2.2-1.3-4c0-0.8,0.1-2.5,0.4-4.9c0.3-2.5,0.4-4.2,0.4-5
		c0-1-0.1-1.6-0.4-2c-0.2-0.3-0.6-0.8-1.6-0.8c-1.1,0-2.5,0.5-4.3,1.6c-1.7,1-3.3,2.2-5,3.7L50,15.6l0,0.4
		c-0.2,5.1-0.1,9.5,0.1,13.2l-4,0.2c-0.1-1.9-0.2-3.9-0.2-6v-3.8L44,22.9c-0.5,1-1.1,2-1.6,3l-2.7-2.3c1.9-3.1,4-6.3,6.2-9.5
		l0.2-0.3v-0.3c0-0.3,0-0.6,0-1l0.1-0.7l-0.7-0.3c-2.2-0.9-4-1.5-5.2-1.9l1.2-3.8c1.2,0.4,2.5,0.8,3.8,1.3l1.2,0.5l0.1-1.3
		c0.1-1.5,0.3-3,0.4-4.5L51,2c-0.2,2.1-0.5,4.4-0.6,6.7l-0.2,2.1L52,9.6c1.4-1,3-1.9,4.6-2.5c1.6-0.6,3-0.9,4.2-0.9
		c1.5,0,2.6,0.4,3.3,1.3c0.8,0.9,1.2,2.3,1.2,4.1c0,0.8-0.1,2.4-0.3,4.8c-0.2,2.5-0.4,4.2-0.4,5c0,1.2,0.2,1.9,0.7,2.3
		c0.5,0.4,1.2,0.6,2.3,0.6c0.5,0,1,0,1.6-0.1L68.8,27.9z"/>
	<path class="st0" d="M87.7,26.8c2.1,1.2,4.3,2,6.5,2.5c2.2,0.5,4.8,0.8,7.7,0.8c0.6,0,1.3,0,2,0l0.2-5.7c-0.5,0-0.9,0-1.3,0
		c-2.6,0-4.8-0.2-6.7-0.6c-1.9-0.4-3.9-1.2-6.2-2.2L87.7,26.8z M95.9,24.7c1.9,0.4,4.3,0.7,6.9,0.7h0.3l-0.1,3.7c-0.4,0-0.7,0-1,0
		c-2.8,0-5.3-0.3-7.5-0.8c-1.9-0.4-3.7-1.1-5.5-2l1.4-3.5C92.4,23.7,94.2,24.3,95.9,24.7z"/>
	<path class="st0" d="M80.7,10.4c-2,7-3.5,13.2-4.7,18.8l6.3,1.1c1.3-6.6,3-13.5,5-20.7c1.5-0.1,3-0.1,4.6-0.1c0.8,0,1.6,0,2.5,0
		l0.1-5.5c-1.2,0-2.3,0-3.3,0c-0.8,0-1.5,0-2.2,0c0.3-1.1,0.6-2,0.9-2.8l-6-0.9c-0.4,1.1-0.8,2.5-1.3,4.2c-2,0.2-4.3,0.7-6.9,1.3
		l0.8,5.7C77.9,10.9,79.4,10.6,80.7,10.4z M82.6,5.3l0.6-0.1l0.2-0.6c0.4-1.3,0.8-2.4,1.1-3.3l4,0.6C88.4,2.4,88.2,3,88,3.6
		l-0.4,1.3L89,4.9c0.7,0,1.4,0,2.2,0c0.7,0,1.5,0,2.3,0l-0.1,3.5h-1.5c-1.6,0-3.1,0.1-4.6,0.2l-0.7,0l-0.2,0.7
		c-1.9,6.9-3.5,13.5-4.8,19.8l-4.4-0.7c1.2-5.2,2.7-11.2,4.5-17.7l0.4-1.5l-1.5,0.3c-1.1,0.2-2.2,0.4-3.4,0.7l-0.5-3.7
		C78.9,5.9,80.9,5.5,82.6,5.3z"/>
	<path class="st0" d="M90.9,16.3c3-0.5,6-0.8,9-0.8c1.3,0,2.6,0,3.9,0.1l0.2-5.5c-1.4-0.1-2.9-0.2-4.3-0.2c-3.3,0-6.5,0.3-9.5,0.9
		L90.9,16.3z M99.7,11c1.1,0,2.2,0,3.3,0.1l-0.1,3.5c-1-0.1-2-0.1-3-0.1c-2.7,0-5.5,0.2-8.2,0.6l-0.5-3.4C94,11.3,96.8,11,99.7,11z"
		/>
	<path class="st0" d="M113.1,13.3l4.8,2.9c2.5-1.9,4.5-4.2,5.9-6.9l-4.6-1.9C117.9,9.8,115.9,11.8,113.1,13.3z M119.6,8.6l2.8,1.1
		c-1.1,2-2.7,3.8-4.5,5.2l-2.7-1.7C117,12,118.5,10.5,119.6,8.6z"/>
	<path class="st0" d="M130,7.1l-4,2.5c2.7,1.8,4.9,3.8,6.8,6.2l4.1-2.6C134.9,10.5,132.6,8.5,130,7.1z M133,14.4
		c-1.5-1.7-3.2-3.3-5.1-4.8l2.2-1.4c2,1.2,3.7,2.7,5.3,4.6L133,14.4z"/>
	<path class="st0" d="M127.3,30.9c8.1-0.1,13-0.2,14.8-0.3l-0.4-5.3c-3.5,0-8,0.2-13.4,0.3v-1.1c0-1.5,0-2.4,0-2.7
		c5.4-0.1,8.6-0.2,9.8-0.2l-0.4-5.3c-2.6,0.1-6.6,0.2-12.2,0.4c-5.5,0.2-9.9,0.3-13.3,0.4l0.1,5.3c2.9-0.1,6.3-0.2,10.2-0.4
		c0,2-0.1,3.2-0.2,3.8c-5.8,0.1-10.3,0.2-13.3,0.2l0.2,5.3C113.1,31.2,119.1,31.1,127.3,30.9z M122.4,26.8l0.8,0l0.1-0.8
		c0.1-0.4,0.2-1.2,0.2-4l0-1.1l-1.1,0.1c-3.4,0.2-6.5,0.3-9.2,0.4l-0.1-3.3c3.2-0.1,7.3-0.2,12.3-0.4c4.9-0.2,8.6-0.3,11.2-0.4
		l0.3,3.3c-1.6,0-4.5,0.1-8.7,0.2l-1,0v5.8l1,0c4.9-0.2,9.1-0.3,12.5-0.3l0.2,3.3c-2.3,0.1-7,0.2-13.8,0.3
		c-7.5,0.2-13.2,0.3-17.1,0.4l-0.1-3.3C113.1,27,117.2,26.9,122.4,26.8z"/>
	<path class="st0" d="M109.1,7.9c0,0.8,0.1,2.1,0.2,4l5.1-0.4c0-1.4-0.1-2.8-0.2-4c6.7-0.6,11.8-0.8,15.4-0.8c1.9,0,3.7,0.1,5.5,0.3
		c0.8,0.2,1.2,0.8,1.2,1.7c0,0.8-0.1,1.6-0.2,2.4l5.2,0.7c0.4-0.8,0.6-2.2,0.6-4.2c0-1.1-0.1-2.2-0.2-3c-0.3-1.8-1.7-2.8-4.2-2.8
		c-5.1-0.1-8.4-0.1-9.8,0c-0.1-0.5-0.3-1.1-0.6-1.7l-5.8,0.5c0.2,0.9,0.4,1.4,0.4,1.6c-2.7,0.1-6.9,0.3-12.5,0.7
		C109.1,4.9,109.1,6.5,109.1,7.9z M110.2,4c5.2-0.4,9.1-0.6,11.6-0.6l1,0v-1c0-0.1,0-0.3-0.1-0.7l3.8-0.3c0.1,0.3,0.2,0.6,0.2,0.9
		l0.2,0.9l0.9,0c0.7,0,1.9-0.1,3.5-0.1c1.6,0,3.7,0,6.3,0.1c2.5,0,3,1.1,3.2,2c0.1,0.8,0.2,1.8,0.2,2.9c0,1.5-0.1,2.5-0.3,3.1
		l-3.4-0.5c0.1-0.5,0.1-1,0.1-1.5c0-1.4-0.7-2.4-1.9-2.7l-0.1,0l-0.1,0c-1.8-0.2-3.7-0.2-5.5-0.3c-0.3,0-0.6,0-0.9,0
		c-3.5,0-8.4,0.3-14.6,0.8l-1,0.1l0.1,1c0.1,0.9,0.1,1.9,0.2,3l-3.2,0.2c-0.1-1.4-0.1-2.4-0.1-3C110.1,6.8,110.1,5.5,110.2,4z"/>
</g>
</svg>
