<?xml version="1.0" encoding="utf-8"?>
<!-- Generator: Adobe Illustrator 27.9.1, SVG Export Plug-In . SVG Version: 6.00 Build 0)  -->
<svg version="1.1" id="Layer_1" xmlns:inkscape="http://www.inkscape.org/namespaces/inkscape"
	 xmlns="http://www.w3.org/2000/svg" xmlns:xlink="http://www.w3.org/1999/xlink" x="0px" y="0px" viewBox="0 0 288.4 32.3"
	 style="enable-background:new 0 0 288.4 32.3;" xml:space="preserve">
<style type="text/css">
	.st0{fill:#070707;}
</style>
<g>
	<path class="st0" d="M5,24.6l-0.2,6.9l5.4,0.2l0-8.7c0.6,0.6,1.1,1.2,1.6,1.7l2.3-4.1c-1.4-1.3-2.7-2.4-4-3.1c0-0.5,0-0.9,0-1.2
		c2.3-0.1,3.5-0.1,3.7-0.1l-0.1-5.2L10.2,11l0-2.6L13,9.9c0.9-1.8,1.6-4,2.1-6.5l-3.5-1.1c-0.3,1.7-0.8,3.4-1.5,5L10,0.2L5.1,0.3
		c0,1,0.1,2.8,0.1,5.3c-0.4-1.3-0.7-2.4-1-3.3L0.1,3c0.7,2.3,1.2,4.5,1.5,6.8l3.6-1.2v2.6c-1.3,0-2.5,0.1-3.5,0.1H0.9L1,16.4l3-0.1
		c-0.7,3-2,5.8-3.9,8.6l3.5,3.4C4,27.4,4.6,26.2,5,24.6z M11.1,7.7c0.6-1.3,1-2.7,1.4-4.1L14,4.1c-0.4,1.7-0.8,3.2-1.4,4.5l-1.8-0.9
		L11.1,7.7z M1.3,24.8c1.8-2.7,3-5.4,3.6-8.3l0.3-1.3L2,15.4l0-3.2c0.9,0,2.1,0,3.3-0.1l1,0V7.2L2.4,8.5c-0.3-1.6-0.6-3.1-1-4.7
		l2.1-0.3C3.7,4.2,4,5,4.2,5.9l2-0.3c0-1.9-0.1-3.3-0.1-4.3L9,1.2l0.1,5.6l0,0l0.1,5.2l3.6-0.1l0.1,3.2c-0.6,0-3.6,0.1-3.6,0.1V18
		l0.5,0.3c1,0.6,2.1,1.4,3.2,2.5L11.7,23c-0.2-0.2-0.5-0.5-0.7-0.7l-1.7-1.7l0,10.1l-3.4-0.1L6,24.6l-2-0.3
		c-0.3,0.9-0.6,1.7-0.9,2.4L1.3,24.8z"/>
	<path class="st0" d="M21.7,31.9l0-5.1l5.3-0.3c0.1,0.6,0,0.9-0.2,1c-0.2,0.1-0.7,0.1-1.5,0.1c-0.3,0-0.7,0-1.2-0.1l0.4,4
		c0.9,0.2,2,0.3,3.3,0.3h0.6c1.2,0,2.2-0.3,2.8-1c0.6-0.7,0.9-1.9,1-3.8c0-1.8,0.1-4.1,0.1-6.8c0-1.3-0.2-2.3-0.6-3
		c-0.4-0.7-1-1.2-1.8-1.4c-0.8-0.2-1.7-0.4-2.8-0.4c-2.1,0-3.9,0.2-5.6,0.5l0-0.5l-5.2,0.2c0.1,1.2,0.1,3,0.1,5.3
		c0,2.7-0.1,6.3-0.4,10.7L21.7,31.9z M17.3,16.6l3.2-0.1l0,0.7l1.1-0.2c1.6-0.3,3.4-0.5,5.4-0.5c0.9,0,1.8,0.1,2.5,0.3
		c0.5,0.2,0.9,0.5,1.2,0.9c0.3,0.5,0.5,1.4,0.5,2.5c0,2.7,0,4.9-0.1,6.8c0,2.1-0.5,2.8-0.7,3.1c-0.4,0.5-1.1,0.7-2,0.7h-0.6
		c-0.9,0-1.7,0-2.4-0.1l-0.2-2c0,0,0,0,0.1,0c1.2,0,1.7-0.1,1.9-0.2c0.6-0.3,0.9-1,0.8-2l-0.1-0.9l-7.2,0.4l0,5L17,30.7
		c0.2-3.9,0.3-7.2,0.3-9.7C17.4,19.2,17.3,17.8,17.3,16.6z"/>
	<path class="st0" d="M21.6,20.9c1,0,1.4-0.1,1.6-0.1l5-0.2l-0.1-1c-0.1-0.9-0.7-1.8-2.2-1.8c-0.7,0-2.2,0.1-4.5,0.3l-0.9,0.1
		l0.1,2.9L21.6,20.9z M25.9,18.7c0.8,0,1.2,0.3,1.2,0.9l-4,0.2c-0.2,0-0.7,0.1-1.6,0.1l0-0.9C23.8,18.8,25.2,18.7,25.9,18.7z"/>
	<path class="st0" d="M20.7,24.9l7.5-0.5v-2.9l-7.6,0.3L20.7,24.9z M27.2,22.6v1l-5.5,0.3l0-1.1C23.5,22.7,25.4,22.6,27.2,22.6z"/>
	<path class="st0" d="M15.3,5.5l5.8-0.1v1.2c-1.8,0.1-3.5,0.1-5,0.1l0.1,3.5L21,9.9l-0.1,1.1c-1.5,0-3.6,0-6.2,0l0.1,3.5l18.6-0.3
		L33,10.8l-6.9,0.1v-1l5.4-0.1l-0.3-3.5l-5.1,0.1L26,5.3l6.8-0.1l-0.4-3.5c-3.9,0-6,0.1-6.6,0.2c0-0.9-0.1-1.4-0.1-1.6l-4.7,0v1.7
		h-5.8l0,1.1c0,0,0,0,0-0.1L15.3,5.5z M22,2.9V1.2l2.8,0c0,0.2,0.1,1.8,0.1,1.8L26,2.8c0.2,0,1.1-0.1,5.5-0.2l0.2,1.5l-6.8,0.1
		l0.2,3.2l5.1-0.1l0.1,1.5l-5.3,0.1v3l7.1-0.2l0.2,1.5l-16.5,0.3l0-1.4c2.2,0,3.9,0,5.2,0l0.9,0l0.2-3.1L17.2,9l0-1.4
		c1.2,0,2.6,0,4-0.1l1,0V4.3l-5.9,0.1l0-1.5H22z"/>
	<path class="st0" d="M65,7.8l-0.1,0c-0.7,0-1.3,0-1.8,0l-1,0l0.1,4.7l5-0.1l0.1-2.2C67.2,8.9,66.4,8,65,7.8z M66.2,11.5l-3,0.1
		l-0.1-2.7c0.5,0,1.1,0,1.8,0c0.9,0.1,1.3,0.6,1.3,1.4L66.2,11.5z"/>
	<path class="st0" d="M62.3,20.5l1,0c1.2,0,2.2-0.1,2.8-0.2l0.8-0.1l0.2-4.9l-4.9,0.2V20.5z M63.3,16.5l2.8-0.1l-0.1,3
		c-0.6,0.1-1.5,0.1-2.7,0.1V16.5z"/>
	<path class="st0" d="M54.9,20.5l4.9,0.1v-4.9L54.9,16V20.5z M55.9,17l2.9-0.2v2.8l-2.9,0V17z"/>
	<path class="st0" d="M70.9,10.3c0-4-1.3-6-3.8-6c-1.1,0-2.4,0-3.9,0.1c0-1,0-2.4,0-4.1h-4.5l0.1,4.4c-1.4,0.1-2.3,0.2-2.9,0.2
		l-0.1-1.3l-4.9,0.6c0.4,3.1,0.6,8,0.6,14.7c-1.5-2.3-2.6-3.8-3.3-4.5c1.6-2.5,2.4-4.7,2.4-6.6c0-2.1-1.3-3.2-4-3.3
		c-0.4-1.8-0.9-3.3-1.4-4.3L40.3,1c0.5,1.4,0.9,2.7,1.2,3.8c-1.2,0-2.2,0.1-2.8,0.3l0,4.6c1.9-0.3,3.4-0.4,4.5-0.4
		c1.1,0,1.6,0.2,1.6,0.6c0,0.5-0.2,1.1-0.7,2c-1.4,2.7-3.7,5-6.8,6.7l2.6,4.5l1.9-1.6c0,2.4-0.1,5.8-0.4,10.1l5.5,0.2l0-5.3
		c0-2.3,0-4.6-0.1-6.9c0.6,1,1.1,2,1.5,3l3-2.2v0.4l0,3.8l7.3-0.1l-0.3,7.2l4.9,0.1l0-7.3l7.2-0.1C70.8,20.6,70.9,15.9,70.9,10.3z
		 M48.8,21.1c-0.3-0.6-0.7-1.3-1.1-2l-1.9-3.3l0.1,3.8c0,2.3,0.1,4.6,0.1,6.9l0,4.3l-3.4-0.1c0.3-3.9,0.4-7,0.4-9.2v-2.2l-2.7,2.2
		L38.7,19c2.8-1.8,4.9-4,6.3-6.6c0.6-1,0.8-1.8,0.8-2.5c0-0.7-0.5-1.6-2.6-1.6c-1,0-2.1,0.1-3.5,0.3l0-2.5c0.5-0.1,1.1-0.1,1.8-0.1
		l1.3,0l-0.3-1.2c-0.2-0.9-0.5-1.8-0.8-2.8l2.9-0.5c0.4,0.9,0.7,2,1,3.4l0.2,0.8l0.8,0c2.7,0,3,1.2,3,2.3c0,1.7-0.7,3.8-2.2,6.1
		l-0.4,0.7l0.6,0.6c0.5,0.4,1.4,1.5,3.2,4.3l0.1,0.2L48.8,21.1z M69.6,23.4l-7.3,0.1l0,7.3l-2.8-0.1l0.3-7.2l-7.3,0.1l0-1.4l0,0.1
		l0-3.9l0,0c-0.1-5.8-0.2-10.2-0.5-13.3l2.9-0.4L54.9,6l1,0c0.6,0,1.6-0.1,2.9-0.2l0.9-0.1l-0.1-4.3h2.5c0,1.3,0,2.3,0,3.1l0,1l1,0
		c1.5-0.1,2.8-0.1,3.9-0.1c0.8,0,2.8,0,2.8,5C69.9,15.4,69.8,19.8,69.6,23.4z"/>
	<path class="st0" d="M58.6,8.2c-0.8,0-1.8,0.1-2.9,0.3l-1,0.1l0.1,1c0,0.3,0.1,1,0.1,2.5v1.1l4.9-0.3l-0.1-4.7L58.6,8.2z
		 M55.9,12.1c0-1.2,0-2.1-0.1-2.6c1.1-0.1,2.1-0.2,2.9-0.3l0.1,2.7L55.9,12.1z"/>
	<path class="st0" d="M84.9,3.2l-5.8-0.9c-1.2,3.3-1.9,7.9-2.1,13.9c-0.2,6,0.2,10.7,1.3,14.1l6-0.8c-0.9-3.5-1.4-7.8-1.2-13.1
		C83.2,11.2,83.8,6.8,84.9,3.2z M83.1,28.7l-4,0.5c-0.8-3.2-1.2-7.6-1-13c0.2-5.4,0.8-9.7,1.8-12.8L83.7,4
		c-0.9,3.5-1.5,7.6-1.6,12.4C82,21.2,82.3,25.3,83.1,28.7z"/>
	<path class="st0" d="M93.6,20.2c-1.1,0-2,0.2-2.7,0.7c-0.9,0.5-1.3,1.3-1.3,2.3c0,0.9,0.4,1.7,1,2.3c0.6,0.5,1.4,0.8,2.4,0.8
		c1.6,0,3.7-0.8,4.2-4.7l0.1-0.9l-0.9-0.2C95.5,20.3,94.6,20.2,93.6,20.2z M93,25.3c-0.7,0-1.3-0.2-1.8-0.6
		c-0.5-0.4-0.7-0.9-0.7-1.5s0.3-1.1,0.9-1.5c0.6-0.4,1.3-0.5,2.2-0.5c0.9,0,1.8,0.1,2.6,0.3C95.8,24.1,94.7,25.3,93,25.3z"/>
	<path class="st0" d="M101.6,11.5c1.7,0,3.3,0,4.8,0.2l0.3-5.6c-2-0.1-4-0.2-6-0.1c-0.4-1.7-0.8-3.5-1.3-5.2l-6,1
		c0.4,1.7,0.8,3.3,1.2,4.7c-3.1,0.4-6.1,1-9,1.7l0.7,5.6c3-0.9,6.1-1.5,9.4-1.9c0.3,1.6,0.5,3,0.6,4.3C95.6,16,95,16,94.3,16
		c-2.9,0-5.2,0.7-6.9,2.1c-1.7,1.4-2.5,3.2-2.5,5.5s0.7,4.1,2.2,5.4s3.4,1.9,6,1.9c4.6,0,7.4-2.3,8.5-7c1.5,1,2.7,2,3.7,3.2l2.6-5.4
		c-1.8-1.7-3.7-3-5.8-3.9C102.1,15.9,101.9,13.8,101.6,11.5z M105,25.4c-0.8-0.8-1.8-1.6-2.9-2.3l-1.2-0.8l-0.3,1.4
		c-1,4.2-3.4,6.2-7.5,6.2c-2.3,0-4-0.6-5.3-1.7c-1.2-1.1-1.8-2.6-1.8-4.7c0-2,0.7-3.6,2.1-4.7c1.5-1.2,3.6-1.8,6.2-1.8
		c0.6,0,1.2,0,1.8,0.1l1.2,0.1L97.3,16c-0.1-1.3-0.3-2.8-0.6-4.4l-0.2-0.9l-0.9,0.1c-2.9,0.3-5.7,0.9-8.4,1.6l-0.5-3.6
		c2.6-0.7,5.3-1.2,8-1.5l1.1-0.1l-0.3-1.1c-0.3-1.1-0.6-2.3-0.9-3.6l4-0.6c0.4,1.5,0.7,2.9,1,4.3L99.8,7l0.8,0c0.6,0,1.1,0,1.7,0
		c1.1,0,2.2,0,3.3,0.1l-0.2,3.6c-1-0.1-2.1-0.1-3.2-0.1l-0.7,0l-1.1,0l0.2,1.1c0.3,2.2,0.5,4.3,0.5,6.2l0,0.6l0.6,0.3
		c1.7,0.8,3.4,1.9,5,3.3L105,25.4z"/>
	<path class="st0" d="M137,26c-0.2,0-0.5,0-0.7-0.1l0.7,5.6c0.5,0.1,1.4,0.2,2.7,0.2c1.5,0,2.5-0.2,3.1-0.7c0.6-0.5,0.9-1.1,1.1-2
		c0.1-0.9,0.2-2,0.2-3.3c0-3.4,0-6.1-0.1-8c0-4.3,0-6.7-0.1-7.2c-0.1-1.9-0.5-3.2-1.4-4c-0.8-0.8-1.7-1.3-2.6-1.4
		C139,5,138.2,5,137.6,5c-1.1,0-3.8,0.2-8.1,0.7c0.2-0.9,0.3-2.6,0.4-5.1l-4.3-0.3c-0.4,4.4-1.1,7.9-2,10.6l-0.1-4l-1.4,0.2l0-6.9
		l-5,0l0.1,6.7h-1.3c0.1-1.3,0.2-3.1,0.2-5.3l-4.4-0.2c-0.2,4.9-0.5,9.3-1,13l4.2,0.8c0.2-0.9,0.3-1.9,0.5-3l1.9,0c0,2,0,3.8,0,5.5
		c-2.6,0.5-4.8,0.9-6.6,1.2l1,5.3c1.8-0.2,3.6-0.6,5.5-1.1c0,4,0,6.8,0,8.5l5.2,0.3V21.7l2.8-0.9l-0.4-5l-2.4,0.7v-4.2l1-0.1
		c-0.2,0.7-0.5,1.3-0.8,1.7l4.4,1.9c0.7-1.6,1.3-3.4,1.9-5.3l1.3-0.3c-1.9,6.7-4.1,11.5-6.7,14.6l4.7,2.2c2.4-3.5,4.5-9.2,6.3-17.2
		c0.3,0,0.7-0.1,1.2-0.1c-1.5,8-3.8,14.6-7,19.8l4.6,1.8c2.8-4.9,4.9-11.4,6-19.6l0,8c0,2.2-0.1,3.7-0.1,4.8
		C139,25.5,138.3,26,137,26z M121.1,11.4v6.5l2.5-0.7l0.2,3l-2.8,0.9v9.7l-3.1-0.2c0-1.7,0-4.3,0-7.6v-1.3l-1.2,0.3
		c-1.5,0.4-3,0.7-4.5,0.9l-0.7-3.3c1.6-0.2,3.5-0.6,5.6-1l0.8-0.2l0-0.8c0-1.7,0-3.5,0-5.5v-1l-3.8,0.1l-0.1,0.8
		c-0.1,0.7-0.2,1.3-0.3,1.9l-2.2-0.4c0.4-3.3,0.7-7,0.9-11.2l2.4,0.1c0,1.8-0.1,3.2-0.2,4.3l-0.1,1.1h3.4L118,1.2l3,0l0,7l1.5-0.2
		l0.1,2.9l1.1,0.2L121.1,11.4z M140,11.7l-2-0.1c-1.1,7.6-3,13.9-5.5,18.5l-2.7-1c2.9-5.1,5.1-11.5,6.5-19.1l0.2-1.3l-1.3,0.1
		c-0.5,0-0.9,0.1-1.2,0.1L133.4,9l-0.1,0.7c-1.6,7.3-3.5,12.7-5.6,16.1l-2.8-1.3c2.3-3.2,4.4-7.9,6.1-14l0.4-1.6l-3.5,0.7l-0.2,0.6
		c-0.4,1.6-0.9,3-1.4,4.3l-2.5-1.1c0.1-0.3,0.3-0.6,0.4-0.9l0.5-1.3l0,0c0.8-2.6,1.5-5.9,1.9-9.9l2.4,0.1c-0.1,1.9-0.2,3.2-0.4,4
		l-0.3,1.3l1.4-0.1c4.3-0.4,7-0.7,8-0.7c0.6,0,1.3,0,2.2,0.1c0.7,0.1,1.3,0.4,2,1.1c0.7,0.6,1,1.8,1.1,3.4c0,0.5,0,2.9,0.1,7.2
		c0.1,2,0.1,4.6,0.1,8c0,1.3-0.1,2.3-0.2,3.2c-0.1,0.6-0.3,1.1-0.7,1.4c-0.2,0.1-0.8,0.5-2.5,0.5c-0.8,0-1.4,0-1.8-0.1l-0.5-3.7
		c2.3-0.2,2.5-1.9,2.5-2.5c0-1,0.1-2.6,0.1-4.7L140,11.7z"/>
	<path class="st0" d="M171.7,5.9c0.1-0.6,0.1-1,0.1-1.2c3.5-0.4,6.7-0.8,9.7-1.2l-1.1-3.3c-4.6,0.6-7.5,0.9-8.6,0.9V0.6l-5.3,0.1
		c0.1,1.1,0.1,1.9,0.1,2.5c0,3.9-0.9,6.7-2.7,8.4l5.7,0.7c1-0.8,1.7-1.9,2-3c0.5,0,1.2,0,1.9-0.1c0,0.9-0.1,1.9-0.3,2.9l5.7,0.2V9
		l3.1-0.1l-0.3-3.3C178.9,5.6,175.6,5.7,171.7,5.9z M177.8,8.1v3.1l-3.5-0.1c0.1-0.7,0.1-1.3,0.1-2V8l-1.1,0.1
		c-0.7,0-1.3,0.1-1.8,0.1h-0.8l-0.2,0.8c-0.2,0.9-0.6,1.6-1.3,2.2l-3.4-0.4c1.2-1.8,1.8-4.4,1.8-7.6c0-0.4,0-0.9,0-1.5l3.3-0.1v0.5
		h1c1.1,0,3.7-0.2,7.9-0.8l0.5,1.3c-2.6,0.3-5.5,0.7-8.5,1.1l-0.9,0.1v0.9c0,0.1,0,0.4-0.1,1.1L170.6,7l1.2-0.1
		c3.4-0.2,6.4-0.2,8.9-0.3l0.1,1.3L177.8,8.1z"/>
	<path class="st0" d="M155,8.9c0.8,0,1.4,0,1.9,0c0,0.9-0.1,1.9-0.3,2.9l5.7,0.2V8.8c1-0.1,2-0.1,3.1-0.1L165,5.4
		c-1.1,0-3.4,0.1-6.7,0.2c-1.1,0.1-2.1,0.1-3.1,0.1c0.1-0.6,0.1-1.1,0.1-1.5c3.5-0.2,6.7-0.5,9.7-0.9L163.9,0
		c-4.6,0.6-7.5,0.9-8.6,0.9V0.4L150,0.4c0.1,1.1,0.1,1.9,0.1,2.5c0,3.7-0.9,6.5-2.7,8.4l5.7,0.6C154.1,11.1,154.8,10.1,155,8.9z
		 M149.3,10.6c1.2-2,1.8-4.5,1.8-7.6c0-0.4,0-0.9,0-1.5l3.3,0v0.5h1c1.1,0,3.7-0.2,7.9-0.8l0.5,1.3c-2.6,0.3-5.5,0.6-8.4,0.7
		l-0.9,0.1v0.9c0,0.4,0,0.9-0.1,1.4l-0.1,1.1h1.1c1,0,2.1,0,3.2-0.1c2.6-0.1,4.5-0.1,5.7-0.2l0.1,1.3c-0.7,0-1.4,0.1-2.1,0.1
		l-0.9,0.1V11l-3.5-0.1c0.1-0.7,0.1-1.3,0.1-1.9V7.9l-1.1,0.1c-0.5,0-1.1,0-1.8,0h-0.8l-0.2,0.8c-0.2,0.9-0.6,1.6-1.3,2.2
		L149.3,10.6z"/>
	<path class="st0" d="M172.7,14.7c-0.5-0.1-1.2-0.1-2.2-0.1c-2.8,0-7.6,0.2-14.3,0.4l-1,0v3.1l1,0c5.8-0.2,11.5-0.3,16.9-0.3
		c0.4,0,1.1-0.3,1.1-1.3C174.4,15.6,173.8,14.9,172.7,14.7z M173.3,16.9c-5.4,0-11.1,0.1-17,0.3v-1.1c6.7-0.3,11.4-0.4,14.2-0.4
		c0.9,0,1.6,0,2,0.1c0.6,0.1,0.9,0.4,0.9,0.9C173.4,16.8,173.4,16.9,173.3,16.9z"/>
	<path class="st0" d="M155.4,22l1,0c2.1-0.1,7.7-0.1,16.7-0.3l0.9,0l0.2-3.2l-18.8,0.3V22z M156.4,19.7l16.7-0.3l-0.1,1.2
		c-9,0.1-14.6,0.2-16.7,0.3V19.7z"/>
	<path class="st0" d="M179.3,27.5c0.2-2.7,0.3-6.4,0.3-11.2c0-2.2-1.3-3.3-3.8-3.4l-25.3,0c0.1,2.2,0.1,6.4,0.1,12.7l0,2.1l5-0.1
		c-1.9,0.6-4.1,1.2-6.6,1.6l4.2,2.9c4-0.6,7.4-1.9,10.2-3.9l-2-0.6c2.6,0,5.3,0,8.1,0l-2.4,0.9c3.6,1.4,6.4,2.7,8.4,3.9l5.1-2.5
		c-1.7-0.8-3.5-1.6-5.4-2.3H179.3z M178.2,29.8l-2.7,1.4c-1.5-0.9-3.5-1.8-5.8-2.8l-0.3-1.8c-2.7,0-5.4,0-8.1,0l-0.3,1.9
		c-2.2,1.2-4.8,2.1-7.7,2.6l-1.9-1.3c1.6-0.3,3.1-0.7,4.4-1.2l-0.3-1.9l-4,0.1l0-1.1c0-5.4,0-9.4-0.1-11.7l24.3,0
		c2.5,0.1,2.8,1.3,2.8,2.4c0,4.2-0.1,7.7-0.2,10.2h-3.2l-0.3,1.9C176,28.9,177.1,29.3,178.2,29.8z"/>
	<path class="st0" d="M156.4,22.6l-1,0v3l18.4,0l0.3-3.3l-1.1,0C163.7,22.4,158.1,22.5,156.4,22.6z M172.8,24.6l-16.4,0v-1.1
		c1.7-0.1,7.2-0.2,16.6-0.3L172.8,24.6z"/>
	<path class="st0" d="M204.9,27.8c2.4,0.6,5.3,0.9,8.7,0.9c0.6,0,1.2,0,1.9,0l0.2-6c-3.5,0-6.4-0.3-8.6-0.7
		c-2.2-0.5-4.5-1.3-6.8-2.5l-2.4,5.6C200.2,26.3,202.5,27.2,204.9,27.8z M200.9,20.7c2.1,1,4.1,1.7,6.1,2.1c2,0.4,4.6,0.7,7.8,0.7
		l-0.2,4.1c-0.3,0-0.6,0-0.9,0c-3.3,0-6.1-0.3-8.5-0.8c-2-0.5-4-1.3-6-2.3L200.9,20.7z"/>
	<path class="st0" d="M215.3,10.5l0.2-5.6c-2.2-0.2-4.4-0.3-6.5-0.3c-3.7,0-7,0.3-9.6,1l0.5,5.6c2.7-0.5,6.1-0.8,10.2-0.8
		C211.7,10.3,213.5,10.3,215.3,10.5z M200.4,6.3c2.4-0.5,5.3-0.8,8.6-0.8c1.8,0,3.7,0.1,5.5,0.2l-0.1,3.7c-1.5-0.1-2.9-0.1-4.3-0.1
		c-3.6,0-6.7,0.2-9.3,0.6L200.4,6.3z"/>
	<path class="st0" d="M188.7,8.6c-0.4,2.7-0.6,5.5-0.6,8.4c0,5.2,0.6,9.6,1.7,13.2l5.9-0.9c-1.1-4-1.6-8.2-1.6-12.4
		c0-4.9,0.7-9.5,2.2-13.9l-5.8-1.2C189.7,3.7,189.2,5.9,188.7,8.6z M195,3.8c-1.2,4.2-1.9,8.6-1.9,13.2c0,3.9,0.5,7.8,1.4,11.5
		l-3.9,0.6c-1-3.3-1.4-7.4-1.4-12.1c0-2.9,0.2-5.7,0.6-8.3c0.3-2.2,0.8-4.1,1.3-5.8L195,3.8z"/>
	<path class="st0" d="M225.3,19.2l1.1-0.1c0.4,0,1.1-0.1,2.1-0.2l0.9-0.1v-5.6l-4,0.1L225.3,19.2z M226.4,14.4l2-0.1V18
		c-1,0.1-1.7,0.2-2.1,0.2L226.4,14.4z"/>
	<path class="st0" d="M228.4,10.4l0.9-0.1l0-0.9c0-0.6,0-1.1,0-1.5c0-0.8-0.1-1.4-0.2-1.9c-0.2-0.8-1-1.2-2.3-1.3l-0.1,0l-1.4,0.1
		v5.8l1.1-0.1C227,10.6,227.6,10.5,228.4,10.4z M226.4,5.8l0.4,0c0.8,0,1.3,0.3,1.4,0.6c0.1,0.4,0.2,0.9,0.2,1.6c0,0.4,0,0.9,0,1.4
		c-0.8,0.1-1.4,0.1-1.9,0.2V5.8z"/>
	<path class="st0" d="M246.8,14.7l-0.3-0.4l-4.8,0.1l0-0.5l-2,2.7c-0.4,0.6-0.9,1.2-1.3,1.8l-1.4,1.8l4.2-0.4l0.1-0.8
		c0.1-0.5,0.1-1,0.2-1.4l2.6,0c0,0.4-0.1,0.7-0.2,1.1l-0.2,1.1h2c1.2,0,1.7,0.1,2,0.1l2,0.5l-0.8-1.8
		C248,16.7,247.3,15.4,246.8,14.7z M240.3,18.9c-0.2,0-0.6,0.1-1.2,0.1c0.4-0.6,0.9-1.2,1.3-1.8C240.5,17.7,240.4,18.3,240.3,18.9z
		 M245.7,18.9h-0.8c0.1-0.8,0.2-1.6,0.3-2.3l-4.3,0.1c0.3-0.4,0.6-0.9,0.9-1.3l4.1-0.1c0.5,0.6,1.1,1.9,2,3.8
		C247.5,18.9,246.8,18.9,245.7,18.9z"/>
	<path class="st0" d="M254.7,15l-0.3-4.8l-10.7,0.4l0.5-1.9c5.5-0.1,8.6-0.2,9.1-0.2l-0.2-4.4l-1.9,0c0.5-1,0.8-1.8,1-2.3l-4.4-1.4
		c-0.3,1.3-0.7,2.5-1.2,3.7l-1.4,0.1c0.3-1.2,0.5-2.4,0.7-3.6l-4.8-0.1c-0.1,1.3-0.3,2.6-0.6,3.8l-0.9,0c-0.2-1.2-0.6-2.5-1.3-3.9
		l-4.3,0.8c0.4,0.9,0.7,1.9,0.9,3.2h-1.1l0.1,4.5l5.6-0.1c-0.2,0.7-0.4,1.3-0.7,1.8c-2.6,0-4.4,0.1-5.3,0.1h-0.2l0.1,4.8l3.4,0
		c-0.8,1.4-2.1,2.6-3.9,3.7V6c0-1.7-0.4-3-1.1-3.8C231,1.4,230.1,1,229,1c-1.1,0-2,0-2.6,0.1c0-0.3,0-0.6,0-0.9l-4.7,0.4
		c0.1,3.4,0.2,6.9,0.2,10.7c0,7.4-0.4,13.9-1.3,19.3l4.8,1c0.3-2.3,0.6-5.2,0.9-8.8l2.2-0.1c0,1.5,0,2.4,0,2.7
		c-0.1,0.5-0.4,0.8-0.8,0.8c-0.2,0-0.7-0.1-1.4-0.2l0.3,5.2c1.2,0.3,2.2,0.5,3,0.5c1.5,0,2.5-0.6,3-1.7c0.3-0.7,0.4-2.7,0.4-5.9
		v-3.6l1.4,3.8c0.8-0.3,1.6-0.7,2.2-1.2c1,0,1.9,0,2.7,0c-0.9,2.1-2.9,3.7-6,4.9l2.4,3.9c4.6-1.8,7.3-4.7,8.3-8.6c0.9,0,1.5,0,2,0
		c0.1,0,0.1,0.1,0.2,0.2s0.1,0.5,0.1,1.2v1c0,0.7-0.1,1.1-0.2,1.1c-1,0-1.9-0.1-2.8-0.4l0.1,4.8c1.7,0.4,3,0.7,4.1,0.7
		c0.8,0,1.5-0.2,2.1-0.6c0.6-0.6,0.9-1.4,1-2.5c0-2.9,0.1-4.7,0.1-5.2l0.4,1l4.1-3.3c-1.2-2.1-2.6-4.2-4.1-6.5L254.7,15z
		 M231.9,24.2c0,4-0.2,5.2-0.3,5.6c-0.2,0.4-0.7,1.1-2.1,1.1c-0.6,0-1.2-0.1-2-0.3l-0.2-3.2c0.1,0,0.3,0,0.4,0
		c0.3,0,1.4-0.1,1.8-1.6l0-0.1l0-0.1c0-0.4,0-1.3,0-2.7v-1l-4.2,0.1l-0.1,0.9c-0.2,3-0.4,5.6-0.7,7.7l-2.8-0.6
		c0.8-5.3,1.1-11.5,1.1-18.5c0-3.4-0.1-6.7-0.2-9.8l2.7-0.3l0.1,0.9l1.1-0.2C227.1,2,227.9,2,229,2c0.8,0,1.5,0.3,2.1,0.9
		c0.6,0.6,0.9,1.7,0.9,3.1V24.2z M253.8,21.3l-2.7,2.1l-1.5,0.3c0,0.5,0,2.2-0.1,5.1c0,0.8-0.2,1.4-0.6,1.8
		c-0.4,0.2-0.8,0.4-1.4,0.4c-0.8,0-1.9-0.2-3.1-0.4l-0.1-2.8c0.6,0.1,1.2,0.2,1.8,0.2c1.2,0,1.2-1.5,1.2-2.1v-1c0-1-0.1-1.4-0.2-1.6
		c-0.3-0.7-0.8-0.8-1.1-0.8c-0.4,0-1.1,0-1.9,0l-0.8,0l-0.2,0.8c-0.8,3.4-3.1,5.9-6.9,7.6l-1.4-2.2c2.7-1.2,4.5-2.9,5.4-5l0.6-1.4
		h-4.6l-0.3,0.2c-0.3,0.2-0.7,0.5-1,0.6l-1-2.8l-1.3,0.2l0.9-0.5c2-1.1,3.4-2.5,4.3-4.1l0.8-1.5l-4.1,0l-0.1-2.7c1,0,2.6,0,4.5-0.1
		l0.6,0l0.3-0.6c0.2-0.5,0.5-1.2,0.7-1.9l0.4-1.3l-6,0.1l-0.1-2.4h1.2l-0.1-1.1c-0.1-0.8-0.3-1.6-0.5-2.3l2.4-0.4
		c0.4,1,0.7,2,0.9,2.9l0.1,0.9l2.6-0.1l0.2-0.8c0.2-0.9,0.4-1.9,0.5-3l2.8,0.1c-0.1,0.8-0.3,1.6-0.5,2.4L244,5.4l3.4-0.2l0.2-0.6
		c0.4-0.9,0.7-1.9,1-2.9l2.3,0.8c-0.1,0.3-0.3,0.8-0.5,1.2l-0.7,1.4l2.5,0l0.1,2.4c-1.2,0-3.5,0.1-8.1,0.2l-0.7,0l-1.1,3.9l11.1-0.4
		l0.2,2.8l-4.5,0.1l1,1.5C251.5,17.6,252.7,19.5,253.8,21.3z"/>
	<path class="st0" d="M281.4,11.5c1.8-1.4,2.7-3,2.7-5c0-1.7-0.8-2.9-2.3-3.7c-1.5-0.8-3.9-1.2-7-1.2s-6.6,0.3-10.3,0.8l1,5.7
		c3.6-0.6,6.8-1,9.7-1c1.6,0,2.3,0.2,2.3,0.7c0,0.9-2.4,2-7.3,3.1l1.1,5.4c1.5-0.4,3.2-0.6,5-0.6c1.8,0,3.3,0.4,4.3,1.2
		c1.1,0.8,1.6,2,1.6,3.5c0,1.5-0.6,2.7-1.7,3.5c-1.2,0.9-2.8,1.3-5,1.4l3-2.6c-2.2-3.5-5.1-5.2-8.5-5.2c-1.8,0-3.3,0.6-4.5,1.8
		c-1.2,1.2-1.9,2.7-1.9,4.5c0,2.2,1,4,3,5.3c2,1.3,4.7,1.9,8.2,1.9c4.2,0,7.6-0.9,10-2.8c2.4-1.8,3.6-4.4,3.6-7.6
		c0-2.2-0.6-4.1-1.8-5.7C285.4,13.4,283.7,12.3,281.4,11.5z M284.2,27.6c-2.2,1.7-5.4,2.6-9.4,2.6c-3.3,0-5.9-0.6-7.7-1.8
		c-1.7-1.1-2.5-2.5-2.5-4.4c0-1.5,0.5-2.8,1.5-3.8c1.1-1,2.3-1.5,3.8-1.5c2.9,0,5.2,1.3,7.2,4l-2.7,2.4l-0.1-0.1
		c-0.6-0.9-1.2-1.6-1.9-2.2c-0.8-0.6-1.5-0.9-2.1-0.9c-2,0-2.1,1.4-2.1,1.7c0,0.6,0.3,1.5,1.8,2.1c0.8,0.3,1.7,0.6,2.9,0.7l-0.2,0.2
		l1.5-0.1l1.2,0.1l-0.1-0.1l0.2,0c2.4-0.1,4.2-0.7,5.6-1.6c1.4-1,2.2-2.5,2.2-4.3c0-1.8-0.7-3.3-2-4.3c-1.3-0.9-2.9-1.4-4.9-1.4
		c-1.5,0-2.9,0.1-4.2,0.4l-0.7-3.4c5.9-1.5,7.1-2.6,7.1-3.9c0-1.7-2.3-1.7-3.3-1.7c-2.6,0-5.6,0.3-8.9,0.8l-0.6-3.7
		c3.3-0.4,6.4-0.7,9.2-0.7c2.9,0,5.1,0.4,6.5,1.1c1.2,0.6,1.8,1.5,1.8,2.8c0,1.6-0.8,3-2.3,4.2l-1.5,1.2l1.8,0.6
		c2,0.6,3.6,1.7,4.7,3.1c1.1,1.4,1.6,3.1,1.6,5.1C287.4,23.7,286.4,25.9,284.2,27.6z M273.5,25.5c-1.3-0.1-2.3-0.3-3.1-0.7
		c-0.8-0.3-1.2-0.8-1.2-1.2c0-0.5,0.4-0.7,1.1-0.7c0.4,0,0.9,0.2,1.5,0.7C272.4,24,273,24.6,273.5,25.5z"/>
</g>
</svg>
