<?xml version="1.0" encoding="utf-8"?>
<!-- Generator: Adobe Illustrator 27.9.1, SVG Export Plug-In . SVG Version: 6.00 Build 0)  -->
<svg version="1.1" id="Layer_1" xmlns:inkscape="http://www.inkscape.org/namespaces/inkscape"
	 xmlns="http://www.w3.org/2000/svg" xmlns:xlink="http://www.w3.org/1999/xlink" x="0px" y="0px" viewBox="0 0 142.2 31.7"
	 style="enable-background:new 0 0 142.2 31.7;" xml:space="preserve">
<style type="text/css">
	.st0{fill:#070707;}
</style>
<g>
	<path class="st0" d="M29.7,15.6c-0.8-0.2-1.7-0.3-2.7-0.4c-2.6,0-5.3,0.1-8,0.4l0-0.4l-5.1,0.1c0.1,1.3,0.1,3.1,0.1,5.5
		c0,2.8-0.1,6.3-0.4,10.6l5.6,0.2l0-4.9l7.7-0.3c-0.1,0.5-0.2,0.8-0.3,0.9c-0.1,0.1-0.4,0.2-0.9,0.2c-1.3,0-2.1-0.1-2.6-0.2l0.4,3.8
		c0.9,0.2,2.3,0.3,4.3,0.3h0.5c1.2,0,2.1-0.3,2.7-1c0.6-0.7,0.9-1.9,0.9-3.7c0-1.8,0.1-4,0.1-6.7c0-1.3-0.2-2.4-0.6-3.1
		C31,16.3,30.5,15.8,29.7,15.6z M19.1,19.8l0-0.9c3.2-0.2,5.2-0.3,5.9-0.3c1.4,0,2.1,0.3,2.1,0.9l-4.8,0.1
		C20.8,19.7,19.8,19.8,19.1,19.8z M27.1,23.5l-7.9,0.3l0-1.2c2.9-0.1,5.5-0.2,7.9-0.3V23.5z"/>
	<path class="st0" d="M8.7,1.6L6.6,1.6c-1,0-1.6,0-1.9-0.1L4.6,0.6L0,0.8C0.2,4.9,0.3,12.9,0.3,25l0,3.7c3.4,0,7.1-0.1,11.2-0.1
		c0.2-3.7,0.3-10.9,0.3-21.9C11.7,3.4,10.7,1.8,8.7,1.6z M6.9,23.1c-0.8,0.1-1.5,0.1-2.1,0.1v-5.9c0.7-0.1,1.4-0.1,2.2-0.1L6.9,23.1
		z M7,12.1H6.2c-0.6,0-1.1,0-1.5,0.1V6.5h1.2c0.8,0,1.2,0.4,1.2,1.3L7,12.1z"/>
	<path class="st0" d="M24.8,10.8v-1l6.5-0.1l-0.4-3.7l-6.2,0.1l-0.1-1.2l7.8-0.1l-0.3-3.7c-4.7,0.1-7.2,0.1-7.6,0.2
		c0-0.6-0.1-1.1-0.1-1.3l-4.6,0v1.4h-6.9L13,5.1l6.9-0.1v1.3c-2.6,0-4.6,0.1-6.1,0.1l0.1,3.6l5.9-0.1l-0.1,1.2
		c-2.3,0-4.7,0.1-7.3,0.1l0.1,3.6l20.6-0.3l-0.4-3.7L24.8,10.8z"/>
	<path class="st0" d="M65.9,23.1c-0.2-0.2-0.4-0.8-0.4-1.6c0-0.8,0.1-2.5,0.4-4.9c0.2-2.4,0.4-4.1,0.4-4.9c0-2.1-0.5-3.7-1.4-4.8
		c-1-1.1-2.3-1.7-4.1-1.7c-1.3,0-2.8,0.3-4.5,0.9c-1.7,0.6-3.3,1.5-4.8,2.6c0.2-2.7,0.4-5.3,0.7-7.7l-6-0.3
		c-0.2,1.8-0.4,3.6-0.6,5.5c-1.6-0.6-3.2-1.2-4.8-1.6L39,10.3c1.3,0.4,3.3,1.1,6.1,2.2c0,0.3,0,0.7,0,1c-2.4,3.5-4.6,6.9-6.7,10.2
		l4.3,3.7c0.7-1.4,1.4-2.7,2.2-4c0,2.5,0.1,4.9,0.2,7.1l6-0.3c-0.3-3.8-0.3-8.5-0.1-14.1c1.6-1.4,3.2-2.6,4.8-3.6
		c1.6-1,2.9-1.4,3.8-1.4c0.3,0,0.6,0.1,0.7,0.3c0.1,0.2,0.2,0.7,0.2,1.5c0,0.8-0.1,2.4-0.4,4.9c-0.2,2.5-0.4,4.2-0.4,5
		c0,2.1,0.6,3.7,1.7,4.7c1.1,1,2.9,1.5,5.3,1.5c0.9,0,1.9-0.1,3-0.3l0.4-5.7c-0.9,0.3-1.8,0.4-2.7,0.4S66.2,23.4,65.9,23.1z"/>
	<path class="st0" d="M96.1,23.7c-1.9-0.4-3.9-1.2-6.2-2.2l-2.2,5.3c2.1,1.2,4.3,2,6.5,2.5c2.2,0.5,4.8,0.8,7.7,0.8c0.6,0,1.3,0,2,0
		l0.2-5.7c-0.5,0-0.9,0-1.3,0C100.2,24.3,98,24.1,96.1,23.7z"/>
	<path class="st0" d="M94.4,9.4l0.1-5.5c-1.2,0-2.3,0-3.3,0c-0.8,0-1.5,0-2.2,0c0.3-1.1,0.6-2,0.9-2.8l-6-0.9
		c-0.4,1.1-0.8,2.5-1.3,4.2c-2,0.2-4.3,0.7-6.9,1.3l0.8,5.7c1.6-0.4,3-0.7,4.4-0.9c-2,7-3.5,13.2-4.7,18.8l6.3,1.1
		c1.3-6.6,3-13.5,5-20.7c1.5-0.1,3-0.1,4.6-0.1C92.7,9.4,93.5,9.4,94.4,9.4z"/>
	<path class="st0" d="M90.9,16.3c3-0.5,6-0.8,9-0.8c1.3,0,2.6,0,3.9,0.1l0.2-5.5c-1.4-0.1-2.9-0.2-4.3-0.2c-3.3,0-6.5,0.3-9.5,0.9
		L90.9,16.3z"/>
	<path class="st0" d="M113.1,13.3l4.8,2.9c2.5-1.9,4.5-4.2,5.9-6.9l-4.6-1.9C117.9,9.8,115.9,11.8,113.1,13.3z"/>
	<path class="st0" d="M130,7.1l-4,2.5c2.7,1.8,4.9,3.8,6.8,6.2l4.1-2.6C134.9,10.5,132.6,8.5,130,7.1z"/>
	<path class="st0" d="M128.4,25.6v-1.1c0-1.5,0-2.4,0-2.7c5.4-0.1,8.6-0.2,9.8-0.2l-0.4-5.3c-2.6,0.1-6.6,0.2-12.2,0.4
		c-5.5,0.2-9.9,0.3-13.3,0.4l0.1,5.3c2.9-0.1,6.3-0.2,10.2-0.4c0,2-0.1,3.2-0.2,3.8c-5.8,0.1-10.3,0.2-13.3,0.2l0.2,5.3
		c3.9-0.1,9.9-0.2,18.1-0.4c8.1-0.1,13-0.2,14.8-0.3l-0.4-5.3C138.3,25.4,133.8,25.5,128.4,25.6z"/>
	<path class="st0" d="M114.4,11.6c0-1.4-0.1-2.8-0.2-4c6.7-0.6,11.8-0.8,15.4-0.8c1.9,0,3.7,0.1,5.5,0.3c0.8,0.2,1.2,0.8,1.2,1.7
		c0,0.8-0.1,1.6-0.2,2.4l5.2,0.7c0.4-0.8,0.6-2.2,0.6-4.2c0-1.1-0.1-2.2-0.2-3c-0.3-1.8-1.7-2.8-4.2-2.8c-5.1-0.1-8.4-0.1-9.8,0
		c-0.1-0.5-0.3-1.1-0.6-1.7l-5.8,0.5c0.2,0.9,0.4,1.4,0.4,1.6c-2.7,0.1-6.9,0.3-12.5,0.7c-0.1,1.9-0.1,3.5-0.1,4.9
		c0,0.8,0.1,2.1,0.2,4L114.4,11.6z"/>
</g>
</svg>
