<?xml version="1.0" encoding="utf-8"?>
<!-- Generator: Adobe Illustrator 27.9.1, SVG Export Plug-In . SVG Version: 6.00 Build 0)  -->
<svg version="1.1" id="Layer_1" xmlns="http://www.w3.org/2000/svg" xmlns:xlink="http://www.w3.org/1999/xlink" x="0px" y="0px"
	 viewBox="0 0 261.1 33.5" style="enable-background:new 0 0 261.1 33.5;" xml:space="preserve">
<style type="text/css">
	.st0{fill:#282828;}
</style>
<path class="st0" d="M57,1.6c-0.4,0.6-0.8,1.3-1.2,2c-0.4,0.7-0.7,1.3-0.9,1.6c-0.8,1.5-1.9,3.1-3.1,4.7c-1.2,1.6-2.6,3.2-4.2,4.8
	c-1.6,1.5-3.3,3-5.2,4.2l-3.8-2.8c1.6-1,3.1-2.1,4.4-3.2c1.3-1.1,2.4-2.2,3.3-3.3c1-1.1,1.8-2.2,2.5-3.2c0.7-1,1.3-1.9,1.7-2.8
	c0.3-0.4,0.5-1,0.9-1.7c0.3-0.7,0.6-1.4,0.7-2L57,1.6z M19.3,0.4c-0.1,0.4-0.1,1-0.2,1.6c-0.1,0.6-0.1,1.3-0.1,1.8
	c0,0.4,0,0.8,0,1.3c0,0.5,0,1,0,1.5c0,0.5,0,0.9,0,1.3h-4.4c0-0.4,0-0.8,0-1.2c0-0.5,0-1,0-1.5c0-0.5,0-1,0-1.4c0-0.6,0-1.2,0-1.9
	c0-0.6-0.1-1.2-0.2-1.6H19.3z M122.7,27.7c0-0.4,0-1.2,0-2.3c0-1.1,0-2.4,0-3.8c0-1.5,0-3,0-4.6c0-1.6,0-3.2,0-4.7c0-1.5,0-2.8,0-4
	c0-1.2,0-2,0-2.5c0-0.7,0-1.4-0.1-2.2c-0.1-0.8-0.1-1.6-0.3-2.2h5.3c-0.1,0.6-0.2,1.3-0.2,2.1c-0.1,0.8-0.1,1.5-0.1,2.3
	c0,0.8,0,1.8,0,3c0,1.3,0,2.6,0,4.1c0,1.5,0,3,0,4.6c0,1.5,0,3,0,4.4c0,1.4,0,2.6,0,3.6s0,1.7,0,2.1c0,0.4,0,0.9,0,1.5
	c0,0.6,0.1,1.2,0.1,1.9c0.1,0.6,0.1,1.2,0.2,1.7h-5.3c0.1-0.7,0.2-1.5,0.2-2.5C122.6,29.3,122.7,28.4,122.7,27.7z M243.8,30.4
	c0.1-0.4,0.1-0.8,0.2-1.2c0.1-0.5,0.1-0.9,0.1-1.4c0-0.3,0-0.8,0-1.7c0-0.8,0-1.9,0-3.1c0-1.2,0-2.5,0-3.9c0-1.4,0-2.8,0-4.3
	c0-1.4,0-2.8,0-4s0-2.4,0-3.3c0-1,0-1.6,0-2c0-0.8,0-1.5-0.1-2.1c-0.1-0.6-0.1-0.9-0.2-1h5.1c0,0.1,0,0.5-0.1,1
	c-0.1,0.6-0.1,1.3-0.1,2.1c0,0.4,0,1,0,1.9c0,0.9,0,1.9,0,3c0,1.2,0,2.4,0,3.7c0,1.3,0,2.6,0,3.9c0,1.3,0,2.5,0,3.6c0,1.1,0,2,0,2.8
	c0,0.8,0,1.3,0,1.6c1.1-0.5,2.2-1.1,3.4-2c1.2-0.8,2.3-1.8,3.5-2.9c1.1-1.1,2.1-2.3,3-3.6l2.6,3.7c-1.1,1.4-2.3,2.8-3.8,4.1
	c-1.5,1.3-3,2.5-4.6,3.6c-1.6,1.1-3.1,2-4.6,2.7c-0.4,0.2-0.7,0.4-0.9,0.6c-0.2,0.2-0.4,0.3-0.6,0.5L243.8,30.4z M226.3,29.9
	c1.6-1.2,3-2.6,4.1-4.2c1.1-1.6,1.9-3.3,2.4-5c0.3-0.8,0.5-1.9,0.6-3.1c0.2-1.2,0.3-2.6,0.3-4c0.1-1.4,0.1-2.8,0.1-4.2
	c0-1.4,0-2.6,0-3.8c0-0.7,0-1.3-0.1-1.8c-0.1-0.5-0.1-1-0.2-1.5h5c0,0.1-0.1,0.3-0.1,0.6c0,0.3-0.1,0.7-0.1,1.2s-0.1,0.9-0.1,1.4
	c0,1.1,0,2.4,0,3.9c0,1.5-0.1,3-0.2,4.5c-0.1,1.5-0.2,3-0.3,4.4c-0.1,1.4-0.3,2.6-0.6,3.5c-0.6,2.1-1.4,4.1-2.6,5.9
	c-1.2,1.8-2.6,3.5-4.2,4.9L226.3,29.9z M156.2,29.8c0.2-0.4,0.3-0.8,0.4-1.2c0.1-0.3,0.1-0.7,0.1-1.2c0-0.5,0-1.2,0-2.2
	c0-1,0-2.2,0-3.5c0-1.3,0-2.8,0-4.2c0-1.5,0-2.9,0-4.4c0-1.4,0-2.7,0-3.9c0-1.2,0-2.1,0-2.8c0-0.4,0-0.9-0.1-1.4
	c-0.1-0.5-0.1-1-0.2-1.5c-0.1-0.5-0.1-0.9-0.2-1.2h5.4c-0.1,0.7-0.2,1.3-0.2,2c-0.1,0.7-0.1,1.4-0.1,2.1c0,0.6,0,1.3,0,2.3
	c0,0.9,0,2,0,3.1c0,1.1,0,2.3,0,3.5s0,2.4,0,3.6c0,1.2,0,2.3,0,3.3c0,1,0,2,0,2.7c0,0.8,0,1.4,0,1.7c1.6-0.4,3.3-1.1,5.1-1.9
	c1.8-0.8,3.6-1.8,5.4-2.9c1.8-1.1,3.5-2.3,5.1-3.7c1.6-1.3,3-2.7,4.2-4.2l2.4,3.8c-2.6,3.1-5.7,5.8-9.6,8.1c-3.8,2.3-8,4.1-12.6,5.6
	c-0.2,0.1-0.5,0.2-0.9,0.3c-0.4,0.1-0.8,0.3-1.2,0.6L156.2,29.8z M218.3,3c0.4,0.5,0.8,1.1,1.3,1.8c0.5,0.7,0.9,1.5,1.3,2.2
	c0.4,0.7,0.8,1.4,1.1,1.9l-3,1.4c-0.4-0.8-0.8-1.5-1.2-2.2c-0.4-0.7-0.8-1.3-1.2-2c-0.4-0.6-0.8-1.3-1.3-1.9L218.3,3z M103.8,5.6
	c-0.1,0.2-0.3,0.5-0.6,0.9c-0.3,0.4-0.5,0.8-0.6,1.2c-0.5,1.2-1.1,2.5-1.9,4c-0.8,1.5-1.6,3-2.6,4.5c-1,1.5-2,2.8-3.1,4.1
	c-1.4,1.6-2.9,3.2-4.7,4.7c-1.7,1.5-3.5,3-5.4,4.3c-1.9,1.3-3.8,2.4-5.8,3.3L75.6,29c2.1-0.8,4-1.8,6-3c1.9-1.2,3.7-2.5,5.4-3.9
	c1.6-1.4,3.1-2.8,4.3-4.1c0.9-1,1.7-2,2.5-3.1c0.8-1.1,1.5-2.3,2.1-3.4c0.6-1.1,1.1-2.2,1.3-3.1c-0.2,0-0.7,0-1.4,0
	c-0.7,0-1.5,0-2.4,0c-0.9,0-1.9,0-2.9,0c-1,0-2,0-2.9,0c-0.9,0-1.7,0-2.4,0s-1.2,0-1.4,0c-0.5,0-1.1,0-1.6,0.1
	c-0.6,0-1.1,0.1-1.6,0.1c-0.5,0-0.8,0.1-1.1,0.1V3.6c0.3,0.1,0.7,0.1,1.3,0.1c0.5,0,1.1,0.1,1.7,0.1c0.6,0,1,0,1.4,0
	c0.3,0,0.8,0,1.5,0c0.7,0,1.5,0,2.5,0c0.9,0,1.9,0,2.9,0c1,0,2,0,2.9,0c0.9,0,1.7,0,2.4,0c0.7,0,1.2,0,1.4,0c0.8,0,1.5,0,2.1-0.1
	c0.6-0.1,1.1-0.2,1.5-0.3L103.8,5.6z M213.3,5.1c0.4,0.5,0.8,1.1,1.2,1.8c0.4,0.7,0.9,1.5,1.3,2.2c0.4,0.7,0.8,1.4,1.1,2l-3.1,1.3
	c-0.4-0.8-0.7-1.5-1.1-2.2c-0.4-0.7-0.7-1.4-1.1-2.1c-0.4-0.7-0.8-1.3-1.3-1.9L213.3,5.1z M69.5,7.6c-0.2,0.3-0.4,0.7-0.6,1.2
	c-0.2,0.5-0.4,0.9-0.6,1.4C68,11.2,67.6,12.5,67,14c-0.6,1.5-1.3,3-2.2,4.5c-0.9,1.5-1.9,3-3,4.4c-1.8,2.2-3.9,4.1-6.3,5.9
	c-2.4,1.8-5.4,3.3-9,4.7l-4-3.6c2.5-0.8,4.7-1.6,6.6-2.6c1.9-1,3.5-2.1,4.9-3.2c1.4-1.1,2.7-2.4,3.8-3.6c0.9-1,1.7-2.2,2.5-3.5
	c0.8-1.3,1.4-2.6,2-3.9c0.5-1.3,0.9-2.4,1.1-3.4H50.1l1.6-3.8c0.3,0,0.9,0,1.7,0c0.8,0,1.7,0,2.6,0c1,0,1.9,0,2.9,0c1,0,1.8,0,2.5,0
	c0.7,0,1.2,0,1.4,0c0.6,0,1.1,0,1.7-0.1c0.5-0.1,1-0.2,1.4-0.3L69.5,7.6z M29.9,8.3c-0.4,0.4-0.9,0.9-1.4,1.5
	c-0.5,0.5-0.9,1-1.3,1.5c-0.7,0.8-1.5,1.6-2.4,2.6c-0.9,0.9-1.9,1.9-3,2.8c-1.1,0.9-2.2,1.8-3.4,2.6c-1.4,1-2.9,1.9-4.6,2.7
	c-1.7,0.9-3.4,1.7-5.3,2.4c-1.9,0.7-3.8,1.4-5.9,2l-2.6-4c3.6-0.8,6.7-1.8,9.2-3c2.5-1.2,4.6-2.3,6.3-3.4c1-0.7,2-1.4,2.8-2.1
	c0.9-0.7,1.7-1.4,2.3-2.1c0.7-0.7,1.2-1.3,1.6-1.8c-0.3,0-0.8,0-1.6,0S19,10,18,10c-1,0-2,0-3.1,0s-2.1,0-3,0c-1,0-1.8,0-2.5,0
	c-0.7,0-1.2,0-1.5,0c-0.4,0-1,0-1.6,0c-0.6,0-1.2,0-1.8,0.1c-0.6,0-1.1,0.1-1.5,0.1V5.7c0.7,0.1,1.5,0.2,2.4,0.2
	c0.9,0,1.7,0.1,2.4,0.1c0.3,0,0.8,0,1.6,0c0.8,0,1.8,0,2.9,0c1.1,0,2.2,0,3.5,0s2.4,0,3.5,0s2.1,0,3,0c0.8,0,1.5,0,1.8,0
	c0.5,0,1.1,0,1.6-0.1c0.5-0.1,1-0.1,1.4-0.2L29.9,8.3z M188,20.6c0.6-0.5,1.1-0.9,1.5-1.3c0.4-0.4,0.9-0.9,1.5-1.5
	c0.5-0.5,1-1,1.5-1.7c0.6-0.7,1.2-1.4,1.8-2.2c0.7-0.8,1.3-1.6,2-2.5c0.7-0.8,1.3-1.6,2-2.4c1.1-1.3,2.2-2,3.3-2.1
	c1.1-0.1,2.4,0.5,3.8,1.8c0.9,0.8,1.7,1.6,2.6,2.5c0.9,0.9,1.8,1.8,2.7,2.8c0.9,0.9,1.7,1.8,2.4,2.6c0.9,0.9,1.8,1.9,2.9,3.1
	c1.1,1.2,2.2,2.3,3.3,3.6c1.1,1.2,2.2,2.3,3.1,3.4l-3.7,4c-0.9-1.1-1.8-2.2-2.7-3.4c-1-1.2-1.9-2.3-2.9-3.4c-0.9-1.1-1.8-2.1-2.5-3
	c-0.6-0.7-1.2-1.4-1.8-2.1c-0.7-0.7-1.3-1.5-2-2.2c-0.7-0.7-1.3-1.4-1.8-2s-1-1.1-1.4-1.4c-0.7-0.6-1.2-0.9-1.7-0.9
	c-0.5,0-1,0.4-1.6,1.1c-0.4,0.5-0.9,1.1-1.4,1.8c-0.5,0.7-1.1,1.4-1.6,2.1c-0.6,0.7-1.1,1.5-1.6,2.2c-0.5,0.7-1,1.3-1.4,1.8
	c-0.4,0.6-0.8,1.1-1.3,1.7c-0.4,0.6-0.8,1.2-1.1,1.6L188,20.6z M126.3,11.2c1.3,0.4,2.7,0.8,4.2,1.3c1.5,0.5,3.1,1.1,4.7,1.7
	c1.6,0.6,3.1,1.2,4.5,1.7c1.4,0.6,2.6,1.1,3.6,1.6l-1.9,4.7c-1.1-0.6-2.3-1.2-3.6-1.7c-1.3-0.6-2.7-1.1-4-1.7c-1.4-0.5-2.7-1-4-1.5
	c-1.3-0.5-2.5-0.8-3.5-1.2V11.2z M19,16.8c0,0.7,0,1.6,0,2.6c0,1,0,2.1,0,3.2c0,1.1,0,2.2,0,3.3c0,1.1,0,2,0,2.7c0,0.5,0,1,0,1.6
	c0,0.6,0,1.1,0.1,1.7c0.1,0.5,0.1,1,0.1,1.4h-4.9c0.1-0.4,0.1-0.8,0.1-1.4c0-0.5,0.1-1.1,0.1-1.7c0-0.6,0-1.1,0-1.6
	c0-0.7,0-1.6,0-2.5c0-0.9,0-1.8,0-2.8c0-1,0-1.8,0-2.7c0-0.8,0-1.5,0-2.1L19,16.8z M95.5,17.5c1,0.8,2.1,1.7,3.2,2.8
	c1.1,1,2.2,2.1,3.3,3.2c1.1,1.1,2.1,2.2,3,3.2c0.9,1,1.7,1.9,2.3,2.7l-3.9,3.3c-0.9-1.3-2-2.6-3.2-4c-1.2-1.4-2.5-2.8-3.8-4.2
	c-1.3-1.4-2.7-2.7-4.1-3.9L95.5,17.5z M30.8,26.8c-1.1-0.9-2.1-1.6-3.1-2.3c-1-0.7-1.9-1.3-2.9-1.9c-1-0.6-2-1.2-3.1-1.8l2.8-3.2
	c1.2,0.6,2.2,1.2,3.2,1.7c0.9,0.5,1.8,1.1,2.8,1.7c0.9,0.6,2,1.3,3.2,2.1L30.8,26.8z"/>
</svg>
