<?xml version="1.0" encoding="utf-8"?>
<!-- Generator: Adobe Illustrator 27.9.1, SVG Export Plug-In . SVG Version: 6.00 Build 0)  -->
<svg version="1.1" id="Layer_1" xmlns="http://www.w3.org/2000/svg" xmlns:xlink="http://www.w3.org/1999/xlink" x="0px" y="0px"
	 viewBox="0 0 73.3 35.8" style="enable-background:new 0 0 73.3 35.8;" xml:space="preserve">
<style type="text/css">
	.st0{fill:#282828;}
</style>
<g>
	<path class="st0" d="M52.7,0l4,0.9C56,3.4,55,5.8,53.8,8.1c-1.2,2.3-2.5,4.2-3.8,5.7c-0.3-0.2-0.6-0.5-1-0.8
		c-0.4-0.3-0.8-0.6-1.3-0.9c-0.4-0.3-0.8-0.5-1.2-0.7c1.4-1.3,2.6-3,3.6-5.1S52.1,2.2,52.7,0z M39.2,3.3l2.3-3
		c0.7,0.3,1.5,0.7,2.3,1.2c0.8,0.4,1.6,0.9,2.3,1.3s1.3,0.9,1.8,1.4l-2.4,3.2C45,7,44.4,6.5,43.7,6c-0.7-0.5-1.4-1-2.2-1.5
		C40.7,4.1,39.9,3.7,39.2,3.3z M3,1.4h28.2v3.1H3V1.4z M15,2.6h4v16.2h-4V2.6z M52.4,4.5h20.1v3.6H52.4V4.5z M0.6,6.5h33.2V15H30
		V9.5H4.3V15H0.6V6.5z M37.4,13.5l2.3-3c0.7,0.3,1.5,0.6,2.3,1c0.8,0.4,1.6,0.8,2.3,1.3c0.7,0.5,1.3,0.9,1.8,1.3l-2.4,3.3
		c-0.4-0.4-1-0.9-1.7-1.4c-0.7-0.5-1.4-0.9-2.2-1.4C38.9,14.2,38.2,13.8,37.4,13.5z M66.8,10.9h3.8c0,0.5,0,0.8,0,1.1
		c0,0.3,0,0.5,0,0.7c-0.1,3.6-0.3,6.7-0.4,9.2c-0.2,2.5-0.3,4.6-0.5,6.2c-0.2,1.6-0.4,2.9-0.7,3.8c-0.3,0.9-0.5,1.6-0.8,2
		c-0.4,0.6-0.8,0.9-1.3,1.2c-0.5,0.2-1,0.4-1.6,0.5c-0.6,0.1-1.3,0.1-2.1,0.1c-0.9,0-1.8,0-2.7-0.1c0-0.5-0.1-1.1-0.3-1.7
		c-0.2-0.6-0.4-1.2-0.7-1.6c0.9,0.1,1.7,0.1,2.4,0.1c0.7,0,1.3,0,1.7,0c0.3,0,0.6,0,0.8-0.1c0.2-0.1,0.4-0.2,0.6-0.5
		c0.2-0.3,0.4-0.9,0.6-1.7c0.2-0.8,0.4-2,0.6-3.6c0.2-1.5,0.3-3.5,0.5-5.9c0.1-2.4,0.3-5.3,0.4-8.8V10.9z M53.5,10.9h14.5v3.5H53.5
		V10.9z M51.8,10.9h3.8c-0.2,1.7-0.4,3.5-0.6,5.4c-0.2,1.9-0.5,3.8-0.7,5.7c-0.2,1.9-0.5,3.7-0.8,5.4c-0.3,1.7-0.5,3.2-0.7,4.6
		l-3.9-0.3c0.3-1.3,0.6-2.8,0.8-4.5c0.3-1.7,0.5-3.5,0.8-5.4c0.3-1.9,0.5-3.7,0.7-5.6C51.5,14.3,51.7,12.5,51.8,10.9z M20.6,11.2
		h7.7v2.6h-7.7V11.2z M5.9,11.2h7.7v2.6H5.9V11.2z M59.2,12.2h3.5c-0.1,1.3-0.2,2.7-0.3,4.2c-0.1,1.5-0.3,2.9-0.4,4.4
		c-0.1,1.5-0.3,2.8-0.4,4.2c-0.2,1.3-0.3,2.5-0.5,3.5h-3.5c0.2-1,0.3-2.2,0.5-3.6c0.2-1.3,0.3-2.7,0.5-4.2c0.2-1.5,0.3-2.9,0.4-4.4
		C59,14.9,59.1,13.5,59.2,12.2z M20.6,15.5h8.7v2.6h-8.7V15.5z M5.1,15.5h8.4v2.6H5.1V15.5z M47.1,18.5h26.1v3.7H47.1V18.5z
		 M4.4,19.9H30v3H4.4V19.9z M38.2,32.9c0.6-1,1.2-2.2,1.8-3.5c0.7-1.3,1.3-2.8,2-4.3c0.7-1.5,1.3-3,1.9-4.5l3.2,2.3
		c-0.5,1.3-1,2.7-1.6,4.2c-0.6,1.4-1.2,2.8-1.8,4.2s-1.2,2.7-1.8,3.9L38.2,32.9z M0,24.8h34.4v3.1H0V24.8z M10,25.6l4.9,0.7
		c-0.8,1.3-1.7,2.5-2.7,3.8c-1,1.2-1.9,2.3-2.7,3.2L6,32.3c0.5-0.6,1-1.3,1.5-2.1c0.5-0.8,1-1.6,1.4-2.4C9.3,27,9.7,26.3,10,25.6z
		 M51.7,26.7h21.2v3.5H51.7V26.7z M20.8,28.8l3.5-1.6c1,0.6,2,1.3,3,2.1c1.1,0.8,2.1,1.6,3,2.4c1,0.8,1.8,1.6,2.4,2.2L29,35.8
		c-0.6-0.7-1.3-1.4-2.2-2.2c-0.9-0.8-1.9-1.6-2.9-2.5C22.8,30.2,21.8,29.5,20.8,28.8z M2.2,31.2c2.2-0.1,4.7-0.1,7.6-0.1
		c2.9,0,6-0.1,9.2-0.2c3.2-0.1,6.5-0.1,9.7-0.2l-0.2,3.2c-3.1,0.1-6.3,0.2-9.4,0.3c-3.2,0.1-6.2,0.2-9,0.3c-2.9,0.1-5.4,0.2-7.6,0.2
		L2.2,31.2z"/>
</g>
</svg>
