<?xml version="1.0" encoding="utf-8"?>
<!-- Generator: Adobe Illustrator 27.9.1, SVG Export Plug-In . SVG Version: 6.00 Build 0)  -->
<svg version="1.1" id="Layer_1" xmlns="http://www.w3.org/2000/svg" xmlns:xlink="http://www.w3.org/1999/xlink" x="0px" y="0px"
	 viewBox="0 0 90.3 65.3" style="enable-background:new 0 0 90.3 65.3;" xml:space="preserve">
<g>
	<path d="M21.4,65.3c11.8,0,21-8.8,21-19.9c0-8-4.7-13.7-10-16.1c4.1-2,6.8-6.7,6.8-12.3c0-10-8.5-17-18.2-17C11.7,0,4.7,6.6,2.9,14
		l12.9,2.7c0.6-2.7,2.6-4.4,5.2-4.4c3.1,0,5.6,2.4,5.6,5.7c0,4.6-4.9,8-11.2,8l-1.9,7.1c8.9,0,16.3,4.6,16.3,11.3
		c0,4.6-3.4,8.4-8.6,8.4c-4.3,0-7.9-2.5-8.8-6.2L0,49.8C2.1,58.3,11.2,65.3,21.4,65.3z M10.8,49.6c1.9,3.5,5.8,5.7,10.3,5.7
		c6.3,0,11.1-4.7,11.1-10.9c0-7.1-6.5-12.6-15.6-13.6l0.6-2.4c6.8-0.7,11.8-4.9,11.8-10.4c0-4.6-3.6-8.2-8.1-8.2c-3,0-5.5,1.5-6.8,4
		l-8-1.7C8.4,7,13.8,2.5,21.1,2.5c8.8,0,15.7,6.4,15.7,14.5c0,4.5-2.1,8.4-5.4,10l-4.7,2.3l4.7,2.2c4.2,1.9,8.6,6.6,8.6,13.9
		c0,9.7-8.1,17.4-18.5,17.4c-7.8,0-15.3-4.8-18.2-11.2L10.8,49.6z"/>
	<path d="M69,52.9c-4.3,0-7.9-2.5-8.8-6.2l-12.3,3.1c2.1,8.5,11.2,15.5,21.4,15.5c11.8,0,21-8.8,21-19.9c0-8-4.7-13.7-10-16.1
		c4.1-2,6.8-6.7,6.8-12.3c0-10-8.5-17-18.2-17c-9.3,0-16.4,6.6-18.2,14l12.9,2.7c0.6-2.7,2.6-4.4,5.2-4.4c3.1,0,5.6,2.4,5.6,5.7
		c0,4.6-4.9,8-11.2,8l-1.9,7.1c8.9,0,16.3,4.6,16.3,11.3C77.6,49.1,74.2,52.9,69,52.9z M80.1,44.5c0-7.1-6.5-12.6-15.6-13.6l0.6-2.4
		C72,27.8,77,23.5,77,18c0-4.6-3.6-8.2-8.1-8.2c-3,0-5.5,1.5-6.8,4l-8-1.7c2.3-5.1,7.6-9.7,14.9-9.7c8.8,0,15.7,6.4,15.7,14.5
		c0,4.5-2.1,8.4-5.4,10l-4.7,2.3l4.7,2.2c4.2,1.9,8.6,6.6,8.6,13.9c0,9.7-8.1,17.4-18.5,17.4c-7.8,0-15.3-4.8-18.2-11.2l7.6-1.9
		c1.9,3.5,5.8,5.7,10.3,5.7C75.3,55.4,80.1,50.7,80.1,44.5z"/>
</g>
</svg>
