<?xml version="1.0" encoding="utf-8"?>
<!-- Generator: Adobe Illustrator 27.9.1, SVG Export Plug-In . SVG Version: 6.00 Build 0)  -->
<svg version="1.1" id="Layer_1" xmlns="http://www.w3.org/2000/svg" xmlns:xlink="http://www.w3.org/1999/xlink" x="0px" y="0px"
	 viewBox="0 0 147.4 35.5" style="enable-background:new 0 0 147.4 35.5;" xml:space="preserve">
<style type="text/css">
	.st0{fill:#282828;}
</style>
<path class="st0" d="M82.6,0l4,1.2c-0.7,1.4-1.5,2.8-2.4,4.1c-0.9,1.3-1.9,2.6-3,3.7c-1.1,1.2-2.1,2.2-3.2,3c-0.2-0.3-0.6-0.6-1-0.9
	s-0.8-0.7-1.3-1c-0.4-0.3-0.8-0.6-1.1-0.8c1.6-1.1,3.1-2.5,4.6-4.2C80.6,3.6,81.8,1.8,82.6,0z M16.2,0.2l4,1.1
	c-0.6,2.1-1.3,4.1-2.2,6.1c-0.9,2-1.8,3.9-2.9,5.7c-1.1,1.8-2.2,3.3-3.4,4.7c-0.2-0.3-0.4-0.7-0.7-1.1c-0.3-0.5-0.6-0.9-1-1.4
	c-0.3-0.5-0.6-0.8-0.9-1.1c1.5-1.7,2.9-3.7,4.1-6.2C14.5,5.4,15.5,2.8,16.2,0.2z M25,0.5l4.5,0.9c-0.6,1.4-1.2,2.9-1.8,4.4
	c-0.6,1.5-1.2,2.8-1.8,3.8l-3.4-0.9c0.3-0.8,0.7-1.6,1-2.6c0.3-1,0.6-1.9,0.9-2.9C24.6,2.2,24.9,1.3,25,0.5z M2.3,3.8h8.6v21.6H2.3
	v-3.8h4.9V7.6H2.3V3.8z M0,3.8h3.7v24.7H0V3.8z M82,4.1h26.2v3.6H81L82,4.1z M116.7,5.3h27.5v4.4h-27.5V5.3z M100.8,5.4h3.7v18.5
	h-3.7V5.4z M94,5.4h3.4v18.5H94V5.4z M87.3,5.4h3.4v18.4h-3.4V5.4z M80.6,5.4h3.6v18.5h-3.6V5.4z M17.8,7h15.9v3.6H17.8v24.9h-3.9
	V9.9L16.7,7H17.8z M22.7,9.2h3.8v23h-3.8V9.2z M75.4,13h34.2v3.6H75.4V13z M15.8,14.7h16.9v3.6H15.8V14.7z M37,15.1H72v4.5H37V15.1z
	 M76,22h33.1v3.6H76V22z M15.8,22.2h16.9v3.6H15.8V22.2z M101.4,27.7l3.9-1.2c0.6,0.8,1.2,1.6,1.8,2.5c0.6,0.9,1.2,1.8,1.8,2.7
	c0.6,0.9,1,1.7,1.3,2.4l-4.1,1.4c-0.3-0.7-0.7-1.5-1.2-2.4c-0.5-0.9-1.1-1.8-1.7-2.8C102.6,29.4,102,28.5,101.4,27.7z M79.4,26.6
	l4,0.9c-0.5,1.4-1.1,2.9-1.8,4.3c-0.8,1.4-1.6,2.6-2.6,3.6L75,33.9c0.9-0.8,1.8-1.9,2.6-3.2C78.4,29.4,79,28,79.4,26.6z M93.8,27.9
	l3.8-0.6c0.3,0.7,0.6,1.5,0.9,2.4c0.3,0.9,0.6,1.7,0.8,2.5c0.2,0.8,0.4,1.5,0.5,2.2l-4.1,0.8c-0.2-0.9-0.4-2.1-0.8-3.4
	S94.3,29.1,93.8,27.9z M86.2,27.9l3.8-0.4c0.3,1.1,0.5,2.4,0.6,3.7c0.2,1.3,0.3,2.5,0.3,3.4l-4,0.6c0-0.6,0-1.3-0.1-2.2
	c-0.1-0.8-0.1-1.7-0.2-2.6C86.5,29.5,86.4,28.6,86.2,27.9z M113.5,27.5h33.9v4.7h-33.9V27.5z M15.8,29.9h18.5v3.6H15.8V29.9z"/>
</svg>
