<?xml version="1.0" encoding="utf-8"?>
<!-- Generator: Adobe Illustrator 27.9.1, SVG Export Plug-In . SVG Version: 6.00 Build 0)  -->
<svg version="1.1" id="Layer_1" xmlns="http://www.w3.org/2000/svg" xmlns:xlink="http://www.w3.org/1999/xlink" x="0px" y="0px"
	 viewBox="0 0 149.1 35.8" style="enable-background:new 0 0 149.1 35.8;" xml:space="preserve">
<style type="text/css">
	.st0{fill:#282828;}
</style>
<g>
	<path class="st0" d="M119.1,23h25.5v-3h-25.5V23z M120.1,21h23.5v1h-23.5V21z"/>
	<path class="st0" d="M135.3,18.2h8.7v-2.6h-8.7V18.2z M136.3,16.6h6.7v0.6h-6.7V16.6z"/>
	<path class="st0" d="M148.5,15V6.5h-14.7V4.6h12.2V1.5h-28.2v3.1h12v1.9h-14.4V15h3.6V9.6h10.8v9.3h4V9.6h11V15H148.5z M132.7,8.6
		v9.3h-2V8.6h-12.8V14h-1.6V7.5h14.4V3.6h-12V2.5h26.2v1.1h-12.2v3.9h14.7V14h-1.8V8.6H132.7z"/>
	<path class="st0" d="M119.7,18.2h8.4v-2.6h-8.4V18.2z M120.7,16.6h6.4v0.6h-6.4V16.6z"/>
	<path class="st0" d="M135.3,11.3v2.6h7.7v-2.6H135.3z M142,12.9h-5.7v-0.6h5.7V12.9z"/>
	<path class="st0" d="M128.2,11.3h-7.7v2.6h7.7V11.3z M127.2,12.9h-5.7v-0.6h5.7V12.9z"/>
	<path class="st0" d="M149.1,24.9h-34.4V28h8.8c-0.4,0.8-0.8,1.5-1.3,2.3c-0.2,0.3-0.4,0.6-0.6,0.9c-1.7,0-3.3,0.1-4.7,0.1l0.3,3.5
		c2.2-0.1,4.7-0.1,7.6-0.2c2.9-0.1,5.9-0.2,9-0.3c2.7-0.1,5.5-0.2,8.2-0.3c0.7,0.7,1.3,1.3,1.8,1.8l3.8-1.8
		c-0.6-0.7-1.4-1.4-2.4-2.2c-1-0.8-2-1.6-3-2.4c-0.7-0.5-1.3-0.9-1.9-1.4h8.9V24.9z M148.1,27h-20.2l-0.3,0.4
		c-0.5,0.8-1.1,1.5-1.6,2.1c-0.3,0.4-0.6,0.7-0.8,1l-1.4,1.7l2.2,0c2.4,0,5-0.1,7.7-0.1c1,0,2,0,3.1-0.1l4.4-0.1l-2.2-1.7
		c-0.5-0.4-0.9-0.7-1.4-1l0.4-0.2l-0.3-1.4l2,1.3c0.6,0.4,1.3,0.9,1.9,1.3c1,0.8,2,1.6,3,2.4c0.5,0.4,0.9,0.8,1.3,1.2l-1.9,0.9
		c-0.4-0.4-0.8-0.9-1.3-1.3l-0.3-0.3l-0.4,0c-2.7,0.1-5.4,0.2-8.2,0.3l-9,0.3c-2.5,0.1-4.7,0.1-6.6,0.2l-0.1-1.5
		c1.1,0,4.1-0.1,4.1-0.1l0.3-0.4c0.2-0.3,0.4-0.6,0.6-1c0.5-0.8,0.9-1.5,1.4-2.4l0.8-1.5h-9.5v-1.1h32.4V27z M138.3,30.9
		c-1.5,0-3,0.1-4.6,0.1c-2.7,0.1-5.2,0.1-7.7,0.1c0.3-0.3,0.5-0.7,0.8-1c0.6-0.7,1.1-1.4,1.6-2.1h9l-2,0.9
		C136.4,29.5,137.3,30.2,138.3,30.9z"/>
	<path class="st0" d="M1.6,34.4c0.2,0.4,0.4,0.8,0.5,1.2c2.8-0.5,5.2-1,7.2-1.7c2-0.7,3.6-1.5,4.8-2.4c1.3-0.9,2.2-2,3-3.2
		c0.3-0.5,0.6-1,0.8-1.5c0.7,1.3,1.6,2.5,2.5,3.5c1.4,1.5,3.2,2.7,5.4,3.6c2.2,0.9,4.7,1.5,7.7,1.8c0.2-0.4,0.4-0.8,0.6-1.3
		c0.3-0.5,0.6-0.9,0.9-1.4c0.3-0.4,0.6-0.8,0.9-1.1c-4.1-0.3-7.4-1.1-10-2.3c-1.6-0.8-2.9-1.8-3.9-3.1h13.1v-3.6H19.1
		c0.2-0.9,0.3-1.7,0.4-2.7h15.3v-3.6H19.9v-2.3h11.9v-3.5H19.9V8.6h13.4V5h-7.4c0.3-0.4,0.7-0.8,1.1-1.3c0.6-0.8,1.2-1.6,1.8-2.5
		L24.4,0c-0.2,0.5-0.5,1-0.8,1.5c-0.3,0.6-0.7,1.1-1,1.6c-0.3,0.5-0.7,1-1,1.4L22.8,5H12.6l1-0.5c-0.3-0.7-0.7-1.4-1.2-2.3
		c-0.5-0.8-1.1-1.6-1.8-2.2L7.1,1.5C7.7,2.2,8.3,3,8.8,3.8C9,4.2,9.2,4.6,9.4,5H2.4v3.6h13.3v2.2H4.2v3.5h11.5v2.3H0.9v3.6h14.3
		c-0.1,0.9-0.3,1.8-0.5,2.7H0.6v3.6h12.6c-0.6,0.9-1.4,1.6-2.5,2.3c-1.1,0.7-2.5,1.3-4.3,1.8c-1.7,0.5-3.9,1-6.5,1.3
		c0.3,0.3,0.6,0.7,0.8,1.1C1.1,33.5,1.4,33.9,1.6,34.4z M6.8,31.6c1.8-0.5,3.3-1.2,4.5-1.9c1.2-0.7,2.1-1.6,2.8-2.6l1.1-1.6H1.6
		v-1.6h13.9l0.2-0.8c0.2-0.8,0.4-1.8,0.5-2.8l0.1-1.1H1.9v-1.6h14.8v-4.3H5.2v-1.5h11.5V7.6H3.4V6H11l-0.7-1.4
		c-0.2-0.4-0.4-0.8-0.6-1.2C9.4,2.8,9,2.4,8.7,1.9l1.7-0.7c0.4,0.5,0.8,1,1.2,1.6c0.3,0.4,0.5,0.8,0.7,1.2l-0.1,0.1L12.6,6h10.2
		l0.3-1.8c0.1-0.2,0.2-0.3,0.3-0.5c0.3-0.5,0.7-1.1,1-1.7c0.2-0.3,0.3-0.6,0.5-0.9l2.2,0.6c-0.3,0.5-0.6,0.9-1,1.3
		c-0.4,0.5-0.7,0.9-1,1.3L23.7,6h8.6v1.6H18.9v4.2h11.9v1.5H18.9v4.3h14.9v1.6H18.6l-0.1,0.9c-0.1,0.9-0.2,1.7-0.4,2.6l-0.2,1.2
		h16.4v1.6H20l1.3,1.6c1.1,1.4,2.5,2.5,4.2,3.4c2.2,1.1,5.1,1.9,8.5,2.2c-0.3,0.4-0.5,0.8-0.7,1.2c-0.1,0.2-0.3,0.5-0.4,0.7
		c-2.6-0.4-4.9-0.9-6.7-1.7c-2-0.8-3.7-1.9-5.1-3.3c-0.9-0.9-1.7-2-2.4-3.2l-1-1.7L17,26.4c-0.2,0.5-0.5,1-0.7,1.4
		c-0.7,1.1-1.6,2-2.7,2.9c-1.2,0.9-2.7,1.6-4.6,2.3c-1.7,0.6-3.8,1.1-6.2,1.5c-0.1-0.2-0.2-0.3-0.2-0.5c-0.2-0.4-0.4-0.8-0.7-1.2
		C3.7,32.4,5.4,32,6.8,31.6z"/>
	<path class="st0" d="M103.9,16.9c0.6,1.8,1,3.6,1.3,5.4c0.3,1.8,0.6,3.5,0.7,5.1l4.4-1.7c-0.1-1.2-0.3-2.5-0.6-3.9
		c-0.3-1.4-0.6-2.8-1-4.3c-0.4-1.5-0.9-2.9-1.4-4.3c-0.5-1.4-1.1-2.7-1.8-3.9c-0.7-1.2-1.3-2.3-2.1-3.1l-4.3,1.4
		c1,1.2,1.9,2.6,2.7,4.2C102.7,13.4,103.3,15.1,103.9,16.9z M103.2,7.4c0.5,0.7,1,1.5,1.5,2.4c0.6,1.2,1.2,2.5,1.8,3.8
		c0.5,1.4,1,2.8,1.4,4.2c0.4,1.4,0.7,2.8,1,4.2c0.2,1.1,0.4,2.1,0.5,3l-2.5,1c-0.2-1.2-0.4-2.5-0.6-3.9c-0.3-1.8-0.8-3.7-1.4-5.5
		c-0.6-1.8-1.3-3.6-2-5.2c-0.6-1.2-1.2-2.3-1.9-3.2L103.2,7.4z"/>
	<path class="st0" d="M45.5,13.6c0,1.4-0.1,2.8-0.1,4.3c0,1.4-0.1,2.8-0.1,4.2c0,1.4,0,2.6,0,3.6c0,2.1,0.4,3.9,1.2,5.2
		s2,2.3,3.5,2.9c1.5,0.6,3.2,0.9,5.2,0.9c2.1,0,4.1-0.3,5.8-0.8c1.7-0.5,3.3-1.3,4.6-2.1c1.3-0.9,2.5-1.8,3.5-2.8
		c1-1,1.8-1.9,2.4-2.8l-3.1-3.8c-0.7,1-1.5,2-2.3,2.9c-0.9,0.9-1.8,1.8-2.9,2.5c-1.1,0.7-2.3,1.3-3.6,1.7c-1.3,0.4-2.8,0.6-4.4,0.6
		c-1.1,0-2-0.2-2.8-0.5c-0.8-0.3-1.5-0.9-2-1.7c-0.5-0.8-0.7-1.8-0.7-3.1c0-1.2,0-2.7,0-4.3c0-1.6,0.1-3.2,0.1-4.9s0.1-3.3,0.2-4.8
		c0.1-1.5,0.1-2.8,0.2-3.8c0-0.7,0.1-1.5,0.2-2.4c0.1-0.8,0.2-1.6,0.3-2.4l-5.5,0c0.2,0.7,0.3,1.4,0.3,2.2c0.1,0.8,0.1,1.6,0.1,2.5
		c0,0.7,0,1.6,0,2.7C45.5,10.9,45.5,12.2,45.5,13.6z M46.3,22c0-1.4,0.1-2.8,0.1-4.2l0.1-4.3c0-1.4,0.1-2.7,0.1-3.8
		c0-1.2,0-2.1,0-2.8c0-0.9,0-1.8-0.1-2.6c0-0.4-0.1-0.8-0.1-1.1l3.1,0c-0.1,0.4-0.1,0.8-0.1,1.3c-0.1,0.9-0.1,1.7-0.2,2.4
		c-0.1,1-0.1,2.3-0.2,3.8c-0.1,1.5-0.1,3.1-0.2,4.8c-0.1,1.7-0.1,3.3-0.1,4.9c0,1.6,0,3,0,4.3c0,1.5,0.3,2.7,0.9,3.6
		c0.6,1,1.4,1.6,2.4,2.1c0.9,0.4,2,0.6,3.2,0.6c1.7,0,3.3-0.2,4.7-0.7c1.4-0.5,2.7-1.1,3.8-1.9c1.1-0.8,2.2-1.6,3.1-2.6
		c0.6-0.6,1.1-1.3,1.6-2l1.8,2.1c-0.5,0.7-1.1,1.4-1.9,2.1c-0.9,0.9-2,1.8-3.3,2.7c-1.3,0.8-2.7,1.5-4.4,2c-1.6,0.5-3.5,0.8-5.5,0.8
		c-1.9,0-3.5-0.3-4.9-0.8c-1.3-0.5-2.3-1.4-3-2.5c-0.7-1.2-1.1-2.7-1.1-4.7C46.2,24.6,46.2,23.4,46.3,22z"/>
	<path class="st0" d="M79.4,9c0,0.8,0,1.7,0,2.9c0,1.2,0.1,2.4,0.1,3.7c0.1,1.3,0.2,2.5,0.3,3.6c0.4,3.4,1,6.1,1.8,8.1
		c0.9,2,1.9,3.5,3.1,4.4c1.2,0.9,2.4,1.3,3.8,1.3c1,0,1.9-0.3,2.7-0.9c0.9-0.6,1.7-1.5,2.5-2.8s1.6-3,2.5-5.2l-3.4-4.1
		c-0.2,0.8-0.5,1.7-0.7,2.5c-0.3,0.9-0.6,1.7-1,2.5c-0.4,0.8-0.8,1.4-1.2,1.9c-0.4,0.5-0.9,0.7-1.3,0.7c-0.8,0-1.5-0.4-2.1-1.2
		c-0.6-0.8-1-1.9-1.4-3.4c-0.4-1.4-0.7-3.1-0.8-5c-0.1-1-0.1-1.9-0.2-2.9c0-1-0.1-1.9-0.1-2.8c0-0.9,0-1.8,0-2.6
		c0-0.4,0.1-0.8,0.1-1.3c0-0.5,0.1-1.1,0.1-1.6c0.1-0.5,0.1-1,0.2-1.4l-5.2-0.1c0.1,0.6,0.2,1.2,0.2,1.9C79.4,7.9,79.4,8.5,79.4,9z
		 M83.2,6.3c0,0.1,0,0.2,0,0.3C83.1,7.2,83,7.7,83,8.3l-0.1,1.3c0,0.9,0,1.8,0,2.7c0,0.9,0,1.9,0.1,2.9c0,1,0.1,2,0.2,2.9
		c0.2,2,0.5,3.7,0.9,5.2c0.4,1.6,0.9,2.8,1.6,3.7c1,1.4,2.1,1.6,2.9,1.6c0.8,0,1.4-0.3,2.1-1c0.5-0.5,0.9-1.2,1.3-2.1
		c0.4-0.8,0.7-1.7,1-2.6c0.1-0.3,0.2-0.5,0.2-0.8l1.8,2.2c-0.7,1.9-1.4,3.4-2.2,4.5c-0.7,1.2-1.5,2-2.2,2.5
		c-0.7,0.5-1.4,0.7-2.2,0.7c-1.1,0-2.2-0.4-3.2-1.1c-1-0.8-2-2.1-2.7-4c-0.8-1.9-1.4-4.5-1.7-7.8c-0.1-1.1-0.2-2.3-0.3-3.6
		c-0.1-1.3-0.1-2.5-0.1-3.6c0-1.2,0-2.1,0-2.9c0-0.5,0-1.1-0.1-1.9c0-0.3,0-0.6-0.1-0.8L83.2,6.3z"/>
</g>
</svg>
