<?xml version="1.0" encoding="utf-8"?>
<!-- Generator: Adobe Illustrator 27.9.1, SVG Export Plug-In . SVG Version: 6.00 Build 0)  -->
<svg version="1.1" id="Layer_1" xmlns:inkscape="http://www.inkscape.org/namespaces/inkscape"
	 xmlns="http://www.w3.org/2000/svg" xmlns:xlink="http://www.w3.org/1999/xlink" x="0px" y="0px" viewBox="0 0 180.1 31.7"
	 style="enable-background:new 0 0 180.1 31.7;" xml:space="preserve">
<style type="text/css">
	.st0{fill:#070707;}
</style>
<g>
	<path class="st0" d="M20.5,27.6V26c5.6,0,9-0.1,10.2-0.1l-0.5-3.9c-2.5,0-5.8,0.1-9.7,0.2l0-1.6c6.9-0.1,10.9-0.1,11.9-0.1
		l-0.5-3.8l-11.6,0.1c0-0.3,0-0.9,0-1.6c3.5,0,6.8-0.1,9.8-0.2c0.4-3.7,0.6-6.7,0.6-8.8c0-3.3-1.3-5.1-4-5.2
		C22,0.8,18.4,0.7,15.9,0.7c-2.5,0-4.8,0.1-6.9,0.2L8.8,0.1L3.6,1c0.3,3.6,0.5,7.2,0.5,10.9l0,3.4h0.2c-0.4,1.9-1.8,4-4.3,6.2
		l4.5,1.4l0.1,3.3l10-0.2c0,0.5,0,1-0.1,1.6c-5.7,0.1-10.3,0.2-13.9,0.3l0.3,3.8c20.3-0.4,31.1-0.6,32.4-0.7L33,27.3
		C31.3,27.3,27.2,27.4,20.5,27.6z M25,11.2c-8.1,0.1-13.4,0.1-15.9,0.1l0-1.8l16.1-0.1L25,11.2z M16.9,4.5c2.7,0,4.7,0.1,6.1,0.2
		s2.1,0.6,2.2,1.2L9.1,6.1l0-1.4C12.2,4.6,14.8,4.5,16.9,4.5z M14.6,15.2c0,0.7,0,1.2,0.1,1.6l-5.6,0.1c0.1-0.1,0.3-0.5,0.4-1
		l-4.7-0.7C7.5,15.3,10.8,15.2,14.6,15.2z M14.7,22.2c-2.9,0.1-5.5,0.1-8,0.1c0.2-0.4,0.5-0.9,0.8-1.6c1.9,0,4.3-0.1,7.2-0.2
		L14.7,22.2z"/>
	<path class="st0" d="M65.5,8.9c-5.3,1.3-9.7,3-13.3,5c-0.4-0.1-0.8-0.3-0.9-0.4S51,13.1,51,13c0-0.5,0.4-1.9,1.1-4.2
		c3.2-0.4,6.3-0.6,9.3-0.6c0.3,0,0.7,0,1.1,0l0.3-5.3c-0.8,0-1.7-0.1-2.6-0.1c-2,0-4.1,0.1-6.2,0.3c0.3-0.8,0.6-1.5,0.9-2L49,0
		c-0.5,1.2-0.9,2.5-1.3,3.7c-2.6,0.4-5.1,0.9-7.5,1.4l0.9,5.5c1.6-0.4,3.2-0.7,4.8-1c-0.6,2.5-1,4.2-1,5.2c0,0.6,0.2,1.2,0.5,1.6
		c0.3,0.4,0.9,0.8,1.8,1.3c-1.8,2-2.7,4-2.7,6.1c0,4.5,4.2,6.8,12.5,6.8c2.9,0,6-0.3,9.3-0.8L65.8,24c-3.3,0.7-6.6,1.1-9.9,1.1
		c-3.6,0-5.4-0.6-5.4-1.8c0-0.9,0.9-2,2.8-3.3c2.4,0.8,4.8,2,7.3,3.5l2.7-4.8c-1.2-0.8-2.4-1.5-3.7-2c2.5-1,5-1.8,7.5-2.4L65.5,8.9z
		"/>
	<path class="st0" d="M99.4,0.8c-5.2,0-10.9,0.2-17.2,0.7L82,0l-5.6,0.9c0.3,3.9,0.5,12.9,0.5,27.1l0,3.8c8.5-0.2,17.4-0.3,26.8-0.3
		c0.2-5.9,0.3-14.3,0.3-25.2C104,2.8,102.4,1,99.4,0.8z M97.7,26.1c-5.1,0.1-10.3,0.1-15.4,0.1v-3.5c1.6-0.1,6.8-0.2,15.4-0.4
		L97.7,26.1z M97.9,17.5c-8.4,0.2-13.6,0.4-15.5,0.5v-3.6c6.3-0.2,11.5-0.4,15.6-0.4L97.9,17.5z M98.2,9.2c-5.1,0-10.4,0.2-15.9,0.5
		c0-1.3,0-2.4,0-3.1c6.2-0.5,10.6-0.7,13.3-0.7c0.9,0,1.5,0,1.8,0.1c0.6,0.2,0.9,0.7,0.9,1.6C98.2,8.4,98.2,8.9,98.2,9.2z"/>
	<path class="st0" d="M118.9,15l-0.1-4.8l3.1-0.1l-0.1-5.3l-3.1,0.1l-0.2-4.6l-5,0.3l0.1,4.5h-3.1l0.1,5.3l3.2-0.1
		c0,2.4,0.1,4.4,0.1,6.1c-1.2,0.2-2.3,0.4-3.5,0.6l0.5,4.9c1.2-0.1,2.2-0.3,3-0.5c0,2.7-0.1,4.1-0.3,4.3c-0.1,0.2-0.4,0.3-0.9,0.3
		c-0.8,0-1.5-0.1-2-0.4l0.5,5.7c0.3,0.2,1.4,0.4,3.2,0.4c1.4,0,2.5-0.4,3.3-1.2c0.5-0.5,0.9-1.3,1-2.3c0.3-2.2,0.4-4.9,0.4-8.1
		c1.6-0.2,2.6-0.5,3.1-0.8l-0.1-5.1C120.8,14.4,119.8,14.7,118.9,15z"/>
	<path class="st0" d="M129,9.5h-0.5c-0.3,0-0.5-0.3-0.5-1V7.4c6.2-0.2,11.3-1.4,15.2-3.5L141.1,0c-4.2,1.8-8.6,2.7-13.1,2.6
		l-0.1-2.5l-5,0.3c0,6,0.1,9.3,0.3,9.9c0.2,2.4,1.6,3.6,4,3.7c8.7,0.1,14.2-0.3,16.5-1.4l0-4.6C140.3,8.9,135.4,9.4,129,9.5z"/>
	<path class="st0" d="M139.5,15.5c-3.4-0.2-7.2-0.1-11.5,0.3l-0.1-1l-4.8,1.2c0.2,4.2,0.3,8.2,0.3,11.9v3.5c7.5,0,13.8-0.1,19-0.3
		c0.3-3.9,0.4-7.5,0.4-10.8C142.8,17.3,141.7,15.7,139.5,15.5z M137.8,26.9c-3.1,0.1-6.3,0.1-9.6,0.1v-1.7l9.7-0.1L137.8,26.9z
		 M129,21.9h-0.9v-1.7c2.9-0.2,5.1-0.4,6.8-0.4c1,0,1.6,0,1.9,0.1c0.7,0.1,1.1,0.7,1.2,1.8C134.2,21.8,131.3,21.9,129,21.9z"/>
	<path class="st0" d="M173.6,6.8c0-2.1-0.1-4-0.3-5.6l-5.9,0.3c0.2,1.6,0.3,3.5,0.3,5.6c-2.4,0.2-4.8,0.5-7.2,0.9
		c0.2-1.6,0.4-3.1,0.6-4.5l-6-0.6c-0.3,2.1-0.6,4.1-0.7,6.2c-2.1,0.4-4.1,0.9-5.9,1.5l1,6c1.5-0.4,3-0.8,4.6-1.2
		c0.1,5.4,1.1,9.3,3,11.5c1.9,2.3,5.1,3.4,9.5,3.4c3,0,6.3-0.5,9.9-1.5l-0.9-6.2c-2.4,0.7-4.3,1.1-5.7,1.4c-1.3,0.2-2.6,0.4-3.8,0.4
		s-2.2-0.1-3-0.4c-0.8-0.2-1.4-0.7-1.9-1.4s-0.8-1.6-1-2.7s-0.3-2.2-0.3-3.3s0-1.9,0-2.3c2.4-0.4,4.9-0.8,7.3-1
		c-0.2,2.2-0.5,4.2-0.9,6.1l5.9,0.9c0.4-2.3,0.7-4.8,1-7.4c2.3-0.1,4.4-0.1,6.4,0l0.3-5.8C178.1,6.8,175.9,6.8,173.6,6.8z"/>
</g>
</svg>
