<?xml version="1.0" encoding="utf-8"?>
<!-- Generator: Adobe Illustrator 27.9.1, SVG Export Plug-In . SVG Version: 6.00 Build 0)  -->
<svg version="1.1" id="Layer_1" xmlns="http://www.w3.org/2000/svg" xmlns:xlink="http://www.w3.org/1999/xlink" x="0px" y="0px"
	 viewBox="0 0 184.1 35.7" style="enable-background:new 0 0 184.1 35.7;" xml:space="preserve">
<style type="text/css">
	.st0{fill:#282828;}
</style>
<g>
	<path class="st0" d="M174.9,10.6c1.5,0,2.9,0,4.3-0.1c1.4-0.1,2.6-0.1,3.8-0.2V5.9c-1,0.1-2.2,0.2-3.6,0.3
		c-1.4,0.1-2.8,0.1-4.3,0.2c-1.5,0-3,0-4.4-0.1c-1.4-0.1-2.7-0.2-3.9-0.4l0,4.4c1.1,0.1,2.4,0.2,3.8,0.2
		C172,10.5,173.4,10.6,174.9,10.6z M167.8,7c0.9,0.1,1.8,0.2,2.8,0.2c1.2,0.1,2.4,0.1,3.7,0.1l0.8,0c1.5,0,3-0.1,4.4-0.2
		c0.9-0.1,1.8-0.1,2.5-0.2v2.4c-0.9,0.1-1.8,0.1-2.8,0.2c-1.4,0.1-2.8,0.1-4.2,0.1s-2.9,0-4.2-0.1c-1,0-2-0.1-2.9-0.2L167.8,7z"/>
	<path class="st0" d="M21.2,14.4h6.6V9.5h-6.6V14.4z M22.2,10.5h4.6v2.9h-4.6V10.5z"/>
	<path class="st0" d="M2.9,16.1h27.7V7.8H2.9V16.1z M3.9,8.8h25.7v6.3H3.9V8.8z"/>
	<path class="st0" d="M5.5,14.4h6.4V9.5H5.5V14.4z M6.5,10.5h4.4v2.9H6.5V10.5z"/>
	<path class="st0" d="M13.3,14.4h6.5V9.5h-6.5V14.4z M14.3,10.5h4.5v2.9h-4.5V10.5z"/>
	<path class="st0" d="M3.8,20.8h7.7c-0.8,0.8-1.9,1.6-3.1,2.4c-1.8,1.2-4.1,2.1-6.8,2.9c0.3,0.2,0.6,0.5,0.9,0.8
		c0.3,0.3,0.6,0.7,0.9,1c0.3,0.4,0.5,0.7,0.6,1c1.4-0.5,2.7-1.1,3.9-1.7c0.7,0.3,1.4,0.6,2,1c0.9,0.5,1.7,1,2.5,1.5
		c0.1,0.1,0.3,0.2,0.4,0.3c-1.2,0.4-2.4,0.8-3.7,1.1C7.1,31.6,5,32,2.8,32.2c0.3,0.4,0.7,1,1,1.6c0.4,0.7,0.6,1.3,0.8,1.7
		c2.4-0.4,4.7-0.8,6.9-1.4c2.3-0.6,4.4-1.4,6.4-2.3c2-0.9,3.8-2.1,5.4-3.4c1.6-1.3,2.9-2.9,3.9-4.7l-2.6-1.4l-0.7,0.2h-0.8h-8.3
		c0.6-0.5,1.1-1.1,1.6-1.7h13.1v3.5h4v-6.7H0v6.7h3.8V20.8z M2.8,23.4H1v-4.7h31.4v4.7h-2v-3.5H15.9l-0.3,0.4
		c-0.5,0.5-1,1.1-1.5,1.6l-1.8,1.7H24l0.5-0.1l1.3,0.7c-0.9,1.3-1.9,2.5-3.1,3.5c-1.5,1.3-3.2,2.4-5.2,3.3c-1.9,0.9-4,1.7-6.2,2.2
		c-2,0.5-4,0.9-6,1.3c-0.1-0.3-0.3-0.7-0.5-1.1c-0.1-0.1-0.1-0.3-0.2-0.4c1.6-0.2,3.3-0.5,4.9-0.9c1.2-0.3,2.4-0.6,3.8-1.1l1.9-0.6
		l-1.6-1.1c-0.2-0.1-0.3-0.2-0.4-0.3c-0.8-0.5-1.7-1.1-2.6-1.5c-0.7-0.4-1.4-0.7-2.1-1l-0.4-0.2l-0.4,0.2c-1,0.5-2,0.9-3.1,1.3
		c-0.1-0.1-0.2-0.2-0.3-0.4c-0.2-0.3-0.4-0.5-0.6-0.8C5.6,25.9,7.4,25,8.9,24c1.3-0.8,2.4-1.6,3.3-2.5l1.8-1.7H2.8V23.4z"/>
	<path class="st0" d="M9,25.6l1.7,0.7c0.4,0.2,0.8,0.4,1.3,0.6c0.9,0.4,1.7,0.9,2.5,1.4c0.5,0.3,1,0.7,1.5,1l0.5,0.4l0.6-0.3
		c1.3-0.6,2.4-1.3,3.4-2.1c0.5-0.4,1-0.8,1.6-1.4l1.7-1.7H11L9,25.6z M11.3,25.3h10c-0.4,0.4-0.9,0.9-1.5,1.3c-1,0.7-2.1,1.4-3.3,2
		c-0.5-0.4-1-0.7-1.6-1.1c-0.8-0.5-1.6-1-2.5-1.4c-0.4-0.2-0.9-0.4-1.3-0.6C11.2,25.4,11.3,25.4,11.3,25.3z"/>
	<path class="st0" d="M159.3,30.2c0.2-0.6,0.4-1.5,0.7-2.5c0.3-1,0.6-2.1,1-3.3c0.4-1.2,0.7-2.3,1.1-3.3l-2.2-1.7
		c-0.2,0.4-0.4,0.9-0.6,1.4c-0.2,0.5-0.4,1-0.6,1.5c-0.2,0.5-0.4,1-0.6,1.4c-0.1-0.5-0.1-1.1-0.1-1.6c0-0.6-0.1-1.1-0.1-1.6
		c0-0.8,0.1-1.7,0.2-2.7c0.1-1,0.2-2.1,0.4-3.2c0.1-1.1,0.3-2.2,0.5-3.2c0.2-1.1,0.3-2,0.5-2.9c0.2-0.9,0.3-1.6,0.4-2.1
		c0.1-0.2,0.1-0.5,0.2-1c0.1-0.4,0.2-0.8,0.3-1.2c0.1-0.4,0.2-0.7,0.3-1l-4.8-0.4c0,0.6-0.1,1.1-0.2,1.7c-0.1,0.6-0.1,1.2-0.2,1.7
		c-0.1,0.8-0.3,1.7-0.5,2.8c-0.2,1.1-0.4,2.4-0.5,3.7c-0.2,1.4-0.3,2.8-0.5,4.2c-0.1,1.5-0.2,2.9-0.2,4.3c0,2.6,0.2,5,0.5,7.1
		c0.3,2.2,0.6,3.9,1,5.2l3.9-0.3c0-0.3,0-0.5-0.1-0.8c0-0.3,0-0.5,0-0.7c0-0.2,0-0.5,0.1-0.8C159.2,30.8,159.2,30.5,159.3,30.2z
		 M159,27.4c-0.3,1.1-0.5,1.9-0.7,2.5c-0.1,0.4-0.1,0.7-0.2,1.1c0,0.4-0.1,0.7-0.1,0.9c0,0.1,0,0.3,0,0.6l-2.1,0.1
		c-0.3-1.2-0.5-2.6-0.8-4.3c-0.3-2.1-0.4-4.5-0.4-7c0-1.4,0.1-2.8,0.2-4.2c0.1-1.5,0.3-2.9,0.5-4.2c0.2-1.4,0.4-2.6,0.5-3.7
		c0.2-1.1,0.3-2.1,0.5-2.8c0.1-0.6,0.1-1.1,0.2-1.7c0-0.3,0.1-0.5,0.1-0.8l2.5,0.2c-0.1,0.4-0.2,0.7-0.3,1.1c-0.1,0.4-0.2,0.7-0.2,1
		c-0.1,0.6-0.2,1.3-0.4,2.2c-0.2,0.9-0.3,1.9-0.5,2.9c-0.2,1.1-0.3,2.1-0.5,3.2c-0.1,1.1-0.3,2.2-0.4,3.2c-0.1,1-0.2,2-0.2,2.8
		c0,0.6,0,1.1,0.1,1.7c0,0.6,0.1,1.1,0.1,1.7l0.4,3.8l1.5-3.5c0.2-0.5,0.4-0.9,0.6-1.5c0.2-0.5,0.7-1.6,0.7-1.7l0.6,0.4
		c-0.3,0.8-0.6,1.7-0.9,2.6C159.6,25.2,159.3,26.3,159,27.4z"/>
	<path class="st0" d="M91.3,28.5c-0.6,0.8-1.5,1.6-2.6,2.2c-1.1,0.7-2.6,1.2-4.3,1.7c0.3,0.3,0.6,0.6,0.9,1c0.3,0.4,0.6,0.8,0.8,1.2
		c0.3,0.4,0.4,0.8,0.6,1.1c2.1-0.6,3.7-1.3,5.1-2.2c1.3-0.9,2.3-1.9,3.1-3c0.7-1.1,1.3-2.4,1.7-3.8c0.3-1.2,0.5-2.5,0.7-3.9h2.8v7.8
		c0,1.2,0.1,2.1,0.3,2.8c0.2,0.7,0.6,1.2,1.2,1.5c0.6,0.3,1.4,0.4,2.5,0.4c0.2,0,0.4,0,0.6,0c0.3,0,0.6,0,0.9,0s0.6,0,0.9,0
		c0.3,0,0.5,0,0.7,0c0.9,0,1.6-0.2,2.1-0.6c0.5-0.4,0.9-1,1.2-2c0.3-0.9,0.5-2.2,0.6-3.9c-0.4-0.1-0.7-0.2-1.2-0.4
		c-0.4-0.2-0.8-0.3-1.3-0.5c-0.4-0.2-0.7-0.4-1-0.6c0,1.3-0.1,2.2-0.1,2.9c-0.1,0.6-0.2,1.1-0.3,1.3c-0.1,0.2-0.3,0.3-0.5,0.3
		c-0.1,0-0.3,0-0.6,0c-0.3,0-0.6,0-0.8,0s-0.5,0-0.6,0c-0.4,0-0.6-0.1-0.7-0.2c-0.1-0.1-0.2-0.5-0.2-1v-7.8h4.9V1.5H90.2v21.3h3
		c-0.1,1-0.3,2-0.5,2.8C92.4,26.7,91.9,27.6,91.3,28.5z M91.2,21.8V2.5h16.5v19.3h-4.9v8.8c0,0.8,0.1,1.3,0.3,1.6
		c0.3,0.4,0.8,0.6,1.5,0.6h2c0.6,0,1.1-0.3,1.4-0.8c0.2-0.4,0.4-0.9,0.4-1.7c0-0.3,0.1-0.8,0.1-1.3c0.3,0.1,0.7,0.3,1,0.4
		c0.2,0.1,0.3,0.1,0.4,0.2c-0.1,1.2-0.3,2.2-0.5,2.9c-0.2,0.7-0.5,1.2-0.8,1.4c-0.4,0.2-0.9,0.4-1.6,0.4h-3.1
		c-1.2,0-1.8-0.2-2.1-0.3c-0.2-0.1-0.5-0.3-0.7-0.9c-0.2-0.6-0.3-1.4-0.3-2.5v-8.8h-4.7l-0.1,0.9c-0.2,1.5-0.4,2.7-0.7,3.8
		c-0.3,1.3-0.8,2.4-1.5,3.5c-0.7,1-1.6,1.9-2.8,2.7c-1.1,0.7-2.4,1.3-4,1.8c-0.1-0.1-0.2-0.3-0.2-0.4c-0.2-0.4-0.5-0.8-0.8-1.2
		c1.2-0.4,2.2-0.8,3.1-1.3c1.2-0.7,2.2-1.6,2.9-2.5c0.7-0.9,1.2-2,1.5-3.2c0.2-0.9,0.4-1.8,0.5-3l0.1-1.1H91.2z"/>
	<path class="st0" d="M105.6,15.6H93v4.8h12.7V15.6z M104.6,19.4H94v-2.8h10.7V19.4z"/>
	<path class="st0" d="M105.6,9.8H93v4.8h12.7V9.8z M104.6,13.5H94v-2.8h10.7V13.5z"/>
	<path class="st0" d="M105.6,3.9H93v4.7h12.7V3.9z M104.6,7.6H94V4.9h10.7V7.6z"/>
	<path class="st0" d="M115.3,34.4c0.3,0.4,0.5,0.8,0.6,1.1c2.8-0.8,5.2-1.7,7.1-2.7c2-1,3.5-2.1,4.8-3.2c1.1-1,2-2.1,2.6-3.2
		c0.7,1.1,1.5,2.2,2.3,3.1c1.5,1.6,3.2,2.8,5.3,3.8c2.1,1,4.6,1.7,7.4,2.1c0.3-0.5,0.6-1.2,1.1-1.9c0.5-0.7,0.9-1.3,1.3-1.7
		c-3.9-0.4-7.1-1.4-9.7-2.8c-1.5-0.9-2.8-1.9-3.8-3.2h12.9v-3.5h-15.4c0-0.1,0-0.1,0.1-0.2c0.2-0.8,0.3-1.7,0.3-2.5h10.7v-3.3h-10.6
		v-2.6h11.3v-2.4h3V3.5h-14.2V0h-4.2v3.4h-14.1v7.9h3.3v2.4h10.6v2.6h-10v3.3h10c0,0.6-0.1,1.1-0.2,1.7c-0.1,0.4-0.2,0.7-0.3,1.1
		h-13.8V26H126c-0.4,0.5-0.9,0.9-1.4,1.4c-1.1,0.9-2.5,1.8-4.4,2.6c-1.8,0.8-4.1,1.5-6.7,2.2c0.3,0.3,0.6,0.6,0.9,1
		C114.7,33.6,115,34,115.3,34.4z M117.5,6v4.4h-2V4.5h14.1V1h2.2v3.4h14.2v5.9h-2.2V6H117.5z M118.5,7h24.2v3.4h-10.1V8h-4.1v2.4
		h-10V7z M120.6,30.9c1.9-0.8,3.4-1.8,4.6-2.8c0.6-0.5,1.1-1,1.5-1.5l1.4-1.6h-13.1v-1.5h13.5l0.2-0.7c0.1-0.4,0.2-0.8,0.3-1.2
		c0.1-0.6,0.2-1.1,0.2-1.8l0.1-1.1h-10.1v-1.3h10v-4.6h-10.6v-1.3h10.6V9h2.1v2.4h11.3v1.3h-11.3v4.6h10.6v1.3h-10.6l-0.1,0.9
		c-0.1,0.9-0.2,1.7-0.3,2.4l0,0.2l-0.3,1.2h15.6V25h-14l1.3,1.6c1.1,1.4,2.5,2.5,4.1,3.4c2.2,1.3,5,2.2,8.2,2.7
		c-0.1,0.1-0.2,0.3-0.3,0.4c-0.3,0.5-0.6,0.9-0.8,1.3c-2.4-0.4-4.6-1.1-6.4-1.9c-2-0.9-3.7-2.1-5-3.6c-0.8-0.8-1.5-1.8-2.2-3
		l-0.9-1.4l-0.9,1.4c-0.6,1-1.4,2-2.4,2.9c-1.2,1.1-2.7,2.1-4.6,3c-1.7,0.9-3.8,1.7-6.2,2.4c-0.1-0.1-0.2-0.3-0.3-0.5
		c-0.3-0.4-0.5-0.8-0.8-1.1C117.3,32.2,119.1,31.6,120.6,30.9z"/>
	<path class="st0" d="M165,24.1c-0.1,0.8-0.2,1.5-0.2,2.2c0,1.9,0.8,3.4,2.3,4.5c1.6,1.1,4,1.6,7.2,1.6c2.1,0,3.9-0.1,5.5-0.2
		c1.6-0.1,3-0.3,4.2-0.6l-0.1-4.6c-1.6,0.4-3.2,0.6-4.7,0.8c-1.5,0.2-3.1,0.2-4.8,0.2c-1.1,0-2-0.1-2.7-0.2
		c-0.7-0.1-1.3-0.3-1.7-0.6c-0.4-0.3-0.8-0.6-1-0.9c-0.2-0.4-0.3-0.8-0.3-1.2c0-0.5,0-1,0.1-1.5c0.1-0.5,0.2-1.1,0.3-1.7l-3.9-0.3
		C165.3,22.5,165.1,23.3,165,24.1z M166,24.3c0.1-0.5,0.2-1.1,0.3-1.6l1.9,0.2c0,0.2-0.1,0.5-0.1,0.7c-0.1,0.5-0.1,1.1-0.1,1.7
		c0,0.6,0.1,1.1,0.4,1.7c0.3,0.5,0.7,1,1.3,1.3c0.5,0.3,1.2,0.5,2,0.7c0.8,0.2,1.7,0.2,2.9,0.2c1.7,0,3.4-0.1,4.9-0.3
		c1.2-0.1,2.4-0.3,3.6-0.6l0,2.6c-1,0.2-2.1,0.3-3.3,0.4c-1.6,0.1-3.4,0.2-5.4,0.2c-3,0-5.3-0.5-6.6-1.4c-1.3-0.9-1.9-2.1-1.9-3.6
		C165.8,25.7,165.9,25,166,24.3z"/>
	<path class="st0" d="M8.2,7.1h4.1V5.7h8.6v1.5H25V5.7h8.4V2.2H25V0h-4.1v2.2h-8.6V0H8.2v2.2H0v3.5h8.2V7.1z M1,4.7V3.2h8.2V1h2.1
		v2.2h10.6V1H24v2.2h8.4v1.5H24v1.5h-2.1V4.7H11.3v1.5H9.2V4.7H1z"/>
	<path class="st0" d="M43,16c-1.2,1.4-2.7,3-4.3,4.6l3.6,2.7c0.7-0.8,1.3-1.6,1.8-2.3c0.6-0.7,1.1-1.3,1.7-1.9
		c0.8-0.7,1.7-1.4,2.8-1.9c1.1-0.5,2.2-0.8,3.3-0.8c0.8,0,1.6,0.2,2.2,0.7c0.3,0.2,0.5,0.5,0.7,0.9c-0.9,0.5-1.7,0.9-2.6,1.5
		c-1.2,0.7-2.2,1.5-3.2,2.3c-1,0.8-1.7,1.8-2.3,2.8c-0.6,1-0.9,2.2-0.9,3.4c0,1.6,0.4,2.8,1.3,3.7c0.9,0.9,2.1,1.5,3.7,1.9
		c1.5,0.4,3.3,0.6,5.2,0.6c1.2,0,2.4,0,3.7-0.1c1.3-0.1,2.6-0.1,3.8-0.2c1.2-0.1,2.3-0.2,3.1-0.3l0.2-4.4c-1.7,0.3-3.5,0.6-5.4,0.7
		c-1.9,0.2-3.7,0.3-5.3,0.3c-0.9,0-1.8,0-2.5-0.1c-0.7-0.1-1.4-0.2-1.9-0.4c-0.5-0.2-0.9-0.5-1.1-0.9c-0.3-0.4-0.4-0.9-0.4-1.4
		c0-0.8,0.2-1.5,0.7-2.1c0.4-0.6,1.1-1.3,1.9-1.9c0.6-0.5,1.4-0.9,2.2-1.4c0,0.5,0,0.9,0,1.4c0,0.7,0,1.4-0.1,2
		c0,0.6-0.1,1.2-0.1,1.6H59c0-0.6,0-1.3,0-2.1c0-0.8,0-1.6-0.1-2.4c0-0.8,0-1.6,0-2.3c0,0,0-0.1,0-0.1c0.7-0.3,1.5-0.7,2.2-1
		c1.7-0.7,3.2-1.3,4.4-1.8c0.4-0.2,0.9-0.3,1.4-0.5c0.5-0.2,1-0.4,1.5-0.6c0.5-0.2,0.9-0.3,1.3-0.4l-1.7-4c-0.6,0.3-1.3,0.6-1.9,0.9
		c-0.6,0.3-1.3,0.6-2,0.9c-0.8,0.4-1.6,0.7-2.5,1.1c-0.8,0.4-1.8,0.8-2.8,1.2c-0.1,0.1-0.2,0.1-0.4,0.2c-0.3-0.7-0.7-1.3-1.2-1.7
		c-1-0.9-2.3-1.3-3.9-1.3c-0.5,0-1,0-1.5,0.1c-0.6,0.1-1.1,0.2-1.7,0.3c-0.5,0.1-1,0.3-1.4,0.5c0.6-0.8,1.2-1.8,1.8-2.8
		c0.3-0.5,0.6-1.1,0.8-1.6c1.1,0,2.2-0.1,3.4-0.2c1.6-0.1,3.1-0.2,4.7-0.3c1.5-0.1,3-0.3,4.3-0.5v-4C62,5,60.1,5.2,58.1,5.4
		c-1.7,0.2-3.5,0.3-5.2,0.4c0.1-0.4,0.3-0.9,0.4-1.3c0.3-1.1,0.5-2,0.6-2.7l-4.5-0.4c-0.1,1-0.2,2-0.5,3.1c-0.1,0.5-0.2,0.9-0.4,1.4
		c-0.7,0-1.4,0-2,0c-0.9,0-2,0-3.3-0.1c-1.2-0.1-2.4-0.2-3.3-0.3v4c0.7,0,1.5,0.1,2.2,0.1c0.8,0.1,1.5,0.1,2.3,0.1
		c0.7,0,1.3,0,1.9,0c0.2,0,0.5,0,0.8,0c-0.3,0.7-0.7,1.3-1.1,2C45.2,13.1,44.2,14.5,43,16z M48,10.2l0.7-1.5l-2.4,0
		c-0.5,0-1.1,0-1.9,0c-0.7,0-1.4,0-2.2-0.1c-0.4,0-0.9-0.1-1.3-0.1V6.6c0.7,0.1,1.5,0.1,2.3,0.2c1.3,0.1,2.4,0.1,3.3,0.1
		c0.7,0,1.3,0,2,0l0.7,0l0.2-0.7c0.1-0.5,0.3-1,0.4-1.4c0.2-0.8,0.3-1.5,0.4-2.2l2.3,0.2c-0.1,0.5-0.2,1-0.4,1.5
		c-0.1,0.4-0.2,0.8-0.3,1.2l-0.4,1.4l1.4,0c1.9-0.1,3.6-0.2,5.2-0.4c1.6-0.2,3.2-0.3,4.7-0.6v1.9c-1.1,0.1-2.2,0.3-3.4,0.4
		c-1.5,0.1-3.1,0.3-4.7,0.3c-1.2,0.1-2.3,0.1-3.4,0.2l-0.6,0l-0.3,0.6c-0.2,0.5-0.5,1-0.8,1.5c-0.5,1-1.1,1.9-1.7,2.7l1.3,1.5
		c0.3-0.2,0.7-0.3,1.2-0.4c0.5-0.1,1-0.2,1.6-0.3c0.5-0.1,1-0.1,1.4-0.1c1.3,0,2.4,0.4,3.3,1.1c0.4,0.4,0.7,0.8,0.9,1.3l0.4,1
		l1.3-0.6c1-0.4,1.9-0.8,2.7-1.2c0.9-0.4,1.7-0.7,2.5-1.1c0.7-0.3,1.4-0.6,2-0.9c0.3-0.2,0.7-0.3,1-0.5l0.9,2
		c-0.1,0-0.2,0.1-0.3,0.1c-0.5,0.2-1,0.4-1.5,0.6l-1.4,0.5c-1.3,0.5-2.8,1.1-4.5,1.8c-0.7,0.3-1.5,0.6-2.2,1l-0.6,0.3l0,3.1
		c0,0.8,0,1.6,0.1,2.4c0,0.4,0,0.7,0,1h-2c0-0.2,0-0.4,0-0.6c0-0.6,0-1.3,0.1-2c0-0.5,0-0.9,0-1.3l0-1.7l-1.5,0.7
		c-0.9,0.5-1.7,1-2.3,1.5c-0.9,0.7-1.7,1.4-2.2,2.1c-0.6,0.8-0.8,1.7-0.8,2.7c0,0.8,0.2,1.5,0.5,2c0.4,0.5,0.9,1,1.6,1.2
		c0.6,0.2,1.3,0.4,2.1,0.5c0.8,0.1,1.7,0.1,2.6,0.1c1.6,0,3.4-0.1,5.4-0.3c1.5-0.1,2.9-0.3,4.3-0.5l-0.1,2.3
		c-0.7,0.1-1.4,0.1-2.3,0.2c-1.2,0.1-2.5,0.2-3.7,0.2c-1.3,0-2.5,0.1-3.7,0.1c-1.8,0-3.5-0.2-5-0.5c-1.4-0.3-2.4-0.9-3.2-1.6
		c-0.7-0.7-1.1-1.7-1.1-3c0-1.1,0.2-2.1,0.7-2.9c0.5-0.9,1.2-1.8,2.1-2.6c0.9-0.8,1.9-1.5,3-2.2c0.9-0.5,1.7-1,2.6-1.4l0.8-0.4
		l-0.4-0.9c-0.2-0.5-0.6-0.9-1-1.2c-0.8-0.6-1.8-0.9-2.8-0.9c-1.3,0-2.5,0.3-3.8,0.9c-1.2,0.6-2.2,1.3-3.1,2.1
		c-0.6,0.6-1.2,1.2-1.8,1.9c-0.4,0.5-0.8,1-1.2,1.5l-1.9-1.4c1.3-1.3,2.5-2.6,3.6-3.8c1.2-1.5,2.3-3,3.1-4.4
		C47.3,11.5,47.7,10.9,48,10.2z"/>
	<path class="st0" d="M78.6,25.1c-1.6,0.4-2.9,0.7-4.2,1l1,3.9c2-0.6,4.1-1.2,6.6-1.9c2.4-0.7,4.9-1.4,7.2-2.1l-0.5-3.6
		c-1.6,0.4-3.2,0.9-4.8,1.3v-7.1h4.2v-3.8H84v-7h4.6V2H75.3v3.8h4.8v7h-4.4v3.8h4.4v8.1C79.6,24.8,79.1,25,78.6,25.1z M76.7,15.6
		v-1.8h4.4v-9h-4.8V3h11.3v1.8H83v9h4.2v1.8H83v9.4c0,0,3.7-1,4.9-1.4l0.2,1.6c-2.1,0.6-4.2,1.3-6.4,1.9c-2,0.6-3.9,1.1-5.6,1.6
		l-0.5-1.9c1-0.2,2-0.5,3.2-0.8l2.2-0.6v-9.9H76.7z"/>
</g>
</svg>
