<?xml version="1.0" encoding="utf-8"?>
<!-- Generator: Adobe Illustrator 27.9.1, SVG Export Plug-In . SVG Version: 6.00 Build 0)  -->
<svg version="1.1" id="Layer_1" xmlns:inkscape="http://www.inkscape.org/namespaces/inkscape"
	 xmlns="http://www.w3.org/2000/svg" xmlns:xlink="http://www.w3.org/1999/xlink" x="0px" y="0px" viewBox="0 0 212.5 32.1"
	 style="enable-background:new 0 0 212.5 32.1;" xml:space="preserve">
<style type="text/css">
	.st0{fill:#070707;}
</style>
<g>
	<path class="st0" d="M12,14.1c-2.9-1.2-6.3-2.3-10-3.2l-2,5.6c3.6,0.9,6.9,1.9,9.9,3.1L12,14.1z M1.3,15.8l1.3-3.7
		c3,0.8,5.7,1.6,8.1,2.6l-1.4,3.6C6.8,17.4,4.1,16.5,1.3,15.8z"/>
	<path class="st0" d="M2.4,22.6l-2,6.2C2.6,30,5,30.7,7.6,30.7c4.2,0,8.2-1.4,12.1-4.2c3.9-2.8,7.2-6.7,9.8-11.7l-5-4.8
		c-2.1,4.3-4.7,7.8-7.8,10.4c-3.1,2.6-6.2,3.9-9.3,3.9C6,24.1,4.3,23.6,2.4,22.6z M17.3,21c2.9-2.4,5.4-5.6,7.5-9.5l3.5,3.3
		c-2.5,4.5-5.6,8.1-9.2,10.7c-3.7,2.7-7.6,4.1-11.5,4.1c-2.2,0-4.2-0.5-6-1.4L3,24c1.6,0.7,3.1,1.1,4.3,1.1
		C10.7,25.1,14,23.7,17.3,21z"/>
	<path class="st0" d="M2.9,7c3.7,1.5,6.8,3,9.3,4.5L15,6.7C12.5,5,9.4,3.5,5.8,2L2.9,7z M13.7,7l-1.9,3.1C9.7,8.9,7.2,7.7,4.3,6.5
		l1.9-3.2C9.1,4.4,11.6,5.7,13.7,7z"/>
	<path class="st0" d="M44.5,30.8c2.4-5.3,4.6-11.4,6.8-18.2c1.8-0.1,3.2-0.2,4.2-0.2c1,0,1.7,0.2,2,0.5c0.4,0.3,0.6,1.1,0.6,2.2
		c0,1.1-0.1,2.6-0.4,4.4s-0.6,3.1-0.8,3.8c-0.2,0.7-0.4,1.1-0.6,1.2c-0.2,0.2-0.6,0.2-1.1,0.2s-1.4-0.2-2.5-0.7l-1.7,5.9
		c1.9,0.8,3.7,1.2,5.3,1.2c1.6,0,2.9-0.3,3.7-1c0.9-0.7,1.6-1.7,2.1-3.2c0.5-1.5,1-3.5,1.4-6c0.4-2.5,0.6-4.7,0.6-6.7
		c0-2.9-0.6-5-1.8-6.1C61,7,58.9,6.4,55.8,6.4c-0.7,0-1.6,0-2.7,0c0.4-1.2,0.7-2.4,1-3.5l-6-1.6c-0.4,1.7-1,3.5-1.6,5.5
		c-4.1,0.3-7.4,0.7-9.9,1l0.9,6.2c2-0.3,4.3-0.6,6.9-0.9c-2.1,5.9-4.2,11.1-6.3,15.7L44.5,30.8z M44.3,12.3c-2.2,0.3-4.2,0.5-6,0.8
		l-0.6-4.2c2.3-0.3,5.3-0.6,8.9-0.9l0.7-0.1l0.2-0.6c0.5-1.6,1-3.1,1.3-4.6l4.1,1.1c-0.2,0.8-0.4,1.6-0.7,2.5l-0.4,1.3l1.4,0
		c1.1,0,2,0,2.6,0c2.8,0,4.7,0.5,5.7,1.5c1,1,1.5,2.8,1.5,5.4c0,1.9-0.2,4.1-0.6,6.5c-0.4,2.4-0.9,4.4-1.4,5.8
		c-0.5,1.3-1.1,2.2-1.8,2.8c-0.7,0.5-1.8,0.8-3.1,0.8c-1.2,0-2.6-0.3-4.1-0.8l1.2-4c0.8,0.3,1.4,0.4,1.9,0.4c0.8,0,1.4-0.2,1.8-0.5
		c0.3-0.3,0.6-0.8,0.9-1.7c0.2-0.7,0.5-2,0.8-3.9c0.3-1.9,0.5-3.4,0.5-4.6c0-1.4-0.3-2.3-0.9-2.9c-0.6-0.5-1.5-0.8-2.7-0.8
		c-1,0-2.4,0.1-4.2,0.2l-0.7,0l-0.2,0.6c-2.1,6.4-4.2,12.2-6.4,17.3l-4.4-1.3c2-4.3,4-9.3,5.9-14.7l0.5-1.5L44.3,12.3z"/>
	<path class="st0" d="M89.5,10.3c1.5,0,2.6,0.2,3.1,0.6s0.8,1.1,0.8,2.3s-0.2,3.1-0.5,5.9c-0.4,2.8-0.8,5.6-1.3,8.5l0.1-4.9
		c-6.1,0-11.8,0.3-17.2,0.9l0.5,6.3c5.7-0.6,11.1-0.9,16.3-0.9c0,0.1,0,0.2-0.1,0.3l6.7,0.9c0.6-3.5,1.1-6.9,1.4-10.3
		s0.6-5.9,0.6-7.7c0-2.5-0.5-4.4-1.4-5.7l-4.5,1.2L93,4.1c-0.8-0.1-1.8-0.1-2.8-0.1c-3.7,0-9,0.3-15.9,1l0.7,6.3
		C81.4,10.6,86.2,10.3,89.5,10.3z M90.2,4.9c0.7,0,1.4,0,2,0.1l1,3.9l4.7-1.3c0.6,1.1,0.9,2.6,0.9,4.5c0,1.7-0.2,4.2-0.6,7.6
		c-0.3,3-0.8,6.2-1.3,9.3l-4.7-0.6l0.1-0.5h-1.2c-4.9,0-10,0.3-15.4,0.8l-0.3-4.3c4.8-0.5,9.8-0.8,15.1-0.8l-0.1,3.8l2,0.2
		c0.5-2.9,1-5.8,1.3-8.5c0.4-2.8,0.5-4.8,0.5-6c0-1.5-0.4-2.5-1.2-3.1c-0.7-0.5-1.9-0.7-3.7-0.7c-3.1,0-7.7,0.3-13.7,0.9l-0.5-4.3
		C81.8,5.2,86.8,4.9,90.2,4.9z"/>
	<path class="st0" d="M103,4.2L100.3,0l-3,1.5L99.9,6L103,4.2z M99.9,1.3l1.7,2.6l-1.3,0.7l-1.6-2.7L99.9,1.3z"/>
	<path class="st0" d="M98,5.8l-1.5-5.2l-3.3,0.8l1.3,5.3L98,5.8z M95.8,1.8l1,3.3l-1.6,0.4l-0.8-3.3L95.8,1.8z"/>
	<path class="st0" d="M135.7,29.7l-1-6.2c-1.3,0.3-3.1,0.6-5.3,0.9c-2.2,0.2-4.2,0.4-5.8,0.4c-4.9,0-7.4-1.2-7.4-3.6
		c0-1.5,1.1-3.1,3.2-4.7c0.9,1.5,1.7,2.8,2.6,3.7l5.4-3.1c-0.7-0.8-1.5-2.1-2.4-3.7c2.7-1.2,5.9-2.2,9.5-3.2l-2.3-5.6
		c-3.7,1.1-6.8,2.3-9.5,3.5c-1-2.7-1.7-5-2-7.1l-6.2,1.1c0.4,2.9,1.3,5.9,2.4,9c-2.3,1.5-4,3.1-5.1,4.9c-1.1,1.7-1.7,3.6-1.7,5.7
		c0,3.1,1.2,5.4,3.5,6.8s6.1,2.2,11.1,2.2C128.6,30.7,132.2,30.4,135.7,29.7z M114.1,27.7c-2.1-1.3-3.1-3.2-3.1-6
		c0-1.9,0.5-3.6,1.5-5.2c1-1.6,2.6-3.1,4.8-4.6l0.7-0.4l-0.3-0.8c-1-2.7-1.8-5.3-2.2-7.8l4.3-0.8c0.4,1.9,1,3.9,1.9,6.2l0.4,1l1-0.4
		c2.4-1,5.2-2.1,8.5-3.1l1.5,3.7c-3.2,0.9-6.1,1.8-8.5,2.9l-1,0.4l0.5,1c0.6,1.2,1.2,2.2,1.8,3l-3.7,2.1c-0.6-0.8-1.3-1.8-1.9-2.9
		l-0.6-1l-0.9,0.7c-2.4,1.8-3.6,3.6-3.6,5.5c0,3,2.8,4.6,8.4,4.6c1.7,0,3.7-0.1,6-0.4c1.7-0.2,3.2-0.4,4.4-0.7l0.6,4.1
		c-3.1,0.6-6.4,0.9-9.8,0.9C119.9,29.7,116.3,29,114.1,27.7z"/>
	<path class="st0" d="M157,18.1l-1,0c-2.2,0-4.4,0.1-6.6,0.1l-1,0v3.3l8.6,0V18.1z M156,20.4l-6.6,0v-1.3c2.2,0,4.4-0.1,6.6-0.1
		V20.4z"/>
	<path class="st0" d="M168.3,21l0.9-0.1c0,0,0.1-1.7,0.1-2l0.1-1.1l-1.1,0c-2.2,0-4.5,0.1-6.7,0.2l-1,0v3.3l1,0
		C164.5,21.2,166.8,21.1,168.3,21z M161.6,19c2.3-0.1,4.5-0.1,6.7-0.2c0,0.4,0,0.8-0.1,1.2c-1.6,0.1-3.8,0.2-6.6,0.3V19z"/>
	<path class="st0" d="M155.3,25.2l0.6,0c-0.1,2.9-0.1,5.1-0.2,6.4l5.9,0.4l0-7l0.4-0.1c2.6,2.4,4.8,4.7,6.8,6.9l6.2-1.9
		c-1.7-2-3.7-3.7-5.9-5.1l4.1-0.1c0.4-3.2,0.6-7,0.6-11.5c0-2.7-1.4-4.1-4.1-4.3c-2.4,0-5.1,0-8.1,0.1V7.5
		c7.8-0.1,12.2-0.2,13.3-0.3l-0.4-4.9c-4.5,0.1-8.8,0.2-12.9,0.3c-0.1-0.8-0.1-1.5-0.1-2.1L156,0.7l0.1,2c-3.9,0.1-8.4,0.3-13.5,0.4
		l0.1,4.9c4.6-0.1,9-0.2,13.3-0.4v1.5c-3.9,0.1-7.8,0.1-11.7,0.1c0.1,3.3,0.1,7.5,0.1,12.7l0,3.3l4.2-0.1c-1.6,1.3-3.8,2.5-6.7,3.6
		l5.2,3.2C150.4,30.3,153.1,28,155.3,25.2z M149.3,26.1l2.3-1.8l-6.1,0.1l0-2.3c0-4.7,0-8.6-0.1-11.7c3.5,0,7.1,0,10.6-0.1l1,0V6.7
		l-1,0c-4,0.2-8.1,0.3-12.3,0.4l-0.1-2.9c4.7-0.1,8.8-0.3,12.5-0.4l1,0l-0.1-2l3.4-0.1c0,0.4,0.1,0.8,0.1,1.2l0.1,0.9l0.9,0
		c3.8-0.1,7.8-0.2,12-0.3l0.3,2.9c-1.9,0-5.9,0.1-12.2,0.2l-1,0v3.6l1,0c3-0.1,5.7-0.1,8-0.1c2.1,0.2,3.1,1.1,3.1,3.3
		c0,4-0.2,7.5-0.5,10.5l-6.6,0.1l2.9,1.8c1.7,1.1,3.3,2.3,4.7,3.8l-4,1.3c-1.8-2.1-4-4.3-6.4-6.5l-0.4-0.4l-1.7,0.5l0,6.7l-3.9-0.3
		c0-1.3,0.1-3.1,0.2-5.5l0-1.1l-2.1,0.1l-0.3,0.4c-1.9,2.6-4.4,4.7-7.3,6.4l-3-1.9C146.3,28.1,148,27.1,149.3,26.1z"/>
	<path class="st0" d="M157,16.1v-3.6l-8.7,0.3v1c0,0.5,0,1.1,0,1.6l0,1L157,16.1z M156,13.5v1.6c-2.2,0-4.4,0.1-6.6,0.1
		c0-0.5,0-1,0-1.5L156,13.5z"/>
	<path class="st0" d="M168.4,15.8l1.1,0l-0.1-1.1c-0.2-1.8-1.4-2.2-1.9-2.2c-0.3-0.1-1.1-0.2-4.4-0.2h-2.6V16l1,0
		C164,15.9,166.3,15.9,168.4,15.8z M161.6,13.3h1.6c2.3,0,3.7,0,4.2,0.1c0.6,0.1,0.9,0.5,1,1.3c-2.2,0.1-4.4,0.1-6.8,0.2V13.3z"/>
	<path class="st0" d="M209.2,14.7c0-3.2-1.6-4.8-4.7-5c-9.3,0-16.3,0.3-21.1,0.8c0.1,2.4,0.2,5,0.2,7.9l0,2.9
		c2.5-0.1,6-0.2,10.5-0.3v0.3c0,2-0.1,3.1-0.4,3.5c-0.2,0.9-0.9,1.4-2.2,1.4c-0.7,0-1.3-0.1-1.7-0.3l1.6,5.6l0.4,0
		c3.2,0,5.2-0.5,6.2-1.4c1.2-0.9,1.8-2.8,1.8-5.5c0-1.2,0-2.5-0.1-3.7c2.5,0,5.5-0.1,8.8-0.1C209,17.8,209.2,15.8,209.2,14.7z
		 M207.7,19.8c-3,0-5.6,0.1-8,0.1l-1,0l0,1c0,1.2,0.1,2.5,0.1,3.7c0,2.4-0.5,4-1.4,4.7l-0.1,0.1c-0.4,0.4-1.6,1.1-5.1,1.1l-0.9-3.3
		c0.1,0,0.3,0,0.3,0c2.2,0,2.9-1.2,3.2-2c0.3-0.5,0.5-1.5,0.5-3.9v-1.4l-1,0c-3.9,0.1-7.1,0.2-9.5,0.2l0-1.8c0-2.6,0-4.9-0.1-7.1
		c4.7-0.5,11.4-0.7,20-0.7c2.6,0.1,3.7,1.3,3.7,4C208.2,15.6,208.1,17.3,207.7,19.8z"/>
	<path class="st0" d="M202,12.9c-2.1-0.1-3.9-0.1-5.7-0.1c-3.5,0-6,0.1-7.7,0.3l-0.9,0.1l0,0.9c0,0.8,0,1.7,0,2.6v1h1
		c0.9,0,5.7,0,14.4-0.1l0.8,0l0.2-0.8c0.1-0.6,0.2-1.1,0.2-1.6V15C204.5,14.4,204.2,13.1,202,12.9z M203.5,15.3c0,0.4,0,0.9-0.1,1.4
		c-8.8,0-13.6,0.1-14.4,0.1c0-0.9,0-1.8,0-2.7c1.6-0.2,4.1-0.3,7.5-0.3c1.7,0,3.6,0,5.6,0.1c1,0.1,1.5,0.5,1.5,1.1V15.3z"/>
	<path class="st0" d="M187.3,28.6c1.3-1.5,2.3-3.2,2.9-5.1l-4.9-1.4c-0.3,0.7-0.9,1.6-1.8,2.6c-0.9,1-2.2,2-4,3l3.9,3.9
		C184.7,31.1,186,30.1,187.3,28.6z M184.3,25.3c0.7-0.8,1.2-1.5,1.6-2.1l3.1,0.9c-0.6,1.4-1.3,2.6-2.3,3.8c-1,1.2-2,2-2.9,2.5
		l-2.5-2.5C182.5,27,183.5,26.2,184.3,25.3z"/>
	<path class="st0" d="M209.3,24.1c-1-1.2-2-2.1-3-2.7l-5,2.6c0.9,0.7,1.9,1.9,3.2,3.5c1.2,1.6,2.1,2.9,2.5,4l5.5-2.7
		C211.4,26.9,210.3,25.3,209.3,24.1z M205.3,26.8c-0.8-1.1-1.6-1.9-2.2-2.6l3.2-1.7c0.7,0.6,1.5,1.3,2.3,2.2
		c0.8,0.9,1.7,2.1,2.5,3.6l-3.6,1.8C207,29.1,206.2,28.1,205.3,26.8z"/>
	<path class="st0" d="M179.2,8.7c11.8-0.3,22.8-0.6,33.2-1l-0.4-4.9c-3.8,0.1-8.1,0.2-13,0.4c-0.2-0.6-0.5-1.3-1-2.2l-5.9,0.5
		c0.5,1,0.8,1.6,0.8,1.9c-5.5,0.1-10.1,0.2-13.8,0.3L179.2,8.7z M192.9,4.6l1.1,0l-0.1-1.1c0-0.2-0.1-0.4-0.3-0.9l3.8-0.3
		c0.3,0.5,0.5,1,0.6,1.4l0.2,0.7l0.7,0c4.5-0.2,8.5-0.3,12.1-0.4l0.3,2.9c-9.7,0.3-20.1,0.6-31.1,0.9l-0.1-2.9
		C183.6,4.8,187.8,4.7,192.9,4.6z"/>
</g>
</svg>
