<?xml version="1.0" encoding="utf-8"?>
<!-- Generator: Adobe Illustrator 27.9.1, SVG Export Plug-In . SVG Version: 6.00 Build 0)  -->
<svg version="1.1" id="Layer_1" xmlns:inkscape="http://www.inkscape.org/namespaces/inkscape"
	 xmlns="http://www.w3.org/2000/svg" xmlns:xlink="http://www.w3.org/1999/xlink" x="0px" y="0px" viewBox="0 0 248.2 31"
	 style="enable-background:new 0 0 248.2 31;" xml:space="preserve">
<style type="text/css">
	.st0{fill:#070707;}
</style>
<g>
	<path class="st0" d="M11.9,22.4c0,2.4,0,5-0.1,7.8l6.5,0c0-4.5,0-8.4-0.1-11.5c5.4-3.6,8.1-7,8.1-10.1c0-1.3-0.4-2.4-1.3-3.2
		c-0.6-0.6-1.8-1.1-3.5-1.4c-0.7-0.2-2.1-0.2-4-0.1c-0.1-1.2-0.3-2.4-0.4-3.7L10.6,1c0.2,1.2,0.4,2.3,0.5,3.5
		C8.4,4.8,5.6,5.3,2.5,5.8l1.1,6c7.9-1.5,13-2.2,15.3-2.2c0.5,0,0.8,0.1,0.8,0.3c0,0.6-1,1.6-3,3c-2,1.4-4.6,2.8-7.7,4.3
		c-3.1,1.5-6.1,2.8-9,3.9l3.5,5.5C6.6,25.1,9.4,23.7,11.9,22.4z M9.4,18c3.1-1.5,5.7-3,7.8-4.4c2.5-1.7,3.5-2.8,3.5-3.8
		c0-0.3-0.1-1.3-1.8-1.3c-2.3,0-7.1,0.7-14.5,2.1l-0.7-4c2.7-0.4,5.2-0.8,7.6-1.1l1-0.1l-0.1-1c-0.1-0.8-0.2-1.7-0.4-2.5l4.6-0.5
		c0.1,0.9,0.2,1.8,0.3,2.7l0.1,1l1-0.1c0.8,0,1.5-0.1,2.1-0.1c1,0,1.4,0.1,1.7,0.1c1.9,0.4,2.7,0.9,3,1.2c0.7,0.6,1,1.4,1,2.5
		c0,2.8-2.6,5.9-7.7,9.3l-0.5,0.3l0,0.6c0.1,2.9,0.1,6.4,0.1,10.5l-4.5,0c0.1-2.4,0.1-4.7,0-6.8l0-1.6l-1.5,0.8
		c-2.2,1.2-4.8,2.4-7.6,3.7l-2.4-3.7C4.1,20.5,6.7,19.3,9.4,18z"/>
	<path class="st0" d="M23.8,15.3l-4.6,3.8c2.4,2.2,4.5,4.5,6.4,6.9l4.4-4C28,19.5,25.9,17.3,23.8,15.3z M25.7,24.5
		c-1.5-1.9-3.2-3.7-5-5.4l3-2.5c1.7,1.6,3.3,3.4,4.9,5.2L25.7,24.5z"/>
	<path class="st0" d="M46.5,9.3c3.4-0.7,6.2-1,8.3-1c0.9,0,1.6,0.1,1.9,0.3c0.4,0.2,0.5,0.6,0.5,1.1c0,1.6-1.1,4.4-3.2,8.3
		c-2.1,4-4.4,7.3-6.7,10l6.2,2.9c3.1-3.9,5.5-8,7.4-12.1c1.9-4.1,2.8-7.6,2.8-10.5c0-2.2-0.6-3.8-1.9-4.8c-1.3-1-3.3-1.5-6-1.5
		c-1.9,0-4.3,0.2-7.2,0.6c0.1-0.4,0.2-0.8,0.4-1.3L42.9,0c-2.1,6.7-4.1,12.3-6.1,16.8l6,2C44,16.2,45.2,13.1,46.5,9.3z M38.1,16.2
		c1.8-4.1,3.6-9.2,5.4-15.1l4.3,1c0,0.1-0.4,1.7-0.4,1.7l1.4-0.2c2.8-0.4,5.2-0.6,7.1-0.6c2.5,0,4.3,0.4,5.4,1.3
		c1,0.8,1.5,2.1,1.5,4c0,2.7-0.9,6.1-2.7,10.1c-1.7,3.8-4,7.6-6.8,11.3l-4.3-2c2-2.6,4-5.7,6-9.2c2.2-4.1,3.3-7,3.3-8.8
		c0-1.2-0.6-1.8-1-2c-0.5-0.3-1.3-0.5-2.4-0.5c-2.2,0-5,0.3-8.5,1l-0.6,0.1L45.6,9c-1.2,3.3-2.3,6.2-3.3,8.6L38.1,16.2z"/>
	<path class="st0" d="M88.4,21.5c3.4,3.2,6.2,6.1,8.5,8.9l5-4.2c-3.1-3.6-6-6.6-8.7-9.1c3.3-3.5,4.9-6.6,4.9-9.4
		c0-1.9-0.7-3.4-2.1-4.5s-3.2-1.7-5.5-1.7c-1.4,0-3.6,0.2-6.5,0.6c-3,0.4-6.1,1-9.4,1.6l1.3,6.3c2.4-0.6,5.1-1.2,8-1.6
		c2.9-0.5,4.8-0.7,5.8-0.7s1.5,0.3,1.5,0.8c0,0.8-0.8,2.2-2.5,4s-4,3.8-6.8,6c-2.8,2.2-5.9,4.3-9,6.3l4.2,5.3
		C81.6,26.9,85.4,24,88.4,21.5z M82.4,19.4c2.9-2.2,5.2-4.3,6.9-6.2c1.9-2.1,2.8-3.5,2.8-4.7c0-0.5-0.2-1.8-2.5-1.8
		c-1.1,0-3,0.2-6,0.7c-2.5,0.4-4.8,0.9-7,1.4l-0.9-4.3c2.9-0.6,5.7-1,8.3-1.4c2.9-0.4,5.1-0.6,6.4-0.6c2.1,0,3.7,0.5,4.9,1.4
		c1.1,0.9,1.7,2.1,1.7,3.8c0,2.4-1.6,5.4-4.7,8.7l-0.7,0.7l0.7,0.7c2.5,2.3,5.2,5.1,7.9,8.3L97,29c-2.2-2.6-4.8-5.3-7.9-8.2
		l-0.6-0.6l-0.7,0.6c-2.8,2.4-6.3,5-10.6,8l-2.9-3.7C77.1,23.3,79.8,21.4,82.4,19.4z"/>
	<path class="st0" d="M120.3,30.4c0.4-5.2,0.7-10.2,0.8-15c3.5,1.8,7.4,4.1,11.7,7l3.4-5.2c-2.3-1.6-4.3-3-6.1-4.1
		c-1.8-1.1-4.1-2.3-6.7-3.6l-2.2,3.5c0-4.2-0.2-8.4-0.5-12.6L114,0.9c0.7,9.2,0.5,18.9-0.5,29.4L120.3,30.4z M123.7,10.9
		c2.2,1.1,4.2,2.2,5.8,3.2c1.6,1,3.4,2.1,5.3,3.5l-2.3,3.5c-4-2.6-7.7-4.8-11-6.5l-0.2-0.1L123.7,10.9z M115.1,1.8l4.7-0.3
		c0.3,3.8,0.4,7.7,0.4,11.6v0.8l0,0l0,1.6c-0.1,4.5-0.3,9.1-0.7,13.9l-4.8-0.2C115.5,19.6,115.7,10.4,115.1,1.8z"/>
	<path class="st0" d="M155.4,29.9c2.4,0,5.4-0.7,9.1-2c3.7-1.4,7.2-3.1,10.5-5.3l-3-6.5c-2.6,1.9-5.5,3.5-8.6,4.9
		c-3.1,1.4-5.4,2-7,2c-0.6,0-1-0.1-1.2-0.4s-0.3-0.9-0.3-1.7c0-2.7,0.5-8.9,1.4-18.6l-6.7-0.7c-1,12.3-1.6,19.5-1.6,21.6
		s0.6,3.8,1.9,5C151.1,29.3,153,29.9,155.4,29.9z M150.4,2.6l4.7,0.5c-0.9,9.2-1.3,15-1.3,17.7c0,1.1,0.1,1.8,0.5,2.3
		c0.4,0.6,1.1,0.9,2.1,0.9c1.7,0,4.2-0.7,7.4-2.1c2.8-1.2,5.4-2.7,7.8-4.3l2.2,4.7c-3,1.9-6.2,3.5-9.6,4.7c-3.6,1.3-6.5,2-8.8,2
		c-2.1,0-3.7-0.5-4.8-1.5c-1.1-1-1.6-2.4-1.6-4.2C149,21.1,149.5,14.2,150.4,2.6z"/>
	<path class="st0" d="M206.6,8.9l-2.7-4.6l-3,1.6l2.6,4.8L206.6,8.9z M203.5,5.6l1.7,2.9l-1.4,0.8l-1.7-3L203.5,5.6z"/>
	<path class="st0" d="M184.9,22.8c1.2-1.5,2.5-3.2,3.9-5.2c1.4-2,2.4-3.3,3-3.9c0.6-0.7,1.1-1,1.5-1c0.4,0,0.9,0.3,1.6,0.8
		c0.7,0.6,1.9,1.9,3.9,3.9s3.9,4.2,5.9,6.5s3.1,3.5,3.4,3.8l4.3-5c-2.8-3.3-5.5-6.3-8-8.9c-2.5-2.6-4.3-4.5-5.5-5.5
		c-1.2-1.1-2.1-1.8-2.9-2.2c-0.8-0.4-1.7-0.6-2.7-0.6s-2,0.3-3,1s-2.2,1.8-3.6,3.5c-1.4,1.6-2.9,3.4-4.3,5.2
		c-1.5,1.8-2.4,2.9-2.6,3.2L184.9,22.8z M183.2,15.7c1.5-1.8,2.9-3.6,4.3-5.2c1.3-1.6,2.5-2.7,3.4-3.3c0.8-0.6,1.6-0.8,2.4-0.8
		c0.9,0,1.6,0.2,2.3,0.5c0.7,0.4,1.6,1.1,2.7,2.1c1.1,1,3,2.9,5.4,5.5c2.3,2.4,4.8,5.2,7.4,8.2l-3,3.5c-0.6-0.6-1.5-1.6-2.6-3
		c-2-2.3-4-4.4-5.9-6.5c-2-2.1-3.3-3.4-4-4c-0.9-0.7-1.6-1.1-2.2-1.1c-0.7,0-1.4,0.4-2.2,1.3c-0.6,0.7-1.7,2-3.1,4
		c-1.1,1.6-2.2,3-3.2,4.3l-3.6-3.2C181.6,17.6,182.3,16.8,183.2,15.7z"/>
	<path class="st0" d="M211,6.1l-3.7-3.4l-2.5,2.2l3.7,3.7L211,6.1z M207.3,4.1l2.3,2.1l-1.1,1.1L206.3,5L207.3,4.1z"/>
	<path class="st0" d="M231.3,2.3c-0.5,7.6-0.7,12.6-0.7,15.1c0,2.4,0.1,4.2,0.2,5.4c0.2,2.4,0.9,4.1,1.8,4.9s2.5,1.2,4.5,1.2
		c4.2,0,7.9-1.3,11.1-3.9l-2.2-6.1c-1.4,1.1-2.8,1.9-4.2,2.5s-2.6,0.9-3.7,0.9c-0.3,0-0.6-0.1-0.7-0.2c-0.1-0.1-0.2-0.3-0.3-0.6
		c-0.1-0.3-0.1-2-0.1-5.1c0-3.1,0.2-7.7,0.7-13.9L231.3,2.3z M238.1,23.3c1.2,0,2.5-0.3,4.1-1c1.1-0.5,2.2-1.1,3.3-1.9l1.5,4.2
		c-2.9,2.2-6.2,3.2-9.9,3.2c-1.8,0-3.1-0.3-3.8-1c-0.5-0.4-1.2-1.5-1.5-4.2c-0.1-1.1-0.2-2.9-0.2-5.3c0-2.3,0.2-7,0.7-14l4.3,0.2
		c-0.4,5.6-0.6,10-0.6,12.9c0,4.8,0.1,5.1,0.1,5.3c0.1,0.4,0.3,0.8,0.5,1.1C237,23.1,237.5,23.3,238.1,23.3z"/>
	<path class="st0" d="M228.9,7.8l-6.2-1c-0.7,7.8-2.9,14.4-6.5,19.6l6,2.6C226,22.8,228.3,15.7,228.9,7.8z M217.7,26
		c3.2-5,5.1-11,5.9-18l4.2,0.7c-0.6,7.1-2.7,13.5-6,19.1L217.7,26z"/>
</g>
</svg>
