<?xml version="1.0" encoding="utf-8"?>
<!-- Generator: Adobe Illustrator 27.9.1, SVG Export Plug-In . SVG Version: 6.00 Build 0)  -->
<svg version="1.1" id="Layer_1" xmlns="http://www.w3.org/2000/svg" xmlns:xlink="http://www.w3.org/1999/xlink" x="0px" y="0px"
	 viewBox="0 0 772.4 65.3" style="enable-background:new 0 0 772.4 65.3;" xml:space="preserve">
<g>
	<path d="M32.7,65.3c9.5,0,16.2-4.1,21.7-9.6l-7.2-10.2c-4.2,4.1-9.1,7.1-14.9,7.1c-9.7,0-19.6-8.6-19.6-19.7
		c0-10.9,9.6-19.9,19.6-19.9c5.4,0,10.5,2.6,14.8,6.7l7.3-9.9c-6.6-6.3-13.8-9.5-21.9-9.7C14.9,0.3,0,15.2,0,32.9
		C0,50.4,14.7,65.3,32.7,65.3z M32.5,2.8c6.8,0.1,12.9,2.6,18.6,7.5l-4.3,5.9c-4.4-3.6-9.4-5.5-14.4-5.5
		c-11.8,0-22.1,10.4-22.1,22.4c0,13.1,11.6,22.2,22.1,22.2c4.9,0,9.8-2,14.5-5.9l4.3,6.1c-5.6,5-11.5,7.4-18.4,7.4
		c-16.4,0-30.2-13.7-30.2-29.9C2.5,16.5,16.2,2.8,32.5,2.8z"/>
	<path d="M109,64.1V1.6H96.4v25H74v-25H61.4v62.5H74V39h22.5v25.1H109z M71.5,36.5v25.1h-7.5V4.1h7.5v25h27.5v-25h7.5v57.5h-7.5
		V36.5H71.5z"/>
	<path d="M132.4,1.6h-12.6v62.5h12.6V1.6z M129.9,61.6h-7.6V4.1h7.6V61.6z"/>
	<path d="M172.9,13.1c5.4,0,10.5,2.6,14.8,6.7l7.3-9.9c-6.6-6.3-13.8-9.5-21.9-9.7c-17.6,0-32.5,14.9-32.5,32.6
		c0,17.6,14.7,32.4,32.7,32.4c9.5,0,16.2-4.1,21.7-9.6l-7.2-10.2c-4.2,4.1-9.1,7.1-14.9,7.1c-9.7,0-19.6-8.6-19.6-19.7
		C153.3,22,162.9,13.1,172.9,13.1z M150.8,32.9c0,13.1,11.6,22.2,22.1,22.2c4.9,0,9.8-2,14.5-5.9l4.3,6.1c-5.6,5-11.5,7.4-18.4,7.4
		c-16.4,0-30.2-13.7-30.2-29.9c0-16.3,13.7-30.1,30-30.1c6.8,0.1,12.9,2.6,18.6,7.5l-4.3,5.9c-4.4-3.6-9.4-5.5-14.4-5.5
		C161.1,10.6,150.8,21,150.8,32.9z"/>
	<path d="M239,47.1l-11.5-25.2l-11.5,25.2H239z M235.1,44.6h-15.2l7.6-16.7L235.1,44.6z"/>
	<path d="M227.2,0l-29.9,64.1H211l4-8.7h25l4,8.7h13.6L227.6,0H227.2z M245.5,61.6l-4-8.7h-28.2l-4,8.7h-8l26.1-56.1l26.2,56.1
		H245.5z"/>
	<path d="M288.3,29v11.6h16.2c-0.4,7.5-6.8,12.1-15.7,12.1c-12.2,0-20.7-8.9-20.7-19.8c0-11.7,9.8-19.9,19.5-19.9
		c5.6,0,11.2,2.7,16.1,7.5l7-10.4c-6.1-6-14.8-9.7-22.9-9.8c-17.9,0-32.5,14.7-32.5,32.6c0,17.8,14.5,32.4,32.9,32.4
		c16.3,0,29.8-11.4,29.8-31.1c0-1.7-0.1-3.5-0.3-5.3H288.3z M288.2,62.8c-16.8,0-30.4-13.4-30.4-29.9c0-16.6,13.4-30.1,30-30.1
		c6.7,0.1,14.1,3,19.6,7.7l-4.2,6.2c-4.9-4.1-10.2-6.2-15.6-6.2c-10.6,0-22,9-22,22.4c0,12.7,10,22.3,23.2,22.3
		c10.4,0,17.8-5.8,18.2-14.5l0.1-2.6h-16.3v-6.6h24.6c0.1,1,0.1,1.9,0.1,2.8C315.5,51.1,304.3,62.8,288.2,62.8z"/>
	<path d="M355.9,10.5c-12.3,0-22.3,10-22.3,22.4c0,12.3,10,22.2,22.3,22.2c12.3,0,22.4-10,22.4-22.2
		C378.3,20.5,368.3,10.5,355.9,10.5z M355.9,52.6c-10.9,0-19.8-8.9-19.8-19.7c0-10.9,8.9-19.9,19.8-19.9c10.9,0,19.9,8.9,19.9,19.9
		C375.8,43.7,366.9,52.6,355.9,52.6z"/>
	<path d="M356,0.3c-17.9,0-32.5,14.7-32.5,32.6c0,17.8,14.6,32.4,32.5,32.4c17.9,0,32.6-14.6,32.6-32.4
		C388.5,14.9,373.8,0.3,356,0.3z M355.9,62.8c-16.5,0-30-13.4-30-29.9c0-16.6,13.5-30.1,30-30.1c16.6,0,30,13.5,30,30.1
		C386,49.4,372.5,62.8,355.9,62.8z"/>
	<path d="M466.7,1.6h-14.4l-10.7,18.9L430.9,1.6h-14.4l17.8,30.1l-19,32.5h14.4l11.8-21l11.9,21h14.4l-19-32.5L466.7,1.6z
		 M463.5,61.6h-8.6L441.6,38l-13.3,23.6h-8.6l17.5-30L420.9,4.1h8.6l12.2,21.5l12.1-21.5h8.6l-16.4,27.5L463.5,61.6z"/>
	<path d="M493.6,14H509v50.1h12.6V14H537V1.6h-43.4V14z M496.1,4.1h38.4v7.5h-15.4v50.1h-7.6V11.5h-15.4V4.1z"/>
	<path d="M570.7,10.5c-12.3,0-22.3,10-22.3,22.4c0,12.3,10,22.2,22.3,22.2c12.3,0,22.4-10,22.4-22.2C593,20.5,583,10.5,570.7,10.5z
		 M570.7,52.6c-10.9,0-19.8-8.9-19.8-19.7c0-10.9,8.9-19.9,19.8-19.9c10.9,0,19.9,8.9,19.9,19.9C590.5,43.7,581.6,52.6,570.7,52.6z"
		/>
	<path d="M570.7,0.3c-17.9,0-32.5,14.7-32.5,32.6c0,17.8,14.6,32.4,32.5,32.4c17.9,0,32.6-14.6,32.6-32.4
		C603.3,14.9,588.6,0.3,570.7,0.3z M570.7,62.8c-16.5,0-30-13.4-30-29.9c0-16.6,13.5-30.1,30-30.1c16.6,0,30,13.5,30,30.1
		C600.8,49.4,587.3,62.8,570.7,62.8z"/>
	<path d="M656,1.6h-14.5l-17.6,27v-27h-12.5v62.5H624V36.7l19,27.4h15.3L636,32.2L656,1.6z M621.5,61.6h-7.5V4.1h7.5V61.6z
		 M653.5,61.6h-9.2l-20-28.9l18.6-28.7h8.5L633,32.2L653.5,61.6z"/>
	<path d="M696.6,1.6l-11.4,21.7L673.8,1.6h-14.2L679,37.2v26.8h12.5V37.2l19.4-35.7H696.6z M689,36.6v25h-7.5v-25L663.8,4.1h8.5
		l12.9,24.6l12.9-24.6h8.5L689,36.6z"/>
	<path d="M739.9,0.3c-17.9,0-32.5,14.7-32.5,32.6c0,17.8,14.6,32.4,32.5,32.4c17.9,0,32.6-14.6,32.6-32.4
		C772.4,14.9,757.8,0.3,739.9,0.3z M739.9,62.8c-16.5,0-30-13.4-30-29.9c0-16.6,13.5-30.1,30-30.1c16.6,0,30,13.5,30,30.1
		C769.9,49.4,756.5,62.8,739.9,62.8z"/>
	<path d="M739.9,10.5c-12.3,0-22.3,10-22.3,22.4c0,12.3,10,22.2,22.3,22.2c12.3,0,22.4-10,22.4-22.2
		C762.2,20.5,752.2,10.5,739.9,10.5z M739.9,52.6c-10.9,0-19.8-8.9-19.8-19.7c0-10.9,8.9-19.9,19.8-19.9c10.9,0,19.9,8.9,19.9,19.9
		C759.7,43.7,750.8,52.6,739.9,52.6z"/>
</g>
</svg>
