<?xml version="1.0" encoding="utf-8"?>
<!-- Generator: Adobe Illustrator 27.9.1, SVG Export Plug-In . SVG Version: 6.00 Build 0)  -->
<svg version="1.1" id="Layer_1" xmlns:inkscape="http://www.inkscape.org/namespaces/inkscape"
	 xmlns="http://www.w3.org/2000/svg" xmlns:xlink="http://www.w3.org/1999/xlink" x="0px" y="0px" viewBox="0 0 180.1 31.7"
	 style="enable-background:new 0 0 180.1 31.7;" xml:space="preserve">
<style type="text/css">
	.st0{fill:#070707;}
</style>
<g>
	<path class="st0" d="M4.6,26.2l10-0.2c0,0.5,0,1-0.1,1.6c-5.7,0.1-10.3,0.2-13.9,0.3l0.3,3.8c20.3-0.4,31.1-0.6,32.4-0.7L33,27.3
		c-1.7,0-5.9,0.1-12.5,0.3V26c5.6,0,9-0.1,10.2-0.1l-0.5-3.9c-2.5,0-5.8,0.1-9.7,0.2l0-1.6c6.9-0.1,10.9-0.1,11.9-0.1l-0.5-3.8
		l-11.6,0.1c0-0.3,0-0.9,0-1.6c3.5,0,6.8-0.1,9.8-0.2c0.4-3.7,0.6-6.7,0.6-8.8c0-3.3-1.3-5.1-4-5.2C22,0.8,18.4,0.7,15.9,0.7
		c-2.5,0-4.8,0.1-6.9,0.2L8.8,0.1L3.6,1c0.3,3.6,0.5,7.2,0.5,10.9l0,3.4h0.2c-0.4,1.9-1.8,4-4.3,6.2l4.5,1.4L4.6,26.2z M5,16.3
		l2.9,0.4L6.6,18l2.5-0.1l6.6-0.1l-0.1-1c0-0.4,0-0.9-0.1-1.6l0-1l-1,0c-3.7,0-6.9,0-9.6,0l0-2.4c0-3.4-0.1-6.8-0.4-10.1l3.4-0.6
		L8.2,2l0.8,0c2.1-0.1,4.4-0.2,6.8-0.2c2.5,0,6.1,0,10.8,0.1c1.4,0.1,3,0.7,3,4.2c0,1.9-0.2,4.5-0.5,7.8c-2.8,0.1-5.8,0.1-8.9,0.2
		l-1,0v1c0,0.7,0,1.3,0,1.7l0.1,0.9L31,17.6l0.2,1.8c-1.8,0-5.4,0.1-10.8,0.1l-1,0l0.1,3.6l1,0c3.5-0.1,6.4-0.2,8.8-0.2l0.2,1.9
		c-1.7,0-4.7,0.1-9.1,0.1l-1,0v3.6l1,0c5.6-0.1,9.5-0.2,11.6-0.2l0.1,1.8c-3.3,0.1-13.5,0.3-30.4,0.6l-0.1-1.8
		c3.4,0,7.8-0.1,12.9-0.3l0.9,0c0,0,0.1-2.1,0.1-2.6l0.1-1.1L5.5,25.2l-0.1-1.8l1.2,0c2.5,0,5.2-0.1,8-0.1l1,0l0.1-3.6l-8.9,0.2
		l-0.3,0.6C6.3,21,6,21.5,5.8,21.9l-0.4,0.6l0-0.3L1.9,21C3.5,19.4,4.5,17.8,5,16.3z M4.8,15.3c2.7,0,6,0,9.8,0c0,0.7,0,1.2,0.1,1.6
		l-5.6,0.1c0.1-0.1,0.3-0.5,0.4-1L4.8,15.3z M6.7,22.4c0.2-0.4,0.5-0.9,0.8-1.6c1.9,0,4.3-0.1,7.2-0.2l0,1.6
		C11.8,22.3,9.2,22.4,6.7,22.4z"/>
	<path class="st0" d="M26,12.2l0.4-3.8L8.1,8.6l0.1,3.8h1c2.5,0,7.7,0,15.9-0.1L26,12.2z M9.1,11.4l0-1.8l16.1-0.1L25,11.2
		C17,11.3,11.7,11.4,9.1,11.4z"/>
	<path class="st0" d="M26.5,6.9l-0.2-1.2c-0.2-1.2-1.3-1.8-3.1-2c-1.4-0.2-3.5-0.2-6.2-0.2c-2.1,0-4.8,0.1-7.9,0.2l-1,0l0.1,3.4
		L26.5,6.9z M16.9,4.5c2.7,0,4.7,0.1,6.1,0.2s2.1,0.6,2.2,1.2L9.1,6.1l0-1.4C12.2,4.6,14.8,4.5,16.9,4.5z"/>
	<path class="st0" d="M65.5,8.9c-5.3,1.3-9.7,3-13.3,5c-0.4-0.1-0.8-0.3-0.9-0.4S51,13.1,51,13c0-0.5,0.4-1.9,1.1-4.2
		c3.2-0.4,6.3-0.6,9.3-0.6c0.3,0,0.7,0,1.1,0l0.3-5.3c-0.8,0-1.7-0.1-2.6-0.1c-2,0-4.1,0.1-6.2,0.3c0.3-0.8,0.6-1.5,0.9-2L49,0
		c-0.5,1.2-0.9,2.5-1.3,3.7c-2.6,0.4-5.1,0.9-7.5,1.4l0.9,5.5c1.6-0.4,3.2-0.7,4.8-1c-0.6,2.5-1,4.2-1,5.2c0,0.6,0.2,1.2,0.5,1.6
		c0.3,0.4,0.9,0.8,1.8,1.3c-1.8,2-2.7,4-2.7,6.1c0,4.5,4.2,6.8,12.5,6.8c2.9,0,6-0.3,9.3-0.8L65.8,24c-3.3,0.7-6.6,1.1-9.9,1.1
		c-3.6,0-5.4-0.6-5.4-1.8c0-0.9,0.9-2,2.8-3.3c2.4,0.8,4.8,2,7.3,3.5l2.7-4.8c-1.2-0.8-2.4-1.5-3.7-2c2.5-1,5-1.8,7.5-2.4L65.5,8.9z
		 M59.2,17.5c0.9,0.4,1.8,0.9,2.8,1.5L60.2,22c-2.2-1.3-4.5-2.3-6.6-3.1l-0.5-0.2l-0.4,0.3c-2.2,1.5-3.2,2.9-3.2,4.2
		c0,2.8,4.6,2.8,6.4,2.8c3,0,6-0.3,9-0.9l0.3,3.8c-2.9,0.4-5.7,0.7-8.2,0.7c-11.5,0-11.5-4.3-11.5-5.8c0-1.8,0.8-3.7,2.5-5.4l0.9-1
		l-1.2-0.6c-0.9-0.4-1.3-0.8-1.4-1c-0.2-0.2-0.3-0.6-0.3-1c0-0.6,0.2-2,0.9-5l0.4-1.5l-1.5,0.3c-1.2,0.2-2.5,0.5-3.8,0.7l-0.6-3.5
		c2-0.5,4.2-0.9,6.5-1.2l0.6-0.1l0.2-0.6c0.3-1,0.7-2,1-2.9l3.7,0.6c-0.1,0.3-0.2,0.6-0.3,0.9l-0.6,1.5L54.1,4
		c2.1-0.2,4.1-0.3,6.1-0.3c0.5,0,1,0,1.5,0l-0.2,3.4h-0.1c-3.1,0-6.2,0.2-9.4,0.6l-0.6,0.1l-0.2,0.6c-1,3.2-1.1,4.1-1.1,4.5
		c0,0.5,0.2,0.9,0.6,1.3c0.3,0.2,0.7,0.4,1.3,0.6l0.4,0.1l0.4-0.2c3.3-1.9,7.3-3.4,12.1-4.7l1.1,3.3c-2.2,0.6-4.4,1.3-6.6,2.2
		l-2.1,0.9L59.2,17.5z"/>
	<path class="st0" d="M103.7,31.4c0.2-5.9,0.3-14.3,0.3-25.2c0-3.4-1.5-5.2-4.6-5.4c-5.2,0-10.9,0.2-17.2,0.7L82,0l-5.6,0.9
		c0.3,3.9,0.5,12.9,0.5,27.1l0,3.8C85.4,31.5,94.3,31.4,103.7,31.4z M81.2,1.2l0.1,1.4l1-0.1c6.2-0.5,12-0.7,17.1-0.7
		c2.5,0.1,3.6,1.5,3.6,4.4c0,10.3-0.1,18.4-0.3,24.2c-8.6,0-17,0.1-24.8,0.3l0-2.7c0-13.1-0.2-21.9-0.5-26.2L81.2,1.2z"/>
	<path class="st0" d="M82.3,21.7l-1,0v5.4h1c5.1,0,10.3,0,15.4-0.1l1,0l0.1-5.8l-1,0C89.1,21.5,83.9,21.6,82.3,21.7z M97.7,26.1
		c-5.1,0.1-10.3,0.1-15.4,0.1v-3.5c1.6-0.1,6.8-0.2,15.4-0.4L97.7,26.1z"/>
	<path class="st0" d="M98.2,10.2l0.8,0l0.1-0.8c0.1-0.4,0.1-0.9,0.1-1.8c0-1.8-1-2.3-1.6-2.5c-0.5-0.1-1.2-0.2-2.1-0.2
		c-2.7,0-7.2,0.3-13.4,0.7l-0.9,0.1v5.1l1-0.1C87.8,10.5,93.1,10.3,98.2,10.2z M82.3,6.6c6.2-0.5,10.6-0.7,13.3-0.7
		c0.9,0,1.5,0,1.8,0.1c0.6,0.2,0.9,0.7,0.9,1.6c0,0.8,0,1.4-0.1,1.7c-5.1,0-10.4,0.2-15.9,0.5C82.3,8.4,82.3,7.4,82.3,6.6z"/>
	<path class="st0" d="M82.3,13.3l-1,0V19l1,0c2-0.1,7.2-0.2,15.5-0.5l1,0l0.1-5.6l-1,0C93.8,13,88.6,13.1,82.3,13.3z M97.9,17.5
		c-8.4,0.2-13.6,0.4-15.5,0.5v-3.6c6.3-0.2,11.5-0.4,15.6-0.4L97.9,17.5z"/>
	<path class="st0" d="M118.9,15l-0.1-4.8l3.1-0.1l-0.1-5.3l-3.1,0.1l-0.2-4.6l-5,0.3l0.1,4.5h-3.1l0.1,5.3l3.2-0.1
		c0,2.4,0.1,4.4,0.1,6.1c-1.2,0.2-2.3,0.4-3.5,0.6l0.5,4.9c1.2-0.1,2.2-0.3,3-0.5c0,2.7-0.1,4.1-0.3,4.3c-0.1,0.2-0.4,0.3-0.9,0.3
		c-0.8,0-1.5-0.1-2-0.4l0.5,5.7c0.3,0.2,1.4,0.4,3.2,0.4c1.4,0,2.5-0.4,3.3-1.2c0.5-0.5,0.9-1.3,1-2.3c0.3-2.2,0.4-4.9,0.4-8.1
		c1.6-0.2,2.6-0.5,3.1-0.8l-0.1-5.1C120.8,14.4,119.8,14.7,118.9,15z M118.7,19.1l-0.9,0.1l0,0.9c0,3.1-0.1,5.8-0.4,8
		c-0.1,0.7-0.4,1.3-0.8,1.7c-0.6,0.6-1.5,0.9-2.6,0.9c-1.2,0-1.9-0.1-2.3-0.1l-0.3-3.6c0.3,0,0.5,0,0.9,0c0.7,0,1.3-0.2,1.7-0.7
		c0.2-0.3,0.4-0.6,0.5-4.9l0-1.4l-1.3,0.4c-0.5,0.1-1.1,0.3-1.8,0.4l-0.3-2.9c0.8-0.1,1.7-0.3,2.6-0.5l0.8-0.2v-0.8
		c0-1.7,0-3.7-0.1-6.1l0-1l-3.1,0.1l0-3.3h3.1l-0.1-4.6l3.1-0.2l0.2,4.6l3.1-0.1l0.1,3.3l-3.1,0.1l0.2,7.1c0,0,2.4-0.6,3-0.8l0,3.1
		C120.6,18.7,119.9,18.9,118.7,19.1z"/>
	<path class="st0" d="M143.6,8c-3.3,0.9-8.2,1.4-14.6,1.5h-0.5c-0.3,0-0.5-0.3-0.5-1V7.4c6.2-0.2,11.3-1.4,15.2-3.5L141.1,0
		c-4.2,1.8-8.6,2.7-13.1,2.6l-0.1-2.5l-5,0.3c0,6,0.1,9.3,0.3,9.9c0.2,2.4,1.6,3.6,4,3.7c8.7,0.1,14.2-0.3,16.5-1.4L143.6,8z
		 M129.8,13C129.8,13,129.8,13,129.8,13c-0.8,0-1.7,0-2.6,0c-1.9-0.1-2.9-1-3.1-2.8l0-0.1l0-0.1c-0.1-0.2-0.2-1.6-0.3-8.7l3-0.2
		l0.1,2.5l0.9,0l0.5,0c4.2,0,8.3-0.8,12.2-2.4l1.2,2.2c-3.6,1.8-8.3,2.7-13.8,2.9l-1,0v2c0,1.9,1.3,2,1.5,2h0.5
		c5.8-0.1,10.3-0.5,13.6-1.2l0,2.7C141,12.5,137.4,13,129.8,13z"/>
	<path class="st0" d="M139.5,15.5c-3.4-0.2-7.2-0.1-11.5,0.3l-0.1-1l-4.8,1.2c0.2,4.2,0.3,8.2,0.3,11.9v3.5c7.5,0,13.8-0.1,19-0.3
		c0.3-3.9,0.4-7.5,0.4-10.8C142.8,17.3,141.7,15.7,139.5,15.5z M141.5,30.3c-4.5,0.2-9.8,0.3-16,0.3c0,0-1,0-1,0V28
		c0-3.5-0.1-7.3-0.3-11.2l2.9-0.7l0.1,0.8l1-0.1c2.8-0.3,5.4-0.4,7.8-0.4c1.2,0,2.4,0,3.5,0.1c1.1,0.1,2.4,0.6,2.4,3.9
		C141.8,23.4,141.7,26.7,141.5,30.3z"/>
	<path class="st0" d="M127.1,28h1c3.4,0,6.6,0,9.7-0.1l0.9,0l0.2-3.7l-11.8,0.1V28z M128.1,25.3l9.7-0.1l-0.1,1.7
		c-3.1,0.1-6.3,0.1-9.6,0.1V25.3z"/>
	<path class="st0" d="M137,19c-0.3-0.1-0.8-0.2-2.1-0.2c-1.7,0-4,0.1-6.8,0.4l-0.9,0.1v3.6h1.9c2.2,0,5.2,0,8.9-0.1l1,0l0-1
		C138.8,19.7,137.7,19.1,137,19z M129,21.9h-0.9v-1.7c2.9-0.2,5.1-0.4,6.8-0.4c1,0,1.6,0,1.9,0.1c0.7,0.1,1.1,0.7,1.2,1.8
		C134.2,21.8,131.3,21.9,129,21.9z"/>
	<path class="st0" d="M180.1,6.9c-2-0.1-4.1-0.1-6.4-0.1c0-2.1-0.1-4-0.3-5.6l-5.9,0.3c0.2,1.6,0.3,3.5,0.3,5.6
		c-2.4,0.2-4.8,0.5-7.2,0.9c0.2-1.6,0.4-3.1,0.6-4.5l-6-0.6c-0.3,2.1-0.6,4.1-0.7,6.2c-2.1,0.4-4.1,0.9-5.9,1.5l1,6
		c1.5-0.4,3-0.8,4.6-1.2c0.1,5.4,1.1,9.3,3,11.5c1.9,2.3,5.1,3.4,9.5,3.4c3,0,6.3-0.5,9.9-1.5l-0.9-6.2c-2.4,0.7-4.3,1.1-5.7,1.4
		c-1.3,0.2-2.6,0.4-3.8,0.4s-2.2-0.1-3-0.4c-0.8-0.2-1.4-0.7-1.9-1.4s-0.8-1.6-1-2.7s-0.3-2.2-0.3-3.3s0-1.9,0-2.3
		c2.4-0.4,4.9-0.8,7.3-1c-0.2,2.2-0.5,4.2-0.9,6.1l5.9,0.9c0.4-2.3,0.7-4.8,1-7.4c2.3-0.1,4.4-0.1,6.4,0L180.1,6.9z M178.8,11.7
		c-0.6,0-1.1,0-1.7,0c-1.2,0-2.5,0-3.8,0.1l-0.9,0l-0.1,0.9c-0.2,2.3-0.5,4.4-0.8,6.4l-3.9-0.6c0.3-1.6,0.5-3.4,0.7-5.2l0.1-1.2
		l-1.2,0.1c-2.4,0.2-4.9,0.6-7.4,1.1l-0.8,0.1v3.1c0,1.2,0.1,2.3,0.3,3.5c0.2,1.3,0.6,2.3,1.1,3.1c0.6,0.9,1.4,1.5,2.4,1.8
		c0.9,0.3,1.9,0.4,3.3,0.4c1.3,0,2.6-0.1,4-0.4c1.2-0.2,2.7-0.6,4.6-1.1l0.6,4.2c-3.2,0.8-6.2,1.3-8.8,1.3c-4.1,0-7-1-8.7-3
		c-1.7-2.1-2.7-5.7-2.8-10.9l0-1.2l-1.2,0.3c-1.2,0.3-2.4,0.6-3.5,0.9l-0.7-4c1.5-0.4,3.2-0.8,4.9-1.2l0.7-0.2l0.1-0.8
		c0.1-1.7,0.3-3.5,0.6-5.2l4,0.4c-0.2,1.1-0.3,2.3-0.5,3.5l-0.1,1.3l1.3-0.2c2.4-0.3,4.8-0.6,7.2-0.8l0.9-0.1l0-0.9
		c0-1.7,0-3.3-0.2-4.7l3.9-0.2c0.1,1.3,0.2,2.8,0.2,4.5v1l1,0c0.8,0,1.7,0,2.5,0c1,0,1.9,0,2.9,0.1L178.8,11.7z"/>
</g>
</svg>
