<?xml version="1.0" encoding="utf-8"?>
<!-- Generator: Adobe Illustrator 27.9.1, SVG Export Plug-In . SVG Version: 6.00 Build 0)  -->
<svg version="1.1" id="Layer_1" xmlns:inkscape="http://www.inkscape.org/namespaces/inkscape"
	 xmlns="http://www.w3.org/2000/svg" xmlns:xlink="http://www.w3.org/1999/xlink" x="0px" y="0px" viewBox="0 0 66 32.4"
	 style="enable-background:new 0 0 66 32.4;" xml:space="preserve">
<style type="text/css">
	.st0{fill:#070707;}
</style>
<g>
	<path class="st0" d="M6.9,20.1c1.7,0,3.6,0.1,5.6,0.3l0.7-1.1c-1.9-0.1-4-0.2-6.3-0.2l-0.7,1.1L6.9,20.1z"/>
	<path class="st0" d="M3.3,23.9c17.3-0.1,26.4-0.2,27.5-0.3l-0.6-2.7c-3.6,0-8.1,0.1-13.7,0.1c-5.5,0.1-10,0.1-13.5,0.1L3.3,23.9z
		 M16.6,22.1C21.7,22,26,22,29.4,21.9l0.1,0.7c-3,0-11.5,0.1-25.3,0.2l-0.1-0.7C7.5,22.1,11.7,22.1,16.6,22.1z"/>
	<path class="st0" d="M13.4,17.4c-1.9-0.1-4-0.2-6.2-0.2l-0.7,1c2.2,0,4.3,0.1,6.3,0.2L13.4,17.4z"/>
	<path class="st0" d="M21.2,20.1c1.7,0,3.6,0.1,5.6,0.3l0.7-1.1c-1.9-0.1-4-0.2-6.3-0.2l-0.7,1.1L21.2,20.1z"/>
	<path class="st0" d="M27.8,17.4c-1.9-0.1-4-0.2-6.2-0.2l-0.7,1c2.2,0,4.3,0.1,6.3,0.2L27.8,17.4z"/>
	<path class="st0" d="M26.8,4.7l-0.3-1.2c-0.2-0.9-0.8-1.3-1.2-1.4c-0.2-0.1-0.6-0.2-4.2-0.2c-3.2,0-7.5,0.1-12.9,0.3l-1,0l0.1,2.8
		L26.8,4.7z M21.2,2.9c2.3,0,3.5,0,3.8,0.1c0.3,0.1,0.4,0.3,0.5,0.7L8.4,3.9l0-0.8C13.8,2.9,18.1,2.9,21.2,2.9z"/>
	<path class="st0" d="M7.5,7.9l19-0.2V4.9L7.3,5.1L7.5,7.9z M25.5,5.9v0.8L8.4,6.9l0-0.8L25.5,5.9z"/>
	<path class="st0" d="M30.9,8.9c0.1-1.9,0.2-3.8,0.2-5.6s-1.3-2.8-3.8-2.9h-6.7c-5.4,0-9.6,0-12.4,0.1L8.1,0L2.7,0.6
		C3,3,3.2,5.2,3.2,7.2l0,2.1C11.5,9.3,20.8,9.2,30.9,8.9z M7.5,1.1l0.2,0.4l0.7,0c2.8-0.1,7-0.1,12.4-0.1h6.7
		c2.8,0.1,2.8,1.3,2.8,1.9c0,1.5-0.1,3.1-0.2,4.7C20.6,8.2,11.9,8.3,4.1,8.3l0-1.1c0-1.8-0.1-3.7-0.4-5.8L7.5,1.1z"/>
	<path class="st0" d="M6,27.4c-1.4,0.7-2.3,1.4-2.5,2c-0.2,0.3-0.3,0.6-0.3,0.9c0,0.5,0.2,0.9,0.6,1.2c0.5,0.3,1.2,0.6,2,0.6
		c1,0.1,2.2,0.1,3.6,0.1c3.9,0,9.1-0.2,15.6-0.7c0.3,0.2,0.6,0.4,0.9,0.8l6.5-0.8c-1.7-1.6-3.9-3-6.5-4.3l-6.2,0.6
		c1.6,0.7,2.5,1.1,2.6,1.2c-4.5,0.3-8,0.4-10.4,0.4c-1.1,0-1.6,0-1.7-0.1c-0.1-0.1,0-0.2,0.3-0.4s1.3-0.7,3.1-1.6
		c10.7-0.1,17.4-0.2,20.2-0.2l-0.6-2.7c-4.7,0-10,0.1-16,0.2c-6,0.1-11.7,0.1-17.3,0.1l0.2,2.7L6,27.4z M17.3,25.6
		c5.6-0.1,10.7-0.1,15.2-0.2l0.1,0.7c-3.3,0-9.6,0.1-19,0.2l-0.2,0l-0.2,0.1c-2.5,1.2-3,1.5-3.2,1.7c-0.3,0.2-0.6,0.5-0.7,1
		c0,0.3,0.1,0.6,0.3,0.9c0.3,0.4,0.8,0.5,2.5,0.5c2.4,0,5.9-0.2,10.4-0.4l2.6-0.2l-1.7-1.3l2.5-0.2c1.6,0.8,3.1,1.6,4.3,2.5
		l-3.7,0.4c-0.3-0.2-0.5-0.5-0.8-0.6l-0.3-0.1l-0.3,0c-6.5,0.4-11.7,0.7-15.6,0.7c-1.4,0-2.5,0-3.5-0.1c-0.7-0.1-1.2-0.2-1.5-0.4
		c-0.2-0.2-0.2-0.3-0.2-0.4c0-0.1,0-0.2,0.1-0.4l0-0.1l0-0.1c0-0.1,0.3-0.6,2.1-1.5L6,26.4l-4.8,0l-0.1-0.7
		C6.3,25.7,11.8,25.7,17.3,25.6z"/>
	<path class="st0" d="M33.9,18c0-0.9-0.1-1.9-0.3-2.8c-0.1-0.5-0.5-0.8-1.1-1c-0.6-0.2-1.2-0.3-1.9-0.4c-0.7,0-1.5-0.1-2.6-0.1
		c-4.4,0-7.3,0-8.7,0l-0.1-0.7c0,0,0-0.1,0-0.2l12.8,0l-0.4-2.7C14.5,10.3,4.9,10.4,3,10.4L3.2,13c2.7,0,6.4-0.1,11.2-0.1
		c0,0.2,0.1,0.5,0.1,1L5.6,14v-0.5l-5.2,0.1c0.1,1.7,0.1,3.1,0.1,4c0,0.7,0,1.7,0,3l5.4,0.1l0-2.1c0-0.4-0.1-1.1-0.2-2l8.8-0.2
		c0,1.5-0.1,2.8-0.4,4.1l5.4,0.1l0-2c0-0.5,0-1.3-0.1-2.3c2.8,0,5.4,0,7.8,0c0.9,0,1.3,0.5,1.3,1.4c0,0.9-0.1,1.8-0.4,2.8l5.4,0.1
		C33.8,19.7,33.9,18.8,33.9,18z M32.8,19.6l-3.3-0.1c0.1-0.6,0.2-1.2,0.2-1.8c0-1.5-0.9-2.4-2.3-2.4h-8.9l0,1c0,1,0.1,1.8,0.1,2.3
		l0,1l-3.2-0.1c0.1-1,0.2-2,0.2-3.1l0-1L4.6,15.6l0.1,1.1c0.1,1.1,0.2,1.6,0.2,1.9l0,1.1l-3.4,0c0-0.9,0-1.5,0-2c0-0.7,0-1.7-0.1-3
		l3.2-0.1V15l10.8-0.1v-1c0-0.6,0-1-0.1-1.2l-0.2-0.7h-0.8c-4.2,0-7.6,0-10.2,0.1l0-0.6c3.3,0,12.2-0.1,26.8-0.2l0.1,0.7l-12.7,0v1
		c0,0.2,0,0.3,0.1,0.5l0.2,1.5l0.9,0c1.4,0,4.3,0,8.7,0c1,0,1.8,0,2.5,0.1c0.6,0,1.1,0.1,1.6,0.3c0.3,0.1,0.4,0.2,0.4,0.3
		c0.2,0.9,0.2,1.7,0.2,2.6C32.9,18.5,32.8,19,32.8,19.6z"/>
	<path class="st0" d="M63.7,24.6c1.5-2.8,2.3-6.2,2.3-10.2c0-3.9-0.5-8.4-1.6-13.7l-6.2,1.1c0.4,2,0.8,4.2,1.1,6.5
		c0.3,2.3,0.4,4.3,0.4,5.8c0,3.1-0.6,5.7-1.9,7.9c-1.3,2.2-3.3,4-6.1,5.5l4.8,4.2C59.8,29.8,62.2,27.4,63.7,24.6z M58.7,22.6
		c1.4-2.3,2.1-5.1,2.1-8.4c0-1.6-0.1-3.6-0.4-6c-0.2-2-0.5-3.9-0.9-5.6l4.2-0.8c0.9,4.8,1.4,9,1.4,12.5c0,3.8-0.7,7.1-2.2,9.7
		c-1.3,2.4-3.4,4.6-6.3,6.4l-3.2-2.8C55.7,26.3,57.5,24.6,58.7,22.6z"/>
	<path class="st0" d="M51.1,2.3L45.2,1c-0.6,1.9-1.1,4-1.5,6.2c-0.4,2.2-0.6,4.1-0.6,5.8c0,2.7,0.5,4.9,1.5,6.5c1,1.6,2.3,2.4,4,2.4
		c2.4,0,4.7-1.6,6.8-4.9l-3.7-3.7c-0.6,0.7-1,1.3-1.3,1.6s-0.5,0.4-0.7,0.4c-0.5,0-0.7-0.6-0.7-1.7c0-1.1,0.2-2.9,0.7-5.4
		C50.1,5.7,50.6,3.7,51.1,2.3z M49.7,16.3c0.6,0,1.1-0.4,1.4-0.7c0.2-0.2,0.4-0.4,0.7-0.8l2.4,2.3c-1.8,2.5-3.6,3.8-5.5,3.8
		c-1.3,0-2.3-0.6-3.1-1.9c-0.9-1.4-1.3-3.4-1.3-5.9c0-1.6,0.2-3.5,0.6-5.7c0.3-1.8,0.7-3.5,1.2-5.2L49.8,3c-0.4,1.4-0.8,3-1.1,5
		c-0.5,2.5-0.7,4.4-0.7,5.6C47.9,15.9,49,16.3,49.7,16.3z"/>
</g>
</svg>
