<?xml version="1.0" encoding="utf-8"?>
<!-- Generator: Adobe Illustrator 27.9.1, SVG Export Plug-In . SVG Version: 6.00 Build 0)  -->
<svg version="1.1" id="Layer_1" xmlns:inkscape="http://www.inkscape.org/namespaces/inkscape"
	 xmlns="http://www.w3.org/2000/svg" xmlns:xlink="http://www.w3.org/1999/xlink" x="0px" y="0px" viewBox="0 0 174.8 32.1"
	 style="enable-background:new 0 0 174.8 32.1;" xml:space="preserve">
<style type="text/css">
	.st0{fill:#070707;}
</style>
<g>
	<path class="st0" d="M3.5,28.1c2.4,1.4,6.1,2.2,11.1,2.2c3.9,0,7.5-0.4,11-1.1l-1-6.2c-1.3,0.3-3.1,0.6-5.3,0.9
		c-2.2,0.2-4.2,0.4-5.8,0.4c-4.9,0-7.4-1.2-7.4-3.6c0-1.5,1.1-3.1,3.2-4.7c0.9,1.5,1.7,2.8,2.6,3.7l5.4-3.1
		c-0.7-0.8-1.5-2.1-2.4-3.7c2.7-1.2,5.9-2.2,9.5-3.2L22,4.3c-3.7,1.1-6.8,2.3-9.5,3.5c-1-2.7-1.7-5-2-7.1L4.3,1.8
		c0.4,2.9,1.3,5.9,2.4,9c-2.3,1.5-4,3.1-5.1,4.9C0.6,17.4,0,19.3,0,21.3C0,24.4,1.2,26.7,3.5,28.1z M2.5,16.2c1-1.6,2.6-3.1,4.8-4.6
		L8,11.2l-0.3-0.8c-1-2.7-1.8-5.3-2.2-7.8l4.3-0.8c0.4,1.9,1,3.9,1.9,6.2l0.4,1l1-0.4c2.4-1,5.2-2.1,8.5-3.1L23,9.2
		C19.8,10,17,11,14.5,12.1l-1,0.4l0.5,1c0.6,1.2,1.2,2.2,1.8,3l-3.7,2.1c-0.6-0.8-1.3-1.8-1.9-2.9l-0.6-1l-0.9,0.7
		c-2.4,1.8-3.6,3.6-3.6,5.5c0,3,2.8,4.6,8.4,4.6c1.7,0,3.7-0.1,6-0.4c1.7-0.2,3.2-0.4,4.4-0.7l0.6,4.1c-3.1,0.6-6.4,0.9-9.8,0.9
		c-4.8,0-8.4-0.7-10.6-2C2,26,1,24.1,1,21.3C1,19.5,1.5,17.7,2.5,16.2z"/>
	<path class="st0" d="M44.3,17.9c0,3.3,1,6.1,2.9,8.3c1.9,2.3,4.7,3.9,8.3,5l3-5.6c-2.6-0.9-4.6-2-5.9-3.3c-1.3-1.3-1.9-2.8-1.9-4.5
		c0-1.7,0.5-3.4,1.6-5c1.1-1.6,2.4-2.8,4.2-3.6c0.7-0.3,1.4-0.6,2.3-0.7c0.9-0.1,2.3-0.2,4.3-0.3l-0.2-5.9
		C51.7,2.6,42.1,3.5,34.1,4.8l0.6,6.2c4.9-0.8,9.2-1.4,12.7-1.8C45.3,11.7,44.3,14.6,44.3,17.9z M47.3,8.2C44,8.6,40.1,9.1,35.6,9.8
		l-0.4-4.2c7.5-1.2,16.5-2,26.7-2.3l0.1,4c-1.5,0.1-2.7,0.2-3.4,0.3c-1,0.2-1.9,0.4-2.6,0.8c-1.8,0.8-3.4,2.2-4.5,3.9
		c-1.2,1.8-1.8,3.6-1.8,5.5c0,2,0.7,3.7,2.2,5.2c1.2,1.2,2.9,2.3,5.2,3.1L55,30.1c-3-1-5.3-2.5-7-4.4c-1.8-2.1-2.7-4.6-2.7-7.7
		c0-3.1,0.9-5.7,2.9-8.1l1.6-1.9L47.3,8.2z"/>
	<path class="st0" d="M87.9,30.8c3.6,0,6.5-1,8.6-3.1c2.2-2.1,3.6-5.1,4.1-9l-5.9-1.6c-0.5,2.6-1.3,4.5-2.3,5.7
		c-1.1,1.2-2.5,1.8-4.2,1.8c-2.8,0-4.5-1.4-5-4.2c3.9-0.5,7-1.1,9.4-1.8L91.4,13c-2.3,0.6-5.1,1.1-8.3,1.5c0.1-1.3,0.3-2.7,0.5-4.2
		c3.2,0.1,5.8,0.4,7.9,0.9l0.9-5.6c-2.4-0.4-5.1-0.7-7.8-1c0.2-1.2,0.5-2.3,0.7-3.3l-6.2-0.7c-0.3,1-0.6,2.3-0.9,3.8
		c-2.4,0-4.8,0-7.3,0.1l-0.4,5.7c2.5,0,4.8-0.1,6.9-0.1c-0.2,1.8-0.4,3.5-0.5,5c-2,0.1-3.9,0.2-5.8,0.3l0.3,5.9
		c1.9-0.1,3.8-0.2,5.7-0.3C77.9,27.5,81.5,30.8,87.9,30.8z M72.3,20.3l-0.2-3.9c1.5,0,3.2-0.1,4.8-0.2l0.9-0.1l0.1-0.9
		c0.1-1.5,0.3-3.2,0.5-4.9l0.1-1.1h-1.1c-1.8,0-3.7,0-5.8,0.1l0.3-3.7c1.8-0.1,3.5-0.1,5.2-0.1c0.4,0,2,0,2,0l0.2-0.8
		c0.2-1.1,0.4-2.1,0.6-2.9l4.3,0.5c-0.2,0.7-0.3,1.5-0.5,2.3l-0.2,1.1l1.1,0.1c2.4,0.2,4.6,0.5,6.8,0.8L90.7,10
		c-2-0.3-4.3-0.6-7.1-0.7l-0.9,0l-0.1,0.9c-0.2,1.5-0.4,2.9-0.5,4.2L82,15.7l1.2-0.2c2.8-0.4,5.3-0.8,7.4-1.3l0.8,3.7
		c-2.2,0.6-4.9,1.1-8.3,1.5L82,19.6l0.2,1.1c0.7,3.3,2.8,5,6,5c2.1,0,3.7-0.7,5-2.2c1-1.2,1.8-2.9,2.3-5.2l4,1.1
		c-0.6,3.3-1.8,5.8-3.7,7.5c-2,1.9-4.6,2.8-8,2.8c-5.8,0-9-2.9-9.9-8.9L77.9,20L76.9,20C75.4,20.1,73.9,20.2,72.3,20.3z"/>
	<path class="st0" d="M121.2,28l4.1-2.6c-0.5-1.3-1.4-2.5-2.5-3.7l4.8-0.2c0,3-0.1,4.6-0.2,4.8c-0.1,0.2-0.2,0.3-0.4,0.3
		c-0.1,0-0.3,0-0.6,0c-0.3,0-1-0.1-1.9-0.4l0.4,5.5c1.9,0.1,3.2,0.2,4,0.2c1.1,0,2-0.3,2.6-0.9c0.6-0.5,1-1.5,1.1-2.8
		c0.1-1.3,0.1-2.5,0.1-3.5l0-3.3c2.7,0,4.3,0,4.8-0.1l-0.2-4.9l-4.6,0.1v-2.3c2.9,0,4.5-0.1,5-0.1l-0.2-4.9c-2.5,0-5,0.1-7.5,0.2
		c0-0.4,0-0.8,0-1.2l0-1.2l5.9-0.3L135.6,2c-2,0-3.9,0.1-5.7,0.2c0-0.7,0-1.4-0.1-2.2l-5.2,0.1c0,0.8,0.1,1.5,0.1,2.2
		c-1.6,0.1-3.5,0.2-5.7,0.3l0.1,4.9c2,0,3.8-0.1,5.6-0.3c0,0.9-0.1,1.7-0.1,2.4l-7,0.2v4.9l10.1-0.3c0,1.3,0,2,0,2.3h-0.7
		c-4.1,0.1-7,0.2-8.7,0.3l0,4.8l2.2,0l-2.2,1.2C119.5,24.5,120.5,26.2,121.2,28z M120.4,20.8l-1.2,0l0-2.8c1.7,0,4.3-0.1,7.8-0.2
		l1.7,0l-0.1-1.1c0-0.1,0-0.6,0-2.2v-1l-10.1,0.3v-2.9l7-0.2l0.1-0.9c0-0.8,0.1-1.6,0.1-2.5l0-1.1l-1.1,0.1
		c-1.4,0.1-2.9,0.2-4.5,0.2l0-2.9c1.8-0.1,3.4-0.1,4.8-0.2l0.9-0.1V2.3c0-0.4,0-0.8,0-1.2l3.2-0.1c0,0.4,0,0.8,0,1.2v1.1l1.1-0.1
		c1.5-0.1,3-0.2,4.7-0.2l0.2,2.9l-5.9,0.3l0.1,2.2c0,0.4,0,0.8,0,1.1l-0.1,1.1l1.1,0c2.1-0.1,4.3-0.1,6.5-0.2l0.1,2.9
		c-0.8,0-2.2,0-3.9,0.1l-1,0v4.3l4.6-0.1l0.1,2.9c-0.7,0-1.9,0-3.7,0l-1,0l0,4.3c0,1,0,2.2-0.1,3.4c-0.1,1-0.3,1.7-0.7,2.1
		c-0.4,0.4-1.1,0.6-2,0.6c-0.6,0-1.7,0-3-0.1l-0.3-3.2c0.4,0.1,0.6,0.1,0.8,0.1c0.3,0,0.6,0,0.7,0c0.3,0,0.7-0.2,1.1-0.7
		c0.2-0.3,0.3-0.5,0.4-5.3l0-1.1l-8,0.3l1.5,1.6c0.8,0.9,1.5,1.7,2,2.6l-2.3,1.5c-0.5-1.1-1.2-2.2-1.9-3.2l1.2-0.6L120.4,20.8z"/>
	<path class="st0" d="M114.4,31.8V22l3.1-0.9l-0.4-5.1l-2.7,0.7v-4.5l2.4-0.1l-0.3-5.5l-2.2,0.1l0-6.5l-4.6,0l0,6.3h-1.1
		c0.1-1.3,0.2-3.1,0.2-5.6l-4.2-0.2c0,4.8-0.3,9.3-0.9,13.5l4.2,0.8c0.2-1,0.3-2,0.4-3l1.3,0c0,1.9,0,3.7,0,5.4
		c-2.4,0.5-4.4,0.9-6,1.2l0.9,5.5c1.3-0.3,3-0.6,5.1-1.1c0,3.9,0,6.7,0,8.5L114.4,31.8z M109.5,22c-1.6,0.4-2.9,0.7-4,0.9l-0.6-3.4
		c1.4-0.2,3.1-0.6,5.1-1l0.8-0.2v-7.2l-3.2,0.1l-0.1,0.9c-0.1,0.7-0.2,1.3-0.3,1.9l-2.3-0.4c0.5-3.7,0.8-7.6,0.8-11.7l2.1,0.1
		c0,2-0.1,3.5-0.2,4.6l-0.1,1.1h3.2l0-6.3l2.6,0l0,6.6l2.3-0.2l0.2,3.5l-2.4,0.1V18l2.8-0.7l0.2,3.1l-3,0.9v9.4l-2.7-0.2
		c0-1.8,0-4.3,0-7.6v-1.3L109.5,22z"/>
	<path class="st0" d="M156.7,11l0-0.9c0.1-1.4,0.1-2.7,0.1-3.8c0-0.9-0.6-1.9-2.2-1.9c-1.7,0-4.5,0.1-8.8,0.3l-1,0v6.8h1
		c1.7,0,5-0.1,9.9-0.4L156.7,11z M146,10.5V5.6c4.2-0.2,7.1-0.3,8.7-0.3c0.8,0,1.2,0.3,1.2,0.9c0,1.1,0,2.4-0.1,3.7
		C150.9,10.3,147.6,10.5,146,10.5z"/>
	<path class="st0" d="M154.7,21.6c0.7,0,1,0.5,1,1.4v2.4c0,0.6-0.4,1-1.1,1c-0.8,0-1.7-0.1-2.8-0.3l0.5,5.1c2.2,0.2,3.7,0.3,4.5,0.3
		c2.5,0,3.8-1.5,3.9-4.5c0-2.1,0.1-3.9,0.1-5.4c0-0.1,0-0.6,0-1.3c0-0.7-0.2-1.4-0.7-1.9c-0.5-0.6-1.2-0.9-2.2-0.9
		c-0.3,0-0.9,0-1.6,0c-1.2,0-3.3,0-6.2,0.1c0.1-0.8,0.2-1.7,0.3-2.7c2.8-0.1,6.1-0.2,9.9-0.3c0.3-3.4,0.4-6.8,0.4-10.1
		c-0.2-2.4-1.4-3.5-3.6-3.5c-5.5,0-9.2,0.1-11.2,0.3l-0.1-0.9L141.1,1c0.2,3.5,0.3,8.2,0.3,14.2c1.2-0.1,2.6-0.1,4.3-0.2v0.7
		c0,2.4-0.3,4.5-0.9,6.6c-0.8,2.6-2.1,4.8-3.9,6.4l4,3.5c2.7-2.9,4.3-6.3,4.8-10.1C152.7,21.7,154.3,21.6,154.7,21.6z M148.8,21
		l-0.1,0.8c-0.4,3.3-1.7,6.3-3.9,8.9l-2.5-2.1c1.5-1.6,2.6-3.6,3.3-6c0.6-2.1,1-4.4,1-6.9v-1.8l-1,0c-1.2,0.1-2.3,0.1-3.3,0.2
		c0-5-0.1-9.1-0.3-12.3l2.8-0.4l0.1,0.8l0.9-0.1c2-0.2,5.7-0.3,11.1-0.3c1.1,0,2.3,0.3,2.6,2.6c0,3-0.1,6-0.3,9.1
		c-3.4,0.1-6.4,0.2-9,0.3l-0.9,0l0,0.9c0,1-0.1,1.8-0.3,2.6l-0.2,1.2l1.3,0c2.9-0.1,4.9-0.1,6.1-0.1c0.7,0,1.2,0,1.5,0
		c0.7,0.1,1.2,0.2,1.5,0.6c0.3,0.4,0.5,0.8,0.5,1.3c0,0.7,0,1.1,0,1.3c0,1.5,0,3.3-0.1,5.4c-0.1,3.1-1.5,3.5-2.9,3.5
		c-0.7,0-1.9-0.1-3.6-0.2l-0.3-3c0.6,0.1,1.2,0.1,1.7,0.1c0,0,0,0,0,0c1.3,0,2.1-0.8,2.1-2V23c0-1.8-1.1-2.4-2-2.4
		c-0.1,0-0.6,0-5,0.3L148.8,21z"/>
	<path class="st0" d="M167.2,31.7c3.4,0,5.5-0.6,6.5-1.9c0.6-0.8,1-1.8,1-3.2c0-1.3,0.1-2.9,0.1-4.7c0-4-0.2-11.1-0.5-21.6l-5.4,0.2
		c0.5,7.8,0.7,14.7,0.7,20.7l0,3.2c0,1.2-0.6,1.8-1.8,1.8c-2,0-3.5-0.1-4.5-0.3l0.3,5.4C164.8,31.6,166.1,31.7,167.2,31.7z
		 M167.8,27.4c1.7,0,2.7-1,2.8-2.8l0-3.2c0-5.7-0.2-12.4-0.6-19.8l3.4-0.1c0.3,9.8,0.5,16.7,0.5,20.5c0,1.7,0,3.3-0.1,4.6
		c0,1.1-0.3,2-0.8,2.6c-0.5,0.7-2,1.5-5.8,1.5c-0.8,0-1.7-0.1-2.7-0.2l-0.2-3.3C165.2,27.3,166.4,27.4,167.8,27.4z"/>
	<path class="st0" d="M167.3,21.9v-2.7c0-6.1-0.1-10.7-0.2-14l-4.8,0.2c0.1,1.1,0.1,2.5,0.1,4.2c0,4.1-0.1,8.1-0.3,12.1L167.3,21.9z
		 M163.3,6.4l2.7-0.1c0.1,3.2,0.2,7.6,0.2,13v1.6l-3.1-0.2c0.2-3.6,0.3-7.4,0.3-11.1C163.4,8.4,163.4,7.3,163.3,6.4z"/>
</g>
</svg>
