<?xml version="1.0" encoding="utf-8"?>
<!-- Generator: Adobe Illustrator 27.9.1, SVG Export Plug-In . SVG Version: 6.00 Build 0)  -->
<svg version="1.1" id="Layer_1" xmlns:inkscape="http://www.inkscape.org/namespaces/inkscape"
	 xmlns="http://www.w3.org/2000/svg" xmlns:xlink="http://www.w3.org/1999/xlink" x="0px" y="0px" viewBox="0 0 107.6 31.7"
	 style="enable-background:new 0 0 107.6 31.7;" xml:space="preserve">
<style type="text/css">
	.st0{fill:#070707;}
</style>
<g>
	<path class="st0" d="M12.6,22.9H18l0.3-0.6c0.2-0.4,0.3-0.7,0.4-0.9l0.9-1.5l-6.9,0.1V22.9z M13.6,20.9l4.2,0
		c-0.1,0.2-0.2,0.5-0.4,1c-1.2,0-2.4,0-3.7,0V20.9z"/>
	<path class="st0" d="M26.9,22.7l0.9,0l0.1-2.9l-6.5,0.1l-0.2,0.7c-0.1,0.3-0.2,0.7-0.3,1.1l-0.4,1.3l1.4,0
		C24.1,22.8,25.8,22.8,26.9,22.7z M22.2,20.8l4.7,0l0,1c-1.1,0-2.8,0.1-5,0.1C21.9,21.5,22.1,21.1,22.2,20.8z"/>
	<path class="st0" d="M28,17.9c0-0.6-0.4-1.4-1.7-1.4h0l-4.9,0v2.9l6.6-0.1V17.9z M27,18.4l-4.6,0v-0.9l3.9,0c0.4,0,0.7,0.1,0.7,0.4
		V18.4z"/>
	<path class="st0" d="M12.6,19.6l6.5-0.1v-2.9l-6.5,0.2V19.6z M13.6,17.8l4.5-0.1v0.6v0.2l-4.5,0.1V17.8z"/>
	<path class="st0" d="M7.4,12.8L8.2,15c1.7-0.6,3-1.4,4.1-2.4l-0.1,1.9l3.9,0l0-2.6c0.4,0.2,0.8,0.5,1.3,0.8l2.2-2.1
		c-0.6-0.3-1.4-0.6-2.2-0.9l2,0l-0.1-3.1l-3.2,0.1V5.9l8.2-0.2l0,1c-1.3,0-2.7,0-4.2,0l0.1,3l2.3,0c-0.7,0.5-1.7,1-3,1.5l1,2.8
		l-3.8-0.5c-0.2,0.7-0.3,1.2-0.4,1.5l-2.8,0l-0.1-0.4L8.9,15c0.3,1.7,0.4,4.5,0.4,8.3l0,1.5l6-0.1c-1.3,1.4-4.1,2.4-8.4,3.2l2,3.7
		c4.2-0.7,7.4-2.2,9.8-4.4c0,1.4,0,2.3,0.1,2.6c0.2,1.1,1.1,1.7,2.6,1.7c4.5,0,8.3-0.2,11.5-0.7l0-3c-4.1,0.5-7.2,0.7-9.2,0.7
		c-0.5,0-0.7-0.1-0.7-0.4l-0.1-3.6l1.3,0c-0.6,0.7-0.9,1.3-0.9,2c0,0.7,0.3,1.1,0.8,1.3c0.1,0,0.4,0,0.9,0c0.8,0,1.9,0,3.4-0.1v0.4
		l3.7-0.4c-0.1-1.4-0.4-2.4-0.8-3.3h0c0-0.7,0.1-1.7,0.1-2.7c0-1.2,0-2.9-0.1-5.1c0-1.3-0.7-1.9-2-1.9c-2.6,0-5.4,0-8.6,0.1l0.4-0.9
		h0.4c0.8-0.2,1.8-0.8,3-1.9c0,0.3,0,1.1-0.1,2.2l3.5,0v-2c0.9,0.6,1.8,1.4,2.8,2.3l3-2.3c-1-1-2.3-2-3.8-2.9l2.6-0.1l-0.2-3
		c-1.7,0-3.2,0-4.3,0.1l0-1c2.4,0,4.1-0.1,5-0.1l-0.4-4C29.9,1.6,26,1.7,20.9,1.7c-0.2-0.6-0.6-1.2-1.1-1.7l-5.4,0.6
		c0.6,0.6,1,1.1,1.1,1.3C13,2,10.4,2.1,7.5,2.1l0-1.2L2.1,1.1C2.2,3,2.3,4.6,2.3,5.9c0,13.2-0.8,21-2.3,23.2l5.8,1.2
		C6.7,27.3,7.3,21.5,7.4,12.8z M20.7,16c3.1-0.1,6-0.1,8.6-0.1c0.8,0,1,0.2,1,0.9c0.1,2.2,0.1,3.9,0.1,5.1c0,0.6,0,1.2,0,1.7h-0.7
		l0,0l-2.7,0l-0.3,0.4c-0.7,1-0.7,1.1-0.7,1.4c0,1,1.1,1,1.5,1l2-0.1l-0.2-0.7l1-0.2l-0.1-1.2l0.3,0.6c0.3,0.5,0.5,1.1,0.6,1.9
		l-1.6,0.2v-0.4l-1.1,0.1C27,27,25.9,27,25.1,27c-0.3,0-0.5,0-0.6,0c0,0-0.1-0.1-0.1-0.4c0-0.4,0.2-0.8,0.6-1.3l1.5-1.7l-4.6,0.1
		l0.1,4.6c0,0.6,0.4,1.4,1.7,1.4c1.9,0,4.7-0.2,8.3-0.6l0,1c-3,0.3-6.5,0.5-10.5,0.6c-1.5-0.1-1.6-0.7-1.7-0.9
		c0-0.1-0.1-0.6-0.1-2.5V25L18,26.6c-2.1,1.9-4.9,3.3-8.6,4l-1-1.9c3.8-0.8,6.3-1.9,7.6-3.3l1.7-1.7l-7.4,0.1l0-0.5
		c0-3.2-0.1-5.7-0.3-7.4l2.6-0.1l0.1,0.4l4.3-0.1l0.2-0.7c0.1-0.2,0.1-0.4,0.2-0.7l2.2,0.3l-0.5,1L20.7,16z M28.1,25.6l-0.6,0
		c-0.3,0-0.5,0-0.5,0c0,0,0.2-0.3,0.6-0.9l2.5,0L27.8,25C27.9,25.3,28,25.5,28.1,25.6z M1.5,28.4C2.4,26,3.3,20.5,3.3,5.9
		c0-1.1,0-2.4-0.1-3.9L6.5,2l0,1.1l1,0c2.9,0,5.5-0.1,7.9-0.3L17,2.8c0,0-0.7-1.4-0.7-1.4l3-0.3c0.2,0.3,0.4,0.7,0.6,1l0.2,0.7
		l0.7,0c4.5,0,8.1-0.1,10.7-0.2l0.2,2c-1,0-2.3,0.1-4,0.1l-1,0l0.1,3.1l1-0.1c0.9-0.1,2.1-0.1,3.3-0.1l0.1,1.1l-5,0.1l3,1.8
		c1,0.6,2,1.3,2.8,1.9l-1.4,1c-0.8-0.7-1.6-1.3-2.3-1.8l-1.6-1.1v2.9l-1.5,0c0-0.6,0-1,0-1.2V10l-1.7,1.5c-1.2,1.1-1.9,1.5-2.4,1.6
		h-0.2l-0.5-1.3c1-0.4,1.8-0.9,2.4-1.3l2.7-1.9l-4.6,0.1l0-1c1.1,0,2.2,0,3.2,0l1,0l-0.1-3L15.1,5v2.8l3.3-0.1l0,1.1l-1,0L17,10.7
		c0.3,0.1,0.5,0.2,0.8,0.3l-0.5,0.5c-0.2-0.2-0.5-0.3-0.7-0.4l-1.4-0.8l0,3.3l-1.8,0l0.2-3.4l-1.8,1.7c-0.7,0.7-1.7,1.3-2.8,1.8
		l-0.5-1.3l-1.9,0.3c-0.1,7.8-0.6,13.3-1.3,16.4L1.5,28.4z"/>
	<path class="st0" d="M10.9,10.6l2.5-1.9L9.2,8.9l0-1c1.2,0,2.1,0,2.9,0l1,0V5L6.5,5.1v1c0,1.9,0,3.7,0,5.2l0,1.5l1.4-0.5
		C9.1,11.7,10.2,11.2,10.9,10.6z M7.5,6.1L12.1,6v0.8c-1,0-2.3,0-3.9,0l0.1,3l2.1,0c-0.7,0.5-1.6,1-2.9,1.4C7.5,9.8,7.5,8,7.5,6.1z"
		/>
	<path class="st0" d="M42.9,0.2l-5.1,2.2C40,4.3,41.7,6,42.9,7.7l5.6-2.6C46.8,2.9,44.9,1.3,42.9,0.2z M43.2,6.5
		c-0.9-1.2-2.1-2.5-3.6-3.8l3.2-1.4c1.4,0.8,2.8,2,4.1,3.4L43.2,6.5z"/>
	<path class="st0" d="M42.5,16.5l5.5-2.7c-1.8-2.2-3.7-3.9-5.8-5.2l-5,2.6C39.5,13.1,41.3,14.8,42.5,16.5z M42.2,9.8
		c1.5,1,2.9,2.2,4.2,3.7l-3.6,1.7c-1-1.2-2.3-2.5-3.8-3.8L42.2,9.8z"/>
	<path class="st0" d="M47.8,18.9l-4.9-1.5c-0.5,4.1-2.1,8-4.8,11.5l5.8,2.8C46,28.7,47.3,24.4,47.8,18.9z M39.6,28.5
		c2.1-3,3.5-6.3,4.1-9.8l3,0.9c-0.5,4.5-1.6,8.1-3.2,10.7L39.6,28.5z"/>
	<path class="st0" d="M71.3,18L71,13c-2.4,0.1-5.4,0.2-8.9,0.4l0-3.7c4.1-0.1,6.5-0.3,7.1-0.4l-0.3-5.6c-2.1,0.1-4.4,0.2-6.9,0.4
		C61.8,3,61.8,1.7,61.8,0l-5.2,0.2l0,4c-2.4,0-4.8,0.1-7.3,0.2l0.1,5.6l7.2-0.3c0,1.1,0,2.4-0.1,3.8c-2.7,0.1-5.6,0.2-8.4,0.3
		l0.2,5.2c2,0,3.6-0.1,4.9-0.1c-1.8,3.3-2.8,5.6-2.9,6.9c-0.1,0.3-0.1,0.7-0.1,1.3c0,2.2,0.7,3.5,2.2,3.9c0.8,0.3,1.7,0.4,2.8,0.4
		c3.9,0,7.4-0.6,10.3-1.8l0.5,2.1l5.1-2.4c-0.8-3.1-2.3-6.4-4.5-9.9l-4.7,1.5c0.7,1.2,1.3,2.4,1.7,3.8c-2.4,0.9-4.6,1.4-6.4,1.4H57
		c-0.4,0-0.7-0.3-0.7-0.9c0-0.5,1-2.7,3-6.6C66.2,18.4,70.2,18.2,71.3,18z M58.6,17.6l-0.3,0.5c-3.1,6-3.1,6.6-3.1,7
		c0,1.4,0.9,1.9,1.7,1.9h0.3c1.9,0,4.2-0.5,6.7-1.5l0.9-0.3l-0.3-0.9c-0.3-1-0.7-2-1.2-2.9l2.8-0.9c1.7,2.9,3,5.6,3.7,8.2l-3.2,1.5
		l-0.5-2l-1.1,0.4c-2.8,1.1-6.1,1.7-9.9,1.7c-0.9,0-1.8-0.1-2.5-0.4c-0.5-0.1-1.5-0.4-1.5-3c0-0.6,0.1-0.9,0.1-1l0-0.1l0-0.1
		c0.1-0.8,0.7-2.6,2.8-6.5l0.9-1.6l-1.8,0.1c-1.1,0-2.4,0.1-3.9,0.1l-0.1-3.2c2.5,0,5-0.1,7.4-0.2l0.9,0l0-0.9
		c0-1.4,0.1-2.7,0.1-3.8v-1L50.4,9l-0.1-3.6c2.1-0.1,4.3-0.1,6.3-0.2l1,0l0-4L60.8,1c0,1.2,0,2.2,0.1,3L61,5l1-0.1
		c2.1-0.1,4-0.2,5.9-0.3L68,8.3c-0.9,0.1-2.7,0.2-6,0.3l-1,0l0.1,5.8l1-0.1c3.1-0.2,5.8-0.3,8-0.3l0.2,3.1c-1.4,0.1-4.5,0.3-11,0.5
		L58.6,17.6z"/>
	<path class="st0" d="M86.1,0.2c0,2.9-0.2,5.3-0.5,7.3c-3.1,0.2-6.8,0.4-10.9,0.7l0.3,5.6c3.8-0.2,7-0.4,9.6-0.5
		c-0.8,5.7-4,10.7-9.4,15.1l6.2,3.3c5.4-5,8.6-11.3,9.5-18.8c2.5-0.1,4.4-0.1,5.6-0.1c1.9,0,3.1,0.1,3.6,0.4c1,0.5,1.5,1.2,1.6,2
		c0.1,0.8,0.1,1.8,0.1,2.9c0,3.3-0.2,5.4-0.6,6.3c-0.2,0.7-1,1.1-2.2,1.1c-1.7,0-3.5-0.4-5.2-1.3l0,6.2c1.9,0.7,3.5,1.1,4.7,1.2
		s1.9,0.2,2.1,0.2c1.5,0,2.8-0.2,3.7-0.7c0.9-0.5,1.6-1.4,2-2.7s0.7-3.2,0.9-5.5s0.2-4.4,0.2-6.1c0-3.1-0.4-5.5-1.2-7
		c-0.7-1.3-1.8-2-3.3-2.2c-1.5-0.2-3.3-0.4-5.3-0.4c-1.9,0-4,0-6.3,0.1c0.2-1.8,0.4-4,0.5-6.7L86.1,0.2z M91.5,8.1
		c2.4,0,4.5-0.1,6.3-0.1c2,0,3.7,0.1,5.2,0.3c1.2,0.2,2,0.8,2.6,1.7c0.7,1.4,1.1,3.6,1.1,6.5c0,1.7-0.1,3.8-0.2,6.1
		c-0.2,2.2-0.4,4-0.8,5.3c-0.3,1.1-0.8,1.8-1.5,2.1c-0.8,0.4-1.9,0.6-3.2,0.6c-0.1,0-0.4,0-2-0.2c-1-0.1-2.3-0.4-3.8-0.9l0-3.9
		c1.4,0.5,2.8,0.8,4.2,0.8c2.1,0,2.8-1,3.1-1.8c0.3-0.6,0.6-2.1,0.6-6.7c0-1.2-0.1-2.2-0.2-3c-0.1-1.1-0.9-2.1-2.1-2.7
		c-0.5-0.2-1.3-0.5-4.1-0.5c-1.2,0-3.1,0-5.6,0.1l-0.9,0l-0.1,0.9c-0.8,7-3.7,12.9-8.6,17.7L77,28.2c4.9-4.3,7.8-9.2,8.6-14.7
		l0.2-1.2l-1.2,0c-2.4,0.1-5.3,0.2-8.7,0.4l-0.2-3.6c3.7-0.3,7.1-0.5,9.9-0.7l0.8-0.1l0.1-0.8C86.8,5.8,87,3.7,87,1.2l3.9,0.1
		c-0.1,2.2-0.2,4.1-0.4,5.6l-0.2,1.2L91.5,8.1z"/>
</g>
</svg>
