<?xml version="1.0" encoding="utf-8"?>
<!-- Generator: Adobe Illustrator 27.9.1, SVG Export Plug-In . SVG Version: 6.00 Build 0)  -->
<svg version="1.1" id="Layer_1" xmlns="http://www.w3.org/2000/svg" xmlns:xlink="http://www.w3.org/1999/xlink" x="0px" y="0px"
	 viewBox="0 0 68.2 35.2" style="enable-background:new 0 0 68.2 35.2;" xml:space="preserve">
<style type="text/css">
	.st0{fill:#282828;}
</style>
<g>
	<g>
		<g>
			<path class="st0" d="M54.8,0l3.9,0.9c-0.5,1.9-1.1,3.7-1.7,5.6c-0.7,1.8-1.4,3.6-2.2,5.2c-0.8,1.6-1.6,3-2.5,4.3
				c-0.3-0.2-0.6-0.5-1-0.8c-0.4-0.3-0.8-0.6-1.3-0.9c-0.4-0.3-0.8-0.5-1.1-0.7c0.8-1.1,1.6-2.4,2.4-3.8c0.7-1.5,1.4-3,2-4.7
				C53.9,3.4,54.4,1.7,54.8,0z M40.9,0l4.4,0.7c-0.4,1.2-0.8,2.5-1.3,3.7c-0.5,1.3-0.9,2.3-1.3,3.2l-3.3-0.8
				c0.2-0.6,0.4-1.4,0.6-2.2c0.2-0.8,0.4-1.6,0.5-2.5C40.7,1.4,40.8,0.7,40.9,0z M0,2.2h26.7v32.9h-4.3v-29H4.1v29H0V2.2z M64.4,6
				h3.8c0,0.5,0,0.9,0,1.2c0,0.3,0,0.5,0,0.7c-0.1,4.3-0.3,8-0.4,10.9c-0.1,3-0.3,5.4-0.5,7.4c-0.2,1.9-0.4,3.4-0.7,4.5
				c-0.3,1.1-0.6,1.9-1,2.4c-0.5,0.7-1,1.2-1.6,1.4c-0.5,0.3-1.2,0.4-1.9,0.6c-0.7,0.1-1.6,0.1-2.6,0.1c-1.1,0-2.2,0-3.3-0.1
				c0-0.6-0.2-1.2-0.4-2c-0.2-0.8-0.6-1.4-1-2c1.2,0.1,2.4,0.2,3.4,0.2c1,0,1.8,0,2.3,0c0.4,0,0.7,0,0.9-0.1
				c0.2-0.1,0.5-0.3,0.7-0.5c0.3-0.4,0.6-1,0.8-2.1s0.4-2.5,0.6-4.4c0.2-1.9,0.3-4.3,0.4-7.1c0.1-2.9,0.3-6.3,0.4-10.3V6z M54.5,6
				h11.3v3.7H54.5V6z M37.8,6.2h11.6v25.4H37.8V28h7.9V9.8h-7.9V6.2z M35.4,6.2h3.7v28.3h-3.7V6.2z M2.9,11h21v3.9h-21V11z M53,16.6
				l3.2-1.8c0.6,0.9,1.3,1.8,2.1,2.9c0.7,1.1,1.4,2.1,2.1,3c0.6,1,1.2,1.8,1.5,2.6l-3.5,2.1c-0.4-0.8-0.8-1.7-1.4-2.7
				c-0.6-1-1.3-2.1-2-3.1C54.3,18.6,53.6,17.5,53,16.6z M37.6,16.5h10V20h-10V16.5z M2.9,19.9h21v3.8h-21V19.9z M2.9,28.8h21v4h-21
				V28.8z"/>
		</g>
	</g>
</g>
</svg>
