<?xml version="1.0" encoding="utf-8"?>
<!-- Generator: Adobe Illustrator 27.9.1, SVG Export Plug-In . SVG Version: 6.00 Build 0)  -->
<svg version="1.1" id="Layer_1" xmlns:inkscape="http://www.inkscape.org/namespaces/inkscape"
	 xmlns="http://www.w3.org/2000/svg" xmlns:xlink="http://www.w3.org/1999/xlink" x="0px" y="0px" viewBox="0 0 71.3 32.1"
	 style="enable-background:new 0 0 71.3 32.1;" xml:space="preserve">
<style type="text/css">
	.st0{fill:#070707;}
</style>
<g>
	<path class="st0" d="M30.6,25.2h-0.1c-0.4-0.1-0.7-0.3-0.9-0.6c-0.1-0.3-0.2-0.9-0.2-1.7l0.1-3.9v-0.9c0-2.1-0.7-3.1-2-3.3
		c-0.7,0-1.6-0.1-2.4-0.1c-1.3,0-3.7,0-7.2,0.1L1.7,15.3l0.1,5.2c6-0.3,11-0.5,15.2-0.6c-1.3,1.2-2.6,2.3-4.1,3.2
		c-2.4-0.9-4.7-1.7-6.9-2.3l-3.7,3.9c1.3,0.4,2.5,0.9,3.7,1.3c-1.6,0.5-3.4,0.9-5.4,1.3l2.9,4.7c3.5-0.8,6.7-1.9,9.4-3.2
		c2.5,1.1,4.8,2.3,6.8,3.5l4.2-4.4c-1.9-0.9-3.7-1.7-5.5-2.4c1.5-1.1,2.9-2.4,4.2-3.9L18,19.9c1.2,0,2.3,0,3.3,0c0.8,0,1.3,0,1.6,0
		c1,0.1,1.5,0.7,1.5,1.7v3.2c0,1,0.1,2.1,0.4,3.5s0.8,2.2,1.6,2.7s1.6,0.7,2.4,0.7c1.5,0,3.4-0.6,5.5-1.7l-0.4-6.7
		C32.6,24.6,31.5,25.2,30.6,25.2z"/>
	<path class="st0" d="M8.3,8.8l0.1,4.7c12.8-0.1,20.4-0.2,23-0.3l-0.2-4.9c-2.3,0-5.9,0.1-10.7,0.2S12,8.6,9.6,8.6H8.4
		c0.3-0.5,0.5-1,0.6-1.5c15.5-0.3,23.7-0.5,24.7-0.6l-0.3-4.9c-2.6,0.1-6.1,0.2-10.6,0.3c-5.8,0.1-9.9,0.2-12.4,0.3
		c0.1-0.4,0.2-1,0.3-1.7L5.6,0.1C4.7,4.5,2.8,8.2,0,11.2l5.6,2.6C6.7,12.2,7.6,10.6,8.3,8.8z"/>
	<path class="st0" d="M71,18.6L67.7,15c-2.7,1.4-6.2,2.3-10.4,2.8c-0.5-0.9-1.2-1.9-2-3l14.8-0.2c0.2-2.2,0.3-3.5,0.3-3.9
		c0-2.2-0.5-3.4-1.5-3.7s-2.1-0.4-3.5-0.4c0.4-0.9,0.6-1.9,0.6-2.9c0-1.5-1.1-2.3-3.3-2.3l-4.8,0c-1.2,0-3.6,0-7.2,0.1l0.9-1.2
		L46.1,0c-1.6,2-4.1,3.6-7.7,5l2.2,2.1c0.1,1.6,0.1,3.7,0.1,6.3V15l5.5-0.1c-2.2,0.9-4.9,1.6-8.2,2l1.3,3.6c4.1-0.5,8-1.6,11.8-3.5
		l0.4,0.6c-4.3,2.4-8.8,3.8-13.7,4.4l1.7,3.6c4.8-0.8,9.4-2.5,13.5-5l0.5,1c-4.9,3-10.1,4.9-15.6,5.8l2.4,3.5c4.5-1,7.8-2.1,10-3.3
		l0.3,3.8c1.3,0.2,2.3,0.3,2.9,0.3c2.3,0,3.8-0.4,4.6-1.3s1.2-1.8,1.2-2.7s0.1-1.4,0.1-1.5c0-1.6-0.2-3.1-0.5-4.4l1.4-0.2
		c1.7,2.7,3.5,5.8,5.5,9.3l5.4-2.1c-2-3.4-4-6.3-5.9-8.5C67.5,19.8,69.4,19.2,71,18.6z M63.5,9.9c0.8,0.1,1.2,0.4,1.2,0.9l0,0.7
		l-7.6,0c0.4-0.7,0.6-1.3,0.7-1.8L63.5,9.9z M50.9,11.7l-5.2,0c0-0.5,0-1.1-0.1-1.9c0.4,0,1.5,0,3.4,0h3.4
		C52.1,10.3,51.6,11,50.9,11.7z M47,6.5c0.4-0.3,0.9-0.7,1.3-1.2C53.8,5.1,56.8,5,57.3,5C58.4,5,59,5.1,59,5.3s0.1,0.3,0.1,0.4
		c0,0.1-0.1,0.4-0.3,0.7L47,6.5z M52.6,27.4c-0.4,0-0.8-0.1-1.2-0.3c0.8-0.4,1.7-0.9,2.5-1.5l0,0.7C54,27,53.5,27.4,52.6,27.4z"/>
</g>
</svg>
