<?xml version="1.0" encoding="utf-8"?>
<!-- Generator: Adobe Illustrator 27.9.1, SVG Export Plug-In . SVG Version: 6.00 Build 0)  -->
<svg version="1.1" id="Layer_1" xmlns="http://www.w3.org/2000/svg" xmlns:xlink="http://www.w3.org/1999/xlink" x="0px" y="0px"
	 viewBox="0 0 148.5 35.6" style="enable-background:new 0 0 148.5 35.6;" xml:space="preserve">
<style type="text/css">
	.st0{fill:#282828;}
</style>
<g>
	<path class="st0" d="M6.3,27.8c-0.1-0.9-0.3-2-0.6-3.2c-0.3-1.3-0.6-2.4-1-3.4l-2.7,0.7C2.5,22.9,2.7,24,3,25.3
		c0.3,1.3,0.4,2.4,0.5,3.3L6.3,27.8z M4.1,22.3c0.2,0.8,0.5,1.6,0.7,2.5C5,25.6,5.1,26.4,5.2,27l-0.9,0.2c-0.1-0.7-0.2-1.4-0.4-2.2
		c-0.2-0.9-0.4-1.8-0.6-2.6L4.1,22.3z"/>
	<path class="st0" d="M12.5,22.9c-0.2,0.8-0.4,1.6-0.6,2.4c-0.2,0.8-0.4,1.5-0.6,2.1l2.5,0.8c0.3-0.8,0.7-1.9,1.1-3.1
		c0.4-1.2,0.8-2.4,1.1-3.5l-3.1-0.8C12.8,21.4,12.7,22.1,12.5,22.9z M13.5,23.1c0.1-0.4,0.2-0.8,0.2-1.1l1,0.3
		c-0.3,0.8-0.5,1.6-0.8,2.5c-0.2,0.8-0.5,1.5-0.7,2.1l-0.6-0.2c0.1-0.4,0.2-0.8,0.3-1.2C13.1,24.7,13.3,23.9,13.5,23.1z"/>
	<path class="st0" d="M107.4,8.6h-8.8v4.6h8.8V8.6z M106.4,12.2h-6.8V9.6h6.8V12.2z"/>
	<path class="st0" d="M53.9,22h7v-8.7h-7V22z M54.9,14.3h5V21h-5V14.3z"/>
	<path class="st0" d="M82.6,15.1h10.3V1.5H82.6h-1.7h-2.4v34h4.1V15.1z M81.6,34.5h-2.1v-32h12.4v11.6H81.6V34.5z"/>
	<path class="st0" d="M98.8,19.6h-9v4.6h9V19.6z M97.9,23.2h-7v-2.6h7V23.2z"/>
	<path class="st0" d="M31.6,10.6h-11v5.2h11V10.6z M30.6,14.9h-9v-3.2h9V14.9z"/>
	<path class="st0" d="M106.4,30.5c0,0.3-0.1,0.6-0.2,0.7c-0.1,0.1-0.4,0.2-0.7,0.2c-0.2,0-0.6,0-1.2,0c-0.5,0-1.2,0-1.8,0
		c-0.3,0-0.6,0-0.8,0V17.6H90.8h-2h-1.7v16.3h3.7V32h9.9c0.1,0.2,0.2,0.4,0.3,0.7c0.2,0.5,0.4,1,0.5,1.5c0.1,0.5,0.2,0.9,0.3,1.3
		c1.6,0,3,0,4.1-0.1c1.1-0.1,2-0.3,2.8-0.6c0.7-0.4,1.2-0.9,1.5-1.5c0.3-0.7,0.4-1.5,0.4-2.7v-29h-2h-2.1H95.8v13.6h10.6V30.5z
		 M100.7,31H89.8v1.9h-1.7V18.6h12.6V31z M96.8,14.2V2.5h12.7v28c0,1-0.1,1.7-0.3,2.3c-0.2,0.4-0.5,0.8-1,1
		c-0.6,0.3-1.4,0.4-2.4,0.5c-0.9,0.1-1.9,0.1-3.2,0.1c0-0.2-0.1-0.4-0.2-0.6c-0.1-0.5-0.3-1-0.5-1.5c0.2,0,0.4,0,0.5,0h3
		c0.6,0,1.1-0.2,1.4-0.5c0.3-0.3,0.5-0.8,0.5-1.4V14.2H96.8z"/>
	<path class="st0" d="M107.4,3.5h-8.8v4.4h8.8V3.5z M106.4,6.8h-6.8V4.5h6.8V6.8z"/>
	<path class="st0" d="M45.1,31.1c0.8-1.4,1.6-2.7,2.3-4.1c0.8-1.4,1.5-2.8,2.1-4.1l-3-2.7c-0.8,1.4-1.6,2.9-2.4,4.4
		c-0.9,1.5-1.7,2.9-2.5,4.2s-1.6,2.5-2.3,3.4l3.5,2.8C43.6,33.8,44.4,32.5,45.1,31.1z M40.7,32.1c0.6-0.8,1.2-1.7,1.8-2.7
		c0.8-1.3,1.7-2.8,2.5-4.3c0.6-1.1,1.3-2.2,1.8-3.3l1.5,1.3c-0.6,1.1-1.2,2.2-1.8,3.4c-0.7,1.4-1.5,2.8-2.3,4.1
		c-0.6,1-1.2,2-1.7,2.9L40.7,32.1z"/>
	<path class="st0" d="M63.6,24.7V10.6h-8.7h-1.7h-2v16.6h3.7v-2.5H63.6z M53.9,23.7v2.5h-1.7V11.6h10.4v12.1H53.9z"/>
	<path class="st0" d="M121.5,26c0.7,0.6,1.4,0.9,2.2,0.9c0.8,0,1.6-0.4,2.4-1.1c0.6-0.6,1.3-1.6,1.9-2.9c0.6-1.2,1.1-2.8,1.7-4.6
		c0.6-1.9,1.1-3.9,1.5-5.9c0.2-1.1,0.4-2.4,0.6-3.8l0.2-1.4l-1.3,0.2c-1.2,0.2-2.2,0.5-3.1,1c-1.7,0.8-3.1,1.8-4.3,3.1
		c-1.2,1.2-2.1,2.6-2.7,4.1c-0.6,1.5-0.9,2.9-0.9,4.3c0,1.5,0.2,2.7,0.6,3.7C120.4,24.6,120.9,25.4,121.5,26z M121.3,16
		c0.6-1.4,1.4-2.6,2.5-3.8c1.1-1.2,2.4-2.1,4-2.8c0.9-0.4,1.9-0.7,2.9-0.9c-0.2,1.2-0.4,2.5-0.6,3.7c-0.4,2.1-0.9,4-1.4,5.8
		c-0.6,1.8-1.1,3.3-1.7,4.5c-0.5,1.2-1.1,2-1.7,2.6c-0.6,0.6-1.1,0.8-1.7,0.8c-0.5,0-1-0.2-1.5-0.7c-0.5-0.4-0.9-1.1-1.2-2
		c-0.3-0.9-0.5-2-0.5-3.4C120.5,18.6,120.7,17.3,121.3,16z"/>
	<path class="st0" d="M81.6,13.1h8.5V8.6h-8.5V13.1z M82.6,9.6h6.5v2.5h-6.5V9.6z"/>
	<path class="st0" d="M43.4,16.8c0.8,0.5,1.5,0.9,2,1.3l2.3-3.4c-0.6-0.4-1.3-0.8-2.1-1.2c-0.8-0.4-1.7-0.9-2.6-1.4
		c-0.9-0.5-1.7-0.9-2.5-1.2l-2.2,3c0.8,0.4,1.6,0.8,2.5,1.3C41.7,15.8,42.6,16.3,43.4,16.8z M40.8,12.2c0.5,0.2,1.1,0.5,1.7,0.8
		l2.6,1.4c0.4,0.2,0.8,0.4,1.2,0.6l-1.1,1.7c-0.4-0.2-0.8-0.5-1.2-0.8c-0.8-0.5-1.7-1-2.6-1.5c-0.5-0.3-1-0.6-1.5-0.8L40.8,12.2z"/>
	<path class="st0" d="M1.8,11.2c0.3,0.3,0.5,0.7,0.7,0.9c0.3-0.2,0.6-0.5,0.9-0.8v1.5h3.8V16H1.7v3.5h5.5V30
		c-0.6,0.1-1.2,0.2-1.7,0.3c-1.6,0.3-3.1,0.5-4.4,0.7l0.8,3.6c1.4-0.3,2.9-0.5,4.4-0.8c1.6-0.3,3.3-0.6,5-0.9
		c1.3-0.2,2.5-0.5,3.7-0.7l0.8,2.9c1.7-0.4,3.6-0.8,5.7-1.3c2.1-0.5,4.1-1,6.2-1.5l-0.5-3.8c-1.5,0.4-3,0.7-4.5,1
		c-0.4,0.1-0.7,0.2-1.1,0.2V18.5h2.5c0.5,2.5,1.1,4.7,1.9,6.8c0.8,2.3,1.9,4.3,3.3,6.1c1.3,1.7,3,3.1,4.9,4.2
		c0.2-0.4,0.4-0.7,0.7-1.2c0.3-0.4,0.6-0.8,1-1.2c0.3-0.4,0.7-0.7,0.9-1c-1.7-0.8-3.2-2-4.5-3.5c-0.6-0.7-1.2-1.6-1.7-2.4
		c0.7-0.4,1.4-0.9,2.2-1.5c1.1-0.8,2.2-1.6,3.2-2.4l-2.7-2.8c-0.5,0.5-1.1,1.1-1.7,1.7c-0.7,0.6-1.4,1.2-2.1,1.7
		c-0.1,0.1-0.2,0.1-0.3,0.2c-0.6-1.5-1-3.1-1.4-4.7h6.8v-17H21.6h-2.1h-1.7v29.1c-0.5,0.1-0.9,0.2-1.3,0.3l-0.2-2.3
		c-1.8,0.3-3.6,0.6-5.5,0.9v-9.9H16V16h-5.2v-3.2h4.3V9.5l2.3-2.6c-0.5-0.7-1.1-1.4-1.9-2.3C14.8,3.8,14,3,13.1,2.2
		c-0.9-0.8-1.7-1.5-2.5-2.2H9.3H7.7H7.1c-0.4,1-1,2-1.6,3.2C4.8,4.3,4,5.4,3.1,6.4c-0.9,1.1-2,2.1-3.1,3c0.3,0.2,0.6,0.4,0.9,0.8
		C1.2,10.5,1.5,10.8,1.8,11.2z M18.7,31.4V2.5h14.7v15h-7l0.3,1.2c0.4,1.7,0.9,3.3,1.5,4.9l0.5,1.3l1.4-1c0.7-0.6,1.4-1.1,2.1-1.7
		c0.4-0.3,0.8-0.7,1.1-1l1.2,1.3c-0.7,0.6-1.5,1.1-2.3,1.7c-0.8,0.6-1.5,1-2.2,1.5L29.2,26l0.5,0.8c0.5,0.9,1.2,1.8,1.8,2.6
		c1,1.2,2.2,2.3,3.6,3.1c0,0,0,0.1-0.1,0.1c-0.4,0.4-0.7,0.9-1,1.3c-0.1,0.1-0.2,0.3-0.3,0.4c-1.5-0.9-2.7-2.1-3.8-3.4
		c-1.3-1.7-2.3-3.6-3.1-5.8c-0.7-2-1.4-4.3-1.9-6.7l-0.2-0.8h-4.3V31l2.3-0.5c1.1-0.3,2.3-0.5,3.5-0.8l0.2,1.8
		c-1.7,0.4-3.5,0.9-5.3,1.3c-1.7,0.4-3.3,0.8-4.7,1.1l-0.6-2L18.7,31.4z M14.1,11.8H9.8V17H15v1.5H9.8v12.1l1.2-0.2
		c1.5-0.2,2.9-0.5,4.4-0.7l0.1,1.4l-0.8,0.2c-1.1,0.2-2.3,0.4-3.4,0.6c0,0-7.4,1.4-8.5,1.6l-0.4-1.7c1-0.2,5.9-0.9,5.9-0.9V18.5H2.7
		V17h5.5v-5.2H4.4v-1.4h9.7V11.8z M5.3,9.4C5.6,9.2,5.8,8.9,6,8.6c1-1.2,1.9-2.4,2.6-3.6c0.3-0.4,0.5-0.9,0.8-1.3
		c0.4,0.4,0.9,0.9,1.3,1.3C11.6,6,12.3,6.9,13,7.7c0.5,0.6,0.9,1.2,1.3,1.7H5.3z M3.9,7.1C4.8,6,5.7,4.8,6.4,3.7
		C6.9,2.8,7.4,1.9,7.8,1h2.4c0.7,0.6,1.5,1.2,2.2,1.9c0.9,0.8,1.7,1.6,2.4,2.4c0.5,0.5,0.9,1.1,1.3,1.5l-1.3,1.5
		c-0.3-0.4-0.6-0.8-1-1.3c-0.7-0.9-1.5-1.8-2.3-2.7c-0.5-0.5-0.9-1-1.4-1.4L9.2,2.2L8.6,3.3C8.3,3.7,8.1,4.1,7.8,4.5
		C7.1,5.6,6.2,6.8,5.3,8C5,8.2,4.8,8.5,4.6,8.8l-0.9,1c0,0-1,0.9-1.1,0.9c0,0-0.1-0.1-0.1-0.1c-0.3-0.4-0.6-0.7-1-1.1
		c0,0,0,0-0.1-0.1C2.4,8.7,3.2,7.9,3.9,7.1z"/>
	<path class="st0" d="M98.8,25.2h-9v4.7h9V25.2z M97.9,28.9h-7v-2.7h7V28.9z"/>
	<path class="st0" d="M45.1,6.5c0.8,0.5,1.5,1,2,1.3l2.4-3.2v1.6h17.9v23.9c0,0.4-0.1,0.7-0.3,0.8c-0.2,0.2-0.5,0.2-1,0.3
		c-0.3,0-0.9,0-1.7,0c-0.8,0-1.7,0-2.7,0c-1,0-2-0.1-3.1-0.1c0.2,0.4,0.4,0.8,0.6,1.3c0.2,0.5,0.4,1,0.6,1.6c0.2,0.5,0.3,1,0.3,1.4
		c2.1,0,3.9,0,5.3-0.1c1.4-0.1,2.6-0.3,3.4-0.6c0.9-0.4,1.5-0.9,1.8-1.6c0.3-0.7,0.5-1.7,0.5-2.9v-24h2.9v-4H49.4v2.2
		c-0.5-0.4-1.2-0.8-2-1.2c-0.8-0.5-1.7-0.9-2.6-1.4c-0.9-0.5-1.7-0.9-2.5-1.3l-2.3,2.9c0.8,0.4,1.6,0.9,2.5,1.4
		C43.4,5.4,44.3,6,45.1,6.5z M50.4,3.3h22.8v2h-2.9v25c0,1.4-0.2,2.1-0.4,2.5c-0.2,0.5-0.7,0.8-1.3,1.1c-0.7,0.3-1.8,0.5-3.1,0.5
		c-1.2,0.1-2.7,0.1-4.5,0.1c-0.1-0.2-0.1-0.5-0.2-0.7c-0.2-0.5-0.4-1-0.6-1.5c0.5,0,1,0,1.5,0c0.7,0,1.3,0,1.9,0c0.3,0,0.6,0,0.8,0
		c0.8,0,1.3,0,1.6,0c0.7,0,1.2-0.2,1.6-0.5c0.4-0.4,0.6-0.9,0.6-1.6V5.2H50.4V3.3z M42.6,1.8c0.5,0.3,1.1,0.6,1.7,0.9
		c0.9,0.5,1.7,1,2.6,1.4c0.4,0.2,0.8,0.4,1.1,0.7l-1.2,1.6c-0.4-0.2-0.8-0.5-1.2-0.8c-0.8-0.5-1.7-1-2.6-1.6c-0.5-0.3-1-0.6-1.5-0.9
		L42.6,1.8z"/>
	<path class="st0" d="M31.6,4.1h-11v5.1h11V4.1z M30.6,8.2h-9V5.1h9V8.2z"/>
	<path class="st0" d="M119.9,29.7c1.1,0.9,2.4,1.4,3.7,1.4s2.6-0.5,3.7-1.4c1.2-1,2.2-2.4,3.2-4.2c1-1.8,1.8-4,2.6-6.6
		c0.7-2.2,1.2-4.4,1.6-6.6c0.2-1.4,0.5-2.7,0.7-4c0.9,0.1,1.7,0.3,2.5,0.6c1.3,0.5,2.4,1.3,3.3,2.2c0.9,1,1.6,2.1,2.1,3.3
		c0.5,1.3,0.7,2.7,0.7,4.2c0,1.4-0.2,2.8-0.7,3.9c-0.5,1.2-1.1,2.2-1.9,3.1c-0.8,0.9-1.8,1.6-2.8,2.2c-1.1,0.6-2.2,1-3.4,1.3
		c-0.5,0.1-1,0.2-1.6,0.3c-0.6,0.1-1.2,0.2-1.9,0.3l2.5,4c3.2-0.5,5.8-1.4,7.9-2.7c2.1-1.3,3.7-3.1,4.8-5.1c1.1-2.1,1.7-4.4,1.7-7.1
		c0-2-0.4-3.9-1.1-5.7c-0.7-1.8-1.7-3.3-3-4.7c-1.3-1.3-2.9-2.4-4.8-3.1c-1.9-0.7-3.9-1.1-6.3-1.1c-2.4,0-4.7,0.4-6.8,1.3
		c-2.1,0.8-3.9,2-5.5,3.5c-1.6,1.5-2.8,3.2-3.7,5.1c-0.9,1.9-1.3,4-1.3,6.1c0,2.1,0.3,4,1,5.6C117.8,27.5,118.8,28.8,119.9,29.7z
		 M118.3,14.6c0.8-1.8,2-3.4,3.5-4.8c1.5-1.4,3.2-2.5,5.2-3.3c2-0.8,4.1-1.2,6.4-1.2c2.2,0,4.1,0.4,5.9,1c1.7,0.7,3.2,1.7,4.4,2.9
		c1.2,1.2,2.2,2.7,2.8,4.3c0.7,1.6,1,3.4,1,5.3c0,2.5-0.5,4.7-1.5,6.6c-1,1.9-2.5,3.5-4.5,4.8c-1.9,1.2-4.2,2-6.9,2.5l-1.4-2.2
		c0.1,0,0.3,0,0.4-0.1c0.6-0.1,1.1-0.2,1.6-0.3c1.3-0.3,2.6-0.8,3.7-1.4c1.2-0.6,2.2-1.4,3.1-2.4c0.9-1,1.6-2.1,2.1-3.4
		c0.5-1.3,0.8-2.7,0.8-4.3c0-1.6-0.3-3.2-0.8-4.5c-0.5-1.4-1.3-2.6-2.3-3.7c-1-1-2.2-1.9-3.7-2.4c-0.8-0.3-1.7-0.6-2.7-0.7l-1-0.1
		l-0.2,1c-0.2,1.3-0.4,2.6-0.7,4c-0.4,2.1-0.9,4.3-1.5,6.4c-0.7,2.5-1.6,4.6-2.5,6.4c-0.9,1.7-1.9,3-2.9,3.9c-1,0.8-2,1.2-3.1,1.2
		c-1.1,0-2.1-0.4-3.1-1.1c-1-0.8-1.8-2-2.5-3.4c-0.6-1.5-1-3.3-1-5.2C117.1,18.3,117.5,16.4,118.3,14.6z"/>
	<path class="st0" d="M81.6,7.8h8.5V3.5h-8.5V7.8z M82.6,4.5h6.5v2.4h-6.5V4.5z"/>
</g>
</svg>
