<?xml version="1.0" encoding="utf-8"?>
<!-- Generator: Adobe Illustrator 27.9.1, SVG Export Plug-In . SVG Version: 6.00 Build 0)  -->
<svg version="1.1" id="Layer_1" xmlns:inkscape="http://www.inkscape.org/namespaces/inkscape"
	 xmlns="http://www.w3.org/2000/svg" xmlns:xlink="http://www.w3.org/1999/xlink" x="0px" y="0px" viewBox="0 0 66 32.4"
	 style="enable-background:new 0 0 66 32.4;" xml:space="preserve">
<style type="text/css">
	.st0{fill:#070707;}
</style>
<g>
	<path class="st0" d="M6.9,20.4c1.7,0,3.6,0.1,5.6,0.4l0.7-1.6c-1.9-0.2-4-0.3-6.3-0.3l-0.7,1.6L6.9,20.4z"/>
	<path class="st0" d="M3.3,23.9c17.3-0.1,26.4-0.2,27.5-0.3l-0.6-2.7c-3.6,0-8.1,0.1-13.7,0.1c-5.5,0.1-10,0.1-13.5,0.1L3.3,23.9z"
		/>
	<path class="st0" d="M13.4,17.2c-1.9-0.2-4-0.4-6.2-0.4l-0.7,1.6c2.2,0,4.3,0.1,6.3,0.3L13.4,17.2z"/>
	<path class="st0" d="M3.1,9.4c8.4,0,17.6-0.2,27.8-0.4c0.1-1.9,0.2-3.8,0.2-5.6s-1.3-2.8-3.8-2.9h-6.7c-5.4,0-9.6,0-12.4,0.1L8.1,0
		L2.7,0.6C3,3,3.2,5.2,3.2,7.2L3.1,9.4z M25.5,6.7L8.4,6.9l0-0.8l17.1-0.2V6.7z M21.2,2.9c2.3,0,3.5,0,3.8,0.1
		c0.3,0.1,0.4,0.3,0.5,0.7L8.4,3.9l0-0.8C13.8,2.9,18.1,2.9,21.2,2.9z"/>
	<path class="st0" d="M10.6,29c0.3-0.2,1.3-0.7,3.1-1.6c10.7-0.1,17.4-0.2,20.2-0.2l-0.6-2.7c-4.7,0-10,0.1-16,0.2
		c-6,0.1-11.7,0.1-17.3,0.1l0.2,2.7l5.8,0c-1.4,0.7-2.3,1.4-2.5,2c-0.2,0.3-0.3,0.6-0.3,0.9c0,0.5,0.2,0.9,0.6,1.2
		c0.5,0.3,1.2,0.6,2,0.6c1,0.1,2.2,0.1,3.6,0.1c3.9,0,9.1-0.2,15.6-0.7c0.3,0.2,0.6,0.4,0.9,0.8l6.5-0.8c-1.7-1.6-3.9-3-6.5-4.3
		l-6.2,0.6c1.6,0.7,2.5,1.1,2.6,1.2c-4.5,0.3-8,0.4-10.4,0.4c-1.1,0-1.6,0-1.7-0.1C10.2,29.3,10.3,29.1,10.6,29z"/>
	<path class="st0" d="M26.8,20.6l0.7-1.6c-2-0.3-4-0.4-6.3-0.4l-0.7,1.6C22.6,20.3,24.7,20.4,26.8,20.6z"/>
	<path class="st0" d="M32.5,14.2c-0.6-0.2-1.2-0.3-1.9-0.4c-0.7,0-1.5-0.1-2.6-0.1c-4.4,0-7.3,0-8.7,0l-0.1-0.7c0,0,0-0.1,0-0.2
		l12.8,0l-0.4-2.7C14.5,10.3,4.9,10.4,3,10.4L3.2,13c2.7,0,6.4-0.1,11.2-0.1c0,0.2,0.1,0.5,0.1,1L5.6,14v-0.5l-5.2,0.1
		c0.1,1.7,0.1,3.1,0.1,4c0,0.7,0,1.7,0,3l5.4,0.1l0-2.1c0-0.4-0.1-1.1-0.2-2l8.8-0.2c0,1.5-0.1,2.8-0.4,4.1l5.4,0.1l0-2
		c0-0.5,0-1.3-0.1-2.3c2.8,0,5.4,0,7.8,0c0.9,0,1.3,0.5,1.3,1.4c0,0.9-0.1,1.8-0.4,2.8l5.4,0.1c0.1-0.9,0.2-1.8,0.2-2.6
		c0-0.9-0.1-1.9-0.3-2.8C33.5,14.7,33.1,14.4,32.5,14.2z"/>
	<path class="st0" d="M27.1,18.6l0.7-1.5c-1.9-0.3-4-0.4-6.3-0.4l-0.7,1.6l0.8,0C23.2,18.2,25.1,18.3,27.1,18.6z"/>
	<path class="st0" d="M58.3,1.8c0.4,2,0.8,4.2,1.1,6.5c0.3,2.3,0.4,4.3,0.4,5.8c0,3.1-0.6,5.7-1.9,7.9c-1.3,2.2-3.3,4-6.1,5.5
		l4.8,4.2c3.3-2,5.7-4.4,7.3-7.2S66,18.4,66,14.4c0-3.9-0.5-8.4-1.6-13.7L58.3,1.8z"/>
	<path class="st0" d="M55.4,16.9l-3.7-3.7c-0.6,0.7-1,1.3-1.3,1.6s-0.5,0.4-0.7,0.4c-0.5,0-0.7-0.6-0.7-1.7c0-1.1,0.2-2.9,0.7-5.4
		c0.5-2.5,0.9-4.4,1.4-5.9L45.2,1c-0.6,1.9-1.1,4-1.5,6.2c-0.4,2.2-0.6,4.1-0.6,5.8c0,2.7,0.5,4.9,1.5,6.5c1,1.6,2.3,2.4,4,2.4
		C51,21.8,53.3,20.2,55.4,16.9z"/>
</g>
</svg>
