<?xml version="1.0" encoding="utf-8"?>
<!-- Generator: Adobe Illustrator 27.9.1, SVG Export Plug-In . SVG Version: 6.00 Build 0)  -->
<svg version="1.1" id="Layer_1" xmlns="http://www.w3.org/2000/svg" xmlns:xlink="http://www.w3.org/1999/xlink" x="0px" y="0px"
	 viewBox="0 0 72.3 35.6" style="enable-background:new 0 0 72.3 35.6;" xml:space="preserve">
<style type="text/css">
	.st0{fill:#282828;}
</style>
<g>
	<path class="st0" d="M23,0h4v13.1h-4V0z M7.3,0.1H11v35.5H7.3V0.1z M68.3,0.8h4v29.7c0,1.2-0.1,2.2-0.4,2.8
		c-0.3,0.6-0.8,1.1-1.5,1.5c-0.7,0.3-1.7,0.5-2.9,0.6c-1.2,0.1-2.7,0.2-4.5,0.2c-0.1-0.4-0.2-0.8-0.3-1.3c-0.2-0.5-0.3-1-0.5-1.5
		s-0.4-1-0.6-1.3c1.3,0.1,2.5,0.1,3.6,0.1c1.1,0,1.8,0,2.2,0c0.4,0,0.6-0.1,0.8-0.2c0.2-0.1,0.2-0.4,0.2-0.7V0.8z M40.5,1.8h15.5v13
		H40.5V1.8z M2.3,2.1l3.4,0.6C5.6,4.3,5.4,6,5.1,7.6c-0.3,1.7-0.6,3.2-0.9,4.7c-0.4,1.5-0.8,2.8-1.3,3.9c-0.2-0.2-0.5-0.4-0.8-0.6
		C1.7,15.5,1.4,15.2,1,15c-0.4-0.2-0.7-0.4-1-0.6c0.5-1,0.8-2.2,1.1-3.6c0.3-1.3,0.5-2.8,0.7-4.3C2.1,5.1,2.2,3.5,2.3,2.1z M16,3.6
		h18.2v3.7H16V3.6z M59.2,4.7h4V26h-4V4.7z M44.3,5.4v5.8h7.9V5.4H44.3z M3.2,7.4h11.2v3.9h-12L3.2,7.4z M13.8,11h22.2v3.8H13.8V11z
		 M44.5,13.7h4c-0.1,2-0.3,4-0.5,6.1c-0.2,2.1-0.6,4-1.1,6c-0.5,1.9-1.2,3.7-2.2,5.4c-0.9,1.7-2.2,3.2-3.7,4.4
		c-0.3-0.5-0.7-1-1.3-1.6c-0.5-0.6-1-1-1.5-1.3c1.4-1.1,2.5-2.4,3.2-3.9c0.8-1.5,1.4-3,1.8-4.7c0.4-1.7,0.7-3.4,0.9-5.2
		C44.3,17.1,44.4,15.4,44.5,13.7z M27.6,14.4h4.1v16.5c0,1.1-0.1,1.9-0.4,2.5c-0.3,0.6-0.7,1.1-1.5,1.4c-0.7,0.3-1.6,0.5-2.7,0.6
		c-1.1,0.1-2.3,0.1-3.8,0.1c-0.1-0.6-0.2-1.3-0.5-2.1c-0.2-0.8-0.5-1.4-0.8-2c1,0,2,0,2.9,0.1c0.9,0,1.5,0,1.8,0
		c0.3,0,0.5,0,0.6-0.1c0.1-0.1,0.2-0.3,0.2-0.5V14.4z M0.3,20.4c1.2-0.3,2.6-0.7,4.2-1.1c1.6-0.4,3.2-0.9,5-1.4
		c1.7-0.5,3.5-1,5.2-1.5l0.5,3.6c-2.4,0.8-4.8,1.5-7.3,2.3c-2.5,0.7-4.7,1.4-6.7,2L0.3,20.4z M52.6,18.2h3.8c0,0.4,0,0.7,0,0.9
		c0,0.2,0,0.5,0,0.6c-0.1,3.1-0.2,5.6-0.4,7.5c-0.2,1.9-0.4,3.4-0.6,4.4c-0.2,1-0.5,1.8-0.9,2.2c-0.4,0.5-0.7,0.8-1.2,1
		c-0.4,0.2-1,0.3-1.6,0.4c-0.5,0.1-1.2,0.1-2,0.1c-0.8,0-1.7,0-2.6-0.1c0-0.5-0.1-1.1-0.3-1.8c-0.2-0.7-0.4-1.2-0.7-1.7
		c0.8,0.1,1.6,0.1,2.3,0.1c0.7,0,1.2,0,1.6,0c0.3,0,0.6,0,0.7-0.1c0.2-0.1,0.4-0.2,0.6-0.4c0.2-0.3,0.4-0.8,0.6-1.7
		c0.2-0.9,0.3-2.2,0.4-4c0.1-1.8,0.2-4.1,0.3-7V18.2z M45.6,18.2h8.8v3.6h-8.8V18.2z M14.5,18.5h21.1v3.8H14.5V18.5z M16,24.5l3-1.9
		c0.6,0.6,1.2,1.2,1.8,1.9c0.6,0.7,1.1,1.4,1.7,2.1c0.5,0.7,0.9,1.3,1.2,1.9l-3.2,2.1c-0.3-0.6-0.7-1.2-1.1-1.9
		c-0.5-0.7-1-1.4-1.6-2.1C17.2,25.7,16.6,25.1,16,24.5z"/>
</g>
</svg>
