<?xml version="1.0" encoding="utf-8"?>
<!-- Generator: Adobe Illustrator 27.9.1, SVG Export Plug-In . SVG Version: 6.00 Build 0)  -->
<svg version="1.1" id="Layer_1" xmlns:inkscape="http://www.inkscape.org/namespaces/inkscape"
	 xmlns="http://www.w3.org/2000/svg" xmlns:xlink="http://www.w3.org/1999/xlink" x="0px" y="0px" viewBox="0 0 214 31.8"
	 style="enable-background:new 0 0 214 31.8;" xml:space="preserve">
<style type="text/css">
	.st0{fill:#070707;}
</style>
<g>
	<path class="st0" d="M19.4,13.7v-1.3l11.3-0.3l-0.1-4.4L19.3,7.9c0-0.7,0-1.2-0.1-1.4C26.5,6.4,30.8,6.3,32,6.3l-0.1-4.2l-5.2,0.1
		c0.2-0.6,0.4-1.1,0.7-1.7l-6-0.5l-0.8,2.3l-7.5,0.2c-0.4-0.9-0.9-1.7-1.4-2.5l-6,0.8l1.2,1.7c-2,0-3.8,0.1-5.7,0.1l0.2,4.2
		l12.1-0.2c0,0.4,0,0.9,0,1.4L2.7,8.5l0.1,4.4c3.1,0,6.6-0.1,10.7-0.3l0,1.3C8.5,14,4,14.1,0,14.1l0.1,4.5c3.1-0.1,9.2-0.2,18.2-0.4
		c9-0.1,14.2-0.3,15.5-0.3l-0.2-4.5C29.6,13.5,24.8,13.6,19.4,13.7z"/>
	<path class="st0" d="M33.2,24.4L33.1,20l-13.4,0.2c0.1-0.4,0.1-0.9,0.1-1.3l-6.8-0.1c0,0.5-0.1,1.1-0.2,1.6
		c-5.1,0.1-9.2,0.2-12.2,0.2L0.8,25l10.9-0.2c-1.7,1.3-5.1,2.3-10.4,2.9l2.2,4.1c5.8-0.4,10.3-1.9,13.5-4.4c4.7,1.1,9,2.5,13,4.2
		l3.2-4.2c-2.4-1.1-6.1-2.1-11.2-2.9L33.2,24.4z"/>
	<path class="st0" d="M65.8,8.9c-5.3,1.3-9.7,3-13.3,5c-0.4-0.1-0.8-0.3-0.9-0.4c-0.2-0.1-0.3-0.3-0.3-0.5c0-0.5,0.4-1.9,1.1-4.2
		c3.2-0.4,6.3-0.6,9.3-0.6c0.3,0,0.7,0,1.1,0l0.3-5.3c-0.8,0-1.7-0.1-2.6-0.1c-2,0-4.1,0.1-6.2,0.3c0.3-0.8,0.6-1.5,0.9-2l-5.8-1
		c-0.5,1.2-0.9,2.5-1.3,3.7c-2.6,0.4-5.1,0.9-7.5,1.4l0.9,5.5c1.6-0.4,3.2-0.7,4.8-1c-0.6,2.5-1,4.2-1,5.2c0,0.6,0.2,1.2,0.5,1.6
		c0.3,0.4,0.9,0.8,1.8,1.3c-1.8,2-2.7,4-2.7,6.1c0,4.5,4.2,6.8,12.5,6.8c2.9,0,6-0.3,9.3-0.8L66.1,24c-3.3,0.7-6.6,1.1-9.9,1.1
		c-3.6,0-5.4-0.6-5.4-1.8c0-0.9,0.9-2,2.8-3.3c2.4,0.8,4.8,2,7.3,3.5l2.7-4.8c-1.2-0.8-2.4-1.5-3.7-2c2.5-1,5-1.8,7.5-2.4L65.8,8.9z
		"/>
	<path class="st0" d="M98.8,22.6c1.3,2.4,2.4,5.2,3.2,8.3l5.3-2.1c-1.1-3.2-2.4-5.9-3.8-8L98.8,22.6z"/>
	<path class="st0" d="M92.8,26.7c-1.2,0.1-2,0.1-2.5,0.1c-0.9,0-1.6-0.1-2-0.3c-0.3-0.1-0.5-0.6-0.7-1.4c-0.1-1-0.2-2.2-0.2-3.4
		h-4.9l-0.1,3.1c0,2.2,0.3,3.8,1,4.8c0.7,1.1,1.8,1.8,3.2,1.9c1.4,0.2,2.6,0.3,3.7,0.3c1,0,2.1,0,3.2-0.1c2.3-0.2,4.1-0.7,5.4-1.2
		l-0.1-5C96,26.2,94,26.6,92.8,26.7z"/>
	<path class="st0" d="M73.8,29l5,2c1.4-2.4,2.2-5.3,2.6-8.6l-4.6-0.6C76.4,24.8,75.4,27.2,73.8,29z"/>
	<path class="st0" d="M73.1,15.3l4.2,2.9c0.2-0.2,0.7-0.7,1.6-1.6l-0.2,3.8l5.5,0.3l0.1-6.3c0.8,0.5,1.3,0.9,1.7,1.1l2.6-3.5
		c-1.7-1-3.1-1.7-4.3-2.2V8.8l3.6-0.1l-0.3-4.6l-3.4,0.1l-0.1-4l-5.1,0.3c0.1,1.9,0.2,3.2,0.2,3.9c-1.7,0-3,0-4,0h-0.9l0.1,4.6
		l4.3-0.1C77.7,11,75.8,13.1,73.1,15.3z"/>
	<path class="st0" d="M89.4,19.7H90l-2,0.6c1.3,1.9,2.2,3.7,2.8,5.5l5.2-1.6c-0.7-1.8-1.6-3.3-2.7-4.5c3.9,0,8.1-0.1,12.8-0.2
		c0.2-3.6,0.3-8.6,0.3-15.1c0-2.2-1.4-3.4-4.3-3.5h-1.5c-2.4,0-4.6,0-6.3,0.1l-0.1-0.7l-5.2,0.4c0.4,2.6,0.6,8,0.6,16.3L89.4,19.7z
		 M100.6,16c-2.8,0.1-4.7,0.2-5.6,0.2h-0.4v-1.5c1,0,3-0.1,6.1-0.2L100.6,16z M100.7,11.1c-2.8,0.1-4.9,0.2-6.2,0.2V9.7
		c2.6-0.1,4.7-0.2,6.3-0.2L100.7,11.1z M94.5,4.9c2-0.1,3.5-0.2,4.5-0.2c0.5,0,0.9,0.1,1.3,0.1c0.5,0.1,0.8,0.3,0.8,0.7v0.7
		c-3.1,0-5.3,0.1-6.6,0.1C94.5,5.4,94.5,5,94.5,4.9z"/>
	<path class="st0" d="M121,0.7l-5-0.6c-0.7,5.6-2.7,10.1-5.9,13.4l2.2,6.5c0.8-0.8,1.5-1.4,1.9-2c0,5-0.2,9.6-0.4,13.6l5.8,0.1v-4.5
		c0-5.9-0.1-12-0.3-18.2C119.9,7.4,120.5,4.7,121,0.7z"/>
	<path class="st0" d="M141.4,14.7c-2.4,1.5-4.7,2.4-6.9,2.9c-0.3-0.7-0.7-1.7-1.4-2.9l10.1-0.2c0.3-2.4,0.5-3.8,0.5-4.2
		c0-1.9-0.7-3.1-2-3.7c0.5-1.1,0.7-2.1,0.7-3c0-1.5-1.4-2.3-4.3-2.4l-2.1,0c-1.4,0-3.2,0-5.4,0.1l0-0.3l-4.7-0.9
		c-1.3,2.3-3,4.1-5.1,5.5l1.2,1.1c0.1,2,0.2,4,0.2,5.9l0,2.3l3.8-0.1c-1.8,1-3.7,1.8-5.8,2.5l2.4,3.4c3.1-1.2,5.3-2.3,6.7-3.2
		l0.1,0.2c-2.9,2.4-5.8,4.1-8.6,5.2l1.9,3.4c3-1.3,5.7-2.9,8-5l0.1,0.5c-3.4,3-6.4,5.1-9.2,6.2l2.1,3.3c2.5-1.3,4.2-2.2,5-2.9
		l0.2,2.9c1.2,0.3,2.1,0.5,2.6,0.5c1.9,0,3.2-0.5,3.8-1.6c0.5-0.8,0.8-1.7,0.8-2.5c0-0.8,0-1.3,0-1.5c0-1.5-0.1-2.9-0.3-4.3
		c1,2.4,2.2,5.6,3.4,9.4l5-1.9c-1.3-3.6-2.7-6.7-4.1-9.1c1.7-0.5,3.1-1.1,4.2-1.6L141.4,14.7z M138.4,10.7c0,0.3,0,0.5-0.1,0.7
		l-3.5,0c0.2-0.7,0.4-1.4,0.5-2.1l2.5,0C138.2,9.5,138.4,9.9,138.4,10.7z M129.5,11.5l-2.5,0.1l0-2.1c0.2-0.1,1.4-0.1,3.6-0.1
		C130.2,10.2,129.8,10.9,129.5,11.5z M129.8,27.3h-0.3l1.6-1.7c0.1,0.3,0.1,0.5,0.1,0.6C131.1,27,130.7,27.3,129.8,27.3z M127.7,6.4
		c0.4-0.5,0.7-0.9,0.9-1.2c3.7-0.2,5.9-0.4,6.7-0.4c0.4,0,0.6,0.1,0.6,0.3c0,0.2,0,0.3,0,0.4c0,0.2-0.1,0.5-0.2,0.7
		C132.6,6.3,129.9,6.3,127.7,6.4z"/>
	<path class="st0" d="M170.5,0.5L164.6,1c0.2,0.6,0.3,1.3,0.5,2.2c-5.5,0.3-10.7,1-15.7,2l1.2,5.6c4.7-1.2,9.7-1.9,15.2-2.2
		c0,0.4,0.1,0.9,0.1,1.4c-0.8-0.2-1.6-0.3-2.5-0.3c-2.5,0-4.5,0.7-6,2c-1.5,1.4-2.3,3.2-2.3,5.4s0.7,4,2.2,5.3s3.3,2,5.7,2
		c1.1,0,2.1-0.1,3-0.4c-0.9,2-2.3,3.7-4.3,5l5.8,2.3c1.6-1.3,2.8-3,3.8-5.1s1.4-4.2,1.4-6.1c0-2-0.2-3.6-0.7-4.9
		c0.1-0.8,0.2-1.8,0.2-2.9c0-1.1-0.1-2.4-0.2-4c2.6,0,5.2,0.2,7.7,0.4l0.5-5.6c-2.9-0.2-5.9-0.3-9-0.3
		C170.9,2.2,170.7,1.3,170.5,0.5z M165.3,18.5c-0.4,0.6-1.1,0.9-2.1,0.9s-1.6-0.2-2.1-0.6c-0.5-0.4-0.7-1-0.7-1.8s0.2-1.4,0.7-1.9
		c0.5-0.5,1.1-0.7,1.8-0.7c1.5,0,2.5,0.5,3.1,1.4C166,17,165.7,18,165.3,18.5z"/>
	<path class="st0" d="M207.1,11.5c1.8-1.4,2.7-3,2.7-5c0-1.7-0.8-2.9-2.3-3.7c-1.5-0.8-3.9-1.2-7-1.2s-6.6,0.3-10.3,0.8l1,5.7
		c3.6-0.6,6.8-1,9.7-1c1.6,0,2.3,0.2,2.3,0.7c0,0.9-2.4,2-7.3,3.1l1.1,5.4c1.5-0.4,3.2-0.6,5-0.6c1.8,0,3.3,0.4,4.3,1.2
		c1.1,0.8,1.6,2,1.6,3.5c0,1.5-0.6,2.7-1.7,3.5c-1.2,0.9-2.8,1.3-5,1.4l3-2.6c-2.2-3.5-5.1-5.2-8.5-5.2c-1.8,0-3.3,0.6-4.5,1.8
		c-1.2,1.2-1.9,2.7-1.9,4.5c0,2.2,1,4,3,5.3c2,1.3,4.7,1.9,8.2,1.9c4.2,0,7.6-0.9,10-2.8c2.4-1.8,3.6-4.4,3.6-7.6
		c0-2.2-0.6-4.1-1.8-5.7C211,13.4,209.3,12.2,207.1,11.5z M196,24.8c-0.8-0.3-1.2-0.8-1.2-1.2c0-0.5,0.4-0.7,1.1-0.7
		c0.4,0,0.9,0.2,1.5,0.7c0.6,0.5,1.2,1.1,1.7,1.9C197.8,25.3,196.8,25.1,196,24.8z"/>
</g>
</svg>
