<?xml version="1.0" encoding="utf-8"?>
<!-- Generator: Adobe Illustrator 27.9.1, SVG Export Plug-In . SVG Version: 6.00 Build 0)  -->
<svg version="1.1" id="Layer_1" xmlns="http://www.w3.org/2000/svg" xmlns:xlink="http://www.w3.org/1999/xlink" x="0px" y="0px"
	 viewBox="0 0 358.9 65.8" style="enable-background:new 0 0 358.9 65.8;" xml:space="preserve">
<g>
	<path d="M37.7,51.4H12.6V38.4h21.6V25.9H12.6V13.7h25.1V1.3H0v62.5h37.7V51.4z M35.2,61.3H2.5V3.8h32.7v7.4H10.1v17.2h21.6v7.5
		H10.1v17.9h25.1V61.3z"/>
	<path d="M65.9,52.4c-5.4,0-9.4-2-12.1-6.4l-10,7.1c4.2,7.8,11.8,12,22,12c13.4,0,22.7-7.3,22.7-18.7c0-9.6-6.5-14.9-16.9-19.8
		c-7.2-3.4-11.9-4.7-11.9-8.4c0-3.2,3.5-5.9,8.2-5.9c3.5,0,7.1,1.5,9,5.2l9.3-6.5C83.2,3.5,76.1,0,67.6,0C56.1,0,46.9,7.1,46.9,18
		c0,10,7.7,13.8,14.7,17.3c6.6,3.3,14,6.9,14,11.4C75.7,50,71.8,52.4,65.9,52.4z M63.3,33.2L62.8,33c-6.9-3.4-13.4-6.6-13.4-15.1
		c0-9,7.6-15.5,18.1-15.5c4.3,0,11.8,1.1,15.3,7.7l-5.5,3.8c-2.3-2.7-5.7-4.2-9.6-4.2c-6,0-10.7,3.7-10.7,8.4c0,4.7,4.3,6.6,9.7,9
		c1.1,0.5,2.3,1,3.6,1.6C81.7,34.2,85.9,39,85.9,46.4c0,9.8-7.9,16.2-20.2,16.2c-8.3,0-14.7-3-18.6-8.8l6.1-4.3
		c3.1,3.6,7.4,5.5,12.7,5.5c7.3,0,12.4-3.4,12.4-8.2C78.2,40.7,70.6,36.9,63.3,33.2z"/>
	<path d="M107.6,63.8h12.6V13.8h15.4V1.3H92.2v12.5h15.4V63.8z M94.7,11.3V3.8H133v7.5h-15.4v50.1h-7.6V11.3H94.7z"/>
	<path d="M142.3,65.8c4.4,0,8-3.6,8-8c0-4.3-3.7-8-8-8c-4.4,0-8,3.6-8,8C134.3,62.3,137.9,65.8,142.3,65.8z M142.3,52.3
		c2.9,0,5.5,2.6,5.5,5.5c0,3-2.5,5.5-5.5,5.5c-3,0-5.5-2.5-5.5-5.5C136.8,54.8,139.3,52.3,142.3,52.3z"/>
	<path d="M187.5,63.8h12.6V0.5h-3.7l-16,5.1v13.1l7.1-2.1V63.8z M182.9,15.4v-8L196.8,3h0.8v58.3H190v-48L182.9,15.4z"/>
	<path d="M226.5,41.9c1.2,0,2.5-0.2,3.7-0.5l-12.5,22.4h14.4c17.7-31.3,20.1-33.7,20.1-41.7c0-11.9-9.6-21.9-22-21.9
		c-12.3,0-22,10-22,21.8C208.2,33.2,216.9,41.9,226.5,41.9z M230.2,2.7c10.7,0,19.5,8.7,19.5,19.4c0,5.7-1.1,7.9-11.4,25.9
		c-2.1,3.7-4.6,8.1-7.6,13.3H222l13.2-23.7l-5.6,1.4c-1,0.3-2.1,0.4-3.1,0.4c-8.5,0-15.8-8-15.8-17.4
		C210.7,11.4,219.5,2.7,230.2,2.7z"/>
	<path d="M230.2,34.1c6.5,0,12-5.5,12-11.9c0-6.5-5.5-12-12-12c-6.6,0-11.9,5.4-11.9,12C218.2,28.7,223.7,34.1,230.2,34.1z
		 M230.2,12.7c5.2,0,9.5,4.3,9.5,9.5s-4.3,9.4-9.5,9.4s-9.4-4.3-9.4-9.4C220.7,17.1,225,12.7,230.2,12.7z"/>
	<path d="M279.6,34.1c6.5,0,12-5.5,12-11.9c0-6.5-5.5-12-12-12c-6.6,0-11.9,5.4-11.9,12C267.7,28.7,273.1,34.1,279.6,34.1z
		 M279.6,12.7c5.2,0,9.5,4.3,9.5,9.5s-4.3,9.4-9.5,9.4s-9.4-4.3-9.4-9.4C270.2,17.1,274.4,12.7,279.6,12.7z"/>
	<path d="M275.9,41.9c1.2,0,2.5-0.2,3.7-0.5l-12.5,22.4h14.4c17.7-31.3,20.1-33.7,20.1-41.7c0-11.9-9.6-21.9-22-21.9
		c-12.3,0-22,10-22,21.8C257.6,33.2,266.4,41.9,275.9,41.9z M279.6,2.7c10.7,0,19.5,8.7,19.5,19.4c0,5.7-1.1,7.9-11.4,25.9
		c-2.1,3.7-4.6,8.1-7.6,13.3h-8.7l13.2-23.7L279,39c-1,0.3-2.1,0.4-3.1,0.4c-8.5,0-15.8-8-15.8-17.4C260.1,11.4,268.9,2.7,279.6,2.7
		z"/>
	<path d="M332.9,54.7c9.5,0,15.8-8.9,15.8-22.2c0-13.3-6.4-22.2-15.8-22.2c-9.5,0-15.8,8.9-15.8,22.2
		C317.1,45.8,323.4,54.7,332.9,54.7z M332.9,12.8c8.1,0,13.3,8.2,13.3,19.7c0,11.5-5.2,19.7-13.3,19.7c-8.1,0-13.3-8.1-13.3-19.7
		C319.6,21,324.8,12.8,332.9,12.8z"/>
	<path d="M333,64.9c15.5,0,25.9-13.4,25.9-32.3c0-19-10.4-32.4-25.9-32.4c-15.5,0-25.9,13.4-25.9,32.4
		C307.1,51.5,317.5,64.9,333,64.9z M333,2.7c14,0,23.4,12,23.4,29.9c0,17.9-9.4,29.8-23.4,29.8c-14,0-23.4-12-23.4-29.8
		C309.6,14.7,319,2.7,333,2.7z"/>
</g>
</svg>
