<?xml version="1.0" encoding="utf-8"?>
<!-- Generator: Adobe Illustrator 27.9.1, SVG Export Plug-In . SVG Version: 6.00 Build 0)  -->
<svg version="1.1" id="Layer_1" xmlns:inkscape="http://www.inkscape.org/namespaces/inkscape"
	 xmlns="http://www.w3.org/2000/svg" xmlns:xlink="http://www.w3.org/1999/xlink" x="0px" y="0px" viewBox="0 0 214 31.8"
	 style="enable-background:new 0 0 214 31.8;" xml:space="preserve">
<style type="text/css">
	.st0{fill:#070707;}
</style>
<g>
	<path class="st0" d="M18.4,18.3c9-0.1,14.2-0.3,15.5-0.3l-0.2-4.5c-4.1,0-8.9,0.1-14.2,0.3v-1.3l11.3-0.3l-0.1-4.4L19.3,7.9
		c0-0.7,0-1.2-0.1-1.4C26.5,6.4,30.8,6.3,32,6.3l-0.1-4.2l-5.2,0.1c0.2-0.6,0.4-1.1,0.7-1.7l-6-0.5l-0.8,2.3l-7.5,0.2
		c-0.4-0.9-0.9-1.7-1.4-2.5l-6,0.8l1.2,1.7c-2,0-3.8,0.1-5.7,0.1l0.2,4.2l12.1-0.2c0,0.4,0,0.9,0,1.4L2.7,8.5l0.1,4.4
		c3.1,0,6.6-0.1,10.7-0.3l0,1.3C8.5,14,4,14.1,0,14.1l0.1,4.5C3.3,18.5,9.3,18.4,18.4,18.3z M13.5,14.9l0.9,0l0.1-3.3l-1.1,0
		c-3.6,0.1-6.8,0.2-9.6,0.2L3.8,9.4l10.7-0.4v-1c0-0.6,0-1.1,0-1.5l-0.1-1L2.3,5.8L2.2,3.6c1.5,0,3.1,0,4.7-0.1l1.8,0L7.4,1.6
		l3.8-0.5c0.4,0.6,0.7,1.2,1,1.8l0.3,0.6l8.8-0.2L22,1.1l3.9,0.3c-0.1,0.2-0.1,0.3-0.2,0.5l-0.4,1.3l5.6-0.1L31,5.3
		c-1.9,0.1-5.8,0.1-11.8,0.3l-1.3,0l0.3,1.2c0,0,0,0.2,0,1.1v1l11.3-0.3l0.1,2.4l-11.3,0.3v3.3l1,0c4.9-0.1,9.4-0.2,13.3-0.2
		l0.1,2.5c-2.2,0.1-7,0.2-14.5,0.3c-8.1,0.1-13.9,0.2-17.3,0.3L1,15.1C4.8,15.1,9,15,13.5,14.9z"/>
	<path class="st0" d="M13.1,18.8c0,0.5-0.1,1.1-0.2,1.6c-5.1,0.1-9.2,0.2-12.2,0.2L0.8,25l10.9-0.2c-1.7,1.3-5.1,2.3-10.4,2.9
		l2.2,4.1c5.8-0.4,10.3-1.9,13.5-4.4c4.7,1.1,9,2.5,13,4.2l3.2-4.2c-2.4-1.1-6.1-2.1-11.2-2.9l11.1-0.1L33.1,20l-13.4,0.2
		c0.1-0.4,0.1-0.9,0.1-1.3L13.1,18.8z M32.1,21l0.1,2.4l-10.1,0.1l-0.2,2c4.2,0.7,7.4,1.5,9.7,2.4l-1.9,2.5c-3.8-1.6-8-2.9-12.4-4
		l-0.5-0.1l-0.4,0.3c-2.9,2.3-7.1,3.6-12.3,4.1L3,28.5c4.6-0.6,7.7-1.6,9.4-2.9l2.3-1.8L1.8,24l-0.1-2.4c2.9,0,6.7-0.1,11.2-0.2
		l0.8,0l0.2-0.8c0-0.3,0.1-0.5,0.1-0.8l4.8,0.1c0,0-0.2,1.3-0.2,1.3L32.1,21z"/>
	<path class="st0" d="M66.1,24c-3.3,0.7-6.6,1.1-9.9,1.1c-3.6,0-5.4-0.6-5.4-1.8c0-0.9,0.9-2,2.8-3.3c2.4,0.8,4.8,2,7.3,3.5l2.7-4.8
		c-1.2-0.8-2.4-1.5-3.7-2c2.5-1,5-1.8,7.5-2.4l-1.7-5.2c-5.3,1.3-9.7,3-13.3,5c-0.4-0.1-0.8-0.3-0.9-0.4c-0.2-0.1-0.3-0.3-0.3-0.5
		c0-0.5,0.4-1.9,1.1-4.2c3.2-0.4,6.3-0.6,9.3-0.6c0.3,0,0.7,0,1.1,0l0.3-5.3c-0.8,0-1.7-0.1-2.6-0.1c-2,0-4.1,0.1-6.2,0.3
		c0.3-0.8,0.6-1.5,0.9-2l-5.8-1c-0.5,1.2-0.9,2.5-1.3,3.7c-2.6,0.4-5.1,0.9-7.5,1.4l0.9,5.5c1.6-0.4,3.2-0.7,4.8-1
		c-0.6,2.5-1,4.2-1,5.2c0,0.6,0.2,1.2,0.5,1.6c0.3,0.4,0.9,0.8,1.8,1.3c-1.8,2-2.7,4-2.7,6.1c0,4.5,4.2,6.8,12.5,6.8
		c2.9,0,6-0.3,9.3-0.8L66.1,24z M57.2,29.7c-11.5,0-11.5-4.3-11.5-5.8c0-1.8,0.8-3.7,2.5-5.4l0.9-1l-1.2-0.6c-0.9-0.4-1.3-0.8-1.4-1
		c-0.2-0.2-0.3-0.6-0.3-1c0-0.6,0.2-2,0.9-5l0.4-1.5L46,8.7c-1.2,0.2-2.5,0.5-3.8,0.7L41.6,6c2-0.5,4.2-0.9,6.5-1.2l0.6-0.1l0.2-0.6
		c0.3-1,0.7-2,1-2.9l3.7,0.6c-0.1,0.3-0.2,0.6-0.3,0.9l-0.6,1.5L54.4,4c2.1-0.2,4.2-0.3,6.1-0.3c0.5,0,1,0,1.5,0l-0.2,3.4h-0.1
		c-3,0-6.2,0.2-9.4,0.6l-0.6,0.1l-0.2,0.6c-1,3.2-1.1,4.1-1.1,4.5c0,0.5,0.2,0.9,0.6,1.3c0.3,0.2,0.7,0.4,1.3,0.6l0.4,0.1l0.4-0.2
		c3.3-1.9,7.3-3.4,12.1-4.7l1.1,3.3c-2.2,0.6-4.4,1.3-6.6,2.2l-2.1,0.9l2.1,1c0.9,0.4,1.8,0.9,2.8,1.5l-1.7,3.1
		c-2.2-1.3-4.5-2.3-6.6-3.1l-0.5-0.2L53,19.1c-2.2,1.5-3.2,2.9-3.2,4.2c0,2.8,4.6,2.8,6.4,2.8c3,0,6-0.3,9-0.9l0.3,3.8
		C62.6,29.5,59.8,29.7,57.2,29.7z"/>
	<path class="st0" d="M107.3,28.8c-1.1-3.2-2.4-5.9-3.8-8l-4.6,1.8c1.3,2.4,2.4,5.2,3.2,8.3L107.3,28.8z M103.1,22
		c1,1.7,2,3.8,2.9,6.2l-3.3,1.3c-0.7-2.3-1.5-4.4-2.4-6.4L103.1,22z"/>
	<path class="st0" d="M86.6,31.5c1.4,0.2,2.6,0.3,3.7,0.3c1,0,2.1,0,3.2-0.1c2.3-0.2,4.1-0.7,5.4-1.2l-0.1-5
		c-2.8,0.9-4.9,1.3-6.1,1.4c-1.2,0.1-2,0.1-2.5,0.1c-0.9,0-1.6-0.1-2-0.3c-0.3-0.1-0.5-0.6-0.7-1.4c-0.1-1-0.2-2.2-0.2-3.4h-4.9
		l-0.1,3.1c0,2.2,0.3,3.8,1,4.8C84.1,30.7,85.1,31.3,86.6,31.5z M83.4,22.7h3c0,0.9,0.1,1.7,0.2,2.5c0.1,0.8,0.4,1.8,1.2,2.2
		c0.6,0.2,1.3,0.4,2.4,0.4c0.5,0,1.3,0,2.5-0.1c1.1-0.1,2.8-0.4,5-1.1l0,3c-1.2,0.4-2.7,0.7-4.5,0.9c-1.1,0.1-2.1,0.1-3.1,0.1
		c-1,0-2.2-0.1-3.6-0.3c-1.1-0.1-1.9-0.6-2.5-1.5c-0.4-0.5-0.8-1.7-0.8-4.2L83.4,22.7z"/>
	<path class="st0" d="M73.8,29l5,2c1.4-2.4,2.2-5.3,2.6-8.6l-4.6-0.6C76.4,24.8,75.4,27.2,73.8,29z M80.2,23.2
		c-0.3,2.4-1,4.6-1.9,6.5l-2.9-1.1c1.1-1.6,1.9-3.5,2.2-5.7L80.2,23.2z"/>
	<path class="st0" d="M84.3,14.4c0.8,0.5,1.3,0.9,1.7,1.1l2.6-3.5c-1.7-1-3.1-1.7-4.3-2.2V8.8l3.6-0.1l-0.3-4.6l-3.4,0.1l-0.1-4
		l-5.1,0.3c0.1,1.9,0.2,3.2,0.2,3.9c-1.7,0-3,0-4,0h-0.9l0.1,4.6l4.3-0.1c-1,2.1-2.8,4.3-5.6,6.5l4.2,2.9c0.2-0.2,0.7-0.7,1.6-1.6
		l-0.2,3.8l5.5,0.3L84.3,14.4z M83.3,19.6l-3.5-0.2L80,14l-2.9,2.9l-2.4-1.7c2.3-2,3.9-4,4.8-6l0.7-1.4l-4.9,0.1l0-2.6
		c1,0,2.3,0,3.9,0l1,0l0-1c0-0.5-0.1-1.5-0.1-2.9l3.1-0.2l0.1,4l3.4-0.1l0.1,2.6l-3.5,0.1v2.7l0.7,0.2c0.9,0.3,2,0.9,3.2,1.5
		l-1.4,1.8c-0.3-0.2-2.4-1.5-2.4-1.5L83.3,19.6z"/>
	<path class="st0" d="M100.4,3.8C100,3.8,99.5,3.7,99,3.7l-0.1,0c-1.1,0-2.6,0.1-4.6,0.2L93.5,4v3.4l1.1-0.1
		c1.3-0.1,3.5-0.1,6.6-0.1l1,0V5.6C102.1,5.2,101.9,4.1,100.4,3.8z M101.1,6.2c-3.1,0-5.3,0.1-6.6,0.1c0-0.9,0-1.4,0-1.4
		c2-0.1,3.5-0.2,4.5-0.2c0.5,0,0.9,0.1,1.3,0.1c0.5,0.1,0.8,0.3,0.8,0.7V6.2z"/>
	<path class="st0" d="M106.4,4.5c0-2.2-1.4-3.4-4.3-3.5h-1.5c-2.4,0-4.6,0-6.3,0.1l-0.1-0.7l-5.2,0.4c0.4,2.6,0.6,8,0.6,16.3l0,2.6
		H90l-2,0.6c1.3,1.9,2.2,3.7,2.8,5.5l5.2-1.6c-0.7-1.8-1.6-3.3-2.7-4.5c3.9,0,8.1-0.1,12.8-0.2C106.3,15.9,106.4,10.9,106.4,4.5z
		 M105.2,18.6c-4.3,0.1-8.3,0.1-11.9,0.2l-2.2,0l1.4,1.6c0.8,0.9,1.5,2,2.1,3.2l-3.2,1c-0.5-1.2-1.1-2.4-1.8-3.7l0.7-0.2l-0.2-1.3
		l0.4,0.4l0-2.6c0-7.5-0.1-12.5-0.4-15.4l3.3-0.3l0.1,0.6l0.9,0c1.7-0.1,3.8-0.1,6.3-0.1h1.5c3,0.2,3.3,1.4,3.3,2.5
		C105.4,10.3,105.4,15.1,105.2,18.6z"/>
	<path class="st0" d="M94.5,8.7l-1,0v3.6l1,0c1.3,0,3.4-0.1,6.3-0.2l0.9,0l0.1-3.6l-1.1,0C99.1,8.5,97,8.6,94.5,8.7z M100.7,11.1
		c-2.8,0.1-4.9,0.2-6.2,0.2V9.7c2.6-0.1,4.7-0.2,6.3-0.2L100.7,11.1z"/>
	<path class="st0" d="M94.5,13.7l-1,0v3.5h1.4c1,0,2.9-0.1,5.7-0.2l0.9,0l0.1-3.5l-1.1,0C97.5,13.6,95.5,13.6,94.5,13.7z M100.6,16
		c-2.8,0.1-4.7,0.2-5.6,0.2h-0.4v-1.5c1,0,3-0.1,6.1-0.2L100.6,16z"/>
	<path class="st0" d="M114.2,18c0,5-0.2,9.6-0.4,13.6l5.8,0.1v-4.5c0-5.9-0.1-12-0.3-18.2c0.6-1.6,1.1-4.4,1.7-8.3l-5-0.6
		c-0.7,5.6-2.7,10.1-5.9,13.4l2.2,6.5C113.1,19.2,113.8,18.6,114.2,18z M116.8,1.2l3.1,0.3c-0.5,3.4-1,5.8-1.5,7.1l-0.1,0.2l0,0.2
		c0.2,6.2,0.3,12.3,0.3,18.2v3.5l-3.7-0.1c0.2-3.8,0.3-8,0.3-12.6l0-2.6l-1.8,1.9c-0.2,0.2-0.5,0.5-0.8,0.8l-1.5-4.4
		C114.1,10.5,116,6.3,116.8,1.2z"/>
	<path class="st0" d="M144.1,29.4c-1.3-3.6-2.7-6.7-4.1-9.1c1.7-0.5,3.1-1.1,4.2-1.6l-2.8-4c-2.4,1.5-4.7,2.4-6.9,2.9
		c-0.3-0.7-0.7-1.7-1.4-2.9l10.1-0.2c0.3-2.4,0.5-3.8,0.5-4.2c0-1.9-0.7-3.1-2-3.7c0.5-1.1,0.7-2.1,0.7-3c0-1.5-1.4-2.3-4.3-2.4
		l-2.1,0c-1.4,0-3.2,0-5.4,0.1l0-0.3l-4.7-0.9c-1.3,2.3-3,4.1-5.1,5.5l1.2,1.1c0.1,2,0.2,4,0.2,5.9l0,2.3l3.8-0.1
		c-1.8,1-3.7,1.8-5.8,2.5l2.4,3.4c3.1-1.2,5.3-2.3,6.7-3.2l0.1,0.2c-2.9,2.4-5.8,4.1-8.6,5.2l1.9,3.4c3-1.3,5.7-2.9,8-5l0.1,0.5
		c-3.4,3-6.4,5.1-9.2,6.2l2.1,3.3c2.5-1.3,4.2-2.2,5-2.9l0.2,2.9c1.2,0.3,2.1,0.5,2.6,0.5c1.9,0,3.2-0.5,3.8-1.6
		c0.5-0.8,0.8-1.7,0.8-2.5c0-0.8,0-1.3,0-1.5c0-1.5-0.1-2.9-0.3-4.3c1,2.4,2.2,5.6,3.4,9.4L144.1,29.4z M134.7,22
		c0.2,1.4,0.3,2.8,0.3,4.2c0,0.1,0,0.6,0,1.4c0,0.6-0.2,1.3-0.7,2c-0.4,0.7-1.4,1.1-3,1.1c-0.2,0-0.7,0-1.6-0.3l-0.1-2.1h0.3
		c1.7,0,2.4-1.1,2.4-2.1c0-0.2,0-0.5-0.1-0.9l-0.5-1.8l-3.5,3.8l-0.1,0.1c-0.7,0.5-2,1.3-4,2.4l-1-1.6c2.6-1.2,5.4-3.2,8.4-5.9
		l0.4-0.4l-0.6-2.8l-1.3,1.1c-2,1.8-4.3,3.3-6.9,4.5l-0.9-1.6c2.6-1.1,5.2-2.7,7.8-4.9l0.6-0.5l-1-2l-0.9,0.6
		c-1.2,0.8-3.1,1.8-5.8,2.8l-1.2-1.6c1.7-0.6,3.2-1.3,4.7-2.1l-0.5-1.9l-2.7,0.1l0-1.2c0-2-0.1-4-0.2-6l0-0.4l-0.6-0.5
		c1.6-1.2,2.9-2.7,4-4.4l3.1,0.6l-0.1,0.5l1.2,0c2.2-0.1,4-0.1,5.3-0.1l2.1,0c2.2,0.1,3.3,0.5,3.3,1.4c0,0.7-0.2,1.6-0.7,2.6l-0.4,1
		l1,0.4c0.6,0.2,1.4,0.8,1.4,2.7c0,0.1,0,0.7-0.4,3.2l-10.9,0.2l0.8,1.5c0.6,1.2,1.1,2.1,1.4,2.8l0.3,0.8l0.8-0.2
		c2.1-0.4,4.3-1.2,6.5-2.5l1.5,2.2c-0.8,0.3-1.8,0.7-3,1l-1.2,0.4l0.6,1.1c1.3,2.2,2.5,4.9,3.7,8l-3.1,1.2c-1.1-3.4-2.2-6.2-3.1-8.4
		L134.7,22z M129.5,27.3l1.6-1.7c0.1,0.3,0.1,0.5,0.1,0.6c0,0.7-0.5,1.1-1.4,1.1H129.5z"/>
	<path class="st0" d="M135.8,7.2l0.6,0l0.3-0.5c0.2-0.4,0.3-0.8,0.3-1.2c0,0,0-0.2,0-0.5c0-0.2-0.2-1.2-1.6-1.2
		c-0.8,0-3,0.1-6.7,0.4l-0.5,0l-0.3,0.4c-0.2,0.3-0.5,0.7-0.9,1.1l-1.4,1.7l2.2-0.1C129.9,7.3,132.6,7.3,135.8,7.2z M128.7,5.2
		c3.7-0.2,5.9-0.4,6.7-0.4c0.4,0,0.6,0.1,0.6,0.3c0,0.2,0,0.3,0,0.4c0,0.2-0.1,0.5-0.2,0.7c-3.2,0-5.9,0.1-8.1,0.1
		C128.1,5.9,128.5,5.5,128.7,5.2z"/>
	<path class="st0" d="M134.3,9.2c-0.1,0.6-0.3,1.2-0.5,1.9l-0.4,1.3l5.6-0.1l0.3-0.6c0.1-0.3,0.2-0.7,0.2-1.1c0-1.8-0.9-2.2-1.4-2.3
		l-0.1,0l-3.5-0.1L134.3,9.2z M135.3,9.4l2.5,0c0.4,0.1,0.6,0.5,0.6,1.3c0,0.3,0,0.5-0.1,0.7l-3.5,0C135,10.7,135.2,10,135.3,9.4z"
		/>
	<path class="st0" d="M131.8,8.3h-1.4c-3.6,0-3.8,0.1-4.1,0.3l-0.5,0.3l0.1,3.7l4-0.1l0.3-0.4c0.5-0.6,0.8-1.5,1.1-2.4L131.8,8.3z
		 M129.5,11.5l-2.5,0.1l0-2.1c0.2-0.1,1.4-0.1,3.6-0.1C130.2,10.2,129.8,10.9,129.5,11.5z"/>
	<path class="st0" d="M161.6,29.2l5.8,2.3c1.6-1.3,2.8-3,3.8-5.1s1.4-4.2,1.4-6.1c0-2-0.2-3.6-0.7-4.9c0.1-0.8,0.2-1.8,0.2-2.9
		c0-1.1-0.1-2.4-0.2-4c2.6,0,5.2,0.2,7.7,0.4l0.5-5.6c-2.9-0.2-5.9-0.3-9-0.3c-0.2-0.9-0.3-1.7-0.5-2.6L164.6,1
		c0.2,0.6,0.3,1.3,0.5,2.2c-5.5,0.3-10.7,1-15.7,2l1.2,5.6c4.7-1.2,9.7-1.9,15.2-2.2c0,0.4,0.1,0.9,0.1,1.4
		c-0.8-0.2-1.6-0.3-2.5-0.3c-2.5,0-4.5,0.7-6,2c-1.5,1.4-2.3,3.2-2.3,5.4s0.7,4,2.2,5.3s3.3,2,5.7,2c1.1,0,2.1-0.1,3-0.4
		C165,26.1,163.6,27.8,161.6,29.2z M166.8,24.5l0.9-2l-2.1,0.6c-0.8,0.2-1.7,0.4-2.7,0.4c-2.1,0-3.8-0.6-5-1.7
		c-1.2-1.1-1.8-2.7-1.8-4.6c0-1.9,0.6-3.5,1.9-4.6c1.3-1.2,3.1-1.8,5.4-1.8c0.8,0,1.6,0.1,2.3,0.2l1.2,0.3V10c0-0.5,0-1-0.1-1.5
		l-0.1-0.9l-0.9,0.1c-5.1,0.3-10,0.9-14.4,2L150.5,6c4.7-0.9,9.6-1.4,14.6-1.8l1.1-0.1l-0.2-1.1c-0.1-0.4-0.1-0.8-0.2-1.1l3.9-0.4
		c0.1,0.5,0.5,2.5,0.5,2.5l1.9,0c2.4,0,4.7,0.1,6.9,0.2l-0.3,3.6c-2.2-0.2-4.5-0.3-6.8-0.4l-1.1,0l0.1,1.1c0.1,1.5,0.2,2.8,0.2,3.9
		c0,1-0.1,2-0.2,2.7l0,0.2l0.1,0.2c0.4,1.2,0.6,2.7,0.6,4.6c0,1.8-0.4,3.7-1.3,5.7c-0.8,1.8-1.8,3.2-3,4.4l-3.6-1.5
		C165,27.7,166.1,26.2,166.8,24.5z"/>
	<path class="st0" d="M162.9,13.3c-1,0-1.8,0.3-2.5,1c-0.7,0.7-1,1.6-1,2.6c0,1.3,0.6,2.1,1.1,2.6c0.7,0.6,1.6,0.9,2.8,0.9
		c1.6,0,2.4-0.7,2.9-1.3c0.6-0.8,0.9-1.8,0.9-3.3l0-0.3l-0.2-0.3C166.1,14,164.7,13.3,162.9,13.3z M165.3,18.5
		c-0.4,0.6-1.1,0.9-2.1,0.9s-1.6-0.2-2.1-0.6c-0.5-0.4-0.7-1-0.7-1.8s0.2-1.4,0.7-1.9c0.5-0.5,1.1-0.7,1.8-0.7
		c1.5,0,2.5,0.5,3.1,1.4C166,17,165.7,18,165.3,18.5z"/>
	<path class="st0" d="M195.6,17.6c-1.8,0-3.3,0.6-4.5,1.8c-1.2,1.2-1.9,2.7-1.9,4.5c0,2.2,1,4,3,5.3c2,1.3,4.7,1.9,8.2,1.9
		c4.2,0,7.6-0.9,10-2.8c2.4-1.8,3.6-4.4,3.6-7.6c0-2.2-0.6-4.1-1.8-5.7c-1.2-1.6-2.9-2.8-5.2-3.5c1.8-1.4,2.7-3,2.7-5
		c0-1.7-0.8-2.9-2.3-3.7c-1.5-0.8-3.9-1.2-7-1.2s-6.6,0.3-10.3,0.8l1,5.7c3.6-0.6,6.8-1,9.7-1c1.6,0,2.3,0.2,2.3,0.7
		c0,0.9-2.4,2-7.3,3.1l1.1,5.4c1.5-0.4,3.2-0.6,5-0.6c1.8,0,3.3,0.4,4.3,1.2c1.1,0.8,1.6,2,1.6,3.5c0,1.5-0.6,2.7-1.7,3.5
		c-1.2,0.9-2.8,1.3-5,1.4l3-2.6C201.9,19.4,199,17.6,195.6,17.6z M198.1,22.7c-0.8-0.6-1.5-0.9-2.1-0.9c-2,0-2.1,1.4-2.1,1.7
		c0,0.6,0.3,1.5,1.8,2.1c0.8,0.3,1.7,0.6,2.9,0.7l-0.2,0.2l1.5-0.1l1.2,0.1l-0.1-0.1l0.2,0c2.4-0.1,4.2-0.7,5.6-1.6
		c1.4-1,2.2-2.5,2.2-4.3c0-1.8-0.7-3.3-2-4.3c-1.3-0.9-2.9-1.4-4.9-1.4c-1.5,0-2.9,0.1-4.2,0.4l-0.7-3.4c5.9-1.5,7.1-2.6,7.1-3.9
		c0-1.7-2.3-1.7-3.3-1.7c-2.6,0-5.6,0.3-8.9,0.8l-0.6-3.7c3.3-0.4,6.4-0.7,9.2-0.7c2.9,0,5.1,0.4,6.5,1.1c1.2,0.6,1.8,1.5,1.8,2.8
		c0,1.6-0.8,3-2.3,4.2l-1.5,1.2l1.8,0.6c2,0.7,3.6,1.7,4.7,3.1c1.1,1.4,1.6,3.1,1.6,5.1c0,2.9-1.1,5.2-3.2,6.8
		c-2.2,1.7-5.4,2.6-9.4,2.6c-3.3,0-5.9-0.6-7.7-1.8c-1.7-1.1-2.5-2.5-2.5-4.4c0-1.5,0.5-2.8,1.5-3.8c1.1-1,2.3-1.5,3.8-1.5
		c2.9,0,5.2,1.3,7.2,4l-2.7,2.4l-0.1-0.1C199.4,24,198.7,23.2,198.1,22.7z M199.1,25.4c-1.3-0.1-2.3-0.3-3.1-0.7
		c-0.8-0.3-1.2-0.8-1.2-1.2c0-0.5,0.4-0.7,1.1-0.7c0.4,0,0.9,0.2,1.5,0.7C198,24,198.6,24.6,199.1,25.4z"/>
</g>
</svg>
