<?xml version="1.0" encoding="utf-8"?>
<!-- Generator: Adobe Illustrator 27.9.1, SVG Export Plug-In . SVG Version: 6.00 Build 0)  -->
<svg version="1.1" id="Layer_1" xmlns="http://www.w3.org/2000/svg" xmlns:xlink="http://www.w3.org/1999/xlink" x="0px" y="0px"
	 viewBox="0 0 299.1 35.7" style="enable-background:new 0 0 299.1 35.7;" xml:space="preserve">
<style type="text/css">
	.st0{fill:#282828;}
</style>
<g>
	<path class="st0" d="M50.8,16.2h-8.4v4.4h8.4V16.2z M49.8,19.5h-6.4v-2.4h6.4V19.5z"/>
	<path class="st0" d="M49.6,31.8c-0.1,0.1-0.3,0.1-0.5,0.1c-0.3,0-0.7,0-1.4,0c-0.7,0-1.4,0-2.1-0.1c0.3,0.5,0.5,1.1,0.8,1.8
		c0.3,0.7,0.4,1.3,0.5,1.9c1.1,0,2.1,0,3-0.1c0.9-0.1,1.6-0.2,2.2-0.6c0.6-0.3,1.1-0.8,1.3-1.3c0.2-0.5,0.3-1.3,0.3-2.2V13.8h-2.1
		h-1.9H39.6v21.8h3.8v-7.4h6.4v3.1C49.8,31.5,49.7,31.7,49.6,31.8z M42.4,27.2v7.4h-1.8V14.8h12.2v16.6c0,0.8-0.1,1.4-0.3,1.8
		c-0.1,0.3-0.4,0.6-0.8,0.8c-0.5,0.2-1.1,0.4-1.8,0.4c-0.6,0-1.4,0.1-2.2,0.1c-0.1-0.4-0.2-0.8-0.4-1.2c0-0.1-0.1-0.3-0.1-0.4
		c0.2,0,0.9,0,1.1,0c0.4,0,0.7,0,0.9,0c0,0,0,0,0,0c0.2,0,0.7,0,1-0.4c0.5-0.4,0.5-1,0.5-1.3v-4.1H42.4z"/>
	<path class="st0" d="M50.8,21.6h-8.4v4.5h8.4V21.6z M49.8,25.1h-6.4v-2.5h6.4V25.1z"/>
	<path class="st0" d="M25.5,30.2c0,0.4-0.1,0.7-0.3,0.8c-0.2,0.1-0.5,0.2-0.9,0.2c-0.3,0-0.8,0-1.6,0c-0.7,0-1.6,0-2.5,0
		c-0.9,0-1.9,0-2.9-0.1c0.2,0.4,0.5,0.8,0.7,1.3c0.2,0.5,0.4,1.1,0.6,1.6c0.2,0.5,0.3,1,0.4,1.4c2,0,3.6,0,5-0.1
		c1.4-0.1,2.5-0.3,3.4-0.6c0.9-0.3,1.5-0.8,1.8-1.5c0.3-0.7,0.5-1.7,0.5-2.9V6.8h4.5V2.7H0v4.1h25.5V30.2z M1,5.8V3.7h32.3v2.1h-4.5
		v24.5c0,1.1-0.1,1.9-0.4,2.5c-0.2,0.5-0.6,0.8-1.3,1c-0.8,0.3-1.8,0.5-3.1,0.6c-1.2,0.1-2.6,0.1-4.2,0.1c-0.1-0.2-0.1-0.5-0.2-0.7
		c-0.2-0.5-0.4-1-0.6-1.5c0.4,0,0.8,0,1.2,0c1,0,1.8,0,2.6,0h1.6c0.7,0,1.2-0.2,1.5-0.5c0.4-0.3,0.6-0.9,0.6-1.6V5.8H1z"/>
	<path class="st0" d="M231.3,22.5c-0.2,1.8-0.6,3.5-1.3,5.3c-0.7,1.7-1.7,3.4-3.2,5c0.5,0.4,1,0.8,1.6,1.3c0.6,0.5,1.1,1,1.4,1.4
		c1.6-1.8,2.9-3.7,3.7-5.7c0.8-2,1.3-4,1.6-6.1c0.3-2,0.4-4,0.4-6h3.8c0,2.5-0.1,4.7-0.2,6.4c-0.1,2.3-0.2,4.1-0.3,5.2
		c-0.1,1.1-0.3,1.8-0.5,2.1c-0.2,0.2-0.3,0.4-0.5,0.5c-0.2,0.1-0.4,0.1-0.6,0.1c-0.3,0-0.7,0-1.3,0c-0.6,0-1.2-0.1-1.8-0.1
		c0.3,0.5,0.5,1.1,0.7,1.8c0.2,0.7,0.3,1.3,0.3,1.9c0.8,0,1.6,0,2.3,0c0.7,0,1.3-0.1,1.8-0.1c0.6-0.1,1-0.3,1.4-0.5
		c0.4-0.2,0.7-0.6,1.1-1.1c0.3-0.3,0.5-0.9,0.6-1.7c0.2-0.8,0.3-1.9,0.4-3.3c0.1-1.4,0.2-3.2,0.2-5.3c0.1-1.7,0.1-3.8,0.2-6.1
		c0.2,0.1,0.4,0.3,0.7,0.5c0.4,0.3,0.9,0.7,1.3,1s0.7,0.6,1,0.9c0.7-0.9,1.3-1.9,1.9-3c0.4,1.6,0.9,3.1,1.4,4.5
		c0.5,1.4,1.1,2.7,1.7,3.9c-0.4,0.6-0.9,1.2-1.4,1.7c-1.9,2.1-4.3,3.8-7.2,5.1c0.3,0.3,0.5,0.6,0.8,1.1c0.3,0.5,0.6,0.9,0.9,1.3
		c0.3,0.4,0.5,0.8,0.6,1.1c3.2-1.6,5.9-3.6,7.9-6c0.2-0.2,0.4-0.5,0.6-0.7c0.2,0.3,0.4,0.5,0.5,0.8c1.8,2.4,4.1,4.3,6.8,5.7
		c0.2-0.4,0.5-0.8,0.8-1.2c0.3-0.4,0.7-0.9,1-1.3c0.4-0.4,0.7-0.8,1-1c-2.6-1.2-4.7-2.8-6.5-5c-0.4-0.5-0.9-1.1-1.3-1.7
		c0.7-1.3,1.4-2.7,1.9-4.2c1.1-3,2-6.4,2.6-10.3h2.9V7.1h-11.5c0.5-2.1,1-4.2,1.4-6.3l-4.2-0.6c-0.3,2.2-0.7,4.4-1.3,6.5
		c-0.6,2.1-1.2,4-2,5.8c-0.7,1.5-1.4,2.8-2.3,3.9c0-0.3,0-0.5,0-0.8c0-0.2,0-0.4,0-0.6c0-0.3,0-0.6,0-1h-2.5h-1.3h-3.8V9.8h9V6h-6.6
		V0.2h-4V6h-6.3v3.8h4v7.5C231.6,19,231.5,20.7,231.3,22.5z M246.2,12.8c0.8-1.8,1.5-3.8,2.1-6c0.5-1.8,0.9-3.7,1.2-5.6l2.2,0.3
		c-0.3,1.7-0.7,3.4-1.2,5.3l-0.3,1.3h11.8v1.8h-2.7l-0.1,0.8c-0.6,3.8-1.5,7.2-2.5,10.1c-0.5,1.4-1.1,2.7-1.9,4l-0.3,0.5l0.4,0.5
		c0.4,0.6,0.8,1.2,1.3,1.7c1.5,1.9,3.4,3.4,5.6,4.6c0,0,0,0.1-0.1,0.1c-0.4,0.4-0.8,0.9-1.1,1.4c-0.1,0.2-0.2,0.3-0.3,0.4
		c-2.2-1.3-4.1-3-5.7-5c-0.1-0.1-0.2-0.3-0.3-0.4l-0.2-0.3l-0.8-1.1l-0.8,1c-0.1,0.1-0.2,0.2-0.2,0.3c-0.1,0.1-0.2,0.3-0.3,0.4
		c-1.8,2.1-4,3.8-6.7,5.3c-0.1-0.1-0.1-0.2-0.2-0.3c-0.3-0.5-0.6-0.9-0.9-1.4c0-0.1-0.1-0.1-0.1-0.2c2.5-1.3,4.7-2.9,6.4-4.8
		c0.5-0.6,1-1.2,1.5-1.8l0.4-0.5l-0.3-0.5c-0.6-1.3-1.2-2.5-1.6-3.8c-0.5-1.4-0.9-2.8-1.4-4.5l-0.7-2.4l-1.2,2.2
		c-0.4,0.7-0.8,1.3-1.2,1.9c-0.1-0.1-0.1-0.1-0.2-0.2c-0.4-0.3-0.9-0.7-1.3-1c-0.1-0.1-0.2-0.2-0.3-0.3
		C244.8,15.6,245.6,14.3,246.2,12.8z M228.6,8.8V7h6.3V1.2h2V7h6.6v1.8h-9v6.1h7.7v0c0,0.2,0,0.4,0,0.5l0,0l0,0l-0.1,3.1
		c0,1.8-0.1,3.5-0.1,4.9c-0.1,2.2-0.2,3.9-0.2,5.3c-0.1,1.3-0.2,2.4-0.4,3.1c-0.2,0.9-0.4,1.2-0.4,1.3c-0.4,0.5-0.6,0.7-0.8,0.8
		c-0.3,0.2-0.6,0.3-1.1,0.4c-0.4,0.1-0.9,0.1-1.6,0.1c-0.2,0-0.5,0-0.7,0c-0.2,0-0.5,0-0.7,0c-0.1-0.4-0.1-0.8-0.2-1.2
		c0-0.2-0.1-0.3-0.1-0.5c0.1,0,0.1,0,0.2,0c0.6,0,1,0,1.3,0c0.4,0,0.7-0.1,1-0.2c0.3-0.2,0.6-0.4,0.9-0.8c0.3-0.5,0.5-1.2,0.7-2.6
		c0.1-1.1,0.2-2.9,0.3-5.2c0.1-1.7,0.1-3.9,0.2-6.4l0-1h-5.8l0,1c0,2-0.1,4-0.4,5.9c-0.3,2-0.8,4-1.5,5.9c-0.6,1.6-1.6,3.1-2.8,4.6
		c-0.2-0.2-0.5-0.4-0.7-0.7c-0.3-0.2-0.5-0.5-0.8-0.7c1.2-1.4,2-2.9,2.6-4.5c0.7-1.8,1.2-3.7,1.4-5.5c0.2-1.8,0.3-3.6,0.3-5.3V8.8
		H228.6z"/>
	<path class="st0" d="M251.6,19.8c0.2,0.6,0.5,1.2,0.7,1.7l0.9,2.1l0.9-2.1c0.2-0.6,0.5-1.1,0.7-1.7c0.9-2.5,1.6-5.5,2.1-8.8
		l0.2-1.1h-7.5l-0.4,1.3l0.1,0.3C249.9,14.4,250.7,17.3,251.6,19.8z M250.4,10.9h5.7c-0.5,3.2-1.1,6.1-2.1,8.6
		c-0.2,0.6-0.4,1.1-0.7,1.7c-0.2-0.5-0.5-1.1-0.7-1.7c-1-2.6-1.7-5.3-2.3-8.3C250.3,11.1,250.3,11,250.4,10.9z"/>
	<path class="st0" d="M156.2,20c0,0.8,0,1.7-0.1,2.6l0,1h4.6v-5.5h-4.5V20z M157.2,20v-0.9h2.5v3.5h-2.6
		C157.2,21.7,157.2,20.8,157.2,20z"/>
	<path class="st0" d="M156.2,17.2h4.5v-5.3h-4.5V17.2z M157.2,12.9h2.5v3.3h-2.5V12.9z"/>
	<path class="st0" d="M161.5,23.6h4.5v-5.5h-4.5V23.6z M162.5,19.1h2.5v3.5h-2.5V19.1z"/>
	<path class="st0" d="M162.7,7l0.4-1.3h-5.5l-0.3,0.6c-0.4,1.1-0.9,2.1-1.4,3l-0.8,1.5h6l0.3-0.6c0.2-0.4,0.4-0.9,0.6-1.3
		C162.2,8.3,162.5,7.7,162.7,7z M161.1,8.6c-0.2,0.5-0.4,0.9-0.5,1.3h-3.3h-0.4c0.5-1,1-2,1.5-3.1h3.4C161.5,7.3,161.3,8,161.1,8.6z
		"/>
	<path class="st0" d="M180.2,21.6h6v-3.5h-6v-3.6h-3.9v3.6h-2.3c0.2-0.9,0.5-1.7,0.6-2.6l-3.4-0.6c-0.3,1.5-0.7,3.1-1.2,4.5
		c-0.5,1.3-1.1,2.5-1.7,3.5V13c0.3,0.3,0.5,0.5,0.8,0.9c0.4,0.6,0.7,1.1,1,1.5c1.8-0.8,3.3-1.8,4.3-3c1-1.2,1.7-2.6,2.2-4.1
		c0.3-0.9,0.5-1.8,0.6-2.8h4.9c0,0.6-0.1,1.2-0.1,1.7c-0.1,1.2-0.2,2-0.3,2.6c-0.1,0.6-0.2,0.9-0.4,1.1c-0.1,0.2-0.3,0.3-0.4,0.3
		c-0.2,0-0.4,0.1-0.6,0.1c-0.3,0-0.6,0-1.2,0c-0.5,0-1.1-0.1-1.7-0.1c0.3,0.5,0.5,1,0.6,1.6c0.2,0.6,0.3,1.2,0.3,1.7
		c0.8,0.1,1.5,0.1,2.2,0.1c0.7,0,1.3,0,1.7-0.1c0.5-0.1,0.9-0.2,1.3-0.4c0.4-0.2,0.7-0.4,0.9-0.8c0.3-0.3,0.5-0.9,0.7-1.6
		c0.2-0.7,0.3-1.8,0.4-3.1c0.1-1.3,0.2-3,0.2-5.1c0-0.2,0.1-0.7,0.1-1.3h-2.5h-1.1h-13.2v3.4h4.5c-0.1,0.5-0.2,1.1-0.4,1.6
		c-0.4,1.2-0.9,2.3-1.7,3.2c-0.7,0.9-1.8,1.6-3.1,2.2V9.8h-2.2H165H164c0.2-0.4,0.4-0.7,0.6-1.1c0.7-1.3,1.2-2.6,1.6-3.8l-2.3-1.4
		l-0.5,0.2h-0.8h-3c0.3-0.9,0.6-1.8,0.9-2.7l-3.6-0.8c-0.5,2.3-1.3,4.5-2.3,6.6c-1,2.1-2.1,3.9-3.5,5.3c0.3,0.2,0.6,0.4,1,0.7
		c0.4,0.3,0.7,0.6,1.1,0.9c0.4,0.3,0.6,0.6,0.8,0.8c0,0,0,0,0,0v5.6c0,1.4-0.1,3-0.2,4.6c-0.1,1.7-0.4,3.3-0.8,4.9
		c-0.4,1.6-1,3.1-1.9,4.4c0.3,0.1,0.6,0.3,1,0.5c0.4,0.2,0.7,0.5,1.1,0.7c0.4,0.2,0.6,0.4,0.8,0.6c0.7-1.1,1.2-2.3,1.7-3.6
		c0.4-1.3,0.8-2.7,1-4.1c0.1-0.8,0.2-1.6,0.3-2.4h8.1v5.9c0,0.3-0.1,0.4-0.2,0.5c-0.1,0.1-0.3,0.1-0.5,0.1c-0.3,0-0.7,0-1.4,0
		c-0.7,0-1.5,0-2.3-0.1c0.3,0.5,0.5,1,0.7,1.7c0.2,0.7,0.4,1.3,0.5,1.7c1.2,0,2.2,0,3-0.1c0.8-0.1,1.5-0.3,2.1-0.5
		c0.6-0.3,0.9-0.7,1.1-1.3c0.2-0.5,0.3-1.2,0.3-2.1v-8.3c0.2,0.1,0.5,0.2,0.8,0.4c0.4,0.2,0.8,0.4,1.1,0.6c0.4,0.2,0.7,0.4,0.9,0.6
		c0.6-0.9,1.1-2,1.7-3.2h3.5v3.8H169v3.5h7.4v6.5h3.9v-6.5h6.7v-3.5h-6.7V21.6z M172.2,10.9c0.9-1.1,1.6-2.3,1.9-3.6
		c0.2-0.6,0.3-1.2,0.4-1.7l0.2-1.2h-4.7V3.1h14.8c0,0.1,0,0.2,0,0.2c-0.1,2.1-0.1,3.8-0.2,5.1c-0.1,1.3-0.2,2.2-0.4,2.9
		c-0.2,0.8-0.4,1.1-0.5,1.2c-0.2,0.3-0.4,0.5-0.6,0.6c-0.3,0.1-0.6,0.2-1,0.3c-0.3,0-0.9,0.1-1.5,0.1l-0.4,0c-0.3,0-0.6,0-0.9,0
		c-0.1-0.3-0.1-0.6-0.2-1c0-0.1,0-0.2-0.1-0.3c0.1,0,0.1,0,0.2,0c0.5,0,0.9,0,1.2,0c0.3,0,0.6,0,0.9-0.1c0.3-0.1,0.7-0.2,1-0.7
		c0.2-0.2,0.4-0.7,0.6-1.5c0.1-0.6,0.2-1.5,0.3-2.7c0-0.5,0.1-1.1,0.1-1.7l0.1-1.1h-6.8l-0.1,0.8c-0.2,1-0.4,1.9-0.6,2.7
		c-0.4,1.4-1.1,2.7-2,3.8c-0.8,0.9-1.8,1.7-3.1,2.4c-0.2-0.3-0.4-0.5-0.6-0.8c-0.1-0.1-0.2-0.3-0.3-0.4
		C170.7,12.3,171.6,11.6,172.2,10.9z M167.4,31.6c0,0.7-0.1,1.3-0.2,1.7c-0.1,0.3-0.3,0.5-0.7,0.7c-0.4,0.2-1,0.3-1.7,0.4
		c-0.6,0.1-1.3,0.1-2.1,0.1c-0.1-0.3-0.2-0.7-0.3-1.1c0-0.1-0.1-0.2-0.1-0.4c0.2,0,0.5,0,0.7,0c0.2,0,0.5,0,0.6,0c0.4,0,0.7,0,0.9,0
		c0.5,0,0.8-0.1,1.1-0.4c0.3-0.3,0.5-0.7,0.5-1.3v-6.9h-10l-0.1,0.9c-0.1,0.8-0.2,1.6-0.3,2.3c-0.2,1.4-0.5,2.7-0.9,3.9
		c-0.3,0.9-0.6,1.7-1,2.4c-0.4-0.2-0.7-0.5-1.1-0.7c0,0-0.1,0-0.1-0.1c0.6-1.2,1.1-2.4,1.5-3.8c0.4-1.7,0.7-3.4,0.8-5.1
		c0.1-1.7,0.2-3.3,0.2-4.7v-8.3l-1.1,1.3c0,0-0.1,0-0.1-0.1c-0.4-0.3-0.8-0.7-1.2-1c0,0-0.1-0.1-0.1-0.1c1.1-1.3,2-2.9,2.9-4.7
		c0.9-1.9,1.6-3.8,2.1-5.9l1.6,0.4c-0.2,0.5-0.3,1.1-0.5,1.7l-0.5,1.3h5.3l0.2-0.1l1.3,0.8c-0.4,0.9-0.8,1.9-1.3,2.9
		c-0.2,0.4-0.4,0.8-0.6,1.1l-0.8,1.5h5.1V31.6z M185.9,26.4v1.5h-6.7v6.5h-1.9v-6.5H170v-1.5h7.4v-5.8h-5.1l-0.3,0.6
		c-0.3,0.8-0.7,1.5-1,2.1c0,0-0.1,0-0.1-0.1c-0.4-0.2-0.8-0.4-1.2-0.6c0.5-0.9,1-1.9,1.4-3c0.4-1.2,0.8-2.4,1.1-3.7l1.4,0.3
		c-0.1,0.5-0.3,1-0.4,1.6l-0.4,1.3h4.6v-3.6h1.9v3.6h6v1.5h-6v5.8H185.9z"/>
	<path class="st0" d="M161.5,17.2h4.5v-5.3h-4.5V17.2z M162.5,12.9h2.5v3.3h-2.5V12.9z"/>
	<path class="st0" d="M7.6,26.1h12.1V11.4H7.6H5.3H3.6V29h4V26.1z M6.6,28h-2V12.4h14v12.6H6.6V28z"/>
	<path class="st0" d="M6.6,23.2h10v-8.9h-10V23.2z M7.6,15.3h8v6.9h-8V15.3z"/>
	<path class="st0" d="M57,0.2V12c0,1.3,0.1,2.3,0.4,3.1c0.3,0.7,0.8,1.3,1.6,1.6c0.8,0.3,1.9,0.5,3.3,0.5c0.2,0,0.4,0,0.8,0
		c0.4,0,0.8,0,1.2,0c0.5,0,0.9,0,1.4,0c0.5,0,0.9,0,1.3,0s0.7,0,0.8,0c1.1,0,2-0.2,2.7-0.5c0.7-0.4,1.2-1,1.5-1.9
		c0.4-0.9,0.6-2.2,0.7-3.8c-0.4-0.1-0.8-0.2-1.2-0.3c-0.5-0.2-0.9-0.3-1.3-0.6c-0.4-0.2-0.8-0.4-1-0.6c-0.1,1.2-0.1,2-0.2,2.6
		c-0.1,0.6-0.3,1-0.5,1.2c-0.2,0.2-0.6,0.3-1,0.3c-0.2,0-0.5,0-1,0s-0.9,0-1.4,0c-0.5,0-1,0-1.4,0c-0.4,0-0.7,0-0.9,0
		c-0.8,0-1.2-0.1-1.4-0.3C61.1,13,61,12.6,61,12V9.2c0.8-0.2,1.5-0.5,2.3-0.7c1.4-0.4,2.7-0.9,4-1.4c1.3-0.5,2.5-1,3.6-1.5l-2.6-3
		c-0.8,0.5-1.8,1-2.9,1.5c-1.1,0.5-2.3,1-3.6,1.5c-0.3,0.1-0.6,0.2-0.9,0.3V0.2H57z M62.3,6.5c1.3-0.5,2.5-1,3.6-1.5
		c0.8-0.4,1.6-0.8,2.3-1.1l1.2,1.4c-0.7,0.3-1.5,0.6-2.4,1c-1.3,0.5-2.6,1-3.9,1.4c-0.8,0.2-1.6,0.5-2.3,0.7L60,8.5V12
		c0,0.7,0.1,1.5,0.6,2c0.4,0.4,1,0.5,2.1,0.5h4.7c0.7,0,1.2-0.2,1.7-0.6c0.4-0.4,0.7-0.9,0.8-1.7c0.1-0.3,0.1-0.7,0.1-1.1
		c0.4,0.2,0.8,0.3,1.2,0.5c0.2,0.1,0.3,0.1,0.5,0.1c-0.1,1.1-0.3,2-0.6,2.7c-0.3,0.7-0.6,1.1-1.1,1.4c-0.5,0.3-1.3,0.4-2.2,0.4h-5.6
		c-1.3,0-2.3-0.1-2.9-0.4c-0.5-0.2-0.8-0.5-1-1C58.1,14.1,58,13.2,58,12V1.2H60v6.1C60,7.4,62.1,6.6,62.3,6.5z"/>
	<path class="st0" d="M293.2,8.2c-1.8-0.8-3.8-1.3-6.1-1.3c-1.4,0-2.9,0.1-4.4,0.4c-1.6,0.3-3.1,0.6-4.6,1c-1.5,0.4-2.9,0.8-4.1,1.2
		c-1.3,0.4-2.3,0.7-3,1c-0.7,0.2-1.5,0.4-2.3,0.6c-0.8,0.2-1.6,0.4-2.3,0.5l1.9,4.8c0.8-0.3,1.7-0.7,2.8-1.2
		c1.1-0.5,2.3-0.9,3.7-1.4c1.3-0.5,2.7-1,4.2-1.4c1.4-0.4,2.8-0.8,4.2-1.1c1.4-0.3,2.7-0.4,3.8-0.4c1.6,0,2.9,0.3,4,0.9
		c1.1,0.6,1.9,1.3,2.5,2.3c0.6,1,0.9,2.1,0.9,3.3c0,1.7-0.5,3.2-1.4,4.5c-1,1.3-2.3,2.3-4,3.1c-1.7,0.8-3.7,1.4-5.9,1.8
		c-2.2,0.4-4.6,0.7-7.2,0.7l2,4.5c2.6-0.1,4.9-0.4,7.1-0.9c2.2-0.5,4.2-1.2,5.9-2c1.7-0.8,3.2-1.8,4.5-3c1.2-1.2,2.2-2.5,2.8-3.9
		c0.7-1.5,1-3.1,1-4.8c0-2.3-0.5-4.2-1.6-5.8C296.4,10.3,295,9,293.2,8.2z M297.2,22.1c-0.6,1.3-1.5,2.5-2.6,3.6
		c-1.1,1.1-2.6,2-4.2,2.8c-1.7,0.8-3.6,1.4-5.7,1.9c-1.9,0.4-4.1,0.7-6.3,0.9l-1.1-2.5c2.1-0.1,4-0.3,5.9-0.7
		c2.3-0.4,4.4-1.1,6.1-1.9c1.8-0.9,3.3-2,4.4-3.4c1.1-1.4,1.6-3.2,1.6-5.1c0-1.4-0.3-2.7-1-3.8c-0.7-1.2-1.6-2.1-2.9-2.7
		c-1.2-0.6-2.7-1-4.5-1c-1.2,0-2.6,0.1-4,0.4c-1.4,0.3-2.9,0.7-4.3,1.1c-1.5,0.4-2.9,0.9-4.2,1.4c-1.3,0.5-2.6,1-3.7,1.5
		c-0.7,0.3-1.3,0.6-1.9,0.8l-1.1-2.7c0.4-0.1,0.8-0.2,1.2-0.3c0.8-0.2,1.6-0.4,2.3-0.6c0.8-0.2,1.8-0.6,3.1-1
		c1.2-0.4,2.6-0.8,4.1-1.2c1.5-0.4,3-0.8,4.5-1c1.5-0.3,2.9-0.4,4.3-0.4c2.1,0,4,0.4,5.7,1.2c1.6,0.8,2.9,1.9,3.9,3.3
		c1,1.4,1.4,3.2,1.4,5.3C298.1,19.3,297.8,20.7,297.2,22.1z"/>
	<path class="st0" d="M218.5,22.5c-0.3-0.3-0.6-0.6-0.9-0.9c-0.3-0.3-0.5-0.6-0.7-0.9c-0.6-0.9-1.2-1.9-1.8-3
		c-0.1-0.3-0.3-0.5-0.4-0.8c0.9-0.1,1.8-0.3,2.6-0.4c1.4-0.3,2.6-0.5,3.7-0.8l-0.6-4c-1.1,0.3-2.4,0.6-3.9,1c-1,0.2-2.2,0.4-3.5,0.6
		c-0.3-0.7-0.5-1.3-0.7-1.9c-0.2-0.7-0.4-1.4-0.6-2.1c0.9-0.1,1.8-0.3,2.7-0.4c1.6-0.3,3-0.6,4.4-1L218.2,4c-1.5,0.5-3,0.8-4.6,1.2
		c-1,0.2-2,0.3-3,0.5c-0.1-0.2-0.1-0.4-0.2-0.7c-0.3-1.2-0.5-2.3-0.6-3.5L205.3,2c0.2,0.7,0.4,1.4,0.7,2c0.2,0.6,0.4,1.3,0.6,1.9
		c-1.4,0.1-2.8,0.1-4.4,0c-2.4-0.1-4.9-0.2-7.7-0.6l0.2,3.9c2.8,0.3,5.5,0.4,8.1,0.4c1.7,0,3.3,0,4.8-0.1c0,0,0,0.1,0,0.1
		c0.2,0.7,0.5,1.5,0.8,2.4c0.2,0.5,0.4,1,0.5,1.5c-0.9,0.1-1.8,0.1-2.7,0.1c-1.9,0.1-3.8,0.1-5.9,0c-2.1-0.1-4.3-0.2-6.5-0.4l0.2,4
		c2.3,0.2,4.6,0.2,6.8,0.3c2.3,0,4.5,0,6.5-0.1c1.1,0,2.2-0.1,3.2-0.2c0.7,1.5,1.5,2.9,2.3,4.4c-0.6-0.1-1.3-0.2-2.3-0.2
		c-1-0.1-1.9-0.2-2.7-0.2l-0.3,3.2c0.9,0.1,1.9,0.2,3,0.3c1.1,0.1,2.2,0.3,3.2,0.4c1,0.2,1.9,0.3,2.6,0.5L218.5,22.5z M213.9,24.2
		c-1-0.2-2.1-0.3-3.2-0.4c-0.7-0.1-1.4-0.2-2-0.2l0.1-1.3l1.7,0.2c1,0.1,1.7,0.2,2.3,0.2l2.1,0.3l-1.1-1.8c-0.8-1.4-1.6-2.8-2.3-4.3
		l-0.3-0.6l-0.7,0.1c-1,0.1-2.1,0.1-3.2,0.2c-1.4,0.1-2.9,0.1-4.4,0.1c-0.7,0-1.3,0-2,0c-2,0-3.9-0.1-5.9-0.2l-0.1-2
		c1.9,0.2,3.7,0.3,5.4,0.3c1.1,0,2.1,0.1,3.1,0.1c1,0,2,0,2.9-0.1c1,0,1.9-0.1,2.8-0.1l1.3-0.1l-0.6-1.5c-0.2-0.4-0.3-0.8-0.4-1.2
		c-0.3-0.9-0.6-1.7-0.8-2.4l-0.3-0.8l-0.8,0c-1.3,0.1-2.7,0.1-4.2,0.1l-0.6,0c-2.3,0-4.7-0.1-7.2-0.4l-0.1-1.9
		c2.3,0.2,4.5,0.4,6.6,0.4c0.6,0,1.1,0,1.6,0c1,0,1.9,0,2.8-0.1l1.2,0l-0.3-1.2c-0.2-0.7-0.4-1.3-0.6-2c-0.1-0.3-0.2-0.6-0.3-0.9
		l2.4-0.3c0.1,0.9,0.3,1.7,0.5,2.6l0.4,1.5l0.9-0.1c1.2-0.1,2.1-0.3,3-0.5c1.2-0.2,2.4-0.5,3.6-0.9l0.3,1.9
		c-1.1,0.3-2.2,0.5-3.5,0.8c-0.8,0.2-1.7,0.3-2.7,0.4l-1.2,0.2l0.3,1.1c0.2,0.7,0.4,1.4,0.6,2.1c0.2,0.6,0.5,1.3,0.8,2l0.3,0.7
		l0.8-0.1c1.3-0.2,2.5-0.4,3.6-0.6c1-0.2,2-0.5,2.8-0.7l0.3,2c-0.8,0.2-1.8,0.4-2.8,0.6c-0.8,0.1-1.7,0.3-2.6,0.4l-1.4,0.2l0.8,1.5
		c0.1,0.2,0.2,0.3,0.3,0.5c0.6,1.1,1.2,2.2,1.8,3.1c0.3,0.4,0.5,0.7,0.8,1.1c0.1,0.1,0.2,0.3,0.4,0.4l-1.3,1.9
		C215.4,24.4,214.7,24.3,213.9,24.2z"/>
	<path class="st0" d="M42.4,11.5c1.7-0.1,3.5-0.2,5.4-0.3c1.4-0.1,2.8-0.2,4.2-0.3c0.3,0.8,0.6,1.5,0.8,2.1l3.7-1.5
		c-0.3-0.8-0.6-1.8-1.1-2.8c-0.5-1-1.1-2-1.7-3.1c-0.6-1.1-1.2-2-1.9-2.9L48.3,4c0.6,0.9,1.2,2,1.8,3c0.1,0.1,0.1,0.2,0.2,0.3
		c-0.9,0-1.8,0.1-2.7,0.1c-1.1,0.1-2.1,0.1-3.1,0.1c0.5-1,1-2.1,1.6-3.3c0.5-1.2,1-2.3,1.5-3.4L43.3,0c-0.3,1-0.6,2-1,3.2
		c-0.4,1.2-0.9,2.3-1.3,3.4c-0.2,0.4-0.4,0.8-0.6,1.2c-1.1,0-2.1,0.1-3,0.1l0.3,3.9C39.1,11.7,40.7,11.6,42.4,11.5z M41,8.7l0.3-0.5
		c0.2-0.4,0.4-0.8,0.6-1.2c0.5-1.1,1-2.3,1.4-3.4c0.3-0.8,0.6-1.6,0.8-2.3l2.2,0.5c-0.3,0.8-0.6,1.5-1,2.3c-0.5,1.1-1,2.2-1.5,3.2
		l-0.8,1.5l1.7-0.1c1,0,2-0.1,3.1-0.1c0.6,0,1.2-0.1,1.8-0.1l2.5-0.1L51,6.6c-0.4-0.7-0.8-1.4-1.2-2.1l1.5-0.6
		c0.5,0.7,0.9,1.4,1.4,2.2c0.6,1,1.1,2.1,1.6,3c0.3,0.6,0.6,1.2,0.8,1.8l-1.8,0.7c-0.1-0.4-0.3-0.8-0.5-1.2l-0.3-0.7l-0.7,0
		c-1.4,0.1-2.8,0.2-4.2,0.3c-1.9,0.1-3.7,0.2-5.4,0.3c-1.3,0.1-2.6,0.2-3.7,0.2l-0.2-1.9L41,8.7z"/>
	<path class="st0" d="M200.6,21.9l-4.2-0.8c-0.4,0.9-0.8,1.8-1.1,2.7c-0.3,0.9-0.5,2-0.5,3.2c0,1.7,0.5,3.2,1.5,4.3
		c1,1.1,2.4,1.9,4.2,2.5c1.8,0.5,4,0.8,6.5,0.8c1.6,0,3.2-0.1,4.8-0.2c1.6-0.1,3.1-0.3,4.4-0.5l0.2-4.3c-1.4,0.3-2.8,0.5-4.4,0.6
		c-1.6,0.1-3.2,0.2-5,0.2c-2.7,0-4.7-0.3-6-1c-1.3-0.7-2-1.7-2-3.2c0-0.8,0.2-1.6,0.5-2.3C199.8,23.2,200.1,22.6,200.6,21.9z
		 M198.5,23.5c-0.4,0.8-0.6,1.7-0.6,2.7c0,1.8,0.9,3.2,2.6,4.1c1.5,0.7,3.6,1.1,6.4,1.1c1.8,0,3.5-0.1,5.1-0.2
		c1.1-0.1,2.2-0.2,3.2-0.4l-0.1,2.2c-1.1,0.2-2.2,0.3-3.5,0.4c-1.6,0.1-3.2,0.2-4.7,0.2c-2.4,0-4.5-0.3-6.2-0.8
		c-1.6-0.5-2.9-1.2-3.7-2.2c-0.8-0.9-1.2-2.1-1.2-3.6c0-1.1,0.1-2,0.4-2.8c0.2-0.6,0.5-1.3,0.8-1.9l2,0.4
		C198.8,22.9,198.7,23.2,198.5,23.5z"/>
	<path class="st0" d="M125.5,21.9c-1,0.8-1.7,1.8-2.3,2.8c-0.6,1-0.9,2.2-0.9,3.4c0,1.6,0.4,2.8,1.3,3.7c0.9,0.9,2.1,1.5,3.7,1.9
		c1.5,0.4,3.3,0.6,5.2,0.6c1.2,0,2.4,0,3.7-0.1c1.3-0.1,2.6-0.1,3.8-0.2c1.2-0.1,2.3-0.2,3.1-0.3l0.2-4.4c-1.7,0.3-3.5,0.6-5.4,0.7
		s-3.7,0.3-5.3,0.3c-0.9,0-1.8,0-2.5-0.1c-0.7-0.1-1.4-0.2-1.9-0.4c-0.5-0.2-0.9-0.5-1.1-0.9c-0.3-0.4-0.4-0.9-0.4-1.4
		c0-0.8,0.2-1.5,0.7-2.1c0.4-0.6,1.1-1.3,1.9-1.9c0.6-0.5,1.4-0.9,2.2-1.4c0,0.5,0,0.9,0,1.4c0,0.7,0,1.4-0.1,2
		c0,0.6-0.1,1.2-0.1,1.6h4.1c0-0.6,0-1.3,0-2.1c0-0.8,0-1.6-0.1-2.4c0-0.8,0-1.6,0-2.3c0,0,0-0.1,0-0.1c0.7-0.3,1.5-0.7,2.2-1
		c1.7-0.7,3.2-1.3,4.4-1.8c0.4-0.2,0.9-0.3,1.4-0.5c0.5-0.2,1-0.4,1.5-0.6c0.5-0.2,0.9-0.3,1.3-0.4l-1.7-4c-0.6,0.3-1.3,0.6-1.9,1
		s-1.3,0.6-2,0.9c-0.8,0.4-1.6,0.7-2.5,1.1c-0.8,0.4-1.8,0.8-2.8,1.2c-0.1,0.1-0.2,0.1-0.4,0.2c-0.3-0.7-0.7-1.3-1.2-1.7
		c-1-0.9-2.3-1.3-3.9-1.3c-0.5,0-1,0-1.5,0.1c-0.6,0.1-1.1,0.2-1.7,0.3c-0.5,0.1-1,0.3-1.4,0.5c0.6-0.8,1.2-1.8,1.8-2.9
		c0.3-0.5,0.6-1.1,0.8-1.6c1.1,0,2.2-0.1,3.4-0.2c1.6-0.1,3.1-0.2,4.7-0.3c1.5-0.1,3-0.3,4.3-0.5v-4c-1.8,0.3-3.7,0.6-5.8,0.7
		c-1.7,0.2-3.5,0.3-5.2,0.4c0.1-0.4,0.3-0.9,0.4-1.3c0.3-1.1,0.5-2,0.6-2.7l-4.5-0.4c-0.1,1-0.2,2-0.5,3.1c-0.1,0.5-0.2,0.9-0.4,1.4
		c-0.7,0-1.4,0-2,0c-0.9,0-2,0-3.3-0.1s-2.4-0.2-3.3-0.3v4c0.7,0,1.5,0.1,2.2,0.1c0.8,0.1,1.5,0.1,2.3,0.1c0.7,0,1.3,0,1.9,0
		c0.2,0,0.5,0,0.8,0c-0.3,0.7-0.7,1.3-1.1,2c-0.8,1.4-1.8,2.8-3,4.2c-1.2,1.4-2.7,3-4.3,4.6l3.6,2.7c0.7-0.8,1.3-1.6,1.8-2.3
		c0.6-0.7,1.1-1.3,1.7-1.9c0.8-0.7,1.7-1.4,2.8-1.9c1.1-0.5,2.2-0.8,3.3-0.8c0.8,0,1.6,0.2,2.2,0.7c0.3,0.2,0.5,0.5,0.7,0.9
		c-0.9,0.5-1.7,0.9-2.6,1.5C127.5,20.3,126.4,21.1,125.5,21.9z M131.7,19l0.8-0.4l-0.4-0.9c-0.2-0.5-0.6-0.9-1-1.2
		c-0.8-0.6-1.8-0.9-2.8-0.9c-1.3,0-2.5,0.3-3.8,0.9c-1.2,0.6-2.2,1.3-3.1,2.1c-0.6,0.6-1.2,1.2-1.8,1.9c-0.4,0.5-0.8,1-1.2,1.5
		l-1.9-1.4c1.3-1.3,2.5-2.6,3.6-3.8c1.2-1.5,2.3-2.9,3.1-4.4c0.4-0.7,0.8-1.4,1.1-2.1l0.7-1.5l-2.4,0c-0.5,0-1.1,0-1.9,0
		c-0.7,0-1.4,0-2.2-0.1c-0.4,0-0.9-0.1-1.3-0.1V6.7c0.7,0.1,1.5,0.1,2.3,0.2C120.9,7,122,7,123,7c0.7,0,1.3,0,2,0l0.7,0l0.2-0.7
		c0.1-0.5,0.3-1,0.4-1.4c0.2-0.8,0.3-1.5,0.4-2.2l2.3,0.2c-0.1,0.5-0.2,1-0.4,1.5c-0.1,0.4-0.2,0.8-0.3,1.2l-0.4,1.4l1.4,0
		c1.9-0.1,3.6-0.2,5.2-0.4c1.6-0.2,3.2-0.3,4.7-0.6v1.9c-1.1,0.1-2.2,0.3-3.4,0.4c-1.5,0.1-3.1,0.3-4.7,0.3
		c-1.2,0.1-2.3,0.1-3.4,0.2l-0.6,0l-0.3,0.6c-0.2,0.5-0.5,1-0.8,1.5c-0.5,1-1.1,1.9-1.7,2.7l1.3,1.5c0.3-0.2,0.7-0.3,1.2-0.4
		c0.5-0.1,1-0.2,1.6-0.3c0.5-0.1,1-0.1,1.4-0.1c1.3,0,2.4,0.4,3.3,1.1c0.4,0.4,0.7,0.8,0.9,1.3l0.4,1l1.3-0.6c1-0.4,1.9-0.8,2.7-1.2
		c0.9-0.4,1.7-0.7,2.5-1.1c0.7-0.3,1.4-0.6,2-0.9c0.3-0.2,0.7-0.3,1-0.5l0.9,2c-0.1,0-0.2,0.1-0.3,0.1c-0.5,0.2-1,0.4-1.5,0.6
		l-1.4,0.5c-1.3,0.5-2.8,1.1-4.5,1.8c-0.7,0.3-1.5,0.6-2.2,1l-0.6,0.3l0,0.8l0,2.3c0,0.8,0,1.6,0.1,2.4c0,0.4,0,0.7,0,1h-2
		c0-0.2,0-0.4,0-0.6c0-0.6,0-1.3,0.1-2c0-0.5,0-1,0-1.4l0-1.7l-1.5,0.8c-0.9,0.5-1.7,1-2.3,1.5c-0.9,0.7-1.7,1.4-2.2,2.1
		c-0.6,0.8-0.8,1.7-0.8,2.7c0,0.8,0.2,1.5,0.5,2c0.4,0.6,0.9,1,1.6,1.2c0.6,0.2,1.3,0.4,2.1,0.5c0.8,0.1,1.6,0.1,2.6,0.1
		c1.6,0,3.4-0.1,5.4-0.3c1.5-0.1,2.9-0.3,4.3-0.5l-0.1,2.3c-0.7,0.1-1.4,0.1-2.3,0.2c-1.2,0.1-2.5,0.2-3.7,0.2
		c-1.3,0-2.5,0.1-3.7,0.1c-1.8,0-3.5-0.2-5-0.5c-1.4-0.3-2.4-0.9-3.2-1.6c-0.7-0.7-1.1-1.7-1.1-3c0-1.1,0.2-2.1,0.7-2.9
		c0.5-0.9,1.2-1.8,2.1-2.6c0.9-0.8,1.9-1.5,3-2.2C130,20,130.9,19.5,131.7,19z"/>
	<path class="st0" d="M59,34.8c0.8,0.3,1.9,0.5,3.3,0.5c0.2,0,0.5,0,0.8,0s0.8,0,1.3,0c0.5,0,1,0,1.5,0c0.5,0,0.9,0,1.3,0
		c0.4,0,0.7,0,0.9,0c1.2,0,2.1-0.2,2.8-0.6c0.7-0.4,1.2-1.1,1.5-2.1c0.4-1,0.6-2.3,0.7-4.1c-0.5-0.1-1.2-0.3-1.9-0.6
		c-0.7-0.3-1.3-0.6-1.7-0.9c-0.1,1.3-0.1,2.3-0.2,3c-0.1,0.7-0.3,1.1-0.5,1.3c-0.2,0.2-0.6,0.3-1.1,0.3c-0.2,0-0.5,0-1,0s-1,0-1.5,0
		c-0.5,0-1,0-1.4,0c-0.4,0-0.7,0-0.9,0c-0.8,0-1.3-0.1-1.5-0.3c-0.2-0.2-0.3-0.6-0.3-1.3v-3.4c0.8-0.3,1.7-0.5,2.5-0.8
		c1.4-0.5,2.8-1,4.2-1.5c1.4-0.5,2.6-1.1,3.7-1.8l-2.7-3c-0.8,0.6-1.8,1.1-3,1.7c-1.2,0.6-2.4,1.1-3.7,1.6c-0.4,0.1-0.7,0.3-1,0.4
		V18h-4v12.2c0,1.3,0.2,2.3,0.5,3.1C57.7,34,58.3,34.5,59,34.8z M58,19h2v5.9l1.7-0.6c0.2-0.1,0.5-0.2,0.8-0.3
		c1.3-0.5,2.6-1.1,3.8-1.7c0.9-0.4,1.7-0.9,2.4-1.3l1.3,1.4c-0.8,0.4-1.6,0.8-2.5,1.1c-1.3,0.5-2.7,1-4.1,1.5
		c-0.9,0.3-1.7,0.5-2.5,0.8L60,26v4.2c0,0.6,0.1,1.5,0.7,2c0.4,0.3,1.1,0.5,2.1,0.5h4.9c0.7,0,1.3-0.2,1.8-0.6
		c0.4-0.4,0.7-1,0.8-1.9c0.1-0.4,0.1-0.9,0.2-1.5c0.2,0.1,0.3,0.1,0.5,0.2c0.4,0.2,0.8,0.3,1.2,0.4c-0.1,1.3-0.3,2.3-0.6,3
		c-0.3,0.7-0.6,1.3-1.1,1.5c-0.5,0.3-1.3,0.5-2.3,0.5h-5.8c-1.3,0-2.3-0.1-2.9-0.4c-0.5-0.2-0.9-0.5-1.1-1c-0.3-0.6-0.4-1.5-0.4-2.7
		V19z"/>
	<path class="st0" d="M77.9,18.4c0.3-1,0.6-2.1,0.8-3.3c0.2-1.2,0.4-2.5,0.6-3.8c0.2-1.3,0.3-2.5,0.3-3.5l-2.9-0.4
		c-0.1,1-0.2,2.2-0.4,3.4c-0.2,1.2-0.4,2.4-0.6,3.5c-0.3,1.1-0.5,2.1-0.9,3L77.9,18.4z M76.7,14.5c0.3-1.2,0.5-2.4,0.7-3.6
		c0.1-0.8,0.2-1.6,0.3-2.4l1,0.1c-0.1,0.8-0.1,1.6-0.3,2.5c-0.2,1.3-0.4,2.5-0.6,3.7c-0.2,0.8-0.3,1.5-0.5,2.2l-1.1-0.4
		C76.3,16,76.5,15.3,76.7,14.5z"/>
	<path class="st0" d="M80,0.1v35.5h4.1V8.7c0.1,0.3,0.3,0.7,0.4,1c0.3,0.8,0.6,1.6,0.9,2.3c0.3,0.7,0.4,1.4,0.6,2l2.1-1
		c-0.4,0.9-0.8,1.7-1.3,2.4c0.3,0.1,0.7,0.3,1.2,0.5c0.5,0.2,0.9,0.4,1.4,0.7c0.5,0.2,0.8,0.5,1.1,0.7c0.7-1.2,1.3-2.6,1.9-4.2
		c0.1-0.4,0.3-0.9,0.4-1.3h4.6v6.7h-7.6v3.8h7.6v8.2H86.9v3.9h23.6v-3.9h-9.1v-8.2h7.2v-3.8h-7.2v-6.7h8V7.9h-8V0.3h-4.1v7.6h-3.5
		c0.4-1.8,0.8-3.6,1-5.4l-4-0.6c-0.2,1.7-0.5,3.4-0.9,5.1c-0.4,1.7-0.8,3.2-1.3,4.7c0,0,0,0,0,0c-0.2-0.6-0.4-1.3-0.8-2
		c-0.5-1.2-1-2.3-1.6-3.2l-2.2,0.9V0.1H80z M88.5,14.4l0.1,0.2l0.8-2.1l0.7-1.7L89.9,11c0.4-1.2,0.8-2.5,1.1-3.9
		c0.3-1.4,0.6-2.7,0.8-4.1l2,0.3c-0.2,1.5-0.5,2.9-0.9,4.4l-0.3,1.2h5.8V1.3h2.1v7.6h8v1.9h-8v8.7h7.2v1.8h-7.2v10.2h9.1v1.9H87.9
		v-1.9h10.5V21.3h-7.6v-1.8h7.6v-8.7H92l-0.4,1.1c-0.1,0.3-0.2,0.6-0.3,0.8c-0.4,1.1-0.8,2.2-1.3,3.1c-0.1,0-0.1-0.1-0.2-0.1
		c-0.5-0.2-0.9-0.5-1.4-0.7c-0.1,0-0.1-0.1-0.2-0.1C88.3,14.8,88.4,14.6,88.5,14.4z M83.1,34.6H81V1.1h2.1V34.6z M85.9,7.6
		c0.4,0.7,0.8,1.5,1.1,2.4c0.3,0.7,0.5,1.4,0.7,2l0,0.1l-1.1,0.5c-0.1-0.3-0.2-0.6-0.3-0.9c-0.3-0.7-0.5-1.5-0.9-2.3
		C85.3,9,85.2,8.7,85,8.3l-1.6,0.3L85.9,7.6z"/>
</g>
</svg>
