<?xml version="1.0" encoding="utf-8"?>
<!-- Generator: Adobe Illustrator 27.9.1, SVG Export Plug-In . SVG Version: 6.00 Build 0)  -->
<svg version="1.1" id="Layer_1" xmlns="http://www.w3.org/2000/svg" xmlns:xlink="http://www.w3.org/1999/xlink" x="0px" y="0px"
	 viewBox="0 0 358.9 65.8" style="enable-background:new 0 0 358.9 65.8;" xml:space="preserve">
<g>
	<path d="M12.6,13.7v12.2h21.6v12.5H12.6v12.9h25.1v12.5H0V1.3h37.7v12.4H12.6z"/>
	<path d="M43.7,53.1l10-7.1c2.8,4.4,6.7,6.4,12.1,6.4c5.9,0,9.9-2.4,9.9-5.7c0-4.6-7.5-8.2-14-11.4c-7-3.5-14.7-7.3-14.7-17.3
		c0-10.8,9.2-18,20.6-18C76.1,0,83.2,3.5,86,11.1l-9.3,6.5c-1.9-3.7-5.5-5.2-9-5.2c-4.7,0-8.2,2.7-8.2,5.9c0,3.7,4.7,5,11.9,8.4
		c10.4,4.9,16.9,10.2,16.9,19.8c0,11.4-9.3,18.7-22.7,18.7C55.4,65.1,47.9,60.8,43.7,53.1z"/>
	<path d="M135.5,13.8h-15.4v50.1h-12.6V13.8H92.2V1.3h43.4V13.8z"/>
	<path d="M134.3,57.8c0-4.4,3.6-8,8-8c4.3,0,8,3.7,8,8c0,4.4-3.6,8-8,8C137.9,65.8,134.3,62.3,134.3,57.8z"/>
	<path d="M200.1,0.5v63.3h-12.6V16.7l-7.1,2.1V5.6l16-5.1H200.1z"/>
	<path d="M252.2,22.1c0,8-2.4,10.4-20.1,41.7h-14.4l12.5-22.4c-1.2,0.3-2.5,0.5-3.7,0.5c-9.5,0-18.3-8.7-18.3-19.9
		c0-11.8,9.7-21.8,22-21.8C242.6,0.2,252.2,10.3,252.2,22.1z M239.6,22.2c0-5.1-4.3-9.5-9.5-9.5c-5.2,0-9.4,4.3-9.4,9.5
		c0,5.1,4.3,9.4,9.4,9.4S239.6,27.3,239.6,22.2z"/>
	<path d="M301.6,22.1c0,8-2.4,10.4-20.1,41.7h-14.4l12.5-22.4c-1.2,0.3-2.5,0.5-3.7,0.5c-9.5,0-18.3-8.7-18.3-19.9
		c0-11.8,9.7-21.8,22-21.8C292,0.2,301.6,10.3,301.6,22.1z M289,22.2c0-5.1-4.3-9.5-9.5-9.5c-5.2,0-9.4,4.3-9.4,9.5
		c0,5.1,4.3,9.4,9.4,9.4S289,27.3,289,22.2z"/>
	<path d="M307.1,32.6c0-19,10.4-32.4,25.9-32.4c15.5,0,25.9,13.4,25.9,32.4c0,18.9-10.4,32.3-25.9,32.3
		C317.5,64.9,307.1,51.5,307.1,32.6z M346.3,32.6c0-11.6-5.2-19.7-13.3-19.7c-8.1,0-13.3,8.2-13.3,19.7c0,11.5,5.2,19.7,13.3,19.7
		C341.1,52.2,346.3,44.1,346.3,32.6z"/>
</g>
</svg>
