<?xml version="1.0" encoding="utf-8"?>
<!-- Generator: Adobe Illustrator 27.9.1, SVG Export Plug-In . SVG Version: 6.00 Build 0)  -->
<svg version="1.1" id="Layer_1" xmlns="http://www.w3.org/2000/svg" xmlns:xlink="http://www.w3.org/1999/xlink" x="0px" y="0px"
	 viewBox="0 0 185.7 35.5" style="enable-background:new 0 0 185.7 35.5;" xml:space="preserve">
<style type="text/css">
	.st0{fill:#282828;}
</style>
<g>
	<path class="st0" d="M118.9,0h4v31c0,1-0.1,1.8-0.3,2.4c-0.2,0.6-0.6,1-1.3,1.3c-0.6,0.3-1.3,0.5-2.2,0.6c-0.9,0.1-2,0.1-3.4,0.1
		c-0.1-0.5-0.2-1.1-0.4-1.8c-0.2-0.7-0.5-1.3-0.7-1.9c0.8,0,1.5,0,2.2,0.1c0.7,0,1.2,0,1.4,0c0.3,0,0.4-0.1,0.6-0.2
		c0.1-0.1,0.2-0.3,0.2-0.6V0z M129,0.1h4.1v10.5c0,0.7,0.2,1.1,0.5,1.3c0.3,0.2,1.1,0.3,2.2,0.3c0.2,0,0.6,0,1,0c0.5,0,1,0,1.6,0
		c0.6,0,1.2,0,1.8,0s1.2,0,1.7,0s0.9,0,1.2,0c0.6,0,1.1-0.1,1.4-0.3c0.3-0.2,0.6-0.6,0.7-1.3c0.2-0.6,0.3-1.6,0.3-2.9
		c0.4,0.3,1,0.6,1.7,0.9c0.7,0.3,1.4,0.5,1.9,0.6c-0.2,1.8-0.4,3.1-0.8,4.1c-0.4,1-1,1.6-1.8,2c-0.8,0.4-1.9,0.6-3.3,0.6
		c-0.2,0-0.6,0-1.1,0s-1.1,0-1.8,0c-0.7,0-1.3,0-2,0c-0.7,0-1.3,0-1.8,0c-0.5,0-0.9,0-1.1,0c-1.7,0-3-0.2-3.9-0.5
		c-0.9-0.3-1.6-0.8-1.9-1.6c-0.4-0.8-0.6-1.8-0.6-3.2V0.1z M4.6,1.4h25.8v14H4.6V1.4z M54.7,1.8c-0.2,0.7-0.4,1.6-0.6,2.7
		c-0.3,1.1-0.7,2.3-1.2,3.6c-0.4,1-0.9,2-1.5,3.1c-0.6,1.1-1.2,2-1.8,2.9c0.4-0.2,0.8-0.4,1.4-0.5c0.5-0.1,1.1-0.2,1.7-0.3
		c0.6-0.1,1.1-0.1,1.5-0.1c1.6,0,2.9,0.5,3.9,1.3c1,0.9,1.6,2.2,1.6,3.9c0,0.5,0,1.1,0,1.9c0,0.7,0,1.5,0,2.3c0,0.8,0,1.6,0.1,2.4
		c0,0.8,0,1.5,0,2.1h-4.1c0.1-0.5,0.1-1,0.1-1.6c0-0.6,0-1.3,0.1-2c0-0.7,0-1.4,0-2c0-0.6,0-1.2,0-1.7c0-1.2-0.3-2-1-2.5
		c-0.7-0.5-1.4-0.7-2.2-0.7c-1.1,0-2.2,0.3-3.3,0.8c-1.1,0.5-2,1.1-2.8,1.9c-0.6,0.6-1.1,1.2-1.7,1.9c-0.6,0.7-1.2,1.4-1.8,2.3
		l-3.6-2.7c1.7-1.6,3.1-3.1,4.3-4.6s2.2-2.9,3-4.2c0.8-1.4,1.5-2.7,2-4c0.4-1,0.7-2.1,0.9-3.2c0.3-1.1,0.4-2.1,0.5-3.1L54.7,1.8z
		 M143.8,1.8l3,3c-1.4,0.6-2.9,1.1-4.6,1.6c-1.7,0.5-3.4,0.9-5.1,1.3c-1.7,0.4-3.4,0.8-5.1,1.1c-0.1-0.4-0.3-0.9-0.5-1.5
		c-0.3-0.6-0.5-1.1-0.7-1.5c1.6-0.3,3.2-0.7,4.8-1.1c1.6-0.4,3.1-0.9,4.6-1.4C141.6,2.8,142.8,2.3,143.8,1.8z M80,2.2h26.7v32.9
		h-4.3v-29H84.1v29H80V2.2z M179.3,2.5c0,0.2-0.1,0.5-0.1,0.9c0,0.4-0.1,0.8-0.1,1.2c0,0.4,0,0.8,0,1.1c0,0.8,0,1.6-0.1,2.4
		c0,0.8,0,1.6,0,2.3c0,0.7,0,1.4-0.1,2.1c0,1.1-0.1,2.2-0.1,3.4c0,1.2-0.1,2.3-0.2,3.4c-0.1,1-0.2,1.9-0.3,2.5
		c-0.2,0.9-0.6,1.6-1,1.9c-0.5,0.3-1.2,0.5-2.2,0.5c-0.4,0-1,0-1.7-0.1c-0.7-0.1-1.4-0.1-2.1-0.2c-0.7-0.1-1.2-0.2-1.7-0.2l0.1-3.7
		c0.6,0.1,1.3,0.2,2,0.3c0.7,0.1,1.2,0.1,1.6,0.1c0.4,0,0.7-0.1,0.9-0.2c0.2-0.1,0.3-0.4,0.4-0.7c0.1-0.5,0.1-1.1,0.2-1.9
		c0-0.8,0.1-1.6,0.1-2.5c0-0.9,0.1-1.8,0.1-2.6c0-0.7,0-1.4,0-2.1c0-0.7,0-1.5,0-2.2s0-1.5,0-2.2c0-0.3,0-0.7,0-1.1
		c0-0.4-0.1-0.8-0.1-1.2c0-0.4-0.1-0.7-0.1-1H179.3z M164.3,3.7c-0.1,0.6-0.1,1.1-0.2,1.7c0,0.6,0,1.2,0,2c0,0.7,0,1.7,0,2.8
		c0,1.2,0,2.4,0,3.8c0,1.4,0,2.7,0,4c0,1.3,0,2.5,0,3.6c0,1.1,0,1.9,0,2.5c0,1,0.1,1.8,0.2,2.4c0.1,0.6,0.4,1.1,0.8,1.5
		c0.4,0.4,1,0.6,1.8,0.8c0.8,0.1,2,0.2,3.5,0.2c1.3,0,2.6,0,4-0.1c1.4-0.1,2.7-0.2,4-0.3c1.3-0.2,2.4-0.3,3.3-0.5l-0.2,4.6
		c-0.8,0.1-1.9,0.2-3.1,0.3c-1.2,0.1-2.5,0.2-3.9,0.2c-1.4,0.1-2.7,0.1-3.9,0.1c-2.4,0-4.3-0.1-5.7-0.4c-1.4-0.3-2.5-0.7-3.2-1.4
		s-1.2-1.5-1.4-2.6c-0.2-1.1-0.4-2.4-0.4-4.1c0-0.5,0-1.3,0-2.2c0-0.9,0-2,0-3.2c0-1.2,0-2.4,0-3.6c0-1.2,0-2.4,0-3.5
		c0-1.1,0-2.1,0-2.9c0-0.8,0-1.4,0-1.8c0-0.7,0-1.4-0.1-2c0-0.6-0.1-1.2-0.2-1.9H164.3z M8.6,4.5v2.4h17.6V4.5H8.6z M40.7,5.5
		c1,0.1,2.1,0.2,3.3,0.3c1.2,0.1,2.3,0.1,3.3,0.1c1.7,0,3.5,0,5.5-0.1c2-0.1,4-0.2,6-0.4c2-0.2,4-0.4,5.8-0.7v4
		c-1.3,0.2-2.8,0.4-4.3,0.5c-1.5,0.1-3.1,0.3-4.7,0.3c-1.6,0.1-3.1,0.2-4.6,0.2c-1.5,0-2.8,0.1-3.9,0.1c-0.5,0-1.2,0-1.9,0
		c-0.7,0-1.5,0-2.3-0.1c-0.8-0.1-1.5-0.1-2.2-0.1V5.5z M114,7.3h13v3.8h-13V7.3z M152,12.4c0.6,0,1.2,0,2-0.1
		c0.8-0.1,1.6-0.1,2.5-0.2c0.8-0.1,1.9-0.2,3.4-0.3c1.5-0.1,3.2-0.3,5.1-0.5c1.9-0.2,3.9-0.4,6-0.6c2.1-0.2,4.1-0.4,6-0.5
		s3.7-0.3,5.1-0.4c0.5-0.1,1.1-0.1,1.7-0.1c0.6,0,1.2-0.1,1.7-0.1v4.2c-0.2,0-0.5,0-0.9,0s-0.9,0-1.3,0c-0.5,0-0.9,0-1.2,0.1
		c-1,0-2.2,0.1-3.6,0.2c-1.4,0.1-3,0.2-4.6,0.4c-1.6,0.1-3.3,0.3-5,0.5c-1.7,0.2-3.3,0.3-4.9,0.5c-1.6,0.2-3,0.3-4.2,0.5
		c-1.3,0.1-2.3,0.2-3,0.3c-0.4,0.1-0.8,0.1-1.4,0.2c-0.6,0.1-1.1,0.2-1.6,0.2s-1,0.1-1.3,0.2L152,12.4z M8.6,9.8v2.4h17.6V9.8H8.6z
		 M82.9,11h21v3.9h-21V11z M70.5,15.8c-0.4,0.1-0.8,0.2-1.3,0.4c-0.5,0.2-1,0.4-1.5,0.6c-0.5,0.2-1,0.4-1.4,0.5
		c-1.3,0.5-2.7,1.1-4.4,1.8c-1.7,0.7-3.4,1.5-5.2,2.4c-1.2,0.6-2.2,1.2-3,1.8c-0.8,0.6-1.5,1.2-1.9,1.9c-0.4,0.6-0.7,1.3-0.7,2.1
		c0,0.6,0.1,1.1,0.4,1.4c0.3,0.4,0.6,0.7,1.1,0.9c0.5,0.2,1.1,0.3,1.9,0.4c0.7,0.1,1.6,0.1,2.5,0.1c1.6,0,3.3-0.1,5.3-0.3
		c1.9-0.2,3.7-0.4,5.4-0.7l-0.2,4.4c-0.9,0.1-1.9,0.2-3.1,0.3c-1.2,0.1-2.5,0.2-3.8,0.2c-1.3,0.1-2.5,0.1-3.7,0.1
		c-1.9,0-3.7-0.2-5.2-0.6c-1.5-0.4-2.8-1-3.7-1.9c-0.9-0.9-1.3-2.1-1.3-3.7c0-1.3,0.3-2.4,0.9-3.4c0.6-1,1.4-2,2.3-2.8
		c1-0.8,2-1.6,3.2-2.3c1.2-0.7,2.3-1.3,3.4-1.9c1.2-0.6,2.3-1.1,3.3-1.6c1-0.4,1.9-0.8,2.8-1.2c0.8-0.4,1.7-0.7,2.5-1.1
		c0.7-0.3,1.3-0.6,2-0.9c0.6-0.3,1.3-0.6,1.9-0.9L70.5,15.8z M6.7,15.2l4,1.1c-0.6,1.2-1.2,2.4-2,3.6c-0.8,1.2-1.6,2.3-2.5,3.3
		c-0.9,1-1.8,2-2.7,2.7c-0.3-0.3-0.6-0.5-1-0.9c-0.4-0.3-0.8-0.6-1.3-0.9c-0.4-0.3-0.8-0.6-1.1-0.8c1.3-1,2.6-2.3,3.8-3.7
		C5,18.3,5.9,16.7,6.7,15.2z M15.5,16.1h4.3v17.3h-4.3V16.1z M113.4,19.6c1.2-0.3,2.5-0.6,4-0.9c1.5-0.4,3.1-0.8,4.7-1.2
		c1.6-0.4,3.3-0.9,4.9-1.3l0.5,3.8c-2.3,0.6-4.5,1.3-6.8,1.9c-2.3,0.6-4.4,1.2-6.3,1.7L113.4,19.6z M129,18.3h18.4v17h-4.1V21.6
		h-10.5v13.8H129V18.3z M6.3,18.7h25.5v3.4H6.3V18.7z M82.9,19.9h21v3.8h-21V19.9z M131,24.4h13.7v3.2H131V24.4z M5.4,24.8h24.7V28
		H5.4V24.8z M82.9,28.7h21v4h-21V28.7z M130.8,30.5h13.9v3.3h-13.9V30.5z M0.8,31h33.5v3.5H0.8V31z"/>
</g>
</svg>
