<?xml version="1.0" encoding="utf-8"?>
<!-- Generator: Adobe Illustrator 27.9.1, SVG Export Plug-In . SVG Version: 6.00 Build 0)  -->
<svg version="1.1" id="Layer_1" xmlns:inkscape="http://www.inkscape.org/namespaces/inkscape"
	 xmlns="http://www.w3.org/2000/svg" xmlns:xlink="http://www.w3.org/1999/xlink" x="0px" y="0px" viewBox="0 0 253.7 31.7"
	 style="enable-background:new 0 0 253.7 31.7;" xml:space="preserve">
<style type="text/css">
	.st0{fill:#070707;}
</style>
<g>
	<path class="st0" d="M0.6,10.8c4.3,0,9.8-0.1,16.4-0.3c10-0.1,15.8-0.1,17.4-0.2l-0.5-3.9l-8.2,0.1C25.9,6,26,5.4,26.1,4.9l5.3,0
		l-0.4-3.9L19.8,1.1c-0.2-0.3-0.5-0.7-0.9-1.1l-5.6,0.3c0.3,0.5,0.6,0.8,0.7,0.9l-11,0.2L3,5.3l5-0.1c0.1,0.6,0.2,1.1,0.3,1.7
		l-8,0.1L0.6,10.8z M20.9,4.9c-0.1,0.5-0.3,1.1-0.6,1.7L14,6.8c-0.2-0.6-0.4-1.2-0.6-1.7C15.9,5,18.4,5,20.9,4.9z"/>
	<path class="st0" d="M19.6,26.8c-1.3,0.1-2.1,0.1-2.6,0.1c-0.9,0-1.6-0.1-2-0.3c-0.5-0.3-0.8-1.4-0.9-3.2H8.9l0,1.4
		c0,2.1,0.3,3.6,0.9,4.6c0.8,1.1,1.9,1.8,3.4,1.9c1.5,0.2,2.7,0.3,3.8,0.3c1.1,0,2.2-0.1,3.4-0.2c2.3-0.2,4.2-0.6,5.6-1.2l-0.1-4.9
		C23,26.2,20.9,26.7,19.6,26.8z"/>
	<path class="st0" d="M26.3,24.6c1.3,1.7,2.4,3.8,3.2,6.4l5.1-2c-0.9-2.7-2.1-4.8-3.5-6.2L26.3,24.6z"/>
	<path class="st0" d="M0,29.3l5.2,1.9c1.4-2.3,2.3-4.7,2.6-7.1l-4.7-0.7C2.7,25.6,1.7,27.5,0,29.3z"/>
	<path class="st0" d="M30.9,15.1c0-2.2-1.2-3.3-3.7-3.4c-2.2-0.1-4.2-0.1-6.1-0.1c-4.2,0-9.6,0.1-16.2,0.4c0.1,2.2,0.2,5.1,0.2,8.8
		L5,23l10.4-0.2c0.7,1,1.3,2.1,1.9,3.3l5-1.4c-0.3-0.8-0.7-1.4-1-1.9l9.4-0.1C30.8,20,30.9,17.5,30.9,15.1z M25,19.4
		c-5.8,0.2-10.7,0.3-14.5,0.3v-1.2c4.8-0.1,9.7-0.1,14.5-0.1V19.4z M25,15.8L10.6,16v-1.1c4.8-0.1,9-0.2,12.6-0.2
		c0.7,0,1.1,0,1.4,0.1c0.3,0.1,0.4,0.3,0.5,0.8V15.8z"/>
	<path class="st0" d="M49.1,7.6C49,6,48.7,4.9,48,4.3c-0.7-0.6-1.6-0.9-2.7-0.9c-1.3,0-2.4,0.1-3.3,0.2l-0.3-0.9l-4.3,0.8
		c0.2,0.8,0.3,3.7,0.3,8.5c0,4.1,0,8.7-0.1,13.7L49,25.5c0.1-5.4,0.2-9.8,0.2-13.3C49.2,10.7,49.2,9.2,49.1,7.6z M44.6,20.6
		l-2.5,0.1v-12c0.7-0.2,1.2-0.3,1.4-0.3c0.4,0,0.8,0.3,1.1,0.9c0.1,0.4,0.1,1,0.1,1.9L44.6,20.6z"/>
	<path class="st0" d="M70.5,17.7l-0.3-5.2c-1.9,0-4.4,0.1-7.5,0.3V9.2C66,9.1,68.1,9,69,8.9l-0.2-5.2c-2,0.1-4,0.2-6,0.3
		c-0.1-1.2-0.1-2.4-0.1-3.7l-4.7,0.3c0,1.2,0.1,2.4,0.1,3.6c-2.2,0.1-4.5,0.3-6.8,0.4l0.1,5.2c2-0.1,4.2-0.2,6.6-0.4V13
		c-3.2,0.2-5.8,0.3-7.9,0.3l0.1,5.2c1.2,0,2.4-0.1,3.7-0.2c-0.9,3.8-2.4,6.9-4.6,9.3l4.3,2.6c1.8-2.4,3.3-5.7,4.4-9.8
		c-0.1,5.5-0.1,9.2-0.2,11.3h5V19.2c1.2,3.1,2.3,6.8,3.3,11l5.2-1.7c-1.1-3.9-2.5-7.4-4-10.7C68.8,17.9,69.9,17.8,70.5,17.7z"/>
	<path class="st0" d="M91.8,2.3c-3.1,0-5.9,0.6-8.3,1.9S79.3,7.4,78,9.8c-1.3,2.4-2,5.1-2,8.1c0,3.2,0.7,5.8,2.2,7.6
		c1.5,1.8,3.5,2.8,6.1,2.8c2.2,0,4-0.7,5.5-2.2c1.4-1.4,2.6-3.5,3.8-6.3s2.1-6.2,2.8-10.2l-5-1.7c2.8,0,5.2,0.8,7,2.5
		c1.8,1.6,2.7,3.8,2.7,6.4c0,1.8-0.5,3.6-1.4,5.5c-1,1.8-2.3,3.5-4.1,5l5.8,3.5c1.9-1.9,3.4-4,4.4-6.3s1.5-4.8,1.5-7.3
		c0-4.4-1.4-7.9-4.3-10.6C100.2,3.7,96.5,2.3,91.8,2.3z M87.1,18.4c-1,2.2-2.1,3.4-3.2,3.4c-0.7,0-1.2-0.4-1.6-1.2
		c-0.4-0.8-0.6-1.9-0.6-3.2c0-2.7,0.8-4.9,2.3-6.5c1.5-1.7,3.6-2.7,6.3-2.9C89.2,12.6,88.2,16.1,87.1,18.4z"/>
	<path class="st0" d="M139.3,13c-2.4-2-5.8-3-10.2-3c-0.9,0-1.8,0-2.6,0.1c0-0.5,0-1.1,0.1-1.7c4.6-0.2,8.7-0.2,12.5,0l0-5.2
		c-3.6-0.1-7.6-0.1-12,0c0.1-0.8,0.2-1.6,0.3-2.5l-5.7-0.3c-0.2,1.1-0.3,2.1-0.4,3.1c-2.9,0.2-5.5,0.4-7.9,0.7l0.4,5.3
		c2.1-0.3,4.4-0.5,7-0.7c0,0.9,0,1.8,0,2.7c-2.5,1-4.5,2.5-5.9,4.5s-2.1,4.2-2.1,6.7c0,2.5,0.7,4.4,2,5.7c1.3,1.3,3.2,1.9,5.7,1.9
		c3.1,0,5.9-1.1,8.3-3.2s4.7-5.4,6.6-9.7c1,1,1.5,2.3,1.5,3.8c0,2.4-1.2,4.9-3.6,7.6l5.4,2.9c1.4-1.4,2.4-3,3.1-4.8
		c0.7-1.8,1.1-3.6,1.1-5.5C143,17.7,141.8,15,139.3,13z M120.4,24.8c-1.5,0-2.2-0.7-2.2-2.2c0-2,1-3.7,3.1-5.2
		c0.2,1.9,0.5,3.7,0.9,5.5l3-0.5C123.5,24,121.9,24.8,120.4,24.8z M127.4,20.1c-0.3-1.6-0.6-3.2-0.7-4.8c0.7-0.1,1.4-0.2,2.1-0.2
		s1.1,0,1.5,0.1C129.4,17.1,128.5,18.7,127.4,20.1z"/>
	<path class="st0" d="M170,11.5c1.8-1.4,2.7-3,2.7-5c0-1.7-0.8-2.9-2.3-3.7c-1.5-0.8-3.9-1.2-7-1.2s-6.6,0.3-10.3,0.8l1,5.7
		c3.6-0.6,6.8-1,9.7-1c1.6,0,2.3,0.2,2.3,0.7c0,0.9-2.4,2-7.3,3.1l1.1,5.4c1.5-0.4,3.2-0.6,5-0.6c1.8,0,3.3,0.4,4.3,1.2
		c1.1,0.8,1.6,2,1.6,3.5c0,1.5-0.6,2.7-1.7,3.5c-1.2,0.9-2.8,1.3-5,1.4l3-2.6c-2.2-3.5-5.1-5.2-8.5-5.2c-1.8,0-3.3,0.6-4.5,1.8
		c-1.2,1.2-1.9,2.7-1.9,4.5c0,2.2,1,4,3,5.3c2,1.3,4.7,1.9,8.2,1.9c4.2,0,7.6-0.9,10-2.8c2.4-1.8,3.6-4.4,3.6-7.6
		c0-2.2-0.6-4.1-1.8-5.7C174,13.3,172.3,12.2,170,11.5z M159,24.7c-0.8-0.3-1.2-0.8-1.2-1.2c0-0.5,0.4-0.7,1.1-0.7
		c0.4,0,0.9,0.2,1.5,0.7c0.6,0.5,1.2,1.1,1.7,1.9C160.8,25.3,159.8,25.1,159,24.7z"/>
	<path class="st0" d="M187.7,0.1c-0.5,5.6-2.2,10.2-5,13.7l2.4,5.5c0.7-0.8,1.1-1.3,1.2-1.4c0,5.3-0.1,9.8-0.4,13.6l5.7-0.1l0-4.2
		c0-5.4-0.1-11.2-0.3-17.4c0.8-3.4,1.2-6.3,1.4-8.7L187.7,0.1z"/>
	<path class="st0" d="M215.8,18.7c-0.3-0.5-0.8-0.8-1.4-0.9c-0.6-0.1-1.5-0.2-2.7-0.2c-0.3,0-2.1,0-5.3,0.1v-1.1
		c2.4-0.1,5.1-0.2,8.1-0.3c0.1-2,0.1-3.9,0.1-5.6c0-1.7,0-3.3-0.1-4.7l0-1.3c-0.2-2.8-1.4-4.3-3.6-4.4c-3,0-7.2,0.2-12.4,0.6
		c0,0-0.1-0.3-0.1-0.7l-4.6,0.6c0.2,3.3,0.3,7.7,0.3,13l0,3.3c3.1,0,5.8-0.1,7.9-0.1c0,0.4,0,0.8,0,1.2l-0.4,0
		c-1.7,0-4.5,0.3-8.6,0.7c0.1,2.8,0.1,4.6,0.1,5.6c0,1,0,3.4,0.1,7.3l4.5,0l0-5.4c0-0.5,0-1.8-0.1-3.8c1.5-0.1,2.9-0.2,4.4-0.3v2.1
		c-1.3,0.1-2.5,0.2-3.6,0.2l0.5,4.6c2.6-0.3,5.9-0.7,9.7-1.1c0.1,0.2,0.2,0.9,0.3,1.9l1.3-0.2l0.2,2c0.8,0.2,1.5,0.3,2,0.3
		c2.3,0,3.6-0.9,4.1-2.6c0.2-0.7,0.4-2,0.4-3.7c0-2.2-0.1-3.7-0.2-4.6C216.4,19.8,216.2,19.1,215.8,18.7z M206.5,4.6l2.3,0
		c0.2,0,0.4,0,0.4,0.1c0.4,0.1,0.6,0.7,0.6,1.7l-3.3,0.2V4.6z M206.5,10.5l3.4-0.3v1.8c-1,0.1-2.2,0.2-3.4,0.2V10.5z M202,12.6
		l-3.4,0.1l0-1.7l3.4-0.2V12.6z M202,7l-3.4,0.1V5.2l3.4-0.2V7z M211.9,26.7L211.9,26.7c-0.4-1.9-0.8-3.5-1.3-4.9l-3,0.5
		c0.1,0.4,0.2,0.8,0.3,1.2l-1.3,0.1c0-0.6,0-1.2,0-1.9c1.9-0.1,3.5-0.1,4.7-0.2c0.5,0,0.8,0.4,0.8,1.3l0.1,2.2
		C212.2,26,212.1,26.6,211.9,26.7z"/>
	<path class="st0" d="M252.2,5.2c-0.5-1.6-1.1-3.2-1.9-4.8l-3.8,0.9c0.7,1.6,1.2,3.2,1.4,4.8L252.2,5.2z"/>
	<path class="st0" d="M219.3,30.4l5.3,1.3c1-2.3,1.5-4.4,1.7-6.1l-4.9-0.2C221.2,26.9,220.5,28.5,219.3,30.4z"/>
	<path class="st0" d="M253.4,22.9c-1-2.5-2.8-6.1-5.5-10.7c3,0,4.7-0.1,5.1-0.1l-0.2-5.3c-1.6,0.1-3.8,0.1-6.6,0.2l0.1-1.4
		c0-1.6-0.1-3.5-0.3-5.5l-4.8,0.1c0.1,1.2,0.2,2.4,0.2,3.6c0,1.2-0.1,2.3-0.2,3.3l-3.3,0c-0.1-2.3-1.2-3.6-3.1-3.8
		c-0.7,0-1.8,0-3.5-0.1c0.5-1,0.8-1.8,1-2.6l-4.8-0.7c-1,4.1-3.5,7.7-7.7,10.8l4.2,3c2.1-1.4,4-3.5,5.5-6.5c1.4,0.1,2.3,0.2,2.7,0.4
		c0.4,0.3,0.7,0.6,0.7,0.9c0,0.3-0.2,0.7-0.5,1.4c-1-0.5-1.9-0.9-2.7-1.2l-2.2,2.7c1,0.6,2,1.2,2.9,1.9c-0.4,0.5-0.9,1-1.4,1.7
		c-1.1-0.7-2.1-1.3-3-1.6l-2.6,2.8c0.9,0.5,1.7,1,2.4,1.6c-1.4,0.9-3,1.7-4.9,2.5l3.3,3.9c3.3-1.4,6-3.3,8.2-5.7
		c2.2-2.4,3.6-4.5,4.4-6.3c0.4-1,0.8-2.2,1.2-3.7l0,4l2.3,0c-0.9,3.6-3.3,6.6-6.9,9.1l4.9,3.2c2.9-2.2,4.8-5,5.9-8.5
		c1.9,3,3.1,5.7,3.9,8L253.4,22.9z"/>
	<path class="st0" d="M245.6,25.6c1.3,1.9,2.1,3.8,2.4,5.9l5.7-0.9c-0.7-2.1-1.6-4-2.9-5.9L245.6,25.6z"/>
	<path class="st0" d="M229.1,31l5.4,0.1c0.3-1.8,0.4-3.6,0.4-5.6l-5.2,0C229.5,27,229.2,28.8,229.1,31z"/>
	<path class="st0" d="M237.9,25.6v0.6c0,1.4,0,3,0.1,4.8l5.5,0c-0.1-1.8-0.2-3.7-0.5-5.6L237.9,25.6z"/>
</g>
</svg>
