<?xml version="1.0" encoding="utf-8"?>
<!-- Generator: Adobe Illustrator 27.9.1, SVG Export Plug-In . SVG Version: 6.00 Build 0)  -->
<svg version="1.1" id="Layer_1" xmlns="http://www.w3.org/2000/svg" xmlns:xlink="http://www.w3.org/1999/xlink" x="0px" y="0px"
	 viewBox="0 0 33.4 35.6" style="enable-background:new 0 0 33.4 35.6;" xml:space="preserve">
<style type="text/css">
	.st0{fill:#282828;}
</style>
<g>
	<path class="st0" d="M20.9,0H25v7.1h-4.1V0z M8.2,0h4.1v7.1H8.2V0z M0,2.2h33.4v3.5H0V2.2z M2.9,7.8h27.7v8.3H2.9V7.8z M22.2,10.5
		v2.9h4.6v-2.9H22.2z M14.3,10.5v2.9h4.5v-2.9H14.3z M6.5,10.5v2.9h4.4v-2.9H6.5z M0,17.7h33.4v6.7h-4v-3.5H3.8v3.5H0V17.7z
		 M12.6,19.6l4,0.8c-1.4,1.8-3.1,3.4-5.2,4.8C9.4,26.7,6.9,27.9,4,29c-0.2-0.3-0.4-0.6-0.6-1c-0.3-0.4-0.6-0.7-0.9-1
		c-0.3-0.3-0.6-0.6-0.9-0.8c2.7-0.8,5-1.8,6.8-2.9C10.2,22,11.7,20.9,12.6,19.6z M23.1,22.5h0.8l0.7-0.2l2.6,1.4
		c-1,1.8-2.3,3.3-3.9,4.7c-1.6,1.3-3.4,2.5-5.4,3.4c-2,0.9-4.1,1.7-6.4,2.3c-2.3,0.6-4.6,1.1-6.9,1.4c-0.2-0.5-0.4-1.1-0.8-1.7
		c-0.4-0.7-0.7-1.2-1-1.6C5,32,7.1,31.6,9.2,31.1c2.1-0.5,4-1.1,5.9-1.8c1.8-0.7,3.4-1.6,4.8-2.7c1.4-1,2.5-2.2,3.2-3.6V22.5z
		 M11.9,22.5h12.2v2.8H9.2L11.9,22.5z M7.3,27.1l2.5-2.1c0.9,0.3,1.7,0.7,2.6,1.1c0.9,0.5,1.7,0.9,2.5,1.4c0.8,0.5,1.5,1,2,1.4
		l-2.6,2.4c-0.5-0.5-1.1-1-1.9-1.5c-0.8-0.5-1.6-1-2.5-1.5C9,27.8,8.2,27.4,7.3,27.1z"/>
</g>
</svg>
