<?xml version="1.0" encoding="utf-8"?>
<!-- Generator: Adobe Illustrator 27.9.1, SVG Export Plug-In . SVG Version: 6.00 Build 0)  -->
<svg version="1.1" id="Layer_1" xmlns="http://www.w3.org/2000/svg" xmlns:xlink="http://www.w3.org/1999/xlink" x="0px" y="0px"
	 viewBox="0 0 184.1 35.7" style="enable-background:new 0 0 184.1 35.7;" xml:space="preserve">
<style type="text/css">
	.st0{fill:#282828;}
</style>
<g>
	<path class="st0" d="M20.9,0H25v7.1h-4.1V0z M8.2,0h4.1v7.1H8.2V0z M128.5,0h4.2V6h-4.2V0z M53.9,1.8c-0.2,0.7-0.4,1.6-0.6,2.7
		c-0.3,1.1-0.7,2.3-1.2,3.6c-0.4,1-0.9,2-1.5,3.1c-0.6,1.1-1.2,2-1.8,2.9c0.4-0.2,0.8-0.4,1.4-0.5c0.5-0.1,1.1-0.2,1.7-0.3
		c0.6-0.1,1.1-0.1,1.5-0.1c1.6,0,2.9,0.5,3.9,1.3c1,0.9,1.6,2.2,1.6,3.9c0,0.5,0,1.1,0,1.9c0,0.7,0,1.5,0,2.3c0,0.8,0,1.6,0.1,2.4
		c0,0.8,0,1.5,0,2.1h-4.1c0.1-0.5,0.1-1,0.1-1.6c0-0.6,0-1.3,0.1-2c0-0.7,0-1.4,0-2c0-0.6,0-1.2,0-1.7c0-1.2-0.3-2-1-2.5
		c-0.7-0.5-1.4-0.7-2.2-0.7c-1.1,0-2.2,0.3-3.3,0.8c-1.1,0.5-2,1.1-2.8,1.9c-0.6,0.6-1.1,1.2-1.7,1.9c-0.6,0.7-1.2,1.4-1.8,2.3
		l-3.6-2.7c1.7-1.6,3.1-3.1,4.3-4.6s2.2-2.9,3-4.2c0.8-1.4,1.5-2.7,2-4c0.4-1,0.7-2.1,0.9-3.2c0.3-1.1,0.4-2.1,0.5-3.1L53.9,1.8z
		 M90.2,1.5h18.5v21.3H90.2V1.5z M75.3,2h13.3v3.8H75.3V2z M0,2.2h33.4v3.5H0V2.2z M160.5,3.2c-0.1,0.2-0.2,0.6-0.3,1
		c-0.1,0.4-0.2,0.8-0.3,1.2c-0.1,0.4-0.2,0.7-0.2,1c-0.1,0.6-0.2,1.3-0.4,2.1c-0.2,0.9-0.3,1.8-0.5,2.9c-0.2,1.1-0.3,2.1-0.5,3.2
		c-0.1,1.1-0.3,2.1-0.4,3.2c-0.1,1-0.2,1.9-0.2,2.7c0,0.5,0,1.1,0.1,1.6c0,0.6,0.1,1.1,0.1,1.6c0.2-0.5,0.4-0.9,0.6-1.4
		c0.2-0.5,0.4-1,0.6-1.5c0.2-0.5,0.4-1,0.6-1.4l2.2,1.7c-0.4,1-0.7,2.1-1.1,3.3c-0.4,1.2-0.7,2.3-1,3.3c-0.3,1-0.5,1.9-0.7,2.5
		c-0.1,0.3-0.1,0.6-0.1,1c0,0.4-0.1,0.6-0.1,0.8c0,0.2,0,0.4,0,0.7c0,0.3,0,0.5,0.1,0.8l-3.9,0.3c-0.4-1.3-0.7-3.1-1-5.2
		c-0.3-2.2-0.5-4.5-0.5-7.1c0-1.4,0.1-2.9,0.2-4.3c0.1-1.5,0.3-2.9,0.5-4.2c0.2-1.4,0.4-2.6,0.5-3.7c0.2-1.1,0.3-2.1,0.5-2.8
		c0.1-0.5,0.1-1.1,0.2-1.7c0.1-0.6,0.1-1.2,0.2-1.7L160.5,3.2z M114.4,3.5h32.5v7.9h-4.2V7h-24.2v4.4h-4V3.5z M80.1,3.5H84v22.3
		l-3.9,0.6V3.5z M39.9,5.5c1,0.1,2.1,0.2,3.3,0.3c1.2,0.1,2.3,0.1,3.3,0.1c1.7,0,3.5,0,5.5-0.1c2-0.1,4-0.2,6-0.4
		c2-0.2,4-0.4,5.8-0.7v4C62.5,8.8,61,9,59.5,9.1c-1.5,0.1-3.1,0.3-4.7,0.3c-1.6,0.1-3.1,0.2-4.6,0.2c-1.5,0-2.8,0.1-3.9,0.1
		c-0.5,0-1.2,0-1.9,0c-0.7,0-1.5,0-2.3-0.1c-0.8-0.1-1.5-0.1-2.2-0.1V5.5z M94,4.9v2.7h10.7V4.9H94z M166.8,5.9
		c1.1,0.2,2.4,0.3,3.9,0.4c1.4,0.1,2.9,0.1,4.4,0.1c1.5,0,2.9-0.1,4.3-0.2c1.4-0.1,2.6-0.2,3.6-0.3v4.4c-1.1,0.1-2.4,0.2-3.8,0.2
		c-1.4,0.1-2.8,0.1-4.3,0.1c-1.5,0-2.9,0-4.3-0.1c-1.4-0.1-2.7-0.1-3.8-0.2L166.8,5.9z M2.9,7.8h27.7v8.3H2.9V7.8z M128.4,8h4.1
		v10.3c0,1.3-0.1,2.6-0.4,3.9c-0.3,1.3-0.7,2.6-1.4,3.8c-0.7,1.3-1.6,2.5-2.9,3.6c-1.2,1.1-2.8,2.2-4.8,3.2c-2,1-4.3,1.9-7.1,2.7
		c-0.2-0.3-0.4-0.7-0.6-1.1c-0.3-0.4-0.6-0.8-0.9-1.2c-0.3-0.4-0.7-0.7-0.9-1c2.7-0.7,4.9-1.4,6.7-2.2c1.8-0.8,3.3-1.7,4.4-2.6
		c1.1-0.9,1.9-1.9,2.5-2.9c0.6-1,0.9-2,1.1-3.1c0.2-1,0.3-2.1,0.3-3.2V8z M117.8,10.5h26.1v3.3h-26.1V10.5z M22.2,10.5v2.9h4.6v-2.9
		H22.2z M14.3,10.5v2.9h4.5v-2.9H14.3z M6.5,10.5v2.9h4.4v-2.9H6.5z M94,10.8v2.8h10.7v-2.8H94z M69.7,15.8
		c-0.4,0.1-0.8,0.2-1.3,0.4c-0.5,0.2-1,0.4-1.5,0.6c-0.5,0.2-1,0.4-1.4,0.5c-1.3,0.5-2.7,1.1-4.4,1.8c-1.7,0.7-3.4,1.5-5.2,2.4
		c-1.2,0.6-2.2,1.2-3,1.8c-0.8,0.6-1.5,1.2-1.9,1.9c-0.4,0.6-0.7,1.3-0.7,2.1c0,0.6,0.1,1.1,0.4,1.4c0.3,0.4,0.6,0.7,1.1,0.9
		c0.5,0.2,1.1,0.3,1.9,0.4c0.7,0.1,1.6,0.1,2.5,0.1c1.6,0,3.3-0.1,5.3-0.3c1.9-0.2,3.7-0.4,5.4-0.7l-0.2,4.4
		c-0.9,0.1-1.9,0.2-3.1,0.3c-1.2,0.1-2.5,0.2-3.8,0.2c-1.3,0.1-2.5,0.1-3.7,0.1c-1.9,0-3.7-0.2-5.2-0.6c-1.5-0.4-2.8-1-3.7-1.9
		c-0.9-0.9-1.3-2.1-1.3-3.7c0-1.3,0.3-2.4,0.9-3.4c0.6-1,1.4-2,2.3-2.8c1-0.8,2-1.6,3.2-2.3c1.2-0.7,2.3-1.3,3.4-1.9
		c1.2-0.6,2.3-1.1,3.3-1.6c1-0.4,1.9-0.8,2.8-1.2c0.8-0.4,1.7-0.7,2.5-1.1c0.7-0.3,1.3-0.6,2-0.9c0.6-0.3,1.3-0.6,1.9-0.9L69.7,15.8
		z M75.7,12.8h12.5v3.8H75.7V12.8z M118.4,16.4h24.8v3.3h-24.8V16.4z M94,16.6v2.8h10.7v-2.8H94z M0,17.7h33.4v6.7h-4v-3.5H3.8v3.5
		H0V17.7z M12.6,19.6l4,0.8c-1.4,1.8-3.1,3.4-5.2,4.8C9.4,26.7,6.9,27.9,4,29c-0.2-0.3-0.4-0.6-0.6-1c-0.3-0.4-0.6-0.7-0.9-1
		c-0.3-0.3-0.6-0.6-0.9-0.8c2.7-0.8,5-1.8,6.8-2.9C10.2,22,11.7,20.9,12.6,19.6z M99.9,21.3h3.9v9.3c0,0.5,0.1,0.9,0.2,1
		c0.1,0.1,0.3,0.2,0.7,0.2c0.1,0,0.3,0,0.6,0c0.3,0,0.5,0,0.8,0c0.3,0,0.5,0,0.6,0c0.2,0,0.4-0.1,0.5-0.3c0.1-0.2,0.2-0.6,0.3-1.3
		c0.1-0.6,0.1-1.6,0.1-2.9c0.3,0.2,0.6,0.4,1,0.6c0.4,0.2,0.8,0.4,1.3,0.5c0.4,0.2,0.8,0.3,1.2,0.4c-0.1,1.7-0.3,3-0.6,3.9
		c-0.3,0.9-0.7,1.6-1.2,2c-0.5,0.4-1.2,0.6-2.1,0.6c-0.2,0-0.4,0-0.7,0c-0.3,0-0.6,0-0.9,0c-0.3,0-0.6,0-0.9,0c-0.3,0-0.5,0-0.6,0
		c-1.1,0-2-0.1-2.5-0.4c-0.6-0.3-1-0.8-1.2-1.5c-0.2-0.7-0.3-1.6-0.3-2.8V21.3z M169.4,21.9c-0.2,0.7-0.3,1.2-0.3,1.7
		c-0.1,0.5-0.1,1-0.1,1.5c0,0.4,0.1,0.8,0.3,1.2c0.2,0.4,0.5,0.7,1,0.9c0.4,0.3,1,0.5,1.7,0.6c0.7,0.1,1.6,0.2,2.7,0.2
		c1.7,0,3.3-0.1,4.8-0.2c1.5-0.2,3.1-0.4,4.7-0.8l0.1,4.6c-1.2,0.3-2.6,0.4-4.2,0.6c-1.6,0.1-3.4,0.2-5.5,0.2
		c-3.2,0-5.6-0.5-7.2-1.6c-1.6-1.1-2.3-2.6-2.3-4.5c0-0.7,0.1-1.4,0.2-2.2c0.1-0.8,0.3-1.6,0.5-2.6L169.4,21.9z M93.2,22.2h4
		c-0.2,1.6-0.4,3.1-0.8,4.5c-0.4,1.4-0.9,2.6-1.7,3.8c-0.7,1.1-1.8,2.1-3.1,3c-1.3,0.9-3,1.6-5.1,2.2c-0.1-0.3-0.3-0.7-0.6-1.1
		c-0.3-0.4-0.5-0.8-0.8-1.2c-0.3-0.4-0.6-0.7-0.9-1c1.8-0.5,3.2-1,4.3-1.7c1.1-0.7,2-1.4,2.6-2.2s1-1.8,1.3-2.8
		C92.9,24.6,93.1,23.5,93.2,22.2z M74.5,26.1c1.2-0.3,2.6-0.6,4.2-1c1.6-0.4,3.2-0.8,5-1.3c1.7-0.5,3.5-1,5.2-1.4l0.5,3.6
		c-2.4,0.7-4.8,1.4-7.2,2.1c-2.4,0.7-4.6,1.4-6.6,1.9L74.5,26.1z M23.1,22.5h0.8l0.7-0.2l2.6,1.4c-1,1.8-2.3,3.3-3.9,4.7
		c-1.6,1.3-3.4,2.5-5.4,3.4c-2,0.9-4.1,1.7-6.4,2.3c-2.3,0.6-4.6,1.1-6.9,1.4c-0.2-0.5-0.4-1.1-0.8-1.7c-0.4-0.7-0.7-1.2-1-1.6
		C5,32,7.1,31.6,9.2,31.1c2.1-0.5,4-1.1,5.9-1.8c1.8-0.7,3.4-1.6,4.8-2.7c1.4-1,2.5-2.2,3.2-3.6V22.5z M114.1,22.4h33.4V26h-33.4
		V22.4z M11.9,22.5h12.2v2.8H9.2L11.9,22.5z M132.8,23.2c1.2,2.5,3,4.5,5.5,6c2.5,1.5,5.7,2.4,9.7,2.8c-0.4,0.4-0.9,1-1.3,1.7
		c-0.5,0.7-0.8,1.3-1.1,1.9c-2.8-0.5-5.3-1.2-7.4-2.1c-2.1-1-3.9-2.2-5.3-3.8c-1.5-1.6-2.7-3.5-3.6-5.7L132.8,23.2z M7.3,27.1
		l2.5-2.1c0.9,0.3,1.7,0.7,2.6,1.1c0.9,0.5,1.7,0.9,2.5,1.4c0.8,0.5,1.5,1,2,1.4l-2.6,2.4c-0.5-0.5-1.1-1-1.9-1.5
		c-0.8-0.5-1.6-1-2.5-1.5C9,27.8,8.2,27.4,7.3,27.1z"/>
</g>
</svg>
