<?xml version="1.0" encoding="utf-8"?>
<!-- Generator: Adobe Illustrator 27.9.1, SVG Export Plug-In . SVG Version: 6.00 Build 0)  -->
<svg version="1.1" id="Layer_1" xmlns="http://www.w3.org/2000/svg" xmlns:xlink="http://www.w3.org/1999/xlink" x="0px" y="0px"
	 viewBox="0 0 375.8 35.6" style="enable-background:new 0 0 375.8 35.6;" xml:space="preserve">
<style type="text/css">
	.st0{fill:#282828;}
</style>
<g>
	<path class="st0" d="M21.9,0l3.7,0.4c-0.5,3.6-1.1,6.9-2,9.9c-0.9,3-2.1,5.6-3.6,7.9c-1.5,2.3-3.4,4.3-5.6,6
		c-0.1-0.3-0.3-0.6-0.6-1c-0.3-0.4-0.6-0.8-0.9-1.2c-0.3-0.4-0.6-0.7-0.9-1c2.1-1.4,3.8-3.1,5.1-5.1c1.3-2,2.4-4.4,3.2-7
		C21,6.2,21.5,3.2,21.9,0z M251.9,0.2h4.1v35.3h-4.1V0.2z M29.9,0.4l3.8,1.1c-0.5,1-1.1,2-1.6,2.9c-0.6,1-1.1,1.8-1.6,2.5l-3.1-1
		c0.3-0.5,0.6-1.1,0.9-1.7c0.3-0.6,0.6-1.3,0.9-2C29.5,1.5,29.7,1,29.9,0.4z M14.7,1.7l3.1-1.1c0.5,0.8,0.9,1.6,1.3,2.6
		c0.4,0.9,0.7,1.7,0.9,2.4l-3.3,1.2c-0.1-0.7-0.4-1.6-0.8-2.5C15.5,3.3,15.1,2.5,14.7,1.7z M216.3,1.2h3.8v8.7c0,0.5,0,0.8,0.1,0.9
		c0.1,0.1,0.2,0.2,0.5,0.2c0.1,0,0.2,0,0.4,0c0.2,0,0.3,0,0.5,0c0.2,0,0.3,0,0.4,0c0.2,0,0.3-0.1,0.4-0.2c0.1-0.2,0.2-0.5,0.2-1.1
		c0.1-0.6,0.1-1.4,0.1-2.5c0.4,0.3,0.9,0.6,1.5,0.9c0.7,0.3,1.3,0.5,1.8,0.6c-0.1,1.5-0.3,2.7-0.6,3.6c-0.3,0.9-0.6,1.5-1.1,1.8
		c-0.5,0.3-1.1,0.5-1.9,0.5c-0.2,0-0.5,0-0.7,0c-0.3,0-0.6,0-0.9,0c-0.3,0-0.6,0-0.8,0c-0.9,0-1.7-0.1-2.2-0.4
		c-0.5-0.3-0.9-0.7-1.1-1.4c-0.2-0.7-0.3-1.6-0.3-2.7V1.2z M209.1,1.2h9.2v3.6h-9.2V1.2z M207.6,1.2h3.9v4.6c0,1.1-0.1,2.4-0.4,3.6
		c-0.3,1.3-0.7,2.5-1.4,3.7c-0.7,1.2-1.7,2.2-3,3.2c-0.2-0.3-0.5-0.6-0.8-0.9c-0.4-0.3-0.8-0.7-1.2-1c-0.4-0.3-0.7-0.6-1-0.7
		c1.2-0.8,2-1.6,2.6-2.5c0.6-0.9,0.9-1.8,1.1-2.8c0.2-0.9,0.2-1.8,0.2-2.7V1.2z M230.3,1.3h12v3.1h-12V1.3z M192.2,1.3h11.4v3.1
		h-11.4V1.3z M284.5,5.3c-0.2-0.4-0.3-0.9-0.5-1.6s-0.4-1.2-0.6-1.8l4.6-0.5c0.2,0.9,0.4,1.8,0.6,2.8c0.2,1,0.5,1.9,0.8,2.8
		c0.3,0.9,0.6,1.8,0.9,2.6c0.6,1.6,1.3,3.2,2.1,4.7c0.8,1.5,1.6,2.8,2.2,3.7c0.3,0.4,0.7,0.8,1,1.2c0.3,0.4,0.6,0.8,1,1.2l-2.1,3
		c-0.5-0.1-1.2-0.2-2-0.3c-0.8-0.1-1.6-0.2-2.6-0.3c-0.9-0.1-1.8-0.2-2.8-0.3c-0.9-0.1-1.8-0.2-2.6-0.2l0.3-3.6
		c0.7,0.1,1.4,0.1,2.1,0.2c0.7,0.1,1.4,0.1,2.1,0.2c0.7,0.1,1.2,0.1,1.6,0.1c-0.5-0.8-1-1.6-1.5-2.6c-0.5-1-1.1-2-1.6-3.1
		c-0.5-1.1-0.9-2.1-1.3-3.2c-0.4-1.1-0.8-2-1-2.9C284.9,6.6,284.7,5.9,284.5,5.3z M9.1,1.4h3.6v29.8c0,0.9-0.1,1.6-0.3,2.2
		c-0.2,0.6-0.5,1-1.1,1.3c-0.5,0.3-1.2,0.5-1.9,0.6c-0.8,0.1-1.7,0.1-2.9,0.1c-0.1-0.5-0.2-1.1-0.4-1.8c-0.2-0.7-0.4-1.4-0.7-1.9
		c0.6,0,1.2,0,1.8,0.1c0.6,0,1,0,1.2,0c0.2,0,0.4-0.1,0.5-0.2c0.1-0.1,0.1-0.3,0.1-0.5V1.4z M4.1,1.4h7.5v3.7H4.1V1.4z M2.3,1.4h3.5
		v13.8c0,1.5,0,3.1-0.1,4.9c-0.1,1.8-0.2,3.6-0.4,5.4c-0.2,1.8-0.4,3.6-0.8,5.3S3.7,34,3.2,35.5c-0.2-0.2-0.5-0.4-0.9-0.6
		c-0.4-0.2-0.8-0.4-1.2-0.6c-0.4-0.2-0.7-0.4-1-0.5c0.5-1.3,1-2.8,1.3-4.3c0.3-1.6,0.5-3.2,0.7-4.8c0.2-1.7,0.3-3.3,0.3-4.9
		c0.1-1.6,0.1-3.1,0.1-4.5V1.4z M358.7,2c-0.1,0.5-0.3,1.1-0.4,1.8c-0.2,0.7-0.3,1.2-0.3,1.7c-0.2,0.9-0.4,1.9-0.6,3.2
		c-0.3,1.2-0.5,2.5-0.9,3.9c-0.3,1.4-0.6,2.7-1,4c-0.3,1.3-0.7,2.8-1.2,4.4c-0.5,1.6-1,3.2-1.5,4.8c-0.5,1.6-1.1,3.1-1.7,4.6
		c-0.6,1.5-1.1,2.7-1.6,3.9l-4.8-1.6c0.6-1,1.2-2.1,1.8-3.5c0.6-1.4,1.2-2.9,1.8-4.5c0.6-1.6,1.1-3.2,1.7-4.7c0.5-1.6,0.9-3,1.3-4.3
		c0.3-0.9,0.5-1.8,0.7-2.8c0.2-1,0.4-1.9,0.6-2.8c0.2-0.9,0.4-1.7,0.5-2.5c0.1-0.8,0.2-1.5,0.3-2c0.1-0.7,0.1-1.3,0.2-2
		c0-0.7,0-1.2,0-1.7L358.7,2z M313.6,4.8c0-0.5,0-1,0-1.6c0-0.5-0.1-1.1-0.2-1.7l5,0.2c-0.1,0.6-0.3,1.4-0.4,2.5
		c-0.2,1.1-0.3,2.4-0.5,3.8c-0.2,1.4-0.3,2.9-0.4,4.5c-0.1,1.6-0.3,3.1-0.3,4.7c-0.1,1.6-0.1,3-0.1,4.4c0,1.1,0,2.1,0,3.2
		c0,1.1,0,2.1,0.1,3.2c0,1.1,0.1,2.2,0.1,3.3c0,0.3,0.1,0.8,0.1,1.3c0.1,0.5,0.1,1,0.2,1.4h-4.7c0.1-0.4,0.1-0.9,0.1-1.4
		c0-0.5,0-0.9,0-1.2c0-1.2,0-2.3,0.1-3.4c0-1,0-2.1,0.1-3.2c0-1.1,0.1-2.5,0.1-4c0-0.6,0.1-1.3,0.1-2.3c0.1-0.9,0.1-1.9,0.2-3
		c0.1-1.1,0.1-2.2,0.2-3.4c0.1-1.1,0.2-2.2,0.2-3.2c0.1-1,0.1-1.9,0.2-2.6C313.6,5.6,313.6,5.1,313.6,4.8z M92.7,2
		c-0.1,0.5-0.3,1.1-0.4,1.8C92.1,4.5,92,5,91.9,5.4c-0.2,0.9-0.4,1.9-0.6,3.2c-0.3,1.2-0.5,2.5-0.9,3.9c-0.3,1.4-0.6,2.7-1,4
		c-0.3,1.3-0.7,2.8-1.2,4.4c-0.5,1.6-1,3.2-1.5,4.8c-0.5,1.6-1.1,3.1-1.7,4.6c-0.6,1.5-1.1,2.7-1.6,3.9l-4.8-1.6
		c0.6-1,1.2-2.1,1.8-3.5c0.6-1.4,1.2-2.9,1.8-4.5c0.6-1.6,1.1-3.2,1.7-4.7c0.5-1.6,0.9-3,1.3-4.3c0.3-0.9,0.5-1.8,0.7-2.8
		c0.2-1,0.4-1.9,0.6-2.8C86.7,8.9,86.9,8,87,7.3c0.1-0.8,0.2-1.5,0.3-2c0.1-0.7,0.1-1.3,0.2-2c0-0.7,0-1.2,0-1.7L92.7,2z M139.3,2.5
		c-0.1,0.3-0.2,0.7-0.3,1.2c-0.1,0.4-0.2,0.9-0.3,1.3c-0.1,0.4-0.2,0.8-0.2,1.1c-0.4,1.7-0.8,3.4-1.3,5.1c-0.5,1.7-1.1,3.5-1.7,5.2
		c-0.6,1.7-1.3,3.3-2.1,4.8c-0.7,1.5-1.6,2.8-2.5,3.9c-1.1,1.4-2.1,2.6-3.1,3.6c-1,1-2,1.7-3,2.2s-2.1,0.7-3.2,0.7
		c-1,0-2-0.3-2.9-0.9c-0.9-0.6-1.6-1.4-2.2-2.5c-0.5-1.1-0.8-2.4-0.8-4c0-1.7,0.3-3.3,0.9-5c0.6-1.7,1.5-3.2,2.5-4.6
		c1.1-1.4,2.4-2.6,3.8-3.5c2-1.3,3.9-2.2,5.9-2.8c2-0.5,3.9-0.8,5.9-0.8c2.6,0,4.8,0.5,6.8,1.6c2,1.1,3.6,2.6,4.7,4.6
		c1.1,2,1.7,4.2,1.7,6.8c0,2.6-0.6,4.9-1.7,6.8c-1.2,1.9-2.8,3.4-4.8,4.6c-2.1,1.1-4.4,1.9-7.1,2.3l-2.6-3.9
		c2.1-0.2,3.9-0.6,5.4-1.1c1.5-0.6,2.7-1.3,3.7-2.2c1-0.9,1.7-1.9,2.1-3.1c0.5-1.1,0.7-2.3,0.7-3.6c0-1.8-0.4-3.3-1.2-4.7
		c-0.8-1.4-1.9-2.4-3.2-3.2c-1.4-0.8-3-1.1-4.9-1.1c-2,0-3.7,0.3-5.3,0.9c-1.6,0.6-3.1,1.4-4.4,2.5c-1,0.7-1.9,1.6-2.6,2.6
		c-0.7,1-1.3,2.1-1.7,3.3c-0.4,1.1-0.6,2.2-0.6,3.3c0,1,0.2,1.8,0.6,2.4c0.4,0.6,1,0.9,1.7,0.9c0.5,0,1.1-0.2,1.6-0.5
		c0.5-0.3,1.1-0.7,1.6-1.2c0.5-0.5,1.1-1.1,1.6-1.8c0.5-0.7,1-1.4,1.5-2.2c0.7-1.1,1.4-2.3,2-3.6c0.6-1.3,1.2-2.7,1.7-4.2
		c0.5-1.5,1-2.9,1.3-4.3c0.4-1.4,0.7-2.7,0.9-4c0.1-0.5,0.2-1.1,0.2-1.8c0-0.7,0.1-1.2,0.1-1.7L139.3,2.5z M161.9,3.3
		c-0.1,0.2-0.2,0.6-0.3,1c-0.1,0.4-0.2,0.8-0.3,1.2c-0.1,0.4-0.2,0.7-0.2,1c-0.1,0.6-0.2,1.3-0.4,2.1c-0.2,0.9-0.3,1.8-0.5,2.9
		c-0.2,1.1-0.3,2.1-0.5,3.2c-0.1,1.1-0.3,2.1-0.4,3.2c-0.1,1-0.2,1.9-0.2,2.7c0,0.5,0,1.1,0.1,1.6c0,0.6,0.1,1.1,0.1,1.6
		c0.2-0.5,0.4-0.9,0.6-1.4c0.2-0.5,0.4-1,0.6-1.5c0.2-0.5,0.4-1,0.6-1.4l2.2,1.7c-0.4,1-0.7,2.1-1.1,3.3c-0.4,1.2-0.7,2.3-1,3.3
		c-0.3,1-0.5,1.9-0.7,2.5c-0.1,0.3-0.1,0.6-0.1,1c0,0.4-0.1,0.6-0.1,0.8c0,0.2,0,0.4,0,0.7c0,0.3,0,0.5,0.1,0.8l-3.9,0.3
		c-0.4-1.3-0.7-3.1-1-5.2c-0.3-2.2-0.5-4.5-0.5-7.1c0-1.4,0.1-2.9,0.2-4.3c0.1-1.5,0.3-2.9,0.5-4.2c0.2-1.4,0.4-2.6,0.5-3.7
		c0.2-1.1,0.3-2.1,0.5-2.8c0.1-0.5,0.1-1.1,0.2-1.7c0.1-0.6,0.1-1.2,0.2-1.7L161.9,3.3z M123.3,3.9c0.1,0.6,0.3,1.2,0.4,1.8
		c0.1,0.6,0.3,1.2,0.4,1.7c0.3,1,0.6,2.1,1,3.3c0.4,1.2,0.8,2.4,1.2,3.5c0.4,1.2,0.9,2.2,1.3,3.2c0.5,1,0.9,1.9,1.3,2.6
		c0.7,1,1.4,2.1,2.3,3.2c0.8,1.1,1.7,2.1,2.6,2.9l-3.5,2.8c-0.7-0.9-1.4-1.7-2.1-2.5c-0.6-0.8-1.3-1.8-1.9-2.8
		c-0.5-0.8-1.1-1.8-1.6-2.9c-0.5-1.1-1.1-2.3-1.6-3.6c-0.5-1.3-1-2.6-1.5-4c-0.5-1.4-0.9-2.7-1.3-4.1c-0.2-0.7-0.4-1.3-0.6-1.9
		c-0.2-0.6-0.5-1.2-0.8-1.9L123.3,3.9z M270.6,7.4c2.3,0.3,4.5,0.5,6.5,0.6c2,0.1,4,0.1,5.8,0.1c1.8-0.1,3.4-0.2,4.9-0.3
		c1.1-0.1,2.2-0.3,3.3-0.5c1.1-0.2,2.2-0.4,3.3-0.7c1.1-0.3,2.1-0.5,3.1-0.8l0.5,4.3c-0.9,0.3-1.8,0.5-2.8,0.7c-1,0.2-2,0.4-3.1,0.6
		c-1,0.2-2.1,0.3-3.1,0.4c-2.5,0.3-5.3,0.4-8.3,0.5c-3,0-6.4-0.1-10.2-0.4L270.6,7.4z M168.1,5.9c1.1,0.2,2.4,0.3,3.9,0.4
		c1.4,0.1,2.9,0.1,4.4,0.1c1.5,0,2.9-0.1,4.3-0.2c1.4-0.1,2.6-0.2,3.6-0.3v4.4c-1.1,0.1-2.4,0.2-3.8,0.2c-1.4,0.1-2.8,0.1-4.3,0.1
		c-1.5,0-2.9,0-4.3-0.1c-1.4-0.1-2.7-0.1-3.8-0.2L168.1,5.9z M349.3,7.9c1.5,0,3.1-0.1,4.8-0.2c1.7-0.1,3.3-0.4,5.1-0.6
		c1.7-0.3,3.4-0.6,5-1v4.3c-1.6,0.4-3.2,0.7-5,0.9c-1.8,0.3-3.5,0.5-5.2,0.6c-1.7,0.1-3.3,0.2-4.7,0.2c-0.9,0-1.7,0-2.4-0.1
		c-0.7,0-1.4-0.1-2.1-0.1l-0.1-4.2c1,0.1,1.8,0.2,2.5,0.2C347.9,7.8,348.6,7.9,349.3,7.9z M83.3,7.9c1.5,0,3.1-0.1,4.8-0.2
		c1.7-0.1,3.3-0.4,5.1-0.6c1.7-0.3,3.4-0.6,5-1v4.3c-1.6,0.4-3.2,0.7-5,0.9c-1.8,0.3-3.5,0.5-5.2,0.6c-1.7,0.1-3.3,0.2-4.7,0.2
		c-0.9,0-1.7,0-2.4-0.1c-0.7,0-1.4-0.1-2.1-0.1l-0.1-4.2c1,0.1,1.8,0.2,2.5,0.2C81.9,7.8,82.6,7.9,83.3,7.9z M228.2,6.3h15.5v3.3
		h-15.5V6.3z M190.2,6.3H205v3.3h-14.8V6.3z M14.3,6.7h20.6V10H14.3V6.7z M39.3,11.7c0.7-0.1,1.5-0.3,2.3-0.5
		c0.8-0.2,1.6-0.4,2.3-0.6c0.8-0.2,1.8-0.5,3-1c1.3-0.4,2.6-0.8,4.1-1.2c1.5-0.4,3-0.8,4.6-1C57.2,7,58.6,6.9,60,6.9
		c2.3,0,4.3,0.4,6.1,1.3c1.8,0.8,3.2,2,4.3,3.6c1.1,1.6,1.6,3.5,1.6,5.8c0,1.7-0.3,3.4-1,4.8c-0.7,1.5-1.6,2.8-2.8,3.9
		c-1.2,1.2-2.7,2.1-4.5,3c-1.7,0.8-3.7,1.5-5.9,2c-2.2,0.5-4.6,0.8-7.1,0.9l-2-4.5c2.6-0.1,5-0.3,7.2-0.7c2.2-0.4,4.2-1,5.9-1.8
		c1.7-0.8,3-1.8,4-3.1c1-1.3,1.4-2.8,1.4-4.5c0-1.2-0.3-2.4-0.9-3.3c-0.6-1-1.4-1.8-2.5-2.3c-1.1-0.6-2.4-0.9-4-0.9
		c-1.2,0-2.4,0.1-3.8,0.4c-1.4,0.3-2.8,0.6-4.2,1.1c-1.4,0.4-2.8,0.9-4.2,1.4c-1.3,0.5-2.6,1-3.7,1.4c-1.1,0.5-2.1,0.9-2.8,1.2
		L39.3,11.7z M340.1,30c-0.9,0.9-2,1.6-3.1,2.1c-1.2,0.5-2.5,0.8-4,0.8c-1.4,0-2.5-0.5-3.3-1.4c-0.8-0.9-1.3-2.3-1.3-4.1
		c0-1,0.1-2.2,0.2-3.3c0.1-1.2,0.3-2.4,0.5-3.6c0.2-1.2,0.3-2.4,0.5-3.5c0.1-1.1,0.2-2.1,0.2-3c0-1-0.2-1.7-0.7-2.2
		c-0.5-0.5-1.1-0.7-2-0.7c-0.9,0-1.9,0.3-3,0.9c-1.1,0.6-2.2,1.4-3.3,2.3c-1.1,0.9-2.2,2-3.3,3c-1.1,1.1-2,2.1-2.8,3.1v-5.2
		c0.5-0.5,1.1-1.1,1.8-1.8c0.7-0.7,1.6-1.4,2.5-2.1c0.9-0.7,1.9-1.4,3-2.1c1.1-0.6,2.1-1.2,3.2-1.6c1.1-0.4,2.1-0.6,3.1-0.6
		c1.3,0,2.4,0.2,3.2,0.7c0.8,0.5,1.5,1.1,1.9,1.9c0.4,0.8,0.6,1.8,0.6,2.8c0,1-0.1,2-0.2,3.2c-0.1,1.2-0.3,2.4-0.5,3.6
		c-0.2,1.2-0.3,2.4-0.5,3.6c-0.1,1.2-0.2,2.2-0.2,3.2c0,0.5,0.1,1,0.4,1.3c0.3,0.4,0.7,0.6,1.2,0.6c0.8,0,1.6-0.2,2.5-0.7
		c0.9-0.5,1.8-1.2,2.7-2.1L340.1,30z M314,11.9c-0.4,0.1-0.9,0.1-1.5,0.2c-0.6,0.1-1.3,0.2-2.1,0.3c-0.7,0.1-1.5,0.2-2.2,0.3
		c-0.8,0.1-1.5,0.2-2.1,0.3l-0.5-4.4c0.5,0,1,0,1.5,0c0.5,0,1,0,1.6-0.1c0.6,0,1.3-0.1,2.1-0.2c0.8-0.1,1.7-0.2,2.5-0.3
		c0.9-0.1,1.7-0.2,2.5-0.4c0.8-0.2,1.3-0.3,1.7-0.5l1.4,1.8c-0.2,0.3-0.5,0.7-0.8,1.1c-0.3,0.5-0.6,0.9-0.9,1.4
		c-0.3,0.5-0.6,0.9-0.8,1.2l-1.9,6.6c-0.4,0.6-0.9,1.4-1.6,2.3c-0.6,0.9-1.2,1.8-1.9,2.8c-0.7,1-1.3,2-2,2.9c-0.7,1-1.3,1.8-1.8,2.5
		l-2.7-3.8c0.5-0.6,1-1.3,1.7-2.1c0.6-0.8,1.3-1.7,2-2.6c0.7-0.9,1.4-1.8,2-2.8c0.7-0.9,1.3-1.8,1.8-2.6c0.6-0.8,1-1.5,1.4-2.1
		l0.1-1.3L314,11.9z M28.8,8.4c0.4,1.7,1,3.4,1.7,5c0.7,1.6,1.6,3.1,2.6,4.4c1,1.3,2.2,2.3,3.4,3.1c-0.4,0.4-0.9,0.8-1.4,1.5
		c-0.5,0.6-0.9,1.2-1.2,1.7c-1.4-1-2.7-2.2-3.7-3.8c-1.1-1.5-2-3.2-2.8-5.1c-0.8-1.9-1.4-3.9-1.9-6.1L28.8,8.4z M3.8,10.1h7v3.7h-7
		V10.1z M230.1,11.7h12.2v3.1h-12.2V11.7z M192.1,11.7h11.7v3.1h-11.7V11.7z M243.6,12.9h20.6v4h-20.6V12.9z M13.5,12.9h22v3.3h-22
		V12.9z M361.3,13.5c1.1-0.1,2.2-0.2,3.5-0.2c1.3-0.1,2.5-0.1,3.7-0.1c1.1,0,2.2,0,3.3,0.1c1.1,0,2.2,0.1,3.3,0.2l-0.1,4.1
		c-1-0.1-2-0.2-3.1-0.3c-1.1-0.1-2.2-0.1-3.4-0.1c-1.3,0-2.5,0-3.7,0.1c-1.2,0.1-2.4,0.2-3.6,0.3V13.5z M95.3,13.5
		c1.1-0.1,2.2-0.2,3.5-0.2c1.3-0.1,2.5-0.1,3.7-0.1c1.1,0,2.2,0,3.3,0.1c1.1,0,2.2,0.1,3.3,0.2l-0.1,4.1c-1-0.1-2-0.2-3.1-0.3
		c-1.1-0.1-2.2-0.1-3.4-0.1c-1.3,0-2.5,0-3.7,0.1c-1.2,0.1-2.4,0.2-3.6,0.3V13.5z M219.8,16.5h0.8l0.7-0.2l2.7,1
		c-0.7,2.5-1.6,4.8-2.7,6.7c-1.2,2-2.5,3.7-4.1,5.2c-1.6,1.5-3.3,2.7-5.2,3.8c-1.9,1-4,1.9-6.1,2.5c-0.1-0.4-0.3-0.8-0.6-1.2
		c-0.3-0.4-0.5-0.9-0.8-1.3c-0.3-0.4-0.6-0.8-0.8-1.1c2-0.5,3.8-1.2,5.5-2.1c1.7-0.9,3.3-1.9,4.7-3.1c1.4-1.2,2.6-2.7,3.6-4.3
		c1-1.6,1.8-3.4,2.3-5.4V16.5z M205.5,16.5h15.9v3.7h-15.9V16.5z M230.1,16.8h12.2v3.1h-12.2V16.8z M192.1,16.8h11.7v3.1h-11.7V16.8
		z M21.5,18.1h3.7c-0.1,2.1-0.3,4-0.6,5.8c-0.3,1.8-0.8,3.4-1.4,4.9c-0.7,1.5-1.6,2.8-2.8,3.9c-1.2,1.1-2.8,2.1-4.7,3
		c-0.2-0.5-0.6-1-1-1.7c-0.4-0.6-0.9-1.1-1.3-1.5c1.7-0.7,3.1-1.5,4.2-2.4c1-0.9,1.8-2,2.4-3.2c0.5-1.2,0.9-2.5,1.2-4
		C21.3,21.4,21.5,19.8,21.5,18.1z M3.8,19.1h7v3.8h-7V19.1z M277.7,20.1c-0.6,0.9-1.1,1.8-1.4,2.6c-0.3,0.8-0.5,1.7-0.5,2.6
		c0,1.6,0.7,2.8,2.1,3.6c1.4,0.7,3.5,1.1,6.2,1.2c2,0,3.9-0.1,5.5-0.2c1.7-0.2,3.2-0.4,4.5-0.7l-0.2,4.3c-1.1,0.2-2.5,0.4-4.2,0.6
		c-1.7,0.2-3.7,0.3-5.9,0.3c-2.5,0-4.7-0.4-6.6-1c-1.9-0.6-3.3-1.6-4.3-2.8c-1-1.2-1.5-2.7-1.5-4.5c0-1.1,0.2-2.2,0.5-3.3
		c0.3-1.1,0.8-2.3,1.5-3.5L277.7,20.1z M210.7,20.1c1.3,2.9,3.3,5.3,5.9,7.4c2.6,2.1,5.8,3.6,9.4,4.5c-0.3,0.3-0.6,0.6-1,1
		c-0.3,0.4-0.7,0.9-0.9,1.3c-0.3,0.4-0.5,0.8-0.7,1.2c-3.8-1.1-7.1-2.9-9.8-5.3c-2.7-2.4-4.9-5.4-6.5-8.9L210.7,20.1z M170.7,21.9
		c-0.2,0.7-0.3,1.2-0.3,1.7c-0.1,0.5-0.1,1-0.1,1.5c0,0.4,0.1,0.8,0.3,1.2c0.2,0.4,0.5,0.7,1,0.9c0.4,0.3,1,0.5,1.7,0.6
		c0.7,0.1,1.6,0.2,2.7,0.2c1.7,0,3.3-0.1,4.8-0.2c1.5-0.2,3.1-0.4,4.7-0.8l0.1,4.6c-1.2,0.3-2.6,0.4-4.2,0.6
		c-1.6,0.1-3.4,0.2-5.5,0.2c-3.2,0-5.6-0.5-7.2-1.6c-1.6-1.1-2.3-2.6-2.3-4.5c0-0.7,0.1-1.4,0.2-2.2c0.1-0.8,0.3-1.6,0.5-2.6
		L170.7,21.9z M28.8,21.7h3.8c0,0.7-0.1,1.2-0.1,1.4c-0.1,2.3-0.3,4.2-0.4,5.7c-0.2,1.5-0.3,2.6-0.5,3.4c-0.2,0.8-0.5,1.4-0.8,1.8
		c-0.4,0.4-0.7,0.7-1.1,0.9c-0.4,0.2-0.9,0.3-1.4,0.4c-0.5,0.1-1.1,0.1-1.8,0.1c-0.8,0-1.5,0-2.4-0.1c0-0.5-0.1-1.1-0.3-1.7
		c-0.2-0.6-0.4-1.2-0.7-1.7c0.7,0.1,1.4,0.1,2,0.1c0.6,0,1,0,1.3,0c0.3,0,0.5,0,0.7-0.1c0.2,0,0.3-0.1,0.5-0.3
		c0.2-0.2,0.4-0.6,0.5-1.3c0.1-0.7,0.3-1.7,0.4-3c0.1-1.3,0.2-3,0.3-5.1V21.7z M16,21.7h13.9v3.3H16V21.7z M232,22h10.2v11.4H232
		v-3.3h6.6v-4.9H232V22z M230,22h3.6v13H230V22z M194,22h9.7v11.4H194v-3.3h6.2v-4.9H194V22z M192,22h3.5v13H192V22z M363,23
		c-0.2,0.6-0.3,1.1-0.4,1.7c-0.1,0.6-0.2,1.1-0.2,1.5c0,0.4,0.1,0.8,0.2,1.2c0.2,0.4,0.4,0.7,0.9,1c0.4,0.3,1,0.5,1.7,0.7
		c0.7,0.2,1.6,0.2,2.8,0.2c1.3,0,2.5-0.1,3.8-0.2c1.3-0.1,2.6-0.3,3.9-0.6l-0.2,4.4c-1.1,0.1-2.2,0.2-3.5,0.4
		c-1.3,0.1-2.6,0.2-4.1,0.2c-3.1,0-5.5-0.5-7.2-1.5c-1.7-1-2.5-2.5-2.5-4.4c0-0.8,0.1-1.7,0.2-2.5c0.1-0.8,0.3-1.6,0.4-2.4L363,23z
		 M97,23c-0.2,0.6-0.3,1.1-0.4,1.7c-0.1,0.6-0.2,1.1-0.2,1.5c0,0.4,0.1,0.8,0.2,1.2c0.2,0.4,0.4,0.7,0.9,1c0.4,0.3,1,0.5,1.7,0.7
		c0.7,0.2,1.6,0.2,2.8,0.2c1.3,0,2.5-0.1,3.8-0.2c1.3-0.1,2.6-0.3,3.9-0.6l-0.2,4.4c-1.1,0.1-2.2,0.2-3.5,0.4
		c-1.3,0.1-2.6,0.2-4.1,0.2c-3.1,0-5.5-0.5-7.2-1.5c-1.7-1-2.5-2.5-2.5-4.4c0-0.8,0.1-1.7,0.2-2.5c0.1-0.8,0.3-1.6,0.4-2.4L97,23z"
		/>
</g>
</svg>
