<?xml version="1.0" encoding="utf-8"?>
<!-- Generator: Adobe Illustrator 27.9.1, SVG Export Plug-In . SVG Version: 6.00 Build 0)  -->
<svg version="1.1" id="Layer_1" xmlns="http://www.w3.org/2000/svg" xmlns:xlink="http://www.w3.org/1999/xlink" x="0px" y="0px"
	 viewBox="0 0 299.1 35.7" style="enable-background:new 0 0 299.1 35.7;" xml:space="preserve">
<style type="text/css">
	.st0{fill:#282828;}
</style>
<g>
	<path class="st0" d="M43.3,0l4.3,0.9c-0.5,1.1-0.9,2.3-1.5,3.4c-0.5,1.2-1,2.3-1.6,3.3c-0.5,1-1,2-1.5,2.8l-3.5-1
		c0.5-0.9,1-1.8,1.4-2.9c0.5-1.1,0.9-2.2,1.3-3.4C42.7,2,43,1,43.3,0z M248.6,0.1l4.2,0.6c-0.4,2.5-1,4.9-1.6,7.3
		c-0.6,2.4-1.4,4.5-2.3,6.5c-0.9,2-1.9,3.7-3,5.2c-0.2-0.3-0.6-0.6-1-0.9s-0.8-0.7-1.3-1c-0.4-0.3-0.8-0.6-1.2-0.8
		c1.1-1.3,2-2.8,2.8-4.6c0.8-1.8,1.5-3.7,2-5.8C247.9,4.5,248.3,2.3,248.6,0.1z M156.7,0.1l3.6,0.8c-0.5,1.7-1.1,3.4-1.7,5.1
		c-0.7,1.7-1.4,3.2-2.2,4.6c-0.8,1.4-1.7,2.7-2.6,3.8c-0.2-0.2-0.5-0.5-0.8-0.8c-0.4-0.3-0.7-0.6-1.1-0.9c-0.4-0.3-0.7-0.5-1-0.7
		c1.3-1.4,2.5-3.2,3.5-5.3C155.4,4.6,156.2,2.4,156.7,0.1z M80,0.1h4.1v35.5H80V0.1z M233.9,0.2h4v7.6h-4V0.2z M57,0.2H61V12
		c0,0.7,0.1,1.1,0.3,1.3c0.2,0.2,0.7,0.3,1.4,0.3c0.2,0,0.5,0,0.9,0s0.9,0,1.4,0c0.5,0,1,0,1.4,0c0.5,0,0.8,0,1,0
		c0.4,0,0.8-0.1,1-0.3c0.2-0.2,0.4-0.6,0.5-1.2c0.1-0.6,0.2-1.4,0.2-2.6c0.3,0.2,0.6,0.4,1,0.6c0.4,0.2,0.9,0.4,1.3,0.6
		c0.5,0.2,0.9,0.3,1.2,0.3c-0.1,1.6-0.4,2.9-0.7,3.8c-0.4,0.9-0.9,1.5-1.5,1.9c-0.7,0.4-1.6,0.5-2.7,0.5c-0.2,0-0.5,0-0.8,0
		s-0.8,0-1.3,0c-0.5,0-1,0-1.4,0c-0.5,0-0.9,0-1.2,0c-0.4,0-0.6,0-0.8,0c-1.4,0-2.5-0.2-3.3-0.5c-0.8-0.3-1.3-0.8-1.6-1.6
		C57.1,14.4,57,13.3,57,12V0.2z M97.4,0.3h4.1v32.4h-4.1V0.3z M206.6,6c-0.2-0.7-0.4-1.4-0.6-2c-0.2-0.7-0.4-1.3-0.7-2l4.6-0.5
		c0.2,1.2,0.4,2.3,0.6,3.5c0.3,1.2,0.5,2.3,0.9,3.3c0.3,1.1,0.6,2.1,0.9,3.1c0.3,0.9,0.7,1.9,1.2,3c0.5,1.1,1,2.2,1.6,3.3
		c0.6,1.1,1.2,2.1,1.8,3c0.2,0.3,0.5,0.6,0.7,1s0.6,0.6,0.9,0.9l-2.1,3.2c-0.7-0.2-1.6-0.3-2.6-0.5c-1-0.2-2.1-0.3-3.2-0.4
		c-1.1-0.1-2.1-0.2-3-0.3l0.3-3.2c0.8,0.1,1.7,0.2,2.7,0.2c1,0.1,1.7,0.2,2.3,0.2c-1-1.7-1.9-3.3-2.6-5c-0.7-1.7-1.4-3.2-1.8-4.6
		c-0.3-0.9-0.6-1.7-0.8-2.4c-0.2-0.7-0.4-1.3-0.6-1.9C206.9,7.2,206.7,6.6,206.6,6z M130.3,1.9c-0.2,0.7-0.4,1.6-0.6,2.7
		c-0.3,1.1-0.7,2.3-1.2,3.6c-0.4,1-0.9,2-1.5,3.1c-0.6,1.1-1.2,2-1.8,2.9c0.4-0.2,0.8-0.4,1.4-0.5c0.5-0.1,1.1-0.2,1.7-0.3
		c0.6-0.1,1.1-0.1,1.5-0.1c1.6,0,2.9,0.5,3.9,1.3c1,0.9,1.6,2.2,1.6,3.9c0,0.5,0,1.1,0,1.9c0,0.7,0,1.5,0,2.3c0,0.8,0,1.6,0.1,2.4
		c0,0.8,0,1.5,0,2.1h-4.1c0.1-0.5,0.1-1,0.1-1.6c0-0.6,0-1.3,0.1-2c0-0.7,0-1.4,0-2c0-0.6,0-1.2,0-1.7c0-1.2-0.3-2-1-2.5
		c-0.7-0.5-1.4-0.7-2.2-0.7c-1.1,0-2.2,0.3-3.3,0.8c-1.1,0.5-2,1.1-2.8,1.9c-0.6,0.6-1.1,1.2-1.7,1.9c-0.6,0.7-1.2,1.4-1.8,2.3
		l-3.6-2.7c1.7-1.6,3.1-3.1,4.3-4.6c1.2-1.4,2.2-2.9,3-4.2c0.8-1.4,1.5-2.7,2-4c0.4-1,0.7-2.1,1-3.2c0.3-1.1,0.4-2.1,0.5-3.1
		L130.3,1.9z M90.9,1.9l4,0.6c-0.3,1.9-0.6,3.7-1,5.5c-0.4,1.8-0.9,3.5-1.5,5.1c-0.6,1.6-1.2,3-1.9,4.2c-0.3-0.2-0.6-0.4-1.1-0.7
		c-0.5-0.2-0.9-0.5-1.4-0.7c-0.5-0.2-0.8-0.4-1.2-0.5c0.7-1.1,1.3-2.4,1.8-3.8c0.5-1.4,1-3,1.3-4.7C90.4,5.2,90.7,3.6,90.9,1.9z
		 M182.3,2.1h3.6c0,0.7-0.1,1.1-0.1,1.3c-0.1,2.1-0.1,3.7-0.2,5.1c-0.1,1.3-0.3,2.3-0.4,3.1c-0.2,0.7-0.4,1.3-0.7,1.6
		c-0.3,0.4-0.6,0.7-0.9,0.8c-0.4,0.2-0.8,0.3-1.3,0.4c-0.4,0.1-1,0.1-1.7,0.1c-0.7,0-1.4,0-2.2-0.1c0-0.5-0.1-1.1-0.3-1.7
		c-0.2-0.6-0.4-1.2-0.6-1.6c0.6,0.1,1.2,0.1,1.7,0.1c0.5,0,0.9,0,1.2,0c0.3,0,0.5,0,0.6-0.1c0.2,0,0.3-0.1,0.4-0.3
		c0.2-0.2,0.3-0.6,0.4-1.1c0.1-0.6,0.2-1.4,0.3-2.6c0.1-1.2,0.2-2.7,0.2-4.5V2.1z M169.1,2.1h14.3v3.4h-14.3V2.1z M68.4,2.6l2.6,3
		c-1.1,0.5-2.3,1-3.6,1.5c-1.3,0.5-2.7,1-4,1.4c-1.4,0.4-2.7,0.8-3.9,1.2c-0.1-0.4-0.2-0.8-0.5-1.4c-0.2-0.5-0.5-1-0.7-1.4
		c1.2-0.4,2.4-0.8,3.7-1.3c1.2-0.5,2.4-1,3.6-1.5C66.6,3.6,67.6,3.1,68.4,2.6z M48.3,4l3.4-1.3c0.7,0.9,1.3,1.9,1.9,2.9
		c0.6,1.1,1.2,2.1,1.7,3.1c0.5,1,0.9,1.9,1.1,2.8L52.8,13c-0.2-0.8-0.6-1.7-1-2.8c-0.5-1-1-2.1-1.6-3.2C49.6,5.9,49,4.9,48.3,4z
		 M0,2.7h34.3v4.1H0V2.7z M173.9,3.2h3.6c-0.2,1.8-0.5,3.5-1,5.1c-0.5,1.5-1.2,2.9-2.2,4.1c-1,1.2-2.4,2.2-4.3,3
		c-0.2-0.4-0.5-0.9-0.9-1.5c-0.4-0.6-0.8-1-1.2-1.3c1.5-0.6,2.7-1.4,3.5-2.4c0.8-1,1.4-2,1.7-3.2C173.6,5.8,173.8,4.5,173.9,3.2z
		 M162.5,3.6h0.8l0.5-0.2l2.3,1.4c-0.4,1.2-0.9,2.5-1.6,3.8c-0.7,1.3-1.3,2.5-1.9,3.4c-0.3-0.3-0.7-0.5-1.2-0.8
		c-0.5-0.3-0.9-0.5-1.3-0.7c0.3-0.6,0.6-1.3,0.9-2c0.3-0.7,0.6-1.5,0.8-2.3c0.3-0.8,0.5-1.4,0.6-2V3.6z M157.4,3.6h6.1v3.1h-6.1V3.6
		z M25.5,3.8h4.3v26.5c0,1.2-0.2,2.2-0.5,2.9c-0.3,0.7-0.9,1.2-1.8,1.5c-0.9,0.4-2,0.6-3.4,0.6c-1.4,0.1-3,0.1-5,0.1
		c-0.1-0.4-0.2-0.9-0.4-1.4c-0.2-0.5-0.4-1.1-0.6-1.6c-0.2-0.5-0.5-1-0.7-1.3c1,0.1,1.9,0.1,2.9,0.1c1,0,1.8,0,2.5,0
		c0.7,0,1.3,0,1.6,0c0.4,0,0.7-0.1,0.9-0.2c0.2-0.1,0.3-0.4,0.3-0.8V3.8z M194.5,5.4c2.7,0.3,5.3,0.5,7.7,0.6c2.4,0.1,4.5,0,6.5-0.2
		c1.7-0.1,3.3-0.3,4.9-0.7c1.6-0.3,3.1-0.7,4.6-1.2l0.6,3.9c-1.3,0.4-2.8,0.7-4.4,1c-1.6,0.3-3.2,0.5-4.8,0.7
		c-2,0.2-4.2,0.2-6.8,0.2c-2.6,0-5.3-0.2-8.1-0.4L194.5,5.4z M116.4,5.6c1,0.1,2.1,0.2,3.3,0.3C120.9,6,122,6,123,6
		c1.7,0,3.5,0,5.5-0.1c2-0.1,4-0.2,6-0.4c2-0.2,4-0.4,5.8-0.7v4c-1.3,0.2-2.8,0.4-4.3,0.5c-1.5,0.1-3.1,0.3-4.7,0.3
		c-1.6,0.1-3.1,0.2-4.6,0.2c-1.5,0-2.8,0.1-3.9,0.1c-0.5,0-1.2,0-1.9,0c-0.7,0-1.5,0-2.3-0.1c-0.8-0.1-1.5-0.1-2.2-0.1V5.6z
		 M227.6,6h16.9v3.8h-16.9V6z M83.5,7.5l2.8-1.2c0.6,1,1.1,2.1,1.6,3.2c0.5,1.2,0.8,2.2,1,3L86,14c-0.1-0.6-0.3-1.2-0.6-2
		c-0.3-0.7-0.5-1.5-0.9-2.3C84.2,8.9,83.9,8.2,83.5,7.5z M266.3,11.7c0.7-0.1,1.5-0.3,2.3-0.5c0.8-0.2,1.6-0.4,2.3-0.6
		c0.8-0.2,1.8-0.5,3-0.9c1.3-0.4,2.6-0.8,4.1-1.2c1.5-0.4,3-0.8,4.6-1c1.6-0.3,3.1-0.4,4.4-0.4c2.3,0,4.3,0.4,6.1,1.3
		c1.8,0.8,3.2,2,4.3,3.6c1.1,1.6,1.6,3.5,1.6,5.8c0,1.7-0.3,3.4-1,4.8c-0.7,1.5-1.6,2.8-2.8,3.9c-1.2,1.2-2.7,2.1-4.5,3
		c-1.7,0.8-3.7,1.5-5.9,2s-4.6,0.8-7.1,0.9l-2-4.5c2.6-0.1,5-0.3,7.2-0.7c2.2-0.4,4.2-1,5.9-1.8c1.7-0.8,3-1.8,4-3.1
		c1-1.3,1.4-2.8,1.4-4.5c0-1.2-0.3-2.4-0.9-3.3c-0.6-1-1.4-1.8-2.5-2.3c-1.1-0.6-2.4-0.9-4-0.9c-1.2,0-2.4,0.1-3.8,0.4
		c-1.4,0.3-2.8,0.6-4.2,1.1c-1.4,0.4-2.8,0.9-4.2,1.4c-1.3,0.5-2.6,1-3.7,1.4c-1.1,0.5-2.1,0.9-2.8,1.2L266.3,11.7z M248.1,7.1h14.8
		v3.8h-14.8V7.1z M37.4,7.9c1.4-0.1,2.9-0.1,4.7-0.2c1.7-0.1,3.6-0.1,5.5-0.2c2-0.1,3.9-0.2,5.9-0.3l0,3.6c-1.9,0.1-3.7,0.2-5.6,0.4
		c-1.9,0.1-3.7,0.2-5.4,0.3c-1.7,0.1-3.3,0.2-4.7,0.3L37.4,7.9z M76.7,7.4l2.9,0.4c-0.1,1.1-0.2,2.2-0.3,3.5
		c-0.2,1.3-0.4,2.5-0.6,3.8c-0.2,1.2-0.5,2.3-0.8,3.3l-3.1-1.1c0.3-0.9,0.6-1.9,0.9-3c0.3-1.1,0.5-2.3,0.6-3.5
		C76.5,9.6,76.6,8.4,76.7,7.4z M91.8,7.9h17.6v3.9H90.7L91.8,7.9z M231.6,8h3.9v9.4c0,2.1-0.1,4.2-0.4,6.3c-0.3,2.1-0.8,4.1-1.6,6.1
		c-0.8,2-2,3.9-3.7,5.7c-0.4-0.4-0.8-0.9-1.4-1.4c-0.6-0.5-1.1-0.9-1.6-1.3c1.4-1.6,2.5-3.3,3.2-5c0.7-1.7,1.1-3.5,1.3-5.3
		c0.2-1.8,0.3-3.5,0.3-5.2V8z M256.2,9.3l4,0.4c-0.6,4.3-1.6,8.1-2.8,11.4c-1.2,3.3-2.9,6.1-4.9,8.5c-2.1,2.4-4.7,4.4-7.9,6
		c-0.1-0.3-0.3-0.7-0.6-1.1c-0.3-0.4-0.6-0.9-0.9-1.3c-0.3-0.5-0.6-0.8-0.8-1.1c2.9-1.3,5.3-3,7.2-5.1c1.9-2.1,3.3-4.6,4.4-7.5
		C255,16.5,255.8,13.1,256.2,9.3z M165,9.8h3.3v21.7c0,0.8-0.1,1.5-0.3,2.1c-0.2,0.5-0.6,1-1.1,1.3c-0.6,0.3-1.2,0.5-2.1,0.5
		c-0.8,0.1-1.8,0.1-3,0.1c-0.1-0.5-0.2-1.1-0.5-1.7c-0.2-0.7-0.5-1.3-0.7-1.7c0.8,0,1.6,0,2.3,0.1c0.7,0,1.2,0,1.4,0
		c0.2,0,0.4,0,0.5-0.1c0.1-0.1,0.2-0.3,0.2-0.5V9.8z M155.5,9.8h10.7v3h-10.7V9.8z M153.9,9.8h3.3V20c0,1.2,0,2.5-0.1,3.9
		c-0.1,1.4-0.2,2.8-0.5,4.2c-0.2,1.4-0.5,2.8-1,4.1c-0.4,1.3-1,2.5-1.7,3.6c-0.2-0.2-0.5-0.4-0.8-0.6c-0.4-0.2-0.7-0.5-1.1-0.7
		c-0.4-0.2-0.7-0.4-1-0.5c0.9-1.3,1.5-2.8,1.9-4.4c0.4-1.6,0.7-3.2,0.8-4.9c0.1-1.7,0.2-3.2,0.2-4.6V9.8z M250,10.2
		c0.6,3.3,1.4,6.4,2.5,9.3c1.1,2.9,2.5,5.3,4.3,7.5c1.8,2.1,3.9,3.8,6.5,5c-0.3,0.3-0.6,0.6-1,1c-0.4,0.4-0.7,0.8-1,1.3
		c-0.3,0.4-0.6,0.8-0.8,1.2c-2.7-1.4-5-3.3-6.8-5.7c-1.8-2.4-3.3-5.2-4.4-8.4c-1.1-3.2-2-6.7-2.8-10.5L250,10.2z M159.8,11.4h2.7
		v12.4h-2.7V11.4z M5.3,11.4h14.4v14.6H5.3v-3.9h10.3v-6.9H5.3V11.4z M3.6,11.4h4V29h-4V11.4z M193.8,13.3c2.3,0.2,4.4,0.3,6.5,0.4
		c2.1,0.1,4.1,0.1,5.9,0c1.9-0.1,3.5-0.2,5-0.3c2-0.2,3.7-0.4,5.2-0.8c1.5-0.3,2.8-0.7,3.9-1l0.6,4c-1.1,0.3-2.3,0.5-3.7,0.8
		c-1.4,0.3-2.9,0.5-4.4,0.6c-1.6,0.2-3.4,0.3-5.5,0.4c-2.1,0.1-4.2,0.1-6.5,0.1c-2.3,0-4.6-0.1-6.8-0.3L193.8,13.3z M146.1,16
		c-0.4,0.1-0.8,0.2-1.3,0.4c-0.5,0.2-1,0.4-1.5,0.6c-0.5,0.2-1,0.4-1.4,0.5c-1.3,0.5-2.7,1.1-4.4,1.8c-1.7,0.7-3.4,1.5-5.2,2.4
		c-1.2,0.6-2.2,1.2-3,1.8c-0.8,0.6-1.5,1.2-1.9,1.9c-0.4,0.6-0.7,1.3-0.7,2.1c0,0.6,0.1,1.1,0.4,1.4c0.3,0.4,0.6,0.7,1.1,0.9
		c0.5,0.2,1.1,0.3,1.9,0.4c0.7,0.1,1.6,0.1,2.5,0.1c1.6,0,3.3-0.1,5.3-0.3c1.9-0.2,3.7-0.4,5.4-0.7l-0.2,4.4
		c-0.9,0.1-1.9,0.2-3.1,0.3c-1.2,0.1-2.5,0.2-3.8,0.2c-1.3,0.1-2.5,0.1-3.7,0.1c-1.9,0-3.7-0.2-5.2-0.6c-1.5-0.4-2.8-1-3.7-1.9
		c-0.9-0.9-1.3-2.1-1.3-3.7c0-1.3,0.3-2.4,0.9-3.4c0.6-1,1.4-2,2.3-2.8c1-0.8,2-1.6,3.2-2.3c1.2-0.7,2.3-1.3,3.4-1.9
		c1.2-0.6,2.3-1.1,3.3-1.6c1-0.4,1.9-0.8,2.8-1.2c0.8-0.4,1.7-0.7,2.5-1.1c0.7-0.3,1.3-0.6,2-0.9s1.3-0.6,1.9-1L146.1,16z
		 M49.8,13.8h4v17.6c0,0.9-0.1,1.6-0.3,2.2c-0.2,0.5-0.6,1-1.3,1.3c-0.6,0.3-1.3,0.5-2.2,0.6c-0.9,0.1-1.9,0.1-3,0.1
		c-0.1-0.5-0.3-1.2-0.5-1.9c-0.3-0.7-0.5-1.3-0.8-1.8c0.7,0,1.4,0,2.1,0.1c0.7,0,1.1,0,1.4,0c0.3,0,0.4,0,0.5-0.1
		c0.1-0.1,0.1-0.2,0.1-0.5V13.8z M39.6,13.8h12v3.4h-8.3v18.4h-3.8V13.8z M239.2,13.9h3.9c0,0.4,0,0.8,0,1c0,0.3,0,0.5,0,0.6
		c-0.1,3.1-0.1,5.7-0.2,7.9c-0.1,2.2-0.2,3.9-0.2,5.3c-0.1,1.4-0.2,2.5-0.4,3.3c-0.2,0.8-0.4,1.4-0.6,1.7c-0.4,0.5-0.7,0.9-1.1,1.1
		c-0.4,0.2-0.8,0.4-1.4,0.5c-0.5,0.1-1.1,0.1-1.8,0.1c-0.7,0-1.5,0-2.3,0c-0.1-0.6-0.2-1.2-0.3-1.9c-0.2-0.7-0.4-1.3-0.7-1.8
		c0.7,0.1,1.3,0.1,1.8,0.1c0.6,0,1,0,1.3,0c0.3,0,0.5,0,0.6-0.1c0.2-0.1,0.3-0.2,0.5-0.5c0.2-0.3,0.4-1,0.5-2.1
		c0.1-1.1,0.2-2.8,0.3-5.2c0.1-2.3,0.2-5.4,0.2-9.3V13.9z M234,13.9h6.6v3.7H234V13.9z M176.4,14.6h3.9v20.9h-3.9V14.6z M171.3,14.9
		l3.4,0.6c-0.4,1.7-0.8,3.4-1.4,5.1s-1.3,3-2.1,4.2c-0.2-0.2-0.5-0.4-0.9-0.6c-0.4-0.2-0.7-0.4-1.1-0.6c-0.4-0.2-0.7-0.3-1-0.5
		c0.8-1,1.4-2.3,1.9-3.8C170.7,17.9,171.1,16.4,171.3,14.9z M155.5,16.2h10.7v2.9h-10.7V16.2z M57,18h4v12.2c0,0.7,0.1,1.1,0.3,1.3
		c0.2,0.2,0.7,0.3,1.5,0.3c0.2,0,0.5,0,0.9,0c0.4,0,0.9,0,1.4,0s1,0,1.5,0c0.5,0,0.8,0,1,0c0.5,0,0.8-0.1,1.1-0.3
		c0.2-0.2,0.4-0.7,0.5-1.3c0.1-0.7,0.2-1.7,0.2-3c0.5,0.3,1,0.6,1.7,0.9c0.7,0.3,1.3,0.5,1.9,0.6c-0.1,1.8-0.4,3.1-0.7,4.1
		c-0.4,1-0.9,1.7-1.5,2.1c-0.7,0.4-1.6,0.6-2.8,0.6c-0.2,0-0.5,0-0.9,0c-0.4,0-0.8,0-1.3,0c-0.5,0-1,0-1.5,0s-0.9,0-1.3,0
		c-0.4,0-0.7,0-0.8,0c-1.4,0-2.5-0.2-3.3-0.5c-0.8-0.3-1.3-0.8-1.6-1.6c-0.3-0.7-0.5-1.8-0.5-3.1V18z M171.9,18.2h14.3v3.5h-14.3
		V18.2z M89.8,18.5h18.9v3.8H89.8V18.5z M41.3,19.5H52v3H41.3V19.5z M68.7,19.7l2.7,3c-1.1,0.6-2.4,1.2-3.7,1.8
		C66.3,25,65,25.5,63.5,26c-1.4,0.5-2.8,0.9-4.1,1.3c-0.1-0.4-0.3-0.9-0.5-1.4c-0.2-0.6-0.5-1-0.7-1.4c1.3-0.4,2.6-0.9,3.9-1.4
		c1.3-0.5,2.5-1.1,3.7-1.6C66.9,20.8,67.9,20.2,68.7,19.7z M200.6,21.9c-0.5,0.6-0.8,1.3-1.2,2c-0.3,0.7-0.5,1.4-0.5,2.3
		c0,1.4,0.7,2.5,2,3.2c1.3,0.7,3.3,1,6,1c1.8,0,3.4-0.1,5-0.2c1.6-0.1,3-0.3,4.4-0.6l-0.2,4.3c-1.3,0.2-2.8,0.4-4.4,0.5
		c-1.6,0.1-3.2,0.2-4.8,0.2c-2.5,0-4.7-0.3-6.5-0.8c-1.8-0.5-3.2-1.3-4.2-2.5c-1-1.1-1.5-2.5-1.5-4.3c0-1.2,0.1-2.2,0.5-3.2
		c0.3-0.9,0.7-1.8,1.1-2.7L200.6,21.9z M155.5,22.6h10.7v3h-10.7V22.6z M41.3,25.1H52v3.1H41.3V25.1z M169,25.4h17.9v3.5H169V25.4z
		 M86.9,30.5h23.6v3.9H86.9V30.5z"/>
</g>
</svg>
