<?xml version="1.0" encoding="utf-8"?>
<!-- Generator: Adobe Illustrator 27.9.1, SVG Export Plug-In . SVG Version: 6.00 Build 0)  -->
<svg version="1.1" id="Layer_1" xmlns="http://www.w3.org/2000/svg" xmlns:xlink="http://www.w3.org/1999/xlink" x="0px" y="0px"
	 viewBox="0 0 143.9 33.4" style="enable-background:new 0 0 143.9 33.4;" xml:space="preserve">
<style type="text/css">
	.st0{fill:#282828;}
</style>
<g>
	<path class="st0" d="M60.2,0c0,0.2-0.1,0.5-0.1,0.9c0,0.4-0.1,0.8-0.1,1.2c0,0.4,0,0.7,0,0.9c0,0.5,0,1.2-0.1,2c0,0.8,0,1.8,0,2.8
		s0,2.1,0,3.1c0,1,0,2,0,2.9c0,0.9,0,1.7,0,2.3l-4.2-1.6c0-0.4,0-1,0-1.8c0-0.8,0-1.7,0-2.6c0-0.9,0-1.9,0-2.8c0-0.9,0-1.8,0-2.5
		c0-0.8,0-1.3-0.1-1.7c-0.1-0.7-0.1-1.3-0.2-1.9c-0.1-0.6-0.1-1-0.2-1.2H60.2z M14.9,0.6C14.8,1,14.7,1.5,14.6,2
		c-0.1,0.5-0.2,1-0.3,1.5c-0.1,0.5-0.2,1.2-0.4,1.9s-0.3,1.5-0.4,2.2c-0.1,0.7-0.3,1.5-0.4,2.2c-0.3,1.1-0.6,2.3-1,3.7
		c-0.4,1.4-0.8,2.9-1.3,4.6c-0.5,1.6-1.1,3.3-1.7,4.9c-0.6,1.6-1.3,3.3-2,4.8c-0.7,1.6-1.5,3-2.3,4.3l-4.4-1.7
		c0.9-1.2,1.7-2.5,2.5-4c0.8-1.5,1.5-3,2.1-4.6c0.6-1.6,1.2-3.1,1.7-4.6c0.5-1.5,0.9-2.9,1.3-4.2c0.4-1.3,0.6-2.4,0.8-3.4
		c0.4-1.6,0.6-3.3,0.9-4.9C9.8,3,9.9,1.5,9.9,0L14.9,0.6z M117.2,0.5h26.7v32.9h-4.3v-29h-18.3v29h-4.1V0.5z M81.9,2
		c0.5,0,1.1,0.1,1.6,0.1c0.6,0,1.1,0.1,1.4,0.1c0.6,0,1.2,0,1.9,0c0.7,0,1.5-0.1,2.3-0.1c0.8,0,1.5-0.1,2.2-0.1
		c0.7,0,1.3-0.1,1.7-0.1c0.4-0.1,0.9-0.1,1.3-0.2c0.4-0.1,0.8-0.2,1.1-0.3l2.7,2.1c-0.2,0.3-0.4,0.5-0.6,0.7
		c-0.2,0.2-0.4,0.5-0.5,0.7c-0.4,0.7-0.9,1.6-1.5,2.9c-0.6,1.2-1.1,2.6-1.8,4c-0.6,1.4-1.2,2.8-1.8,4.1c-0.4,0.9-0.8,1.8-1.2,2.8
		c-0.4,1-0.8,2-1.3,2.9c-0.4,1-0.9,1.9-1.3,2.7c-0.4,0.8-0.8,1.6-1.2,2.2c-0.7,1.1-1.6,1.9-2.5,2.4c-0.9,0.5-2,0.7-3.2,0.7
		c-1.6,0-2.9-0.5-4-1.6c-1.1-1-1.6-2.5-1.6-4.3c0-1.5,0.3-2.9,1-4.2s1.6-2.4,2.9-3.4c1.2-1,2.7-1.7,4.3-2.2c1.7-0.5,3.5-0.8,5.5-0.8
		c2.2,0,4.3,0.3,6.3,0.8c2,0.5,3.9,1.2,5.7,1.9c1.8,0.8,3.4,1.6,4.8,2.5c1.4,0.8,2.7,1.6,3.6,2.3l-2,4.7c-1.1-1-2.4-2-3.8-3
		c-1.4-1-2.9-1.9-4.5-2.7c-1.6-0.8-3.3-1.5-5.2-2c-1.8-0.5-3.7-0.7-5.7-0.7c-1.9,0-3.5,0.3-4.9,0.9c-1.4,0.6-2.4,1.4-3.1,2.3
		c-0.7,0.9-1,1.9-1,2.9c0,0.7,0.2,1.2,0.5,1.6c0.4,0.4,0.8,0.5,1.3,0.5c0.4,0,0.8-0.1,1.1-0.3c0.3-0.2,0.6-0.5,1-1
		c0.4-0.5,0.7-1.1,1-1.7c0.3-0.7,0.7-1.4,1.1-2.2c0.4-0.8,0.7-1.6,1.1-2.4c0.3-0.8,0.7-1.6,1-2.4c0.5-1,0.9-2.1,1.4-3.2
		c0.5-1.1,1-2.2,1.4-3.3c0.5-1.1,0.9-2,1.3-2.8c-0.4,0-0.9,0-1.5,0c-0.6,0-1.2,0.1-1.9,0.1c-0.7,0-1.3,0.1-1.9,0.1
		c-0.6,0-1.1,0.1-1.6,0.1c-0.4,0-0.9,0.1-1.5,0.1C83,6.2,82.5,6.3,82,6.3L81.9,2z M28,4.3c0.6,0.8,1.2,1.8,1.9,3
		c0.7,1.2,1.3,2.5,1.9,3.8c0.6,1.3,1.2,2.6,1.7,3.9c0.5,1.3,0.9,2.3,1.2,3.2l-4.3,2c-0.3-1-0.6-2.2-1.1-3.5c-0.5-1.3-1-2.6-1.6-4
		c-0.6-1.3-1.2-2.6-1.9-3.8c-0.7-1.2-1.3-2.2-2-3L28,4.3z M39.1,4.9c1.1,0,2.4,0,3.7,0c1.4,0,2.8-0.1,4.4-0.1c1.5,0,3.1-0.1,4.6-0.1
		c1.5,0,2.9,0,4.3-0.1c1.3,0,2.5,0,3.6,0c1,0,2.1,0,3.2,0c1.1,0,2.2,0,3.3,0c1.1,0,2.1,0,2.9,0c0.9,0,1.6,0,2.1,0l0,4
		c-1.1-0.1-2.7-0.1-4.6-0.1c-1.9,0-4.3-0.1-7-0.1c-1.7,0-3.4,0-5.2,0.1c-1.8,0-3.6,0.1-5.3,0.1c-1.8,0.1-3.5,0.1-5.1,0.2
		c-1.6,0.1-3.2,0.2-4.6,0.3L39.1,4.9z M0,8.5c0.7,0.1,1.3,0.1,1.9,0.1c0.6,0,1.3,0,1.9-0.1c0.6,0,1.4-0.1,2.2-0.1C7,8.3,8,8.2,9,8.2
		C10,8.1,11,8,12,7.9c1-0.1,2-0.2,2.8-0.2c0.9-0.1,1.6-0.1,2.1-0.1c1.3,0,2.4,0.2,3.4,0.6c1,0.4,1.8,1.2,2.4,2.2
		c0.6,1,0.9,2.4,0.9,4.2c0,1.5-0.1,3.1-0.2,4.8c-0.1,1.7-0.4,3.4-0.7,5c-0.3,1.6-0.7,2.9-1.3,4c-0.6,1.3-1.4,2.2-2.4,2.7
		c-1,0.5-2.2,0.7-3.6,0.7c-0.7,0-1.5-0.1-2.3-0.2c-0.8-0.1-1.6-0.2-2.2-0.4l-0.7-4.5c0.5,0.1,1.1,0.3,1.6,0.4
		c0.6,0.1,1.1,0.2,1.7,0.3c0.5,0.1,1,0.1,1.3,0.1c0.7,0,1.2-0.1,1.7-0.3c0.5-0.2,0.9-0.7,1.2-1.4c0.4-0.8,0.7-1.7,0.9-2.9
		c0.2-1.2,0.4-2.5,0.5-3.9c0.1-1.4,0.2-2.7,0.2-4c0-1.1-0.1-1.8-0.4-2.4c-0.3-0.5-0.7-0.8-1.3-1c-0.6-0.2-1.3-0.3-2.1-0.3
		c-0.6,0-1.4,0-2.4,0.1c-1,0.1-2.1,0.2-3.3,0.3c-1.2,0.1-2.2,0.2-3.2,0.4c-1,0.1-1.8,0.2-2.3,0.3c-0.5,0.1-1.2,0.2-2,0.3
		c-0.8,0.1-1.5,0.2-2,0.3L0,8.5z M120.1,9.3h21v3.9h-21V9.3z M106.5,10.8c-0.1,2.7-0.4,5.2-0.8,7.4c-0.4,2.2-1,4.3-1.9,6.1
		c-0.8,1.8-2,3.5-3.5,4.9c-1.5,1.5-3.3,2.8-5.6,3.9l-3.6-3c2.3-1,4.2-2.1,5.6-3.4c1.4-1.3,2.5-2.7,3.2-4.2c0.7-1.5,1.2-2.9,1.5-4.3
		c0.3-1.4,0.5-2.7,0.6-3.9c0.1-0.7,0.1-1.4,0.1-2.1c0-0.7,0-1.3-0.1-1.9L106.5,10.8z M59.5,16.1c0,2-0.3,3.6-0.8,4.9
		c-0.5,1.3-1.2,2.3-2.2,2.9c-0.9,0.7-2.1,1-3.5,1c-0.7,0-1.5-0.1-2.3-0.4c-0.8-0.3-1.5-0.7-2.1-1.3c-0.6-0.6-1.1-1.3-1.5-2.1
		c-0.4-0.8-0.6-1.8-0.6-2.9c0-1.4,0.3-2.6,1-3.6c0.7-1,1.6-1.8,2.7-2.4c1.1-0.6,2.3-0.9,3.6-0.9c1.6,0,3,0.4,4.1,1.1
		c1.1,0.7,1.9,1.7,2.5,2.9c0.6,1.2,0.8,2.6,0.8,4.2c0,1.2-0.2,2.5-0.6,3.9c-0.4,1.3-1,2.6-2,3.9s-2.1,2.4-3.7,3.4
		c-1.5,1-3.5,1.9-5.8,2.5l-3.6-3.6c1.6-0.4,3.2-0.8,4.5-1.4c1.4-0.6,2.6-1.3,3.6-2.1c1-0.8,1.8-1.9,2.4-3.1c0.6-1.2,0.8-2.6,0.8-4.3
		c0-1.4-0.3-2.4-0.9-3c-0.6-0.6-1.4-1-2.3-1c-0.5,0-1,0.1-1.5,0.4c-0.5,0.3-0.9,0.6-1.2,1.1c-0.3,0.5-0.5,1.1-0.5,1.8
		c0,1,0.3,1.7,1,2.3c0.6,0.6,1.4,0.8,2.2,0.8c0.7,0,1.3-0.2,1.8-0.6c0.5-0.4,0.8-1,1-1.9c0.2-0.9,0.1-2.1-0.3-3.5L59.5,16.1z
		 M120.1,18.2h21V22h-21V18.2z M120.1,27h21v4h-21V27z"/>
</g>
</svg>
