<?xml version="1.0" encoding="utf-8"?>
<!-- Generator: Adobe Illustrator 27.9.1, SVG Export Plug-In . SVG Version: 6.00 Build 0)  -->
<svg version="1.1" id="Layer_1" xmlns="http://www.w3.org/2000/svg" xmlns:xlink="http://www.w3.org/1999/xlink" x="0px" y="0px"
	 viewBox="0 0 223.9 35.7" style="enable-background:new 0 0 223.9 35.7;" xml:space="preserve">
<style type="text/css">
	.st0{fill:#282828;}
</style>
<path class="st0" d="M134.9,0h4.2v18.2h-4.2V0z M93.2,0h4.3v4.9h-4.3V0z M204,0.1h4.3v7.5c0,1.7-0.1,3.6-0.2,5.5
	c-0.2,1.9-0.5,3.9-1,5.9c-0.5,2-1.3,4-2.3,6c-1,2-2.4,3.9-4.1,5.7c-1.7,1.8-3.9,3.5-6.5,5c-0.2-0.4-0.5-0.7-0.9-1.2
	s-0.8-0.8-1.2-1.2c-0.4-0.4-0.8-0.7-1.1-0.9c2.4-1.3,4.4-2.8,6-4.4c1.6-1.6,2.9-3.3,3.8-5c0.9-1.7,1.7-3.5,2.1-5.3
	c0.5-1.8,0.8-3.5,0.9-5.2c0.2-1.7,0.2-3.3,0.2-4.8V0.1z M116.5,3.2l2.2-3c0.9,0.3,1.8,0.7,2.7,1.1c0.9,0.4,1.8,0.9,2.6,1.4
	c0.8,0.5,1.5,0.9,2.1,1.4l-2.4,3.3c-0.5-0.5-1.2-0.9-2-1.5c-0.8-0.5-1.7-1-2.6-1.5C118.2,4,117.3,3.5,116.5,3.2z M14.8,0.2l2.9,3
	c-1.5,0.6-3.1,1.1-4.9,1.6c-1.8,0.5-3.6,0.9-5.5,1.3C5.5,6.4,3.7,6.7,1.9,7C1.8,6.5,1.7,6,1.4,5.4C1.2,4.8,1,4.2,0.7,3.8
	c1.7-0.3,3.4-0.6,5.1-1c1.7-0.4,3.4-0.8,4.9-1.3C12.4,1.1,13.7,0.7,14.8,0.2z M22.6,0.8l4.6,0.8c-0.4,2.5-0.8,5.1-1.3,7.8
	c-0.5,2.7-1,5.4-1.6,8c-0.6,2.7-1.2,5.2-1.7,7.6c-0.6,2.4-1.2,4.6-1.7,6.6l-4-0.8c0.6-2,1.1-4.2,1.7-6.7c0.6-2.5,1.1-5,1.6-7.7
	c0.5-2.7,1-5.3,1.4-8C22.1,5.7,22.4,3.2,22.6,0.8z M81.5,2.9h30.1v3.4H81.5V2.9z M79.1,2.9h3.8V15c0,1.5-0.1,3.1-0.2,4.9
	c-0.1,1.8-0.3,3.6-0.5,5.5c-0.3,1.9-0.6,3.7-1.1,5.4c-0.5,1.8-1.2,3.4-2,4.8c-0.2-0.3-0.5-0.6-0.9-0.9c-0.4-0.3-0.8-0.7-1.2-1
	c-0.4-0.3-0.7-0.5-1-0.6c0.7-1.3,1.3-2.7,1.7-4.3c0.4-1.5,0.7-3.1,0.9-4.7c0.2-1.6,0.3-3.2,0.4-4.8c0.1-1.6,0.1-3,0.1-4.4V2.9z
	 M7.7,3.6h4v31.8h-4V3.6z M173.4,6.2c-0.3,2-0.6,4-1,6.2c-0.4,2.2-0.9,4.4-1.6,6.6c-0.8,2.6-1.6,4.8-2.6,6.6c-1,1.8-2,3.2-3.2,4.2
	c-1.2,1-2.4,1.4-3.7,1.4c-1.3,0-2.5-0.5-3.7-1.4c-1.1-0.9-2.1-2.2-2.8-3.8c-0.7-1.6-1-3.5-1-5.6c0-2.2,0.4-4.2,1.3-6.1
	c0.9-1.9,2.1-3.6,3.7-5.1c1.6-1.5,3.4-2.7,5.5-3.5c2.1-0.8,4.4-1.3,6.8-1.3c2.3,0,4.4,0.4,6.3,1.1c1.9,0.7,3.5,1.8,4.8,3.1
	c1.3,1.3,2.3,2.9,3,4.7c0.7,1.8,1.1,3.7,1.1,5.7c0,2.7-0.6,5-1.7,7.1c-1.1,2.1-2.7,3.8-4.8,5.1c-2.1,1.3-4.8,2.2-7.9,2.7l-2.5-4
	c0.7-0.1,1.3-0.2,1.9-0.3c0.6-0.1,1.1-0.2,1.6-0.3c1.2-0.3,2.4-0.7,3.4-1.3c1.1-0.6,2-1.3,2.8-2.2c0.8-0.9,1.4-1.9,1.9-3.1
	c0.5-1.2,0.7-2.5,0.7-3.9c0-1.5-0.2-2.9-0.7-4.2c-0.5-1.3-1.2-2.4-2.1-3.3s-2-1.7-3.3-2.2c-1.3-0.5-2.8-0.8-4.5-0.8
	c-2.1,0-3.9,0.4-5.5,1.1c-1.6,0.7-2.9,1.7-4,2.9c-1.1,1.2-1.9,2.4-2.5,3.8c-0.6,1.4-0.9,2.7-0.9,3.9c0,1.3,0.2,2.5,0.5,3.4
	c0.3,0.9,0.7,1.6,1.2,2c0.5,0.4,1,0.7,1.5,0.7c0.6,0,1.1-0.3,1.7-0.8c0.6-0.6,1.1-1.4,1.7-2.6c0.5-1.2,1.1-2.7,1.7-4.5
	c0.6-1.8,1-3.8,1.4-5.8c0.4-2.1,0.7-4.1,0.9-6.1L173.4,6.2z M59.4,6.2c-0.3,2-0.6,4-1,6.2c-0.4,2.2-0.9,4.4-1.6,6.6
	c-0.8,2.6-1.6,4.8-2.6,6.6c-1,1.8-2,3.2-3.2,4.2c-1.2,1-2.4,1.4-3.7,1.4c-1.3,0-2.5-0.5-3.7-1.4c-1.1-0.9-2.1-2.2-2.8-3.8
	c-0.7-1.6-1-3.5-1-5.6c0-2.2,0.4-4.2,1.3-6.1c0.9-1.9,2.1-3.6,3.7-5.1c1.6-1.5,3.4-2.7,5.5-3.5c2.1-0.8,4.4-1.3,6.8-1.3
	c2.3,0,4.4,0.4,6.3,1.1c1.9,0.7,3.5,1.8,4.8,3.1c1.3,1.3,2.3,2.9,3,4.7c0.7,1.8,1.1,3.7,1.1,5.7c0,2.7-0.6,5-1.7,7.1
	c-1.1,2.1-2.7,3.8-4.8,5.1c-2.1,1.3-4.8,2.2-7.9,2.7l-2.5-4c0.7-0.1,1.3-0.2,1.9-0.3c0.6-0.1,1.1-0.2,1.6-0.3
	c1.2-0.3,2.4-0.7,3.4-1.3c1.1-0.6,2-1.3,2.8-2.2c0.8-0.9,1.4-1.9,1.9-3.1c0.5-1.2,0.7-2.5,0.7-3.9c0-1.5-0.2-2.9-0.7-4.2
	c-0.5-1.3-1.2-2.4-2.1-3.3s-2-1.7-3.3-2.2c-1.3-0.5-2.8-0.8-4.5-0.8c-2.1,0-3.9,0.4-5.5,1.1c-1.6,0.7-2.9,1.7-4,2.9
	c-1.1,1.2-1.9,2.4-2.5,3.8c-0.6,1.4-0.9,2.7-0.9,3.9c0,1.3,0.2,2.5,0.5,3.4c0.3,0.9,0.7,1.6,1.2,2c0.5,0.4,1,0.7,1.5,0.7
	c0.6,0,1.1-0.3,1.7-0.8c0.6-0.6,1.1-1.4,1.7-2.6c0.5-1.2,1.1-2.7,1.7-4.5c0.6-1.8,1-3.8,1.4-5.8c0.4-2.1,0.7-4.1,0.9-6.1L59.4,6.2z
	 M126.8,5.7h20.9v3.9h-20.9V5.7z M102.5,6.2h3V16h-3V6.2z M89.2,6.2h3V16h-3V6.2z M219.7,8h4.2c0,0.5,0,1,0,1.3c0,0.3,0,0.6-0.1,0.8
	c-0.2,3.8-0.4,7.1-0.6,9.8c-0.2,2.7-0.4,5-0.7,6.7c-0.3,1.8-0.5,3.2-0.9,4.2c-0.3,1-0.7,1.8-1.1,2.3c-0.5,0.7-1.1,1.2-1.7,1.4
	c-0.6,0.3-1.3,0.4-2.1,0.5c-0.7,0.1-1.6,0.1-2.7,0.1c-1.1,0-2.2,0-3.4-0.1c0-0.6-0.2-1.3-0.4-2.1c-0.3-0.8-0.6-1.5-1-2.1
	c1.2,0.1,2.4,0.2,3.4,0.2c1.1,0,1.8,0,2.3,0c0.4,0,0.7,0,1-0.1c0.3-0.1,0.5-0.2,0.7-0.5c0.3-0.3,0.6-1,0.9-1.9c0.3-1,0.5-2.3,0.8-4
	c0.2-1.7,0.4-3.9,0.6-6.4c0.2-2.6,0.4-5.7,0.6-9.2V8z M192.1,8h29.3v4.2h-29.3V8z M98,8.1h13.1v2.5H98V8.1z M84.1,8.1h12.8v2.5H84.1
	V8.1z M102.5,9.3l2.1,0.8c-0.4,0.7-1,1.5-1.7,2.2c-0.7,0.7-1.4,1.4-2.2,2.1c-0.8,0.6-1.6,1.1-2.4,1.5c-0.2-0.3-0.5-0.7-0.9-1.2
	c-0.4-0.5-0.7-0.8-1.1-1.1c0.8-0.3,1.6-0.7,2.3-1.1c0.8-0.5,1.5-1,2.1-1.6C101.6,10.5,102.1,9.9,102.5,9.3z M89.2,9.3l2.1,0.8
	c-0.4,0.7-1,1.5-1.7,2.2c-0.7,0.7-1.4,1.4-2.2,2.1c-0.8,0.6-1.6,1.1-2.5,1.5c-0.2-0.3-0.5-0.7-0.9-1.2c-0.4-0.5-0.7-0.8-1.1-1.1
	c0.8-0.3,1.6-0.7,2.4-1.1c0.8-0.5,1.5-1,2.2-1.6C88.2,10.5,88.8,9.9,89.2,9.3z M105.8,9.7c0.5,0.5,1,1,1.7,1.6
	c0.7,0.5,1.4,1,2.2,1.4c0.8,0.4,1.5,0.8,2.2,1.1c-0.3,0.3-0.7,0.6-1.1,1c-0.4,0.4-0.7,0.8-1,1.2c-0.7-0.4-1.5-0.9-2.3-1.5
	c-0.8-0.6-1.5-1.2-2.2-1.9c-0.7-0.7-1.3-1.4-1.8-2L105.8,9.7z M114.4,13.6l2.1-3.1c0.8,0.3,1.7,0.6,2.7,1c0.9,0.4,1.8,0.8,2.7,1.3
	c0.8,0.4,1.6,0.9,2.1,1.3l-2.2,3.4c-0.5-0.4-1.2-0.9-2-1.3c-0.8-0.5-1.7-0.9-2.6-1.4C116.1,14.3,115.2,13.9,114.4,13.6z M92,10.7
	c0.2,0.1,0.6,0.3,1,0.5c0.5,0.2,1,0.4,1.5,0.7c0.5,0.2,1,0.5,1.4,0.7c0.4,0.2,0.7,0.4,1,0.5l-1.9,2.1c-0.2-0.2-0.5-0.4-0.9-0.7
	c-0.4-0.3-0.8-0.6-1.3-0.9c-0.5-0.3-0.9-0.6-1.4-0.9c-0.4-0.3-0.8-0.5-1.1-0.7L92,10.7z M0.9,11.1h16.8V15H0.9V11.1z M7.8,12.7
	l2.5,1.2c-0.4,1.4-1,2.8-1.6,4.3c-0.6,1.5-1.3,2.9-2,4.4C6,24,5.2,25.4,4.4,26.6c-0.8,1.3-1.6,2.4-2.4,3.3c-0.2-0.6-0.5-1.3-0.9-2
	C0.7,27.2,0.3,26.5,0,26c0.8-0.8,1.5-1.7,2.3-2.8s1.5-2.2,2.2-3.4c0.7-1.2,1.3-2.4,1.9-3.6C6.9,15,7.4,13.8,7.8,12.7z M94.5,14.9
	l4,0.5c-0.4,0.6-0.8,1.2-1.3,1.8c-0.4,0.6-0.8,1-1.2,1.4l-3-0.7c0.3-0.5,0.5-1,0.8-1.6C94.2,15.8,94.4,15.3,94.5,14.9z M124.9,15.4
	h24.6v3.9h-24.6V15.4z M11.5,16.1c0.3,0.3,0.8,0.7,1.3,1.2c0.6,0.6,1.2,1.2,1.9,1.8c0.7,0.7,1.3,1.3,1.9,1.8c0.6,0.6,1,1,1.2,1.2
	l-2.4,3.1c-0.3-0.5-0.7-1.1-1.2-1.7c-0.5-0.7-1.1-1.4-1.7-2.1c-0.6-0.7-1.2-1.4-1.7-2c-0.6-0.6-1-1.1-1.4-1.5L11.5,16.1z M85.5,17.1
	h23.1v10.1H85.5V17.1z M132.1,18.1l4.5,1.2c-0.6,1.4-1.2,2.9-1.8,4.5c-0.6,1.5-1.3,3-2,4.4c-0.7,1.4-1.3,2.7-1.9,3.8l-3.6-1.2
	c0.4-0.8,0.9-1.8,1.3-2.8c0.5-1.1,0.9-2.1,1.3-3.3s0.8-2.3,1.2-3.4C131.5,20.2,131.8,19.1,132.1,18.1z M95.2,18.1h3.6v7.6h-3.6V18.1
	z M26.9,19.7l3.9-1.1c0.8,1.6,1.6,3.4,2.4,5.3c0.7,1.9,1.4,3.7,1.9,5.5c0.5,1.8,0.9,3.4,1.1,4.8l-4.3,1.4c-0.2-1.4-0.5-3-1-4.8
	s-1.1-3.7-1.8-5.6C28.4,23.2,27.7,21.4,26.9,19.7z M89,19.5v1.7h15.9v-1.7H89z M115.5,32.3c0.7-1,1.4-2.1,2.1-3.4
	c0.8-1.3,1.6-2.7,2.4-4.2c0.8-1.5,1.6-3,2.2-4.4l3.1,2.6c-0.6,1.3-1.3,2.7-2,4.1c-0.7,1.4-1.4,2.8-2.2,4.1c-0.7,1.4-1.5,2.7-2.2,3.9
	L115.5,32.3z M139.7,24.2l3.5-1.9c0.9,1.1,1.9,2.3,2.8,3.6c0.9,1.3,1.8,2.6,2.5,3.9c0.8,1.3,1.3,2.5,1.7,3.5l-3.9,2.1
	c-0.3-1-0.9-2.2-1.6-3.5c-0.7-1.3-1.5-2.7-2.4-4C141.5,26.6,140.6,25.3,139.7,24.2z M89,23.1v1.7h15.9v-1.7H89z M103,26l2.6,0.7
	c-0.3,0.7-0.5,1.3-0.8,2c-0.2,0.7-0.5,1.2-0.7,1.7l-2-0.6c0.2-0.6,0.3-1.2,0.5-1.9C102.8,27.1,102.9,26.5,103,26z M96.6,26.6h3.5
	v4.9c0,0.5,0.1,0.7,0.4,0.9c0.2,0.1,0.8,0.2,1.6,0.2c0.2,0,0.5,0,1,0c0.5,0,1,0,1.6,0c0.6,0,1.1,0,1.7,0c0.5,0,0.9,0,1.1,0
	c0.4,0,0.7-0.1,0.9-0.2c0.2-0.1,0.4-0.3,0.5-0.7c0.1-0.4,0.2-0.9,0.2-1.6c0.4,0.2,0.9,0.4,1.4,0.6c0.6,0.2,1.1,0.4,1.6,0.5
	c-0.1,1.1-0.3,1.9-0.6,2.5c-0.3,0.6-0.7,1-1.3,1.2c-0.6,0.2-1.3,0.3-2.3,0.3c-0.2,0-0.5,0-0.9,0s-0.9,0-1.4,0s-1.1,0-1.6,0
	c-0.5,0-1,0-1.4,0c-0.4,0-0.7,0-0.9,0c-1.3,0-2.4-0.1-3.1-0.3c-0.7-0.2-1.2-0.6-1.5-1.2c-0.3-0.6-0.4-1.3-0.4-2.3V26.6z M89.9,26.7
	h4c-0.3,1.5-0.8,2.8-1.5,3.9c-0.7,1.1-1.7,2.1-3.1,2.9c-1.3,0.8-3.2,1.5-5.5,2.1c-0.1-0.3-0.3-0.7-0.5-1.1c-0.3-0.4-0.5-0.8-0.8-1.2
	c-0.3-0.4-0.6-0.7-0.8-0.9c2-0.4,3.5-0.8,4.6-1.4c1.1-0.5,1.9-1.2,2.5-1.9C89.3,28.5,89.7,27.6,89.9,26.7z M106.1,28l2.2-0.7
	c0.5,0.5,0.9,1.1,1.3,1.8c0.4,0.7,0.7,1.3,0.9,1.8l-2.4,0.8c-0.2-0.6-0.4-1.2-0.8-1.9C106.9,29.2,106.5,28.6,106.1,28z M13.8,29.8
	c1.5-0.1,3.4-0.3,5.4-0.5c2.1-0.2,4.3-0.4,6.7-0.7c2.4-0.2,4.7-0.5,7.1-0.7l0.1,3.7c-2.1,0.3-4.3,0.6-6.5,0.9
	c-2.2,0.3-4.3,0.6-6.3,0.9c-2,0.3-3.9,0.5-5.5,0.7L13.8,29.8z M124.9,29.8c1.7-0.1,3.7-0.2,6-0.3c2.3-0.1,4.7-0.2,7.2-0.4
	s5.1-0.3,7.6-0.4l0,3.7c-2.4,0.2-4.8,0.4-7.2,0.6c-2.4,0.2-4.7,0.4-7,0.5c-2.2,0.2-4.2,0.3-6,0.4L124.9,29.8z M100.9,29.4
	c1.1-0.1,2.2-0.1,3.5-0.1c1.3,0,2.6-0.1,4.1-0.1v1.7c-1.3,0.2-2.6,0.3-3.8,0.4c-1.2,0.1-2.3,0.2-3.4,0.3L100.9,29.4z"/>
</svg>
