<?xml version="1.0" encoding="utf-8"?>
<!-- Generator: Adobe Illustrator 27.9.1, SVG Export Plug-In . SVG Version: 6.00 Build 0)  -->
<svg version="1.1" id="Layer_1" xmlns="http://www.w3.org/2000/svg" xmlns:xlink="http://www.w3.org/1999/xlink" x="0px" y="0px"
	 viewBox="0 0 108.3 34.9" style="enable-background:new 0 0 108.3 34.9;" xml:space="preserve">
<style type="text/css">
	.st0{fill:#282828;}
</style>
<g>
	<path class="st0" d="M10.9,3.2L13.5,0c1.5,0.5,3,1.2,4.6,1.9c1.6,0.7,3.1,1.5,4.5,2.3c1.4,0.8,2.7,1.6,3.7,2.3l-2.7,3.6
		c-1-0.8-2.2-1.6-3.6-2.5c-1.4-0.8-2.9-1.7-4.5-2.5C14,4.4,12.4,3.7,10.9,3.2z M54.6,2.1c-0.1,0.4-0.2,0.9-0.3,1.4
		c-0.1,0.5-0.2,1-0.3,1.5c-0.1,0.5-0.2,1.2-0.4,1.9s-0.3,1.5-0.4,2.2c-0.1,0.7-0.3,1.5-0.4,2.2c-0.3,1.1-0.6,2.3-1,3.7
		c-0.4,1.4-0.8,2.9-1.3,4.6c-0.5,1.6-1.1,3.3-1.7,4.9c-0.6,1.6-1.3,3.3-2,4.8c-0.7,1.6-1.5,3-2.3,4.3L40,31.9c0.9-1.2,1.7-2.5,2.5-4
		c0.8-1.5,1.5-3,2.1-4.6c0.6-1.6,1.2-3.1,1.7-4.6c0.5-1.5,0.9-2.9,1.3-4.2c0.4-1.3,0.6-2.4,0.8-3.4c0.4-1.6,0.6-3.3,0.9-4.9
		c0.2-1.6,0.3-3.1,0.3-4.6L54.6,2.1z M88,1.7c0.9,0.3,2,0.6,3.4,0.9c1.4,0.3,2.8,0.6,4.3,0.9c1.5,0.3,2.9,0.5,4.2,0.7
		c1.3,0.2,2.4,0.4,3.2,0.4l-1,4.2c-0.8-0.1-1.7-0.2-2.7-0.4c-1.1-0.2-2.2-0.4-3.4-0.6c-1.2-0.2-2.4-0.5-3.5-0.7
		c-1.2-0.2-2.2-0.5-3.2-0.7c-1-0.2-1.7-0.4-2.3-0.6L88,1.7z M67.7,5.8c0.6,0.8,1.2,1.8,1.9,3c0.7,1.2,1.3,2.5,1.9,3.8
		c0.6,1.3,1.2,2.6,1.7,3.9c0.5,1.3,0.9,2.3,1.2,3.2l-4.3,2c-0.3-1-0.6-2.2-1.1-3.5c-0.5-1.3-1-2.6-1.6-4c-0.6-1.3-1.2-2.6-1.9-3.8
		c-0.7-1.2-1.3-2.2-2-3L67.7,5.8z M88,9.1c-0.1,0.6-0.3,1.3-0.4,2.1c-0.1,0.8-0.3,1.7-0.4,2.6c-0.1,0.9-0.3,1.8-0.4,2.6
		s-0.2,1.5-0.3,2.1c1.7-1.3,3.6-2.3,5.5-3c1.9-0.6,3.9-1,6-1c2.2,0,4,0.4,5.5,1.2c1.5,0.8,2.7,1.8,3.5,3.1c0.8,1.3,1.2,2.7,1.2,4.2
		c0,1.7-0.4,3.3-1.1,4.8c-0.7,1.5-2,2.7-3.6,3.7c-1.7,1-3.8,1.7-6.5,2.1c-2.7,0.4-5.9,0.5-9.7,0.1L86,29.3c3.9,0.5,7.1,0.6,9.7,0.1
		c2.6-0.4,4.6-1.2,5.9-2.3c1.3-1.1,2-2.5,2-4.2c0-0.9-0.3-1.7-0.8-2.4c-0.5-0.7-1.2-1.2-2.1-1.6c-0.9-0.4-1.9-0.6-3.1-0.6
		c-2.2,0-4.3,0.4-6.2,1.2c-1.9,0.8-3.5,2-4.7,3.5c-0.3,0.4-0.6,0.7-0.8,1.1c-0.2,0.3-0.4,0.7-0.5,1l-4-1c0.2-0.7,0.3-1.6,0.5-2.6
		c0.2-1,0.3-2.1,0.5-3.2c0.2-1.2,0.3-2.3,0.4-3.5c0.1-1.2,0.2-2.3,0.3-3.4c0.1-1.1,0.2-2.1,0.2-3L88,9.1z M39.7,10.1
		c0.7,0.1,1.3,0.1,1.9,0.1c0.6,0,1.3,0,1.9-0.1c0.6,0,1.4-0.1,2.2-0.1c0.9-0.1,1.8-0.1,2.9-0.2c1-0.1,2-0.2,3.1-0.2
		c1-0.1,2-0.2,2.8-0.2c0.9-0.1,1.6-0.1,2.1-0.1c1.3,0,2.4,0.2,3.4,0.6c1,0.4,1.8,1.2,2.4,2.2c0.6,1,0.9,2.4,0.9,4.2
		c0,1.5-0.1,3.1-0.2,4.8c-0.1,1.7-0.4,3.4-0.7,5c-0.3,1.6-0.7,2.9-1.3,4c-0.6,1.3-1.4,2.2-2.4,2.7c-1,0.5-2.2,0.7-3.6,0.7
		c-0.7,0-1.5-0.1-2.3-0.2c-0.8-0.1-1.6-0.2-2.2-0.4l-0.7-4.5c0.5,0.1,1.1,0.3,1.6,0.4c0.6,0.1,1.1,0.2,1.7,0.3
		c0.5,0.1,1,0.1,1.3,0.1c0.7,0,1.2-0.1,1.7-0.3c0.5-0.2,0.9-0.7,1.2-1.4c0.4-0.8,0.7-1.7,0.9-2.9c0.2-1.2,0.4-2.5,0.5-3.9
		c0.1-1.4,0.2-2.7,0.2-4c0-1.1-0.1-1.8-0.4-2.4c-0.3-0.5-0.7-0.8-1.3-1c-0.6-0.2-1.3-0.3-2.1-0.3c-0.6,0-1.4,0-2.4,0.1
		c-1,0.1-2.1,0.2-3.3,0.3c-1.2,0.1-2.2,0.2-3.2,0.4c-1,0.1-1.8,0.2-2.3,0.3c-0.5,0.1-1.2,0.2-2,0.3c-0.8,0.1-1.5,0.2-2,0.3
		L39.7,10.1z M10.7,10.6h4.2v18.4c0,0.9,0.1,1.5,0.4,1.7c0.3,0.3,0.9,0.4,1.8,0.4c0.2,0,0.6,0,1.1,0c0.5,0,1.1,0,1.7,0
		c0.6,0,1.2,0,1.7,0c0.5,0,0.9,0,1.2,0c0.7,0,1.2-0.2,1.5-0.6c0.3-0.4,0.6-1.1,0.7-2.2c0.2-1.1,0.3-2.6,0.4-4.7
		c0.5,0.4,1.1,0.7,1.8,1c0.7,0.3,1.4,0.6,2,0.7c-0.2,2.4-0.4,4.2-0.8,5.6c-0.4,1.4-1,2.3-1.8,2.9c-0.8,0.6-2,0.9-3.5,0.9
		c-0.2,0-0.5,0-1,0c-0.4,0-0.9,0-1.5,0c-0.6,0-1.1,0-1.7,0c-0.5,0-1,0-1.5,0c-0.4,0-0.7,0-0.9,0c-1.5,0-2.7-0.2-3.6-0.5
		c-0.9-0.4-1.5-1-1.8-1.8c-0.3-0.8-0.5-2-0.5-3.5V10.6z M26,13.9l3.7-1.8c1.1,1.4,2.1,2.9,3.1,4.6c1,1.6,1.8,3.3,2.5,4.9
		s1.2,3.1,1.5,4.4l-4.1,2c-0.3-1.3-0.7-2.8-1.3-4.4c-0.6-1.6-1.4-3.3-2.3-5C28,16.8,27,15.3,26,13.9z M4,13.5l4,0.8
		c-0.2,1.7-0.4,3.5-0.8,5.3c-0.3,1.8-0.8,3.6-1.3,5.2c-0.5,1.6-1.2,3.1-2.1,4.3L0,26.9c0.8-1.1,1.5-2.4,2-3.8c0.5-1.4,0.9-3,1.3-4.6
		C3.6,16.8,3.8,15.1,4,13.5z"/>
</g>
</svg>
