<?xml version="1.0" encoding="utf-8"?>
<!-- Generator: Adobe Illustrator 27.9.1, SVG Export Plug-In . SVG Version: 6.00 Build 0)  -->
<svg version="1.1" id="Layer_1" xmlns="http://www.w3.org/2000/svg" xmlns:xlink="http://www.w3.org/1999/xlink" x="0px" y="0px"
	 viewBox="0 0 74.2 35.6" style="enable-background:new 0 0 74.2 35.6;" xml:space="preserve">
<style type="text/css">
	.st0{fill:#282828;}
</style>
<path class="st0" d="M7.7,0h2.9c0.8,0.7,1.7,1.4,2.5,2.2C14,3,14.8,3.8,15.5,4.7c0.8,0.8,1.4,1.6,1.9,2.3L14.7,10
	c-0.4-0.7-1-1.4-1.7-2.3c-0.7-0.9-1.5-1.7-2.3-2.6C10,4.3,9.2,3.5,8.4,2.9H7.7V0z M7.1,0h2.2v0.8h1.2v1.1c-0.5,1-1.1,2-1.9,3.2
	C7.9,6.2,7,7.4,6,8.6C5,9.8,3.9,11,2.5,12.1c-0.2-0.3-0.4-0.6-0.7-0.9c-0.3-0.3-0.6-0.7-0.9-1C0.6,9.9,0.3,9.6,0,9.4
	c1.2-0.9,2.2-1.9,3.1-3C4,5.4,4.8,4.3,5.5,3.2C6.2,2,6.7,1,7.1,0z M40,3.5l2.3-2.9c0.8,0.4,1.6,0.8,2.5,1.3c0.9,0.5,1.7,1,2.6,1.4
	c0.8,0.5,1.5,0.9,2.1,1.3L47,7.8c-0.5-0.4-1.2-0.8-2-1.3c-0.8-0.5-1.7-1-2.5-1.6C41.6,4.4,40.8,3.9,40,3.5z M19.5,1.5h15v17h-15
	v-3.6h11.1V5.1H19.5V1.5z M17.7,1.5h3.8v30.2l-3.8,0.7V1.5z M49.4,2.3h24.8v4H49.4V2.3z M67.3,3.6h4.1v26.6c0,1.3-0.2,2.2-0.5,2.9
	c-0.3,0.7-1,1.2-1.8,1.6c-0.9,0.3-2,0.5-3.4,0.6c-1.4,0.1-3.2,0.1-5.3,0.1c-0.1-0.4-0.2-0.9-0.3-1.4c-0.2-0.5-0.4-1-0.6-1.6
	c-0.2-0.5-0.4-1-0.6-1.3c1,0.1,2.1,0.1,3.1,0.1c1,0,1.9,0,2.7,0c0.8,0,1.3,0,1.7,0c0.5,0,0.8-0.1,1-0.3c0.2-0.2,0.3-0.4,0.3-0.8V3.6
	z M19.3,8.2h13v3.4h-13V8.2z M3.4,9.4h11.7v3.4H3.4V9.4z M53.2,10.6h10.4v14.1H53.2V21h6.7v-6.7h-6.7V10.6z M51.2,10.6h3.7v16.6
	h-3.7V10.6z M38.3,13.9l2.2-3c0.7,0.3,1.6,0.7,2.5,1.2c0.9,0.5,1.8,0.9,2.6,1.4c0.8,0.4,1.6,0.8,2.1,1.2l-2.3,3.4
	c-0.5-0.4-1.2-0.8-2-1.3c-0.8-0.5-1.7-1-2.6-1.5C39.9,14.8,39.1,14.3,38.3,13.9z M7.2,10.9h3.6v20.4L7.2,32V10.9z M1.7,16H16v3.5
	H1.7V16z M27.4,17.2c0.4,2.3,1,4.4,1.8,6.4c0.8,2,1.8,3.7,3,5.2c1.2,1.5,2.7,2.6,4.5,3.5c-0.3,0.3-0.6,0.6-0.9,1
	c-0.3,0.4-0.7,0.8-1,1.2s-0.5,0.8-0.7,1.2c-2-1-3.6-2.4-4.9-4.2s-2.4-3.8-3.3-6.1c-0.8-2.3-1.5-4.8-2.1-7.6L27.4,17.2z M33.3,19.6
	l2.7,2.8c-1,0.8-2,1.6-3.2,2.4c-1.1,0.8-2.1,1.5-3.1,2l-2.3-2.4c0.6-0.4,1.2-0.8,1.9-1.4c0.7-0.6,1.4-1.1,2.1-1.7
	C32.2,20.7,32.8,20.1,33.3,19.6z M39.4,32.3c0.7-0.9,1.5-2.1,2.3-3.4c0.8-1.3,1.7-2.7,2.5-4.2c0.9-1.5,1.7-3,2.4-4.4l3,2.7
	c-0.7,1.3-1.4,2.7-2.1,4.1s-1.5,2.8-2.3,4.1c-0.8,1.4-1.6,2.7-2.3,3.9L39.4,32.3z M12.9,20.7l3.1,0.8c-0.4,1.1-0.8,2.3-1.1,3.5
	c-0.4,1.2-0.7,2.2-1.1,3.1l-2.5-0.8c0.2-0.6,0.4-1.3,0.6-2.1c0.2-0.8,0.4-1.6,0.6-2.4C12.7,22.1,12.8,21.4,12.9,20.7z M2.1,21.8
	l2.7-0.7c0.4,1,0.7,2.2,1,3.4c0.3,1.3,0.5,2.3,0.6,3.2l-2.9,0.8c-0.1-0.9-0.2-2-0.5-3.3C2.7,24,2.5,22.9,2.1,21.8z M14.8,31.1
	c1.1-0.2,2.3-0.4,3.6-0.7c1.4-0.3,2.8-0.6,4.3-0.9c1.5-0.3,3-0.7,4.5-1l0.5,3.8c-2,0.5-4.1,1-6.2,1.5c-2.1,0.5-4,1-5.7,1.3
	L14.8,31.1z M1.1,30.9c1.3-0.2,2.7-0.4,4.4-0.7c1.6-0.3,3.4-0.5,5.2-0.9c1.8-0.3,3.7-0.6,5.5-0.9l0.2,3.4c-1.7,0.3-3.4,0.7-5.1,1
	c-1.7,0.3-3.4,0.6-5,0.9c-1.6,0.3-3.1,0.6-4.4,0.8L1.1,30.9z"/>
</svg>
