<?xml version="1.0" encoding="utf-8"?>
<!-- Generator: Adobe Illustrator 27.9.1, SVG Export Plug-In . SVG Version: 6.00 Build 0)  -->
<svg version="1.1" id="Layer_1" xmlns="http://www.w3.org/2000/svg" xmlns:xlink="http://www.w3.org/1999/xlink" x="0px" y="0px"
	 viewBox="0 0 184.3 35.6" style="enable-background:new 0 0 184.3 35.6;" xml:space="preserve">
<style type="text/css">
	.st0{fill:#282828;}
</style>
<g>
	<path class="st0" d="M93.4,0h4.3v5.6h-4.3V0z M10.9,3.3l2.6-3.2c1.5,0.5,3,1.2,4.6,1.9c1.6,0.7,3.1,1.5,4.5,2.3
		c1.4,0.8,2.7,1.6,3.7,2.3l-2.7,3.6c-1-0.8-2.2-1.6-3.6-2.5c-1.4-0.8-2.9-1.7-4.5-2.5C14,4.5,12.4,3.9,10.9,3.3z M130.6,2.3
		c-0.1,0.4-0.2,0.9-0.3,1.4c-0.1,0.5-0.2,1-0.3,1.5c-0.1,0.5-0.2,1.2-0.4,1.9s-0.3,1.5-0.4,2.2c-0.1,0.7-0.3,1.5-0.4,2.2
		c-0.3,1.1-0.6,2.3-1,3.7c-0.4,1.4-0.8,2.9-1.3,4.6c-0.5,1.6-1.1,3.3-1.7,4.9c-0.6,1.6-1.3,3.3-2,4.8c-0.7,1.6-1.5,3-2.3,4.3L116,32
		c0.9-1.2,1.7-2.5,2.5-4c0.8-1.5,1.5-3,2.1-4.6c0.6-1.6,1.2-3.1,1.7-4.6c0.5-1.5,0.9-2.9,1.3-4.2c0.4-1.3,0.6-2.4,0.8-3.4
		c0.4-1.6,0.6-3.3,0.9-4.9c0.2-1.6,0.3-3.1,0.3-4.6L130.6,2.3z M164,1.8c0.9,0.3,2,0.6,3.4,0.9c1.4,0.3,2.8,0.6,4.3,0.9
		c1.5,0.3,2.9,0.5,4.2,0.7c1.3,0.2,2.4,0.4,3.2,0.4l-1,4.2c-0.8-0.1-1.7-0.2-2.7-0.4c-1.1-0.2-2.2-0.4-3.4-0.6
		c-1.2-0.2-2.4-0.5-3.5-0.7c-1.2-0.2-2.2-0.5-3.2-0.7c-1-0.2-1.7-0.4-2.3-0.6L164,1.8z M81.6,3.6h30.1v3.6H81.6V3.6z M79.6,3.6h3.9
		v10.8c0,1.5,0,3.2-0.1,5c-0.1,1.8-0.3,3.7-0.6,5.6c-0.3,1.9-0.7,3.8-1.2,5.6c-0.5,1.8-1.2,3.4-2.1,4.9c-0.2-0.2-0.6-0.5-1-0.8
		c-0.4-0.3-0.8-0.6-1.3-0.9s-0.8-0.5-1.1-0.6c0.8-1.4,1.4-2.9,1.9-4.4c0.5-1.6,0.8-3.2,1-4.9c0.2-1.7,0.4-3.4,0.4-5
		c0.1-1.6,0.1-3.1,0.1-4.5V3.6z M59.5,6.2c-0.3,2-0.6,4-1,6.2c-0.4,2.2-0.9,4.4-1.6,6.6c-0.8,2.6-1.6,4.8-2.6,6.6
		c-1,1.8-2,3.2-3.2,4.2c-1.2,1-2.4,1.4-3.7,1.4c-1.3,0-2.5-0.5-3.7-1.4c-1.1-0.9-2.1-2.2-2.8-3.8c-0.7-1.6-1-3.5-1-5.6
		c0-2.2,0.4-4.2,1.3-6.1c0.9-1.9,2.1-3.6,3.7-5.1c1.6-1.5,3.4-2.7,5.5-3.5c2.1-0.8,4.4-1.3,6.8-1.3c2.3,0,4.4,0.4,6.3,1.1
		c1.9,0.7,3.5,1.8,4.8,3.1c1.3,1.3,2.3,2.9,3,4.7c0.7,1.8,1.1,3.7,1.1,5.7c0,2.7-0.6,5-1.7,7.1c-1.1,2.1-2.7,3.8-4.8,5.1
		s-4.8,2.2-7.9,2.7l-2.5-4c0.7-0.1,1.3-0.2,1.9-0.3c0.6-0.1,1.1-0.2,1.6-0.3c1.2-0.3,2.4-0.7,3.4-1.3c1.1-0.6,2-1.3,2.8-2.2
		c0.8-0.9,1.4-1.9,1.9-3.1c0.5-1.2,0.7-2.5,0.7-3.9c0-1.5-0.2-2.9-0.7-4.2c-0.5-1.3-1.2-2.4-2.1-3.3c-0.9-0.9-2-1.7-3.3-2.2
		c-1.3-0.5-2.8-0.8-4.5-0.8c-2.1,0-3.9,0.4-5.5,1.1c-1.6,0.7-2.9,1.7-4,2.9c-1.1,1.2-1.9,2.4-2.5,3.8c-0.6,1.4-0.9,2.7-0.9,3.9
		c0,1.3,0.2,2.5,0.5,3.4c0.3,0.9,0.7,1.6,1.2,2c0.5,0.4,1,0.7,1.5,0.7c0.6,0,1.1-0.3,1.7-0.8c0.6-0.6,1.1-1.4,1.7-2.6
		c0.5-1.2,1.1-2.7,1.7-4.5c0.6-1.8,1-3.8,1.4-5.8c0.4-2.1,0.7-4.1,0.9-6.1L59.5,6.2z M143.7,6c0.6,0.8,1.2,1.8,1.9,3
		c0.7,1.2,1.3,2.5,1.9,3.8c0.6,1.3,1.2,2.6,1.7,3.9c0.5,1.3,0.9,2.3,1.2,3.2l-4.3,2c-0.3-1-0.6-2.2-1.1-3.5c-0.5-1.3-1-2.6-1.6-4
		c-0.6-1.3-1.2-2.6-1.9-3.8c-0.7-1.2-1.3-2.2-2-3L143.7,6z M105.4,7.7l3,2.9c-1.7,0.5-3.6,1-5.7,1.3c-2.1,0.4-4.3,0.7-6.5,1
		c-2.2,0.3-4.3,0.5-6.4,0.7c-0.1-0.4-0.2-1-0.4-1.6c-0.2-0.6-0.4-1.1-0.7-1.5c1.5-0.1,3-0.3,4.5-0.5c1.5-0.2,3.1-0.4,4.5-0.7
		c1.5-0.3,2.9-0.5,4.2-0.8C103.3,8.3,104.4,8,105.4,7.7z M164,9.2c-0.1,0.6-0.3,1.3-0.4,2.1c-0.1,0.8-0.3,1.7-0.4,2.6
		c-0.1,0.9-0.3,1.8-0.4,2.6c-0.1,0.8-0.2,1.5-0.3,2.1c1.7-1.3,3.6-2.3,5.5-3c1.9-0.6,3.9-1,6-1c2.2,0,4,0.4,5.5,1.2
		c1.5,0.8,2.7,1.8,3.5,3.1c0.8,1.3,1.2,2.7,1.2,4.2c0,1.7-0.4,3.3-1.1,4.8c-0.7,1.5-2,2.7-3.6,3.7c-1.7,1-3.8,1.7-6.5,2.1
		s-5.9,0.5-9.7,0.1l-1.3-4.4c3.9,0.5,7.1,0.6,9.7,0.1c2.6-0.4,4.6-1.2,5.9-2.3c1.3-1.1,2-2.5,2-4.2c0-0.9-0.3-1.7-0.8-2.4
		c-0.5-0.7-1.2-1.2-2.1-1.6c-0.9-0.4-1.9-0.6-3.1-0.6c-2.2,0-4.3,0.4-6.2,1.2c-1.9,0.8-3.5,2-4.7,3.5c-0.3,0.4-0.6,0.7-0.8,1.1
		c-0.2,0.3-0.4,0.7-0.5,1l-4-1c0.2-0.7,0.3-1.6,0.5-2.6c0.2-1,0.3-2.1,0.5-3.2c0.2-1.2,0.3-2.3,0.4-3.5c0.1-1.2,0.2-2.3,0.3-3.4
		c0.1-1.1,0.2-2.1,0.2-3L164,9.2z M115.7,10.2c0.7,0.1,1.3,0.1,1.9,0.1c0.6,0,1.3,0,1.9-0.1c0.6,0,1.4-0.1,2.2-0.1
		c0.9-0.1,1.8-0.1,2.9-0.2s2-0.2,3.1-0.2c1-0.1,2-0.2,2.8-0.2c0.9-0.1,1.6-0.1,2.1-0.1c1.3,0,2.4,0.2,3.4,0.6c1,0.4,1.8,1.2,2.4,2.2
		c0.6,1,0.9,2.4,0.9,4.2c0,1.5-0.1,3.1-0.2,4.8c-0.1,1.7-0.4,3.4-0.7,5c-0.3,1.6-0.7,2.9-1.3,4c-0.6,1.3-1.4,2.2-2.4,2.7
		c-1,0.5-2.2,0.7-3.6,0.7c-0.7,0-1.5-0.1-2.3-0.2c-0.8-0.1-1.6-0.2-2.2-0.4l-0.7-4.5c0.5,0.1,1.1,0.3,1.6,0.4
		c0.6,0.1,1.1,0.2,1.7,0.3c0.5,0.1,1,0.1,1.3,0.1c0.7,0,1.2-0.1,1.7-0.3c0.5-0.2,0.9-0.7,1.2-1.4c0.4-0.8,0.7-1.7,0.9-2.9
		c0.2-1.2,0.4-2.5,0.5-3.9c0.1-1.4,0.2-2.7,0.2-4c0-1.1-0.1-1.8-0.4-2.4c-0.3-0.5-0.7-0.8-1.3-1c-0.6-0.2-1.3-0.3-2.1-0.3
		c-0.6,0-1.4,0-2.4,0.1c-1,0.1-2.1,0.2-3.3,0.3c-1.2,0.1-2.2,0.2-3.2,0.4c-1,0.1-1.8,0.2-2.3,0.3c-0.5,0.1-1.2,0.2-2,0.3
		c-0.8,0.1-1.5,0.2-2,0.3L115.7,10.2z M87.1,9.6l3.9,1.1v16.7h-3.9V9.6z M10.7,10.8h4.2v18.4c0,0.9,0.1,1.5,0.4,1.7
		c0.3,0.3,0.9,0.4,1.8,0.4c0.2,0,0.6,0,1.1,0c0.5,0,1.1,0,1.7,0c0.6,0,1.2,0,1.7,0c0.5,0,0.9,0,1.2,0c0.7,0,1.2-0.2,1.5-0.6
		c0.3-0.4,0.6-1.1,0.7-2.2c0.2-1.1,0.3-2.6,0.4-4.7c0.5,0.4,1.1,0.7,1.8,1c0.7,0.3,1.4,0.6,2,0.7c-0.2,2.4-0.4,4.2-0.8,5.6
		c-0.4,1.4-1,2.3-1.8,2.9c-0.8,0.6-2,0.9-3.5,0.9c-0.2,0-0.5,0-1,0c-0.4,0-0.9,0-1.5,0c-0.6,0-1.1,0-1.7,0c-0.5,0-1,0-1.5,0
		c-0.4,0-0.7,0-0.9,0c-1.5,0-2.7-0.2-3.6-0.5c-0.9-0.4-1.5-1-1.8-1.8c-0.3-0.8-0.5-2-0.5-3.5V10.8z M98,11h4c0,2.7,0.2,5.2,0.4,7.6
		c0.3,2.4,0.6,4.5,1.1,6.3c0.5,1.8,1.1,3.2,1.7,4.3c0.7,1,1.4,1.5,2.1,1.5c0.4,0,0.7-0.4,0.9-1.2c0.2-0.8,0.3-2.1,0.4-3.8
		c0.4,0.4,1,0.7,1.6,1.1s1.2,0.6,1.7,0.8c-0.2,1.8-0.5,3.3-0.8,4.3c-0.4,1-0.9,1.7-1.5,2.1c-0.6,0.4-1.4,0.6-2.4,0.6
		c-1.2,0-2.3-0.4-3.3-1.2c-1-0.8-1.8-1.9-2.5-3.4c-0.7-1.4-1.3-3.2-1.8-5.1c-0.5-2-0.8-4.1-1.1-6.5C98.2,16,98.1,13.6,98,11z M26,14
		l3.7-1.8c1.1,1.4,2.1,2.9,3.1,4.6c1,1.6,1.8,3.3,2.5,4.9s1.2,3.1,1.5,4.4l-4.1,2c-0.3-1.3-0.7-2.8-1.3-4.4c-0.6-1.6-1.4-3.3-2.3-5
		C28,17,27,15.4,26,14z M4,13.6l4,0.8c-0.2,1.7-0.4,3.5-0.8,5.3c-0.3,1.8-0.8,3.6-1.3,5.2c-0.5,1.6-1.2,3.1-2.1,4.3L0,27.1
		c0.8-1.1,1.5-2.4,2-3.8c0.5-1.4,0.9-3,1.3-4.6C3.6,17,3.8,15.3,4,13.6z M89.1,16.8h22.3v3.6H89.1V16.8z M83.9,26.2
		c1.3-0.1,2.7-0.3,4.3-0.4c1.6-0.2,3.3-0.3,5.1-0.6c1.8-0.2,3.6-0.4,5.4-0.6l0.1,3.5c-1.7,0.2-3.4,0.4-5.1,0.6
		c-1.7,0.2-3.4,0.4-5,0.6c-1.6,0.2-3.1,0.4-4.4,0.5L83.9,26.2z M84.4,31.3h16.5v3.5H84.4V31.3z"/>
</g>
</svg>
