<?xml version="1.0" encoding="utf-8"?>
<!-- Generator: Adobe Illustrator 27.9.1, SVG Export Plug-In . SVG Version: 6.00 Build 0)  -->
<svg version="1.1" id="Layer_1" xmlns="http://www.w3.org/2000/svg" xmlns:xlink="http://www.w3.org/1999/xlink" x="0px" y="0px"
	 viewBox="0 0 183.9 35.6" style="enable-background:new 0 0 183.9 35.6;" xml:space="preserve">
<style type="text/css">
	.st0{fill:#282828;}
</style>
<path class="st0" d="M164,0h4.3v7.5c0,1.7-0.1,3.6-0.2,5.5c-0.2,1.9-0.5,3.9-1,5.9c-0.5,2-1.3,4-2.3,6c-1,2-2.4,3.9-4.1,5.7
	c-1.7,1.8-3.9,3.5-6.5,5c-0.2-0.4-0.5-0.7-0.9-1.2s-0.8-0.8-1.2-1.2c-0.4-0.4-0.8-0.7-1.1-0.9c2.4-1.3,4.4-2.8,6-4.4
	c1.6-1.6,2.9-3.3,3.8-5c0.9-1.7,1.7-3.5,2.1-5.3c0.5-1.8,0.8-3.5,0.9-5.2c0.2-1.7,0.2-3.3,0.2-4.8V0z M29.4,0.1l3,2.8
	c-1.4,0.4-2.9,0.7-4.5,0.9c-1.6,0.3-3.4,0.5-5.1,0.7c-1.8,0.2-3.5,0.4-5.3,0.5c-1.8,0.1-3.5,0.2-5.2,0.3c-0.1-0.4-0.2-0.9-0.4-1.5
	c-0.2-0.6-0.4-1.1-0.6-1.4c1.6-0.1,3.3-0.2,5-0.4c1.7-0.2,3.3-0.3,4.9-0.5c1.6-0.2,3.1-0.4,4.5-0.6C27.1,0.7,28.3,0.4,29.4,0.1z
	 M54.6,5.2c-0.2-0.4-0.3-0.9-0.5-1.6s-0.4-1.2-0.6-1.8l4.6-0.5c0.2,0.9,0.4,1.8,0.6,2.8c0.2,1,0.5,1.9,0.8,2.8
	c0.3,0.9,0.6,1.8,0.9,2.6c0.6,1.6,1.3,3.2,2.1,4.7c0.8,1.5,1.6,2.8,2.2,3.7c0.3,0.4,0.7,0.8,1,1.2c0.3,0.4,0.6,0.8,1,1.2l-2.1,3
	c-0.5-0.1-1.2-0.2-2-0.3c-0.8-0.1-1.6-0.2-2.6-0.3c-0.9-0.1-1.8-0.2-2.8-0.3c-0.9-0.1-1.8-0.2-2.6-0.2l0.3-3.6
	c0.7,0.1,1.4,0.1,2.1,0.2c0.7,0.1,1.4,0.1,2.1,0.2c0.7,0.1,1.2,0.1,1.6,0.1c-0.5-0.8-1-1.6-1.5-2.6c-0.5-1-1.1-2-1.6-3.1
	c-0.5-1.1-0.9-2.1-1.3-3.2c-0.4-1.1-0.8-2-1-2.9C55.1,6.5,54.8,5.8,54.6,5.2z M7.8,1.6h0.7L9,1.4l2.7,1.5C11.4,4,11,5.2,10.6,6.4
	C10.2,7.6,9.8,8.8,9.4,10c-0.4,1.2-0.8,2.3-1.2,3.2c1.2,1.5,2,2.9,2.4,4.2c0.4,1.3,0.6,2.5,0.6,3.7c0,1.1-0.1,2.1-0.4,2.9
	c-0.3,0.8-0.7,1.4-1.3,1.8c-0.3,0.2-0.6,0.4-1,0.5c-0.4,0.1-0.7,0.2-1.1,0.3c-0.7,0.1-1.5,0.1-2.5,0.1c0-0.5-0.1-1.1-0.2-1.7
	c-0.1-0.7-0.3-1.3-0.6-1.7c0.4,0,0.7,0,1,0s0.6,0,0.8,0c0.5,0,0.8-0.1,1.1-0.3c0.3-0.2,0.4-0.5,0.5-0.9c0.1-0.4,0.2-0.9,0.2-1.4
	c0-0.9-0.2-2-0.6-3.2c-0.4-1.2-1.2-2.4-2.3-3.8c0.3-0.9,0.6-1.8,0.9-2.8c0.3-1,0.6-2,0.9-3c0.3-1,0.5-2,0.7-2.9
	c0.2-0.9,0.4-1.6,0.6-2.2V1.6z M128.9,1.9c-0.1,0.5-0.3,1.1-0.4,1.8c-0.2,0.7-0.3,1.2-0.3,1.7c-0.2,0.9-0.4,1.9-0.6,3.2
	c-0.3,1.2-0.5,2.5-0.9,3.9c-0.3,1.4-0.6,2.7-1,4c-0.3,1.3-0.7,2.8-1.2,4.4c-0.5,1.6-1,3.2-1.5,4.8c-0.5,1.6-1.1,3.1-1.7,4.6
	c-0.6,1.5-1.1,2.7-1.6,3.9l-4.8-1.6c0.6-1,1.2-2.1,1.8-3.5c0.6-1.4,1.2-2.9,1.8-4.5c0.6-1.6,1.1-3.2,1.7-4.7c0.5-1.6,0.9-3,1.3-4.3
	c0.3-0.9,0.5-1.8,0.7-2.8c0.2-1,0.4-1.9,0.6-2.8c0.2-0.9,0.4-1.7,0.5-2.5c0.1-0.8,0.2-1.5,0.3-2c0.1-0.7,0.1-1.3,0.2-2
	c0-0.7,0-1.2,0-1.7L128.9,1.9z M83.8,4.7c0-0.5,0-1,0-1.6c0-0.5-0.1-1.1-0.2-1.7l5,0.2c-0.1,0.6-0.3,1.4-0.4,2.5
	c-0.2,1.1-0.3,2.4-0.5,3.8c-0.2,1.4-0.3,2.9-0.4,4.5c-0.1,1.6-0.3,3.1-0.3,4.7c-0.1,1.6-0.1,3-0.1,4.4c0,1.1,0,2.1,0,3.2
	c0,1.1,0,2.1,0.1,3.2c0,1.1,0.1,2.2,0.1,3.3c0,0.3,0.1,0.8,0.1,1.3c0.1,0.5,0.1,1,0.2,1.4h-4.7c0.1-0.4,0.1-0.9,0.1-1.4
	c0-0.5,0-0.9,0-1.2c0-1.2,0-2.3,0.1-3.4c0-1,0-2.1,0.1-3.2c0-1.1,0.1-2.5,0.1-4c0-0.6,0.1-1.3,0.1-2.3c0.1-0.9,0.1-1.9,0.2-3
	c0.1-1.1,0.1-2.2,0.2-3.4c0.1-1.1,0.2-2.2,0.2-3.2c0.1-1,0.1-1.9,0.2-2.6C83.7,5.5,83.8,5,83.8,4.7z M0,1.6h9v3.6H3.6v30.2H0V1.6z
	 M29.2,4.2l3.6,1.5c-0.7,1.1-1.4,2.2-2.1,3.3c-0.7,1.1-1.4,2.1-2,2.9l-2.9-1.3c0.4-0.6,0.8-1.3,1.2-2c0.4-0.7,0.8-1.5,1.2-2.3
	C28.7,5.6,29,4.9,29.2,4.2z M19.3,6l3.2-1.1c0.5,0.7,0.9,1.6,1.2,2.5c0.4,0.9,0.6,1.7,0.8,2.4l-3.3,1.3c-0.1-0.7-0.4-1.5-0.7-2.5
	C20.1,7.7,19.7,6.8,19.3,6z M40.8,7.3c2.3,0.3,4.5,0.5,6.5,0.6c2,0.1,4,0.1,5.8,0.1c1.8-0.1,3.4-0.2,4.9-0.3
	c1.1-0.1,2.2-0.3,3.3-0.5c1.1-0.2,2.2-0.4,3.3-0.7c1.1-0.3,2.1-0.5,3.1-0.8l0.5,4.3c-0.9,0.3-1.8,0.5-2.8,0.7c-1,0.2-2,0.4-3.1,0.6
	c-1,0.2-2.1,0.3-3.1,0.4C56.8,11.8,54,12,51,12c-3,0-6.4-0.1-10.2-0.4L40.8,7.3z M12.4,6.9l3-1.3c0.6,0.7,1.1,1.5,1.5,2.4
	c0.5,0.9,0.8,1.7,1,2.3l-3.3,1.5c-0.2-0.7-0.4-1.5-0.9-2.4C13.3,8.4,12.9,7.6,12.4,6.9z M119.5,7.8c1.5,0,3.1-0.1,4.8-0.2
	c1.7-0.1,3.3-0.4,5.1-0.6c1.7-0.3,3.4-0.6,5-1v4.3c-1.6,0.4-3.2,0.7-5,0.9c-1.8,0.3-3.5,0.5-5.2,0.6c-1.7,0.1-3.3,0.2-4.7,0.2
	c-0.9,0-1.7,0-2.4-0.1c-0.7,0-1.4-0.1-2.1-0.1l-0.1-4.2c1,0.1,1.8,0.2,2.5,0.2C118,7.7,118.8,7.8,119.5,7.8z M110.2,29.9
	c-0.9,0.9-2,1.6-3.1,2.1c-1.2,0.5-2.5,0.8-4,0.8c-1.4,0-2.5-0.5-3.3-1.4c-0.8-0.9-1.3-2.3-1.3-4.1c0-1,0.1-2.2,0.2-3.3
	c0.1-1.2,0.3-2.4,0.5-3.6c0.2-1.2,0.3-2.4,0.5-3.5c0.1-1.1,0.2-2.1,0.2-3c0-1-0.2-1.7-0.7-2.2c-0.5-0.5-1.1-0.7-2-0.7
	c-0.9,0-1.9,0.3-3,0.9c-1.1,0.6-2.2,1.4-3.3,2.3c-1.1,0.9-2.2,2-3.3,3c-1.1,1.1-2,2.1-2.8,3.1v-5.2c0.5-0.5,1.1-1.1,1.8-1.8
	c0.7-0.7,1.6-1.4,2.5-2.1c0.9-0.7,1.9-1.4,3-2.1c1.1-0.6,2.1-1.2,3.2-1.6C96.4,7.2,97.4,7,98.4,7c1.3,0,2.4,0.2,3.2,0.7
	c0.8,0.5,1.5,1.1,1.9,1.9c0.4,0.8,0.6,1.8,0.6,2.8c0,1-0.1,2-0.2,3.2c-0.1,1.2-0.3,2.4-0.5,3.6c-0.2,1.2-0.3,2.4-0.5,3.6
	c-0.1,1.2-0.2,2.2-0.2,3.2c0,0.5,0.1,1,0.4,1.3c0.3,0.4,0.7,0.6,1.2,0.6c0.8,0,1.6-0.2,2.5-0.7c0.9-0.5,1.8-1.2,2.7-2.1L110.2,29.9z
	 M84.2,11.7c-0.4,0.1-0.9,0.1-1.5,0.2c-0.6,0.1-1.3,0.2-2.1,0.3c-0.7,0.1-1.5,0.2-2.2,0.3c-0.8,0.1-1.5,0.2-2.1,0.3l-0.5-4.4
	c0.5,0,1,0,1.5,0c0.5,0,1,0,1.6-0.1c0.6,0,1.3-0.1,2.1-0.2c0.8-0.1,1.7-0.2,2.5-0.3s1.7-0.2,2.5-0.4c0.8-0.2,1.3-0.3,1.7-0.5
	l1.4,1.8c-0.2,0.3-0.5,0.7-0.8,1.1c-0.3,0.5-0.6,0.9-0.9,1.4c-0.3,0.5-0.6,0.9-0.8,1.2l-1.9,6.6c-0.4,0.6-1,1.4-1.6,2.3
	c-0.6,0.9-1.2,1.8-1.9,2.8c-0.7,1-1.3,2-2,2.9c-0.7,1-1.3,1.8-1.8,2.5l-2.7-3.8c0.5-0.6,1-1.3,1.7-2.1c0.6-0.8,1.3-1.7,2-2.6
	c0.7-0.9,1.4-1.8,2-2.8c0.7-0.9,1.3-1.8,1.8-2.6c0.6-0.8,1-1.5,1.4-2.1l0.1-1.3L84.2,11.7z M179.7,7.9h4.2c0,0.5,0,1,0,1.3
	c0,0.3,0,0.6-0.1,0.8c-0.2,3.8-0.4,7.1-0.6,9.8c-0.2,2.7-0.4,5-0.7,6.7c-0.3,1.8-0.5,3.2-0.9,4.2c-0.3,1-0.7,1.8-1.1,2.3
	c-0.5,0.7-1.1,1.2-1.7,1.4c-0.6,0.3-1.3,0.4-2.1,0.5c-0.7,0.1-1.6,0.1-2.7,0.1c-1.1,0-2.2,0-3.4-0.1c0-0.6-0.2-1.3-0.4-2.1
	s-0.6-1.5-1-2.1c1.2,0.1,2.4,0.2,3.4,0.2c1.1,0,1.8,0,2.3,0c0.4,0,0.7,0,1-0.1c0.3-0.1,0.5-0.2,0.7-0.5c0.3-0.3,0.6-1,0.9-1.9
	c0.3-1,0.5-2.3,0.8-4c0.2-1.7,0.4-3.9,0.6-6.4c0.2-2.6,0.4-5.7,0.6-9.2V7.9z M152.1,7.9h29.3v4.2h-29.3V7.9z M12.2,11.6h19.6v12.1
	H12.2v-2.9H28v-6.3H12.2V11.6z M131.5,13.4c1.1-0.1,2.2-0.2,3.5-0.2c1.3-0.1,2.5-0.1,3.7-0.1c1.1,0,2.2,0,3.3,0.1
	c1.1,0,2.2,0.1,3.3,0.2l-0.1,4.1c-1-0.1-2-0.2-3.1-0.3c-1.1-0.1-2.2-0.1-3.4-0.1c-1.3,0-2.5,0-3.7,0.1c-1.2,0.1-2.4,0.2-3.6,0.3
	V13.4z M13.1,16.2H30V19H13.1V16.2z M47.9,20c-0.6,0.9-1.1,1.8-1.4,2.6c-0.3,0.8-0.5,1.7-0.5,2.6c0,1.6,0.7,2.8,2.1,3.6
	c1.4,0.7,3.5,1.1,6.2,1.2c2,0,3.9-0.1,5.5-0.2c1.7-0.2,3.2-0.4,4.5-0.7l-0.2,4.3c-1.1,0.2-2.5,0.4-4.2,0.6c-1.7,0.2-3.7,0.3-5.9,0.3
	c-2.5,0-4.7-0.4-6.6-1c-1.9-0.6-3.3-1.6-4.3-2.8c-1-1.2-1.5-2.7-1.5-4.5c0-1.1,0.2-2.2,0.5-3.3c0.3-1.1,0.8-2.3,1.5-3.5L47.9,20z
	 M133.2,22.9c-0.2,0.6-0.3,1.1-0.4,1.7c-0.1,0.6-0.2,1.1-0.2,1.5c0,0.4,0.1,0.8,0.2,1.2c0.2,0.4,0.4,0.7,0.9,1
	c0.4,0.3,1,0.5,1.7,0.7c0.7,0.2,1.6,0.2,2.8,0.2c1.3,0,2.5-0.1,3.8-0.2c1.3-0.1,2.6-0.3,3.9-0.6l-0.2,4.4c-1.1,0.1-2.2,0.2-3.5,0.4
	c-1.3,0.1-2.6,0.2-4.1,0.2c-3.1,0-5.5-0.5-7.2-1.5c-1.7-1-2.5-2.5-2.5-4.4c0-0.8,0.1-1.7,0.2-2.5c0.1-0.8,0.3-1.6,0.4-2.4
	L133.2,22.9z M17.4,25l2.4-2.3c0.7,0.3,1.4,0.6,2.1,1c0.7,0.4,1.4,0.8,2.1,1.2c0.6,0.4,1.2,0.8,1.6,1.2l-2.5,2.5
	c-0.4-0.4-0.9-0.8-1.5-1.2c-0.6-0.4-1.3-0.8-2-1.3C18.8,25.7,18.1,25.3,17.4,25z M26.7,26.7l3.2-1.3c0.6,0.7,1.1,1.5,1.7,2.4
	c0.5,0.9,1,1.7,1.4,2.6c0.4,0.8,0.7,1.6,1,2.3l-3.4,1.5c-0.2-0.7-0.5-1.5-0.9-2.3c-0.4-0.8-0.9-1.7-1.4-2.6
	C27.8,28.3,27.3,27.4,26.7,26.7z M12,26.1l3.1,1.4c-0.3,0.8-0.6,1.6-0.9,2.4c-0.4,0.8-0.7,1.7-1.1,2.5c-0.4,0.8-0.9,1.5-1.4,2.1
	l-3-2c0.5-0.5,0.9-1.2,1.3-1.9c0.4-0.7,0.8-1.5,1.2-2.3C11.5,27.5,11.7,26.8,12,26.1z M15.8,26.3h3.5v4.4c0,0.4,0.1,0.7,0.2,0.8
	c0.2,0.1,0.5,0.2,1,0.2c0.1,0,0.3,0,0.6,0c0.3,0,0.6,0,1,0c0.4,0,0.7,0,1,0c0.3,0,0.6,0,0.7,0c0.3,0,0.5-0.1,0.7-0.2
	c0.2-0.1,0.3-0.4,0.3-0.7c0.1-0.4,0.1-1,0.2-1.7c0.4,0.3,0.9,0.5,1.5,0.8c0.6,0.3,1.2,0.5,1.7,0.6c-0.1,1.2-0.3,2.2-0.6,2.9
	c-0.3,0.7-0.7,1.1-1.2,1.4c-0.5,0.3-1.2,0.4-2.1,0.4c-0.2,0-0.5,0-0.9,0c-0.4,0-0.8,0-1.3,0c-0.4,0-0.9,0-1.3,0c-0.4,0-0.7,0-0.9,0
	c-1.2,0-2.1-0.1-2.7-0.4c-0.6-0.3-1-0.7-1.3-1.3c-0.2-0.6-0.3-1.5-0.3-2.5V26.3z"/>
</svg>
