<?xml version="1.0" encoding="utf-8"?>
<!-- Generator: Adobe Illustrator 27.9.1, SVG Export Plug-In . SVG Version: 6.00 Build 0)  -->
<svg version="1.1" id="Layer_1" xmlns="http://www.w3.org/2000/svg" xmlns:xlink="http://www.w3.org/1999/xlink" x="0px" y="0px"
	 viewBox="0 0 147.3 35.6" style="enable-background:new 0 0 147.3 35.6;" xml:space="preserve">
<style type="text/css">
	.st0{fill:#282828;}
</style>
<g>
	<path class="st0" d="M83.6,0l3.8,1.2c-0.8,2.1-1.7,4.3-2.8,6.4c-1.1,2.1-2.2,4.2-3.5,6.1c-1.2,1.9-2.5,3.6-3.9,5.1
		c-0.1-0.4-0.3-0.8-0.6-1.3c-0.3-0.5-0.5-1.1-0.8-1.6c-0.3-0.5-0.6-1-0.8-1.3c1.1-1.2,2.2-2.6,3.3-4.1c1.1-1.5,2-3.2,2.9-5
		C82.2,3.6,82.9,1.8,83.6,0z M96.1,0.3h4.1v35h-4.1V0.3z M3,1.3h28.2v3.1H3V1.3z M143.2,1.4h4.1v29c0,1.1-0.1,2-0.4,2.7
		c-0.3,0.7-0.8,1.2-1.5,1.5c-0.7,0.3-1.7,0.5-2.8,0.6c-1.1,0.1-2.5,0.1-4.1,0.1c-0.1-0.4-0.1-0.9-0.3-1.3c-0.1-0.5-0.3-1-0.5-1.5
		c-0.2-0.5-0.4-1-0.6-1.3c0.7,0.1,1.4,0.1,2.1,0.1s1.3,0,1.8,0c0.5,0,0.9,0,1.2,0c0.4,0,0.6-0.1,0.7-0.2c0.1-0.1,0.2-0.4,0.2-0.7
		V1.4z M145.3,1.4v3h-8.9v7.7h8.9v3h-12.8V1.4H145.3z M117.6,1.4h12V15h-12v-3h8.2V4.4h-8.2V1.4z M115.3,1.4h4.1v34h-4.1V1.4z
		 M15,2.5h4v16.2h-4V2.5z M58.4,6c-0.3,2-0.6,4-1,6.2c-0.4,2.2-0.9,4.4-1.6,6.6c-0.8,2.6-1.6,4.8-2.6,6.6c-1,1.8-2,3.2-3.2,4.2
		c-1.2,1-2.4,1.4-3.7,1.4c-1.3,0-2.5-0.5-3.7-1.4c-1.1-0.9-2.1-2.2-2.8-3.8c-0.7-1.6-1-3.5-1-5.6c0-2.2,0.4-4.2,1.3-6.1
		c0.9-1.9,2.1-3.6,3.7-5.1c1.6-1.5,3.4-2.7,5.5-3.5c2.1-0.8,4.4-1.3,6.8-1.3c2.3,0,4.4,0.4,6.3,1.1C64.2,6,65.8,7,67.1,8.4
		c1.3,1.3,2.3,2.9,3,4.7c0.7,1.8,1.1,3.7,1.1,5.7c0,2.7-0.6,5-1.7,7.1c-1.1,2.1-2.7,3.8-4.8,5.1c-2.1,1.3-4.8,2.2-7.9,2.7l-2.5-4
		c0.7-0.1,1.3-0.2,1.9-0.3c0.6-0.1,1.1-0.2,1.6-0.3c1.2-0.3,2.4-0.7,3.4-1.3c1.1-0.6,2-1.3,2.8-2.2c0.8-0.9,1.4-1.9,1.9-3.1
		c0.5-1.2,0.7-2.5,0.7-3.9c0-1.5-0.2-2.9-0.7-4.2c-0.5-1.3-1.2-2.4-2.1-3.3s-2-1.7-3.3-2.2c-1.3-0.5-2.8-0.8-4.5-0.8
		c-2.1,0-3.9,0.4-5.5,1.1c-1.6,0.7-2.9,1.7-4,2.9c-1.1,1.2-1.9,2.4-2.5,3.8c-0.6,1.4-0.9,2.7-0.9,3.9c0,1.3,0.2,2.5,0.5,3.4
		c0.3,0.9,0.7,1.6,1.2,2c0.5,0.4,1,0.7,1.5,0.7c0.6,0,1.1-0.3,1.7-0.8c0.6-0.6,1.1-1.4,1.7-2.6c0.5-1.2,1.1-2.7,1.7-4.5
		c0.6-1.8,1-3.8,1.4-5.8c0.4-2.1,0.7-4.1,0.9-6.1L58.4,6z M0.6,6.3h33.2v8.5H30V9.3H4.3v5.5H0.6V6.3z M79.8,10.4l3.9-3.9l0,0v28.8
		h-3.9V10.4z M134.9,6.7h9.9v2.8h-9.9V6.7z M117.3,6.7h9.8v2.8h-9.8V6.7z M86.7,7.6h23.2v17.6h-4V11.4H90.5v14.1h-3.9V7.6z
		 M20.6,11.1h7.7v2.6h-7.7V11.1z M5.9,11.1h7.7v2.6H5.9V11.1z M20.6,15.4h8.7v2.6h-8.7V15.4z M5.1,15.4h8.4v2.6H5.1V15.4z
		 M125.5,17.4h12.9v14.4h-12.9v-3h9v-8.3h-9V17.4z M123.9,17.4h3.7v16.3h-3.7V17.4z M88.9,19.4H108v3.8H88.9V19.4z M4.4,19.8H30v3
		H4.4V19.8z M125.8,23.1h10.7v3h-10.7V23.1z M0,24.7h34.4v3.1H0V24.7z M10,25.5l4.9,0.7c-0.8,1.3-1.7,2.5-2.7,3.8
		c-1,1.2-1.9,2.3-2.7,3.2L6,32.2c0.5-0.6,1-1.3,1.5-2.1c0.5-0.8,1-1.6,1.4-2.4C9.3,26.9,9.7,26.1,10,25.5z M20.8,28.7l3.5-1.6
		c1,0.6,2,1.3,3,2.1c1.1,0.8,2.1,1.6,3,2.4c1,0.8,1.8,1.6,2.4,2.2L29,35.6c-0.6-0.7-1.3-1.4-2.2-2.2c-0.9-0.8-1.9-1.6-2.9-2.5
		C22.8,30.1,21.8,29.3,20.8,28.7z M2.2,31.1C4.4,31,6.9,31,9.8,31c2.9,0,6-0.1,9.2-0.2c3.2-0.1,6.5-0.1,9.7-0.2l-0.2,3.2
		c-3.1,0.1-6.3,0.2-9.4,0.3c-3.2,0.1-6.2,0.2-9,0.3c-2.9,0.1-5.4,0.2-7.6,0.2L2.2,31.1z"/>
</g>
</svg>
