<?xml version="1.0" encoding="utf-8"?>
<!-- Generator: Adobe Illustrator 27.9.1, SVG Export Plug-In . SVG Version: 6.00 Build 0)  -->
<svg version="1.1" id="Layer_1" xmlns="http://www.w3.org/2000/svg" xmlns:xlink="http://www.w3.org/1999/xlink" x="0px" y="0px"
	 viewBox="0 0 109.7 35.6" style="enable-background:new 0 0 109.7 35.6;" xml:space="preserve">
<style type="text/css">
	.st0{fill:#282828;}
</style>
<path class="st0" d="M54.6,0l3.9,0.7c-1,1.8-2.3,3.7-3.7,5.5c-1.4,1.8-3.1,3.5-5.1,5.1c-0.3-0.4-0.8-0.8-1.4-1.3
	c-0.6-0.5-1.1-0.8-1.6-1c1.2-0.9,2.3-1.8,3.3-2.8c1-1,1.9-2.1,2.6-3.1C53.5,2,54.1,1,54.6,0z M89.8,0h4.3v7.5c0,1.7-0.1,3.6-0.2,5.5
	c-0.2,1.9-0.5,3.9-1,5.9c-0.5,2-1.3,4-2.3,6c-1,2-2.4,3.9-4.1,5.7c-1.7,1.8-3.9,3.5-6.5,5c-0.2-0.4-0.5-0.7-0.9-1.2
	s-0.8-0.8-1.2-1.2c-0.4-0.4-0.8-0.7-1.1-0.9c2.4-1.3,4.4-2.8,6-4.4c1.6-1.6,2.9-3.3,3.8-5c0.9-1.7,1.7-3.5,2.1-5.3
	c0.5-1.8,0.8-3.5,0.9-5.2c0.2-1.7,0.2-3.3,0.2-4.8V0z M7.4,0h3.9v22.6H7.4V0z M45.2,0.1L49,1.2c-0.7,2.2-1.6,4.4-2.5,6.6
	c-1,2.2-2.1,4.3-3.2,6.3c-1.2,2-2.4,3.7-3.7,5.3c-0.1-0.3-0.3-0.8-0.5-1.3c-0.2-0.6-0.5-1.1-0.8-1.7c-0.3-0.6-0.5-1-0.7-1.4
	c1.1-1.2,2.1-2.6,3-4.2c1-1.6,1.8-3.3,2.6-5.1C44,3.8,44.7,2,45.2,0.1z M18.4,1.9h15.4v20.4H18.4V1.9z M63,2.3h0.9l0.7-0.2L67,3.8
	c-0.7,1.1-1.4,2.3-2.3,3.4c-0.9,1.2-1.7,2.2-2.6,3C61.8,9.9,61.4,9.5,61,9c-0.5-0.5-0.8-0.8-1.2-1.1c0.6-0.7,1.2-1.5,1.8-2.4
	C62.2,4.5,62.7,3.7,63,3V2.3z M55.5,2.3h8.7v3h-11L55.5,2.3z M22.1,5.2v2.5h7.7V5.2H22.1z M0.9,5.5h15.9v3.5H0.9V5.5z M42.2,10.2
	L46,6.4l0.1,0.1v28.9h-3.9V10.2z M49.7,7.6h22.7v8.9H49.7V7.6z M7.3,7.7L10,8.6c-0.5,1.5-1.2,3.1-2,4.6c-0.8,1.5-1.7,2.9-2.6,4.2
	c-0.9,1.3-1.9,2.4-2.9,3.3c-0.3-0.5-0.7-1-1.2-1.5c-0.5-0.6-1-1-1.4-1.3c1-0.7,1.9-1.6,2.8-2.7c0.9-1.1,1.8-2.3,2.5-3.6
	C6.1,10.3,6.8,9,7.3,7.7z M105.5,8h4.2c0,0.5,0,1,0,1.3c0,0.3,0,0.6-0.1,0.8c-0.2,3.8-0.4,7.1-0.6,9.8c-0.2,2.7-0.4,5-0.7,6.7
	c-0.3,1.8-0.5,3.2-0.9,4.2c-0.3,1-0.7,1.8-1.1,2.3c-0.5,0.7-1.1,1.2-1.7,1.4c-0.6,0.3-1.3,0.4-2.1,0.5c-0.7,0.1-1.6,0.1-2.7,0.1
	c-1.1,0-2.2,0-3.4-0.1c0-0.6-0.2-1.3-0.4-2.1c-0.3-0.8-0.6-1.5-1-2.1c1.2,0.1,2.4,0.2,3.4,0.2c1.1,0,1.8,0,2.3,0c0.4,0,0.7,0,1-0.1
	c0.3-0.1,0.5-0.2,0.7-0.5c0.3-0.3,0.6-1,0.9-1.9c0.3-1,0.5-2.3,0.8-4c0.2-1.7,0.4-3.9,0.6-6.4c0.2-2.6,0.4-5.7,0.6-9.2V8z M77.9,8
	h29.3v4.2H77.9V8z M58.9,8.8h3.6V15h-3.6V8.8z M53.4,10.4v3.3h15.1v-3.3H53.4z M11,10.4c0.3,0.2,0.8,0.5,1.4,0.9
	c0.6,0.4,1.2,0.8,1.9,1.3c0.7,0.5,1.3,0.9,1.8,1.3c0.6,0.4,1,0.7,1.3,0.9l-2.2,3.3c-0.4-0.4-0.8-0.8-1.4-1.3
	c-0.6-0.5-1.1-1.1-1.7-1.6c-0.6-0.6-1.2-1.1-1.8-1.6c-0.6-0.5-1.1-0.9-1.5-1.2L11,10.4z M22.1,10.8v2.6h7.7v-2.6H22.1z M59.4,14
	l3.1,1.2c-1,1-2.3,2-3.7,2.9c-1.4,0.9-2.9,1.8-4.4,2.5c-1.6,0.8-3.1,1.4-4.5,2c-0.2-0.3-0.4-0.5-0.6-0.9c-0.3-0.3-0.6-0.7-0.8-1
	c-0.3-0.3-0.5-0.6-0.8-0.8c1.5-0.4,2.9-0.9,4.4-1.5c1.5-0.6,2.9-1.3,4.2-2C57.5,15.6,58.5,14.8,59.4,14z M65,14.6
	c0.5,2.3,1.1,4.5,1.9,6.6c0.8,2.1,1.8,3.9,3,5.6c1.2,1.6,2.6,2.9,4.3,3.9c-0.3,0.3-0.6,0.6-0.9,0.9c-0.3,0.4-0.6,0.8-0.9,1.2
	c-0.3,0.4-0.6,0.8-0.8,1.1c-1.8-1.2-3.3-2.7-4.6-4.6c-1.3-1.9-2.4-4-3.2-6.4c-0.9-2.4-1.6-5-2.1-7.7L65,14.6z M22.1,16.4V19h7.7
	v-2.7H22.1z M54.9,18.8l2.7-1.7c1.5,1,2.7,2.2,3.6,3.5c0.9,1.3,1.6,2.6,2.1,3.9c0.4,1.3,0.7,2.6,0.7,3.9c0,1.3-0.2,2.4-0.5,3.3
	c-0.3,1-0.8,1.7-1.5,2.3c-0.6,0.5-1.2,0.9-1.8,1.1s-1.3,0.3-2.1,0.4c-0.4,0-0.8,0-1.3,0c-0.5,0-1-0.1-1.5-0.1c0-0.5-0.1-1-0.2-1.7
	c-0.1-0.6-0.4-1.2-0.7-1.8c0.6,0.1,1.1,0.1,1.6,0.2c0.5,0,0.9,0,1.3,0c0.4,0,0.8,0,1.1-0.1c0.3-0.1,0.6-0.3,0.9-0.6
	c0.4-0.4,0.7-1,0.9-2c0.2-0.9,0.1-2-0.2-3.3c-0.3-1.2-0.8-2.5-1.6-3.8C57.7,21.1,56.5,19.9,54.9,18.8z M70.9,17.3l2.8,2.4
	c-0.9,0.8-2,1.7-3.1,2.5c-1.1,0.8-2.1,1.5-3,2.1l-2.3-2.2c0.6-0.4,1.3-0.8,1.9-1.4c0.7-0.6,1.4-1.1,2-1.7
	C69.9,18.4,70.5,17.8,70.9,17.3z M58.7,19.7l2.3,1.6c-0.9,0.8-2,1.6-3.2,2.5c-1.3,0.8-2.6,1.6-4,2.4c-1.4,0.7-2.7,1.3-4,1.8
	c-0.2-0.4-0.5-0.8-0.8-1.3c-0.4-0.5-0.7-0.9-1.1-1.3c1.2-0.4,2.6-0.9,3.9-1.5c1.4-0.6,2.7-1.3,3.9-2C56.9,21.1,58,20.4,58.7,19.7z
	 M14.5,23.6l2.8-2.2c0.6,0.5,1.2,1.1,1.9,1.7c0.7,0.6,1.3,1.2,1.9,1.8s1.1,1.1,1.5,1.6l-3,2.5c-0.4-0.5-0.8-1-1.4-1.7
	c-0.6-0.6-1.2-1.3-1.8-1.9C15.7,24.8,15.1,24.2,14.5,23.6z M27.5,24.8l3.6-1.6c0.5,0.8,1.1,1.6,1.7,2.5c0.6,0.9,1.2,1.8,1.7,2.7
	c0.6,0.9,1,1.7,1.3,2.3L32,32.6c-0.3-0.7-0.7-1.4-1.2-2.4c-0.5-0.9-1.1-1.8-1.6-2.8C28.6,26.5,28,25.6,27.5,24.8z M60.6,23.6
	l2.5,1.8c-1,1.1-2.3,2.2-3.9,3.3c-1.6,1.1-3.2,2.2-4.9,3.1c-1.7,1-3.4,1.8-5,2.4c-0.3-0.5-0.6-1-1-1.5c-0.4-0.6-0.8-1-1.2-1.4
	c1.2-0.4,2.4-0.8,3.7-1.4c1.3-0.6,2.5-1.2,3.7-1.9c1.2-0.7,2.4-1.4,3.4-2.2C59.1,25.1,59.9,24.4,60.6,23.6z M3.7,23.7l3.6,1.4
	c-0.2,0.9-0.5,1.8-0.9,2.8c-0.3,1-0.7,2-1.1,2.9C5,31.8,4.5,32.6,4,33.4l-3.7-1.8c0.5-0.7,0.9-1.5,1.4-2.4c0.4-0.9,0.8-1.8,1.2-2.8
	C3.2,25.5,3.5,24.6,3.7,23.7z M9.2,24.4h4v5.4c0,0.5,0.2,0.9,0.5,1c0.3,0.1,1,0.2,2.1,0.2c0.2,0,0.6,0,1.2,0c0.6,0,1.2,0,1.9,0
	c0.7,0,1.3,0,2,0s1.1,0,1.4,0c0.6,0,1.1-0.1,1.3-0.3c0.3-0.2,0.5-0.6,0.6-1.2c0.1-0.6,0.2-1.6,0.3-2.9c0.3,0.2,0.6,0.4,1.1,0.6
	c0.4,0.2,0.9,0.4,1.3,0.5c0.5,0.2,0.9,0.3,1.2,0.3c-0.2,1.7-0.4,3.1-0.8,4c-0.4,0.9-0.9,1.6-1.7,2c-0.8,0.4-1.8,0.6-3.2,0.6
	c-0.2,0-0.5,0-1,0c-0.5,0-1,0-1.7,0c-0.6,0-1.2,0-1.8,0s-1.2,0-1.6,0c-0.5,0-0.8,0-1,0c-1.6,0-2.9-0.1-3.8-0.4
	c-0.9-0.3-1.5-0.8-1.9-1.5c-0.4-0.7-0.5-1.7-0.5-2.9V24.4z"/>
</svg>
