<?xml version="1.0" encoding="utf-8"?>
<!-- Generator: Adobe Illustrator 27.9.1, SVG Export Plug-In . SVG Version: 6.00 Build 0)  -->
<svg version="1.1" id="Layer_1" xmlns="http://www.w3.org/2000/svg" xmlns:xlink="http://www.w3.org/1999/xlink" x="0px" y="0px"
	 viewBox="0 0 109.9 35.7" style="enable-background:new 0 0 109.9 35.7;" xml:space="preserve">
<style type="text/css">
	.st0{fill:#282828;}
</style>
<path class="st0" d="M58.9,0h4.2v18.2h-4.2V0z M17.2,0h4.3v4.9h-4.3V0z M90,0.1h4.3v7.5c0,1.7-0.1,3.6-0.2,5.5
	c-0.2,1.9-0.5,3.9-1,5.9c-0.5,2-1.3,4-2.3,6c-1,2-2.4,3.9-4.1,5.7c-1.7,1.8-3.9,3.5-6.5,5c-0.2-0.4-0.5-0.7-0.9-1.2
	s-0.8-0.8-1.2-1.2c-0.4-0.4-0.8-0.7-1.1-0.9c2.4-1.3,4.4-2.8,6-4.4c1.6-1.6,2.9-3.3,3.8-5c0.9-1.7,1.7-3.5,2.1-5.3
	c0.5-1.8,0.8-3.5,0.9-5.2c0.2-1.7,0.2-3.3,0.2-4.8V0.1z M40.5,3.2l2.2-3c0.9,0.3,1.8,0.7,2.7,1.1c0.9,0.4,1.8,0.9,2.6,1.4
	c0.8,0.5,1.5,0.9,2.1,1.4l-2.4,3.3c-0.5-0.5-1.2-0.9-2-1.5c-0.8-0.5-1.7-1-2.6-1.5C42.2,4,41.3,3.5,40.5,3.2z M5.5,2.9h30.1v3.4H5.5
	V2.9z M3.1,2.9h3.8V15c0,1.5-0.1,3.1-0.2,4.9c-0.1,1.8-0.3,3.6-0.5,5.5c-0.3,1.9-0.6,3.7-1.1,5.4c-0.5,1.8-1.2,3.4-2,4.8
	c-0.2-0.3-0.5-0.6-0.9-0.9c-0.4-0.3-0.8-0.7-1.2-1c-0.4-0.3-0.7-0.5-1-0.6c0.7-1.3,1.3-2.7,1.7-4.3c0.4-1.5,0.7-3.1,0.9-4.7
	C2.9,22.5,3,21,3,19.4c0.1-1.6,0.1-3,0.1-4.4V2.9z M50.8,5.7h20.9v3.9H50.8V5.7z M26.5,6.2h3V16h-3V6.2z M13.2,6.2h3V16h-3V6.2z
	 M105.7,8h4.2c0,0.5,0,1,0,1.3c0,0.3,0,0.6-0.1,0.8c-0.2,3.8-0.4,7.1-0.6,9.8c-0.2,2.7-0.4,5-0.7,6.7c-0.3,1.8-0.5,3.2-0.9,4.2
	c-0.3,1-0.7,1.8-1.1,2.3c-0.5,0.7-1.1,1.2-1.7,1.4c-0.6,0.3-1.3,0.4-2.1,0.5c-0.7,0.1-1.6,0.1-2.7,0.1c-1.1,0-2.2,0-3.4-0.1
	c0-0.6-0.2-1.3-0.4-2.1c-0.3-0.8-0.6-1.5-1-2.1c1.2,0.1,2.4,0.2,3.4,0.2c1.1,0,1.8,0,2.3,0c0.4,0,0.7,0,1-0.1
	c0.3-0.1,0.5-0.2,0.7-0.5c0.3-0.3,0.6-1,0.9-1.9c0.3-1,0.5-2.3,0.8-4c0.2-1.7,0.4-3.9,0.6-6.4c0.2-2.6,0.4-5.7,0.6-9.2V8z M78.1,8
	h29.3v4.2H78.1V8z M22,8.1h13.1v2.5H22V8.1z M8.1,8.1h12.8v2.5H8.1V8.1z M26.5,9.3l2.1,0.8c-0.4,0.7-1,1.5-1.7,2.2
	c-0.7,0.7-1.4,1.4-2.2,2.1c-0.8,0.6-1.6,1.1-2.4,1.5c-0.2-0.3-0.5-0.7-0.9-1.2c-0.4-0.5-0.7-0.8-1.1-1.1c0.8-0.3,1.6-0.7,2.3-1.1
	c0.8-0.5,1.5-1,2.1-1.6C25.6,10.5,26.1,9.9,26.5,9.3z M13.2,9.3l2.1,0.8c-0.4,0.7-1,1.5-1.7,2.2c-0.7,0.7-1.4,1.4-2.2,2.1
	C10.7,15.1,9.8,15.6,9,16c-0.2-0.3-0.5-0.7-0.9-1.2C7.7,14.4,7.4,14,7,13.8c0.8-0.3,1.6-0.7,2.4-1.1c0.8-0.5,1.5-1,2.2-1.6
	C12.2,10.5,12.8,9.9,13.2,9.3z M29.8,9.7c0.5,0.5,1,1,1.7,1.6c0.7,0.5,1.4,1,2.2,1.4c0.8,0.4,1.5,0.8,2.2,1.1
	c-0.3,0.3-0.7,0.6-1.1,1c-0.4,0.4-0.7,0.8-1,1.2c-0.7-0.4-1.5-0.9-2.3-1.5c-0.8-0.6-1.5-1.2-2.2-1.9c-0.7-0.7-1.3-1.4-1.8-2
	L29.8,9.7z M38.4,13.6l2.1-3.1c0.8,0.3,1.7,0.6,2.7,1c0.9,0.4,1.8,0.8,2.7,1.3c0.8,0.4,1.6,0.9,2.1,1.3l-2.2,3.4
	c-0.5-0.4-1.2-0.9-2-1.3c-0.8-0.5-1.7-0.9-2.6-1.4C40.1,14.3,39.2,13.9,38.4,13.6z M16,10.7c0.2,0.1,0.6,0.3,1,0.5
	c0.5,0.2,1,0.4,1.5,0.7c0.5,0.2,1,0.5,1.4,0.7c0.4,0.2,0.7,0.4,1,0.5l-1.9,2.1c-0.2-0.2-0.5-0.4-0.9-0.7c-0.4-0.3-0.8-0.6-1.3-0.9
	c-0.5-0.3-0.9-0.6-1.4-0.9c-0.4-0.3-0.8-0.5-1.1-0.7L16,10.7z M18.5,14.9l4,0.5c-0.4,0.6-0.8,1.2-1.3,1.8c-0.4,0.6-0.8,1-1.2,1.4
	l-3-0.7c0.3-0.5,0.5-1,0.8-1.6C18.2,15.8,18.4,15.3,18.5,14.9z M48.9,15.4h24.6v3.9H48.9V15.4z M9.5,17.1h23.1v10.1H9.5V17.1z
	 M56.1,18.1l4.5,1.2c-0.6,1.4-1.2,2.9-1.8,4.5c-0.6,1.5-1.3,3-2,4.4c-0.7,1.4-1.3,2.7-1.9,3.8l-3.6-1.2c0.4-0.8,0.9-1.8,1.3-2.8
	c0.5-1.1,0.9-2.1,1.3-3.3c0.4-1.1,0.8-2.3,1.2-3.4C55.5,20.2,55.8,19.1,56.1,18.1z M19.2,18.1h3.6v7.6h-3.6V18.1z M13,19.5v1.7h15.9
	v-1.7H13z M39.5,32.3c0.7-1,1.4-2.1,2.1-3.4c0.8-1.3,1.6-2.7,2.4-4.2c0.8-1.5,1.6-3,2.2-4.4l3.1,2.6c-0.6,1.3-1.3,2.7-2,4.1
	c-0.7,1.4-1.4,2.8-2.2,4.1c-0.7,1.4-1.5,2.7-2.2,3.9L39.5,32.3z M63.7,24.2l3.5-1.9c0.9,1.1,1.9,2.3,2.8,3.6
	c0.9,1.3,1.8,2.6,2.5,3.9c0.8,1.3,1.3,2.5,1.7,3.5l-3.9,2.1c-0.3-1-0.9-2.2-1.6-3.5c-0.7-1.3-1.5-2.7-2.4-4
	C65.5,26.6,64.6,25.3,63.7,24.2z M13,23.1v1.7h15.9v-1.7H13z M27,26l2.6,0.7c-0.3,0.7-0.5,1.3-0.8,2c-0.2,0.7-0.5,1.2-0.7,1.7
	l-2-0.6c0.2-0.6,0.3-1.2,0.5-1.9C26.8,27.1,26.9,26.5,27,26z M20.6,26.6h3.5v4.9c0,0.5,0.1,0.7,0.4,0.9c0.2,0.1,0.8,0.2,1.6,0.2
	c0.2,0,0.5,0,1,0c0.5,0,1,0,1.6,0c0.6,0,1.1,0,1.7,0c0.5,0,0.9,0,1.1,0c0.4,0,0.7-0.1,0.9-0.2c0.2-0.1,0.4-0.3,0.5-0.7
	c0.1-0.4,0.2-0.9,0.2-1.6c0.4,0.2,0.9,0.4,1.4,0.6c0.6,0.2,1.1,0.4,1.6,0.5c-0.1,1.1-0.3,1.9-0.6,2.5c-0.3,0.6-0.7,1-1.3,1.2
	c-0.6,0.2-1.3,0.3-2.3,0.3c-0.2,0-0.5,0-0.9,0c-0.4,0-0.9,0-1.4,0c-0.5,0-1.1,0-1.6,0s-1,0-1.4,0c-0.4,0-0.7,0-0.9,0
	c-1.3,0-2.4-0.1-3.1-0.3c-0.7-0.2-1.2-0.6-1.5-1.2c-0.3-0.6-0.4-1.3-0.4-2.3V26.6z M13.9,26.7h4c-0.3,1.5-0.8,2.8-1.5,3.9
	c-0.7,1.1-1.7,2.1-3.1,2.9c-1.3,0.8-3.2,1.5-5.5,2.1c-0.1-0.3-0.3-0.7-0.5-1.1c-0.3-0.4-0.5-0.8-0.8-1.2C6.2,33,6,32.7,5.7,32.5
	c2-0.4,3.5-0.8,4.6-1.4c1.1-0.5,1.9-1.2,2.5-1.9C13.3,28.5,13.7,27.6,13.9,26.7z M30.1,28l2.2-0.7c0.5,0.5,0.9,1.1,1.3,1.8
	c0.4,0.7,0.7,1.3,0.9,1.8l-2.4,0.8c-0.2-0.6-0.4-1.2-0.8-1.9C30.9,29.2,30.5,28.6,30.1,28z M48.9,29.8c1.7-0.1,3.7-0.2,6-0.3
	c2.3-0.1,4.7-0.2,7.2-0.4s5.1-0.3,7.6-0.4l0,3.7c-2.4,0.2-4.8,0.4-7.2,0.6c-2.4,0.2-4.7,0.4-7,0.5c-2.2,0.2-4.2,0.3-6,0.4L48.9,29.8
	z M24.9,29.4c1.1-0.1,2.2-0.1,3.5-0.1c1.3,0,2.6-0.1,4.1-0.1v1.7c-1.3,0.2-2.6,0.3-3.8,0.4c-1.2,0.1-2.3,0.2-3.4,0.3L24.9,29.4z"/>
</svg>
