<?xml version="1.0" encoding="utf-8"?>
<!-- Generator: Adobe Illustrator 27.9.1, SVG Export Plug-In . SVG Version: 6.00 Build 0)  -->
<svg version="1.1" id="Layer_1" xmlns="http://www.w3.org/2000/svg" xmlns:xlink="http://www.w3.org/1999/xlink" x="0px" y="0px"
	 viewBox="0 0 112.2 35.6" style="enable-background:new 0 0 112.2 35.6;" xml:space="preserve">
<style type="text/css">
	.st0{fill:#282828;}
</style>
<g>
	<path class="st0" d="M56.3,4c-1,1.5-2.4,3-4,4.5c-1.6,1.6-3.4,3.1-5.3,4.5c-1.9,1.4-4,2.7-6.1,3.8c-0.2-0.3-0.4-0.7-0.7-1.1
		c-0.3-0.4-0.6-0.8-0.9-1.2c-0.3-0.4-0.6-0.7-1-1c2.2-1.1,4.3-2.4,6.3-3.9c2-1.5,3.8-3.1,5.4-4.8C51.8,3.2,53.1,1.5,54,0h4.3
		c1,1.4,2.2,2.7,3.4,4.1c1.3,1.3,2.6,2.5,4,3.7c1.4,1.1,2.9,2.1,4.4,3.1c1.5,0.9,3,1.7,4.5,2.3c-0.5,0.5-1,1.1-1.4,1.7
		c-0.5,0.7-0.9,1.3-1.2,1.9c-1.5-0.8-2.9-1.6-4.4-2.6c-1.5-1-2.9-2.1-4.3-3.2c-1.4-1.1-2.7-2.3-3.9-3.5C58.2,6.3,57.2,5.1,56.3,4z
		 M83,0.1l3.7,1.4c-0.7,1.1-1.4,2.2-2.3,3.3c-0.9,1.1-1.8,2.2-2.8,3.2c-1,1-2,1.9-3,2.6c-0.2-0.3-0.4-0.6-0.6-1
		c-0.3-0.4-0.5-0.8-0.8-1.1c-0.3-0.4-0.5-0.7-0.7-0.9c0.8-0.6,1.7-1.4,2.5-2.2c0.8-0.8,1.6-1.7,2.3-2.6C82,1.8,82.5,0.9,83,0.1z
		 M23.8,0.1h3.8v35.5h-3.8V0.1z M7.3,0.1h2.9c0.8,0.6,1.5,1.3,2.4,2.1c0.8,0.8,1.6,1.6,2.3,2.3c0.7,0.8,1.3,1.5,1.8,2.1L14,9.8
		c-0.4-0.6-0.9-1.4-1.6-2.2c-0.7-0.8-1.4-1.7-2.1-2.5C9.5,4.3,8.8,3.5,8,3H7.3V0.1z M6.8,0.1h2.1v0.8h1.2v1C9.3,3.3,8.4,5,7.1,6.8
		c-1.2,1.8-2.8,3.6-4.7,5.3c-0.2-0.3-0.4-0.6-0.7-0.9c-0.3-0.3-0.6-0.7-0.9-1C0.5,9.9,0.3,9.7,0,9.5c1.1-0.9,2.1-1.9,3-3
		c0.9-1.1,1.6-2.2,2.2-3.3C5.8,2.1,6.4,1.1,6.8,0.1z M92.4,0.6h3.8V35h-3.8V0.6z M96.7,2.2l2.7-1.2c0.6,0.8,1.1,1.7,1.7,2.7
		c0.5,1,0.9,1.8,1.2,2.5l-2.8,1.3C99.1,6.9,98.7,6,98.2,5C97.7,4,97.2,3.1,96.7,2.2z M102.6,2.2h9.1v3.6h-9.1V2.2z M15.6,3.6h20.3
		v3.6H15.6V3.6z M83.9,8l3.6,1.2c-0.7,1.6-1.6,3.2-2.6,4.8c-1,1.6-2.1,3.1-3.2,4.5s-2.3,2.7-3.5,3.7c-0.1-0.3-0.3-0.7-0.6-1.2
		c-0.3-0.5-0.6-1-0.9-1.4c-0.3-0.5-0.6-0.8-0.8-1.1c1.5-1.3,3-2.9,4.4-4.8C81.8,12,83,10,83.9,8z M87.1,8.2h14.3V12H87.1V8.2z
		 M3.4,9.4h11.1v3.4H3.4V9.4z M16.5,9.7h18.6v13.5H16.5V9.7z M6.9,10.9h3.5v20.6L6.9,32V10.9z M46.9,11.5H66v3.6H46.9V11.5z
		 M19.9,12.7V15h11.7v-2.4H19.9z M101.6,12.8h10.6v3.6h-10.6V12.8z M80.8,16.1l3.2-3.2l0.5,0.2v22.5h-3.7V16.1z M54.1,13h4.3v19.8
		h-4.3V13z M105.2,13.9h3.9v17.2c0,1-0.1,1.8-0.3,2.4c-0.2,0.6-0.6,1.1-1.3,1.4c-0.6,0.3-1.4,0.5-2.3,0.6c-0.9,0.1-2,0.1-3.3,0.1
		c-0.1-0.6-0.2-1.2-0.4-2c-0.2-0.7-0.5-1.4-0.7-2c0.8,0,1.6,0,2.3,0.1c0.7,0,1.2,0,1.5,0c0.3,0,0.4-0.1,0.5-0.2
		c0.1-0.1,0.1-0.2,0.1-0.5V13.9z M87.6,16l3.3,0.5c-0.1,1.8-0.3,3.5-0.5,5.2c-0.2,1.7-0.5,3.3-0.9,4.8c-0.4,1.5-0.8,2.8-1.3,4
		c-0.2-0.2-0.5-0.4-0.8-0.6c-0.3-0.2-0.7-0.5-1-0.7c-0.4-0.2-0.7-0.4-0.9-0.6c0.5-1,0.9-2.2,1.2-3.6c0.3-1.4,0.5-2.8,0.7-4.4
		C87.4,19.1,87.5,17.5,87.6,16z M97.2,16.6l3-0.6c0.3,1.2,0.5,2.5,0.8,3.9c0.2,1.4,0.5,2.7,0.6,4c0.2,1.3,0.3,2.5,0.4,3.5L98.8,28
		c-0.1-1-0.2-2.2-0.3-3.5c-0.2-1.3-0.4-2.6-0.6-4C97.7,19.1,97.4,17.8,97.2,16.6z M1.5,16.1h13.9v3.5H1.5V16.1z M19.9,17.9v2.3h11.7
		v-2.3H19.9z M42.2,19.3h28.4v3.5H42.2V19.3z M12.6,20.8l3,0.8c-0.3,1.1-0.7,2.2-1,3.4c-0.3,1.2-0.6,2.1-0.9,3l-2.5-0.7
		c0.2-0.6,0.4-1.3,0.5-2c0.2-0.8,0.3-1.5,0.5-2.3C12.4,22.2,12.5,21.5,12.6,20.8z M2.1,21.8l2.6-0.7c0.3,1.1,0.6,2.3,0.9,3.5
		C5.8,25.9,6,27,6.1,27.9l-2.8,0.7c0-0.9-0.2-2-0.4-3.3C2.6,24.1,2.4,22.9,2.1,21.8z M28.8,21.6c0.6,1.2,1.3,2.5,2.2,3.7
		c0.9,1.3,1.8,2.4,2.9,3.5c1,1.1,2,2,3.1,2.7c-0.4,0.4-0.9,0.8-1.5,1.4c-0.5,0.6-1,1.1-1.3,1.6c-1-0.9-2.1-2-3.1-3.3
		c-1-1.3-2-2.7-2.9-4.2c-0.9-1.5-1.6-3-2.2-4.5L28.8,21.6z M22.6,21.6l3,1c-0.7,1.6-1.5,3.2-2.5,4.8c-1,1.5-2.1,2.9-3.3,4.2
		c-1.2,1.2-2.5,2.3-3.8,3.1c-0.2-0.3-0.5-0.7-0.8-1.1c-0.3-0.4-0.6-0.8-1-1.1c-0.3-0.4-0.6-0.7-0.9-0.9c1.3-0.7,2.5-1.5,3.7-2.5
		c1.2-1,2.3-2.2,3.2-3.5C21.2,24.3,22,23,22.6,21.6z M64.3,23l3.9,1.4c-0.7,1.2-1.5,2.3-2.3,3.5c-0.8,1.2-1.6,2.2-2.3,3l-3-1.3
		c0.4-0.6,0.9-1.3,1.3-2.1c0.5-0.8,0.9-1.6,1.3-2.4C63.7,24.5,64,23.7,64.3,23z M44.8,24.4l3.3-1.3c0.5,0.6,1,1.3,1.5,2.1
		c0.5,0.8,0.9,1.6,1.3,2.3c0.4,0.7,0.7,1.4,0.8,2L48.1,31c-0.2-0.6-0.4-1.3-0.7-2.1c-0.3-0.8-0.7-1.6-1.2-2.4
		C45.7,25.8,45.3,25,44.8,24.4z M1.1,30.9c1.3-0.2,2.7-0.4,4.3-0.7c1.6-0.3,3.3-0.6,5.1-0.9c1.8-0.3,3.6-0.7,5.3-1l0.3,3.4
		c-2.5,0.5-4.9,1.1-7.4,1.6c-2.5,0.5-4.7,1-6.7,1.4L1.1,30.9z M40.3,30.9h32.3v3.5H40.3V30.9z"/>
</g>
</svg>
