<?xml version="1.0" encoding="utf-8"?>
<!-- Generator: Adobe Illustrator 27.9.1, SVG Export Plug-In . SVG Version: 6.00 Build 0)  -->
<svg version="1.1" id="Layer_1" xmlns="http://www.w3.org/2000/svg" xmlns:xlink="http://www.w3.org/1999/xlink" x="0px" y="0px"
	 viewBox="0 0 149.1 35.8" style="enable-background:new 0 0 149.1 35.8;" xml:space="preserve">
<style type="text/css">
	.st0{fill:#282828;}
</style>
<g>
	<path class="st0" d="M24.4,0l4.3,1.1c-0.6,0.9-1.2,1.7-1.8,2.5s-1.2,1.5-1.7,2l-3.7-1.1c0.3-0.4,0.7-0.9,1-1.4
		c0.3-0.5,0.7-1.1,1-1.6C23.9,1,24.2,0.5,24.4,0z M7.1,1.5L10.7,0c0.6,0.7,1.2,1.4,1.8,2.2c0.5,0.8,0.9,1.6,1.2,2.3L9.9,6.2
		C9.7,5.5,9.3,4.7,8.8,3.8C8.3,3,7.7,2.2,7.1,1.5z M117.7,1.5h28.2v3.1h-28.2V1.5z M50.7,2.3c-0.1,0.7-0.2,1.5-0.3,2.4
		c-0.1,0.8-0.1,1.6-0.2,2.4c-0.1,1-0.1,2.3-0.2,3.8c-0.1,1.5-0.1,3.1-0.2,4.8c-0.1,1.7-0.1,3.3-0.1,4.9c0,1.6,0,3,0,4.3
		c0,1.3,0.2,2.3,0.7,3.1c0.5,0.8,1.1,1.3,2,1.7c0.8,0.3,1.8,0.5,2.8,0.5c1.6,0,3.1-0.2,4.4-0.6c1.3-0.4,2.5-1,3.6-1.7
		c1.1-0.7,2-1.6,2.9-2.5c0.9-0.9,1.6-1.9,2.3-2.9l3.1,3.8c-0.6,0.9-1.4,1.8-2.4,2.8c-1,1-2.1,1.9-3.5,2.8c-1.3,0.9-2.9,1.6-4.6,2.1
		c-1.7,0.5-3.7,0.8-5.8,0.8c-2,0-3.7-0.3-5.2-0.9c-1.5-0.6-2.7-1.6-3.5-2.9c-0.8-1.3-1.2-3.1-1.2-5.2c0-1,0-2.2,0-3.6
		c0-1.4,0.1-2.8,0.1-4.2c0-1.4,0.1-2.9,0.1-4.3c0-1.4,0.1-2.7,0.1-3.8c0-1.1,0-2.1,0-2.7c0-0.9,0-1.7-0.1-2.5
		c-0.1-0.8-0.2-1.6-0.3-2.2L50.7,2.3z M129.7,2.7h4v16.2h-4V2.7z M2.4,5h30.9v3.6H2.4V5z M84.3,5.3c-0.1,0.4-0.1,0.9-0.2,1.4
		C84.1,7.3,84,7.8,84,8.4s-0.1,1-0.1,1.3c0,0.8,0,1.7,0,2.6c0,0.9,0,1.9,0.1,2.8c0,1,0.1,1.9,0.2,2.9c0.2,1.9,0.5,3.6,0.8,5
		s0.9,2.6,1.4,3.4c0.6,0.8,1.3,1.2,2.1,1.2c0.5,0,0.9-0.2,1.3-0.7c0.4-0.5,0.8-1.1,1.2-1.9c0.4-0.8,0.7-1.6,1-2.5
		c0.3-0.9,0.5-1.7,0.7-2.5l3.4,4.1c-0.8,2.2-1.6,3.9-2.5,5.2c-0.8,1.3-1.7,2.2-2.5,2.8c-0.9,0.6-1.8,0.9-2.7,0.9
		c-1.3,0-2.6-0.5-3.8-1.3c-1.2-0.9-2.2-2.4-3.1-4.4c-0.9-2-1.5-4.7-1.8-8.1c-0.1-1.1-0.2-2.4-0.3-3.6c-0.1-1.3-0.1-2.5-0.1-3.7
		c0-1.2,0-2.1,0-2.9c0-0.5,0-1.1-0.1-1.8c0-0.7-0.1-1.3-0.2-1.9L84.3,5.3z M103.6,6.2c0.7,0.9,1.4,1.9,2.1,3.1
		c0.7,1.2,1.3,2.5,1.8,3.9c0.5,1.4,1,2.8,1.4,4.3c0.4,1.5,0.8,2.9,1,4.3c0.3,1.4,0.4,2.7,0.6,3.9l-4.4,1.7c-0.2-1.6-0.4-3.3-0.7-5.1
		c-0.3-1.8-0.8-3.6-1.3-5.4c-0.6-1.8-1.2-3.5-2-5.1c-0.8-1.6-1.6-3-2.7-4.2L103.6,6.2z M115.3,6.5h33.2V15h-3.8V9.6h-25.8V15h-3.6
		V6.5z M15.7,7.2h4.2v12.3h-4.2V7.2z M4.2,10.8h27.5v3.5H4.2V10.8z M135.3,11.3h7.7v2.6h-7.7V11.3z M120.5,11.3h7.7v2.6h-7.7V11.3z
		 M135.3,15.6h8.7v2.6h-8.7V15.6z M119.7,15.6h8.4v2.6h-8.4V15.6z M0.9,16.6h33.9v3.6H0.9V16.6z M15.3,19.6h4.3
		c-0.2,1.7-0.5,3.3-0.8,4.7c-0.4,1.5-0.9,2.8-1.7,4c-0.7,1.2-1.7,2.2-3,3.2s-2.9,1.7-4.8,2.4c-2,0.7-4.4,1.3-7.2,1.7
		c-0.1-0.4-0.2-0.8-0.5-1.2c-0.2-0.4-0.5-0.9-0.8-1.3c-0.3-0.4-0.6-0.8-0.8-1.1c2.6-0.4,4.8-0.8,6.5-1.3c1.7-0.5,3.2-1.1,4.3-1.8
		c1.1-0.7,2-1.5,2.5-2.4c0.6-0.9,1-1.9,1.3-3C14.9,22.2,15.1,21,15.3,19.6z M119.1,20h25.5v3h-25.5V20z M0.6,22.9h34.6v3.6H0.6V22.9
		z M20.6,24c1.1,2.5,2.9,4.3,5.4,5.6c2.5,1.2,5.8,2,10,2.3c-0.3,0.3-0.6,0.7-0.9,1.1c-0.3,0.4-0.6,0.9-0.9,1.4
		c-0.3,0.5-0.5,0.9-0.6,1.3c-3-0.4-5.6-1-7.7-1.8c-2.2-0.9-4-2.1-5.4-3.6c-1.4-1.5-2.6-3.4-3.6-5.6L20.6,24z M114.7,24.9h34.4V28
		h-34.4V24.9z M124.6,25.7l4.9,0.7c-0.8,1.3-1.7,2.5-2.7,3.8c-1,1.2-1.9,2.3-2.7,3.2l-3.4-0.9c0.5-0.6,1-1.3,1.5-2.1
		c0.5-0.8,1-1.6,1.4-2.4C124,27.1,124.3,26.3,124.6,25.7z M135.5,28.9l3.5-1.6c1,0.6,2,1.3,3,2.1c1.1,0.8,2.1,1.6,3,2.4
		c1,0.8,1.8,1.6,2.4,2.2l-3.8,1.8c-0.6-0.7-1.3-1.4-2.2-2.2c-0.9-0.8-1.9-1.6-2.9-2.5C137.5,30.3,136.5,29.6,135.5,28.9z
		 M116.9,31.3c2.2-0.1,4.7-0.1,7.6-0.1c2.9,0,6-0.1,9.2-0.2c3.2-0.1,6.5-0.1,9.7-0.2l-0.2,3.2c-3.1,0.1-6.3,0.2-9.4,0.3
		c-3.2,0.1-6.2,0.2-9,0.3c-2.9,0.1-5.4,0.2-7.6,0.2L116.9,31.3z"/>
</g>
</svg>
