<?xml version="1.0" encoding="utf-8"?>
<!-- Generator: Adobe Illustrator 27.9.1, SVG Export Plug-In . SVG Version: 6.00 Build 0)  -->
<svg version="1.1" id="Layer_1" xmlns="http://www.w3.org/2000/svg" xmlns:xlink="http://www.w3.org/1999/xlink" x="0px" y="0px"
	 viewBox="0 0 110.6 35.4" style="enable-background:new 0 0 110.6 35.4;" xml:space="preserve">
<style type="text/css">
	.st0{fill:#282828;}
</style>
<path class="st0" d="M20.6,0h4.1v6.4h-4.1V0z M2.1,3.2l2.2-3C5.1,0.6,6,0.9,6.9,1.4c0.9,0.4,1.7,0.9,2.5,1.3
	c0.8,0.5,1.4,0.9,1.9,1.3L8.9,7.4C8.4,7,7.8,6.5,7.1,6C6.3,5.5,5.5,5,4.6,4.5C3.8,4,2.9,3.6,2.1,3.2z M80.9,1.4h25.8v14H80.9V1.4z
	 M47.4,4.8c0-0.5,0-1,0-1.6c0-0.5-0.1-1.1-0.2-1.7l5,0.2c-0.1,0.6-0.3,1.4-0.4,2.5c-0.2,1.1-0.3,2.4-0.5,3.8
	c-0.2,1.4-0.3,2.9-0.4,4.5c-0.1,1.6-0.3,3.1-0.3,4.7c-0.1,1.6-0.1,3-0.1,4.4c0,1.1,0,2.1,0,3.2c0,1.1,0,2.1,0.1,3.2
	c0,1.1,0.1,2.2,0.1,3.3c0,0.3,0.1,0.8,0.1,1.3c0.1,0.5,0.1,1,0.2,1.4h-4.7c0.1-0.4,0.1-0.9,0.1-1.4c0-0.5,0-0.9,0-1.2
	c0-1.2,0-2.3,0.1-3.4c0-1,0-2.1,0.1-3.2c0-1.1,0.1-2.5,0.1-4c0-0.6,0.1-1.3,0.1-2.3c0.1-0.9,0.1-1.9,0.2-3c0.1-1.1,0.1-2.2,0.2-3.4
	c0.1-1.1,0.2-2.2,0.2-3.2c0.1-1,0.1-1.9,0.2-2.6S47.4,5,47.4,4.8z M84.9,4.5v2.4h17.6V4.5H84.9z M11.1,4.7h24.1v3.7H11.1V4.7z
	 M18.6,6.7l4.3,1.3c-0.5,0.9-0.9,1.8-1.5,2.7c-0.5,0.9-1,1.8-1.5,2.7c-0.5,0.8-1,1.6-1.4,2.2l-3.3-1.1c0.4-0.7,0.9-1.5,1.3-2.4
	c0.4-0.9,0.8-1.8,1.2-2.8C18.1,8.3,18.4,7.5,18.6,6.7z M73.9,29.9c-0.9,0.9-2,1.6-3.1,2.1c-1.2,0.5-2.5,0.8-4,0.8
	c-1.4,0-2.5-0.5-3.3-1.4c-0.8-0.9-1.3-2.3-1.3-4.1c0-1,0.1-2.2,0.2-3.3c0.1-1.2,0.3-2.4,0.5-3.6c0.2-1.2,0.3-2.4,0.5-3.5
	c0.1-1.1,0.2-2.1,0.2-3c0-1-0.2-1.7-0.7-2.2c-0.5-0.5-1.1-0.7-2-0.7c-0.9,0-1.9,0.3-3,0.9c-1.1,0.6-2.2,1.4-3.3,2.3
	c-1.1,0.9-2.2,2-3.3,3c-1.1,1.1-2,2.1-2.8,3.1v-5.2c0.5-0.5,1.1-1.1,1.8-1.8c0.7-0.7,1.6-1.4,2.5-2.1c0.9-0.7,1.9-1.4,3-2.1
	C56.9,8.5,57.9,8,59,7.6C60,7.2,61.1,7,62.1,7c1.3,0,2.4,0.2,3.2,0.7c0.8,0.5,1.5,1.1,1.9,1.9c0.4,0.8,0.6,1.8,0.6,2.8
	c0,1-0.1,2-0.2,3.2c-0.1,1.2-0.3,2.4-0.5,3.6c-0.2,1.2-0.3,2.4-0.5,3.6c-0.1,1.2-0.2,2.2-0.2,3.2c0,0.5,0.1,1,0.4,1.3
	c0.3,0.4,0.7,0.6,1.2,0.6c0.8,0,1.6-0.2,2.5-0.7c0.9-0.5,1.8-1.2,2.7-2.1L73.9,29.9z M47.8,11.8c-0.4,0.1-0.9,0.1-1.5,0.2
	c-0.6,0.1-1.3,0.2-2.1,0.3c-0.7,0.1-1.5,0.2-2.2,0.3c-0.8,0.1-1.5,0.2-2.1,0.3l-0.5-4.4c0.5,0,1,0,1.5,0c0.5,0,1,0,1.6-0.1
	c0.6,0,1.3-0.1,2.1-0.2c0.8-0.1,1.7-0.2,2.5-0.3s1.7-0.2,2.5-0.4c0.8-0.2,1.3-0.3,1.7-0.5l1.4,1.8C52.6,9.2,52.3,9.5,52,10
	c-0.3,0.5-0.6,0.9-0.9,1.4c-0.3,0.5-0.6,0.9-0.8,1.2l-1.9,6.6c-0.4,0.6-1,1.4-1.6,2.3c-0.6,0.9-1.2,1.8-1.9,2.8c-0.7,1-1.3,2-2,2.9
	c-0.7,1-1.3,1.8-1.8,2.5L38.5,26c0.5-0.6,1-1.3,1.7-2.1c0.6-0.8,1.3-1.7,2-2.6c0.7-0.9,1.4-1.8,2-2.8c0.7-0.9,1.3-1.8,1.8-2.6
	c0.6-0.8,1-1.5,1.4-2.1l0.1-1.3L47.8,11.8z M25.8,10.5L29,8.9c0.9,0.8,1.7,1.6,2.6,2.6c0.9,1,1.7,1.9,2.4,2.8
	c0.7,0.9,1.3,1.8,1.7,2.6l-3.4,1.9c-0.4-0.8-0.9-1.6-1.6-2.6c-0.7-1-1.5-1.9-2.3-2.9C27.6,12.2,26.7,11.3,25.8,10.5z M84.9,9.8v2.4
	h17.6V9.8H84.9z M0,13.6l2.2-3.1c0.8,0.3,1.7,0.6,2.5,1c0.9,0.4,1.7,0.9,2.5,1.3c0.8,0.5,1.5,0.9,2,1.3l-2.4,3.4
	c-0.5-0.4-1.1-0.9-1.9-1.4c-0.8-0.5-1.6-1-2.5-1.4C1.7,14.3,0.8,13.9,0,13.6z M11.4,13.3c1.7,0,3.6-0.1,5.8-0.1
	c2.2-0.1,4.5-0.1,6.9-0.2c2.4-0.1,4.9-0.2,7.3-0.3l-0.1,3.5c-2.3,0.1-4.7,0.3-7,0.4c-2.3,0.1-4.6,0.2-6.7,0.3
	c-2.1,0.1-4.1,0.2-5.8,0.3L11.4,13.3z M83,15.2l4,1.1c-0.6,1.2-1.2,2.4-2,3.6c-0.8,1.2-1.6,2.3-2.5,3.3c-0.9,1-1.8,2-2.7,2.7
	c-0.3-0.3-0.6-0.5-1-0.9c-0.4-0.3-0.8-0.6-1.3-0.9c-0.4-0.3-0.8-0.6-1.1-0.8c1.3-1,2.6-2.3,3.8-3.7C81.3,18.3,82.3,16.7,83,15.2z
	 M91.8,16.1h4.3v17.3h-4.3V16.1z M27.1,18.3h3.8v12c0,0.7,0.1,1.1,0.2,1.2c0.1,0.1,0.1,0.1,0.2,0.1c0.1,0,0.2,0.1,0.3,0.1
	c0.1,0,0.2,0,0.4,0c0.1,0,0.3,0,0.4,0c0.1,0,0.2,0,0.3,0c0.1,0,0.2-0.1,0.2-0.2c0.1-0.1,0.2-0.4,0.3-1c0.1-0.3,0.1-0.8,0.1-1.4
	c0-0.6,0-1.4,0.1-2.3c0.3,0.3,0.8,0.6,1.3,0.9c0.5,0.3,1,0.5,1.5,0.6c0,0.8-0.1,1.7-0.2,2.5c-0.1,0.9-0.2,1.5-0.3,1.9
	c-0.2,0.8-0.6,1.3-1.2,1.6c-0.2,0.2-0.5,0.3-0.9,0.4c-0.4,0.1-0.7,0.1-1.1,0.1c-0.3,0-0.6,0-1,0c-0.4,0-0.7,0-1,0
	c-0.4,0-0.8-0.1-1.3-0.2c-0.5-0.1-0.8-0.4-1.1-0.7c-0.3-0.3-0.5-0.7-0.7-1.2c-0.1-0.5-0.2-1.4-0.2-2.7V18.3z M14.2,18.3h3.7v3.8
	c0,1.1-0.1,2.2-0.2,3.3c-0.1,1.2-0.4,2.3-0.8,3.5c-0.4,1.2-1,2.3-1.7,3.4c-0.8,1.1-1.8,2.1-3.1,3.1c-0.2-0.3-0.5-0.6-0.8-0.9
	c-0.3-0.3-0.7-0.7-1.1-1c-0.4-0.3-0.7-0.6-1-0.8c1.5-1.1,2.6-2.2,3.3-3.4c0.7-1.2,1.1-2.5,1.3-3.7c0.2-1.3,0.3-2.5,0.3-3.6V18.3z
	 M20.6,18.6h3.6v15.2h-3.6V18.6z M82.7,18.7h25.5v3.4H82.7V18.7z M1.1,32.4c0.6-1,1.3-2.2,2.1-3.5c0.8-1.3,1.6-2.8,2.4-4.3
	c0.8-1.5,1.6-3,2.3-4.5l3.1,2.5c-0.6,1.3-1.3,2.7-2,4.1c-0.7,1.4-1.4,2.8-2.2,4.2c-0.7,1.4-1.5,2.7-2.2,3.9L1.1,32.4z M81.8,24.8
	h24.7V28H81.8V24.8z M77.1,31h33.5v3.5H77.1V31z"/>
</svg>
