<?xml version="1.0" encoding="utf-8"?>
<!-- Generator: Adobe Illustrator 27.9.1, SVG Export Plug-In . SVG Version: 6.00 Build 0)  -->
<svg version="1.1" id="Layer_1" xmlns="http://www.w3.org/2000/svg" xmlns:xlink="http://www.w3.org/1999/xlink" x="0px" y="0px"
	 viewBox="0 0 222 35.6" style="enable-background:new 0 0 222 35.6;" xml:space="preserve">
<style type="text/css">
	.st0{fill:#282828;}
</style>
<g>
	<path class="st0" d="M24.4,0l4.3,1.1c-0.6,0.9-1.2,1.7-1.8,2.5s-1.2,1.5-1.7,2l-3.7-1.1c0.3-0.4,0.7-0.9,1-1.4
		c0.3-0.5,0.7-1.1,1-1.6C23.9,1,24.2,0.5,24.4,0z M7.1,1.5L10.7,0c0.6,0.7,1.2,1.4,1.8,2.2c0.5,0.8,0.9,1.6,1.2,2.3L9.9,6.2
		C9.7,5.5,9.3,4.7,8.8,3.8C8.3,3,7.7,2.2,7.1,1.5z M130.4,0.2l3.9,0.7c-1,1.8-2.3,3.7-3.7,5.5c-1.4,1.8-3.1,3.5-5.1,5.1
		c-0.3-0.4-0.8-0.8-1.4-1.3c-0.6-0.5-1.1-0.8-1.6-1c1.2-0.9,2.3-1.8,3.3-2.8c1-1,1.9-2.1,2.6-3.1C129.3,2.1,130,1.1,130.4,0.2z
		 M83.2,0.2h3.9v22.6h-3.9V0.2z M121.1,0.2l3.8,1.1c-0.7,2.2-1.6,4.4-2.5,6.6c-1,2.2-2.1,4.3-3.2,6.3c-1.2,2-2.4,3.7-3.7,5.3
		c-0.1-0.3-0.3-0.8-0.5-1.3c-0.2-0.6-0.5-1.1-0.8-1.7c-0.3-0.6-0.5-1-0.7-1.4c1.1-1.2,2.1-2.6,3-4.2c1-1.6,1.8-3.3,2.6-5.1
		C119.8,4,120.5,2.1,121.1,0.2z M55.1,1.9c-0.2,0.7-0.4,1.6-0.6,2.7c-0.3,1.1-0.7,2.3-1.2,3.6c-0.4,1-0.9,2-1.5,3.1
		c-0.6,1.1-1.2,2-1.8,2.9c0.4-0.2,0.8-0.4,1.4-0.5c0.5-0.1,1.1-0.2,1.7-0.3c0.6-0.1,1.1-0.1,1.5-0.1c1.6,0,2.9,0.5,3.9,1.3
		c1,0.9,1.6,2.2,1.6,3.9c0,0.5,0,1.1,0,1.9c0,0.7,0,1.5,0,2.3c0,0.8,0,1.6,0.1,2.4c0,0.8,0,1.5,0,2.1h-4.1c0.1-0.5,0.1-1,0.1-1.6
		c0-0.6,0-1.3,0.1-2c0-0.7,0-1.4,0-2c0-0.6,0-1.2,0-1.7c0-1.2-0.3-2-1-2.5c-0.7-0.5-1.4-0.7-2.2-0.7c-1.1,0-2.2,0.3-3.3,0.8
		c-1.1,0.5-2,1.1-2.8,1.9c-0.6,0.6-1.1,1.2-1.7,1.9c-0.6,0.7-1.2,1.4-1.8,2.3l-3.6-2.7c1.7-1.6,3.1-3.1,4.3-4.6s2.2-2.9,3-4.2
		c0.8-1.4,1.5-2.7,2-4c0.4-1,0.7-2.1,0.9-3.2c0.3-1.1,0.4-2.1,0.5-3.1L55.1,1.9z M175.4,1.8c0,0.2-0.1,0.5-0.1,0.9s-0.1,0.8-0.1,1.2
		c0,0.4,0,0.7,0,0.9c0,0.5,0,1.2-0.1,2c0,0.8,0,1.8,0,2.8s0,2.1,0,3.1c0,1,0,2,0,2.9c0,0.9,0,1.7,0,2.3l-4.2-1.6c0-0.4,0-1,0-1.8
		c0-0.8,0-1.7,0-2.6c0-0.9,0-1.9,0-2.8c0-0.9,0-1.8,0-2.5c0-0.8,0-1.3-0.1-1.7c-0.1-0.7-0.1-1.3-0.2-1.9c-0.1-0.6-0.1-1-0.2-1.2
		H175.4z M94.2,2.1h15.4v20.4H94.2V2.1z M138.8,2.5h0.9l0.7-0.2l2.4,1.7c-0.7,1.1-1.4,2.3-2.3,3.4c-0.9,1.2-1.7,2.2-2.6,3
		c-0.3-0.4-0.6-0.8-1.1-1.3c-0.5-0.5-0.8-0.8-1.2-1.1c0.6-0.7,1.2-1.5,1.8-2.4c0.6-0.9,1.1-1.8,1.4-2.5V2.5z M131.4,2.5h8.7v3h-11
		L131.4,2.5z M197.4,3.6c0.5,0.1,1.1,0.1,1.6,0.1c0.6,0,1.1,0.1,1.6,0.1c0.4,0,1,0,1.9,0c0.8,0,1.8-0.1,2.8-0.1c1,0,2.1-0.1,3.1-0.1
		c1.1,0,2-0.1,2.8-0.1c0.8-0.1,1.5-0.1,1.9-0.1c0.7-0.1,1.3-0.1,1.7-0.2c0.4-0.1,0.7-0.1,1-0.2l2.2,3.1c-0.4,0.3-0.8,0.5-1.3,0.8
		c-0.4,0.3-0.8,0.6-1.3,0.9c-0.5,0.4-1.1,0.8-1.9,1.4c-0.7,0.6-1.5,1.2-2.4,1.9c-0.8,0.7-1.7,1.4-2.5,2c-0.8,0.7-1.5,1.3-2.2,1.8
		c0.7-0.2,1.4-0.4,2.1-0.4c0.7-0.1,1.3-0.1,2-0.1c2.1,0,4,0.4,5.7,1.2c1.7,0.8,3,1.9,4,3.3s1.5,3,1.5,4.8c0,2-0.5,3.8-1.5,5.4
		s-2.5,2.9-4.6,3.8s-4.5,1.4-7.5,1.4c-1.7,0-3.3-0.2-4.7-0.7c-1.4-0.5-2.4-1.2-3.2-2.1c-0.8-0.9-1.2-2-1.2-3.2c0-1,0.3-1.9,0.8-2.8
		c0.5-0.9,1.3-1.6,2.3-2.1c1-0.5,2.1-0.8,3.4-0.8c1.7,0,3.2,0.3,4.4,1c1.2,0.7,2.1,1.6,2.7,2.8c0.6,1.2,1,2.4,1,3.8l-4,0.6
		c-0.1-1.4-0.4-2.6-1.2-3.5c-0.7-0.9-1.7-1.4-3-1.4c-0.8,0-1.4,0.2-1.8,0.6c-0.5,0.4-0.7,0.9-0.7,1.4c0,0.8,0.4,1.4,1.2,1.8
		c0.8,0.5,1.8,0.7,3.1,0.7c2.1,0,3.9-0.3,5.4-0.8c1.5-0.5,2.6-1.3,3.4-2.3c0.8-1,1.1-2.2,1.1-3.6c0-1.2-0.4-2.2-1.1-3.1
		c-0.7-0.9-1.7-1.6-2.9-2.1c-1.2-0.5-2.6-0.8-4.1-0.8c-1.5,0-2.9,0.2-4.1,0.6c-1.2,0.4-2.4,0.9-3.5,1.5c-1.1,0.7-2.1,1.5-3.2,2.4
		s-2.1,2-3.2,3.2l-3.1-3.2c0.7-0.6,1.5-1.2,2.4-1.9c0.9-0.7,1.8-1.5,2.7-2.2c0.9-0.8,1.8-1.5,2.6-2.2c0.8-0.7,1.5-1.3,2.1-1.7
		c0.5-0.4,1.2-1,1.9-1.6c0.7-0.6,1.5-1.2,2.3-1.9c0.8-0.7,1.5-1.3,2.2-1.9c0.7-0.6,1.3-1.1,1.7-1.5c-0.4,0-0.9,0-1.6,0.1
		c-0.7,0-1.4,0.1-2.2,0.1c-0.8,0-1.6,0.1-2.4,0.1c-0.8,0-1.5,0.1-2.2,0.1c-0.7,0-1.2,0.1-1.6,0.1c-0.5,0-1,0.1-1.5,0.1
		c-0.5,0-1,0.1-1.4,0.2L197.4,3.6z M41.1,5.6c1,0.1,2.1,0.2,3.3,0.3C45.7,6,46.8,6,47.7,6c1.7,0,3.5,0,5.5-0.1c2-0.1,4-0.2,6-0.4
		c2-0.2,4-0.4,5.8-0.7v4c-1.3,0.2-2.8,0.4-4.3,0.5c-1.5,0.1-3.1,0.3-4.7,0.3c-1.6,0.1-3.1,0.2-4.6,0.2c-1.5,0-2.8,0.1-3.9,0.1
		c-0.5,0-1.2,0-1.9,0c-0.7,0-1.5,0-2.3-0.1c-0.8-0.1-1.5-0.1-2.2-0.1V5.6z M2.4,5h30.9v3.6H2.4V5z M97.9,5.3v2.5h7.7V5.3H97.9z
		 M76.8,5.6h15.9v3.5H76.8V5.6z M154.3,6.7c1.1,0,2.4,0,3.7,0c1.4,0,2.8-0.1,4.4-0.1c1.5,0,3.1-0.1,4.6-0.1c1.5,0,2.9,0,4.3-0.1
		c1.3,0,2.5,0,3.6,0c1,0,2.1,0,3.2,0c1.1,0,2.2,0,3.3,0c1.1,0,2.1,0,2.9,0c0.9,0,1.6,0,2.1,0l0,4c-1.1-0.1-2.7-0.1-4.6-0.1
		c-1.9,0-4.3-0.1-7-0.1c-1.7,0-3.4,0-5.2,0.1s-3.6,0.1-5.3,0.1c-1.8,0.1-3.5,0.1-5.1,0.2c-1.6,0.1-3.2,0.2-4.6,0.3L154.3,6.7z
		 M118,10.3l3.8-3.8l0.1,0.1v28.9H118V10.3z M15.7,7.2h4.2v12.3h-4.2V7.2z M125.5,7.7h22.7v8.9h-22.7V7.7z M83.1,7.9l2.8,0.9
		c-0.5,1.5-1.2,3.1-2,4.6c-0.8,1.5-1.7,2.9-2.6,4.2c-0.9,1.3-1.9,2.4-2.9,3.3c-0.3-0.5-0.7-1-1.2-1.5c-0.5-0.6-1-1-1.4-1.3
		c1-0.7,1.9-1.6,2.8-2.7c0.9-1.1,1.8-2.3,2.5-3.6C82,10.4,82.6,9.2,83.1,7.9z M134.7,8.9h3.6v6.2h-3.6V8.9z M129.2,10.5v3.3h15.1
		v-3.3H129.2z M86.8,10.6c0.3,0.2,0.8,0.5,1.4,0.9c0.6,0.4,1.2,0.8,1.9,1.3c0.7,0.5,1.3,0.9,1.8,1.3c0.6,0.4,1,0.7,1.3,0.9l-2.2,3.3
		c-0.4-0.4-0.8-0.8-1.4-1.3c-0.6-0.5-1.1-1.1-1.7-1.6c-0.6-0.6-1.2-1.1-1.8-1.6c-0.6-0.5-1.1-0.9-1.5-1.2L86.8,10.6z M4.2,10.8h27.5
		v3.5H4.2V10.8z M97.9,10.9v2.6h7.7v-2.6H97.9z M70.9,16c-0.4,0.1-0.8,0.2-1.3,0.4c-0.5,0.2-1,0.4-1.5,0.6c-0.5,0.2-1,0.4-1.4,0.5
		c-1.3,0.5-2.7,1.1-4.4,1.8c-1.7,0.7-3.4,1.5-5.2,2.4c-1.2,0.6-2.2,1.2-3,1.8c-0.8,0.6-1.5,1.2-1.9,1.9c-0.4,0.6-0.7,1.3-0.7,2.1
		c0,0.6,0.1,1.1,0.4,1.4c0.3,0.4,0.6,0.7,1.1,0.9c0.5,0.2,1.1,0.3,1.9,0.4c0.7,0.1,1.6,0.1,2.5,0.1c1.6,0,3.3-0.1,5.3-0.3
		c1.9-0.2,3.7-0.4,5.4-0.7l-0.2,4.4C67,33.8,66,33.9,64.8,34c-1.2,0.1-2.5,0.2-3.8,0.2c-1.3,0.1-2.5,0.1-3.7,0.1
		c-1.9,0-3.7-0.2-5.2-0.6c-1.5-0.4-2.8-1-3.7-1.9C47.5,31,47,29.8,47,28.2c0-1.3,0.3-2.4,0.9-3.4c0.6-1,1.4-2,2.3-2.8
		c1-0.8,2-1.6,3.2-2.3c1.2-0.7,2.3-1.3,3.4-1.9c1.2-0.6,2.3-1.1,3.3-1.6c1-0.4,1.9-0.8,2.8-1.2c0.8-0.4,1.7-0.7,2.5-1.1
		c0.7-0.3,1.3-0.6,2-0.9c0.6-0.3,1.3-0.6,1.9-0.9L70.9,16z M174.7,17.9c0,2-0.3,3.6-0.8,4.9c-0.5,1.3-1.2,2.3-2.2,2.9
		c-0.9,0.7-2.1,1-3.5,1c-0.7,0-1.5-0.1-2.3-0.4c-0.8-0.3-1.5-0.7-2.1-1.3c-0.6-0.6-1.1-1.3-1.5-2.1c-0.4-0.8-0.6-1.8-0.6-2.9
		c0-1.4,0.3-2.6,1-3.6c0.7-1,1.6-1.8,2.7-2.4c1.1-0.6,2.3-0.9,3.6-0.9c1.6,0,3,0.4,4.1,1.1c1.1,0.7,1.9,1.7,2.5,2.9
		c0.6,1.2,0.8,2.6,0.8,4.2c0,1.2-0.2,2.5-0.6,3.9c-0.4,1.3-1,2.6-2,3.9s-2.1,2.4-3.7,3.4c-1.5,1-3.5,1.9-5.8,2.5l-3.6-3.6
		c1.6-0.4,3.2-0.8,4.5-1.4c1.4-0.6,2.6-1.3,3.6-2.1c1-0.8,1.8-1.9,2.4-3.1c0.6-1.2,0.8-2.6,0.8-4.3c0-1.4-0.3-2.4-0.9-3
		c-0.6-0.6-1.4-1-2.3-1c-0.5,0-1,0.1-1.5,0.4c-0.5,0.3-0.9,0.6-1.2,1.1c-0.3,0.5-0.5,1.1-0.5,1.8c0,1,0.3,1.7,1,2.3
		c0.6,0.6,1.4,0.8,2.2,0.8c0.7,0,1.3-0.2,1.8-0.6c0.5-0.4,0.8-1,1-1.9c0.2-0.9,0.1-2.1-0.3-3.5L174.7,17.9z M135.3,14.1l3.1,1.2
		c-1,1-2.3,2-3.7,2.9c-1.4,0.9-2.9,1.8-4.4,2.5c-1.6,0.8-3.1,1.4-4.5,2c-0.2-0.3-0.4-0.5-0.6-0.9c-0.3-0.3-0.6-0.7-0.8-1
		c-0.3-0.3-0.5-0.6-0.8-0.8c1.5-0.4,2.9-0.9,4.4-1.5c1.5-0.6,2.9-1.3,4.2-2C133.3,15.8,134.4,15,135.3,14.1z M140.8,14.8
		c0.5,2.3,1.1,4.5,1.9,6.6c0.8,2.1,1.8,3.9,3,5.6c1.2,1.6,2.6,2.9,4.3,3.9c-0.3,0.3-0.6,0.6-0.9,0.9c-0.3,0.4-0.6,0.8-0.9,1.2
		c-0.3,0.4-0.6,0.8-0.8,1.1c-1.8-1.2-3.3-2.7-4.6-4.6c-1.3-1.9-2.4-4-3.2-6.4c-0.9-2.4-1.6-5-2.1-7.7L140.8,14.8z M97.9,16.5v2.7
		h7.7v-2.7H97.9z M0.9,16.6h33.9v3.6H0.9V16.6z M130.8,19l2.7-1.7c1.5,1,2.7,2.2,3.6,3.5c0.9,1.3,1.6,2.6,2.1,3.9
		c0.4,1.3,0.7,2.6,0.7,3.9c0,1.3-0.2,2.4-0.5,3.3c-0.3,1-0.8,1.7-1.5,2.3c-0.6,0.5-1.2,0.9-1.8,1.1s-1.3,0.3-2.1,0.4
		c-0.4,0-0.8,0-1.3,0c-0.5,0-1-0.1-1.5-0.1c0-0.5-0.1-1-0.2-1.7c-0.1-0.6-0.4-1.2-0.7-1.8c0.6,0.1,1.1,0.1,1.6,0.2
		c0.5,0,0.9,0,1.3,0c0.4,0,0.8,0,1.1-0.1c0.3-0.1,0.6-0.3,0.9-0.6c0.4-0.4,0.7-1,0.9-2c0.2-0.9,0.1-2-0.2-3.3
		c-0.3-1.2-0.8-2.5-1.6-3.8C133.5,21.2,132.3,20,130.8,19z M146.7,17.5l2.8,2.4c-0.9,0.8-2,1.7-3.1,2.5c-1.1,0.8-2.1,1.5-3,2.1
		l-2.3-2.2c0.6-0.4,1.3-0.8,1.9-1.4c0.7-0.6,1.4-1.1,2-1.7C145.7,18.5,146.3,18,146.7,17.5z M15.3,19.6h4.3
		c-0.2,1.7-0.5,3.3-0.8,4.7c-0.4,1.5-0.9,2.8-1.7,4c-0.7,1.2-1.7,2.2-3,3.2s-2.9,1.7-4.8,2.4c-2,0.7-4.4,1.3-7.2,1.7
		c-0.1-0.4-0.2-0.8-0.5-1.2c-0.2-0.4-0.5-0.9-0.8-1.3c-0.3-0.4-0.6-0.8-0.8-1.1c2.6-0.4,4.8-0.8,6.5-1.3c1.7-0.5,3.2-1.1,4.3-1.8
		c1.1-0.7,2-1.5,2.5-2.4c0.6-0.9,1-1.9,1.3-3C14.9,22.2,15.1,21,15.3,19.6z M134.6,19.8l2.3,1.6c-0.9,0.8-2,1.6-3.2,2.5
		c-1.3,0.8-2.6,1.6-4,2.4c-1.4,0.7-2.7,1.3-4,1.8c-0.2-0.4-0.5-0.8-0.8-1.3c-0.4-0.5-0.7-0.9-1.1-1.3c1.2-0.4,2.6-0.9,3.9-1.5
		c1.4-0.6,2.7-1.3,3.9-2C132.8,21.3,133.8,20.5,134.6,19.8z M90.4,23.8l2.8-2.2c0.6,0.5,1.2,1.1,1.9,1.7c0.7,0.6,1.3,1.2,1.9,1.8
		s1.1,1.1,1.5,1.6l-3,2.5c-0.4-0.5-0.8-1-1.4-1.7c-0.6-0.6-1.2-1.3-1.8-1.9C91.6,25,90.9,24.3,90.4,23.8z M0.6,22.9h34.6v3.6H0.6
		V22.9z M103.4,24.9l3.6-1.6c0.5,0.8,1.1,1.6,1.7,2.5c0.6,0.9,1.2,1.8,1.7,2.7c0.6,0.9,1,1.7,1.3,2.3l-3.8,1.9
		c-0.3-0.7-0.7-1.4-1.2-2.4c-0.5-0.9-1.1-1.8-1.6-2.8C104.4,26.7,103.9,25.8,103.4,24.9z M136.5,23.8l2.5,1.8
		c-1,1.1-2.3,2.2-3.9,3.3c-1.6,1.1-3.2,2.2-4.9,3.1c-1.7,1-3.4,1.8-5,2.4c-0.3-0.5-0.6-1-1-1.5c-0.4-0.6-0.8-1-1.2-1.4
		c1.2-0.4,2.4-0.8,3.7-1.4c1.3-0.6,2.5-1.2,3.7-1.9c1.2-0.7,2.4-1.4,3.4-2.2C134.9,25.3,135.8,24.5,136.5,23.8z M79.6,23.9l3.6,1.4
		c-0.2,0.9-0.5,1.8-0.9,2.8c-0.3,1-0.7,2-1.1,2.9c-0.4,0.9-0.8,1.8-1.3,2.5l-3.7-1.8c0.5-0.7,0.9-1.5,1.4-2.4
		c0.4-0.9,0.8-1.8,1.2-2.8C79.1,25.6,79.4,24.7,79.6,23.9z M20.6,24c1.1,2.5,2.9,4.3,5.4,5.6c2.5,1.2,5.8,2,10,2.3
		c-0.3,0.3-0.6,0.7-0.9,1.1c-0.3,0.4-0.6,0.9-0.9,1.4c-0.3,0.5-0.5,0.9-0.6,1.3c-3-0.4-5.6-1-7.7-1.8c-2.2-0.9-4-2.1-5.4-3.6
		c-1.4-1.5-2.6-3.4-3.6-5.6L20.6,24z M85,24.5h4v5.4c0,0.5,0.2,0.9,0.5,1c0.3,0.1,1,0.2,2.1,0.2c0.2,0,0.6,0,1.2,0
		c0.6,0,1.2,0,1.9,0c0.7,0,1.3,0,2,0s1.1,0,1.4,0c0.6,0,1.1-0.1,1.3-0.3c0.3-0.2,0.5-0.6,0.6-1.2c0.1-0.6,0.2-1.6,0.3-2.9
		c0.3,0.2,0.6,0.4,1.1,0.6c0.4,0.2,0.9,0.4,1.3,0.5c0.5,0.2,0.9,0.3,1.2,0.3c-0.2,1.7-0.4,3.1-0.8,4c-0.4,0.9-0.9,1.6-1.7,2
		c-0.8,0.4-1.8,0.6-3.2,0.6c-0.2,0-0.5,0-1,0c-0.5,0-1,0-1.7,0c-0.6,0-1.2,0-1.8,0s-1.2,0-1.6,0c-0.5,0-0.8,0-1,0
		c-1.6,0-2.9-0.1-3.8-0.4c-0.9-0.3-1.5-0.8-1.9-1.5C85.2,32.2,85,31.2,85,30V24.5z"/>
</g>
</svg>
