<?xml version="1.0" encoding="utf-8"?>
<!-- Generator: Adobe Illustrator 27.9.1, SVG Export Plug-In . SVG Version: 6.00 Build 0)  -->
<svg version="1.1" id="intergalactic" xmlns="http://www.w3.org/2000/svg" xmlns:xlink="http://www.w3.org/1999/xlink" x="0px"
	 y="0px" viewBox="0 0 321 154" style="enable-background:new 0 0 321 154;" xml:space="preserve">
<path d="M132.3,114.2c7.8-5.7,15.5-11.3,23.5-17.1c-4.3-4.1-8.4-7.9-12.3-11.6c-5.7,4.9-11.6,10-17.5,15.1c-0.2,0-0.4-0.1-0.6-0.1
	c-2-6.7-4-13.4-6.1-20.3c10.1,0,19.8,0,29.5,0c0-24.6,0-49,0-73.5c-24.2,0-48.3,0-72.5,0c0,41.9,0,83.7,0,125.6
	c-1.9,0.4-3.7,0.8-5.6,1.1c-0.2-3-0.4-5.9-0.5-8.8c0-1-0.4-1.4-1.4-1.2c-5.5,1-11.1,1.9-16.6,2.8c-1.9,0.3-3.8,0.6-5.8,0.9
	c0-14.3,0-28.5,0-42.8c7.5,0,14.9,0,22.3,0c0-5.1,0-10,0-15.2c-7.5,0-14.9,0-22.3,0c0-4.5,0-8.9,0-13.5c6.2,0,12.4,0,18.6,0
	c0-4.3,0.1-8.4,0-12.6c0-1.3,0.4-2.2,1.2-3.1c2.7-3.1,5.4-6.2,8.1-9.3c0.5-0.6,0.6-1,0.1-1.6c-2.7-3.2-5.3-6.6-8.2-9.7
	c-6.3-6.7-12.9-13-20-18.7c-0.5-0.4-1.3-0.7-1.9-0.7C40.1,0,35.9,0.1,31.7,0c-0.9,0-1.3,0.3-1.6,1.1C23.5,15.8,14.2,28.4,2,38.9
	c-0.8,0.7-1.5,1.3-2,1.8c3.6,4,7.2,7.9,10.8,11.8c1-0.8,2.1-1.8,3.5-2.9c0,2.3,0,4.3,0,6.3c5.6,0,11,0,16.5,0c0,4.5,0,8.9,0,13.5
	c-8,0-15.9,0-23.8,0c0,5.1,0,10.1,0,15.2c8,0,15.9,0,23.8,0c0,15.2,0,30.2,0,45.3c-8.8,1.4-17.5,2.8-26.4,4.1
	c1.2,5.4,2.4,10.6,3.6,15.9c19-3.5,37.9-7,56.8-10.4c1.2,4.2,2.4,8.4,3.5,12.6c1.1-0.3,2.1-0.5,3.1-0.7c15.5-3.7,30.9-7.4,46.4-11.2
	c1.9-0.5,1.9-0.5,1.6-2.3c-0.4-2.9-0.7-5.8-1.1-8.7c-0.2-2-0.5-4-0.8-6c-8.2,1.9-16.2,3.7-24.4,5.6c0-16.3,0-32.4,0-48.5
	c3.5,0,7,0,10.4,0c1.1,4.6,2.2,9.1,3.4,13.6c3.1,11.4,7,22.5,12.9,32.8c6.5,11.2,14.9,20.4,26.3,26.8c0.4,0.2,0.9,0.4,1.2,0.6
	c1.8-2.6,3.5-5.2,5.4-7.6c1.9-2.4,3.9-4.7,6-7.1C147.2,133.8,138.7,125.1,132.3,114.2z M23,40.8c6.6-7.6,12.4-15.5,17.6-24.2
	c7.7,7.6,14.6,15.5,20.9,24.2C48.6,40.8,35.9,40.8,23,40.8z M93.2,22.3c12.9,0,25.7,0,38.7,0c0,4.4,0,8.8,0,13.4
	c-12.9,0-25.8,0-38.7,0C93.2,31.2,93.2,26.8,93.2,22.3z M93.2,64.3c0-4.6,0-9.2,0-13.9c12.9,0,25.7,0,38.7,0c0,4.6,0,9.2,0,13.9
	C119,64.3,106.2,64.3,93.2,64.3z M275,46c-17.9,0-35.8,0-53.7,0c0,24.1,0,48,0,71.9c5.3,0,10.6,0,16,0c0-3.7,0-7.3,0-11
	c12.7,0,25.2,0,37.7,0C275,86.5,275,66.3,275,46z M258.6,90.9c-7.1,0-14.1,0-21.3,0c0-9.6,0-19.1,0-28.8c7.1,0,14.2,0,21.3,0
	C258.6,71.6,258.6,81.2,258.6,90.9z M210.1,95.4c-2.8-2.6-5.7-5.1-8.6-7.8c-9.8,17.9-19.6,35.7-31.4,52.3c5,4,9.9,8,15.1,12.1
	c5.2-9,10.4-17.8,15.4-26.6c4.6-8.3,8.9-16.7,13.4-25c0.4-0.7,0.3-1.2-0.3-1.7C212.4,97.5,211.3,96.4,210.1,95.4z M319.3,10
	c-34.7,0-69.3,0-104,0c-0.2,0-0.4,0-0.5,0c-1-0.1-1.4,0.2-1.3,1.3c0.1,2.3,0,4.6,0,6.9c0,0.3-0.1,0.6-0.1,0.7
	c-10.1-5.6-20.1-11.1-30.2-16.6c-3.5,4.4-6.8,8.6-10.1,12.7c10.2,6.2,20.3,12.4,30.5,18.7c3.1-4.1,6.4-8.5,9.6-12.9
	c0.1,0,0.2,0.1,0.3,0.1c0,2.1,0,4.1,0,6.3c25.9,0,51.7,0,77.5,0c0,0.5,0,0.9,0,1.2c0,34,0,67.9,0,101.9c0,3.4-0.9,4.4-4.2,4.9
	c-0.5,0.1-1,0.1-1.5,0.1c-10.1-0.2-20.3-0.3-30.4-0.5c-0.4,0-0.7,0-1.2,0.1c0.3,0.6,0.5,1,0.7,1.5c1.9,5.1,4,10.2,5.6,15.4
	c0.5,1.4,0.9,1.8,2.3,1.7c7.6-0.2,15.2-0.3,22.8-0.6c4.4-0.2,8.7-0.9,12.8-2.4c5.2-1.9,8.7-5.2,9.8-10.7c0.5-2.4,0.8-4.9,0.8-7.4
	c0.1-34.5,0-69,0-103.5c0-0.6,0-1.1,0-1.9c4.2,0,8.3,0,12.4,0c0-5.7,0-11.3,0-17.1C320.4,10,319.8,10,319.3,10z M206.2,63.6
	c-0.5-0.3-0.8-0.6-1.2-0.8c-8.9-4.7-17.9-9.4-26.8-14.1c-3-1.6-3.1-1.5-5.1,1.2c-2.6,3.5-5.1,7-7.4,10.3
	c10.3,5.9,20.6,11.8,30.9,17.7C199.6,73.4,202.8,68.6,206.2,63.6z M49.1,118.5c3.3,1,6.8,2.1,10.6,3.3c3.2-9.6,6.3-18.9,9.4-28.4
	c-4.5-1.2-9-2.3-13.4-3.4C53.6,99.5,51.3,108.9,49.1,118.5z M20.4,91.5c-3.9,1-7.7,2-11.6,3c2.8,9.6,5,19.3,5.8,29.4
	c4.2-1.2,8.4-2.3,12.6-3.5C25.8,110.5,23.8,100.8,20.4,91.5z"/>
</svg>
