<?xml version="1.0" encoding="utf-8"?>
<!-- Generator: Adobe Illustrator 27.9.1, SVG Export Plug-In . SVG Version: 6.00 Build 0)  -->
<svg version="1.1" id="intergalactic" xmlns="http://www.w3.org/2000/svg" xmlns:xlink="http://www.w3.org/1999/xlink" x="0px"
	 y="0px" viewBox="0 0 1262.1 163.5" style="enable-background:new 0 0 1262.1 163.5;" xml:space="preserve">
<path d="M320.9,26.6c-0.3-0.2-0.7-0.2-1-0.1c-3.9,1.4-7.9,1.9-11.9,1.9c-14.1,0.1-28.3,0.1-42.4,0.1c-0.2,0-0.4,0-0.9-0.1
	c4-6.9,7.9-13.7,11.9-20.5c-8-2.6-16-5.3-24.1-7.9c-0.1,0.2-0.2,0.3-0.2,0.5c-1.7,6.3-4.5,12.2-7.7,18c-7,12.4-15.3,23.9-25.2,34.2
	c-9.4,9.8-20,18.2-31.6,25.4c-0.3,0.2-0.6,0.4-1,0.7c6,4.4,11.8,8.7,17.6,13.1c0.7,0.5,1.2,0.6,2,0.1c17.5-12,32.4-26.7,45.2-43.5
	c0.5-0.6,0.9-0.9,1.7-0.9c17.6,0,35.2,0,52.8,0c0.4,0,0.7,0,1.2,0c-0.2,1-0.4,1.9-0.7,2.8c-2.3,8.6-5.9,16.6-9.8,24.5
	c-10.3,20.5-25.4,36.8-44.3,49.7c-12.9,8.8-27,15.3-41.8,20c-1.7,0.5-3.4,1.1-5.2,1.7c1.5,1.4,2.9,2.6,4.3,3.9
	c4.9,4.4,9.8,8.7,14.6,13.1c0.4,0.4,0.8,0.5,1.3,0.2c1.1-0.5,2.2-0.9,3.3-1.4c16.1-6.6,31.4-14.6,45.1-25.5
	c10.4-8.3,19.9-17.6,28.1-28.1c10.5-13.6,18.5-28.6,24.7-44.5c2.1-5.3,3.6-10.7,5.6-16c1.4-3.7,3.2-7.3,4.9-11.1c0.1,0.1,0,0,0,0
	C331.9,33.3,326.4,30,320.9,26.6z M92.9,143.6c-0.1-17,0-34,0-51.1c0-0.4,0.3-1,0.6-1.2c9.4-6.8,18-14.5,26.1-22.8
	c6.3-6.4,12.3-13.1,18.4-19.7c2.6-2.8,5.1-5.5,7.7-8.3c-0.1-0.1-0.1-0.2-0.2-0.3c-4.3-4.2-8.5-8.3-12.8-12.5c-0.5-0.5-1-0.6-1.7-0.4
	c-4.2,1-8.4,1.4-12.7,1.5c-8,0-16,0-24,0c-0.4,0-0.7,0-1.1,0c-0.2-9.1,0-18,1.1-27c-8,0-15.9,0-23.8,0c1.2,9,0.8,17.9,0.9,27
	c-0.5,0-0.8,0-1.2,0c-12.2,0-24.5,0-36.7-0.1c-4.3,0-8.6-0.3-12.8-0.6c-1.9-0.1-3.8-0.4-5.7-0.5c0,7.3,0,14.6,0,21.8
	c0.8,0,1.5,0,2.2,0c5.6-0.2,11.2-0.6,16.8-0.6c24.5-0.1,48.9,0,73.4,0c0.3,0,0.5,0,0.9,0.1c-0.4,0.5-0.6,0.9-0.9,1.2
	c-3.2,3.4-6.3,7-9.7,10.3c-7.1,6.8-14.7,13-23,18.2c-5.6,3.5-11.5,6.7-17.3,9.8C41.5,97,24.8,103.2,7.3,107.5
	c-2.4,0.6-4.7,1.2-7.3,1.8c4.3,6.6,8.6,13.1,12.9,19.6c20.2-6.1,39.7-13.5,58.3-23.5c0,0.3,0,0.5,0,0.6c0,12.8,0,25.7-0.1,38.5
	c0,4-0.4,8-0.6,11.9c-0.1,1.9-0.3,3.8-0.5,5.7c8,0,16,0,23.9,0c-0.1-1.2-0.2-2.4-0.2-3.6C93.4,153.6,92.9,148.6,92.9,143.6z
	 M105,101.1c0,0,25.9,14.2,43.9,28.8c0,0,13.7-17.9,14-18c0.2-0.1-37.3-24.7-44.2-26.6L105,101.1z M466.7,89
	c0.1-0.1,0.1-0.2,0.1-0.2c10.9-14.5,19.6-30.2,27.1-46.6c1.9-4.1,3.4-8.4,6-12.2c0.8-1.2,1.5-2.4,2.2-3.6c-0.1-0.2-0.1-0.2-0.2-0.3
	c-4.3-3.3-8.7-6.6-13-9.8c-0.2-0.2-0.6-0.2-0.9-0.1c-5.2,1.5-10.6,1.9-15.9,1.9c-23.2,0.1-46.4,0.1-69.6,0c-3.8,0-7.5-0.3-11.3-0.5
	c-3-0.2-6-0.4-8.9-0.7c0,7.9,0,15.8,0,23.9c1.8-0.1,3.5-0.2,5.1-0.3c5.2-0.3,10.4-0.9,15.7-0.9c21.6-0.1,43.2,0,64.8,0
	c0.3,0,0.7,0,1.1,0c-0.1,0.3-0.1,0.5-0.2,0.7c-1.4,4.6-3.3,8.9-5.6,13.1c-7.6,14.6-17,27.8-28.6,39.5c-9.4,9.5-19.5,18.1-30.4,25.8
	c-10.9,7.7-22.4,14.5-34.7,19.7c-1.9,0.8-3.7,1.5-5.6,2.3c0.1,0.1,0.1,0.2,0.1,0.2c5.6,5.8,11.1,11.5,16.7,17.3
	c0.4,0.4,0.8,0.4,1.2,0.1c3-1.5,6-2.9,8.9-4.5c11.4-6,21.9-13.4,32-21.4c9.1-7.2,17.6-14.9,25.8-23.1c1.1-1.1,2.3-2.2,3.6-3.4
	c17,16.5,33.4,33.9,47.8,53.2c6.4-5.5,12.7-10.9,19.1-16.5C502.8,123.7,485.5,105.7,466.7,89z M680.5,80.7c-21.2-9-43-16.7-65-23.5
	c-0.8-0.2-1.1-0.6-1.1-1.4c0-9.4-0.1-18.8,0.1-28.2c0.1-5.2,0.7-10.4,1.1-15.6c0.1-1.6,0.3-3.2,0.5-4.8c-8.8,0-17.4,0-26.1,0
	c0,0.3,0,0.6,0.1,0.8c1.2,6,1.5,12.1,1.5,18.2c0.1,23.6,0.1,47.2,0,70.8c0,15.1,0,30.1-0.2,45.2c-0.1,4.7-0.6,9.4-0.9,14.1
	c-0.1,1.5-0.3,3-0.5,4.6c8.7,0,17.4,0,26.1,0c0-0.5,0-0.9-0.1-1.3c-0.3-3.7-0.8-7.3-0.9-11c-0.3-6-0.4-12-0.5-18
	c-0.1-14.7-0.1-29.5-0.1-44.2c0-1.8,0-3.5,0-5.4c23.6,7.9,46.6,16.9,68.8,28.3c3.2-7.7,6.3-15.4,9.5-23.1c-0.3-0.1-0.5-0.3-0.7-0.4
	C688.3,84.3,684.4,82.4,680.5,80.7z M875.2,70.6c-2.8,3.1-5.5,6.4-8.4,9.4c-6.5,6.8-13.8,12.7-21.4,18.3
	c-17.9,13.1-37.1,23.7-58.1,30.9c-2.8,1-5.7,1.8-8.8,2.7c0-0.6,0-1,0-1.3c0-33.1,0-66.1,0-99.2c0-3.5,0.4-7,0.6-10.5
	c0.2-2.7,0.6-5.3,0.9-8.1c-8.7,0-17.5,0-26.2,0c0.3,2.4,0.7,4.8,0.9,7.2c0.4,3.8,0.9,7.7,0.9,11.6c0.1,34.9,0,69.9,0,104.8
	c0,1.6-0.1,3.2-0.4,4.7c-0.4,1.9-1.1,3.8-1.6,5.8c5.1,4.4,10.3,8.8,15.6,13.3c3.2-2.1,6.7-3.4,10.2-4.5c20.6-6.5,40.3-15,59-25.9
	c16.5-9.6,31.4-21.1,44.2-35.2c1.7-1.9,3.3-3.8,5-5.7c-4-6.4-8-12.6-12-18.9C875.6,70.2,875.4,70.4,875.2,70.6z M1045.5,98.4
	c-9.6-10.3-19.2-20.5-28.9-30.7c-7.7-8.1-15.3-16.2-23.6-23.7c-3.1-2.7-6.1-5.5-9.7-7.5c-5-2.8-10.1-3.3-15.4-0.8
	c-4.2,1.9-7.6,4.9-10.5,8.4c-7.7,9.1-15.3,18.3-22.9,27.5c-6.6,8-13.6,15.8-21.3,22.8c-2.4,2.2-4.8,4.3-7.3,6.5
	c6.7,6.9,13.4,13.8,20.1,20.7c0.1-0.2,0.2-0.2,0.3-0.4c5.1-7.2,10.2-14.4,15.4-21.5c8-10.8,16-21.4,24.1-32.1
	c1.7-2.2,3.4-4.4,5.8-5.9c1.5-1,3.2-1.6,5-0.9c1.5,0.6,2.9,1.4,4.1,2.4c2.2,1.9,4.4,4,6.4,6.2c10.2,11.2,20.6,22.3,30.5,33.8
	c12.2,14.1,24,28.5,35.9,42.8c1.3,1.5,2.5,3.1,3.8,4.7c6.2-6.7,12.2-13.2,18.3-19.8c-0.3-0.3-0.5-0.6-0.8-0.9
	C1065.1,119.6,1055.3,109,1045.5,98.4z M1047.2,54.4c-0.1-0.3-0.2-0.5-0.2-0.7c-4.9-10-10.7-19.4-16.8-28.7
	c-0.4-0.6-0.8-0.4-1.3-0.2c-2.9,1.2-5.9,2.5-8.8,3.7c-1.7,0.7-3.4,1.4-5.1,2.1c7.1,9.4,11.9,19.8,17.2,30.3
	C1037.2,58.7,1042.2,56.5,1047.2,54.4z M1072.6,43.5c-2.6-4.4-5.1-8.8-7.8-13c-3.3-5.2-6.7-10.2-10-15.3c-0.4-0.7-0.8-0.7-1.5-0.4
	c-2.2,1.1-4.4,2.1-6.6,3.1c-2.3,1.1-4.6,2.1-6.9,3.2c6.9,9.3,12.7,19.2,17.9,29.5C1062.7,48.3,1067.6,45.9,1072.6,43.5z M1249.3,86
	c-12.8,17.6-28.6,31.6-48.4,41.2c0-0.6,0-0.9,0-1.2c0-33.8,0-67.6,0-101.4c0-1.9,0.2-3.7,0.3-5.6c0.2-2.5,0.5-5,0.8-7.6
	c-8.3,0-16.5,0-24.8,0c0,0.3,0,0.6,0.1,0.9c0.8,4.9,1.2,9.8,1.2,14.7c0,35.8,0,71.5,0,107.3c0,4.6-0.3,9.3-1.2,13.8
	c-0.1,0.5,0,0.9,0.5,1.3c4.3,3.5,8.5,7,12.7,10.5c0.6,0.5,0.9,0.4,1.4,0c2.4-1.7,4.8-3.6,7.4-5c20.8-10.9,39.3-24.7,55.2-41.9
	c2.6-2.8,5-5.9,7.6-8.8C1257.8,98.2,1253.6,92.1,1249.3,86z M1127.1,12.6c0.9,4.1,1.5,8.3,1.5,12.6c0,11.1-0.2,22.2-0.4,33.3
	c-0.1,3.8-0.3,7.6-0.5,11.4c-0.3,4.4-0.6,8.8-1.1,13.2c-0.4,3.8-0.9,7.7-1.7,11.5c-1.6,8.1-4.7,15.6-8.5,22.8
	c-4.9,9.2-10.9,17.4-18.8,24.2c-2,1.8-4.2,3.4-6.3,5.1c0.1,0.1,0.3,0.3,0.4,0.4c6.4,4.3,12.8,8.6,19.2,12.9c0.6,0.4,0.9,0.2,1.3-0.2
	c2.4-2.4,5-4.7,7.3-7.2c17.4-18.7,27-40.9,28.7-66.4c0.4-5.2,0.8-10.3,1-15.5c0.4-8.7,0.7-17.3,1-26c0.2-6.2,0.1-12.4,0.2-18.6
	c0-2.4,0.3-4.9,0.5-7.3c0.2-2.4,0.5-4.7,0.7-7.1c-8.2,0-16.3,0-24.5,0C1127,12.1,1127,12.3,1127.1,12.6z"/>
</svg>
