<?xml version="1.0" encoding="utf-8"?>
<!-- Generator: Adobe Illustrator 27.9.1, SVG Export Plug-In . SVG Version: 6.00 Build 0)  -->
<svg version="1.1" id="intergalactic" xmlns="http://www.w3.org/2000/svg" xmlns:xlink="http://www.w3.org/1999/xlink" x="0px"
	 y="0px" viewBox="0 0 654.5 155.5" style="enable-background:new 0 0 654.5 155.5;" xml:space="preserve">
<path d="M133,114.1c8.8-5.5,16.2-12.4,24.3-18.9c-4-4.3-7.9-8.5-11.9-12.8c-5.5,7.3-12.7,12.7-20.2,17.8c-3.1-6.7-4.4-13.6-5.5-20.5
	c9.8,0,19.6,0,29.2,0c-0.4-24.5-0.5-49,0-73.4C136.7,7.6,124.3,7,112,7C99.6,7,87.3,7.5,75.1,6.5c0.2,8.3,0.4,16.5,0.6,24.7
	c-0.1,0-0.2,0.1-0.4,0.1c-1.5-1.1-2.9-2.2-4.4-3.3C61.9,21.3,54.7,13.3,50.2,3c-0.3-0.7-0.8-0.9-1.5-0.9c-5.5,0-11,0-16.5,0
	c-0.9,0-1.3,0.3-1.6,1.1c-5,12.3-13.2,22.2-23.4,30.4C4.9,35.5,2.4,37.2,0,39c3.6,5.2,6.3,10.8,8.3,17c2.9-2.5,5.6-4.8,8.4-7.3
	c0,2.6,0,5,0,7.4c4.7-0.1,9.3-0.3,13.9-0.4c0,4.2,0,8.1,0,12.3c-8.7-0.3-17.4-0.5-26-0.8c0,5.5,0,11.3,0,16.7
	c8.7-0.2,17.3-0.5,26-0.7c0,16,0,31.8,0,47.8c-9.4,1.2-18.8,2.3-28.3,3.5c1,6,2.1,12.3,3.2,18.6c18.4-3.4,36.6-7,54.5-12.5
	c1.1,4.8,2.1,9.5,3.2,14.3c1.5-0.4,2.9-0.8,4.3-1.1c16.5-3.7,32.7-8.2,48.7-13.5c3.1-1,3-1.1,2.9-4.4c-0.1-3.7,0-7.4,0-11.2
	c7.4,12.2,17.6,21.6,28.7,30c3.9-5.6,7.8-11.2,11.7-16.8C149.4,131.5,139.9,124.3,133,114.1z M24.5,40.9
	c6.6-6.8,11.9-14.6,16.4-23.2c4.9,8.7,11,16.1,18.2,23.2C47.4,40.9,36,40.9,24.5,40.9z M74.5,134.4c-2,0.3-4,0.7-6.3,1.1
	c0-4.6,0-9,0-13.5c-7,1.8-13.7,3.6-20.6,5.4c0-14.8,0-29.4,0-44.1c7.4,0.1,14.9-0.3,22.4,0.8c0-5.7,0-11.3,0-16.9
	c-7.4,0.2-14.8,0.4-22.4,0.6c0-4.1,0-8,0-11.9c5.3,0,10.6,0,16.1,0c0-3.4,0-7,0-10.8c0.9,0.7,1.5,1.3,1.9,1.6
	c3.2-4.7,6.4-9.4,9.6-14.1c0.1,0.1,0.3,0.1,0.4,0.2c0,0.3,0.1,0.7,0.1,1c0,33.1,0,66.1,0,99.2C75.6,133.9,75.4,134.3,74.5,134.4z
	 M93,23.3c12.8,0,25.6,0,38.4,0c0,4,0,8,0,12.1c-12.8,0-25.5,0-38.4,0C93,31.4,93,27.4,93,23.3z M93,130.7c0-17.2,0-34.1,0-51
	c3.4,0,6.7,0,10.1,0c2.3,15.3,6.4,30.1,14.9,43.6C109.6,125.8,101.4,128.2,93,130.7z M93,63.5c0-4.1,0-8.2,0-12.3
	c12.8,0,25.6,0,38.4,0c0,4.1,0,8.2,0,12.3C118.7,63.5,105.9,63.5,93,63.5z M25.3,122.3c1-0.3,1.3-0.8,1.1-1.7
	c-1.4-6.5-2.6-13.1-4.1-19.6c-0.9-4-2.3-7.8-3.5-11.9C14.1,90.6,9.6,92,5,93.4c3.8,10.8,6.3,21.8,7.6,33.2c0.5-0.2,0.9-0.3,1.3-0.4
	C17.7,124.9,21.5,123.6,25.3,122.3z M49.7,116.5c3.9,1.3,7.7,2.6,11.6,3.9c4-8.7,6.7-17.7,8.8-27.1c-4.2-1.5-8.4-2.9-12.6-4.4
	C55.9,98.4,53.5,107.6,49.7,116.5z M166.7,55.3c11.7,6.3,21.8,14.5,31.2,23.7c3.7-5.3,7.4-10.6,11.1-15.9c-9.7-8.3-19.8-16-31-22.1
	C174.3,45.7,170.6,50.4,166.7,55.3z M362.4,141.3c-0.1-26.1-0.1-52.2-0.1-78.3c0-0.4,0-0.9,0-1.2c15.5,0,30.8,0,46.1,0
	c-0.5-18.9-0.5-37.9,0-56.8c-21.6,0.6-43.1,0.6-64.7,0c0.2,3.4,0.5,6.8,0.5,10.3c0,34.2,0.1,68.5,0,102.7c0,12.5,0.6,25-0.9,37.5
	c6.7,0,13.3,0,19.9,0c0-0.3,0-0.6,0-0.8C363,150.2,362.4,145.7,362.4,141.3z M391.3,48.3c-9.6,0-19.2,0-28.9,0c0-2.8,0-5.6,0-8.5
	c9.6,0,19.2,0,28.9,0C391.3,42.7,391.3,45.5,391.3,48.3z M362.4,19.4c9.6,0,19.2,0,28.9,0c0,2.7,0,5.3,0,8c-9.6,0-19.2,0-28.9,0
	C362.4,24.8,362.4,22.2,362.4,19.4z M420,5c0.5,18.9,0.5,38,0,56.8c16.2,0,32.5,0,48.9,0c0,0.3,0,0.8,0,1.3c0,22.8,0,45.6,0,68.4
	c0,0.6-0.1,1.3-0.1,1.9c-0.1,1.4-0.9,2.5-2.3,2.8c-0.9,0.3-1.9,0.5-2.9,0.5c-4.4-0.2-8.7-0.4-13.1-0.7c-0.3,0-0.7-0.6-0.8-0.9
	c-0.2-4.7-0.5-9.5-0.5-14.2c-0.1-11.4,0-22.8,0-34.2c0-2.1,0.1-4.2,0.2-6.3c0-2.9,0-5.8,0-8.6c-22.9,0.8-45.9,0.7-69,0
	c0,0.6,0,1.3,0,2c0.1,4,0.4,8.1,0.4,12.1c0.1,10.5,0,21,0,31.5c0,7.9,0.2,15.8-0.7,23.7c-0.2,1.3-0.3,2.7-0.5,4.1c6.1,0,12,0,18.1,0
	c0-3.1,0-6.2,0-9.4c0.5,0,0.9,0,1.2,0c13.2,0,26.5,0,39.7,0c1.2,0,2.4,0,3.6,0.1c0.4,0,0.9,0.4,1,0.7c2,5,3.4,10.1,4,15.5
	c0.1,1,0.4,1.3,1.4,1.4c6.4,0.1,12.7,0.3,19.1,0.3c2.6,0,5.2-0.4,7.7-0.9c5.3-1.1,9.3-4,10.4-9.7c0.5-2.8,0.8-5.6,0.8-8.4
	c0.1-38.5,0-77.1,0.1-115.6c0-4,0.3-7.9,0.5-11.9c0-0.8,0-1.6,0-2.2C464.7,5.6,442.4,5.6,420,5z M437.4,19.4c10.5,0,20.9,0,31.4,0
	c0,2.6,0,5.3,0,8c-10.4,0-20.9,0-31.4,0C437.4,24.8,437.4,22.2,437.4,19.4z M468.8,48.4c-10.5,0-20.9,0-31.4,0c0-2.8,0-5.6,0-8.5
	c10.4,0,20.9,0,31.4,0C468.8,42.8,468.8,45.6,468.8,48.4z M397.8,86.7c11.4,0,22.8,0,34.3,0c0,3.3,0,6.5,0,9.9
	c-11.5,0-22.8,0-34.3,0C397.8,93.3,397.8,90.1,397.8,86.7z M432.2,121.4c-11.5,0-22.9,0-34.3,0c0-3.5,0-7,0-10.7
	c11.4,0,22.9,0,34.3,0C432.2,114.3,432.2,117.8,432.2,121.4z M197.5,91.8c-1.5-1.1-3-2.1-4.6-3.2c-0.2,0.4-0.3,0.7-0.4,1
	c-2.6,6.8-5,13.6-7.8,20.2c-3.8,9.2-8.2,18.1-14,26.3c-1,1.3-2,2.6-3.1,4c5.5,4.9,11,9.7,16.6,14.7c2.8-5.3,5.6-10.4,8.3-15.6
	c6.5-12.5,11.1-25.7,15.7-38.9c0.3-0.8,0-1.1-0.6-1.5C204.2,96.5,200.8,94.1,197.5,91.8z M303.7,6.8c-23.8,0.1-47.6,0.1-71.4,0
	c-3.9,0-7.9-0.2-11.8-0.4c-2.7-0.1-5.3-0.4-8.1-0.6c0,4.8,0,9.6,0,14.3c-4.5-3.5-8.9-7.1-13.4-10.5c-4.5-3.3-9.3-6.4-14-9.6
	c-4.1,4.5-7.9,8.9-12,13.3c11.2,6.8,21.1,15,30.1,24.4c0.4-0.5,0.7-0.8,1-1.2c2.7-3.5,5.5-6.9,8.2-10.4c0.3-0.3,0.7-0.7,1.1-0.8
	c4.1-0.3,8.2-0.7,12.4-0.7c22.1-0.1,44.2,0,66.3,0c0.4,0,0.8,0,1.3,0c0,0.4,0,0.6,0,0.8c0,35.7,0,71.3,0,107c0,2.7-1,3.8-3.7,4
	c-6.9,0.4-13.8,0-20.7-0.8c-1.9-0.2-3.7-0.4-5.7-0.7c0.1,0.4,0.2,0.6,0.2,0.7c2.3,5.3,3.8,10.9,4.4,16.7c0.1,0.7,0.4,0.8,1,0.9
	c6.8,0.3,13.7,0.8,20.5,0.9c3.8,0,7.7-0.5,11.4-1.2c5.3-1,9.2-4,10.5-9.6c0.5-2.3,0.8-4.8,0.8-7.2c0-36.6,0-73.1,0-109.7
	c0-0.6,0-1.1,0-1.9c4.1,0.2,8.1,0.4,12.1,0.6c0-6.4,0-12.8,0-19.3c-0.6,0-1.1,0-1.6,0.1C316.4,6.2,310,6.7,303.7,6.8z M277.5,41.2
	c-19.1,0.6-38.4,0.6-57.7,0c1.1,14.1,0.5,28.1,0.6,42.2c0,14.1,0.5,28.2-0.8,42.3c6.1,0,12.1,0,18.2,0c0-4.9,0-9.7,0-14.3
	c13.4,0,26.7,0,39.7,0C277,88.2,277,64.7,277.5,41.2z M259.1,94.6c-7,0-14.1,0-21.2,0c0-12.2,0-24.4,0-36.6c7.1,0,14.1,0,21.2,0
	C259.1,70.2,259.1,82.4,259.1,94.6z M652.6,60.4c-4.1-17.1-13.9-29.9-29.6-38c-10.6-5.5-22.1-7.6-33.9-7.8
	c-7.9-0.1-15.8,0.7-23.5,2.6C550,21.1,536.8,29,527,41.8c-14.3,18.5-18.4,39.3-13.5,62c1.8,8.3,5.4,15.8,11.6,21.8
	c7.3,7,15.9,9.6,25.8,7.3c5.9-1.3,10.5-4.8,14.5-9.2c5.1-5.6,8.8-12.1,11.9-18.8c5.8-12.3,9.8-25.2,13-38.4
	c2.2-9.2,3.9-18.5,5.1-27.9c0.2-1.7,0.5-3.4,0.7-5.1c1.3,0.2,2.5,0.3,3.6,0.5c1.1,0.2,2.3,0.3,3.4,0.6c13.1,3.6,22.3,11.9,27.4,24.5
	c3.9,9.6,3.9,19.5,1.5,29.4c-2.8,11.4-8.9,20.6-18.7,27.3c-7,4.7-14.8,7.2-22.9,8.9c-4.5,0.9-9,1.6-13.6,2.4
	c4.8,5.8,8.2,12.3,10.2,19.6c0.8-0.1,1.5-0.2,2.2-0.3c7.8-1.3,15.5-3.1,22.8-6.1c24.7-10,38.5-28.3,41.8-54.6
	C655,77.2,654.6,68.7,652.6,60.4z M574.9,38.6c-1.8,13.2-4.7,26.1-8.7,38.8c-2.7,8.6-5.9,17-10.6,24.8c-1.7,2.8-3.5,5.4-6.1,7.5
	c-3.6,2.8-7.5,2.8-10.9-0.3c-3.3-3-5.1-7-6.1-11.2c-3-12.3-1.1-24.1,4.2-35.3c5.5-11.6,13.9-20.4,25.7-25.8c3.9-1.8,8-2.7,12.2-3.3
	c0.2,0,0.5,0,0.8,0C575.3,35.5,575.2,37.1,574.9,38.6z"/>
</svg>
